<svg width="160" height="43" viewBox="0 0 160 43" fill="none" xmlns="http://www.w3.org/2000/svg">
<path opacity="0.18" d="M41.8693 21.5507C41.846 27.1022 39.6289 32.4176 35.7043 36.3307C31.7798 40.2438 26.4685 42.4349 20.9357 42.4232C15.403 42.4115 10.1009 40.1981 6.19281 36.2684C2.2847 32.3388 0.0898438 27.0141 0.0898438 21.4626C0.0898437 15.9111 2.2847 10.5864 6.19281 6.65678C10.1009 2.72716 15.403 0.513671 20.9357 0.502C26.4685 0.490328 31.7798 2.68143 35.7043 6.59452C39.6289 10.5076 41.846 15.823 41.8693 21.3745V21.5507Z" fill="#68E1FD"/>
<path d="M14.8109 15.7531C14.6235 15.615 14.398 15.5387 14.1655 15.5347C14.029 15.5492 13.898 15.5966 13.7836 15.6726C13.5703 15.8207 13.3981 16.0208 13.2831 16.2541C13.1682 16.4874 13.1144 16.7462 13.1267 17.0061C13.1597 17.5301 13.3761 18.0254 13.7378 18.4048C13.8704 18.572 14.0365 18.7095 14.2252 18.8084C14.414 18.9074 14.6213 18.9657 14.8338 18.9796C14.9088 18.9832 14.9832 18.9645 15.0477 18.9259C15.1002 18.8715 15.1403 18.8064 15.1654 18.7349C15.1904 18.6635 15.1998 18.5875 15.1928 18.5121C15.2233 17.9488 15.2577 17.3625 15.2883 16.8184C15.3188 16.2742 15.3303 16.0826 14.8109 15.7531Z" fill="#F7AF87"/>
<path d="M26.987 15.7414C27.1724 15.6029 27.3973 15.5277 27.6285 15.5269C27.7659 15.5374 27.8979 15.5851 28.0104 15.6648C28.2209 15.8111 28.3914 16.0081 28.5062 16.2378C28.621 16.4675 28.6764 16.7224 28.6673 16.9792C28.6399 17.5007 28.4303 17.9959 28.0754 18.3778C27.9427 18.545 27.7767 18.6825 27.5879 18.7815C27.3992 18.8805 27.1919 18.9387 26.9793 18.9526C26.9045 18.9545 26.8306 18.936 26.7655 18.8989C26.7136 18.8492 26.6728 18.789 26.6458 18.7223C26.6188 18.6556 26.6063 18.5839 26.6089 18.5119C26.5745 17.9486 26.544 17.3623 26.5096 16.8182C26.4752 16.2741 26.4676 16.071 26.987 15.7414Z" fill="#F7AF87"/>
<path d="M35.6535 35.8976V36.5222C31.7256 40.4249 26.4211 42.6143 20.8932 42.6143C15.3653 42.6143 10.0608 40.4249 6.13281 36.5222V34.1426C6.13281 34.1426 7.97356 27.1991 14.3704 26.4098C20.7671 25.6204 27.6833 26.6703 27.6833 26.6703C27.6833 26.6703 34.4315 27.5517 35.6535 35.8976Z" fill="#68E1FD"/>
<path d="M16.9512 25.7927C16.8023 26.0488 16.7147 26.336 16.6953 26.6319C16.7064 26.8067 16.7491 26.9781 16.8213 27.1377C17.103 27.7913 17.5322 28.3704 18.075 28.8292C18.6177 29.288 19.2593 29.6141 19.9491 29.7817C20.3203 29.8978 20.706 29.961 21.0948 29.9695C22.2405 29.9695 23.4091 29.1686 24.108 27.8734C24.1502 27.8076 24.1763 27.7328 24.1843 27.655C24.1807 27.5542 24.1532 27.4557 24.1041 27.3676C23.6688 26.4288 23.7452 25.214 23.8635 24.1105C23.8783 24.0182 23.8718 23.9238 23.8444 23.8346C23.8092 23.7692 23.7505 23.7199 23.6802 23.6966C22.9164 23.3786 22.1144 23.574 21.3277 23.5433C20.2317 23.5012 19.1662 22.9992 18.0701 22.9954C17.5813 22.9954 17.5431 23.1793 17.4744 23.7924C17.4082 24.483 17.2315 25.1584 16.9512 25.7927Z" fill="#F7AF87"/>
<path d="M16.9648 22.616C16.9648 22.616 17.595 25.1029 19.1302 26.7315C20.6654 28.36 24.2935 28.0496 23.8657 26.5973C23.4838 25.375 24.1789 22.616 24.1789 22.616H16.9648Z" fill="url(#paint0_linear_2017_302)"/>
<path d="M27.0675 17.9296C26.5863 22.0106 24.3255 25.3712 20.9571 25.3712C17.5888 25.3712 14.8086 22.0413 14.8086 17.9296C14.8086 13.818 16.9854 9.17749 20.369 9.17749C23.7526 9.17749 28.0605 9.58367 27.0675 17.9296Z" fill="#F7AF87"/>
<path d="M13.4382 11.7142C13.4076 10.9938 13.4382 10.1814 13.9003 9.6603C14.0252 9.54458 14.1378 9.41616 14.2363 9.2771C14.3158 9.09559 14.3599 8.90047 14.3662 8.70231C14.5495 7.16954 15.6608 5.87052 16.9363 4.99301C18.3347 4.03566 19.9549 3.45507 21.6413 3.30696C22.184 3.24933 22.7323 3.27257 23.2682 3.37593C23.8034 3.50964 24.3175 3.71727 24.7958 3.99287C25.5744 4.38466 26.2676 4.92782 26.8351 5.59079C27.1167 5.92312 27.3293 6.30852 27.4605 6.72438C27.5916 7.14025 27.6387 7.5782 27.5989 8.01257C27.9705 8.17156 28.3042 8.4078 28.578 8.7057C28.8519 9.0036 29.0596 9.35638 29.1876 9.74077C29.4364 10.538 29.5157 11.3786 29.4206 12.2085C29.2564 14.1858 28.504 16.2167 26.9306 17.4161C26.957 16.0353 26.6518 14.6684 26.0408 13.4309C25.8269 12.9979 25.5749 12.5802 25.403 12.1281C25.2269 11.6526 25.1401 11.1485 25.1471 10.6413C24.4903 10.9938 24.1046 11.7142 23.4821 12.1319C23.0853 12.3731 22.6456 12.5344 22.1874 12.607C20.7121 12.8983 19.1897 12.8445 17.7383 12.4499C17.1655 12.2928 16.4361 12.1319 16.0733 12.607C15.9009 12.934 15.8254 13.3037 15.8556 13.6723C15.8075 14.073 15.7127 14.4665 15.573 14.8449L14.6755 17.5541C14.3738 17.2897 13.5069 13.3428 13.4382 11.7142Z" fill="#404040"/>
<path d="M14.29 17.5272C14.2528 17.2848 14.1821 17.0488 14.08 16.826C14.0578 16.782 14.0214 16.7469 13.9769 16.7263C13.9439 16.7171 13.9089 16.7184 13.8767 16.73C13.8445 16.7417 13.8168 16.7632 13.7974 16.7915C13.7556 16.846 13.7292 16.9109 13.721 16.9792C13.6723 17.2467 13.6931 17.5223 13.7814 17.7793C13.8697 18.0364 14.0225 18.2663 14.2251 18.4469C14.2923 18.5107 14.3733 18.5579 14.4619 18.5848C14.5062 18.5963 14.5528 18.596 14.597 18.5839C14.6412 18.5718 14.6815 18.5483 14.7139 18.5158C15.0424 18.148 14.3779 17.8567 14.29 17.5272Z" fill="url(#paint1_linear_2017_302)"/>
<path d="M27.5382 17.3394C27.5718 17.0954 27.6413 16.8578 27.7444 16.6343C27.7689 16.5931 27.8047 16.5598 27.8475 16.5385C27.8808 16.531 27.9154 16.5328 27.9477 16.5436C27.98 16.5544 28.0087 16.5738 28.0309 16.5998C28.0733 16.6555 28.0997 16.7217 28.1072 16.7914C28.1555 17.0592 28.1341 17.335 28.0451 17.5921C27.9561 17.8491 27.8026 18.0789 27.5993 18.259C27.5341 18.3235 27.4541 18.3709 27.3663 18.397C27.322 18.4085 27.2754 18.4081 27.2312 18.396C27.187 18.3839 27.1467 18.3605 27.1143 18.328C26.7859 17.9525 27.4465 17.6612 27.5382 17.3394Z" fill="url(#paint2_linear_2017_302)"/>
<path opacity="0.18" d="M37.9453 40.0321C42.8554 40.0321 46.8359 36.0382 46.8359 31.1114C46.8359 26.1846 42.8554 22.1907 37.9453 22.1907C33.0351 22.1907 29.0547 26.1846 29.0547 31.1114C29.0547 36.0382 33.0351 40.0321 37.9453 40.0321Z" fill="#68E1FD"/>
<path d="M36.6171 38.9706C41.5273 38.9706 45.5077 34.9767 45.5077 30.0499C45.5077 25.1231 41.5273 21.1292 36.6171 21.1292C31.707 21.1292 27.7266 25.1231 27.7266 30.0499C27.7266 34.9767 31.707 38.9706 36.6171 38.9706Z" fill="white"/>
<path d="M38.0851 24.3787H34.4609V35.4223H38.0851V24.3787Z" fill="#D1D1D1"/>
<path d="M41.8344 28.0803H30.8281V31.7168H41.8344V28.0803Z" fill="#D1D1D1"/>
<path opacity="0.18" d="M153.622 21.5775C153.6 27.1386 151.38 32.4639 147.45 36.3846C143.519 40.3053 138.199 42.5011 132.657 42.4902C127.114 42.4793 121.803 40.2625 117.887 36.3264C113.972 32.3902 111.773 27.0563 111.773 21.4951C111.773 15.934 113.972 10.6001 117.887 6.6639C121.803 2.72774 127.114 0.510952 132.657 0.50004C138.199 0.489129 143.519 2.68499 147.45 6.60571C151.38 10.5264 153.6 15.8517 153.622 21.4128V21.5775Z" fill="#68E1FD"/>
<path d="M126.564 15.7492C126.379 15.6077 126.152 15.531 125.919 15.5308C125.782 15.5435 125.651 15.5909 125.537 15.6687C125.324 15.816 125.151 16.0153 125.035 16.2479C124.92 16.4805 124.865 16.7387 124.876 16.9984C124.904 17.5211 125.113 18.0176 125.468 18.4009C125.601 18.5681 125.767 18.7056 125.956 18.8045C126.145 18.9035 126.352 18.9618 126.564 18.9757C126.639 18.9757 126.712 18.9572 126.778 18.922C126.835 18.8681 126.878 18.8024 126.906 18.7294C126.934 18.6565 126.945 18.5783 126.939 18.5005C126.969 17.9334 127.004 17.3701 127.034 16.8068C127.065 16.2435 127.088 16.0749 126.564 15.7492Z" fill="#F7AF87"/>
<path d="M138.743 15.7453C138.93 15.6067 139.156 15.5316 139.388 15.5308C139.525 15.5453 139.655 15.5927 139.77 15.6687C139.982 15.8168 140.153 16.0165 140.267 16.2491C140.382 16.4816 140.435 16.7394 140.423 16.9984C140.396 17.5212 140.187 18.0179 139.831 18.4009C139.698 18.5673 139.532 18.7041 139.343 18.8024C139.154 18.9008 138.947 18.9585 138.735 18.9718C138.66 18.9754 138.586 18.9568 138.521 18.9182C138.465 18.8646 138.421 18.7988 138.394 18.7257C138.367 18.6526 138.357 18.5743 138.365 18.4967C138.33 17.9334 138.3 17.3471 138.269 16.803C138.239 16.2588 138.235 16.0749 138.743 15.7453Z" fill="#F7AF87"/>
<path d="M147.4 35.9204V36.522C143.469 40.4216 138.162 42.6068 132.635 42.6025C127.107 42.5982 121.804 40.4048 117.879 36.499V34.1423C117.879 34.1423 119.727 27.1989 126.12 26.4133C132.513 25.6278 139.433 26.6854 139.433 26.6854C139.433 26.6854 146.181 27.5629 147.4 35.9204Z" fill="#68E1FD"/>
<path d="M128.686 25.7928C128.537 26.0489 128.449 26.3361 128.43 26.632C128.438 26.8069 128.479 26.9786 128.552 27.1378C128.833 27.7894 129.261 28.3668 129.801 28.8249C130.342 29.283 130.981 29.6092 131.668 29.778C132.039 29.894 132.425 29.9572 132.814 29.9657C133.979 29.9657 135.128 29.1649 135.827 27.8735C135.869 27.8077 135.895 27.7329 135.903 27.6551C135.9 27.5543 135.872 27.4557 135.823 27.3677C135.388 26.4289 135.468 25.2141 135.583 24.1105C135.606 24.02 135.606 23.9252 135.583 23.8346C135.549 23.7676 135.49 23.7167 135.418 23.6929C134.655 23.3748 133.853 23.5741 133.066 23.5396C131.966 23.4974 130.904 22.9916 129.808 22.9878C129.32 22.9878 129.281 23.1717 129.213 23.7887C129.146 24.4808 128.968 25.1575 128.686 25.7928Z" fill="#F7AF87"/>
<path d="M128.715 22.6123C128.715 22.6123 129.345 25.0992 130.876 26.7316C132.408 28.364 136.04 28.0536 135.612 26.5975C135.253 25.3751 135.929 22.6161 135.929 22.6161L128.715 22.6123Z" fill="url(#paint3_linear_2017_302)"/>
<path d="M138.822 17.9335C138.337 22.0145 136.072 25.3751 132.689 25.3712C129.305 25.3674 126.559 22.0336 126.578 17.9258C126.597 13.818 128.763 9.17366 132.146 9.17749C135.53 9.18132 139.819 9.58751 138.822 17.9335Z" fill="#F7AF87"/>
<path d="M125.195 11.7064C125.168 10.986 125.195 10.1736 125.661 9.65249C125.786 9.53678 125.898 9.40836 125.997 9.26929C126.076 9.08778 126.12 8.89266 126.126 8.69451C126.31 7.16173 127.421 5.86271 128.7 4.9852C130.098 4.02735 131.719 3.4479 133.405 3.30298C133.947 3.24474 134.494 3.26929 135.029 3.37579C135.565 3.50608 136.079 3.7139 136.556 3.99273C137.334 4.38355 138.026 4.92689 138.592 5.59064C138.873 5.92297 139.086 6.30837 139.217 6.72424C139.348 7.1401 139.395 7.57806 139.355 8.01242C139.726 8.17245 140.059 8.40904 140.333 8.7068C140.607 9.00455 140.815 9.3568 140.944 9.74062C141.192 10.5394 141.27 11.3813 141.173 12.2122C141.009 14.1895 140.253 16.2166 138.679 17.4198C138.703 16.0368 138.394 14.6685 137.778 13.4308C137.544 13.0081 137.332 12.5732 137.144 12.1279C136.964 11.6534 136.878 11.1486 136.888 10.6411C136.228 10.9937 135.842 11.7141 135.223 12.1279C134.825 12.3691 134.384 12.5305 133.925 12.6031C132.449 12.8943 130.927 12.8405 129.476 12.446C128.903 12.2889 128.173 12.1241 127.811 12.5992C127.638 12.9262 127.563 13.2959 127.593 13.6645C127.544 14.0666 127.448 14.4614 127.307 14.8409L126.409 17.5463C126.126 17.2819 125.248 13.3388 125.195 11.7064Z" fill="#404040"/>
<path d="M126.044 17.5272C126.01 17.2832 125.941 17.0456 125.838 16.8221C125.813 16.7809 125.777 16.7476 125.735 16.7263C125.701 16.7164 125.666 16.7169 125.633 16.7279C125.6 16.7389 125.572 16.7597 125.551 16.7876C125.509 16.8433 125.482 16.9096 125.475 16.9792C125.426 17.2467 125.447 17.5223 125.535 17.7793C125.624 18.0364 125.776 18.2663 125.979 18.4469C126.046 18.5107 126.127 18.5579 126.216 18.5848C126.26 18.5963 126.307 18.596 126.351 18.5839C126.395 18.5718 126.435 18.5483 126.468 18.5158C126.796 18.1288 126.132 17.8491 126.044 17.5272Z" fill="url(#paint4_linear_2017_302)"/>
<path d="M139.309 17.3624C139.346 17.12 139.417 16.884 139.519 16.6612C139.541 16.6172 139.578 16.5821 139.622 16.5615C139.655 16.5523 139.69 16.5536 139.722 16.5652C139.754 16.5769 139.782 16.5984 139.802 16.6267C139.843 16.6812 139.87 16.7461 139.878 16.8144C139.927 17.0823 139.906 17.3584 139.817 17.6157C139.728 17.8729 139.574 18.1026 139.37 18.2821C139.305 18.3465 139.225 18.3939 139.137 18.42C139.093 18.4315 139.046 18.4312 139.002 18.4191C138.958 18.407 138.917 18.3835 138.885 18.351C138.545 17.9602 139.21 17.669 139.309 17.3624Z" fill="url(#paint5_linear_2017_302)"/>
<path opacity="0.18" d="M151.023 40.0321C155.934 40.0321 159.914 36.0382 159.914 31.1114C159.914 26.1846 155.934 22.1907 151.023 22.1907C146.113 22.1907 142.133 26.1846 142.133 31.1114C142.133 36.0382 146.113 40.0321 151.023 40.0321Z" fill="#68E1FD"/>
<path d="M149.699 38.9706C154.609 38.9706 158.59 34.9767 158.59 30.0499C158.59 25.1231 154.609 21.1292 149.699 21.1292C144.789 21.1292 140.809 25.1231 140.809 30.0499C140.809 34.9767 144.789 38.9706 149.699 38.9706Z" fill="white"/>
<path d="M156.183 26.7009L147.896 34.6675L146.097 32.717L145.91 32.5177L143.512 29.9925L145.761 27.8964L148.133 30.3949L154.182 24.6086L156.183 26.7009Z" fill="#8EE88E"/>
<path opacity="0.18" d="M96.8694 21.5507C96.8694 25.7137 95.6391 29.7833 93.334 33.2448C91.029 36.7062 87.7527 39.4041 83.9195 40.9972C80.0864 42.5903 75.8685 43.0072 71.7992 42.195C67.7299 41.3828 63.9921 39.3781 61.0583 36.4344C58.1245 33.4907 56.1266 29.7402 55.3172 25.6571C54.5077 21.574 54.9232 17.3418 56.5109 13.4957C58.0987 9.64949 60.7874 6.36212 64.2372 4.04925C67.6869 1.73638 71.7427 0.501895 75.8917 0.501895C78.635 0.490297 81.3537 1.02098 83.8926 2.06365C86.4315 3.10632 88.7409 4.64055 90.6889 6.57875C92.6368 8.51695 94.1852 10.8211 95.2457 13.3598C96.3061 15.8984 96.8579 18.6218 96.8694 21.3744V21.5507Z" fill="#68E1FD"/>
<path d="M69.8031 15.7531C69.6157 15.615 69.3902 15.5387 69.1577 15.5347C69.0212 15.5492 68.8902 15.5966 68.7758 15.6726C68.5625 15.8207 68.3902 16.0208 68.2753 16.2541C68.1604 16.4874 68.1066 16.7462 68.1189 17.0061C68.1463 17.5276 68.3559 18.0228 68.7109 18.4048C68.8435 18.572 69.0096 18.7095 69.1983 18.8084C69.3871 18.9074 69.5944 18.9657 69.8069 18.9796C69.8819 18.9832 69.9563 18.9645 70.0208 18.9259C70.0767 18.8732 70.1204 18.8089 70.1488 18.7373C70.1772 18.6658 70.1895 18.5889 70.185 18.5121C70.2155 17.9488 70.2499 17.3625 70.2805 16.8184C70.311 16.2742 70.3263 16.0826 69.8031 15.7531Z" fill="#F7AF87"/>
<path d="M81.9831 15.7414C82.1685 15.6029 82.3934 15.5277 82.6246 15.5269C82.762 15.5374 82.894 15.5851 83.0065 15.6648C83.217 15.8111 83.3875 16.0081 83.5023 16.2378C83.6171 16.4675 83.6725 16.7224 83.6634 16.9792C83.636 17.5007 83.4264 17.9959 83.0715 18.3778C82.9388 18.545 82.7728 18.6825 82.584 18.7815C82.3952 18.8805 82.188 18.9387 81.9754 18.9526C81.9006 18.9545 81.8267 18.936 81.7616 18.8989C81.7051 18.8454 81.6616 18.7795 81.6344 18.7065C81.6073 18.6334 81.5972 18.555 81.605 18.4774C81.5706 17.9141 81.54 17.3279 81.5057 16.7837C81.4713 16.2396 81.4637 16.071 81.9831 15.7414Z" fill="#F7AF87"/>
<path d="M90.6496 35.8976V36.5222C86.7216 40.4249 81.4172 42.6143 75.8893 42.6143C70.3614 42.6143 65.0569 40.4249 61.1289 36.5222V34.1426C61.1289 34.1426 62.9697 27.1991 69.3665 26.4098C75.7632 25.6204 82.6794 26.6703 82.6794 26.6703C82.6794 26.6703 89.4237 27.5517 90.6496 35.8976Z" fill="#68E1FD"/>
<path d="M71.9473 25.7927C71.7984 26.0488 71.7108 26.336 71.6914 26.6319C71.7025 26.8067 71.7452 26.9781 71.8174 27.1377C72.0991 27.7913 72.5283 28.3704 73.071 28.8292C73.6138 29.288 74.2554 29.6141 74.9452 29.7817C75.3164 29.8978 75.7021 29.961 76.0909 29.9695C77.2366 29.9695 78.4052 29.1686 79.104 27.8734C79.1462 27.8076 79.1724 27.7328 79.1804 27.655C79.1755 27.5539 79.1467 27.4554 79.0964 27.3676C78.6649 26.4288 78.7412 25.214 78.8596 24.1105C78.8744 24.0182 78.8679 23.9238 78.8405 23.8346C78.8053 23.7692 78.7466 23.7199 78.6763 23.6966C77.9125 23.3786 77.1105 23.574 76.3238 23.5433C75.224 23.5012 74.1623 22.9992 73.0662 22.9954C72.5774 22.9954 72.5392 23.1793 72.4705 23.7924C72.4043 24.483 72.2276 25.1584 71.9473 25.7927Z" fill="#F7AF87"/>
<path d="M71.9609 22.616C71.9609 22.616 72.5911 25.1029 74.1263 26.7315C75.6615 28.36 79.2896 28.0496 78.858 26.5973C78.499 25.375 79.175 22.616 79.175 22.616H71.9609Z" fill="url(#paint6_linear_2017_302)"/>
<path d="M82.064 17.9296C81.5828 22.0106 79.3219 25.3712 75.9536 25.3712C72.5853 25.3712 69.8203 22.0413 69.8203 17.9296C69.8203 13.818 72.0009 9.17749 75.3846 9.17749C78.7682 9.17749 83.0569 9.58367 82.064 17.9296Z" fill="#F7AF87"/>
<path d="M68.4343 11.7142C68.4037 10.9938 68.4343 10.1814 68.8963 9.6603C69.0213 9.54458 69.1339 9.41616 69.2324 9.2771C69.3119 9.09559 69.356 8.90047 69.3623 8.70231C69.5456 7.16954 70.6569 5.87052 71.9324 4.99301C73.3308 4.03566 74.951 3.45507 76.6374 3.30696C77.1801 3.24933 77.7284 3.27257 78.2643 3.37593C78.7995 3.50964 79.3136 3.71727 79.7919 3.99287C80.5705 4.38466 81.2637 4.92782 81.8312 5.59079C82.1128 5.92312 82.3254 6.30852 82.4566 6.72438C82.5877 7.14025 82.6348 7.5782 82.595 8.01257C82.9671 8.17133 83.3015 8.40744 83.576 8.70533C83.8505 9.00322 84.0589 9.35613 84.1875 9.74077C84.4363 10.538 84.5156 11.3786 84.4205 12.2085C84.2563 14.1858 83.5039 16.2167 81.9305 17.4161C81.9569 16.0353 81.6517 14.6684 81.0407 13.4309C80.8268 12.9979 80.5748 12.5802 80.4029 12.1281C80.2268 11.6526 80.14 11.1485 80.1471 10.6413C79.4902 10.9938 79.1045 11.7142 78.482 12.1319C78.0852 12.3731 77.6455 12.5344 77.1873 12.607C75.712 12.8983 74.1896 12.8445 72.7382 12.4499C72.1654 12.2928 71.436 12.1319 71.0732 12.607C70.9008 12.934 70.8253 13.3037 70.8555 13.6723C70.808 14.0747 70.7119 14.4697 70.5691 14.8487L69.6754 17.5579C69.3699 17.2897 68.503 13.3428 68.4343 11.7142Z" fill="#404040"/>
<path d="M69.2861 17.5272C69.2489 17.2848 69.1782 17.0488 69.0761 16.826C69.0539 16.782 69.0175 16.7469 68.973 16.7263C68.94 16.7171 68.905 16.7184 68.8728 16.73C68.8406 16.7417 68.8129 16.7632 68.7935 16.7915C68.7517 16.846 68.7253 16.9109 68.7171 16.9792C68.6684 17.2467 68.6892 17.5223 68.7775 17.7793C68.8658 18.0364 69.0186 18.2663 69.2212 18.4469C69.2884 18.5107 69.3694 18.5579 69.458 18.5848C69.5023 18.5963 69.5489 18.596 69.5931 18.5839C69.6373 18.5718 69.6776 18.5483 69.71 18.5158C70.0385 18.148 69.374 17.8567 69.2861 17.5272Z" fill="url(#paint7_linear_2017_302)"/>
<path d="M82.5382 17.3394C82.5718 17.0954 82.6413 16.8578 82.7444 16.6343C82.7689 16.5931 82.8047 16.5598 82.8475 16.5385C82.8808 16.531 82.9154 16.5328 82.9477 16.5436C82.98 16.5544 83.0087 16.5738 83.0308 16.5998C83.0696 16.6575 83.0956 16.7228 83.1072 16.7914C83.1555 17.0592 83.1341 17.335 83.0451 17.5921C82.9561 17.8491 82.8026 18.0789 82.5993 18.259C82.5341 18.3235 82.4541 18.3709 82.3663 18.397C82.322 18.4085 82.2754 18.4081 82.2312 18.396C82.187 18.3839 82.1467 18.3605 82.1143 18.328C81.7859 17.9525 82.4465 17.6612 82.5382 17.3394Z" fill="url(#paint8_linear_2017_302)"/>
<path opacity="0.18" d="M95.8203 40.0321C100.73 40.0321 104.711 36.0382 104.711 31.1114C104.711 26.1846 100.73 22.1907 95.8203 22.1907C90.9101 22.1907 86.9297 26.1846 86.9297 31.1114C86.9297 36.0382 90.9101 40.0321 95.8203 40.0321Z" fill="#68E1FD"/>
<path d="M94.4921 38.9706C99.4023 38.9706 103.383 34.9767 103.383 30.0499C103.383 25.1231 99.4023 21.1292 94.4921 21.1292C89.582 21.1292 85.6016 25.1231 85.6016 30.0499C85.6016 34.9767 89.582 38.9706 94.4921 38.9706Z" fill="white"/>
<path d="M96.7748 24.6658L88.9922 32.4749L91.5549 35.0462L99.3375 27.2372L96.7748 24.6658Z" fill="#F93D96"/>
<path d="M91.5939 24.7079L89.0312 27.2793L96.8139 35.0883L99.3766 32.5169L91.5939 24.7079Z" fill="#F93D96"/>
<defs>
<linearGradient id="paint0_linear_2017_302" x1="18.2175" y1="27.9807" x2="25.1534" y2="18.1777" gradientUnits="userSpaceOnUse">
<stop stop-opacity="0"/>
<stop offset="0.99"/>
</linearGradient>
<linearGradient id="paint1_linear_2017_302" x1="54.1227" y1="-96.2948" x2="67.5828" y2="-96.5117" gradientUnits="userSpaceOnUse">
<stop stop-opacity="0"/>
<stop offset="0.99"/>
</linearGradient>
<linearGradient id="paint2_linear_2017_302" x1="1099.11" y1="90.4659" x2="1085.66" y2="90.6829" gradientUnits="userSpaceOnUse">
<stop stop-opacity="0"/>
<stop offset="0.99"/>
</linearGradient>
<linearGradient id="paint3_linear_2017_302" x1="2604.66" y1="425.399" x2="2685.69" y2="266.419" gradientUnits="userSpaceOnUse">
<stop stop-opacity="0"/>
<stop offset="0.99"/>
</linearGradient>
<linearGradient id="paint4_linear_2017_302" x1="489.376" y1="90.8767" x2="502.836" y2="91.0869" gradientUnits="userSpaceOnUse">
<stop stop-opacity="0"/>
<stop offset="0.99"/>
</linearGradient>
<linearGradient id="paint5_linear_2017_302" x1="1322.87" y1="91.4647" x2="1309.34" y2="91.6839" gradientUnits="userSpaceOnUse">
<stop stop-opacity="0"/>
<stop offset="0.99"/>
</linearGradient>
<linearGradient id="paint6_linear_2017_302" x1="1476.83" y1="-432.663" x2="1557.7" y2="-273.849" gradientUnits="userSpaceOnUse">
<stop stop-opacity="0"/>
<stop offset="0.99"/>
</linearGradient>
<linearGradient id="paint7_linear_2017_302" x1="268.844" y1="-96.2948" x2="282.293" y2="-96.5117" gradientUnits="userSpaceOnUse">
<stop stop-opacity="0"/>
<stop offset="0.99"/>
</linearGradient>
<linearGradient id="paint8_linear_2017_302" x1="1203.81" y1="90.4659" x2="1190.35" y2="90.6829" gradientUnits="userSpaceOnUse">
<stop stop-opacity="0"/>
<stop offset="0.99"/>
</linearGradient>
</defs>
</svg>
