<svg width="88" height="66" viewBox="0 0 88 66" fill="none" xmlns="http://www.w3.org/2000/svg">
<g clipPath="url(#clip0_1106_79105)">
<path opacity="0.18" d="M6.26009 56.2094C-0.97346 50.9361 0.821563 38.3427 1.29242 34.2863C1.55355 32.0532 2.09844 29.8201 3.2211 27.9078C6.45543 22.3944 13.3435 21.0015 18.4346 17.3901C24.0993 13.3937 27.7058 6.4999 33.8023 3.29203C37.1579 1.52667 40.9803 1.04859 44.7246 0.837492C51.5222 0.452548 58.9614 1.10033 64.0134 5.93076C67.6671 9.42423 69.4889 14.5796 72.7356 18.4973C75.5977 21.9535 79.4633 24.3232 82.4591 27.6511C86.9086 32.5892 89.1827 40.1453 86.777 46.4741C84.542 52.3372 81.1206 56.1846 79.3461 56.7641C73.6506 58.6267 61.2026 58.8523 55.2459 59.2787C48.8616 59.734 43.1146 58.7364 36.7179 58.7571C26.8484 58.7902 13.3826 59.3387 6.26832 56.2012" fill="#D1D5DB"/>
<path d="M68.5797 38.5003C68.5797 38.5003 69.505 40.8452 64.6463 42.298C59.7876 43.7509 57.1208 49.4981 57.2256 54.3327V57.4495C57.2256 57.4495 72.3343 63.0374 85.1462 57.88C85.1462 57.88 86.3798 44.8229 77.6206 41.7599C77.6206 41.7599 75.805 41.2218 76.3376 39.0695C76.3376 39.0695 80.5034 36.7039 79.7549 30.4703C79.0065 24.2367 76.6275 22.3016 74.1683 22.1609C64.2371 21.5917 64.2022 34.7026 68.5797 38.5003Z" fill="#FFCEB3"/>
<path d="M86.3451 57.7724C86.3451 57.7724 86.5301 48.6662 85.0271 45.5742C83.7584 42.9603 80.485 42.2898 77.7216 41.435C77.568 41.3774 77.4037 41.3548 77.2404 41.3688C77.0385 41.421 76.8522 41.5218 76.6976 41.6627C75.1953 42.8007 73.3296 43.3429 71.4558 43.186C69.5821 43.0292 67.831 42.1842 66.5361 40.8121C63.2216 41.8282 60.6288 41.8075 58.8893 44.825C57.1498 47.8425 56.2882 53.7346 56.6152 57.2074C56.6069 57.2095 71.5408 63.3003 86.3451 57.7724Z" fill="#F87171"/>
<path d="M60.1172 44.9099C60.1172 44.9099 62.6257 42.3208 63.6353 42.3084C64.6448 42.296 70.8318 59.9599 70.8318 59.9599L61.5976 59.5171L60.1172 44.9099Z" fill="url(#paint0_linear_1106_79105)"/>
<path d="M65.5284 23.1253C66.1062 21.1923 67.5414 19.4 69.4968 18.9509C70.0808 18.8164 70.6832 18.8061 71.2713 18.6922C71.6291 18.6219 71.9786 18.5163 72.3323 18.4273C73.7822 18.0424 75.3083 18.0567 76.7509 18.4687C78.1992 18.8914 79.4407 19.8387 80.2361 21.1281C80.9599 22.3699 81.1634 23.8517 81.0586 25.2839C80.9537 26.716 80.1292 29.2534 79.7406 30.6338C79.0497 29.7232 79.5103 27.1403 78.5439 26.5319C77.8571 26.0993 76.973 26.2959 76.1732 26.4325C74.3182 26.7533 72.4172 26.6829 70.5907 26.2256C69.7251 26.0062 68.8368 25.6999 67.9629 25.8779C67.2042 26.031 66.9349 26.6167 66.5236 27.2666C66.2317 27.7157 66.0569 29.957 65.8081 30.3937C65.2282 30.1868 65.1152 26.6353 65.1213 26.1241C65.1167 25.1103 65.2538 24.1008 65.5284 23.1253Z" fill="#404040"/>
<path d="M80.2797 30.0378C80.3717 29.9496 80.4806 29.8813 80.5997 29.8368C80.7189 29.7923 80.8457 29.7727 80.9726 29.7791C81.0695 29.8002 81.1605 29.843 81.2388 29.9042C81.3171 29.9655 81.3807 30.0436 81.425 30.133C81.5124 30.3123 81.5601 30.5086 81.5648 30.7083C81.6119 31.5066 81.3528 32.2926 80.841 32.9042C80.5593 33.2353 80.1399 33.525 79.7183 33.4236C79.6339 33.4086 79.5563 33.3673 79.4963 33.3057C79.4502 33.2477 79.4166 33.1808 79.3976 33.109C79.2336 32.4829 79.2223 31.8261 79.3647 31.1947C79.412 30.9194 79.4387 30.6504 79.669 30.4724C79.8602 30.3234 80.0823 30.1868 80.2797 30.0378Z" fill="#F7AF87"/>
<path d="M45.2333 40.5103C45.5581 40.4565 45.9118 40.384 46.1236 40.1316C46.2783 39.9072 46.3661 39.6429 46.3765 39.3699C46.7733 36.367 47.8775 27.5195 44.9372 22.449C44.526 21.7246 43.465 21.557 42.8934 21.0002C41.5528 19.6757 39.8359 18.0697 37.4631 18.0862C31.7757 18.1256 29.187 20.9588 26.8574 26.1825C25.4428 29.351 25.0069 38.9477 26.1789 39.877C27.4126 40.8559 30.6613 40.7773 32.1911 40.9304C36.5381 41.3619 40.9225 41.2207 45.2333 40.5103Z" fill="#302E2E"/>
<path d="M42.8149 25.7686C42.9232 25.6193 43.0638 25.4969 43.2262 25.4105C43.7053 25.1746 44.2851 25.4519 44.6655 25.8245C45.1454 26.334 45.4794 26.9647 45.6319 27.6498C45.7779 28.3297 45.8469 29.024 45.8375 29.7194C45.8498 30.5735 45.8238 31.4275 45.7594 32.2816C45.6936 33.5379 45.4328 34.776 44.9862 35.951C44.5072 37.112 43.7238 38.1737 42.6504 38.8132C41.8527 35.9406 41.7786 32.9232 41.7108 29.943C41.6985 29.469 41.6882 28.9971 41.6985 28.5253C41.6985 28.339 41.647 27.9789 41.7355 27.8133C41.8239 27.6478 41.9822 27.6809 42.1261 27.5712C42.3544 27.3994 42.3153 27.0807 42.3667 26.8199C42.4462 26.4433 42.5985 26.0861 42.8149 25.7686Z" fill="url(#paint1_linear_1106_79105)"/>
<path d="M15.148 37.5003C14.6977 36.4511 14.7882 35.2528 14.9424 34.1207C15.0802 33.1356 15.2796 32.1215 15.8533 31.3123C16.3874 30.6021 17.1219 30.0705 17.9608 29.787C18.7948 29.5084 19.6634 29.3482 20.5413 29.311C21.8026 29.224 23.0689 29.2448 24.3267 29.373C25.2119 29.4335 26.0808 29.6434 26.8969 29.9939C28.0073 30.5406 28.8921 31.4619 29.3972 32.5975C29.895 33.7323 30.0639 34.9857 29.8845 36.2131C29.844 36.7412 29.6558 37.2471 29.3416 37.6721C28.9737 38.0517 28.5092 38.3222 27.999 38.4544C26.1484 39.0505 24.1869 39.0049 22.2705 38.9284C20.6811 38.8663 19.0753 38.9573 17.5105 38.6469C16.5935 38.4668 15.5675 38.4813 15.148 37.5003Z" fill="url(#paint2_linear_1106_79105)"/>
<path d="M48.7991 58.8779C35.979 64.0374 20.8786 58.4475 20.8786 58.4475V55.3431C20.7634 50.4961 23.4364 44.7468 28.2992 43.298C33.162 41.8493 32.8228 40.1543 32.8228 40.1543C28.4473 36.3587 27.888 22.5938 37.8254 23.165C40.2928 23.3058 42.6676 25.2346 43.412 31.4765C44.1563 37.7184 39.2997 40.4441 39.2997 40.4441C39.2342 40.7505 39.2575 41.0694 39.3669 41.3629C39.4762 41.6564 39.667 41.9122 39.9165 42.0997C40.319 42.4121 40.7809 42.6382 41.2736 42.7641C50.0225 45.8209 48.7991 58.8779 48.7991 58.8779Z" fill="#F1AC96"/>
<path d="M32.4261 32.2671C34.363 32.2671 36.3204 31.9877 38.0949 31.2095C39.8694 30.4314 41.4506 29.1172 42.3553 27.3974C42.6605 26.8577 42.8372 26.2541 42.8714 25.6341C42.894 24.4627 42.1558 23.3679 41.175 22.7366C40.1942 22.1054 39.0078 21.8778 37.8461 21.8281C35.3438 21.7225 32.7592 22.4324 30.8552 24.0695C30.0662 24.7437 29.4222 25.5729 28.9626 26.5063C28.503 27.4397 28.2374 28.4577 28.1822 29.498C28.0897 31.7704 30.5797 32.265 32.4261 32.2671Z" fill="#302E2E"/>
<path d="M49.9909 58.7724C49.9909 58.7724 49.0143 51.3405 47.5112 48.2423C46.2426 45.6284 44.1288 43.2898 41.3654 42.4371C41.2119 42.3793 41.0475 42.3567 40.8842 42.3708C40.6827 42.4226 40.497 42.5236 40.3435 42.6647C38.8411 43.8027 36.9755 44.3449 35.1017 44.1881C33.2279 44.0312 31.5454 43.8722 30.2505 42.5C26.9385 43.5325 24.069 45.1025 22.3418 48.1285C20.6023 51.1439 19.9423 54.7367 20.261 58.2095C20.261 58.2095 35.1846 64.3003 49.9909 58.7724Z" fill="#FDBA74"/>
<path d="M36.3293 60.7385C36.3293 60.7385 30.6399 61.3738 29.4844 60.7923C29.4844 60.7923 32.363 45.2186 39.2141 42.9772C39.2141 42.9772 42.1832 43.4739 44.5087 48.2423C45.1852 49.6268 36.3293 60.7385 36.3293 60.7385Z" fill="url(#paint3_linear_1106_79105)"/>
<path d="M37.3477 62.0022V52.5732C37.3477 52.5732 39.5909 44.0878 47.3858 43.1151C55.1807 42.1424 63.615 43.438 63.615 43.438C63.615 43.438 71.8396 44.5121 73.3304 54.7214V62.7825C73.3304 62.7825 52.6167 68.8091 37.3477 62.0022Z" fill="#10B981"/>
<path d="M47.6689 32.167C47.3358 31.96 46.9266 31.8172 46.5607 31.96C46.4091 32.0198 46.2733 32.114 46.1638 32.2353C45.586 32.8561 45.6189 33.8226 45.8019 34.6505C45.9038 35.1151 46.0413 35.5711 46.2132 36.0143C46.2848 36.2198 46.3882 36.4126 46.5195 36.5856C46.9308 37.076 47.6504 37.1423 48.2837 37.0678C48.6579 37.0243 49.0753 36.9105 49.246 36.5711C49.3047 36.4407 49.3382 36.3002 49.3447 36.1571C49.5153 34.4828 49.1247 33.0528 47.6689 32.167Z" fill="#F7AF87"/>
<path d="M63.3512 32.8458C63.8179 32.5188 64.4245 32.2663 64.9488 32.494C65.1539 32.5984 65.3284 32.7549 65.455 32.948C65.5816 33.1411 65.6559 33.3641 65.6705 33.595C65.6942 34.0568 65.6141 34.5181 65.4361 34.9444C65.2556 35.4919 64.9729 35.9997 64.6034 36.4407C64.2282 36.8827 63.6977 37.1616 63.1229 37.2189C62.837 37.2413 62.5507 37.1811 62.2976 37.0455C62.0445 36.9099 61.8351 36.7044 61.6939 36.4531C61.5543 36.1174 61.4898 35.755 61.5047 35.3914C61.4791 35.112 61.5106 34.8303 61.5973 34.5636C61.8234 33.9944 62.8721 33.1811 63.3512 32.8458Z" fill="#F7AF87"/>
<path d="M50.5352 44.0278C50.3526 44.3437 50.2456 44.6979 50.2227 45.0626C50.2362 45.2771 50.2877 45.4873 50.3748 45.6835C51.1274 47.5461 52.6859 48.4857 54.189 48.9203C54.6401 49.0619 55.1086 49.1392 55.581 49.1501C56.9997 49.1501 58.402 48.1691 59.2553 46.5858C59.3052 46.5047 59.3368 46.4136 59.3479 46.3189C59.3431 46.1958 59.3085 46.0757 59.2471 45.9691C58.7166 44.8184 58.8133 43.3345 58.9531 41.9831C58.9744 41.8714 58.9674 41.756 58.9325 41.6478C58.9115 41.6067 58.8824 41.5703 58.8471 41.5408C58.8118 41.5113 58.7709 41.4893 58.7269 41.476C57.8078 41.0869 56.8209 41.3291 55.8483 41.2918C54.5118 41.2422 53.2164 40.6233 51.8779 40.6213C51.2816 40.6213 51.2363 40.8448 51.152 41.5961C51.0779 42.4348 50.8696 43.256 50.5352 44.0278Z" fill="#F7AF87"/>
<path d="M50.5508 40.1556C50.5508 40.1556 51.3218 43.1979 53.1909 45.191C55.0599 47.184 59.4848 46.8032 58.9625 45.0233C58.5225 43.5311 59.347 40.1556 59.347 40.1556H50.5508Z" fill="url(#paint4_linear_1106_79105)"/>
<path d="M58.5137 28.9239C58.308 28.717 58.0675 28.51 57.7776 28.4914C57.6643 28.4916 57.5524 28.5174 57.4503 28.5668C57.3482 28.6162 57.2584 28.6881 57.1874 28.777C57.0459 28.9575 56.9518 29.1711 56.914 29.3979C56.8167 29.9475 56.8599 30.5129 57.0394 31.0411C57.245 31.6868 57.6131 32.3408 58.2381 32.5871C58.3457 32.6394 58.4649 32.6628 58.5841 32.6552C58.7033 32.6476 58.8186 32.6092 58.9187 32.5437C59.0533 32.408 59.1368 32.2295 59.1552 32.0387C59.3999 30.8197 59.4389 29.8304 58.5137 28.9239Z" fill="#F7AF87"/>
<path d="M62.8662 34.4187C62.2761 39.4085 59.5208 43.5249 55.3921 43.5249C51.2633 43.5249 47.918 39.4499 47.918 34.4187C47.918 29.3875 50.5725 23.7148 54.7033 23.7148C58.8341 23.7148 64.0732 24.2198 62.8662 34.4187Z" fill="#F7AF87"/>
<path d="M46.791 32.7734C46.5169 30.799 46.3366 28.8135 46.2503 26.8171C46.2132 25.9375 46.2276 24.9544 46.8136 24.3067C46.9681 24.1648 47.106 24.0058 47.2249 23.8327C47.3223 23.6107 47.3761 23.3717 47.3832 23.1291C47.6053 21.2437 48.9603 19.6687 50.5147 18.5946C52.218 17.4206 54.193 16.7078 56.2493 16.525C56.9105 16.4526 57.5788 16.4812 58.2315 16.6098C58.8876 16.771 59.5176 17.0254 60.1026 17.3652C61.0319 17.8723 61.9264 18.4849 62.5864 19.3148C63.2464 20.1447 63.6515 21.223 63.5117 22.2764C63.9647 22.4715 64.3717 22.7608 64.7058 23.1253C65.04 23.4898 65.2938 23.9213 65.4506 24.3915C65.7536 25.3671 65.8503 26.3956 65.7344 27.411C65.5288 29.8283 64.6158 32.3098 62.6995 33.7792C62.7303 32.0892 62.358 30.4164 61.6138 28.9012C61.3292 28.3847 61.0705 27.8542 60.8387 27.3117C60.6204 26.7309 60.5143 26.1134 60.5261 25.4925C59.7242 25.923 59.2534 26.8047 58.4967 27.3138C58.0128 27.6089 57.4765 27.8064 56.9176 27.8953C55.1191 28.2529 53.2628 28.1877 51.4934 27.7049C50.7944 27.5145 49.904 27.3158 49.464 27.8953C49.1906 28.2534 49.2378 28.7501 49.2008 29.2012C49.14 29.6929 49.022 30.1757 48.8492 30.6396L47.7595 33.951C47.3894 33.6343 46.8609 33.2597 46.791 32.7734Z" fill="#404040"/>
<path d="M39.9517 42.1887C36.4954 44.4177 34.0876 40.6386 33.9766 40.4503C34.7883 40.9074 35.7029 41.1475 36.6331 41.1475C37.5633 41.1475 38.4779 40.9074 39.2897 40.4503C39.2242 40.7567 39.2475 41.0756 39.3569 41.3691C39.4662 41.6626 39.657 41.9184 39.9065 42.1059L39.9517 42.1887Z" fill="url(#paint5_linear_1106_79105)"/>
<path d="M58.4859 31.1653C58.342 30.977 58.1899 30.7514 58.2598 30.5196C58.3297 30.2878 58.5723 30.1678 58.5744 29.9443C58.5697 29.8807 58.5517 29.819 58.5215 29.763C58.4914 29.707 58.4498 29.658 58.3996 29.6193C58.2814 29.5098 58.13 29.4434 57.9698 29.431C57.9148 29.4269 57.8597 29.4391 57.8115 29.4662C57.757 29.5058 57.7161 29.5615 57.6943 29.6255C57.4538 30.1678 57.5339 30.8052 57.7457 31.3599C57.7813 31.4652 57.8364 31.5628 57.9082 31.6475C58.0096 31.7407 58.1326 31.8069 58.2659 31.84C58.4715 31.9062 58.7142 31.9083 58.7615 31.6496C58.7964 31.4633 58.5805 31.2978 58.4859 31.1653Z" fill="url(#paint6_linear_1106_79105)"/>
<path d="M80.1248 32.2067C80.2688 32.0184 80.4209 31.7928 80.351 31.561C80.2811 31.3292 80.0385 31.2091 80.0344 30.9856C80.0396 30.922 80.058 30.8602 80.0884 30.8042C80.1189 30.7483 80.1607 30.6994 80.2112 30.6607C80.3289 30.5505 80.4805 30.484 80.6409 30.4724C80.6953 30.4681 80.7497 30.4804 80.7972 30.5076C80.8523 30.5471 80.8939 30.6027 80.9164 30.6669C81.155 31.2091 81.0748 31.8466 80.863 32.4012C80.8311 32.5227 80.7654 32.6324 80.6736 32.7175C80.5818 32.8026 80.4677 32.8595 80.3448 32.8814C80.1392 32.9476 79.8966 32.9497 79.8472 32.691C79.8143 32.5089 80.022 32.3391 80.1248 32.2067Z" fill="url(#paint7_linear_1106_79105)"/>
<path d="M62.8784 35.1369C63.106 35.1632 63.3355 35.1074 63.5261 34.9796C63.6258 34.9322 63.7126 34.8612 63.779 34.7726C63.9476 34.5056 63.7626 34.1352 63.8839 33.8454C63.9437 33.74 64.027 33.65 64.1273 33.5824C64.2275 33.5149 64.342 33.4718 64.4617 33.4563C64.5458 33.4282 64.6366 33.4282 64.7207 33.4563C64.7835 33.4987 64.834 33.557 64.8672 33.6253C64.9004 33.6936 64.9151 33.7696 64.9099 33.8454C64.9518 34.5013 64.7428 35.1484 64.326 35.6543C64.1173 35.903 63.8607 36.1065 63.5715 36.2523C63.2824 36.3982 62.9669 36.4834 62.644 36.5028C62.6111 36.5074 62.5775 36.5024 62.5474 36.4883C62.5143 36.466 62.4909 36.432 62.4816 36.3931C62.4163 36.2059 62.4009 36.0048 62.437 35.8098C62.4731 35.6148 62.5594 35.4327 62.6872 35.2817" fill="url(#paint8_linear_1106_79105)"/>
<path d="M46.7597 34.2821C46.8543 34.4415 47.0455 34.5035 47.2038 34.5967C47.3623 34.6927 47.494 34.8275 47.5867 34.9885C47.6795 35.1495 47.7303 35.3316 47.7343 35.5176C47.7463 35.6404 47.7188 35.7638 47.6559 35.8696C47.593 35.9754 47.4979 36.0581 47.3848 36.1054C47.1565 36.1696 46.9283 36.0061 46.7679 35.8302C46.5608 35.5979 46.4012 35.3268 46.2981 35.0324C46.1951 34.7381 46.1507 34.4261 46.1675 34.1145C46.1799 33.9075 46.2683 33.386 46.5973 33.4936C46.8604 33.5867 46.6322 34.0669 46.7597 34.2821Z" fill="url(#paint9_linear_1106_79105)"/>
<path d="M47.503 27.9554C47.2829 28.2623 47.1526 28.625 47.1267 29.0026C47.0852 29.548 47.1045 30.0964 47.1843 30.6376L47.4948 33.4501C47.8813 32.1049 48.7943 30.9314 49.0019 29.5469C49.0677 29.1061 49.0554 28.6466 49.1952 28.2203C49.2569 28.034 49.6229 27.5746 49.4872 27.3924C49.3515 27.2103 48.5722 27.3552 48.3686 27.4131C48.0312 27.4992 47.7288 27.6887 47.503 27.9554Z" fill="url(#paint10_linear_1106_79105)"/>
<path d="M62.8584 23.2594C62.8895 23.2416 62.9256 23.2343 62.9612 23.2388C63.0064 23.2491 63.0332 23.2926 63.0578 23.334C63.5307 24.1473 64.0119 24.9772 64.2196 25.8982C64.3274 26.4073 64.3709 26.9282 64.3491 27.4483C64.2962 29.1976 63.7585 30.8973 62.7967 32.3553C62.6034 31.7117 62.624 31.0204 62.4698 30.3644C62.2642 29.4744 61.7481 28.6942 61.2978 27.8995C60.8865 27.1751 60.1689 25.952 60.6912 25.1614C61.21 24.3249 61.9644 23.6629 62.8584 23.2594Z" fill="url(#paint11_linear_1106_79105)"/>
<path d="M68.5778 38.5003C68.5778 38.5003 69.7478 39.9366 72.2933 40.0132C75.0403 40.096 76.3357 39.0736 76.3357 39.0736C76.3357 39.0736 75.1246 41.7641 72.1 42.3642C70.1857 42.7492 68.0329 41.9214 67.6484 40.9155C67.6484 40.9259 68.9027 39.7524 68.5778 38.5003Z" fill="url(#paint12_linear_1106_79105)"/>
<path d="M15.5797 42.5003C15.5797 42.5003 16.505 44.8452 11.6463 46.298C6.7876 47.7509 4.12077 53.4981 4.22564 58.3327V61.4495C4.22564 61.4495 19.3343 67.0374 32.1462 61.88C32.1462 61.88 33.3798 48.8229 24.6206 45.7599C24.6206 45.7599 22.805 45.2218 23.3376 43.0695C23.3376 43.0695 27.5034 40.7039 26.7549 34.4703C26.0065 28.2367 23.6275 26.3016 21.1683 26.1609C11.2371 25.5917 11.2022 38.7026 15.5797 42.5003Z" fill="#CF8F6B"/>
<path d="M33.3451 61.7724C33.3451 61.7724 33.5301 52.6662 32.0271 49.5742C30.7584 46.9603 27.485 46.2898 24.7216 45.435C24.568 45.3774 24.4037 45.3548 24.2404 45.3688C24.0385 45.421 23.8522 45.5218 23.6976 45.6627C22.1953 46.8007 20.3296 47.3429 18.4558 47.186C16.5821 47.0292 14.831 46.1842 13.5361 44.8121C10.2216 45.8282 7.62877 45.8075 5.88926 48.825C4.14975 51.8425 3.28823 57.7346 3.61516 61.2074C3.60693 61.2095 18.5408 67.3003 33.3451 61.7724Z" fill="#7DD3FC"/>
<path d="M12.5284 27.1253C13.1062 25.1923 14.5414 23.4 16.4968 22.9509C17.0808 22.8164 17.6832 22.8061 18.2713 22.6922C18.6291 22.6219 18.9786 22.5163 19.3323 22.4273C20.7822 22.0424 22.3083 22.0567 23.7509 22.4687C25.1992 22.8914 26.4407 23.8387 27.2361 25.1281C27.9599 26.3699 28.1634 27.8517 28.0586 29.2839C27.9537 30.716 27.1292 33.2534 26.7406 34.6338C26.0497 33.7232 26.5103 31.1403 25.5439 30.5319C24.8571 30.0993 23.973 30.2959 23.1732 30.4325C21.3182 30.7533 19.4172 30.6829 17.5907 30.2256C16.7251 30.0062 15.8368 29.6999 14.9629 29.8779C14.2042 30.031 13.9349 30.6167 13.5236 31.2666C13.2317 31.7157 13.0569 33.957 12.8081 34.3937C12.2282 34.1868 12.1152 30.6353 12.1213 30.1241C12.1167 29.1103 12.2538 28.1008 12.5284 27.1253Z" fill="#404040"/>
<path d="M15.5778 42.5003C15.5778 42.5003 16.7478 43.9366 19.2933 44.0132C22.0403 44.096 23.3357 43.0736 23.3357 43.0736C23.3357 43.0736 22.1246 45.7641 19.1 46.3642C17.1857 46.7492 15.0329 45.9214 14.6484 44.9155C14.6484 44.9259 15.9027 43.7524 15.5778 42.5003Z" fill="url(#paint13_linear_1106_79105)"/>
<path d="M50.6063 43.2455C50.6063 43.2455 51.3486 46.8135 53.9866 47.6434C56.6247 48.4733 58.8515 45.818 58.9337 44.0754C59.016 42.3328 59.4293 42.8337 59.4293 42.8337L60.0893 43.2476V49.8041L55.0599 49.0549L50.1128 50.4663C50.1128 50.4663 48.7928 44.4893 49.5351 42.8295" fill="#6EE7B7"/>
</g>
<defs>
<linearGradient id="paint0_linear_1106_79105" x1="52.0941" y1="45.4562" x2="97.1348" y2="68.4715" gradientUnits="userSpaceOnUse">
<stop stop-opacity="0"/>
<stop offset="0.99"/>
</linearGradient>
<linearGradient id="paint1_linear_1106_79105" x1="41.0981" y1="33.7634" x2="48.0849" y2="27.7094" gradientUnits="userSpaceOnUse">
<stop stop-opacity="0"/>
<stop offset="0.6" stop-opacity="0.36"/>
<stop offset="0.99"/>
</linearGradient>
<linearGradient id="paint2_linear_1106_79105" x1="1628.05" y1="1764.79" x2="1620.56" y2="2290.86" gradientUnits="userSpaceOnUse">
<stop stop-opacity="0"/>
<stop offset="0.99"/>
</linearGradient>
<linearGradient id="paint3_linear_1106_79105" x1="1290.86" y1="4753.46" x2="3398.28" y2="5657.34" gradientUnits="userSpaceOnUse">
<stop stop-opacity="0"/>
<stop offset="0.99"/>
</linearGradient>
<linearGradient id="paint4_linear_1106_79105" x1="1739.51" y1="1695.23" x2="1963.94" y2="1255.95" gradientUnits="userSpaceOnUse">
<stop stop-opacity="0"/>
<stop offset="0.99"/>
</linearGradient>
<linearGradient id="paint5_linear_1106_79105" x1="664.478" y1="623.876" x2="672.774" y2="529.413" gradientUnits="userSpaceOnUse">
<stop stop-opacity="0"/>
<stop offset="0.99"/>
</linearGradient>
<linearGradient id="paint6_linear_1106_79105" x1="392.76" y1="474.46" x2="414.793" y2="475.007" gradientUnits="userSpaceOnUse">
<stop stop-opacity="0"/>
<stop offset="0.99"/>
</linearGradient>
<linearGradient id="paint7_linear_1106_79105" x1="1896.42" y1="475.995" x2="1874.39" y2="476.542" gradientUnits="userSpaceOnUse">
<stop stop-opacity="0"/>
<stop offset="0.99"/>
</linearGradient>
<linearGradient id="paint8_linear_1106_79105" x1="702.924" y1="667.591" x2="629.02" y2="640.818" gradientUnits="userSpaceOnUse">
<stop stop-opacity="0"/>
<stop offset="0.99"/>
</linearGradient>
<linearGradient id="paint9_linear_1106_79105" x1="302.328" y1="572.62" x2="331.159" y2="563.979" gradientUnits="userSpaceOnUse">
<stop stop-opacity="0"/>
<stop offset="0.99"/>
</linearGradient>
<linearGradient id="paint10_linear_1106_79105" x1="475.27" y1="1217.83" x2="386.767" y2="1067.39" gradientUnits="userSpaceOnUse">
<stop stop-opacity="0"/>
<stop offset="0.6" stop-opacity="0.36"/>
<stop offset="0.99"/>
</linearGradient>
<linearGradient id="paint11_linear_1106_79105" x1="1057.09" y1="1393.19" x2="853.934" y2="1489.12" gradientUnits="userSpaceOnUse">
<stop stop-opacity="0"/>
<stop offset="0.6" stop-opacity="0.36"/>
<stop offset="0.99"/>
</linearGradient>
<linearGradient id="paint12_linear_1106_79105" x1="2836.8" y1="1018.85" x2="2802.27" y2="676.542" gradientUnits="userSpaceOnUse">
<stop stop-opacity="0"/>
<stop offset="0.99"/>
</linearGradient>
<linearGradient id="paint13_linear_1106_79105" x1="2783.8" y1="1022.85" x2="2749.27" y2="680.542" gradientUnits="userSpaceOnUse">
<stop stop-opacity="0"/>
<stop offset="0.99"/>
</linearGradient>
<clipPath id="clip0_1106_79105">
<rect width="87" height="66" fill="white" transform="translate(0.75)"/>
</clipPath>
</defs>
</svg>
