<svg width="87" height="66" viewBox="0 0 87 66" fill="none" xmlns="http://www.w3.org/2000/svg">
<g clip-path="url(#clip0_1106_77632)">
<path opacity="0.18" d="M5.51009 56.2094C-1.72346 50.9361 0.0715632 38.3427 0.542423 34.2863C0.803554 32.0532 1.34844 29.8201 2.4711 27.9078C5.70543 22.3944 12.5935 21.0015 17.6846 17.3901C23.3493 13.3937 26.9558 6.4999 33.0523 3.29203C36.4079 1.52667 40.2303 1.04859 43.9746 0.837492C50.7722 0.452548 58.2114 1.10033 63.2634 5.93076C66.9171 9.42423 68.7389 14.5796 71.9856 18.4973C74.8477 21.9535 78.7133 24.3232 81.7091 27.6511C86.1586 32.5892 88.4327 40.1453 86.027 46.4741C83.792 52.3372 80.3706 56.1846 78.5961 56.7641C72.9006 58.6267 60.4526 58.8523 54.4959 59.2787C48.1116 59.734 42.3646 58.7364 35.9679 58.7571C26.0984 58.7902 12.6326 59.3387 5.51832 56.2012" fill="#68E1FD"/>
<path d="M60.8297 37.5003C60.8297 37.5003 61.755 39.8452 56.8963 41.298C52.0376 42.7509 49.3708 48.4981 49.4756 53.3327V56.4495C49.4756 56.4495 64.5843 62.0374 77.3962 56.88C77.3962 56.88 78.6298 43.8229 69.8706 40.7599C69.8706 40.7599 68.055 40.2218 68.5876 38.0695C68.5876 38.0695 72.7534 35.7039 72.0049 29.4703C71.2565 23.2367 68.8775 21.3016 66.4183 21.1609C56.4871 20.5917 56.4522 33.7026 60.8297 37.5003Z" fill="#F7AF87"/>
<path d="M78.5951 56.7724C78.5951 56.7724 78.7801 47.6662 77.2771 44.5742C76.0084 41.9603 72.735 41.2898 69.9716 40.435C69.818 40.3774 69.6537 40.3548 69.4904 40.3688C69.2885 40.421 69.1022 40.5218 68.9476 40.6627C67.4453 41.8007 65.5796 42.3429 63.7058 42.186C61.8321 42.0292 60.081 41.1842 58.7861 39.8121C55.4716 40.8282 52.8788 40.8075 51.1393 43.825C49.3998 46.8425 48.5382 52.7346 48.8652 56.2074C48.8569 56.2095 63.7908 62.3003 78.5951 56.7724Z" fill="#CCDBDE"/>
<path d="M52.3672 43.9099C52.3672 43.9099 54.8757 41.3208 55.8853 41.3084C56.8948 41.296 63.0818 58.9599 63.0818 58.9599L53.8476 58.5171L52.3672 43.9099Z" fill="url(#paint0_linear_1106_77632)"/>
<path d="M57.7784 22.1253C58.3562 20.1923 59.7914 18.4 61.7468 17.9509C62.3308 17.8164 62.9332 17.8061 63.5213 17.6922C63.8791 17.6219 64.2286 17.5163 64.5823 17.4273C66.0322 17.0424 67.5583 17.0567 69.0009 17.4687C70.4492 17.8914 71.6907 18.8387 72.4861 20.1281C73.2099 21.3699 73.4134 22.8517 73.3086 24.2839C73.2037 25.716 72.3792 28.2534 71.9906 29.6338C71.2997 28.7232 71.7603 26.1403 70.7939 25.5319C70.1071 25.0993 69.223 25.2959 68.4232 25.4325C66.5682 25.7533 64.6672 25.6829 62.8407 25.2256C61.9751 25.0062 61.0868 24.6999 60.2129 24.8779C59.4542 25.031 59.1849 25.6167 58.7736 26.2666C58.4817 26.7157 58.3069 28.957 58.0581 29.3937C57.4782 29.1868 57.3652 25.6353 57.3713 25.1241C57.3667 24.1103 57.5038 23.1008 57.7784 22.1253Z" fill="#404040"/>
<path d="M72.5297 29.0378C72.6217 28.9496 72.7306 28.8813 72.8497 28.8368C72.9689 28.7923 73.0957 28.7727 73.2226 28.7791C73.3195 28.8002 73.4105 28.843 73.4888 28.9042C73.5671 28.9655 73.6307 29.0436 73.675 29.133C73.7624 29.3123 73.8101 29.5086 73.8148 29.7083C73.8619 30.5066 73.6028 31.2926 73.091 31.9042C72.8093 32.2353 72.3899 32.525 71.9683 32.4236C71.8839 32.4086 71.8063 32.3673 71.7463 32.3057C71.7002 32.2477 71.6666 32.1808 71.6476 32.109C71.4836 31.4829 71.4723 30.8261 71.6147 30.1947C71.662 29.9194 71.6887 29.6504 71.919 29.4724C72.1102 29.3234 72.3323 29.1868 72.5297 29.0378Z" fill="#F7AF87"/>
<path d="M30.4833 38.5103C30.8081 38.4565 31.1618 38.384 31.3736 38.1316C31.5283 37.9072 31.6161 37.6429 31.6265 37.3699C32.0233 34.367 33.1275 25.5195 30.1872 20.449C29.776 19.7246 28.715 19.557 28.1434 19.0002C26.8028 17.6757 25.0859 16.0697 22.7131 16.0862C17.0257 16.1256 14.437 18.9588 12.1074 24.1825C10.6928 27.351 10.2569 36.9477 11.4289 37.877C12.6626 38.8559 15.9113 38.7773 17.4411 38.9304C21.7881 39.3619 26.1725 39.2207 30.4833 38.5103Z" fill="#404040"/>
<path d="M28.0649 23.7686C28.1732 23.6193 28.3138 23.4969 28.4762 23.4105C28.9553 23.1746 29.5351 23.4519 29.9155 23.8245C30.3954 24.334 30.7294 24.9647 30.8819 25.6498C31.0279 26.3297 31.0969 27.024 31.0875 27.7194C31.0998 28.5735 31.0738 29.4275 31.0094 30.2816C30.9436 31.5379 30.6828 32.776 30.2362 33.951C29.7572 35.112 28.9738 36.1737 27.9004 36.8132C27.1027 33.9406 27.0286 30.9232 26.9608 27.943C26.9485 27.469 26.9382 26.9971 26.9485 26.5253C26.9485 26.339 26.897 25.9789 26.9855 25.8133C27.0739 25.6478 27.2322 25.6809 27.3761 25.5712C27.6044 25.3994 27.5653 25.0807 27.6167 24.8199C27.6962 24.4433 27.8485 24.0861 28.0649 23.7686Z" fill="url(#paint1_linear_1106_77632)"/>
<path d="M13.0061 29.8904C12.7967 29.9194 12.5973 29.9982 12.4242 30.1202C12.2767 30.2533 12.162 30.4191 12.089 30.6045C11.7645 31.3224 11.6139 32.1076 11.6497 32.8956C11.6854 33.6835 11.9065 34.4517 12.2947 35.1369C12.2947 35.1369 13.2631 34.0917 13.3474 33.9841C13.6809 33.5482 13.9767 33.0843 14.2316 32.5975C14.4639 32.1525 15.6832 30.0891 15.0684 29.8346C14.6798 29.6752 13.4749 29.7911 13.0061 29.8904Z" fill="url(#paint2_linear_1106_77632)"/>
<path d="M14.398 37.5003C13.9477 36.4511 14.0382 35.2528 14.1924 34.1207C14.3302 33.1356 14.5296 32.1215 15.1033 31.3123C15.6374 30.6021 16.3719 30.0705 17.2108 29.787C18.0448 29.5084 18.9134 29.3482 19.7913 29.311C21.0526 29.224 22.3189 29.2448 23.5767 29.373C24.4619 29.4335 25.3308 29.6434 26.1469 29.9939C27.2573 30.5406 28.1421 31.4619 28.6472 32.5975C29.145 33.7323 29.3139 34.9857 29.1345 36.2131C29.094 36.7412 28.9058 37.2471 28.5916 37.6721C28.2237 38.0517 27.7592 38.3222 27.249 38.4544C25.3984 39.0505 23.4369 39.0049 21.5205 38.9284C19.9311 38.8663 18.3253 38.9573 16.7605 38.6469C15.8435 38.4668 14.8175 38.4813 14.398 37.5003Z" fill="url(#paint3_linear_1106_77632)"/>
<path d="M34.0491 56.8779C21.229 62.0374 6.12857 56.4475 6.12857 56.4475V53.3431C6.01343 48.4961 8.68643 42.7468 13.5492 41.298C18.412 39.8493 18.0728 38.1543 18.0728 38.1543C13.6973 34.3587 13.138 20.5938 23.0754 21.165C25.5428 21.3058 27.9176 23.2346 28.662 29.4765C29.4063 35.7184 24.5497 38.4441 24.5497 38.4441C24.4842 38.7505 24.5075 39.0694 24.6169 39.3629C24.7262 39.6564 24.917 39.9122 25.1665 40.0997C25.569 40.4121 26.0309 40.6382 26.5236 40.7641C35.2725 43.8209 34.0491 56.8779 34.0491 56.8779Z" fill="#F7AF87"/>
<path d="M17.6761 30.2671C19.613 30.2671 21.5704 29.9877 23.3449 29.2095C25.1194 28.4314 26.7006 27.1172 27.6053 25.3974C27.9105 24.8577 28.0872 24.2541 28.1214 23.6341C28.144 22.4627 27.4058 21.3679 26.425 20.7366C25.4442 20.1054 24.2578 19.8778 23.0961 19.8281C20.5938 19.7225 18.0092 20.4324 16.1052 22.0695C15.3162 22.7437 14.6722 23.5729 14.2126 24.5063C13.753 25.4397 13.4874 26.4577 13.4322 27.498C13.3397 29.7704 15.8297 30.265 17.6761 30.2671Z" fill="#404040"/>
<path d="M35.2409 56.7724C35.2409 56.7724 34.2643 49.3405 32.7612 46.2423C31.4926 43.6284 29.3788 41.2898 26.6154 40.4371C26.4619 40.3794 26.2975 40.3567 26.1342 40.3709C25.9327 40.4227 25.747 40.5236 25.5935 40.6648C24.0911 41.8028 22.2255 42.3449 20.3517 42.1881C18.4779 42.0312 16.7269 41.1863 15.4319 39.8141C12.12 40.8466 9.31901 43.1025 7.59183 46.1285C5.85232 49.1439 5.1923 52.7367 5.511 56.2095C5.511 56.2095 20.4346 62.3003 35.2409 56.7724Z" fill="#68B5FD"/>
<path d="M24.5832 58.7385C24.5832 58.7385 18.8938 59.3738 17.7383 58.7923C17.7383 58.7923 20.6169 43.2186 27.468 40.9772C27.468 40.9772 30.4371 41.4739 32.7626 46.2423C33.4391 47.6268 24.5832 58.7385 24.5832 58.7385Z" fill="url(#paint4_linear_1106_77632)"/>
<path d="M24.5977 62.0022V52.5732C24.5977 52.5732 26.8409 44.0878 34.6358 43.1151C42.4307 42.1424 50.865 43.438 50.865 43.438C50.865 43.438 59.0896 44.5121 60.5804 54.7214V62.7825C60.5804 62.7825 39.8667 68.8091 24.5977 62.0022Z" fill="#68E1FD"/>
<path d="M34.9189 32.167C34.5858 31.96 34.1766 31.8172 33.8107 31.96C33.6591 32.0198 33.5233 32.114 33.4138 32.2353C32.836 32.8561 32.8689 33.8226 33.0519 34.6505C33.1538 35.1151 33.2913 35.5711 33.4632 36.0143C33.5348 36.2198 33.6382 36.4126 33.7695 36.5856C34.1808 37.076 34.9004 37.1423 35.5337 37.0678C35.9079 37.0243 36.3253 36.9105 36.496 36.5711C36.5547 36.4407 36.5882 36.3002 36.5947 36.1571C36.7653 34.4828 36.3747 33.0528 34.9189 32.167Z" fill="#F7AF87"/>
<path d="M50.6012 32.8458C51.0679 32.5188 51.6745 32.2663 52.1988 32.494C52.4039 32.5984 52.5784 32.7549 52.705 32.948C52.8316 33.1411 52.9059 33.3641 52.9205 33.595C52.9442 34.0568 52.8641 34.5181 52.6861 34.9444C52.5056 35.4919 52.2229 35.9997 51.8534 36.4407C51.4782 36.8827 50.9477 37.1616 50.3729 37.2189C50.087 37.2413 49.8007 37.1811 49.5476 37.0455C49.2945 36.9099 49.0851 36.7044 48.9439 36.4531C48.8043 36.1174 48.7398 35.755 48.7547 35.3914C48.7291 35.112 48.7606 34.8303 48.8473 34.5636C49.0734 33.9944 50.1221 33.1811 50.6012 32.8458Z" fill="#F7AF87"/>
<path d="M37.7852 44.0278C37.6026 44.3437 37.4956 44.6979 37.4727 45.0626C37.4862 45.2771 37.5377 45.4873 37.6248 45.6835C38.3774 47.5461 39.9359 48.4857 41.439 48.9203C41.8901 49.0619 42.3586 49.1392 42.831 49.1501C44.2497 49.1501 45.652 48.1691 46.5053 46.5858C46.5552 46.5047 46.5868 46.4136 46.5979 46.3189C46.5931 46.1958 46.5585 46.0757 46.4971 45.9691C45.9666 44.8184 46.0633 43.3345 46.2031 41.9831C46.2244 41.8714 46.2174 41.756 46.1825 41.6478C46.1615 41.6067 46.1324 41.5703 46.0971 41.5408C46.0618 41.5113 46.0209 41.4893 45.9769 41.476C45.0578 41.0869 44.0709 41.3291 43.0983 41.2918C41.7618 41.2422 40.4664 40.6233 39.1279 40.6213C38.5316 40.6213 38.4863 40.8448 38.402 41.5961C38.3279 42.4348 38.1196 43.256 37.7852 44.0278Z" fill="#F7AF87"/>
<path d="M37.8008 40.1556C37.8008 40.1556 38.5718 43.1979 40.4409 45.191C42.3099 47.184 46.7348 46.8032 46.2125 45.0233C45.7725 43.5311 46.597 40.1556 46.597 40.1556H37.8008Z" fill="url(#paint5_linear_1106_77632)"/>
<path d="M57.7637 28.9239C57.558 28.717 57.3175 28.51 57.0276 28.4914C56.9143 28.4916 56.8024 28.5174 56.7003 28.5668C56.5982 28.6162 56.5084 28.6881 56.4374 28.777C56.2959 28.9575 56.2018 29.1711 56.164 29.3979C56.0667 29.9475 56.1099 30.5129 56.2894 31.0411C56.495 31.6868 56.8631 32.3408 57.4881 32.5871C57.5957 32.6394 57.7149 32.6628 57.8341 32.6552C57.9533 32.6476 58.0686 32.6092 58.1687 32.5437C58.3033 32.408 58.3868 32.2295 58.4052 32.0387C58.6499 30.8197 58.6889 29.8304 57.7637 28.9239Z" fill="#F7AF87"/>
<path d="M50.1162 34.4187C49.5261 39.4085 46.7708 43.5249 42.6421 43.5249C38.5133 43.5249 35.168 39.4499 35.168 34.4187C35.168 29.3875 37.8225 23.7148 41.9533 23.7148C46.0841 23.7148 51.3232 24.2198 50.1162 34.4187Z" fill="#F7AF87"/>
<path d="M34.041 32.7734C33.7669 30.799 33.5866 28.8135 33.5003 26.8171C33.4632 25.9375 33.4776 24.9544 34.0636 24.3067C34.2181 24.1648 34.356 24.0058 34.4749 23.8327C34.5723 23.6107 34.6261 23.3717 34.6332 23.1291C34.8553 21.2437 36.2103 19.6687 37.7647 18.5946C39.468 17.4206 41.443 16.7078 43.4993 16.525C44.1605 16.4526 44.8288 16.4812 45.4815 16.6098C46.1376 16.771 46.7676 17.0254 47.3526 17.3652C48.2819 17.8723 49.1764 18.4849 49.8364 19.3148C50.4964 20.1447 50.9015 21.223 50.7617 22.2764C51.2147 22.4715 51.6217 22.7608 51.9558 23.1253C52.29 23.4898 52.5438 23.9213 52.7006 24.3915C53.0036 25.3671 53.1003 26.3956 52.9844 27.411C52.7788 29.8283 51.8658 32.3098 49.9495 33.7792C49.9803 32.0892 49.608 30.4164 48.8638 28.9012C48.5792 28.3847 48.3205 27.8542 48.0887 27.3117C47.8704 26.7309 47.7643 26.1134 47.7761 25.4925C46.9742 25.923 46.5034 26.8047 45.7467 27.3138C45.2628 27.6089 44.7265 27.8064 44.1676 27.8953C42.3691 28.2529 40.5128 28.1877 38.7434 27.7049C38.0444 27.5145 37.154 27.3158 36.714 27.8953C36.4406 28.2534 36.4878 28.7501 36.4508 29.2012C36.39 29.6929 36.272 30.1757 36.0992 30.6396L35.0095 33.951C34.6394 33.6343 34.1109 33.2597 34.041 32.7734Z" fill="#404040"/>
<path d="M25.2017 40.1887C21.7454 42.4177 19.3376 38.6386 19.2266 38.4503C20.0383 38.9074 20.9529 39.1475 21.8831 39.1475C22.8133 39.1475 23.7279 38.9074 24.5397 38.4503C24.4742 38.7567 24.4975 39.0756 24.6069 39.3691C24.7162 39.6626 24.907 39.9184 25.1565 40.1059L25.2017 40.1887Z" fill="url(#paint6_linear_1106_77632)"/>
<path d="M57.7359 31.1653C57.592 30.977 57.4399 30.7514 57.5098 30.5196C57.5797 30.2878 57.8223 30.1678 57.8244 29.9443C57.8197 29.8807 57.8017 29.819 57.7715 29.763C57.7414 29.707 57.6998 29.658 57.6496 29.6193C57.5314 29.5098 57.38 29.4434 57.2198 29.431C57.1648 29.4269 57.1097 29.4391 57.0615 29.4662C57.007 29.5058 56.9661 29.5615 56.9443 29.6255C56.7038 30.1678 56.7839 30.8052 56.9957 31.3599C57.0313 31.4652 57.0864 31.5628 57.1582 31.6475C57.2596 31.7407 57.3826 31.8069 57.5159 31.84C57.7215 31.9062 57.9642 31.9083 58.0115 31.6496C58.0464 31.4633 57.8305 31.2978 57.7359 31.1653Z" fill="url(#paint7_linear_1106_77632)"/>
<path d="M72.3748 31.2067C72.5188 31.0184 72.6709 30.7928 72.601 30.561C72.5311 30.3292 72.2885 30.2091 72.2844 29.9856C72.2896 29.922 72.308 29.8602 72.3384 29.8042C72.3689 29.7483 72.4107 29.6994 72.4612 29.6607C72.5789 29.5505 72.7305 29.484 72.8909 29.4724C72.9453 29.4681 72.9997 29.4804 73.0472 29.5076C73.1023 29.5471 73.1439 29.6027 73.1664 29.6669C73.405 30.2091 73.3248 30.8466 73.113 31.4012C73.0811 31.5227 73.0154 31.6324 72.9236 31.7175C72.8318 31.8026 72.7177 31.8595 72.5948 31.8814C72.3892 31.9476 72.1466 31.9497 72.0972 31.691C72.0643 31.5089 72.272 31.3391 72.3748 31.2067Z" fill="url(#paint8_linear_1106_77632)"/>
<path d="M50.1284 35.1369C50.356 35.1632 50.5855 35.1074 50.7761 34.9796C50.8758 34.9322 50.9626 34.8612 51.029 34.7726C51.1976 34.5056 51.0126 34.1352 51.1339 33.8454C51.1937 33.74 51.277 33.65 51.3773 33.5824C51.4775 33.5149 51.592 33.4718 51.7117 33.4563C51.7958 33.4282 51.8866 33.4282 51.9707 33.4563C52.0335 33.4987 52.084 33.557 52.1172 33.6253C52.1504 33.6936 52.1651 33.7696 52.1599 33.8454C52.2018 34.5013 51.9928 35.1484 51.576 35.6543C51.3673 35.903 51.1107 36.1065 50.8215 36.2523C50.5324 36.3982 50.2169 36.4834 49.894 36.5028C49.8611 36.5074 49.8275 36.5024 49.7974 36.4883C49.7643 36.466 49.7409 36.432 49.7316 36.3931C49.6663 36.2059 49.6509 36.0048 49.687 35.8098C49.7231 35.6148 49.8094 35.4327 49.9372 35.2817" fill="url(#paint9_linear_1106_77632)"/>
<path d="M34.0097 34.2821C34.1043 34.4415 34.2955 34.5035 34.4538 34.5967C34.6123 34.6927 34.744 34.8275 34.8367 34.9885C34.9295 35.1495 34.9803 35.3316 34.9843 35.5176C34.9963 35.6404 34.9688 35.7638 34.9059 35.8696C34.843 35.9754 34.7479 36.0581 34.6348 36.1054C34.4065 36.1696 34.1783 36.0061 34.0179 35.8302C33.8108 35.5979 33.6512 35.3268 33.5481 35.0324C33.4451 34.7381 33.4007 34.4261 33.4175 34.1145C33.4299 33.9075 33.5183 33.386 33.8473 33.4936C34.1104 33.5867 33.8822 34.0669 34.0097 34.2821Z" fill="url(#paint10_linear_1106_77632)"/>
<path d="M34.753 27.9554C34.5329 28.2623 34.4026 28.625 34.3767 29.0026C34.3352 29.548 34.3545 30.0964 34.4343 30.6376L34.7448 33.4501C35.1313 32.1049 36.0443 30.9314 36.2519 29.5469C36.3177 29.1061 36.3054 28.6466 36.4452 28.2203C36.5069 28.034 36.8729 27.5746 36.7372 27.3924C36.6015 27.2103 35.8222 27.3552 35.6186 27.4131C35.2812 27.4992 34.9788 27.6887 34.753 27.9554Z" fill="url(#paint11_linear_1106_77632)"/>
<path d="M50.1045 23.2594C50.1356 23.2416 50.1717 23.2343 50.2073 23.2388C50.2525 23.2491 50.2793 23.2926 50.3039 23.334C50.7768 24.1473 51.258 24.9772 51.4657 25.8982C51.5735 26.4073 51.617 26.9282 51.5952 27.4483C51.5423 29.1976 51.0046 30.8973 50.0428 32.3553C49.8495 31.7117 49.8701 31.0204 49.7159 30.3644C49.5102 29.4744 48.9942 28.6942 48.5439 27.8995C48.1326 27.1751 47.415 25.952 47.9373 25.1614C48.4561 24.3249 49.2105 23.6629 50.1045 23.2594Z" fill="url(#paint12_linear_1106_77632)"/>
<path d="M60.8278 37.5003C60.8278 37.5003 61.9978 38.9366 64.5433 39.0132C67.2903 39.096 68.5857 38.0736 68.5857 38.0736C68.5857 38.0736 67.3746 40.7641 64.35 41.3642C62.4357 41.7492 60.2829 40.9214 59.8984 39.9155C59.8984 39.9259 61.1527 38.7524 60.8278 37.5003Z" fill="url(#paint13_linear_1106_77632)"/>
<path d="M37.8563 43.2455C37.8563 43.2455 38.5986 46.8135 41.2366 47.6434C43.8747 48.4733 46.1015 45.818 46.1837 44.0754C46.266 42.3328 46.6793 42.8337 46.6793 42.8337L47.3393 43.2476V49.8041L42.3099 49.0549L37.3628 50.4663C37.3628 50.4663 36.0428 44.4893 36.7851 42.8295" fill="#68E1FD"/>
</g>
<defs>
<linearGradient id="paint0_linear_1106_77632" x1="44.3441" y1="44.4562" x2="89.3848" y2="67.4715" gradientUnits="userSpaceOnUse">
<stop stop-opacity="0"/>
<stop offset="0.99"/>
</linearGradient>
<linearGradient id="paint1_linear_1106_77632" x1="26.3481" y1="31.7634" x2="33.3349" y2="25.7094" gradientUnits="userSpaceOnUse">
<stop stop-opacity="0"/>
<stop offset="0.6" stop-opacity="0.36"/>
<stop offset="0.99"/>
</linearGradient>
<linearGradient id="paint2_linear_1106_77632" x1="244.545" y1="1119.35" x2="267.811" y2="917.266" gradientUnits="userSpaceOnUse">
<stop stop-opacity="0"/>
<stop offset="0.99"/>
</linearGradient>
<linearGradient id="paint3_linear_1106_77632" x1="1627.3" y1="1764.79" x2="1619.81" y2="2290.86" gradientUnits="userSpaceOnUse">
<stop stop-opacity="0"/>
<stop offset="0.99"/>
</linearGradient>
<linearGradient id="paint4_linear_1106_77632" x1="1279.11" y1="4751.46" x2="3386.53" y2="5655.34" gradientUnits="userSpaceOnUse">
<stop stop-opacity="0"/>
<stop offset="0.99"/>
</linearGradient>
<linearGradient id="paint5_linear_1106_77632" x1="1726.76" y1="1695.23" x2="1951.19" y2="1255.95" gradientUnits="userSpaceOnUse">
<stop stop-opacity="0"/>
<stop offset="0.99"/>
</linearGradient>
<linearGradient id="paint6_linear_1106_77632" x1="649.728" y1="621.876" x2="658.024" y2="527.413" gradientUnits="userSpaceOnUse">
<stop stop-opacity="0"/>
<stop offset="0.99"/>
</linearGradient>
<linearGradient id="paint7_linear_1106_77632" x1="392.01" y1="474.46" x2="414.043" y2="475.007" gradientUnits="userSpaceOnUse">
<stop stop-opacity="0"/>
<stop offset="0.99"/>
</linearGradient>
<linearGradient id="paint8_linear_1106_77632" x1="1888.67" y1="474.995" x2="1866.64" y2="475.542" gradientUnits="userSpaceOnUse">
<stop stop-opacity="0"/>
<stop offset="0.99"/>
</linearGradient>
<linearGradient id="paint9_linear_1106_77632" x1="690.174" y1="667.591" x2="616.27" y2="640.818" gradientUnits="userSpaceOnUse">
<stop stop-opacity="0"/>
<stop offset="0.99"/>
</linearGradient>
<linearGradient id="paint10_linear_1106_77632" x1="289.578" y1="572.62" x2="318.409" y2="563.979" gradientUnits="userSpaceOnUse">
<stop stop-opacity="0"/>
<stop offset="0.99"/>
</linearGradient>
<linearGradient id="paint11_linear_1106_77632" x1="462.52" y1="1217.83" x2="374.017" y2="1067.39" gradientUnits="userSpaceOnUse">
<stop stop-opacity="0"/>
<stop offset="0.6" stop-opacity="0.36"/>
<stop offset="0.99"/>
</linearGradient>
<linearGradient id="paint12_linear_1106_77632" x1="1044.33" y1="1393.19" x2="841.18" y2="1489.12" gradientUnits="userSpaceOnUse">
<stop stop-opacity="0"/>
<stop offset="0.6" stop-opacity="0.36"/>
<stop offset="0.99"/>
</linearGradient>
<linearGradient id="paint13_linear_1106_77632" x1="2829.05" y1="1017.85" x2="2794.52" y2="675.542" gradientUnits="userSpaceOnUse">
<stop stop-opacity="0"/>
<stop offset="0.99"/>
</linearGradient>
<clipPath id="clip0_1106_77632">
<rect width="87" height="66" fill="white"/>
</clipPath>
</defs>
</svg>
