<svg width="63" height="68" viewBox="0 0 63 68" fill="none" xmlns="http://www.w3.org/2000/svg">
<path d="M24.0795 31.7158L3.10314 37.1321C2.86892 37.1924 2.62037 37.1572 2.41212 37.0341C2.20387 36.9109 2.05296 36.7101 1.99257 36.4756C1.93218 36.2411 1.96725 35.9922 2.09007 35.7836C2.21288 35.575 2.41339 35.4238 2.64753 35.3631L23.6239 29.9468C23.8582 29.8863 24.1069 29.9215 24.3153 30.0446C24.5236 30.1677 24.6747 30.3686 24.7351 30.6032C24.7955 30.8378 24.7604 31.0868 24.6374 31.2954C24.5145 31.5041 24.3138 31.6553 24.0795 31.7158Z" fill="#F2F2F2"/>
<path d="M28.4923 33.7601L3.87197 40.1174C3.75592 40.1474 3.63509 40.1543 3.51639 40.1376C3.39769 40.1209 3.28344 40.0809 3.18017 40.02C3.07691 39.959 2.98665 39.8783 2.91455 39.7824C2.84246 39.6865 2.78994 39.5774 2.76001 39.4611C2.73008 39.3449 2.72331 39.2239 2.7401 39.1051C2.75689 38.9863 2.79691 38.8719 2.85787 38.7686C2.91882 38.6652 2.99952 38.5749 3.09535 38.5028C3.19118 38.4307 3.30026 38.3782 3.41636 38.3483L28.0366 31.9911C28.2709 31.9306 28.5196 31.9658 28.728 32.0889C28.9364 32.212 29.0874 32.4129 29.1478 32.6475C29.2082 32.8821 29.1731 33.1311 29.0502 33.3398C28.9272 33.5484 28.7265 33.6996 28.4923 33.7601V33.7601Z" fill="#F2F2F2"/>
<path d="M48.3157 0H5.47822C4.0258 0.00163752 2.63334 0.580077 1.60633 1.60841C0.579322 2.63675 0.00163179 4.031 0 5.48528V55.8501C0.00163209 57.3044 0.579322 58.6986 1.60633 59.727C2.63334 60.7553 4.02581 61.3337 5.47822 61.3354H48.3157C49.7681 61.3337 51.1606 60.7553 52.1876 59.727C53.2146 58.6986 53.7923 57.3044 53.7939 55.8501V5.48528C53.7923 4.031 53.2146 2.63675 52.1876 1.60841C51.1606 0.580077 49.7681 0.00163752 48.3157 0V0Z" fill="#E6E6E6"/>
<path d="M48.3158 1.5791H5.47822C4.44392 1.58026 3.45232 1.99217 2.72096 2.72447C1.98959 3.45678 1.57821 4.44965 1.57705 5.48528V55.8501C1.57821 56.8857 1.9896 57.8786 2.72096 58.6109C3.45232 59.3432 4.44392 59.7551 5.47822 59.7563H48.3158C49.3501 59.7551 50.3417 59.3432 51.073 58.6109C51.8044 57.8786 52.2157 56.8857 52.2169 55.8501V5.48528C52.2157 4.44966 51.8044 3.45679 51.073 2.72449C50.3417 1.99219 49.3501 1.58027 48.3158 1.5791V1.5791Z" fill="white"/>
<path d="M52.8161 67.4632C58.3391 67.4632 62.8164 62.9801 62.8164 57.45C62.8164 51.9199 58.3391 47.4369 52.8161 47.4369C47.2931 47.4369 42.8159 51.9199 42.8159 57.45C42.8159 62.9801 47.2931 67.4632 52.8161 67.4632Z" fill="#6C63FF"/>
<rect x="51.7939" y="53.4632" width="2" height="10" rx="1" fill="white"/>
<path d="M52.6524 51.6046C52.7306 51.5265 52.8572 51.5265 52.9353 51.6046L55.4524 54.1218C55.5784 54.2478 55.4892 54.4632 55.311 54.4632H50.2767C50.0985 54.4632 50.0093 54.2478 50.1353 54.1218L52.6524 51.6046Z" fill="white"/>
<path d="M14.5191 10.1262H13.3238C13.2897 9.93016 13.2269 9.75651 13.1353 9.60524C13.0436 9.45183 12.9297 9.32185 12.7933 9.21532C12.6569 9.10879 12.5014 9.02889 12.3267 8.97562C12.1541 8.92022 11.9677 8.89252 11.7674 8.89252C11.4115 8.89252 11.0962 8.98201 10.8213 9.16099C10.5465 9.33783 10.3313 9.59778 10.1758 9.94082C10.0202 10.2817 9.94244 10.6983 9.94244 11.1905C9.94244 11.6912 10.0202 12.113 10.1758 12.4561C10.3334 12.797 10.5486 13.0548 10.8213 13.2295C11.0962 13.4021 11.4105 13.4884 11.7642 13.4884C11.9602 13.4884 12.1434 13.4628 12.3139 13.4117C12.4865 13.3584 12.641 13.2807 12.7773 13.1784C12.9158 13.0761 13.0319 12.9504 13.1257 12.8013C13.2216 12.6521 13.2876 12.4817 13.3238 12.2899L14.5191 12.2963C14.4744 12.6074 14.3775 12.8993 14.2283 13.172C14.0813 13.4447 13.8885 13.6855 13.6498 13.8943C13.4112 14.101 13.1321 14.2629 12.8125 14.3801C12.4929 14.4952 12.1381 14.5527 11.7482 14.5527C11.1729 14.5527 10.6594 14.4195 10.2077 14.1532C9.75601 13.8868 9.40018 13.5023 9.14024 12.9994C8.8803 12.4966 8.75033 11.8936 8.75033 11.1905C8.75033 10.4852 8.88136 9.88222 9.14344 9.38151C9.40551 8.87867 9.7624 8.49408 10.2141 8.22775C10.6658 7.96141 11.1772 7.82825 11.7482 7.82825C12.1125 7.82825 12.4513 7.87938 12.7645 7.98166C13.0777 8.08393 13.3569 8.23414 13.6019 8.4323C13.8469 8.62832 14.0483 8.86908 14.2059 9.1546C14.3657 9.43798 14.4701 9.76184 14.5191 10.1262ZM19.1622 9.7171C19.1323 9.43798 19.0066 9.22065 18.785 9.06511C18.5656 8.90957 18.2801 8.8318 17.9285 8.8318C17.6813 8.8318 17.4693 8.86908 17.2925 8.94366C17.1156 9.01823 16.9804 9.11944 16.8866 9.24728C16.7929 9.37512 16.7449 9.52107 16.7428 9.68514C16.7428 9.8215 16.7737 9.93975 16.8355 10.0399C16.8994 10.14 16.9857 10.2253 17.0943 10.2956C17.203 10.3638 17.3234 10.4213 17.4555 10.4682C17.5876 10.515 17.7208 10.5545 17.855 10.5864L18.4686 10.7398C18.7158 10.7974 18.9534 10.8751 19.1813 10.9731C19.4115 11.0711 19.6171 11.1947 19.7982 11.3439C19.9814 11.493 20.1263 11.6731 20.2328 11.884C20.3394 12.0949 20.3926 12.3421 20.3926 12.6255C20.3926 13.009 20.2946 13.3467 20.0986 13.6386C19.9026 13.9284 19.6192 14.1553 19.2485 14.3194C18.8799 14.4813 18.4335 14.5623 17.9093 14.5623C17.4001 14.5623 16.958 14.4834 16.583 14.3258C16.2101 14.1681 15.9182 13.938 15.7073 13.6354C15.4985 13.3329 15.3855 12.9643 15.3685 12.5296H16.535C16.5521 12.7576 16.6224 12.9472 16.746 13.0985C16.8696 13.2498 17.0304 13.3627 17.2286 13.4373C17.4289 13.5118 17.6526 13.5491 17.8997 13.5491C18.1576 13.5491 18.3834 13.5108 18.5773 13.4341C18.7733 13.3552 18.9267 13.2466 19.0375 13.1081C19.1483 12.9675 19.2048 12.8034 19.2069 12.6159C19.2048 12.4454 19.1547 12.3048 19.0567 12.194C18.9587 12.0811 18.8213 11.9873 18.6444 11.9128C18.4697 11.8361 18.2652 11.7679 18.0308 11.7082L17.2861 11.5165C16.747 11.378 16.3209 11.1681 16.0077 10.8868C15.6966 10.6035 15.5411 10.2274 15.5411 9.75864C15.5411 9.37299 15.6455 9.03528 15.8543 8.74551C16.0652 8.45573 16.3518 8.23095 16.714 8.07114C17.0762 7.90921 17.4864 7.82825 17.9445 7.82825C18.409 7.82825 18.8159 7.90921 19.1654 8.07114C19.5169 8.23095 19.7929 8.4536 19.9931 8.73911C20.1934 9.02249 20.2968 9.34849 20.3031 9.7171H19.1622ZM22.3254 7.91774L24.0289 13.0697H24.096L25.7963 7.91774H27.1003L24.7928 14.4632H23.329L21.0247 7.91774H22.3254Z" fill="black"/>
<rect x="6.30559" y="24.4632" width="10" height="3" fill="#D9D9D9"/>
<rect x="20.3056" y="24.4632" width="10" height="3" fill="#D9D9D9"/>
<rect x="35.3056" y="24.4632" width="10" height="3" fill="#D9D9D9"/>
<rect x="6.30559" y="31.4632" width="10" height="3" fill="#D9D9D9"/>
<rect x="20.3056" y="31.4632" width="10" height="3" fill="#D9D9D9"/>
<rect x="35.3056" y="31.4632" width="10" height="3" fill="#D9D9D9"/>
<rect x="6.30559" y="38.4632" width="10" height="3" fill="#D9D9D9"/>
<rect x="20.3056" y="38.4632" width="10" height="3" fill="#D9D9D9"/>
<rect x="35.3056" y="38.4632" width="10" height="3" fill="#D9D9D9"/>
</svg>
