<svg width="90" height="80" viewBox="0 0 90 80" fill="none" xmlns="http://www.w3.org/2000/svg">
<g clipPath="url(#clip0_1_3)">
<path d="M45.5914 0.174456L42.6947 0.922401L7.00756 10.1372L4.11092 10.8852C2.70493 11.2499 1.50084 12.1582 0.762822 13.4107C0.0248036 14.6633 -0.186873 16.1578 0.17423 17.5664L12.7347 66.3357C13.099 67.7435 14.0061 68.9492 15.257 69.6881C16.5079 70.4271 18.0005 70.6391 19.4073 70.2775L19.4148 70.2756L60.8803 59.5687L60.8878 59.5668C62.2938 59.202 63.4978 58.2938 64.2359 57.0412C64.9739 55.7887 65.1856 54.2941 64.8245 52.8855L52.264 4.11624C51.8997 2.70843 50.9926 1.50279 49.7417 0.763818C48.4908 0.0248448 46.9982 -0.187109 45.5914 0.174456Z" fill="#F2F2F2"/>
<path d="M45.9852 1.70346L42.5543 2.58935L7.93551 11.5283L4.50469 12.4142C3.50345 12.6739 2.64598 13.3207 2.12042 14.2127C1.59486 15.1047 1.44411 16.169 1.70126 17.1721L14.2617 65.9414C14.5211 66.9439 15.1671 67.8025 16.0579 68.3287C16.9487 68.8549 18.0117 69.0059 19.0135 68.7484L19.021 68.7465L60.4864 58.0396L60.494 58.0376C61.4952 57.7779 62.3526 57.1311 62.8782 56.2391C63.4037 55.3472 63.5545 54.2829 63.2973 53.2798L50.7369 4.5105C50.4775 3.50798 49.8315 2.64942 48.9407 2.12318C48.0499 1.59694 46.987 1.446 45.9852 1.70346V1.70346Z" fill="white"/>
<path d="M43.3946 17.4962L22.4182 22.9126C22.1839 22.9731 21.9352 22.9379 21.7268 22.8148C21.5185 22.6917 21.3674 22.4908 21.307 22.2562C21.2466 22.0216 21.2817 21.7726 21.4047 21.5639C21.5276 21.3553 21.7283 21.2041 21.9626 21.1436L42.939 15.7272C43.1732 15.667 43.4217 15.7023 43.6299 15.8254C43.8381 15.9485 43.989 16.1494 44.0494 16.3838C44.1097 16.6183 44.0747 16.8672 43.9519 17.0757C43.8291 17.2843 43.6287 17.4356 43.3946 17.4962V17.4962Z" fill="#F2F2F2"/>
<path d="M47.8073 19.5406L23.187 25.8978C22.9527 25.9583 22.7041 25.9231 22.4957 25.8C22.2873 25.6769 22.1363 25.476 22.0759 25.2414C22.0154 25.0068 22.0506 24.7578 22.1735 24.5491C22.2965 24.3405 22.4971 24.1893 22.7314 24.1288L47.3517 17.7715C47.586 17.711 47.8347 17.7462 48.0431 17.8693C48.2515 17.9924 48.4025 18.1934 48.4629 18.4279C48.5233 18.6625 48.4882 18.9115 48.3652 19.1202C48.2423 19.3289 48.0416 19.4801 47.8073 19.5406V19.5406Z" fill="#F2F2F2"/>
<path d="M46.8401 30.8744L25.8637 36.2908C25.7477 36.3207 25.627 36.3275 25.5083 36.3107C25.3897 36.294 25.2756 36.2539 25.1724 36.193C25.0692 36.132 24.979 36.0513 24.907 35.9555C24.8349 35.8596 24.7825 35.7505 24.7526 35.6344C24.7226 35.5182 24.7159 35.3973 24.7326 35.2785C24.7494 35.1597 24.7893 35.0454 24.8502 34.9421C24.9111 34.8388 24.9917 34.7485 25.0874 34.6764C25.1831 34.6042 25.2921 34.5517 25.4081 34.5218L46.3845 29.1054C46.5005 29.0755 46.6213 29.0687 46.7399 29.0854C46.8585 29.1022 46.9727 29.1422 47.0759 29.2032C47.179 29.2641 47.2692 29.3448 47.3413 29.4407C47.4133 29.5365 47.4658 29.6457 47.4957 29.7618C47.5256 29.878 47.5324 29.9989 47.5156 30.1177C47.4989 30.2364 47.4589 30.3508 47.398 30.4541C47.3371 30.5574 47.2565 30.6477 47.1608 30.7198C47.0651 30.7919 46.9561 30.8445 46.8401 30.8744V30.8744Z" fill="#F2F2F2"/>
<path d="M51.2528 32.9187L26.6326 39.276C26.5166 39.3059 26.3958 39.3127 26.2772 39.2959C26.1585 39.2792 26.0444 39.2392 25.9412 39.1782C25.838 39.1173 25.7478 39.0365 25.6758 38.9407C25.6038 38.8448 25.5513 38.7357 25.5214 38.6196C25.4915 38.5034 25.4847 38.3825 25.5015 38.2637C25.5182 38.1449 25.5582 38.0306 25.619 37.9273C25.6799 37.824 25.7605 37.7337 25.8562 37.6616C25.952 37.5895 26.061 37.5369 26.177 37.507L50.7972 31.1497C51.0315 31.0892 51.2802 31.1244 51.4886 31.2475C51.697 31.3706 51.848 31.5715 51.9084 31.8061C51.9688 32.0407 51.9337 32.2897 51.8108 32.4984C51.6878 32.707 51.4871 32.8582 51.2528 32.9187Z" fill="#F2F2F2"/>
<path d="M50.2856 44.2526L29.3093 49.669C29.075 49.7293 28.8265 49.694 28.6182 49.5709C28.41 49.4477 28.2591 49.2469 28.1987 49.0124C28.1383 48.7779 28.1734 48.529 28.2962 48.3204C28.419 48.1118 28.6195 47.9606 28.8537 47.8999L49.83 42.4836C50.0643 42.4231 50.313 42.4583 50.5214 42.5814C50.7298 42.7045 50.8808 42.9054 50.9412 43.14C51.0016 43.3746 50.9665 43.6236 50.8436 43.8322C50.7206 44.0409 50.5199 44.1921 50.2856 44.2526Z" fill="#F2F2F2"/>
<path d="M54.6984 46.2969L30.0781 52.6542C29.9621 52.6842 29.8412 52.6911 29.7225 52.6744C29.6038 52.6577 29.4896 52.6177 29.3863 52.5568C29.283 52.4959 29.1928 52.4151 29.1207 52.3192C29.0486 52.2234 28.9961 52.1142 28.9661 51.998C28.9362 51.8817 28.9294 51.7607 28.9462 51.6419C28.963 51.5231 29.003 51.4087 29.064 51.3054C29.125 51.202 29.2056 51.1117 29.3015 51.0396C29.3973 50.9675 29.5064 50.915 29.6225 50.8852L54.2428 44.5279C54.4771 44.4674 54.7258 44.5026 54.9341 44.6257C55.1425 44.7488 55.2935 44.9497 55.354 45.1843C55.4144 45.4189 55.3792 45.6679 55.2563 45.8766C55.1334 46.0852 54.9327 46.2364 54.6984 46.2969V46.2969Z" fill="#F2F2F2"/>
<path d="M18.8372 28.4663L11.4139 30.3831C11.3016 30.4119 11.1824 30.395 11.0825 30.336C10.9826 30.277 10.9102 30.1807 10.8811 30.0683L9.17706 23.452C9.14822 23.3395 9.16512 23.2202 9.22405 23.1202C9.28298 23.0201 9.37913 22.9476 9.4914 22.9185L16.9147 21.0017C17.0271 20.9728 17.1463 20.9898 17.2461 21.0488C17.346 21.1078 17.4185 21.204 17.4475 21.3165L19.1516 27.9328C19.1804 28.0452 19.1635 28.1646 19.1046 28.2646C19.0456 28.3646 18.9495 28.4371 18.8372 28.4663V28.4663Z" fill="#E6E6E6"/>
<path d="M22.2828 41.8444L14.8594 43.7612C14.7471 43.7901 14.6279 43.7732 14.528 43.7142C14.4281 43.6552 14.3557 43.5589 14.3266 43.4465L12.6226 36.8302C12.5938 36.7177 12.6107 36.5984 12.6696 36.4983C12.7285 36.3983 12.8247 36.3258 12.9369 36.2967L20.3603 34.3799C20.4726 34.351 20.5918 34.3679 20.6917 34.4269C20.7916 34.486 20.864 34.5822 20.8931 34.6946L22.5971 41.3109C22.6259 41.4234 22.609 41.5428 22.5501 41.6428C22.4912 41.7428 22.395 41.8153 22.2828 41.8444V41.8444Z" fill="#E6E6E6"/>
<path d="M25.7283 55.2226L18.305 57.1394C18.1926 57.1683 18.0734 57.1514 17.9735 57.0924C17.8737 57.0334 17.8012 56.9371 17.7721 56.8247L16.0681 50.2084C16.0393 50.0959 16.0562 49.9765 16.1151 49.8765C16.174 49.7765 16.2702 49.704 16.3825 49.6749L23.8058 47.7581C23.9181 47.7292 24.0373 47.7461 24.1372 47.8051C24.2371 47.8641 24.3095 47.9604 24.3386 48.0728L26.0426 54.6891C26.0715 54.8016 26.0546 54.9209 25.9956 55.021C25.9367 55.121 25.8406 55.1935 25.7283 55.2226V55.2226Z" fill="#E6E6E6"/>
<path d="M74.5218 12.5368H31.6843C30.2319 12.5384 28.8395 13.1169 27.8125 14.1452C26.7855 15.1736 26.2078 16.5678 26.2061 18.0221V68.3869C26.2078 69.8412 26.7855 71.2354 27.8125 72.2638C28.8395 73.2921 30.2319 73.8706 31.6843 73.8722H74.5218C75.9743 73.8706 77.3667 73.2921 78.3937 72.2638C79.4207 71.2354 79.9984 69.8412 80.0001 68.3869V18.0221C79.9984 16.5678 79.4207 15.1736 78.3937 14.1452C77.3667 13.1169 75.9743 12.5384 74.5218 12.5368V12.5368Z" fill="#E6E6E6"/>
<path d="M74.5219 14.1159H31.6843C30.6501 14.1171 29.6584 14.529 28.9271 15.2613C28.1957 15.9936 27.7843 16.9865 27.7832 18.0221V68.3869C27.7843 69.4225 28.1957 70.4154 28.9271 71.1477C29.6584 71.88 30.6501 72.2919 31.6843 72.2931H74.5219C75.5562 72.2919 76.5478 71.88 77.2791 71.1477C78.0105 70.4154 78.4219 69.4225 78.423 68.3869V18.0221C78.4219 16.9865 78.0105 15.9936 77.2791 15.2613C76.5478 14.529 75.5562 14.1171 74.5219 14.1159V14.1159Z" fill="white"/>
<path d="M79.0223 80C84.5453 80 89.0226 75.517 89.0226 69.9868C89.0226 64.4567 84.5453 59.9737 79.0223 59.9737C73.4993 59.9737 69.022 64.4567 69.022 69.9868C69.022 75.517 73.4993 80 79.0223 80Z" fill="#6C63FF"/>
<path d="M83.805 68.6808H80.3267V65.198C80.3267 64.8516 80.1892 64.5194 79.9446 64.2744C79.7 64.0295 79.3682 63.8919 79.0223 63.8919C78.6763 63.8919 78.3446 64.0295 78.0999 64.2744C77.8553 64.5194 77.7179 64.8516 77.7179 65.198V68.6808H74.2395C73.8936 68.6808 73.5618 68.8184 73.3172 69.0633C73.0726 69.3083 72.9351 69.6405 72.9351 69.9868C72.9351 70.3332 73.0726 70.6654 73.3172 70.9104C73.5618 71.1553 73.8936 71.2929 74.2395 71.2929H77.7179V74.7757C77.7179 75.1221 77.8553 75.4543 78.0999 75.6993C78.3446 75.9442 78.6763 76.0818 79.0223 76.0818C79.3682 76.0818 79.7 75.9442 79.9446 75.6993C80.1892 75.4543 80.3267 75.1221 80.3267 74.7757V71.2929H83.805C84.151 71.2929 84.4827 71.1553 84.7274 70.9104C84.972 70.6654 85.1094 70.3332 85.1094 69.9868C85.1094 69.6405 84.972 69.3083 84.7274 69.0633C84.4827 68.8184 84.151 68.6808 83.805 68.6808V68.6808Z" fill="white"/>
<path d="M68.0748 41.7912H46.4122C46.2923 41.7914 46.1735 41.7679 46.0627 41.722C45.952 41.6762 45.8513 41.6089 45.7664 41.5241C45.6816 41.4392 45.6143 41.3385 45.5684 41.2276C45.5225 41.1167 45.4989 40.9978 45.4989 40.8778C45.4989 40.7578 45.5225 40.6389 45.5684 40.528C45.6143 40.4171 45.6816 40.3164 45.7664 40.2315C45.8513 40.1467 45.952 40.0794 46.0627 40.0336C46.1735 39.9877 46.2923 39.9642 46.4122 39.9644H68.0748C68.3166 39.9646 68.5484 40.061 68.7192 40.2323C68.8901 40.4035 68.9861 40.6357 68.9861 40.8778C68.9861 41.1199 68.8901 41.3521 68.7192 41.5233C68.5484 41.6946 68.3166 41.791 68.0748 41.7912V41.7912Z" fill="#E6E6E6"/>
<path d="M71.8379 44.8741H46.4122C46.2923 44.8743 46.1735 44.8507 46.0627 44.8049C45.952 44.759 45.8513 44.6918 45.7664 44.6069C45.6816 44.5221 45.6143 44.4214 45.5684 44.3105C45.5225 44.1996 45.4989 44.0807 45.4989 43.9607C45.4989 43.8406 45.5225 43.7218 45.5684 43.6109C45.6143 43.5 45.6816 43.3993 45.7664 43.3144C45.8513 43.2296 45.952 43.1623 46.0627 43.1165C46.1735 43.0706 46.2923 43.0471 46.4122 43.0472H71.8379C72.0799 43.0472 72.3119 43.1435 72.483 43.3148C72.6541 43.4861 72.7502 43.7184 72.7502 43.9607C72.7502 44.2029 72.6541 44.4353 72.483 44.6066C72.3119 44.7779 72.0799 44.8741 71.8379 44.8741Z" fill="#E6E6E6"/>
<path d="M68.0748 55.6071H46.4122C46.2923 55.6072 46.1735 55.5837 46.0627 55.5379C45.952 55.492 45.8513 55.4248 45.7664 55.3399C45.6816 55.2551 45.6143 55.1544 45.5684 55.0435C45.5225 54.9326 45.4989 54.8137 45.4989 54.6937C45.4989 54.5736 45.5225 54.4548 45.5684 54.3439C45.6143 54.233 45.6816 54.1322 45.7664 54.0474C45.8513 53.9626 45.952 53.8953 46.0627 53.8495C46.1735 53.8036 46.2923 53.7801 46.4122 53.7802H68.0748C68.3168 53.7802 68.5488 53.8765 68.7199 54.0478C68.891 54.2191 68.9871 54.4514 68.9871 54.6937C68.9871 54.9359 68.891 55.1683 68.7199 55.3396C68.5488 55.5109 68.3168 55.6071 68.0748 55.6071V55.6071Z" fill="#E6E6E6"/>
<path d="M71.8379 58.69H46.4122C46.2923 58.6901 46.1735 58.6666 46.0627 58.6207C45.952 58.5749 45.8513 58.5076 45.7664 58.4228C45.6816 58.338 45.6143 58.2372 45.5684 58.1263C45.5225 58.0154 45.4989 57.8966 45.4989 57.7765C45.4989 57.6565 45.5225 57.5376 45.5684 57.4267C45.6143 57.3159 45.6816 57.2151 45.7664 57.1303C45.8513 57.0454 45.952 56.9782 46.0627 56.9323C46.1735 56.8865 46.2923 56.863 46.4122 56.8631H71.8379C71.9578 56.863 72.0765 56.8865 72.1873 56.9323C72.2981 56.9782 72.3988 57.0454 72.4837 57.1303C72.5685 57.2151 72.6358 57.3159 72.6817 57.4267C72.7276 57.5376 72.7512 57.6565 72.7512 57.7765C72.7512 57.8966 72.7276 58.0154 72.6817 58.1263C72.6358 58.2372 72.5685 58.338 72.4837 58.4228C72.3988 58.5076 72.2981 58.5749 72.1873 58.6207C72.0765 58.6666 71.9578 58.6901 71.8379 58.69Z" fill="#E6E6E6"/>
<path d="M41.5596 46.2736H33.8934C33.7774 46.2735 33.6663 46.2273 33.5842 46.1452C33.5022 46.0631 33.4561 45.9517 33.456 45.8356V39.0029C33.4561 38.8867 33.5022 38.7754 33.5842 38.6933C33.6663 38.6112 33.7774 38.565 33.8934 38.5649H41.5596C41.6756 38.565 41.7868 38.6112 41.8688 38.6933C41.9508 38.7754 41.9969 38.8867 41.9971 39.0029V45.8356C41.9969 45.9517 41.9508 46.0631 41.8688 46.1452C41.7868 46.2273 41.6756 46.2735 41.5596 46.2736V46.2736Z" fill="#E6E6E6"/>
<path d="M41.5596 60.0895H33.8934C33.7774 60.0894 33.6663 60.0432 33.5842 59.9611C33.5022 59.879 33.4561 59.7676 33.456 59.6515V52.8187C33.4561 52.7026 33.5022 52.5913 33.5842 52.5092C33.6663 52.427 33.7774 52.3809 33.8934 52.3807H41.5596C41.6756 52.3809 41.7868 52.427 41.8688 52.5092C41.9508 52.5913 41.9969 52.7026 41.9971 52.8187V59.6515C41.9969 59.7676 41.9508 59.879 41.8688 59.9611C41.7868 60.0432 41.6756 60.0894 41.5596 60.0895V60.0895Z" fill="#E6E6E6"/>
<path d="M68.0989 26.4115H52.1279C51.8859 26.4115 51.6539 26.3152 51.4828 26.1439C51.3117 25.9726 51.2156 25.7403 51.2156 25.498C51.2156 25.2558 51.3117 25.0234 51.4828 24.8521C51.6539 24.6808 51.8859 24.5846 52.1279 24.5846H68.0989C68.3408 24.5846 68.5728 24.6808 68.7439 24.8521C68.915 25.0234 69.0111 25.2558 69.0111 25.498C69.0111 25.7403 68.915 25.9726 68.7439 26.1439C68.5728 26.3152 68.3408 26.4115 68.0989 26.4115Z" fill="#CCCCCC"/>
<path d="M71.862 29.4943H52.1279C52.0081 29.4943 51.8894 29.4707 51.7788 29.4248C51.6681 29.3789 51.5675 29.3116 51.4828 29.2268C51.3981 29.142 51.3309 29.0413 51.285 28.9305C51.2392 28.8196 51.2156 28.7009 51.2156 28.5809C51.2156 28.4609 51.2392 28.3422 51.285 28.2313C51.3309 28.1205 51.3981 28.0198 51.4828 27.935C51.5675 27.8502 51.6681 27.7829 51.7788 27.737C51.8894 27.6911 52.0081 27.6675 52.1279 27.6675H71.862C72.1039 27.6675 72.336 27.7637 72.507 27.935C72.6781 28.1063 72.7742 28.3386 72.7742 28.5809C72.7742 28.8232 72.6781 29.0555 72.507 29.2268C72.336 29.3981 72.1039 29.4943 71.862 29.4943V29.4943Z" fill="#CCCCCC"/>
<path d="M48.5932 33.2304H33.8694C33.7534 33.2303 33.6422 33.1841 33.5602 33.102C33.4782 33.0199 33.4321 32.9086 33.4319 32.7924V21.2865C33.4321 21.1704 33.4782 21.059 33.5602 20.9769C33.6422 20.8948 33.7534 20.8486 33.8694 20.8485H48.5932C48.7092 20.8486 48.8204 20.8948 48.9024 20.9769C48.9844 21.059 49.0305 21.1704 49.0307 21.2865V32.7924C49.0305 32.9086 48.9844 33.0199 48.9024 33.102C48.8204 33.1841 48.7092 33.2303 48.5932 33.2304V33.2304Z" fill="#6C63FF"/>
</g>
<defs>
<clipPath id="clip0_1_3">
<rect width="89.0226" height="80" fill="white"/>
</clipPath>
</defs>
</svg>
