<svg width="23" height="14" viewBox="0 0 23 14" fill="none" xmlns="http://www.w3.org/2000/svg">
<path fill-rule="evenodd" clip-rule="evenodd" d="M3.00685 0.5C1.34621 0.5 0 1.84226 0 3.49879V10.5012C0 12.1574 1.33599 13.5 3.00685 13.5H19.9932C21.6538 13.5 23 12.1577 23 10.5012V3.49879C23 1.8426 21.664 0.5 19.9932 0.5H3.00685ZM14 4.5V9.5H13V10.5H16V9.5H15V4.5H16V3.5H13V4.5H14ZM10 7.5H7V10.5H6V7V5.5C6 4.38773 6.89762 3.5 8.00488 3.5H8.99512C10.1061 3.5 11 4.39543 11 5.5V7.5V10.5H10V7.5ZM7.99896 4.5C7.44725 4.5 7 4.94386 7 5.5V6.5H10V5.5C10 4.94772 9.55734 4.5 9.00104 4.5H7.99896Z" fill="#10B981"/>
</svg>
