<svg width="30" height="30" viewBox="0 0 30 30" fill="none" xmlns="http://www.w3.org/2000/svg">
<path d="M21.25 18.75C20.375 18.75 19.6354 18.4479 19.0312 17.8438C18.4271 17.2396 18.125 16.5 18.125 15.625C18.125 14.75 18.4271 14.0104 19.0312 13.4063C19.6354 12.8021 20.375 12.5 21.25 12.5C22.125 12.5 22.8646 12.8021 23.4687 13.4063C24.0729 14.0104 24.375 14.75 24.375 15.625C24.375 16.5 24.0729 17.2396 23.4687 17.8438C22.8646 18.4479 22.125 18.75 21.25 18.75ZM15 25V23.25C15 22.75 15.1302 22.2865 15.3906 21.8594C15.651 21.4323 16.0208 21.125 16.5 20.9375C17.25 20.625 18.026 20.3906 18.8281 20.2344C19.6302 20.0781 20.4375 20 21.25 20C22.0625 20 22.8698 20.0781 23.6719 20.2344C24.474 20.3906 25.25 20.625 26 20.9375C26.4792 21.125 26.849 21.4323 27.1094 21.8594C27.3698 22.2865 27.5 22.75 27.5 23.25V25H15ZM12.5 15C11.125 15 9.94791 14.5104 8.96875 13.5313C7.98958 12.5521 7.5 11.375 7.5 10C7.5 8.625 7.98958 7.44792 8.96875 6.46875C9.94791 5.48958 11.125 5 12.5 5C13.875 5 15.0521 5.48958 16.0312 6.46875C17.0104 7.44792 17.5 8.625 17.5 10C17.5 11.375 17.0104 12.5521 16.0312 13.5313C15.0521 14.5104 13.875 15 12.5 15ZM2.5 25V21.5C2.5 20.7917 2.67708 20.1406 3.03125 19.5469C3.38542 18.9531 3.875 18.5 4.5 18.1875C5.75 17.5625 7.04687 17.0833 8.39062 16.75C9.73437 16.4167 11.1042 16.25 12.5 16.25C13.2292 16.25 13.9583 16.3125 14.6875 16.4375C15.4167 16.5625 16.1458 16.7083 16.875 16.875L15.8125 17.9375L14.75 19C14.375 18.8958 14 18.8281 13.625 18.7969C13.25 18.7656 12.875 18.75 12.5 18.75C11.2917 18.75 10.1094 18.8958 8.95312 19.1875C7.79687 19.4792 6.6875 19.8958 5.625 20.4375C5.41667 20.5417 5.26042 20.6875 5.15625 20.875C5.05208 21.0625 5 21.2708 5 21.5V22.5H12.5V25H2.5ZM12.5 12.5C13.1875 12.5 13.776 12.2552 14.2656 11.7656C14.7552 11.276 15 10.6875 15 10C15 9.3125 14.7552 8.72396 14.2656 8.23438C13.776 7.74479 13.1875 7.5 12.5 7.5C11.8125 7.5 11.224 7.74479 10.7344 8.23438C10.2448 8.72396 10 9.3125 10 10C10 10.6875 10.2448 11.276 10.7344 11.7656C11.224 12.2552 11.8125 12.5 12.5 12.5Z" fill="#0284C7"/>
</svg>
