<svg width="200" height="150" viewBox="0 0 200 150" fill="none" xmlns="http://www.w3.org/2000/svg">
<g clip-path="url(#clip0_1116_173507)">
<path opacity="0.18" d="M172.443 141.783C168.675 143.834 164.687 145.453 160.555 146.608C141.076 152.111 120.976 150.352 101.696 145.332C91.2313 142.607 79.7849 138.895 68.8899 139.467C61.0139 139.877 53.453 142.885 45.3986 142.848C32.146 142.796 22.7841 136.023 13.6217 126.64C4.24937 117.036 3.06798 98.4439 4.9162 85.4748C6.91144 71.4661 13.4642 58.2293 23.2041 48.5209C27.5674 44.1628 32.5135 40.5452 37.1866 36.5704C51.295 24.62 63.6235 9.2094 80.7143 3.01891C97.8051 -3.17158 116.786 1.07093 133.851 7.50295C146.977 12.4438 160.566 19.5269 166.982 32.601C170.715 40.2039 171.576 49.0564 174.953 56.8484C183.422 76.3912 199.547 86.0681 195.036 109.969C194.201 114.815 192.674 119.515 190.5 123.925C186.478 131.738 179.941 137.682 172.443 141.783Z" fill="#68E1FD"/>
<path d="M109.761 108.237L137.379 120.838C137.966 121.105 138.635 121.129 139.239 120.903C139.844 120.678 140.334 120.222 140.603 119.636L147.665 104.162C147.801 103.874 147.876 103.561 147.886 103.243C147.904 102.761 147.779 102.284 147.527 101.873C147.274 101.462 146.906 101.135 146.468 100.933L118.85 88.3314C118.56 88.1913 118.244 88.1106 117.923 88.094C117.601 88.0774 117.28 88.1254 116.977 88.2349C116.674 88.3445 116.396 88.5136 116.159 88.7321C115.923 88.9507 115.733 89.2143 115.599 89.5076L108.532 104.992C108.398 105.282 108.323 105.596 108.31 105.916C108.298 106.236 108.349 106.555 108.46 106.855C108.571 107.155 108.741 107.43 108.959 107.664C109.176 107.899 109.438 108.088 109.729 108.221L109.761 108.237Z" fill="#68E1FD"/>
<path d="M109.761 108.237L137.379 120.838C137.966 121.105 138.635 121.129 139.239 120.903C139.844 120.678 140.334 120.222 140.603 119.636L147.665 104.162C147.801 103.874 147.876 103.561 147.886 103.243C147.904 102.761 147.779 102.284 147.527 101.873C147.274 101.462 146.906 101.135 146.468 100.933L118.85 88.3314C118.56 88.1913 118.244 88.1106 117.923 88.094C117.601 88.0774 117.28 88.1254 116.977 88.2349C116.674 88.3445 116.396 88.5136 116.159 88.7321C115.923 88.9507 115.733 89.2143 115.599 89.5076L108.532 104.992C108.398 105.282 108.323 105.596 108.31 105.916C108.298 106.236 108.349 106.555 108.46 106.855C108.571 107.155 108.741 107.43 108.959 107.664C109.176 107.899 109.438 108.088 109.729 108.221L109.761 108.237Z" fill="url(#paint0_linear_1116_173507)"/>
<path d="M108.485 107.659L136.104 120.26C136.69 120.528 137.359 120.552 137.963 120.328C138.567 120.103 139.058 119.649 139.328 119.063L146.39 103.584C146.523 103.297 146.597 102.987 146.61 102.671C146.628 102.188 146.503 101.711 146.249 101.3C145.996 100.888 145.626 100.562 145.187 100.36L117.574 87.7589C116.987 87.4917 116.318 87.4682 115.714 87.6936C115.109 87.919 114.619 88.3749 114.35 88.9613L107.283 104.44C107.016 105.026 106.993 105.695 107.218 106.298C107.444 106.902 107.899 107.391 108.485 107.659Z" fill="#68E1FD"/>
<path d="M147.549 101.91L139.091 79.689L116.775 88.3578L145.391 105.779L147.549 101.91Z" fill="#68E1FD"/>
<path d="M115.5 87.8009L124.137 106.703L147.56 101.92L139.102 79.6992C139.102 79.6992 116.13 87.4754 115.5 87.8009Z" fill="url(#paint1_linear_1116_173507)"/>
<path d="M132.186 105.249L134.444 119.505L108.49 107.659L121.039 99.9302L124.127 106.693L132.186 105.249Z" fill="url(#paint2_linear_1116_173507)"/>
<path d="M129.141 25.3394H78.5144C74.0893 25.3394 70.502 28.9267 70.502 33.3518V38.1141C70.502 42.5393 74.0893 46.1266 78.5144 46.1266H129.141C133.566 46.1266 137.153 42.5393 137.153 38.1141V33.3518C137.153 28.9267 133.566 25.3394 129.141 25.3394Z" fill="white"/>
<path d="M140.393 48.5576H89.7664C85.3412 48.5576 81.7539 52.1449 81.7539 56.5701V61.3324C81.7539 65.7576 85.3412 69.3449 89.7664 69.3449H140.393C144.818 69.3449 148.405 65.7576 148.405 61.3324V56.5701C148.405 52.1449 144.818 48.5576 140.393 48.5576Z" fill="white"/>
<path d="M125.681 72.3276H75.0544C70.6293 72.3276 67.042 75.9149 67.042 80.3401V85.1024C67.042 89.5276 70.6293 93.1149 75.0544 93.1149H125.681C130.106 93.1149 133.693 89.5276 133.693 85.1024V80.3401C133.693 75.9149 130.106 72.3276 125.681 72.3276Z" fill="white"/>
<path opacity="0.18" d="M86.4746 82.8653C86.4746 84.423 86.0126 85.9458 85.1472 87.2409C84.2818 88.5361 83.0517 89.5456 81.6126 90.1417C80.1735 90.7378 78.5899 90.8938 77.0621 90.5899C75.5343 90.286 74.1309 89.5359 73.0295 88.4344C71.928 87.333 71.1779 85.9296 70.874 84.4018C70.5701 82.874 70.7261 81.2905 71.3222 79.8513C71.9183 78.4122 72.9278 77.1821 74.223 76.3167C75.5182 75.4513 77.0409 74.9894 78.5986 74.9894C79.6274 74.9838 80.6472 75.181 81.5997 75.5696C82.5523 75.9582 83.419 76.5306 84.1504 77.2541C84.8817 77.9777 85.4634 78.8382 85.8622 79.7866C86.261 80.7349 86.4691 81.7525 86.4746 82.7813V82.8653Z" fill="#68E1FD"/>
<path opacity="0.34" d="M78.383 84.5249C79.6706 84.5249 80.7143 83.4811 80.7143 82.1936C80.7143 80.906 79.6706 79.8623 78.383 79.8623C77.0955 79.8623 76.0518 80.906 76.0518 82.1936C76.0518 83.4811 77.0955 84.5249 78.383 84.5249Z" fill="#68E1FD"/>
<path opacity="0.34" d="M83.461 89.061C82.0141 90.1964 80.2155 90.7897 78.377 90.7379C76.5385 90.6861 74.7762 89.9925 73.3955 88.7775C73.7474 87.701 74.4379 86.7672 75.3639 86.1153C76.29 85.4634 77.4021 85.1284 78.5341 85.1603C79.6662 85.1922 80.7576 85.5892 81.6455 86.2922C82.5334 86.9952 83.1702 87.9664 83.461 89.061Z" fill="#68E1FD"/>
<path opacity="0.18" d="M127.477 76.7168H94.2666V78.7488H127.477V76.7168Z" fill="#68E1FD"/>
<path opacity="0.18" d="M127.477 80.3242H94.2666V82.3562H127.477V80.3242Z" fill="#68E1FD"/>
<path opacity="0.18" d="M127.477 83.9312H94.2666V85.9632H127.477V83.9312Z" fill="#68E1FD"/>
<path opacity="0.18" d="M127.477 87.5386H94.2666V89.5706H127.477V87.5386Z" fill="#68E1FD"/>
<path opacity="0.18" d="M83.3713 136.033C113.762 136.033 138.398 133.031 138.398 129.328C138.398 125.625 113.762 122.623 83.3713 122.623C52.981 122.623 28.3447 125.625 28.3447 129.328C28.3447 133.031 52.981 136.033 83.3713 136.033Z" fill="#68E1FD"/>
<path d="M48.7013 127.181C48.234 127.538 47.8245 128.152 48.0713 128.693C48.318 129.234 48.9849 129.307 49.5519 129.323C51.6966 129.379 53.8406 129.188 55.942 128.756C56.0045 128.75 56.0634 128.725 56.11 128.682C56.1522 128.629 56.1728 128.561 56.1677 128.493C56.3235 127.187 56.3901 125.871 56.3673 124.555C55.2121 124.23 53.8732 124.624 52.8388 125.154C51.5104 125.81 49.8827 126.267 48.7013 127.181Z" fill="#68E1FD"/>
<path d="M70.5331 126.388C71.0004 126.75 71.4152 127.365 71.1685 127.9C70.9217 128.436 70.2496 128.52 69.6825 128.53C67.5372 128.584 65.3928 128.388 63.2925 127.948C63.23 127.942 63.171 127.916 63.1245 127.874C63.0866 127.819 63.0682 127.752 63.072 127.685C62.911 126.379 62.8443 125.063 62.8725 123.747C64.0276 123.416 65.3665 123.815 66.4009 124.346C67.7293 125.023 69.3517 125.48 70.5331 126.388Z" fill="#68E1FD"/>
<path d="M53.1855 89.2923V124.918C53.1855 124.918 55.1703 125.627 56.3779 124.918L60.1269 94.9053L62.7522 124.424C62.7522 124.424 64.8524 124.918 66.4276 124.209L68.0028 89.0298C68.0028 89.0298 58.6987 86.9348 53.1855 89.2923Z" fill="#473F47"/>
<path d="M80.2265 69.949C79.2236 73.9763 79.2394 75.9453 77.7115 79.8045C77.3019 80.8546 76.6613 82.0097 75.5587 82.141C74.7186 82.2408 73.9468 81.6789 73.2799 81.1539C71.4492 79.6942 69.6132 78.2345 67.772 76.7749C67.5863 81.132 67.7267 85.4969 68.1921 89.8332C65.6508 91.1721 62.9729 92.5425 60.1009 92.4585C58.296 92.3307 56.5337 91.8509 54.9132 91.0461C54.5194 90.878 54.1361 90.7048 53.7528 90.521C53.6131 90.4739 53.4906 90.3861 53.4011 90.269C52.876 89.4499 53.1228 87.3916 53.0808 86.4202C53.0178 84.9396 52.9442 83.4536 52.8707 81.9677C52.8392 81.4427 52.813 80.9544 52.7762 80.445C52.645 78.035 52.4927 75.6355 52.2512 73.2254C52.2932 73.6402 51.8784 74.3858 51.7261 74.8006C51.5318 75.4517 51.3376 76.1133 51.138 76.7696C50.924 77.3668 50.7486 77.9771 50.613 78.5968C50.4975 79.3477 50.8597 80.067 50.8125 80.8388C50.8093 81.1613 50.7318 81.4788 50.5861 81.7665C50.4404 82.0542 50.2304 82.3045 49.9724 82.498C49.1585 83.0231 48.0927 82.6976 47.2053 82.3195C46.7092 82.1729 46.2778 81.8618 45.9819 81.4374C45.7885 80.9561 45.7608 80.4241 45.9032 79.9252C46.3141 77.1319 47.0416 74.3945 48.0717 71.7658C48.959 69.466 49.8306 66.9562 52.2722 65.9271C53.5376 65.402 55.0445 65.3652 56.3992 65.339L61.1667 65.2445C62.6793 65.1378 64.1993 65.2564 65.677 65.5963C67.6145 66.1213 68.8274 67.5705 69.9248 69.1719C71.2899 71.1812 72.5711 73.2499 73.7682 75.3782C74.6188 72.5481 74.5296 71.8183 75.5587 69.0512C77.1428 69.1787 78.7081 69.4798 80.2265 69.949Z" fill="#68E1FD"/>
<path d="M59.8955 81.2062C59.632 81.5525 59.2909 81.8322 58.8997 82.0227C58.5085 82.2133 58.0781 82.3095 57.643 82.3036C56.9402 82.3293 56.2392 82.3907 55.5427 82.4874C55.3508 82.5079 55.1687 82.5826 55.0176 82.7026C54.909 82.8366 54.8351 82.9953 54.8024 83.1647C54.146 85.6167 54.7446 88.2053 54.9546 90.7309C54.9757 90.8349 54.9647 90.9429 54.9231 91.0406C54.5293 90.8726 54.146 90.6994 53.7627 90.5156C53.623 90.4685 53.5005 90.3807 53.411 90.2635C52.8859 89.4445 53.1327 87.3862 53.0907 86.4148C53.0277 84.9342 52.9542 83.4482 52.8806 81.9623C52.8491 81.4372 52.8229 80.9489 52.7861 80.4396C52.9069 80.4081 53.0329 80.3871 53.1537 80.3661L56.5403 79.7885C57.3752 79.6415 58.6406 79.148 59.4754 79.463C60.3103 79.778 60.284 80.5814 59.8955 81.2062Z" fill="url(#paint3_linear_1116_173507)" fill-opacity="0.1"/>
<path d="M56.2573 65.3233C57.0554 64.6197 57.7905 63.3228 57.6435 62.2202C57.4965 61.1175 56.6931 59.9571 56.2258 58.9123C55.9895 58.3872 55.7533 57.7414 56.0368 57.2268C56.2064 56.9969 56.3981 56.7841 56.6091 56.5915C57.0922 56.0664 57.2234 55.2998 57.5437 54.654C57.801 54.1519 58.1799 53.7222 58.6458 53.4039C59.1116 53.0857 59.6498 52.8891 60.2111 52.832C60.7738 52.7911 61.3372 52.902 61.8425 53.1532C62.3477 53.4045 62.7762 53.7868 63.0832 54.2602C63.3663 54.7667 63.5565 55.3197 63.645 55.8932C63.9424 57.4208 63.962 58.9896 63.7027 60.5242C63.629 61.0563 63.4506 61.5685 63.1777 62.0311C63.0409 62.2605 62.8515 62.454 62.625 62.5955C62.3985 62.7371 62.1416 62.8226 61.8755 62.845C61.5972 62.845 61.2769 62.782 61.0827 62.9763C60.9942 63.0718 60.9389 63.1933 60.9251 63.3228C60.8523 63.6968 60.8982 64.0841 61.0564 64.4307C61.2416 64.8688 61.3755 65.3269 61.4555 65.7958C61.5605 66.2947 61.6287 66.8932 61.2454 67.224C61.0053 67.3933 60.7142 67.4748 60.4211 67.4551C59.6086 67.4506 58.8085 67.2554 58.0853 66.8851C57.3621 66.5148 56.7359 65.9799 56.2573 65.3233Z" fill="#FCBDBA"/>
<path d="M64.8047 51.6662C64.7062 51.3074 64.5141 50.9813 64.2481 50.7211C63.8766 50.3475 63.4125 50.0791 62.9033 49.9435C62.3941 49.8079 61.858 49.8099 61.3498 49.9493C60.8667 50.0858 60.4204 50.3483 59.9426 50.5111C59.1036 50.7 58.2498 50.8159 57.3908 50.8576C56.5402 50.9784 55.6319 51.3249 55.2328 52.0863C55.0297 52.6165 54.9058 53.1738 54.8653 53.7402C54.5817 55.1841 53.5474 56.6176 54.0777 57.9932C54.608 59.3689 56.619 60.4243 57.4433 61.5794C57.6533 61.0859 57.4013 60.0987 57.186 59.6052C57.0056 59.6139 56.8272 59.5639 56.6776 59.4626C56.528 59.3612 56.4153 59.2142 56.3564 59.0434C56.1965 58.782 56.1078 58.4833 56.0992 58.177C56.0803 58.0245 56.098 57.8696 56.151 57.7253C56.204 57.5811 56.2906 57.4515 56.4037 57.3474C56.5484 57.2809 56.7123 57.2693 56.8649 57.3147C57.0176 57.3601 57.1485 57.4594 57.2333 57.5942C57.3944 57.872 57.4812 58.1867 57.4853 58.5078C58.5354 57.5049 57.3856 55.4729 58.3307 54.3651C59.0545 54.6282 59.7969 54.8371 60.5517 54.9899C61.3503 55.06 62.1546 54.9561 62.9092 54.6853C63.9751 54.2758 65.0882 52.8529 64.8047 51.6662Z" fill="#FC682D"/>
<path d="M48.05 78.3497C47.5548 78.555 47.1273 78.8952 46.8161 79.3316C46.636 79.6367 46.538 79.9833 46.5316 80.3375C46.5251 80.6917 46.6105 81.0416 46.7793 81.3531C46.9545 81.6601 47.1899 81.9286 47.4714 82.1424C47.7529 82.3563 48.0747 82.5111 48.4175 82.5975C49.4046 82.86 50.4495 82.5975 51.4419 82.3455L54.986 81.4319C55.0811 81.4171 55.1692 81.3731 55.2381 81.3058C55.269 81.2448 55.2851 81.1774 55.2851 81.1089C55.2851 81.0405 55.269 80.9731 55.2381 80.9121C55.0123 80.0509 54.8653 79.1163 54.5555 78.2867C54.2772 77.5517 53.9464 77.5569 53.1693 77.5359C51.4681 77.5044 49.6146 77.5832 48.05 78.3497Z" fill="#68E1FD"/>
<path d="M77.4486 70.3849C77.5988 70.3946 77.7485 70.3599 77.8791 70.2851C77.9731 70.2149 78.0487 70.123 78.0997 70.0173C78.3357 69.6083 78.4623 69.1454 78.4672 68.6732C78.4503 68.4434 78.4734 68.2124 78.5355 67.9906C78.6068 67.8455 78.6931 67.7083 78.7927 67.581C79.1543 66.8912 79.2815 66.1023 79.155 65.3338C79.1547 65.0403 79.0976 64.7497 78.987 64.4779C78.881 64.2735 78.7324 64.0941 78.5513 63.9519C78.3702 63.8097 78.1606 63.708 77.9369 63.6535C77.4887 63.5442 77.0272 63.5 76.5665 63.5223C76.2691 63.4959 75.9699 63.5428 75.6949 63.6588C75.2958 63.8583 75.0858 64.7562 75.007 65.171C74.8833 65.8542 75.0161 66.559 75.3798 67.1505C75.4994 67.3144 75.6014 67.4904 75.6844 67.6755C75.9049 68.2741 75.3851 69.13 75.7684 69.6498C75.9857 69.8776 76.2461 70.06 76.5346 70.1862C76.8231 70.3124 77.1338 70.3799 77.4486 70.3849Z" fill="#FCBDBA"/>
<path d="M84.4056 55.3418V67.8488C83.987 67.3758 83.5246 66.9433 83.0247 66.5571C80.9131 64.8767 78.3227 63.9097 75.6265 63.7953C75.1501 63.7871 74.6856 63.6449 74.2863 63.3848C73.887 63.1248 73.569 62.7576 73.3688 62.3251C73.1745 61.8869 73.1002 61.4049 73.1535 60.9285C73.2492 60.3273 73.5615 59.7819 74.0316 59.395C74.5016 59.0081 75.0969 58.8066 75.7053 58.8282C77.123 58.7705 79.9058 58.2454 84.4056 55.3418Z" fill="#68E1FD"/>
<path d="M84.9778 67.8224C86.7583 67.8224 88.2017 65.0273 88.2017 61.5794C88.2017 58.1315 86.7583 55.3364 84.9778 55.3364C83.1973 55.3364 81.7539 58.1315 81.7539 61.5794C81.7539 65.0273 83.1973 67.8224 84.9778 67.8224Z" fill="#68E1FD"/>
<path d="M84.9778 67.8224C86.7583 67.8224 88.2017 65.0273 88.2017 61.5794C88.2017 58.1315 86.7583 55.3364 84.9778 55.3364C83.1973 55.3364 81.7539 58.1315 81.7539 61.5794C81.7539 65.0273 83.1973 67.8224 84.9778 67.8224Z" fill="url(#paint4_linear_1116_173507)"/>
<path d="M82.0531 58.9487L84.9777 59.8623V63.0127L82.0269 64.0943C81.6816 62.3956 81.6906 60.6439 82.0531 58.9487Z" fill="url(#paint5_linear_1116_173507)"/>
<path d="M76.4144 66.7983H78.2364V68.3998C78.2364 68.6421 78.1401 68.8745 77.9688 69.0458C77.7975 69.2171 77.5651 69.3134 77.3228 69.3134C77.0805 69.3134 76.8481 69.2171 76.6768 69.0458C76.5054 68.8745 76.4092 68.6421 76.4092 68.3998V66.7983H76.4144Z" fill="#68E1FD"/>
<path d="M84.9776 63.0127C85.3865 63.0127 85.718 62.3075 85.718 61.4375C85.718 60.5675 85.3865 59.8623 84.9776 59.8623C84.5688 59.8623 84.2373 60.5675 84.2373 61.4375C84.2373 62.3075 84.5688 63.0127 84.9776 63.0127Z" fill="#68E1FD"/>
<path d="M83.025 66.5308C80.9135 64.8504 78.3231 63.8834 75.6269 63.769C75.1505 63.7608 74.686 63.6186 74.2866 63.3585C73.8873 63.0985 73.5693 62.7312 73.3691 62.2988C73.4374 62.3723 74.2197 63.1179 76.4198 62.7451C78.73 62.3513 81.9224 63.5222 81.9224 63.5222L83.025 66.5308Z" fill="url(#paint6_linear_1116_173507)"/>
<path d="M56.583 76.7746C56.651 76.6649 56.7283 76.5613 56.814 76.4648C56.9317 76.3443 57.0919 76.2746 57.2603 76.2705C57.2782 76.269 57.2962 76.271 57.3133 76.2764C57.3304 76.2818 57.3463 76.2905 57.36 76.3021C57.375 76.3263 57.3857 76.3529 57.3916 76.3808C57.4178 76.5331 57.4283 76.6853 57.4651 76.8324C57.4948 76.9838 57.572 77.1217 57.6856 77.2262C57.9219 77.4204 58.3787 77.2944 58.6517 77.2629L59.8068 77.1316C59.924 77.1006 60.0466 77.0962 60.1657 77.119C60.2848 77.1417 60.3972 77.1909 60.4947 77.2629C60.7205 77.4834 60.6207 77.8562 60.4947 78.1503C60.1429 79.0219 59.6808 79.9722 58.7987 80.303C57.7486 80.7021 56.5725 80.0562 55.4646 80.2295C54.845 80.324 54.1572 80.5603 53.7896 79.8725C53.6822 79.6857 53.631 79.4719 53.6421 79.2567C53.6533 79.0416 53.7264 78.8342 53.8526 78.6596C54.1928 78.3595 54.5865 78.1261 55.013 77.9717C55.3708 77.7834 55.71 77.5619 56.0264 77.3102C56.1931 77.1809 56.3493 77.0387 56.4937 76.8849L56.583 76.7746Z" fill="#FCBDBA"/>
<path opacity="0.18" d="M99.9842 58.9487C99.973 61.0227 99.1399 63.0077 97.6674 64.4684C96.195 65.929 94.2034 66.7462 92.1293 66.7406C90.0553 66.735 88.0681 65.9072 86.6035 64.4387C85.1389 62.9702 84.3164 60.9807 84.3164 58.9067C84.3164 56.8326 85.1389 54.8432 86.6035 53.3747C88.0681 51.9062 90.0553 51.0783 92.1293 51.0728C94.2034 51.0672 96.195 51.8844 97.6674 53.345C99.1399 54.8057 99.973 56.7907 99.9842 58.8647V58.9487Z" fill="#68E1FD"/>
<path opacity="0.34" d="M91.9035 60.6079C93.1911 60.6079 94.2348 59.5641 94.2348 58.2766C94.2348 56.9891 93.1911 55.9453 91.9035 55.9453C90.616 55.9453 89.5723 56.9891 89.5723 58.2766C89.5723 59.5641 90.616 60.6079 91.9035 60.6079Z" fill="#68E1FD"/>
<path opacity="0.34" d="M96.9805 65.1445C95.5336 66.2799 93.735 66.8732 91.8965 66.8214C90.0581 66.7696 88.2957 66.076 86.915 64.861C87.2669 63.7845 87.9574 62.8507 88.8835 62.1988C89.8096 61.5469 90.9216 61.2119 92.0536 61.2438C93.1857 61.2757 94.2771 61.6727 95.165 62.3757C96.0529 63.0787 96.6898 64.0499 96.9805 65.1445Z" fill="#68E1FD"/>
<path opacity="0.18" d="M140.997 52.8003H107.787V54.8323H140.997V52.8003Z" fill="#68E1FD"/>
<path opacity="0.18" d="M140.997 56.4077H107.787V58.4397H140.997V56.4077Z" fill="#68E1FD"/>
<path opacity="0.18" d="M140.997 60.0146H107.787V62.0466H140.997V60.0146Z" fill="#68E1FD"/>
<path opacity="0.18" d="M140.997 63.6221H107.787V65.6541H140.997V63.6221Z" fill="#68E1FD"/>
<path opacity="0.18" d="M89.5673 35.7304C89.5673 37.2882 89.1054 38.8109 88.24 40.1061C87.3746 41.4013 86.1445 42.4108 84.7054 43.0069C83.2662 43.603 81.6826 43.7589 80.1549 43.4551C78.6271 43.1512 77.2237 42.401 76.1222 41.2996C75.0208 40.1981 74.2707 38.7947 73.9668 37.267C73.6629 35.7392 73.8188 34.1556 74.415 32.7164C75.0111 31.2773 76.0205 30.0472 77.3157 29.1818C78.6109 28.3164 80.1337 27.8545 81.6914 27.8545C83.7802 27.8545 85.7835 28.6843 87.2605 30.1613C88.7375 31.6383 89.5673 33.6416 89.5673 35.7304Z" fill="#68E1FD"/>
<path opacity="0.34" d="M81.4709 37.395C82.7585 37.395 83.8022 36.3512 83.8022 35.0637C83.8022 33.7762 82.7585 32.7324 81.4709 32.7324C80.1834 32.7324 79.1396 33.7762 79.1396 35.0637C79.1396 36.3512 80.1834 37.395 81.4709 37.395Z" fill="#68E1FD"/>
<path opacity="0.34" d="M86.5531 41.9317C85.1052 43.0678 83.3052 43.6609 81.4656 43.6082C79.6259 43.5554 77.8628 42.8601 76.4824 41.6429C76.8334 40.5644 77.5241 39.6286 78.4513 38.9754C79.3784 38.3222 80.4921 37.9867 81.6258 38.0192C82.7595 38.0518 83.8522 38.4505 84.7404 39.1557C85.6286 39.861 86.2645 40.8349 86.5531 41.9317Z" fill="#68E1FD"/>
<path opacity="0.18" d="M130.57 29.5874H97.3594V31.6194H130.57V29.5874Z" fill="#68E1FD"/>
<path opacity="0.18" d="M130.57 33.1943H97.3594V35.2263H130.57V33.1943Z" fill="#68E1FD"/>
<path opacity="0.18" d="M130.57 36.7964H97.3594V38.8284H130.57V36.7964Z" fill="#68E1FD"/>
<path opacity="0.18" d="M130.57 40.4038H97.3594V42.4358H130.57V40.4038Z" fill="#68E1FD"/>
<path d="M133.594 28.642C135.264 28.642 136.618 27.2879 136.618 25.6176C136.618 23.9473 135.264 22.5933 133.594 22.5933C131.923 22.5933 130.569 23.9473 130.569 25.6176C130.569 27.2879 131.923 28.642 133.594 28.642Z" fill="#68E1FD"/>
<path d="M32.6974 68.4313L24.9895 56.8799C24.9034 56.7585 24.8422 56.6213 24.8096 56.4761C24.7769 56.3309 24.7735 56.1807 24.7994 56.0341C24.8253 55.8876 24.88 55.7476 24.9604 55.6224C25.0408 55.4972 25.1453 55.3892 25.2678 55.3047L31.7786 50.9939C31.8997 50.9141 32.0352 50.8588 32.1776 50.8311C32.3945 50.788 32.6193 50.8099 32.8239 50.8939C33.0284 50.978 33.2036 51.1205 33.3275 51.3037L41.0354 62.8551C41.1254 62.9923 41.1843 63.1475 41.2079 63.3099C41.2315 63.4723 41.2192 63.6378 41.172 63.795C41.0988 64.0424 40.9408 64.2562 40.7257 64.3988L34.2411 68.741C33.997 68.9041 33.6984 68.9641 33.4103 68.908C33.1222 68.852 32.8679 68.6844 32.7027 68.4418L32.6974 68.4313Z" fill="#68E1FD"/>
<path d="M32.6974 68.4313L24.9895 56.8799C24.9034 56.7585 24.8422 56.6213 24.8096 56.4761C24.7769 56.3309 24.7735 56.1807 24.7994 56.0341C24.8253 55.8876 24.88 55.7476 24.9604 55.6224C25.0408 55.4972 25.1453 55.3892 25.2678 55.3047L31.7786 50.9939C31.8997 50.9141 32.0352 50.8588 32.1776 50.8311C32.3945 50.788 32.6193 50.8099 32.8239 50.8939C33.0284 50.978 33.2036 51.1205 33.3275 51.3037L41.0354 62.8551C41.1254 62.9923 41.1843 63.1475 41.2079 63.3099C41.2315 63.4723 41.2192 63.6378 41.172 63.795C41.0988 64.0424 40.9408 64.2562 40.7257 64.3988L34.2411 68.741C33.997 68.9041 33.6984 68.9641 33.4103 68.908C33.1222 68.852 32.8679 68.6844 32.7027 68.4418L32.6974 68.4313Z" fill="url(#paint7_linear_1116_173507)"/>
<path d="M33.0493 68.967L25.3413 57.4157C25.1774 57.1691 25.1179 56.8675 25.176 56.5771C25.2341 56.2868 25.405 56.0313 25.6511 55.8667L32.1357 51.5717C32.2567 51.4918 32.3923 51.4365 32.5347 51.4089C32.7508 51.3662 32.9748 51.3883 33.1784 51.4723C33.382 51.5564 33.5563 51.6987 33.6793 51.8815L41.3873 63.4329C41.5514 63.678 41.6116 63.9783 41.5545 64.2677C41.4974 64.5572 41.3277 64.8121 41.0827 64.9766L34.593 69.2978C34.47 69.3779 34.3324 69.4329 34.1882 69.4596C34.0439 69.4863 33.8958 69.4842 33.7523 69.4534C33.6089 69.4227 33.4729 69.3639 33.3522 69.2804C33.2316 69.197 33.1286 69.0905 33.0493 68.967Z" fill="#68E1FD"/>
<path d="M41.5287 64.3517L32.3506 61.8262L32.5344 51.3669C32.7505 51.3242 32.9744 51.3463 33.1781 51.4303C33.3817 51.5144 33.556 51.6567 33.679 51.8395L41.3869 63.3909C41.4831 63.5292 41.5459 63.688 41.5705 63.8547C41.5951 64.0214 41.5808 64.1915 41.5287 64.3517Z" fill="url(#paint8_linear_1116_173507)"/>
<path d="M32.4139 58.0771L25.8086 58.0929L33.0492 68.967L35.6378 62.7292L32.3561 61.8261L32.4139 58.0771Z" fill="url(#paint9_linear_1116_173507)"/>
</g>
<defs>
<linearGradient id="paint0_linear_1116_173507" x1="124.09" y1="101.904" x2="180.697" y2="139.646" gradientUnits="userSpaceOnUse">
<stop offset="0.01"/>
<stop offset="0.08" stop-opacity="0.69"/>
<stop offset="0.21" stop-opacity="0.32"/>
<stop offset="1" stop-opacity="0"/>
</linearGradient>
<linearGradient id="paint1_linear_1116_173507" x1="7944.31" y1="-2522.61" x2="10045.5" y2="-7782.77" gradientUnits="userSpaceOnUse">
<stop offset="0.01"/>
<stop offset="0.08" stop-opacity="0.69"/>
<stop offset="0.21" stop-opacity="0.32"/>
<stop offset="1" stop-opacity="0"/>
</linearGradient>
<linearGradient id="paint2_linear_1116_173507" x1="19097.5" y1="2611.58" x2="16122.5" y2="6359.74" gradientUnits="userSpaceOnUse">
<stop offset="0.01"/>
<stop offset="0.08" stop-opacity="0.69"/>
<stop offset="0.21" stop-opacity="0.32"/>
<stop offset="1" stop-opacity="0"/>
</linearGradient>
<linearGradient id="paint3_linear_1116_173507" x1="736.819" y1="-1897.87" x2="1217.65" y2="-1718.63" gradientUnits="userSpaceOnUse">
<stop offset="0.01"/>
<stop offset="0.08" stop-opacity="0.69"/>
<stop offset="0.21" stop-opacity="0.32"/>
<stop offset="1" stop-opacity="0"/>
</linearGradient>
<linearGradient id="paint4_linear_1116_173507" x1="1041.95" y1="-2486.81" x2="1575.24" y2="-2354.46" gradientUnits="userSpaceOnUse">
<stop offset="0.01"/>
<stop offset="0.08" stop-opacity="0.69"/>
<stop offset="0.21" stop-opacity="0.32"/>
<stop offset="1" stop-opacity="0"/>
</linearGradient>
<linearGradient id="paint5_linear_1116_173507" x1="549.237" y1="-968.137" x2="773.739" y2="-918.754" gradientUnits="userSpaceOnUse">
<stop offset="0.01"/>
<stop offset="0.08" stop-opacity="0.69"/>
<stop offset="0.21" stop-opacity="0.32"/>
<stop offset="1" stop-opacity="0"/>
</linearGradient>
<linearGradient id="paint6_linear_1116_173507" x1="1625.36" y1="-672.311" x2="1624.32" y2="-809.377" gradientUnits="userSpaceOnUse">
<stop offset="0.01"/>
<stop offset="0.08" stop-opacity="0.69"/>
<stop offset="0.21" stop-opacity="0.32"/>
<stop offset="1" stop-opacity="0"/>
</linearGradient>
<linearGradient id="paint7_linear_1116_173507" x1="25874.4" y1="8751.29" x2="25223" y2="7984.51" gradientUnits="userSpaceOnUse">
<stop offset="0.01"/>
<stop offset="0.08" stop-opacity="0.69"/>
<stop offset="0.21" stop-opacity="0.32"/>
<stop offset="1" stop-opacity="0"/>
</linearGradient>
<linearGradient id="paint8_linear_1116_173507" x1="14490.7" y1="3036.98" x2="13917.2" y2="3258.09" gradientUnits="userSpaceOnUse">
<stop offset="0.01" stop-color="white"/>
<stop offset="1" stop-color="white" stop-opacity="0"/>
</linearGradient>
<linearGradient id="paint9_linear_1116_173507" x1="12366.7" y1="3957.65" x2="11795.9" y2="4858.9" gradientUnits="userSpaceOnUse">
<stop offset="0.01"/>
<stop offset="0.08" stop-opacity="0.69"/>
<stop offset="0.21" stop-opacity="0.32"/>
<stop offset="1" stop-opacity="0"/>
</linearGradient>
<clipPath id="clip0_1116_173507">
<rect width="199.02" height="150" fill="white" transform="translate(0.490234)"/>
</clipPath>
</defs>
</svg>
