<svg width="20" height="20" viewBox="0 0 20 20" fill="none" xmlns="http://www.w3.org/2000/svg">
<path d="M5.68758 7.52079C5.27091 7.52079 4.91328 7.37149 4.61466 7.07288C4.31605 6.77426 4.16675 6.41663 4.16675 5.99996C4.16675 5.58329 4.31605 5.22565 4.61466 4.92704C4.91328 4.62843 5.27091 4.47913 5.68758 4.47913C6.10425 4.47913 6.46189 4.62843 6.7605 4.92704C7.05911 5.22565 7.20841 5.58329 7.20841 5.99996C7.20841 6.41663 7.05911 6.77426 6.7605 7.07288C6.46189 7.37149 6.10425 7.52079 5.68758 7.52079ZM3.87508 18.3333C3.62508 18.3333 3.40286 18.2534 3.20841 18.0937C3.01397 17.934 2.91675 17.7361 2.91675 17.5C2.56953 17.5 2.27439 17.3784 2.03133 17.1354C1.78828 16.8923 1.66675 16.5972 1.66675 16.25V10.8333H4.16675V10.25C4.16675 9.76385 4.34036 9.34718 4.68758 8.99996C5.0348 8.65274 5.45147 8.47913 5.93758 8.47913C6.20147 8.47913 6.45147 8.52774 6.68758 8.62496C6.92369 8.72218 7.13203 8.86801 7.31258 9.06246L8.39591 10.2916C8.49314 10.4027 8.59383 10.5034 8.698 10.5937C8.80216 10.684 8.9098 10.7638 9.02091 10.8333H15.0001V3.87496C15.0001 3.61107 14.9133 3.38538 14.7397 3.19788C14.5661 3.01038 14.3473 2.91663 14.0834 2.91663C13.9445 2.91663 13.8126 2.93051 13.6876 2.95829C13.5626 2.98607 13.4515 3.04857 13.3542 3.14579L12.2709 4.22913C12.3404 4.46524 12.3508 4.70482 12.3022 4.94788C12.2536 5.19093 12.1667 5.42357 12.0417 5.64579L9.91675 3.62496C10.139 3.47218 10.382 3.37496 10.6459 3.33329C10.9098 3.29163 11.1667 3.3194 11.4167 3.41663L12.5001 2.35413C12.7084 2.14579 12.948 1.97913 13.2188 1.85413C13.4897 1.72913 13.7779 1.66663 14.0834 1.66663C14.6945 1.66663 15.2084 1.8819 15.6251 2.31246C16.0417 2.74301 16.2501 3.26385 16.2501 3.87496V10.8333H18.3334V16.25C18.3334 16.5972 18.2119 16.8923 17.9688 17.1354C17.7258 17.3784 17.4306 17.5 17.0834 17.5C17.0834 17.7361 16.9862 17.934 16.7917 18.0937C16.5973 18.2534 16.3681 18.3333 16.1042 18.3333H3.87508ZM2.91675 16.25H17.0834V12.0833H2.91675V16.25ZM17.0834 16.25H2.91675H17.0834Z" fill="black"/>
</svg>
