<svg width="19" height="20" viewBox="0 0 19 20" fill="none" xmlns="http://www.w3.org/2000/svg">
    <path d="M6.33203 14.5234C6.10773 14.5234 5.91971 14.4511 5.76797 14.3066C5.61623 14.1621 5.54036 13.983 5.54036 13.7694C5.54036 13.5558 5.61623 13.3767 5.76797 13.2322C5.91971 13.0877 6.10773 13.0155 6.33203 13.0155C6.55634 13.0155 6.74436 13.0877 6.89609 13.2322C7.04783 13.3767 7.1237 13.5558 7.1237 13.7694C7.1237 13.983 7.04783 14.1621 6.89609 14.3066C6.74436 14.4511 6.55634 14.5234 6.33203 14.5234ZM9.4987 14.5234C9.27439 14.5234 9.08637 14.4511 8.93464 14.3066C8.7829 14.1621 8.70703 13.983 8.70703 13.7694C8.70703 13.5558 8.7829 13.3767 8.93464 13.2322C9.08637 13.0877 9.27439 13.0155 9.4987 13.0155C9.723 13.0155 9.91103 13.0877 10.0628 13.2322C10.2145 13.3767 10.2904 13.5558 10.2904 13.7694C10.2904 13.983 10.2145 14.1621 10.0628 14.3066C9.91103 14.4511 9.723 14.5234 9.4987 14.5234ZM12.6654 14.5234C12.4411 14.5234 12.253 14.4511 12.1013 14.3066C11.9496 14.1621 11.8737 13.983 11.8737 13.7694C11.8737 13.5558 11.9496 13.3767 12.1013 13.2322C12.253 13.0877 12.4411 13.0155 12.6654 13.0155C12.8897 13.0155 13.0777 13.0877 13.2294 13.2322C13.3812 13.3767 13.457 13.5558 13.457 13.7694C13.457 13.983 13.3812 14.1621 13.2294 14.3066C13.0777 14.4511 12.8897 14.5234 12.6654 14.5234ZM3.95703 11.5075V9.99958C3.95703 8.66757 4.40564 7.51149 5.30286 6.53133C6.20009 5.55117 7.33481 4.97313 8.70703 4.7972V3.21387H10.2904V4.7972C11.6626 4.97313 12.7973 5.55117 13.6945 6.53133C14.5918 7.51149 15.0404 8.66757 15.0404 9.99958V11.5075H3.95703ZM5.54036 9.99958H13.457C13.457 8.95659 13.0711 8.06754 12.2992 7.33242C11.5273 6.5973 10.5938 6.22974 9.4987 6.22974C8.40356 6.22974 7.47005 6.5973 6.69818 7.33242C5.9263 8.06754 5.54036 8.95659 5.54036 9.99958ZM6.33203 16.7853C6.10773 16.7853 5.91971 16.713 5.76797 16.5685C5.61623 16.424 5.54036 16.245 5.54036 16.0313C5.54036 15.8177 5.61623 15.6386 5.76797 15.4941C5.91971 15.3496 6.10773 15.2774 6.33203 15.2774C6.55634 15.2774 6.74436 15.3496 6.89609 15.4941C7.04783 15.6386 7.1237 15.8177 7.1237 16.0313C7.1237 16.245 7.04783 16.424 6.89609 16.5685C6.74436 16.713 6.55634 16.7853 6.33203 16.7853ZM9.4987 16.7853C9.27439 16.7853 9.08637 16.713 8.93464 16.5685C8.7829 16.424 8.70703 16.245 8.70703 16.0313C8.70703 15.8177 8.7829 15.6386 8.93464 15.4941C9.08637 15.3496 9.27439 15.2774 9.4987 15.2774C9.723 15.2774 9.91103 15.3496 10.0628 15.4941C10.2145 15.6386 10.2904 15.8177 10.2904 16.0313C10.2904 16.245 10.2145 16.424 10.0628 16.5685C9.91103 16.713 9.723 16.7853 9.4987 16.7853ZM12.6654 16.7853C12.4411 16.7853 12.253 16.713 12.1013 16.5685C11.9496 16.424 11.8737 16.245 11.8737 16.0313C11.8737 15.8177 11.9496 15.6386 12.1013 15.4941C12.253 15.3496 12.4411 15.2774 12.6654 15.2774C12.8897 15.2774 13.0777 15.3496 13.2294 15.4941C13.3812 15.6386 13.457 15.8177 13.457 16.0313C13.457 16.245 13.3812 16.424 13.2294 16.5685C13.0777 16.713 12.8897 16.7853 12.6654 16.7853Z" fill="#6B7280"/>
</svg>
