<svg width="17" height="17" viewBox="0 0 17 17" fill="none" xmlns="http://www.w3.org/2000/svg">
<path d="M4.18758 6.02083C3.77091 6.02083 3.41328 5.87153 3.11466 5.57291C2.81605 5.2743 2.66675 4.91666 2.66675 4.5C2.66675 4.08333 2.81605 3.72569 3.11466 3.42708C3.41328 3.12847 3.77091 2.97916 4.18758 2.97916C4.60425 2.97916 4.96189 3.12847 5.2605 3.42708C5.55911 3.72569 5.70841 4.08333 5.70841 4.5C5.70841 4.91666 5.55911 5.2743 5.2605 5.57291C4.96189 5.87153 4.60425 6.02083 4.18758 6.02083ZM2.37508 16.8333C2.12508 16.8333 1.90286 16.7535 1.70841 16.5937C1.51397 16.434 1.41675 16.2361 1.41675 16C1.06953 16 0.774387 15.8785 0.531331 15.6354C0.288276 15.3924 0.166748 15.0972 0.166748 14.75V9.33333H2.66675V8.75C2.66675 8.26389 2.84036 7.84722 3.18758 7.5C3.5348 7.15278 3.95147 6.97916 4.43758 6.97916C4.70147 6.97916 4.95147 7.02778 5.18758 7.125C5.42369 7.22222 5.63203 7.36805 5.81258 7.5625L6.89591 8.79166C6.99314 8.90278 7.09383 9.00347 7.198 9.09375C7.30216 9.18402 7.4098 9.26389 7.52091 9.33333H13.5001V2.375C13.5001 2.11111 13.4133 1.88541 13.2397 1.69791C13.0661 1.51041 12.8473 1.41666 12.5834 1.41666C12.4445 1.41666 12.3126 1.43055 12.1876 1.45833C12.0626 1.48611 11.9515 1.54861 11.8542 1.64583L10.7709 2.72916C10.8404 2.96528 10.8508 3.20486 10.8022 3.44791C10.7536 3.69097 10.6667 3.92361 10.5417 4.14583L8.41675 2.125C8.63897 1.97222 8.88203 1.875 9.14591 1.83333C9.4098 1.79166 9.66675 1.81944 9.91675 1.91666L11.0001 0.854164C11.2084 0.645831 11.448 0.479164 11.7188 0.354164C11.9897 0.229164 12.2779 0.166664 12.5834 0.166664C13.1945 0.166664 13.7084 0.381942 14.1251 0.812497C14.5417 1.24305 14.7501 1.76389 14.7501 2.375V9.33333H16.8334V14.75C16.8334 15.0972 16.7119 15.3924 16.4688 15.6354C16.2258 15.8785 15.9306 16 15.5834 16C15.5834 16.2361 15.4862 16.434 15.2917 16.5937C15.0973 16.7535 14.8681 16.8333 14.6042 16.8333H2.37508ZM1.41675 14.75H15.5834V10.5833H1.41675V14.75ZM15.5834 14.75H1.41675H15.5834Z" fill="#6B7280"/>
</svg>
