<svg width="18" height="18" viewBox="0 0 18 18" fill="none" xmlns="http://www.w3.org/2000/svg">
<path d="M15.667 9.83366V3.02533C15.667 1.72533 14.6087 0.666992 13.3087 0.666992C12.6837 0.666992 12.0837 0.916992 11.642 1.35866L10.6003 2.40033C10.467 2.35866 10.3253 2.33366 10.1753 2.33366C9.84199 2.33366 9.53366 2.43366 9.27533 2.60033L11.5753 4.90033C11.742 4.64199 11.842 4.33366 11.842 4.00033C11.842 3.85033 11.817 3.71699 11.7837 3.57533L12.8253 2.53366C12.9503 2.40866 13.1253 2.33366 13.3087 2.33366C13.692 2.33366 14.0003 2.64199 14.0003 3.02533V9.83366H8.29199C8.04199 9.65866 7.81699 9.45866 7.60866 9.23366L6.44199 7.94199C6.28366 7.76699 6.08366 7.62533 5.86699 7.52533C5.60866 7.40033 5.32533 7.33366 5.03366 7.33366C4.00033 7.34199 3.16699 8.17533 3.16699 9.20866V9.83366H0.666992V14.8337C0.666992 15.7503 1.41699 16.5003 2.33366 16.5003C2.33366 16.9587 2.70866 17.3337 3.16699 17.3337H14.8337C15.292 17.3337 15.667 16.9587 15.667 16.5003C16.5837 16.5003 17.3337 15.7503 17.3337 14.8337V9.83366H15.667Z" fill="#9CA3AF"/>
</svg>
