<svg width="17" height="13" viewBox="0 0 17 13" fill="none" xmlns="http://www.w3.org/2000/svg">
<path d="M0.166748 12.3333V7.02083C0.166748 6.67361 0.236192 6.34722 0.375081 6.04166C0.51397 5.73611 0.722304 5.48611 1.00008 5.29166V2.875C1.00008 2.25 1.21189 1.72569 1.6355 1.30208C2.05911 0.87847 2.58341 0.666664 3.20842 0.666664H6.95841C7.26397 0.666664 7.54869 0.736109 7.81258 0.874997C8.07647 1.01389 8.30564 1.20139 8.50008 1.4375C8.69453 1.20139 8.92022 1.01389 9.17717 0.874997C9.43411 0.736109 9.71536 0.666664 10.0209 0.666664H13.7709C14.3959 0.666664 14.9237 0.87847 15.3542 1.30208C15.7848 1.72569 16.0001 2.25 16.0001 2.875V5.29166C16.2779 5.48611 16.4862 5.73611 16.6251 6.04166C16.764 6.34722 16.8334 6.67361 16.8334 7.02083V12.3333H15.5834V10.6667H1.41675V12.3333H0.166748ZM9.12508 4.9375H14.7501V2.875C14.7501 2.59722 14.6563 2.36805 14.4688 2.1875C14.2813 2.00694 14.0487 1.91666 13.7709 1.91666H9.95842C9.7223 1.91666 9.52439 2.01389 9.36467 2.20833C9.20494 2.40278 9.12508 2.625 9.12508 2.875V4.9375ZM2.25008 4.9375H7.87508V2.875C7.87508 2.625 7.79522 2.40278 7.6355 2.20833C7.47578 2.01389 7.27786 1.91666 7.04175 1.91666H3.20842C2.94453 1.91666 2.71883 2.01041 2.53133 2.19791C2.34383 2.38541 2.25008 2.61111 2.25008 2.875V4.9375ZM1.41675 9.41666H15.5834V7.02083C15.5834 6.78472 15.5036 6.5868 15.3438 6.42708C15.1841 6.26736 14.9862 6.1875 14.7501 6.1875H2.25008C2.01397 6.1875 1.81605 6.26736 1.65633 6.42708C1.49661 6.5868 1.41675 6.78472 1.41675 7.02083V9.41666ZM15.5834 9.41666H1.41675H15.5834Z" fill="#6B7280"/>
</svg>
