<svg width="20" height="20" viewBox="0 0 20 20" fill="none" xmlns="http://www.w3.org/2000/svg">
<path d="M1.66675 15.8333V10.5208C1.66675 10.1736 1.73619 9.84718 1.87508 9.54163C2.01397 9.23607 2.2223 8.98607 2.50008 8.79163V6.37496C2.50008 5.74996 2.71189 5.22565 3.1355 4.80204C3.55911 4.37843 4.08341 4.16663 4.70841 4.16663H8.45841C8.76397 4.16663 9.04869 4.23607 9.31258 4.37496C9.57647 4.51385 9.80564 4.70135 10.0001 4.93746C10.1945 4.70135 10.4202 4.51385 10.6772 4.37496C10.9341 4.23607 11.2154 4.16663 11.5209 4.16663H15.2709C15.8959 4.16663 16.4237 4.37843 16.8542 4.80204C17.2848 5.22565 17.5001 5.74996 17.5001 6.37496V8.79163C17.7779 8.98607 17.9862 9.23607 18.1251 9.54163C18.264 9.84718 18.3334 10.1736 18.3334 10.5208V15.8333H17.0834V14.1666H2.91675V15.8333H1.66675ZM10.6251 8.43746H16.2501V6.37496C16.2501 6.09718 16.1563 5.86801 15.9688 5.68746C15.7813 5.5069 15.5487 5.41663 15.2709 5.41663H11.4584C11.2223 5.41663 11.0244 5.51385 10.8647 5.70829C10.7049 5.90274 10.6251 6.12496 10.6251 6.37496V8.43746ZM3.75008 8.43746H9.37508V6.37496C9.37508 6.12496 9.29522 5.90274 9.1355 5.70829C8.97578 5.51385 8.77786 5.41663 8.54175 5.41663H4.70841C4.44453 5.41663 4.21883 5.51038 4.03133 5.69788C3.84383 5.88538 3.75008 6.11107 3.75008 6.37496V8.43746ZM2.91675 12.9166H17.0834V10.5208C17.0834 10.2847 17.0036 10.0868 16.8438 9.92704C16.6841 9.76732 16.4862 9.68746 16.2501 9.68746H3.75008C3.51397 9.68746 3.31605 9.76732 3.15633 9.92704C2.99661 10.0868 2.91675 10.2847 2.91675 10.5208V12.9166ZM17.0834 12.9166H2.91675H17.0834Z" fill="black"/>
</svg>
