<svg width="20" height="20" viewBox="0 0 20 20" fill="none" xmlns="http://www.w3.org/2000/svg">
<path d="M11.7094 5.00008C12.5233 5.15889 13.2713 5.55696 13.8577 6.14336C14.4441 6.72976 14.8422 7.4778 15.001 8.29175M11.7094 1.66675C13.4004 1.85461 14.9773 2.61189 16.1812 3.81425C17.3851 5.01662 18.1444 6.59259 18.3344 8.28341M8.5235 11.5526C7.52219 10.5513 6.73153 9.41912 6.15153 8.21111C6.10164 8.1072 6.0767 8.05524 6.05753 7.9895C5.98943 7.75587 6.03835 7.46899 6.18003 7.27113C6.21989 7.21546 6.26752 7.16783 6.36278 7.07257C6.65412 6.78123 6.79979 6.63556 6.89503 6.48908C7.25419 5.93667 7.25419 5.22452 6.89503 4.67211C6.79979 4.52563 6.65412 4.37996 6.36278 4.08862L6.20039 3.92623C5.75752 3.48336 5.53609 3.26192 5.29827 3.14164C4.8253 2.90241 4.26675 2.90241 3.79378 3.14164C3.55596 3.26192 3.33453 3.48336 2.89166 3.92623L2.7603 4.05759C2.31895 4.49894 2.09827 4.71962 1.92973 5.01964C1.74271 5.35257 1.60825 5.86964 1.60938 6.25149C1.61041 6.59562 1.67716 6.8308 1.81067 7.30117C2.52814 9.82901 3.88187 12.2143 5.87185 14.2043C7.86184 16.1943 10.2471 17.548 12.775 18.2655C13.2453 18.399 13.4805 18.4657 13.8246 18.4668C14.2065 18.4679 14.7236 18.3334 15.0565 18.1464C15.3565 17.9779 15.5772 17.7572 16.0186 17.3158L16.1499 17.1845C16.5928 16.7416 16.8142 16.5202 16.9345 16.2824C17.1737 15.8094 17.1737 15.2508 16.9345 14.7779C16.8142 14.5401 16.5928 14.3186 16.1499 13.8758L15.9875 13.7134C15.6962 13.422 15.5505 13.2764 15.404 13.1811C14.8516 12.8219 14.1395 12.822 13.5871 13.1811C13.4406 13.2764 13.2949 13.422 13.0036 13.7134C12.9083 13.8086 12.8607 13.8562 12.805 13.8961C12.6072 14.0378 12.3203 14.0867 12.0866 14.0186C12.0209 13.9994 11.9689 13.9745 11.865 13.9246C10.657 13.3446 9.52482 12.554 8.5235 11.5526Z" stroke="#1F2937" stroke-width="1.66667" stroke-linecap="round" stroke-linejoin="round"/>
</svg>
