<svg width="38" height="38" viewBox="0 0 38 38" fill="none" xmlns="http://www.w3.org/2000/svg">
<rect x="2" y="2" width="34" height="34" rx="17" fill="#F3F4F6"/>
<rect x="2" y="2" width="34" height="34" rx="17" stroke="#F9FAFB" stroke-width="4"/>
<path d="M24.9625 25.75C23.4 25.75 21.8563 25.4094 20.3313 24.7281C18.8063 24.0469 17.4188 23.0813 16.1688 21.8313C14.9188 20.5813 13.9531 19.1938 13.2719 17.6688C12.5906 16.1438 12.25 14.6 12.25 13.0375C12.25 12.8125 12.325 12.625 12.475 12.475C12.625 12.325 12.8125 12.25 13.0375 12.25H16.075C16.25 12.25 16.4062 12.3094 16.5438 12.4281C16.6813 12.5469 16.7625 12.6875 16.7875 12.85L17.275 15.475C17.3 15.675 17.2938 15.8438 17.2563 15.9813C17.2188 16.1188 17.15 16.2375 17.05 16.3375L15.2313 18.175C15.4813 18.6375 15.7781 19.0844 16.1219 19.5156C16.4656 19.9469 16.8438 20.3625 17.2563 20.7625C17.6438 21.15 18.05 21.5094 18.475 21.8406C18.9 22.1719 19.35 22.475 19.825 22.75L21.5875 20.9875C21.7 20.875 21.8469 20.7906 22.0281 20.7344C22.2094 20.6781 22.3875 20.6625 22.5625 20.6875L25.15 21.2125C25.325 21.2625 25.4688 21.3531 25.5813 21.4844C25.6938 21.6156 25.75 21.7625 25.75 21.925V24.9625C25.75 25.1875 25.675 25.375 25.525 25.525C25.375 25.675 25.1875 25.75 24.9625 25.75ZM14.5188 16.75L15.7563 15.5125L15.4375 13.75H13.7688C13.8313 14.2625 13.9188 14.7688 14.0313 15.2688C14.1438 15.7688 14.3063 16.2625 14.5188 16.75ZM21.2313 23.4625C21.7188 23.675 22.2156 23.8438 22.7219 23.9688C23.2281 24.0938 23.7375 24.175 24.25 24.2125V22.5625L22.4875 22.2063L21.2313 23.4625Z" fill="#0891B2"/>
</svg>
