<svg width="18" height="14" viewBox="0 0 18 14" fill="none" xmlns="http://www.w3.org/2000/svg">
<path d="M14.0003 6.16665V7.83331H17.3337V6.16665H14.0003ZM12.3337 11.675C13.1337 12.2666 14.1753 13.05 15.0003 13.6666C15.3337 13.225 15.667 12.775 16.0003 12.3333C15.1753 11.7166 14.1337 10.9333 13.3337 10.3333C13.0003 10.7833 12.667 11.2333 12.3337 11.675ZM16.0003 1.66665C15.667 1.22498 15.3337 0.77498 15.0003 0.333313C14.1753 0.94998 13.1337 1.73331 12.3337 2.33331C12.667 2.77498 13.0003 3.22498 13.3337 3.66665C14.1337 3.06665 15.1753 2.29165 16.0003 1.66665ZM2.33366 4.49998C1.41699 4.49998 0.666992 5.24998 0.666992 6.16665V7.83331C0.666992 8.74998 1.41699 9.49998 2.33366 9.49998H3.16699V12.8333H4.83366V9.49998H5.66699L9.83366 12V1.99998L5.66699 4.49998H2.33366ZM11.917 6.99998C11.917 5.89165 11.4337 4.89165 10.667 4.20831V9.78331C11.4337 9.10831 11.917 8.10831 11.917 6.99998Z" fill="#9CA3AF"/>
</svg>
