<svg width="151" height="70" viewBox="0 0 151 70" fill="none" xmlns="http://www.w3.org/2000/svg">
<path d="M148.795 67.543C123.619 67.543 100.558 66.9372 76.3687 58.3662C58.4935 52.0325 40.8167 43.209 26.3905 30.6946C20.875 25.9102 13.9394 20.0246 11.5664 12.9058" stroke="#C0CFD7" stroke-width="3" stroke-linecap="round"/>
<path d="M3.32674 19.758C5.27734 19.5413 6.59872 16.8704 8.16807 15.885C10.0859 14.6807 11.774 13.3717 13.8456 12.43C15.5888 11.6377 17.1833 11.0436 14.4178 11.0436C12.8487 11.0436 11.1389 9.46657 10.2586 8.29288C9.11277 6.76505 7.19568 6.19818 5.87945 4.88195C5.33115 4.33365 4.51507 3.03948 4.51507 4.39781C4.51507 6.05007 3.76638 7.45255 3.72285 9.06309C3.66653 11.1471 3.34782 12.8303 2.90863 14.8067C2.76351 15.4597 1.94911 17.8831 2.62255 18.4817C3.35606 19.1337 11.5232 11.5768 13.8236 11.0656C14.8862 10.8295 16.1308 10.4143 17.1906 9.94334C18.3415 9.43178 15.932 8.67979 15.012 8.27088C13.6113 7.64836 12.5344 6.69643 11.2489 5.98225C10.3573 5.48691 9.12523 3.7879 8.2561 3.53958C7.13677 3.21977 5.75201 2.64039 4.82316 2.02116M4.82316 2.02116C4.30929 1.67858 4.89857 4.43534 4.91118 4.50784C5.15589 5.91496 5.56781 7.24869 5.7254 8.66699C5.90745 10.3054 6.84936 11.9275 6.47361 13.6183C6.33293 14.2514 5.77649 14.743 5.7034 15.4008C5.57209 16.5826 4.89681 16.2789 5.48334 15.3128C6.72242 13.272 8.19582 12.56 9.86254 11.2637C10.5013 10.7669 13.4735 9.85531 11.9531 9.85531C10.8174 9.85531 7.28783 10.553 7.28783 9.06309C7.28783 6.10893 6.98532 10.3898 6.69367 11.4397C6.10466 13.5602 5.27673 15.0353 3.72285 16.5892C2.33525 17.9768 2.16778 18.7526 4.33902 18.1736C8.96972 16.9387 12.6564 12.6384 16.7944 10.3394C17.4783 9.95954 20.4155 9.49367 18.5769 9.0851C17.5765 8.86277 16.5924 7.60195 15.6061 7.47866C14.5708 7.34925 13.7065 6.17198 12.6573 5.87222C11.877 5.64928 10.576 4.94088 9.97257 4.39781C8.4299 3.00941 5.77206 3.91897 4.82316 2.02116Z" stroke="#C0CFD7" stroke-width="3" stroke-linecap="round"/>
</svg>
