<svg width="106" height="121" viewBox="0 0 106 121" fill="none" xmlns="http://www.w3.org/2000/svg">
<rect y="85.4971" width="105.06" height="35.503" rx="7" fill="#F1F3F8"/>
<ellipse cx="20.6486" cy="102.162" rx="9.78144" ry="10.1437" fill="#D8DEE8"/>
<rect x="44.1992" y="93.6482" width="44.9222" height="5.07186" rx="2.53593" fill="#D8DEE8"/>
<rect x="44.1992" y="93.6482" width="44.9222" height="5.07186" rx="2.53593" fill="#D8DEE8"/>
<rect x="44.1992" y="93.6482" width="44.9222" height="5.07186" rx="2.53593" fill="#D8DEE8"/>
<rect x="44.1992" y="102.343" width="35.503" height="4.34731" rx="2.17365" fill="#D8DEE8"/>
<rect x="44.1992" y="102.343" width="35.503" height="4.34731" rx="2.17365" fill="#D8DEE8"/>
<rect x="44.1992" y="102.343" width="35.503" height="4.34731" rx="2.17365" fill="#D8DEE8"/>
<rect y="42.749" width="105.06" height="35.503" rx="7" fill="#F0F9FF"/>
<ellipse cx="20.6486" cy="59.4137" rx="9.78144" ry="10.1437" fill="#D8DEE8"/>
<rect x="44.1992" y="50.9001" width="44.9222" height="5.07186" rx="2.53593" fill="#D8DEE8"/>
<rect x="44.1992" y="50.9001" width="44.9222" height="5.07186" rx="2.53593" fill="#D8DEE8"/>
<rect x="44.1992" y="50.9001" width="44.9222" height="5.07186" rx="2.53593" fill="#D8DEE8"/>
<rect x="44.1992" y="59.5947" width="35.503" height="4.34731" rx="2.17365" fill="#D8DEE8"/>
<rect x="44.1992" y="59.5947" width="35.503" height="4.34731" rx="2.17365" fill="#D8DEE8"/>
<rect x="44.1992" y="59.5947" width="35.503" height="4.34731" rx="2.17365" fill="#D8DEE8"/>
<path d="M95.0955 80.6064L92.9219 82.4178V74.0854L99.0806 79.8819L95.4578 80.2441L95.0955 80.6064Z" fill="white" stroke="#364370"/>
<rect width="105.06" height="35.503" rx="7" fill="#F1F3F8"/>
<ellipse cx="20.6486" cy="16.6647" rx="9.78144" ry="10.1437" fill="#D8DEE8"/>
<rect x="44.1992" y="8.15112" width="44.9222" height="5.07186" rx="2.53593" fill="#D8DEE8"/>
<rect x="44.1992" y="8.15112" width="44.9222" height="5.07186" rx="2.53593" fill="#D8DEE8"/>
<rect x="44.1992" y="8.15112" width="44.9222" height="5.07186" rx="2.53593" fill="#D8DEE8"/>
<rect x="44.1992" y="16.8457" width="35.503" height="4.34731" rx="2.17365" fill="#D8DEE8"/>
<rect x="44.1992" y="16.8457" width="35.503" height="4.34731" rx="2.17365" fill="#D8DEE8"/>
<rect x="44.1992" y="16.8457" width="35.503" height="4.34731" rx="2.17365" fill="#D8DEE8"/>
</svg>
