<svg width="22" height="22" viewBox="0 0 22 22" fill="none" xmlns="http://www.w3.org/2000/svg">
<circle cx="11" cy="11" r="11" fill="#F9FAFB"/>
<path d="M8.09235 7.07593H11.3572V9.47222V9.62222H11.5072H13.9035V14.9241H8.09235V9.47222V7.07593ZM12.1225 5.80134L12.0786 5.75741H12.0164H7.94235C7.62216 5.75741 7.34432 5.87317 7.11695 6.10053C6.88959 6.3279 6.77383 6.60574 6.77383 6.92593V15.0741C6.77383 15.3943 6.88959 15.6721 7.11695 15.8995C7.34432 16.1268 7.62216 16.2426 7.94235 16.2426H14.0535C14.3737 16.2426 14.6515 16.1268 14.8789 15.8995C15.1062 15.6721 15.222 15.3943 15.222 15.0741V8.96296V8.90083L15.178 8.8569L12.1225 5.80134Z" fill="#6B7280" stroke="#6B7280" stroke-width="0.3"/>
</svg>
