<svg width="39" height="38" viewBox="0 0 39 38" fill="none" xmlns="http://www.w3.org/2000/svg">
<rect x="2.5" y="2" width="34" height="34" rx="17" fill="#F3F4F6"/>
<rect x="2.5" y="2" width="34" height="34" rx="17" stroke="#F9FAFB" stroke-width="4"/>
<path d="M20.2459 26.4918C19.2436 26.4918 18.3016 26.3016 17.42 25.9212C16.5384 25.5408 15.7716 25.0245 15.1194 24.3724C14.4673 23.7203 13.951 22.9534 13.5706 22.0718C13.1902 21.1902 13 20.2483 13 19.2459C13 18.2436 13.1902 17.3016 13.5706 16.42C13.951 15.5384 14.4673 14.7716 15.1194 14.1194C15.7716 13.4673 16.5384 12.951 17.42 12.5706C18.3016 12.1902 19.2436 12 20.2459 12C21.2483 12 22.1902 12.1902 23.0718 12.5706C23.9534 12.951 24.7203 13.4673 25.3724 14.1194C26.0245 14.7716 26.5408 15.5384 26.9212 16.42C27.3016 17.3016 27.4918 18.2436 27.4918 19.2459V20.2966C27.4918 21.0091 27.2473 21.6159 26.7582 22.1171C26.2691 22.6183 25.6683 22.8689 24.9558 22.8689C24.5331 22.8689 24.1345 22.7783 23.7602 22.5971C23.3858 22.416 23.0718 22.1564 22.8182 21.8182C22.468 22.1684 22.0725 22.4311 21.6317 22.6062C21.1909 22.7813 20.729 22.8689 20.2459 22.8689C19.2436 22.8689 18.3891 22.5156 17.6827 21.8091C16.9762 21.1027 16.623 20.2483 16.623 19.2459C16.623 18.2436 16.9762 17.3891 17.6827 16.6827C18.3891 15.9762 19.2436 15.623 20.2459 15.623C21.2483 15.623 22.1027 15.9762 22.8091 16.6827C23.5156 17.3891 23.8689 18.2436 23.8689 19.2459V20.2966C23.8689 20.6106 23.9715 20.8762 24.1768 21.0936C24.3821 21.311 24.6418 21.4197 24.9558 21.4197C25.2697 21.4197 25.5294 21.311 25.7347 21.0936C25.94 20.8762 26.0426 20.6106 26.0426 20.2966V19.2459C26.0426 17.6277 25.4811 16.257 24.358 15.1339C23.2348 14.0107 21.8642 13.4492 20.2459 13.4492C18.6277 13.4492 17.257 14.0107 16.1339 15.1339C15.0107 16.257 14.4492 17.6277 14.4492 19.2459C14.4492 20.8642 15.0107 22.2348 16.1339 23.358C17.257 24.4811 18.6277 25.0426 20.2459 25.0426H23.8689V26.4918H20.2459ZM20.2459 21.4197C20.8497 21.4197 21.363 21.2083 21.7857 20.7857C22.2083 20.363 22.4197 19.8497 22.4197 19.2459C22.4197 18.6421 22.2083 18.1288 21.7857 17.7062C21.363 17.2835 20.8497 17.0721 20.2459 17.0721C19.6421 17.0721 19.1288 17.2835 18.7062 17.7062C18.2835 18.1288 18.0721 18.6421 18.0721 19.2459C18.0721 19.8497 18.2835 20.363 18.7062 20.7857C19.1288 21.2083 19.6421 21.4197 20.2459 21.4197Z" fill="#4B5563"/>
</svg>
