<svg xmlns="http://www.w3.org/2000/svg" width="50" height="50" viewBox="0 0 50 50" fill="none">
    <circle cx="25" cy="25" r="25" fill="#F3F4F6"/>
    <g clip-path="url(#clip0_10854_8234)">
        <path d="M24.9147 34.3059C23.6155 34.3059 22.3947 34.0594 21.2521 33.5663C20.1095 33.0733 19.1156 32.4042 18.2704 31.5589C17.4252 30.7137 16.756 29.7198 16.263 28.5772C15.77 27.4346 15.5234 26.2138 15.5234 24.9147C15.5234 23.6155 15.77 22.3947 16.263 21.2521C16.756 20.1095 17.4252 19.1156 18.2704 18.2704C19.1156 17.4252 20.1095 16.756 21.2521 16.263C22.3947 15.77 23.6155 15.5234 24.9147 15.5234C26.2138 15.5234 27.4346 15.77 28.5772 16.263C29.7198 16.756 30.7137 17.4252 31.5589 18.2704C32.4042 19.1156 33.0733 20.1095 33.5663 21.2521C34.0594 22.3947 34.3059 23.6155 34.3059 24.9147V26.2764C34.3059 27.1999 33.9889 27.9864 33.355 28.6359C32.7211 29.2855 31.9424 29.6103 31.0189 29.6103C30.4711 29.6103 29.9546 29.4929 29.4694 29.2581C28.9842 29.0233 28.5772 28.6868 28.2485 28.2485C27.7946 28.7024 27.282 29.0429 26.7107 29.2698C26.1394 29.4968 25.5407 29.6103 24.9147 29.6103C23.6155 29.6103 22.5082 29.1524 21.5925 28.2368C20.6769 27.3212 20.219 26.2138 20.219 24.9147C20.219 23.6155 20.6769 22.5082 21.5925 21.5925C22.5082 20.6769 23.6155 20.219 24.9147 20.219C26.2138 20.219 27.3212 20.6769 28.2368 21.5925C29.1524 22.5082 29.6103 23.6155 29.6103 24.9147V26.2764C29.6103 26.6833 29.7433 27.0277 30.0094 27.3094C30.2755 27.5912 30.612 27.732 31.0189 27.732C31.4259 27.732 31.7624 27.5912 32.0285 27.3094C32.2946 27.0277 32.4276 26.6833 32.4276 26.2764V24.9147C32.4276 22.8173 31.6998 21.0408 30.2442 19.5851C28.7885 18.1295 27.012 17.4017 24.9147 17.4017C22.8173 17.4017 21.0408 18.1295 19.5851 19.5851C18.1295 21.0408 17.4017 22.8173 17.4017 24.9147C17.4017 27.012 18.1295 28.7885 19.5851 30.2442C21.0408 31.6998 22.8173 32.4276 24.9147 32.4276H29.6103V34.3059H24.9147ZM24.9147 27.732C25.6973 27.732 26.3625 27.4581 26.9103 26.9103C27.4581 26.3625 27.732 25.6973 27.732 24.9147C27.732 24.1321 27.4581 23.4668 26.9103 22.919C26.3625 22.3712 25.6973 22.0973 24.9147 22.0973C24.1321 22.0973 23.4668 22.3712 22.919 22.919C22.3712 23.4668 22.0973 24.1321 22.0973 24.9147C22.0973 25.6973 22.3712 26.3625 22.919 26.9103C23.4668 27.4581 24.1321 27.732 24.9147 27.732Z" fill="#4B5563"/>
    </g>
    <defs>
        <clipPath id="clip0_10854_8234">
            <rect width="22" height="22" fill="white" transform="translate(14 14)"/>
        </clipPath>
    </defs>
</svg>