<svg width="120" height="118" viewBox="0 0 120 118" fill="none" xmlns="http://www.w3.org/2000/svg">
<circle cx="61" cy="49" r="34" fill="#EAECF0"/>
<circle cx="14.5984" cy="13.6001" r="3.2" fill="#F2F4F7"/>
<circle cx="13.8008" cy="73.6001" r="4" fill="#F2F4F7"/>
<circle cx="101.801" cy="17.6001" r="4" fill="#F2F4F7"/>
<circle cx="95.4" cy="2.4" r="2.4" fill="#F2F4F7"/>
<g filter="url(#filter0_dd_11552_8875)">
<path d="M61.1429 33C53.448 33 46.6413 36.7429 42.499 42.4802C41.1464 42.1661 39.7358 42 38.2857 42C28.1868 42 20 50.0589 20 60C20 69.9411 28.1868 78 38.2857 78H84C92.8366 78 100 70.9485 100 62.25C100 53.5515 92.8366 46.5 84 46.5C83.3723 46.5 82.7531 46.5356 82.1443 46.6048C78.6417 38.6023 70.5569 33 61.1429 33Z" fill="#F9FAFB"/>
<ellipse cx="40.5" cy="60.5" rx="17.5" ry="16.5" fill="url(#paint0_linear_11552_8875)"/>
<ellipse cx="61.5" cy="57" rx="21.5" ry="21" fill="url(#paint1_linear_11552_8875)"/>
<ellipse cx="83" cy="62.5" rx="15" ry="14.5" fill="url(#paint2_linear_11552_8875)"/>
</g>
<g filter="url(#filter1_b_11552_8875)">
<rect x="45.7988" y="46.4" width="30.4" height="30.4" rx="15.2" fill="#344054" fill-opacity="0.4"/>
<g clip-path="url(#clip0_11552_8875)">
<path d="M67.2582 67.86L64.8083 65.41M66.5582 61.21C66.5582 64.4961 63.8943 67.16 60.6082 67.16C57.3221 67.16 54.6582 64.4961 54.6582 61.21C54.6582 57.9239 57.3221 55.26 60.6082 55.26C63.8943 55.26 66.5582 57.9239 66.5582 61.21Z" stroke="white" stroke-width="2" stroke-linecap="round" stroke-linejoin="round"/>
</g>
</g>
<defs>
<filter id="filter0_dd_11552_8875" x="-15" y="4.00012" width="152" height="114" filterUnits="userSpaceOnUse" color-interpolation-filters="sRGB">
<feFlood flood-opacity="0" result="BackgroundImageFix"/>
<feColorMatrix in="SourceAlpha" type="matrix" values="0 0 0 0 0 0 0 0 0 0 0 0 0 0 0 0 0 0 127 0" result="hardAlpha"/>
<feMorphology radius="4" operator="erode" in="SourceAlpha" result="effect1_dropShadow_11552_8875"/>
<feOffset dy="8"/>
<feGaussianBlur stdDeviation="4"/>
<feColorMatrix type="matrix" values="0 0 0 0 0.0627451 0 0 0 0 0.0941176 0 0 0 0 0.156863 0 0 0 0.03 0"/>
<feBlend mode="normal" in2="BackgroundImageFix" result="effect1_dropShadow_11552_8875"/>
<feColorMatrix in="SourceAlpha" type="matrix" values="0 0 0 0 0 0 0 0 0 0 0 0 0 0 0 0 0 0 127 0" result="hardAlpha"/>
<feMorphology radius="4" operator="erode" in="SourceAlpha" result="effect2_dropShadow_11552_8875"/>
<feOffset dy="20"/>
<feGaussianBlur stdDeviation="12"/>
<feColorMatrix type="matrix" values="0 0 0 0 0.0627451 0 0 0 0 0.0941176 0 0 0 0 0.156863 0 0 0 0.08 0"/>
<feBlend mode="normal" in2="effect1_dropShadow_11552_8875" result="effect2_dropShadow_11552_8875"/>
<feBlend mode="normal" in="SourceGraphic" in2="effect2_dropShadow_11552_8875" result="shape"/>
</filter>
<filter id="filter1_b_11552_8875" x="37.7988" y="38.4" width="46.4004" height="46.4" filterUnits="userSpaceOnUse" color-interpolation-filters="sRGB">
<feFlood flood-opacity="0" result="BackgroundImageFix"/>
<feGaussianBlur in="BackgroundImageFix" stdDeviation="4"/>
<feComposite in2="SourceAlpha" operator="in" result="effect1_backgroundBlur_11552_8875"/>
<feBlend mode="normal" in="SourceGraphic" in2="effect1_backgroundBlur_11552_8875" result="shape"/>
</filter>
<linearGradient id="paint0_linear_11552_8875" x1="27.0625" y1="49.5982" x2="56.289" y2="78.7173" gradientUnits="userSpaceOnUse">
<stop stop-color="#D0D5DD"/>
<stop offset="0.350715" stop-color="white" stop-opacity="0"/>
</linearGradient>
<linearGradient id="paint1_linear_11552_8875" x1="44.9911" y1="43.125" x2="82.1604" y2="78.873" gradientUnits="userSpaceOnUse">
<stop stop-color="#D0D5DD"/>
<stop offset="0.350715" stop-color="white" stop-opacity="0"/>
</linearGradient>
<linearGradient id="paint2_linear_11552_8875" x1="71.4821" y1="52.9196" x2="97.1557" y2="77.8688" gradientUnits="userSpaceOnUse">
<stop stop-color="#D0D5DD"/>
<stop offset="0.350715" stop-color="white" stop-opacity="0"/>
</linearGradient>
<clipPath id="clip0_11552_8875">
<rect width="16.8" height="16.8" fill="white" transform="translate(53.3984 54)"/>
</clipPath>
</defs>
</svg>
