<svg width="18" height="14" viewBox="0 0 18 14" fill="none" xmlns="http://www.w3.org/2000/svg">
<path d="M16.284 0.239609H15.723H15.7225L8.98445 5.575L2.24598 0.239609H2.13949H1.68453C0.754727 0.239609 0 0.99625 0 1.92871V12.0633C0 12.9956 0.754727 13.7524 1.68453 13.7524H2.22902H2.24598V3.21914L8.98445 8.41594L15.7225 3.21789V13.1549V13.7524H16.284C17.2139 13.7524 17.9687 12.9956 17.9687 12.0633V1.92871C17.9687 0.996289 17.214 0.239609 16.284 0.239609Z" fill="#F14336"/>
<path d="M15.7225 0.239609H2.24597L8.98445 5.575L15.7225 0.239609Z" fill="#F2F2F2"/>
<path d="M8.98445 8.41594L2.24597 3.21914V13.7524H2.22902V13.7604H15.7186V13.1549H15.7225V3.21789L8.98445 8.41594Z" fill="#F2F2F2"/>
</svg>
