<svg width="160" height="128" viewBox="0 0 160 128" fill="none" xmlns="http://www.w3.org/2000/svg">
<path d="M2.2462 70.5072L63.3999 34.9424C63.8394 34.6887 64.3379 34.5551 64.8453 34.5551C65.3528 34.5551 65.8513 34.6887 66.2907 34.9424L157.745 87.2796C158.187 87.5327 158.553 87.8979 158.808 88.3382C159.064 88.7785 159.198 89.2784 159.198 89.7872C159.198 90.2961 159.064 90.7959 158.808 91.2362C158.553 91.6765 158.187 92.0417 157.745 92.2949L99.2732 126.059C97.8361 126.888 96.2059 127.325 94.5465 127.325C92.8871 127.325 91.2569 126.888 89.8198 126.059L2.25117 75.5126C1.81184 75.2592 1.44691 74.8947 1.19301 74.4556C0.939117 74.0166 0.805193 73.5185 0.804689 73.0113C0.804185 72.5042 0.937118 72.0058 1.19014 71.5662C1.44317 71.1267 1.80737 70.7615 2.2462 70.5072V70.5072Z" fill="#3E5A70"/>
<path d="M38.6631 55.0483L2.69531 75.7215L30.2048 91.6033L80.0144 63.8251" fill="#FFEFE4"/>
<path d="M58.439 75.1593L30.2031 91.6033L64.4643 111.376L103.646 85.1352" fill="#E4FAFF"/>
<path d="M120.653 82.5479V107.843L90.5165 126.253L85.541 123.531L64.4648 111.376L89.8398 93.9617" fill="#FFEFE4"/>
<path style="mix-blend-mode:multiply" opacity="0.63" d="M43.7656 59.3323L69.9715 74.7016L85.1617 65.472L63.7074 52.9487" fill="url(#paint0_linear_1_52)"/>
<path style="mix-blend-mode:multiply" opacity="0.63" d="M62.2539 78.9954L88.4598 94.3647L103.645 85.1351L82.1957 72.6118" fill="url(#paint1_linear_1_52)"/>
<path d="M67.6512 55.3656C77.565 52.3498 82.2032 38.7334 78.011 24.9525C73.8187 11.1716 62.3836 2.44482 52.4699 5.46061C42.5562 8.47641 37.918 22.0928 42.1102 35.8737C46.3024 49.6546 57.7375 58.3814 67.6512 55.3656Z" fill="#FFEFE4"/>
<path d="M72.1416 61.1284C72.1416 61.1284 71.6441 53.1328 71.455 51.1774C71.2859 49.3912 70.6888 41.5349 65.778 39.0522C59.5686 35.9176 52.4088 31.8427 45.7914 33.7383C40.4328 35.2758 38.6019 53.8294 38.6616 55.0683C38.771 57.2724 55.3991 69.0295 72.1416 61.1284Z" fill="#68E1FD"/>
<path d="M48.6914 23.1406C48.6914 23.1406 47.3778 22.0659 46.6116 19.5731C45.8454 17.0804 47.1092 13.4682 49.8208 13.1349C52.5324 12.8015 53.3584 14.2195 53.3584 14.2195C53.3584 14.2195 63.4188 12.4383 64.9712 20.3294C65.2548 22.5385 66.4638 30.5541 59.926 32.3104C53.3882 34.0667 55.7367 24.7825 55.7367 24.7825" fill="#4B1B13"/>
<path d="M48.4226 21.3991C48.4226 21.3991 48.4475 26.5935 48.4226 28.524C48.3928 30.559 49.2535 36.0519 52.5971 35.8778C55.9406 35.7036 59.3687 31.8128 59.3687 30.9023C59.3687 30.9023 62.747 28.7977 60.8613 27.1806C58.9756 25.5636 58.8015 28.3001 58.8015 28.3001C58.8015 28.3001 57.7666 26.8075 57.6969 22.7524C54.54 23.1457 51.3355 22.6781 48.4226 21.3991V21.3991Z" fill="#FFAC73"/>
<path d="M59.214 36.3057C57.5074 37.8779 54.7361 38.1715 52.1687 37.7983C51.976 37.785 51.7939 37.7053 51.6533 37.5729C51.5127 37.4405 51.4223 37.2635 51.3975 37.0719C51.3577 36.2858 51.3079 35.4997 51.2383 34.7135L60.0598 30.3998L59.3782 36.0221C59.3782 36.0221 59.3235 36.1365 59.214 36.3057Z" fill="#FFAC73"/>
<path d="M53.1691 37.9078C52.8257 37.883 52.4824 37.8481 52.1441 37.7984C51.9592 37.7865 51.784 37.7112 51.648 37.5852C51.5121 37.4593 51.4237 37.2903 51.3978 37.1068C51.3978 36.6988 51.358 36.2908 51.3281 35.8778C53.1939 35.8778 56.5176 35.44 58.2938 31.9771C58.0651 33.3403 57.4661 34.6145 56.5623 35.6604C55.6585 36.7063 54.4847 37.4838 53.1691 37.9078V37.9078Z" fill="#E5894A"/>
<path d="M60.0595 34.4996C59.348 34.9971 58.6117 35.425 57.8703 35.8579C56.8313 36.5022 55.7294 37.0391 54.5815 37.46C53.6262 37.7834 51.9594 38.2561 51.3922 37.057C51.3412 36.8419 51.3294 36.6194 51.3574 36.4002C51.3722 36.1328 51.3622 35.8647 51.3276 35.5992V35.5992C50.8748 35.4318 50.4782 35.1404 50.1832 34.7583C50.1606 34.7291 50.1453 34.695 50.1384 34.6588V34.6588C50.1384 34.6588 47.8198 41.2911 48.193 41.5847C48.5662 41.8782 51.3375 40.2761 51.3375 40.2761C51.3375 40.2761 52.5316 42.7191 53.0043 42.9629C53.477 43.2067 59.5769 37.8431 60.3929 36.3156L60.0595 34.4996Z" fill="#D4DEE8"/>
<path d="M48.9798 41.311C48.8405 41.3657 48.532 42.7738 48.9798 44.1122C48.9798 44.1122 50.1192 44.6098 50.3332 44.5451C50.5471 44.4804 52.4129 42.3658 52.3234 42.2464C52.2338 42.127 51.179 40.1816 51.179 40.1816L48.9798 41.311Z" fill="#F47A63"/>
<path d="M48.9829 44.1122C48.9829 44.1122 44.903 59.999 45.1816 60.1333C45.4602 60.2677 48.9978 62.0937 50.2516 62.1782L50.3362 44.5451" fill="#F47A63"/>
<path d="M49.5053 29.2803C50.4725 29.2803 51.2566 28.2155 51.2566 26.902C51.2566 25.5885 50.4725 24.5237 49.5053 24.5237C48.538 24.5237 47.7539 25.5885 47.7539 26.902C47.7539 28.2155 48.538 29.2803 49.5053 29.2803Z" stroke="#42210B" stroke-width="0.76125" stroke-miterlimit="10"/>
<path d="M54.4248 30.4098C55.4965 30.4098 56.3653 29.345 56.3653 28.0315C56.3653 26.718 55.4965 25.6532 54.4248 25.6532C53.3531 25.6532 52.4844 26.718 52.4844 28.0315C52.4844 29.345 53.3531 30.4098 54.4248 30.4098Z" stroke="#42210B" stroke-width="0.76125" stroke-miterlimit="10"/>
<path d="M51.2539 27.4742L52.4828 27.6483" stroke="#42210B" stroke-width="0.76125" stroke-miterlimit="10"/>
<path d="M56.3633 28.0315L59.1098 27.3448" stroke="#42210B" stroke-width="0.76125" stroke-miterlimit="10"/>
<path d="M86.2762 75.5499C96.19 72.5341 100.828 58.9177 96.636 45.1368C92.4437 31.3559 81.0086 22.6291 71.0949 25.6449C61.1812 28.6607 56.543 42.2771 60.7352 56.058C64.9274 69.8389 76.3625 78.5657 86.2762 75.5499Z" fill="#E4FAFF"/>
<path d="M90.9558 81.0652C90.9558 81.0652 90.4583 73.3035 90.2891 71.3779C90.1249 69.6415 89.5478 62.0141 84.7763 59.601C78.746 56.556 71.7902 52.6004 65.3719 54.4414C60.1675 55.934 58.4062 73.9553 58.446 75.1593C58.5455 77.3187 74.6959 88.7325 90.9558 81.0652Z" fill="#2B415D"/>
<path d="M80.5938 57.5063C80.5938 57.5063 81.7133 64.263 75.3447 64.7954C70.8916 65.1685 71.8618 61.5563 71.8618 61.5563C71.8618 61.5563 69.6826 63.3226 67.3839 61.9593C65.0852 60.596 68.8765 55.2076 70.5931 54.8494C72.3096 54.4911 76.4542 54.5906 80.5938 57.5063Z" fill="#68E1FD"/>
<path d="M81.9833 45.5352C84.7615 45.5352 87.0136 43.2831 87.0136 40.505C87.0136 37.7269 84.7615 35.4748 81.9833 35.4748C79.2052 35.4748 76.9531 37.7269 76.9531 40.505C76.9531 43.2831 79.2052 45.5352 81.9833 45.5352Z" fill="#4B1B13"/>
<path d="M67.6576 44.7043C66.8586 43.7002 66.3987 42.4686 66.344 41.1866C66.2711 40.5692 66.2997 39.944 66.4286 39.3358C66.6223 38.703 67.0515 38.1686 67.6277 37.8431C68.0574 37.5614 68.4502 37.2272 68.7969 36.848C68.7969 36.848 81.9472 34.2956 83.4547 41.9529C83.7334 44.0973 83.5692 50.5704 77.6881 53.2821C71.7176 56.0335 74.4889 46.2766 74.4889 46.2766" fill="#4B1B13"/>
<path d="M70.8398 55.6006L78.6862 51.7645L78.0244 57.2376C78.0244 57.2376 77.9697 57.3421 77.8652 57.5063C76.4422 58.8198 74.253 59.2079 72.0787 59.0686C71.8459 59.0511 71.6266 58.9523 71.4593 58.7895C71.2919 58.6267 71.1871 58.4102 71.1633 58.1779C71.0836 57.3023 70.9891 56.4465 70.8398 55.6006Z" fill="#FFAC73"/>
<path d="M67.4062 43.2465C67.4062 43.2465 66.9435 40.6841 69.8293 40.2612C70.6005 40.1418 71.3219 40.1368 71.8194 40.8583C72.3966 41.7439 72.4762 42.7987 73.3121 43.55C73.7257 43.9106 74.2319 44.1484 74.7735 44.2363C75.3152 44.3242 75.8706 44.2589 76.377 44.0476C76.377 44.8984 76.2725 45.5402 75.2326 45.8139C74.1928 46.0875 68.2172 44.9183 67.4062 43.2465Z" fill="#FFAC73"/>
<path d="M77.7935 40.8184C74.6589 39.7039 71.6786 39.0472 68.34 39.495C68.1952 39.5025 68.0587 39.5648 67.958 39.6691C67.8573 39.7735 67.8 39.9122 67.7977 40.0572C67.5539 38.7287 67.2305 35.3703 69.9372 34.3503C73.3404 33.0716 79.0174 34.6886 80.5897 37.7536C81.3736 39.2626 81.7492 40.9504 81.6793 42.6494C80.5798 41.7688 79.1667 41.306 77.7935 40.8184Z" fill="#4B1B13"/>
<path d="M71.0469 57.0087L71.1713 58.1581C71.1713 58.1581 76.3955 58.0088 77.1419 53.7647L71.0469 57.0087Z" fill="#E28E54"/>
<path d="M67.387 43.0127C67.387 43.0127 67.4118 48.0578 67.387 49.9286C67.3621 51.9188 69.3373 57.0734 71.442 57.0685C74.7158 57.0685 78.0196 53.1179 78.0196 52.2522C78.0196 52.2522 81.3034 50.2073 79.4475 48.635C77.5917 47.0627 77.4573 49.7246 77.4573 49.7246C77.4573 49.7246 76.4622 48.2618 76.3826 44.3362C73.3196 44.7131 70.2116 44.2559 67.387 43.0127V43.0127Z" fill="#FFAC73"/>
<path d="M62.7233 79.08C62.4206 78.8938 62.1282 78.6912 61.8477 78.473C61.9787 74.5409 62.5055 70.632 63.4199 66.8054C63.5791 66.1387 64.609 66.4223 64.4498 67.089C63.5031 71.0491 62.9811 75.0988 62.8925 79.1695L62.7233 79.08Z" fill="#17283A"/>
<path d="M82.7443 83.4882C82.5926 83.4907 82.4413 83.504 82.2915 83.528L81.8984 70.0644C81.8984 69.9232 81.9545 69.7878 82.0544 69.6879C82.1542 69.5881 82.2896 69.532 82.4308 69.532C82.572 69.532 82.7074 69.5881 82.8073 69.6879C82.9071 69.7878 82.9632 69.9232 82.9632 70.0644L83.3513 83.4435C83.1481 83.4418 82.945 83.4567 82.7443 83.4882Z" fill="#17283A"/>
<path d="M78.8556 53.4562C77.6749 52.3228 76.8722 50.853 76.5569 49.247C76.1539 46.7343 79.5124 47.8688 80.0398 48.9534C80.5672 50.0381 80.4079 52.8741 78.8556 53.4562Z" fill="#4B1B13"/>
<path d="M108.745 102.909C118.659 99.8927 123.297 86.2763 119.105 72.4954C114.912 58.7146 103.477 49.9877 93.5637 53.0035C83.6499 56.0193 79.0117 69.6357 83.2039 83.4166C87.3962 97.1975 98.8313 105.924 108.745 102.909Z" fill="#FFEFE4"/>
<path style="mix-blend-mode:multiply" opacity="0.63" d="M80.4609 107.659L106.667 123.028L121.857 113.799L100.408 101.276" fill="url(#paint2_linear_1_52)"/>
<path d="M110.478 110.44C110.478 110.44 109.98 102.445 109.791 100.49C109.622 98.7033 109.025 90.847 104.114 88.3642C97.9045 85.2297 90.7448 81.1547 84.1274 83.0504C78.7688 84.5878 76.9378 103.141 76.9975 104.38C77.107 106.584 93.735 118.337 110.478 110.44Z" fill="#2B415D"/>
<path d="M97.7741 89.2997C97.7741 89.7226 97.2766 90.3594 97.0925 90.7127C95.5004 93.7478 94.1072 96.952 92.5797 100.052C91.0523 103.151 90.8184 111.59 90.6393 112.147C90.6393 112.202 84.5443 109.933 84.4946 109.968C84.4448 110.003 83.997 105.565 83.997 105.296C83.9274 100.44 83.5691 97.962 84.4597 94.2254C85.0916 91.5735 86.2459 89.7773 86.8579 87.1254C87.1465 85.8616 87.3555 84.3441 87.9824 83.1947C88.6839 81.9111 97.7741 86.4587 97.7741 89.2997Z" fill="#68E1FD"/>
<path d="M100.513 113.092C100.349 113.092 100.185 113.092 100.016 113.117C100.062 109.777 100.07 106.435 100.041 103.092C100.041 102.946 100.098 102.806 100.202 102.703C100.305 102.6 100.444 102.542 100.59 102.542C100.736 102.542 100.876 102.6 100.979 102.703C101.082 102.806 101.14 102.946 101.14 103.092C101.17 106.409 101.162 109.726 101.115 113.043L100.513 113.092Z" fill="#17283A"/>
<path d="M82.3897 108.903C82.3532 108.881 82.3149 108.863 82.2752 108.848L81.9767 108.684L81.6284 108.49L81.3398 108.331C81.3398 104.35 81.4576 100.383 81.6931 96.4295C81.7329 95.728 82.8325 95.723 82.7927 96.4295C82.5638 100.516 82.4444 104.604 82.4345 108.694C82.4334 108.766 82.4182 108.837 82.3897 108.903V108.903Z" fill="#17283A"/>
<path d="M87.9989 83.1997C87.9989 83.1997 86.8097 91.3247 87.5013 92.1556L90.2826 89.9763L91.9394 93.4592L98.8603 87.4488L87.9989 83.1997Z" fill="#2B415D"/>
<path d="M86.7586 70.7112C86.7586 70.7112 86.7834 75.9056 86.7586 77.8361C86.7287 79.8711 87.5895 85.364 90.933 85.1899C94.2765 85.0157 97.7046 81.1249 97.7046 80.2144C97.7046 80.2144 101.083 78.1097 99.1973 76.4927C97.3116 74.8757 97.1374 77.6122 97.1374 77.6122C97.1374 77.6122 96.1025 76.1195 96.0329 72.0645C92.876 72.4578 89.6714 71.9902 86.7586 70.7112Z" fill="#FFAC73"/>
<path d="M97.5499 85.6178C95.8433 87.19 93.072 87.4836 90.5046 87.1104C90.312 87.0971 90.1298 87.0174 89.9893 86.885C89.8487 86.7526 89.7583 86.5755 89.7334 86.384C89.6936 85.5979 89.6439 84.8117 89.5742 84.0256L98.3958 79.7118L97.7141 85.3342C97.7141 85.3342 97.6544 85.4486 97.5499 85.6178Z" fill="#FFAC73"/>
<path d="M91.4805 87.2199C91.1372 87.195 90.7939 87.1602 90.4555 87.1105C90.27 87.097 90.0948 87.0198 89.9597 86.892C89.8246 86.7641 89.7378 86.5934 89.7142 86.4089C89.7142 86.0009 89.6744 85.5929 89.6445 85.18C91.5103 85.18 94.834 84.7421 96.6102 81.2792C96.3827 82.6448 95.7837 83.9215 94.8789 84.9693C93.9741 86.0172 92.7984 86.7958 91.4805 87.2199V87.2199Z" fill="#E5894A"/>
<path d="M109.039 85.1899C105.919 81.7419 104.412 74.8856 104.412 74.8856H104.372C103.491 67.3478 98.1127 65.064 93.4258 64.8003C88.7389 64.5366 85.1615 66.293 84.9078 69.4773C84.654 72.6616 86.7786 73.9552 86.7786 73.9552C86.7786 73.9552 94.7393 76.2639 95.2667 75.2787C95.7941 74.2936 95.8936 69.746 96.3613 75.7066C96.5156 77.6968 96.4758 79.6522 96.4608 81.6225C96.4545 84.0448 96.6543 86.4633 97.0579 88.8518C97.3465 90.6231 97.6102 92.6034 99.3367 93.5686C100.719 94.3031 102.265 94.6767 103.831 94.655C105.396 94.6333 106.931 94.2168 108.293 93.4442C109.208 97.8615 109.861 102.329 110.248 106.823C110.248 106.823 115.721 106.48 116.358 98.3102C116.995 90.1405 112.163 88.6379 109.039 85.1899Z" fill="#4B1B13"/>
<path d="M99.4067 47.1734C103.483 46.4577 106.085 41.8799 105.219 36.9487C104.353 32.0175 100.347 28.6002 96.2708 29.316C92.1948 30.0318 89.5926 34.6095 90.4586 39.5407C91.3245 44.4719 95.3307 47.8892 99.4067 47.1734Z" fill="#68E1FD"/>
<path d="M92.5665 39.2711L95.6265 42.8783C95.767 43.0169 95.9565 43.0946 96.1539 43.0946C96.3512 43.0946 96.5407 43.0169 96.6813 42.8783L103.1 35.6639C103.736 34.9474 102.687 33.8876 102.045 34.6091L95.6265 41.8235H96.6813L93.6213 38.2163C92.9994 37.4849 91.9496 38.5447 92.5665 39.2711Z" fill="#F2F2F2"/>
<path d="M121.238 80.7287C125.119 79.7323 127.255 74.9934 126.01 70.1441C124.765 65.2947 120.61 62.1713 116.729 63.1676C112.849 64.164 110.712 68.9029 111.958 73.7522C113.203 78.6016 117.358 81.725 121.238 80.7287Z" fill="#EA6D2F"/>
<path d="M118.148 67.2781V75.6867C118.148 75.8846 118.227 76.0745 118.367 76.2144C118.507 76.3544 118.697 76.433 118.895 76.433C119.093 76.433 119.283 76.3544 119.422 76.2144C119.562 76.0745 119.641 75.8846 119.641 75.6867V67.2781C119.641 67.0802 119.562 66.8904 119.422 66.7504C119.283 66.6104 119.093 66.5318 118.895 66.5318C118.697 66.5318 118.507 66.6104 118.367 66.7504C118.227 66.8904 118.148 67.0802 118.148 67.2781Z" fill="#F2F2F2"/>
<path d="M115.198 70.3679L121.831 74.1741C122.001 74.2654 122.2 74.2869 122.386 74.2343C122.572 74.1817 122.73 74.059 122.828 73.8921C122.925 73.7251 122.954 73.5269 122.908 73.3392C122.862 73.1514 122.745 72.9888 122.582 72.8855L115.935 69.0792C115.764 68.988 115.565 68.9664 115.379 69.019C115.193 69.0716 115.035 69.1943 114.938 69.3613C114.84 69.5282 114.811 69.7264 114.857 69.9142C114.903 70.1019 115.02 70.2646 115.183 70.3679H115.198Z" fill="#F2F2F2"/>
<path d="M74.3598 20.8397C78.4357 20.1239 81.038 15.5462 80.172 10.615C79.3061 5.68376 75.2999 2.26648 71.2239 2.98225C67.148 3.69802 64.5457 8.27578 65.4117 13.207C66.2776 18.1382 70.2839 21.5555 74.3598 20.8397Z" fill="#F78546"/>
<path d="M72.9345 15.4899C74.5812 15.2612 75.6975 13.5025 75.4278 11.5619C75.1582 9.62131 73.6048 8.23361 71.9581 8.4624C70.3114 8.69118 69.1951 10.4498 69.4648 12.3904C69.7344 14.331 71.2878 15.7187 72.9345 15.4899Z" fill="white"/>
<defs>
<linearGradient id="paint0_linear_1_52" x1="75.2804" y1="71.7412" x2="59.6971" y2="58.2825" gradientUnits="userSpaceOnUse">
<stop stop-color="white" stop-opacity="0"/>
<stop offset="0.99" stop-color="#808080"/>
</linearGradient>
<linearGradient id="paint1_linear_1_52" x1="117908" y1="4317.25" x2="118520" y2="3312.1" gradientUnits="userSpaceOnUse">
<stop stop-color="white" stop-opacity="0"/>
<stop offset="0.99" stop-color="#808080"/>
</linearGradient>
<linearGradient id="paint2_linear_1_52" x1="116426" y1="5599.09" x2="117037" y2="4593.93" gradientUnits="userSpaceOnUse">
<stop stop-color="white" stop-opacity="0"/>
<stop offset="0.99" stop-color="#808080"/>
</linearGradient>
</defs>
</svg>
