<svg width="24" height="24" viewBox="0 0 24 24" fill="none" xmlns="http://www.w3.org/2000/svg">
<circle cx="12" cy="12" r="12" fill="white" fill-opacity="0.9"/>
<path d="M6.33 12.5C6.33 11.303 7.303 10.33 8.5 10.33H11.3V9H8.5C6.568 9 5 10.568 5 12.5C5 14.432 6.568 16 8.5 16H11.3V14.67H8.5C7.303 14.67 6.33 13.697 6.33 12.5ZM9.2 13.2H14.8V11.8H9.2V13.2ZM15.5 9H12.7V10.33H15.5C16.697 10.33 17.67 11.303 17.67 12.5C17.67 13.697 16.697 14.67 15.5 14.67H12.7V16H15.5C17.432 16 19 14.432 19 12.5C19 10.568 17.432 9 15.5 9Z" fill="black"/>
</svg>
