<svg width="15" height="15" viewBox="0 0 15 15" fill="none" xmlns="http://www.w3.org/2000/svg">
<path d="M7.74591 14.4918C6.74356 14.4918 5.80159 14.3016 4.92 13.9212C4.03842 13.5408 3.27156 13.0245 2.61943 12.3724C1.9673 11.7203 1.45103 10.9534 1.07062 10.0718C0.690205 9.19023 0.5 8.24826 0.5 7.24591C0.5 6.24356 0.690205 5.30159 1.07062 4.42C1.45103 3.53842 1.9673 2.77156 2.61943 2.11943C3.27156 1.4673 4.03842 0.951026 4.92 0.570615C5.80159 0.190205 6.74356 0 7.74591 0C8.74826 0 9.69023 0.190205 10.5718 0.570615C11.4534 0.951026 12.2203 1.4673 12.8724 2.11943C13.5245 2.77156 14.0408 3.53842 14.4212 4.42C14.8016 5.30159 14.9918 6.24356 14.9918 7.24591V8.29657C14.9918 9.00908 14.7473 9.61593 14.2582 10.1171C13.7691 10.6183 13.1683 10.8689 12.4558 10.8689C12.0331 10.8689 11.6345 10.7783 11.2602 10.5971C10.8858 10.416 10.5718 10.1563 10.3182 9.81821C9.96799 10.1684 9.57248 10.4311 9.13169 10.6062C8.6909 10.7813 8.22897 10.8689 7.74591 10.8689C6.74356 10.8689 5.88915 10.5156 5.18267 9.80915C4.47619 9.10267 4.12295 8.24826 4.12295 7.24591C4.12295 6.24356 4.47619 5.38915 5.18267 4.68267C5.88915 3.97619 6.74356 3.62295 7.74591 3.62295C8.74826 3.62295 9.60267 3.97619 10.3091 4.68267C11.0156 5.38915 11.3689 6.24356 11.3689 7.24591V8.29657C11.3689 8.61056 11.4715 8.87624 11.6768 9.09362C11.8821 9.31099 12.1418 9.41968 12.4558 9.41968C12.7697 9.41968 13.0294 9.31099 13.2347 9.09362C13.44 8.87624 13.5426 8.61056 13.5426 8.29657V7.24591C13.5426 5.62766 12.9811 4.25697 11.858 3.13386C10.7348 2.01074 9.36416 1.44918 7.74591 1.44918C6.12766 1.44918 4.75697 2.01074 3.63386 3.13386C2.51074 4.25697 1.94918 5.62766 1.94918 7.24591C1.94918 8.86416 2.51074 10.2348 3.63386 11.358C4.75697 12.4811 6.12766 13.0426 7.74591 13.0426H11.3689V14.4918H7.74591ZM7.74591 9.41968C8.34974 9.41968 8.86299 9.20834 9.28567 8.78567C9.70834 8.36299 9.91968 7.84974 9.91968 7.24591C9.91968 6.64208 9.70834 6.12883 9.28567 5.70615C8.86299 5.28348 8.34974 5.07214 7.74591 5.07214C7.14208 5.07214 6.62883 5.28348 6.20615 5.70615C5.78348 6.12883 5.57214 6.64208 5.57214 7.24591C5.57214 7.84974 5.78348 8.36299 6.20615 8.78567C6.62883 9.20834 7.14208 9.41968 7.74591 9.41968Z" fill="#0284C7"/>
</svg>
