<svg width="14" height="15" viewBox="0 0 14 15" fill="none" xmlns="http://www.w3.org/2000/svg">
<g clipPath="url(#clip0_1_18)">
<path d="M7 14.3658C8.38447 14.3658 9.73785 13.9553 10.889 13.1861C12.0401 12.417 12.9373 11.3237 13.4672 10.0446C13.997 8.76555 14.1356 7.35808 13.8655 6.00022C13.5954 4.64235 12.9287 3.39507 11.9497 2.4161C10.9708 1.43713 9.7235 0.770447 8.36563 0.500351C7.00776 0.230254 5.6003 0.368878 4.32122 0.898691C3.04213 1.4285 1.94888 2.32571 1.17971 3.47686C0.410543 4.628 0 5.98138 0 7.36585C0.00185317 9.2218 0.739946 11.0012 2.0523 12.3135C3.36465 13.6259 5.14405 14.364 7 14.3658ZM7 1.53285C8.54701 1.53285 10.0307 2.14739 11.1246 3.24129C12.2185 4.33519 12.833 5.81884 12.833 7.36585C12.833 8.91286 12.2185 10.3965 11.1246 11.4904C10.0307 12.5843 8.54701 13.1988 7 13.1988C5.45299 13.1988 3.96935 12.5843 2.87545 11.4904C1.78155 10.3965 1.167 8.91286 1.167 7.36585C1.167 5.81884 1.78155 4.33519 2.87545 3.24129C3.96935 2.14739 5.45299 1.53285 7 1.53285Z" fill="white"/>
<path d="M5.772 8.62586C6.06475 8.91147 6.44828 9.08554 6.856 9.11781C7.26372 9.15009 7.66986 9.03854 8.0039 8.80254C8.33793 8.56654 8.57876 8.221 8.68455 7.82592C8.79034 7.43085 8.75441 7.0112 8.583 6.63986L10.31 4.91286C10.3642 4.85868 10.4071 4.79438 10.4365 4.7236C10.4658 4.65282 10.4809 4.57696 10.4809 4.50036C10.4809 4.42375 10.4658 4.34789 10.4365 4.27711C10.4071 4.20634 10.3642 4.14203 10.31 4.08786C10.2558 4.03369 10.1915 3.99071 10.1207 3.9614C10.05 3.93208 9.97411 3.91699 9.8975 3.91699C9.8209 3.91699 9.74504 3.93208 9.67426 3.9614C9.60348 3.99071 9.53917 4.03369 9.485 4.08786L7.759 5.81586C7.38777 5.64449 6.96825 5.60852 6.57326 5.71419C6.17827 5.81987 5.83275 6.06051 5.59668 6.39436C5.36061 6.72821 5.2489 7.13418 5.28092 7.5418C5.31295 7.94943 5.48669 8.33297 5.772 8.62586ZM7.422 6.97586C7.53141 7.08526 7.59287 7.23364 7.59287 7.38836C7.59287 7.54307 7.53141 7.69145 7.422 7.80086C7.3126 7.91026 7.16422 7.97172 7.0095 7.97172C6.85479 7.97172 6.70641 7.91026 6.597 7.80086C6.4876 7.69145 6.42614 7.54307 6.42614 7.38836C6.42614 7.23364 6.4876 7.08526 6.597 6.97586C6.70641 6.86645 6.85479 6.80499 7.0095 6.80499C7.16422 6.80499 7.3126 6.86645 7.422 6.97586Z" fill="white"/>
</g>
<defs>
<clipPath id="clip0_1_18">
<rect width="14" height="15" fill="white"/>
</clipPath>
</defs>
</svg>
