<svg width="88" height="66" viewBox="0 0 88 66" fill="none" xmlns="http://www.w3.org/2000/svg">
<g clipPath="url(#clip0_4386_106106)">
<path opacity="0.18" d="M6.01009 56.209C-1.22346 50.9357 0.571563 38.3422 1.04242 34.2858C1.30355 32.0527 1.84844 29.8196 2.9711 27.9073C6.20543 22.3939 13.0935 21.0011 18.1846 17.3896C23.8493 13.3933 27.4558 6.49944 33.5523 3.29157C36.9079 1.52621 40.7303 1.04813 44.4746 0.837035C51.2722 0.45209 58.7114 1.09987 63.7634 5.9303C67.4171 9.42377 69.2389 14.5791 72.4856 18.4969C75.3477 21.9531 79.2133 24.3228 82.2091 27.6507C86.6586 32.5887 88.9327 40.1448 86.527 46.4736C84.292 52.3368 80.8706 56.1842 79.0961 56.7636C73.4006 58.6263 60.9526 58.8519 54.9959 59.2782C48.6116 59.7335 42.8646 58.736 36.4679 58.7567C26.5984 58.7898 13.1326 59.3382 6.01832 56.2007" fill="#D1D5DB"/>
<path d="M68.3297 38.5C68.3297 38.5 69.255 40.8448 64.3963 42.2977C59.5376 43.7505 56.8708 49.4978 56.9756 54.3324V57.4492C56.9756 57.4492 72.0843 63.0371 84.8962 57.8797C84.8962 57.8797 86.1298 44.8226 77.3706 41.7596C77.3706 41.7596 75.555 41.2215 76.0876 39.0691C76.0876 39.0691 80.2534 36.7036 79.5049 30.47C78.7565 24.2363 76.3775 22.3013 73.9183 22.1605C63.9871 21.5914 63.9522 34.7023 68.3297 38.5Z" fill="#FFCEB3"/>
<path d="M86.097 57.7728C86.097 57.7728 86.2821 48.6666 84.779 45.5746C83.5104 42.9607 80.237 42.2902 77.4735 41.4354C77.32 41.3778 77.1557 41.3552 76.9924 41.3692C76.7904 41.4214 76.6041 41.5223 76.4496 41.6631C74.9472 42.8011 73.0816 43.3433 71.2078 43.1865C69.334 43.0296 67.583 42.1847 66.288 40.8125C62.9735 41.8287 60.3807 41.808 58.6412 44.8254C56.9017 47.8429 56.0402 53.735 56.3671 57.2078C56.3589 57.2099 71.2927 63.3007 86.097 57.7728Z" fill="#F87171"/>
<path d="M59.8672 44.9101C59.8672 44.9101 62.3757 42.321 63.3853 42.3086C64.3948 42.2962 70.5818 59.9602 70.5818 59.9602L61.3476 59.5173L59.8672 44.9101Z" fill="url(#paint0_linear_4386_106106)"/>
<path d="M65.2784 23.1249C65.8562 21.1919 67.2914 19.3997 69.2468 18.9506C69.8308 18.816 70.4332 18.8057 71.0213 18.6919C71.3791 18.6215 71.7286 18.516 72.0823 18.427C73.5322 18.042 75.0583 18.0563 76.5009 18.4684C77.9492 18.891 79.1907 19.8384 79.9861 21.1278C80.7099 22.3695 80.9134 23.8514 80.8086 25.2835C80.7037 26.7157 79.8792 29.253 79.4906 30.6334C78.7997 29.7228 79.2603 27.1399 78.2939 26.5315C77.6071 26.0989 76.723 26.2956 75.9232 26.4321C74.0682 26.753 72.1672 26.6825 70.3407 26.2252C69.4751 26.0058 68.5868 25.6995 67.7129 25.8775C66.9542 26.0306 66.6849 26.6163 66.2736 27.2662C65.9817 27.7153 65.8069 29.9567 65.5581 30.3933C64.9782 30.1864 64.8652 26.635 64.8713 26.1238C64.8667 25.1099 65.0038 24.1004 65.2784 23.1249Z" fill="#404040"/>
<path d="M80.0297 30.0382C80.1217 29.9501 80.2306 29.8817 80.3497 29.8372C80.4689 29.7928 80.5957 29.7731 80.7226 29.7795C80.8195 29.8006 80.9105 29.8434 80.9888 29.9046C81.0671 29.9659 81.1307 30.0441 81.175 30.1334C81.2624 30.3127 81.3101 30.509 81.3148 30.7087C81.3619 31.507 81.1028 32.293 80.591 32.9046C80.3093 33.2357 79.8899 33.5255 79.4683 33.4241C79.3839 33.409 79.3063 33.3677 79.2463 33.3061C79.2002 33.2481 79.1666 33.1812 79.1476 33.1095C78.9836 32.4833 78.9723 31.8266 79.1147 31.1951C79.162 30.9198 79.1887 30.6508 79.419 30.4728C79.6102 30.3238 79.8323 30.1872 80.0297 30.0382Z" fill="#F7AF87"/>
<path d="M44.9833 40.5101C45.3081 40.4563 45.6618 40.3839 45.8736 40.1314C46.0283 39.907 46.1161 39.6427 46.1265 39.3698C46.5233 36.3668 47.6275 27.5193 44.6872 22.4488C44.276 21.7244 43.215 21.5568 42.6434 21.0001C41.3028 19.6755 39.5859 18.0695 37.2131 18.0861C31.5257 18.1254 28.937 20.9587 26.6074 26.1823C25.1928 29.3509 24.7569 38.9476 25.9289 39.8768C27.1626 40.8557 30.4113 40.7771 31.9411 40.9302C36.2881 41.3617 40.6725 41.2205 44.9833 40.5101Z" fill="#302E2E"/>
<path d="M42.5669 25.7686C42.6751 25.6193 42.8158 25.4969 42.9781 25.4105C43.4572 25.1746 44.037 25.4519 44.4174 25.8245C44.8974 26.334 45.2313 26.9647 45.3838 27.6498C45.5299 28.3297 45.5988 29.024 45.5894 29.7194C45.6018 30.5735 45.5757 31.4275 45.5113 32.2816C45.4456 33.5379 45.1847 34.776 44.7382 35.951C44.2591 37.112 43.4757 38.1737 42.4024 38.8132C41.6046 35.9406 41.5306 32.9232 41.4627 29.943C41.4504 29.469 41.4401 28.9971 41.4504 28.5253C41.4504 28.339 41.399 27.9789 41.4874 27.8133C41.5758 27.6478 41.7342 27.6809 41.8781 27.5712C42.1063 27.3994 42.0673 27.0807 42.1187 26.8199C42.1981 26.4433 42.3505 26.0861 42.5669 25.7686Z" fill="url(#paint1_linear_4386_106106)"/>
<path d="M14.898 37.4999C14.4477 36.4506 14.5382 35.2523 14.6924 34.1202C14.8302 33.1351 15.0296 32.121 15.6033 31.3118C16.1374 30.6016 16.8719 30.07 17.7108 29.7865C18.5448 29.5079 19.4134 29.3477 20.2913 29.3105C21.5526 29.2235 22.8189 29.2443 24.0767 29.3726C24.9619 29.433 25.8308 29.6429 26.6469 29.9934C27.7573 30.5401 28.6421 31.4614 29.1472 32.597C29.645 33.7318 29.8139 34.9852 29.6345 36.2126C29.594 36.7407 29.4058 37.2466 29.0916 37.6716C28.7237 38.0512 28.2592 38.3218 27.749 38.4539C25.8984 39.05 23.9369 39.0044 22.0205 38.9279C20.4311 38.8658 18.8253 38.9568 17.2605 38.6464C16.3435 38.4664 15.3175 38.4808 14.898 37.4999Z" fill="url(#paint2_linear_4386_106106)"/>
<path d="M48.5491 58.8776C35.729 64.0371 20.6286 58.4472 20.6286 58.4472V55.3428C20.5134 50.4958 23.1864 44.7464 28.0492 43.2977C32.912 41.849 32.5728 40.154 32.5728 40.154C28.1973 36.3584 27.638 22.5935 37.5754 23.1647C40.0428 23.3055 42.4176 25.2343 43.162 31.4762C43.9063 37.7181 39.0497 40.4438 39.0497 40.4438C38.9842 40.7502 39.0075 41.0691 39.1169 41.3626C39.2262 41.6561 39.417 41.9119 39.6665 42.0994C40.069 42.4118 40.5309 42.6379 41.0236 42.7638C49.7725 45.8206 48.5491 58.8776 48.5491 58.8776Z" fill="#F1AC96"/>
<path d="M32.1741 32.2676C34.111 32.2676 36.0685 31.9882 37.843 31.21C39.6174 30.4319 41.1986 29.1177 42.1033 27.3978C42.4086 26.8582 42.5852 26.2546 42.6194 25.6346C42.642 24.4632 41.9039 23.3684 40.9231 22.7371C39.9423 22.1059 38.7559 21.8782 37.5942 21.8286C35.0918 21.723 32.5072 22.4329 30.6032 24.0699C29.8143 24.7442 29.1703 25.5734 28.7107 26.5068C28.251 27.4402 27.9855 28.4582 27.9302 29.4985C27.8377 31.7709 30.3277 32.2655 32.1741 32.2676Z" fill="#302E2E"/>
<path d="M49.7409 58.7728C49.7409 58.7728 48.7643 51.3409 47.2612 48.2427C45.9926 45.6288 43.8788 43.2902 41.1154 42.4375C40.9619 42.3798 40.7975 42.3571 40.6342 42.3713C40.4327 42.4231 40.247 42.524 40.0935 42.6652C38.5911 43.8032 36.7255 44.3454 34.8517 44.1885C32.9779 44.0317 31.2954 43.8726 30.0005 42.5004C26.6885 43.5329 23.819 45.1029 22.0918 48.1289C20.3523 51.1443 19.6923 54.7371 20.011 58.2099C20.011 58.2099 34.9346 64.3007 49.7409 58.7728Z" fill="#FDBA74"/>
<path d="M36.0813 60.7388C36.0813 60.7388 30.3919 61.3741 29.2363 60.7926C29.2363 60.7926 32.1149 45.2189 38.966 42.9775C38.966 42.9775 41.9351 43.4742 44.2606 48.2426C44.9371 49.6271 36.0813 60.7388 36.0813 60.7388Z" fill="url(#paint3_linear_4386_106106)"/>
<path d="M37.0977 62.0021V52.573C37.0977 52.573 39.3409 44.0876 47.1358 43.1149C54.9307 42.1422 63.365 43.4378 63.365 43.4378C63.365 43.4378 71.5896 44.5119 73.0804 54.7212V62.7823C73.0804 62.7823 52.3667 68.8089 37.0977 62.0021Z" fill="#10B981"/>
<path d="M47.4189 32.1669C47.0858 31.96 46.6766 31.8172 46.3107 31.96C46.1591 32.0198 46.0233 32.114 45.9138 32.2352C45.336 32.8561 45.3689 33.8226 45.5519 34.6505C45.6538 35.1151 45.7913 35.5711 45.9632 36.0143C46.0348 36.2198 46.1382 36.4125 46.2695 36.5855C46.6808 37.076 47.4004 37.1422 48.0337 37.0677C48.4079 37.0243 48.8253 36.9104 48.996 36.571C49.0547 36.4406 49.0882 36.3001 49.0947 36.1571C49.2653 34.4828 48.8747 33.0527 47.4189 32.1669Z" fill="#F7AF87"/>
<path d="M63.0992 32.8455C63.566 32.5185 64.1725 32.266 64.6968 32.4936C64.902 32.598 65.0764 32.7545 65.203 32.9476C65.3296 33.1407 65.4039 33.3638 65.4186 33.5947C65.4423 34.0565 65.3621 34.5177 65.1842 34.944C65.0036 35.4916 64.721 35.9994 64.3514 36.4404C63.9762 36.8824 63.4458 37.1612 62.871 37.2185C62.5851 37.2409 62.2988 37.1808 62.0456 37.0452C61.7925 36.9095 61.5831 36.704 61.442 36.4528C61.3024 36.1171 61.2378 35.7546 61.2528 35.3911C61.2272 35.1117 61.2586 34.8299 61.3453 34.5632C61.5715 33.9941 62.6201 33.1807 63.0992 32.8455Z" fill="#F7AF87"/>
<path d="M50.2832 44.0276C50.1006 44.3435 49.9936 44.6978 49.9707 45.0624C49.9843 45.2769 50.0358 45.4871 50.1229 45.6833C50.8754 47.546 52.434 48.4856 53.937 48.9202C54.3881 49.0617 54.8567 49.139 55.329 49.1499C56.7478 49.1499 58.1501 48.1689 59.0034 46.5857C59.0533 46.5046 59.0849 46.4134 59.0959 46.3187C59.0912 46.1956 59.0566 46.0755 58.9952 45.9689C58.4647 44.8182 58.5613 43.3343 58.7011 41.9829C58.7225 41.8712 58.7154 41.7558 58.6806 41.6476C58.6595 41.6065 58.6305 41.5701 58.5952 41.5406C58.5598 41.5111 58.5189 41.4891 58.475 41.4758C57.5559 41.0868 56.5689 41.3289 55.5963 41.2916C54.2598 41.242 52.9645 40.6232 51.6259 40.6211C51.0296 40.6211 50.9844 40.8446 50.9001 41.5959C50.8259 42.4346 50.6176 43.2558 50.2832 44.0276Z" fill="#F7AF87"/>
<path d="M50.3008 40.1553C50.3008 40.1553 51.0718 43.1976 52.9409 45.1906C54.8099 47.1836 59.2348 46.8028 58.7125 45.0229C58.2725 43.5308 59.097 40.1553 59.097 40.1553H50.3008Z" fill="url(#paint4_linear_4386_106106)"/>
<path d="M58.2656 28.9238C58.06 28.7168 57.8194 28.5098 57.5295 28.4912C57.4162 28.4914 57.3044 28.5172 57.2023 28.5666C57.1002 28.6161 57.0103 28.6879 56.9394 28.7768C56.7978 28.9573 56.7038 29.1709 56.6659 29.3977C56.5687 29.9473 56.6118 30.5128 56.7914 31.041C56.997 31.6867 57.365 32.3407 57.9901 32.5869C58.0977 32.6392 58.2168 32.6626 58.336 32.655C58.4553 32.6474 58.5705 32.609 58.6707 32.5435C58.8052 32.4078 58.8888 32.2293 58.9071 32.0385C59.1518 30.8195 59.1909 29.8302 58.2656 28.9238Z" fill="#F7AF87"/>
<path d="M62.6162 34.4188C62.0261 39.4086 59.2708 43.525 55.1421 43.525C51.0133 43.525 47.668 39.45 47.668 34.4188C47.668 29.3876 50.3225 23.7148 54.4533 23.7148C58.5841 23.7148 63.8232 24.2198 62.6162 34.4188Z" fill="#F7AF87"/>
<path d="M46.541 32.7736C46.2669 30.7992 46.0866 28.8138 46.0003 26.8174C45.9632 25.9378 45.9776 24.9547 46.5636 24.3069C46.7181 24.1651 46.856 24.0061 46.9749 23.833C47.0723 23.6109 47.1261 23.372 47.1332 23.1293C47.3553 21.2439 48.7103 19.669 50.2647 18.5949C51.968 17.4209 53.943 16.7081 55.9993 16.5253C56.6605 16.4529 57.3288 16.4815 57.9815 16.6101C58.6376 16.7713 59.2676 17.0257 59.8526 17.3655C60.7819 17.8726 61.6764 18.4852 62.3364 19.3151C62.9964 20.145 63.4015 21.2232 63.2617 22.2767C63.7147 22.4717 64.1217 22.761 64.4558 23.1256C64.79 23.4901 65.0438 23.9216 65.2006 24.3918C65.5036 25.3673 65.6003 26.3959 65.4844 27.4113C65.2788 29.8286 64.3658 32.3101 62.4495 33.7795C62.4803 32.0895 62.108 30.4167 61.3638 28.9014C61.0792 28.385 60.8205 27.8545 60.5887 27.312C60.3704 26.7312 60.2643 26.1137 60.2761 25.4928C59.4742 25.9233 59.0034 26.8049 58.2467 27.3141C57.7628 27.6092 57.2265 27.8067 56.6676 27.8956C54.8691 28.2531 53.0128 28.188 51.2434 27.7052C50.5444 27.5148 49.654 27.3161 49.214 27.8956C48.9406 28.2536 48.9878 28.7504 48.9508 29.2015C48.89 29.6932 48.772 30.1759 48.5992 30.6399L47.5095 33.9512C47.1394 33.6346 46.6109 33.26 46.541 32.7736Z" fill="#404040"/>
<path d="M39.6998 42.1887C36.2434 44.4176 33.8356 40.6385 33.7246 40.4502C34.5364 40.9074 35.451 41.1474 36.3812 41.1474C37.3113 41.1474 38.226 40.9074 39.0377 40.4502C38.9723 40.7566 38.9956 41.0756 39.1049 41.3691C39.2143 41.6626 39.405 41.9183 39.6546 42.1059L39.6998 42.1887Z" fill="url(#paint5_linear_4386_106106)"/>
<path d="M58.234 31.1658C58.0901 30.9774 57.9379 30.7519 58.0078 30.5201C58.0777 30.2883 58.3203 30.1682 58.3224 29.9447C58.3177 29.8812 58.2997 29.8194 58.2696 29.7634C58.2395 29.7074 58.1979 29.6585 58.1476 29.6198C58.0295 29.5102 57.8781 29.4439 57.7179 29.4315C57.6628 29.4273 57.6078 29.4395 57.5596 29.4666C57.5051 29.5063 57.4641 29.5619 57.4424 29.626C57.2018 30.1682 57.282 30.8057 57.4938 31.3603C57.5294 31.4657 57.5845 31.5633 57.6562 31.648C57.7576 31.7412 57.8806 31.8074 58.014 31.8405C58.2196 31.9067 58.4622 31.9088 58.5095 31.6501C58.5445 31.4638 58.3286 31.2982 58.234 31.1658Z" fill="url(#paint6_linear_4386_106106)"/>
<path d="M79.8768 32.2068C80.0207 32.0185 80.1729 31.7929 80.103 31.5611C80.033 31.3293 79.7904 31.2093 79.7863 30.9858C79.7915 30.9221 79.8099 30.8603 79.8404 30.8044C79.8709 30.7484 79.9127 30.6995 79.9631 30.6608C80.0809 30.5506 80.2325 30.4841 80.3929 30.4725C80.4473 30.4683 80.5017 30.4805 80.5491 30.5077C80.6042 30.5472 80.6459 30.6028 80.6684 30.667C80.9069 31.2093 80.8267 31.8467 80.6149 32.4014C80.5831 32.5228 80.5174 32.6326 80.4256 32.7176C80.3338 32.8027 80.2197 32.8596 80.0968 32.8815C79.8912 32.9477 79.6485 32.9498 79.5992 32.6911C79.5663 32.509 79.774 32.3393 79.8768 32.2068Z" fill="url(#paint7_linear_4386_106106)"/>
<path d="M62.6284 35.1371C62.856 35.1635 63.0855 35.1077 63.2761 34.9798C63.3758 34.9325 63.4626 34.8615 63.529 34.7729C63.6976 34.5059 63.5126 34.1354 63.6339 33.8457C63.6937 33.7403 63.777 33.6502 63.8773 33.5827C63.9775 33.5152 64.092 33.472 64.2117 33.4566C64.2958 33.4285 64.3866 33.4285 64.4707 33.4566C64.5335 33.499 64.584 33.5573 64.6172 33.6256C64.6504 33.6939 64.6651 33.7698 64.6599 33.8457C64.7018 34.5016 64.4928 35.1487 64.076 35.6545C63.8673 35.9033 63.6107 36.1067 63.3215 36.2526C63.0324 36.3985 62.7169 36.4837 62.394 36.5031C62.3611 36.5077 62.3275 36.5027 62.2974 36.4886C62.2643 36.4663 62.2409 36.4323 62.2316 36.3934C62.1663 36.2062 62.1509 36.0051 62.187 35.8101C62.2231 35.615 62.3094 35.433 62.4372 35.282" fill="url(#paint8_linear_4386_106106)"/>
<path d="M46.5097 34.2825C46.6043 34.4418 46.7955 34.5039 46.9538 34.597C47.1123 34.693 47.244 34.8278 47.3367 34.9889C47.4295 35.1499 47.4803 35.3319 47.4843 35.518C47.4963 35.6408 47.4688 35.7641 47.4059 35.87C47.343 35.9758 47.2479 36.0585 47.1348 36.1058C46.9065 36.1699 46.6783 36.0064 46.5179 35.8305C46.3108 35.5983 46.1512 35.3272 46.0481 35.0328C45.9451 34.7384 45.9007 34.4265 45.9175 34.1148C45.9299 33.9079 46.0183 33.3863 46.3473 33.494C46.6104 33.5871 46.3822 34.0672 46.5097 34.2825Z" fill="url(#paint9_linear_4386_106106)"/>
<path d="M47.253 27.9555C47.0329 28.2624 46.9026 28.6252 46.8767 29.0027C46.8352 29.5482 46.8545 30.0966 46.9343 30.6377L47.2448 33.4503C47.6313 32.105 48.5443 30.9316 48.7519 29.547C48.8177 29.1062 48.8054 28.6468 48.9452 28.2204C49.0069 28.0342 49.3729 27.5747 49.2372 27.3926C49.1015 27.2105 48.3222 27.3553 48.1186 27.4133C47.7812 27.4994 47.4788 27.6889 47.253 27.9555Z" fill="url(#paint10_linear_4386_106106)"/>
<path d="M62.6064 23.2593C62.6376 23.2414 62.6736 23.2341 62.7092 23.2386C62.7545 23.2489 62.7812 23.2924 62.8059 23.3338C63.2788 24.1471 63.7599 24.977 63.9676 25.898C64.0754 26.4072 64.119 26.928 64.0971 27.4481C64.0442 29.1975 63.5065 30.8971 62.5447 32.3551C62.3515 31.7115 62.372 31.0202 62.2178 30.3642C62.0122 29.4743 61.4961 28.694 61.0458 27.8993C60.6346 27.1749 59.917 25.9518 60.4392 25.1612C60.9581 24.3248 61.7125 23.6627 62.6064 23.2593Z" fill="url(#paint11_linear_4386_106106)"/>
<path d="M68.3298 38.5C68.3298 38.5 69.4997 39.9363 72.0452 40.0129C74.7923 40.0957 76.0877 39.0733 76.0877 39.0733C76.0877 39.0733 74.8766 41.7638 71.852 42.3639C69.9377 42.7489 67.7849 41.921 67.4004 40.9152C67.4004 40.9256 68.6546 39.7521 68.3298 38.5Z" fill="url(#paint12_linear_4386_106106)"/>
<path d="M15.3297 42.5C15.3297 42.5 16.255 44.8448 11.3963 46.2977C6.5376 47.7505 3.87077 53.4978 3.97564 58.3324V61.4492C3.97564 61.4492 19.0843 67.0371 31.8962 61.8797C31.8962 61.8797 33.1298 48.8226 24.3706 45.7596C24.3706 45.7596 22.555 45.2215 23.0876 43.0691C23.0876 43.0691 27.2534 40.7036 26.5049 34.47C25.7565 28.2363 23.3775 26.3013 20.9183 26.1605C10.9871 25.5914 10.9522 38.7023 15.3297 42.5Z" fill="#CF8F6B"/>
<path d="M33.097 61.7728C33.097 61.7728 33.2821 52.6666 31.779 49.5746C30.5104 46.9607 27.237 46.2902 24.4735 45.4354C24.32 45.3778 24.1557 45.3552 23.9924 45.3692C23.7904 45.4214 23.6041 45.5223 23.4496 45.6631C21.9472 46.8011 20.0816 47.3433 18.2078 47.1865C16.334 47.0296 14.583 46.1847 13.288 44.8125C9.97353 45.8287 7.38072 45.808 5.64121 48.8254C3.90171 51.8429 3.04018 57.735 3.36711 61.2078C3.35888 61.2099 18.2927 67.3007 33.097 61.7728Z" fill="#7DD3FC"/>
<path d="M12.2784 27.1249C12.8562 25.1919 14.2914 23.3997 16.2468 22.9506C16.8308 22.816 17.4332 22.8057 18.0213 22.6919C18.3791 22.6215 18.7286 22.516 19.0823 22.427C20.5322 22.042 22.0583 22.0563 23.5009 22.4684C24.9492 22.891 26.1907 23.8384 26.9861 25.1278C27.7099 26.3695 27.9134 27.8514 27.8086 29.2835C27.7037 30.7157 26.8792 33.253 26.4906 34.6334C25.7997 33.7228 26.2603 31.1399 25.2939 30.5315C24.6071 30.0989 23.723 30.2956 22.9232 30.4321C21.0682 30.753 19.1672 30.6825 17.3407 30.2252C16.4751 30.0058 15.5868 29.6995 14.7129 29.8775C13.9542 30.0306 13.6849 30.6163 13.2736 31.2662C12.9817 31.7153 12.8069 33.9567 12.5581 34.3933C11.9782 34.1864 11.8652 30.635 11.8713 30.1238C11.8667 29.1099 12.0038 28.1004 12.2784 27.1249Z" fill="#404040"/>
<path d="M15.3298 42.5C15.3298 42.5 16.4997 43.9363 19.0452 44.0129C21.7923 44.0957 23.0877 43.0733 23.0877 43.0733C23.0877 43.0733 21.8766 45.7638 18.852 46.3639C16.9377 46.7489 14.7849 45.921 14.4004 44.9152C14.4004 44.9256 15.6546 43.7521 15.3298 42.5Z" fill="url(#paint13_linear_4386_106106)"/>
<path d="M50.3563 43.2452C50.3563 43.2452 51.0986 46.8132 53.7366 47.6431C56.3747 48.473 58.6015 45.8177 58.6837 44.0751C58.766 42.3325 59.1793 42.8333 59.1793 42.8333L59.8393 43.2472V49.8037L54.8099 49.0545L49.8628 50.466C49.8628 50.466 48.5428 44.489 49.2851 42.8292" fill="#6EE7B7"/>
</g>
<defs>
<linearGradient id="paint0_linear_4386_106106" x1="51.8441" y1="45.4565" x2="96.8848" y2="68.4717" gradientUnits="userSpaceOnUse">
<stop stop-opacity="0"/>
<stop offset="0.99"/>
</linearGradient>
<linearGradient id="paint1_linear_4386_106106" x1="40.85" y1="33.7634" x2="47.8368" y2="27.7094" gradientUnits="userSpaceOnUse">
<stop stop-opacity="0"/>
<stop offset="0.6" stop-opacity="0.36"/>
<stop offset="0.99"/>
</linearGradient>
<linearGradient id="paint2_linear_4386_106106" x1="1627.8" y1="1764.79" x2="1620.31" y2="2290.86" gradientUnits="userSpaceOnUse">
<stop stop-opacity="0"/>
<stop offset="0.99"/>
</linearGradient>
<linearGradient id="paint3_linear_4386_106106" x1="1290.61" y1="4753.46" x2="3398.03" y2="5657.34" gradientUnits="userSpaceOnUse">
<stop stop-opacity="0"/>
<stop offset="0.99"/>
</linearGradient>
<linearGradient id="paint4_linear_4386_106106" x1="1739.26" y1="1695.23" x2="1963.69" y2="1255.95" gradientUnits="userSpaceOnUse">
<stop stop-opacity="0"/>
<stop offset="0.99"/>
</linearGradient>
<linearGradient id="paint5_linear_4386_106106" x1="664.226" y1="623.876" x2="672.522" y2="529.413" gradientUnits="userSpaceOnUse">
<stop stop-opacity="0"/>
<stop offset="0.99"/>
</linearGradient>
<linearGradient id="paint6_linear_4386_106106" x1="392.508" y1="474.461" x2="414.541" y2="475.007" gradientUnits="userSpaceOnUse">
<stop stop-opacity="0"/>
<stop offset="0.99"/>
</linearGradient>
<linearGradient id="paint7_linear_4386_106106" x1="1896.17" y1="475.996" x2="1874.14" y2="476.543" gradientUnits="userSpaceOnUse">
<stop stop-opacity="0"/>
<stop offset="0.99"/>
</linearGradient>
<linearGradient id="paint8_linear_4386_106106" x1="702.674" y1="667.591" x2="628.77" y2="640.818" gradientUnits="userSpaceOnUse">
<stop stop-opacity="0"/>
<stop offset="0.99"/>
</linearGradient>
<linearGradient id="paint9_linear_4386_106106" x1="302.078" y1="572.621" x2="330.909" y2="563.979" gradientUnits="userSpaceOnUse">
<stop stop-opacity="0"/>
<stop offset="0.99"/>
</linearGradient>
<linearGradient id="paint10_linear_4386_106106" x1="475.02" y1="1217.83" x2="386.517" y2="1067.39" gradientUnits="userSpaceOnUse">
<stop stop-opacity="0"/>
<stop offset="0.6" stop-opacity="0.36"/>
<stop offset="0.99"/>
</linearGradient>
<linearGradient id="paint11_linear_4386_106106" x1="1056.83" y1="1393.19" x2="853.682" y2="1489.12" gradientUnits="userSpaceOnUse">
<stop stop-opacity="0"/>
<stop offset="0.6" stop-opacity="0.36"/>
<stop offset="0.99"/>
</linearGradient>
<linearGradient id="paint12_linear_4386_106106" x1="2836.55" y1="1018.85" x2="2802.02" y2="676.542" gradientUnits="userSpaceOnUse">
<stop stop-opacity="0"/>
<stop offset="0.99"/>
</linearGradient>
<linearGradient id="paint13_linear_4386_106106" x1="2783.55" y1="1022.85" x2="2749.02" y2="680.542" gradientUnits="userSpaceOnUse">
<stop stop-opacity="0"/>
<stop offset="0.99"/>
</linearGradient>
<clipPath id="clip0_4386_106106">
<rect width="87" height="66" fill="white" transform="translate(0.5)"/>
</clipPath>
</defs>
</svg>
