<svg width="452" height="301" viewBox="0 0 452 301" fill="none" xmlns="http://www.w3.org/2000/svg">
<path d="M195.128 45.5505H197.867V264.967H195.128V45.5505Z" fill="#53AED5"/>
<path d="M254.498 63L242.648 74.8036H138.069V49H242.648L254.498 63ZM246.921 80.2987L246.498 106H142.337L129.998 92.5L142.337 80.2987H246.921ZM212.108 265.5H174.578C174.578 263.563 175.717 261.706 177.745 260.337C179.774 258.967 182.524 258.198 185.392 258.198H201.294C204.162 258.198 206.912 258.967 208.941 260.337C210.969 261.706 212.108 263.563 212.108 265.5Z" fill="#53AED5"/>
<path d="M354.817 220.442C354.199 219.815 349.786 215.488 342.973 215.982C336.16 216.477 332.413 221.391 331.891 222.099C332.51 222.726 336.922 227.056 343.736 226.562C350.549 226.068 354.296 221.154 354.817 220.442ZM317.3 198.321C318.16 198.516 324.164 199.986 327.335 206.037C330.506 212.087 328.3 217.862 327.969 218.679C327.113 218.484 321.109 217.014 317.938 210.963C314.767 204.912 316.973 199.138 317.3 198.321ZM364.977 202.021C364.374 201.379 360.059 196.963 353.238 197.286C346.417 197.609 342.537 202.445 342.016 203.146C342.619 203.788 346.934 208.204 353.755 207.881C360.576 207.558 364.44 202.718 364.977 202.021ZM354.833 174.936C353.981 175.15 348.012 176.765 344.985 182.889C341.957 189.014 344.3 194.733 344.646 195.543C345.498 195.325 351.467 193.714 354.494 187.589C357.522 181.465 355.179 175.745 354.833 174.936Z" fill="#7DBCB1"/>
<path d="M338.9 201.433C341.524 200.131 341.364 194.466 338.542 188.779C335.721 183.093 331.306 179.538 328.682 180.84C326.059 182.142 326.219 187.807 329.041 193.494C331.862 199.18 336.276 202.735 338.9 201.433Z" fill="#7DBCB1"/>
<path d="M315.532 246.933L352.089 181.576L352.47 181.788L315.913 247.146L315.532 246.933Z" fill="#864BC5"/>
<path d="M339.957 203.897L331.642 188.741L332.027 188.535L340.199 203.434L356.872 201.543L356.922 201.979L339.957 203.897ZM329.374 222.718L329.315 222.582L322.276 206.749L322.673 206.574L329.65 222.27L350.023 221.282L350.047 221.714L329.374 222.718Z" fill="#864BC5"/>
<path d="M347.218 203.063L347.43 202.683L351.666 205.049L351.454 205.43L347.218 203.063Z" fill="#864BC5"/>
<path d="M345.074 202.87L348.251 200.018L348.542 200.343L345.365 203.194L345.074 202.87Z" fill="#864BC5"/>
<path d="M351.296 202.115L354.472 199.264L354.764 199.588L351.587 202.439L351.296 202.115Z" fill="#864BC5"/>
<path d="M331.806 194.194L332.008 193.808L336.306 196.06L336.104 196.446L331.806 194.194Z" fill="#864BC5"/>
<path d="M337.061 198.104L337.711 193.885L338.142 193.952L337.491 198.17L337.061 198.104Z" fill="#864BC5"/>
<path d="M334.243 192.473L334.893 188.254L335.324 188.321L334.674 192.54L334.243 192.473Z" fill="#864BC5"/>
<path d="M335.182 222.409L335.449 222.064L339.112 224.902L338.845 225.246L335.182 222.409Z" fill="#864BC5"/>
<path d="M343.747 222.022L344.014 221.677L347.677 224.516L347.41 224.86L343.747 222.022Z" fill="#864BC5"/>
<path d="M340.106 221.931L343.181 218.152L343.519 218.428L340.444 222.206L340.106 221.931Z" fill="#864BC5"/>
<path d="M322.717 214.216L322.914 213.827L327.047 215.923L326.85 216.312L322.717 214.216Z" fill="#864BC5"/>
<path d="M319.261 207.181L319.458 206.793L323.591 208.889L323.394 209.277L319.261 207.181Z" fill="#864BC5"/>
<path d="M325.257 212.831L327.359 208.436L327.752 208.624L325.65 213.019L325.257 212.831Z" fill="#864BC5"/>
<path d="M334.837 242.9C341.169 242.442 346.13 239.702 345.919 236.781C345.707 233.86 340.403 231.863 334.072 232.321C327.74 232.779 322.779 235.519 322.99 238.441C323.202 241.362 328.506 243.359 334.837 242.9Z" fill="#7DBCB1"/>
<path d="M319.058 235.038C321.652 233.678 321.366 228.018 318.419 222.396C315.472 216.773 310.98 213.317 308.386 214.677C305.792 216.037 306.077 221.697 309.024 227.32C311.971 232.942 316.463 236.398 319.058 235.038Z" fill="#7DBCB1"/>
<path d="M320.459 239.088L320.396 238.951L313.357 223.119L313.758 222.94L320.735 238.636L341.108 237.652L341.128 238.084L320.459 239.088Z" fill="#864BC5"/>
<path d="M326.274 238.821L326.541 238.477L330.205 241.315L329.938 241.659L326.274 238.821Z" fill="#864BC5"/>
<path d="M334.834 238.391L335.101 238.046L338.764 240.884L338.497 241.229L334.834 238.391Z" fill="#864BC5"/>
<path d="M331.174 238.257L334.248 234.478L334.586 234.753L331.512 238.532L331.174 238.257Z" fill="#864BC5"/>
<path d="M313.802 230.581L313.999 230.193L318.132 232.289L317.935 232.677L313.802 230.581Z" fill="#864BC5"/>
<path d="M310.36 223.578L310.557 223.189L314.691 225.285L314.494 225.674L310.36 223.578Z" fill="#864BC5"/>
<path d="M316.354 229.212L318.457 224.813L318.85 225.001L316.747 229.4L316.354 229.212Z" fill="#864BC5"/>
<path d="M337.167 207.912H337.603V211.512H337.167V207.912Z" fill="#864BC5"/>
<path d="M347.466 189.86L352.563 187.45L352.749 187.844L347.652 190.254L347.466 189.86Z" fill="#864BC5"/>
<path d="M86.8668 236.252C88.9884 233.61 89.7194 230.673 88.4995 229.694C87.2796 228.715 84.5707 230.063 82.449 232.705C80.3274 235.348 79.5964 238.284 80.8163 239.264C82.0362 240.243 84.7451 238.895 86.8668 236.252Z" fill="#7DBCB1"/>
<path d="M66.2139 236.333C67.1772 235.675 68.2719 235.234 69.4223 235.041C70.5727 234.847 71.7514 234.906 72.8769 235.213C74.0024 235.519 75.0479 236.067 75.9411 236.817C76.8343 237.567 77.554 238.503 78.0504 239.558C77.0867 240.215 75.992 240.655 74.8419 240.847C73.6918 241.04 72.5136 240.981 71.3885 240.674C70.2634 240.368 69.2182 239.821 68.3248 239.071C67.4315 238.322 66.7113 237.387 66.2139 236.333ZM84.9804 219.037C83.8139 219.043 82.6626 219.303 81.6064 219.798C80.5502 220.294 79.6141 221.012 78.8629 221.905C78.1117 222.797 77.5634 223.842 77.2558 224.968C76.9483 226.093 76.8888 227.272 77.0816 228.422C78.2479 228.415 79.3988 228.155 80.4547 227.659C81.5106 227.164 82.4464 226.445 83.1974 225.553C83.9485 224.661 84.4968 223.616 84.8047 222.491C85.1125 221.366 85.1725 220.187 84.9804 219.037ZM70.708 213.161C70.1482 214.184 69.8167 215.315 69.7363 216.478C69.6559 217.641 69.8286 218.807 70.2425 219.897C70.6564 220.986 71.3015 221.973 72.1336 222.789C72.9656 223.606 73.9648 224.232 75.0621 224.624C75.624 223.602 75.9572 222.47 76.0387 221.306C76.1201 220.142 75.9479 218.974 75.5338 217.884C75.1198 216.793 74.4739 215.805 73.6407 214.988C72.8075 214.172 71.8069 213.546 70.708 213.154V213.161Z" fill="#7DBCB1"/>
<path d="M75.2755 229.034C75.7201 227.534 73.4465 225.537 70.1973 224.574C66.9481 223.611 63.9537 224.046 63.5091 225.546C63.0645 227.046 65.3381 229.043 68.5873 230.006C71.8365 230.969 74.8309 230.534 75.2755 229.034Z" fill="#7DBCB1"/>
<path d="M72.1895 216.68L72.6041 216.546L84.9087 254.573L84.4941 254.708L72.1895 216.68Z" fill="#864BC5"/>
<path d="M76.6689 229.617L67.6572 227.344L67.7623 226.92L76.4899 229.122L81.7701 221.971L82.1203 222.228L76.6689 229.617ZM80.1747 240.593L71.2837 237.547L71.4277 237.134L80.0308 240.087L87.0035 231.815L87.3343 232.095L80.1747 240.593Z" fill="#864BC5"/>
<path d="M78.8574 226.03L81.323 225.232L81.4572 225.647L78.9916 226.445L78.8574 226.03Z" fill="#864BC5"/>
<path d="M77.9834 227.129L78.0235 224.853L78.4592 224.86L78.4191 227.136L77.9834 227.129Z" fill="#864BC5"/>
<path d="M79.957 224.432L79.9972 222.156L80.4329 222.163L80.3928 224.439L79.957 224.432Z" fill="#864BC5"/>
<path d="M69.7715 228.853L72.2152 227.99L72.3602 228.401L69.9165 229.264L69.7715 228.853Z" fill="#864BC5"/>
<path d="M71.8135 226.797L72.1553 226.526L73.5673 228.312L73.2255 228.582L71.8135 226.797Z" fill="#864BC5"/>
<path d="M68.5889 225.875L68.9307 225.605L70.3427 227.39L70.0009 227.661L68.5889 225.875Z" fill="#864BC5"/>
<path d="M82.0693 237.771L84.5113 237.37L84.582 237.8L82.14 238.201L82.0693 237.771Z" fill="#864BC5"/>
<path d="M85.0156 234.27L87.4576 233.869L87.5282 234.299L85.0863 234.7L85.0156 234.27Z" fill="#864BC5"/>
<path d="M83.2705 233.421L83.7021 233.361L84.0629 235.935L83.6314 235.995L83.2705 233.421Z" fill="#864BC5"/>
<path d="M74.2852 239.68L76.6071 238.824L76.7578 239.232L74.4359 240.089L74.2852 239.68Z" fill="#864BC5"/>
<path d="M70.2764 238.479L72.5983 237.623L72.749 238.032L70.4271 238.888L70.2764 238.479Z" fill="#864BC5"/>
<path d="M73.7275 236.126L74.1328 235.966L75.0884 238.383L74.6831 238.543L73.7275 236.126Z" fill="#864BC5"/>
<path d="M71.6025 218.194L71.8757 217.855L73.3735 219.06L73.1004 219.399L71.6025 218.194Z" fill="#864BC5"/>
<path d="M73.7656 221.429L74.6718 218.557L75.0874 218.688L74.1812 221.56L73.7656 221.429Z" fill="#864BC5"/>
<path d="M361.934 266.924H63.7238C63.2079 266.924 62.713 266.719 62.3481 266.354C61.9833 265.989 61.7783 265.495 61.7783 264.979C61.7783 264.463 61.9833 263.968 62.3481 263.603C62.713 263.238 63.2079 263.033 63.7238 263.033H361.934C362.45 263.033 362.945 263.238 363.31 263.603C363.674 263.968 363.879 264.463 363.879 264.979C363.879 265.495 363.674 265.989 363.31 266.354C362.945 266.719 362.45 266.924 361.934 266.924Z" fill="#47414F"/>
<path d="M352.058 264.92C353.073 257.648 349.645 251.636 345.054 250.352C342.105 249.531 339.307 250.835 338.05 251.554C337.836 250.947 335.988 246.006 331.046 244.551C329.19 244.018 327.222 244.018 325.365 244.551C323.078 245.218 321.079 246.63 319.684 248.562C321.751 244.282 320.4 239.368 317.007 237.2C314.509 235.601 311.147 235.644 308.319 237.2C307.468 236.332 306.393 235.716 305.214 235.421C304.035 235.126 302.797 235.163 301.638 235.527C298.26 236.613 297.358 239.998 297.291 240.196C295.927 238.708 294.123 237.693 292.143 237.302C290.162 236.91 288.107 237.162 286.28 238.02C284.452 238.878 282.946 240.297 281.981 242.071C281.017 243.845 280.644 245.881 280.918 247.881C278.779 246.224 276.128 245.365 273.424 245.453C270.72 245.54 268.13 246.567 266.102 248.359C264.074 250.15 262.734 252.592 262.313 255.265C261.893 257.938 262.417 260.674 263.797 263.002L352.058 264.92ZM129.105 264.92C129.883 259.126 127.276 254.333 123.793 253.313C121.56 252.656 119.443 253.702 118.478 254.267C118.315 253.784 116.922 249.846 113.163 248.675C111.761 248.251 110.265 248.251 108.863 248.675C107.112 249.224 105.596 250.346 104.56 251.862C106.116 248.446 105.105 244.539 102.537 242.807C100.646 241.535 98.1008 241.566 95.9568 242.807C95.3314 242.122 94.5213 241.632 93.624 241.396C92.7266 241.16 91.7802 241.188 90.8984 241.477C88.342 242.34 87.6494 245.041 87.6066 245.204C86.5672 244.001 85.1491 243.186 83.5855 242.896C82.022 242.605 80.406 242.855 79.0035 243.605C76.3576 245.056 74.8323 248.15 75.2097 251.329C73.6585 250.074 71.7178 249.401 69.7228 249.425C67.7279 249.449 65.804 250.169 64.2837 251.461C60.9763 254.282 60.0697 259.364 62.2448 263.379L129.105 264.92ZM249.26 264.92C251.595 259.784 251.085 253.932 247.875 249.745C244.61 245.465 239.836 244.582 238.634 244.391C238.47 243.461 237.077 235.87 233.323 233.609C232.676 233.209 231.931 232.996 231.171 232.996C230.411 232.996 229.665 233.209 229.019 233.609C226.502 235.06 225.128 238.617 224.739 239.772C225.081 239.123 227.404 234.551 225.276 229.819C224.856 228.889 223.307 225.442 219.595 224.492C216.548 223.714 213.182 224.912 210.887 227.543C208.649 223.874 205.358 221.768 202.373 222.239C201.181 222.47 200.076 223.028 199.182 223.85C195.221 227.126 195.19 232.718 195.217 234.072C183.544 235.305 175.809 243.465 176.062 251.049C176.253 256.842 181.054 260.901 182.42 261.982L249.26 264.92Z" fill="#7DBCB1"/>
<path d="M319.055 65.5817C318.989 66.8598 318.766 68.1249 318.389 69.3483C318.056 70.3037 317.65 71.2325 317.175 72.1265C316.833 72.751 316.443 73.3481 316.008 73.9125C315.344 74.8 314.613 75.6352 313.821 76.4105C313.759 76.4806 313.681 76.5506 313.611 76.6206C313.541 76.6907 313.479 76.749 313.409 76.8152C313.339 76.8813 313.172 76.8736 313.02 76.9008C312.238 77.0702 311.432 77.0913 310.642 76.963C309.293 76.7241 308.053 76.0666 307.098 75.0837C307.098 74.9708 307.14 74.8541 307.168 74.7413C307.323 73.928 307.479 73.1109 307.631 72.2977C307.48 70.9173 307.522 69.5226 307.755 68.1537C307.925 67.128 308.212 66.1252 308.611 65.1654C308.824 64.6231 309.072 64.0954 309.354 63.5856C309.779 62.81 310.267 62.0708 310.814 61.3755C311.365 60.369 312.275 59.6066 313.362 59.2393C314.009 59.0497 314.691 59.0124 315.354 59.1304C315.782 59.1848 317.79 59.465 318.782 60.9436C319.382 61.7957 319.273 63.0525 319.055 65.5817Z" fill="#F3AF9F"/>
<path d="M311.654 69.6946C310.792 68.0928 309.779 66.5763 308.631 65.1655C308.844 64.6232 309.092 64.0954 309.374 63.5857L311.654 69.6946Z" fill="#F5938C"/>
<path d="M313.133 76.6246L313.09 76.7024L312.818 77.1615L309.211 83.2977L296.114 105.558C295.84 106.019 295.41 106.365 294.901 106.533C294.392 106.7 293.84 106.677 293.347 106.469L287.981 104.2C279.958 100.815 271.944 97.4235 263.938 94.0254C263.421 93.1732 262.339 91.1148 262.736 88.6246C263.308 85.0604 266.674 82.072 271.141 81.4222L285.098 90.5896L290.343 94.0254C291.51 92.718 292.654 91.4028 293.814 90.0954L307.405 74.6907L308.608 73.3289L312.398 76.0759L313.133 76.6246Z" fill="#F3AF9F"/>
<path d="M309.21 83.2977L296.113 105.558C295.84 106.019 295.409 106.365 294.901 106.533C294.392 106.7 293.84 106.677 293.347 106.469L287.981 104.2L281.308 91.7491L285.082 90.6051L290.327 94.0409C291.494 92.7335 292.638 91.4184 293.798 90.111L309.21 83.2977Z" fill="#F5938C"/>
<path d="M317.004 79.6518C317.004 79.6518 318.533 75.4223 318.533 71.2199C318.533 70.2433 318.035 67.7764 318.693 67.5312C318.769 67.513 318.848 67.5115 318.924 67.527C319.001 67.5424 319.073 67.5744 319.136 67.6207C319.364 68.0057 319.564 68.4062 319.735 68.8192C320.276 70.1343 320.269 70.9437 320.588 72.0448C320.681 72.3778 320.797 72.7041 320.934 73.0215C321.064 73.3339 321.223 73.6335 321.409 73.9164C321.471 74.0093 321.515 74.1138 321.537 74.2238C321.763 75.2666 321.054 76.9242 317.004 79.6518Z" fill="#F3AF9F"/>
<path d="M321.409 73.9164L318.023 78.0448L320.576 72.0448C320.669 72.3778 320.785 72.7041 320.922 73.0215C321.056 73.3343 321.219 73.6339 321.409 73.9164Z" fill="#F5938C"/>
<path d="M289.918 93.6168L287.514 98.0331L284.44 103.679L278.447 114.675C272.581 110.153 267.28 104.942 262.658 99.1537C261.272 97.4261 260.019 95.7102 258.864 94.0409C257.123 91.5174 256.371 88.4419 256.75 85.3998C257.13 82.3577 258.615 79.5613 260.922 77.5429L261.097 77.3833C263.596 75.1814 266.834 74.0031 270.163 74.0837L274.198 78.072L274.588 78.4611C276.235 80.0876 277.878 81.7128 279.517 83.3366L289.918 93.6168Z" fill="#EDEBEB"/>
<path d="M279.53 83.3328L284.44 103.679L278.448 114.675C272.582 110.153 267.28 104.942 262.658 99.1538C261.273 97.4262 260.02 95.7102 258.864 94.041C257.729 92.3994 257.004 90.5097 256.749 88.5301C256.495 86.5506 256.718 84.5389 257.401 82.6635L274.199 78.0565L274.588 78.4456C276.243 80.0799 277.89 81.7089 279.53 83.3328Z" fill="#E6DCE2"/>
<path d="M215.078 251.862H220.549C221.234 254.822 221.917 257.784 222.599 260.749L229.113 263.302C229.462 263.609 229.677 264.04 229.712 264.504C229.731 264.868 229.635 265.229 229.436 265.535H217.813L209.308 254.916C210.273 254.359 211.284 253.801 212.343 253.243C213.273 252.757 214.187 252.302 215.078 251.862Z" fill="#F8D11D"/>
<path d="M210.043 255.115L218.498 264.87H229.129C229.392 264.87 229.644 264.974 229.83 265.16C230.016 265.346 230.121 265.599 230.121 265.862V265.928C230.121 266.191 230.016 266.444 229.83 266.63C229.644 266.816 229.392 266.92 229.129 266.92H217.814L208.549 256.415C208.44 256.292 208.363 256.144 208.326 255.985C208.288 255.825 208.291 255.658 208.334 255.5C208.377 255.342 208.459 255.197 208.571 255.078C208.684 254.959 208.825 254.87 208.981 254.819C209.167 254.757 209.368 254.752 209.557 254.805C209.746 254.858 209.915 254.966 210.043 255.115ZM221.658 256.772H221.635C221.028 256.808 220.421 256.885 219.81 256.878C219.196 256.874 218.583 256.839 217.973 256.772C217.856 256.756 217.749 256.694 217.676 256.601C217.604 256.507 217.571 256.388 217.584 256.271C217.599 256.153 217.66 256.047 217.753 255.974C217.847 255.902 217.965 255.868 218.082 255.881H218.109C218.682 255.986 219.26 256.057 219.841 256.095C220.417 256.134 220.985 256.095 221.564 256.095C221.592 256.325 221.623 256.551 221.658 256.772ZM221.965 258.597C221.553 258.718 221.136 258.846 220.708 258.928C220.109 259.051 219.504 259.141 218.895 259.197C218.836 259.202 218.777 259.197 218.72 259.18C218.663 259.162 218.61 259.134 218.564 259.097C218.518 259.059 218.48 259.013 218.452 258.961C218.424 258.908 218.407 258.851 218.401 258.792C218.395 258.733 218.401 258.673 218.418 258.617C218.435 258.56 218.463 258.507 218.501 258.461C218.539 258.415 218.585 258.377 218.637 258.349C218.689 258.321 218.747 258.304 218.806 258.298H218.88C219.463 258.331 220.047 258.331 220.631 258.298C221.055 258.298 221.475 258.228 221.895 258.173C221.921 258.321 221.944 258.462 221.965 258.597Z" fill="#F8F8F8"/>
<path d="M222.35 260.811C222.214 260.842 222.074 260.866 221.934 260.885C221.33 260.986 220.721 261.052 220.109 261.084C220.047 261.092 219.985 261.087 219.925 261.07C219.865 261.052 219.81 261.023 219.762 260.983C219.714 260.943 219.675 260.894 219.647 260.838C219.619 260.782 219.603 260.722 219.6 260.66C219.597 260.597 219.607 260.535 219.629 260.477C219.65 260.419 219.684 260.366 219.728 260.321C219.771 260.277 219.823 260.242 219.881 260.218C219.938 260.195 220 260.183 220.062 260.185H220.093C220.675 260.196 221.257 260.177 221.837 260.127L222.226 260.084C222.276 260.344 222.304 260.586 222.35 260.811Z" fill="#F8F8F8"/>
<path d="M230.245 230.928C229.907 231.706 229.557 232.457 229.222 233.228C229.024 233.663 228.833 234.095 228.634 234.535C227.856 236.298 227.047 238.072 226.261 239.827C225.961 240.488 225.669 241.154 225.374 241.815C224.596 243.566 223.817 245.317 223.016 247.068L222.654 247.87C221.702 249.994 220.75 252.121 219.798 254.251C219.452 254.546 219.041 254.754 218.599 254.857C218.156 254.96 217.696 254.956 217.255 254.845C216.815 254.733 216.408 254.518 216.067 254.217C215.727 253.916 215.464 253.538 215.3 253.115C215.763 251.169 216.218 249.204 216.681 247.247L217.23 244.173L218.253 238.372L218.331 237.944L219.245 232.831V232.753L220.681 224.663L230.245 230.928Z" fill="#F3AF9F"/>
<path d="M223.016 247.068L222.782 247.593L222.654 247.87C221.702 249.994 220.75 252.121 219.798 254.251C219.452 254.546 219.041 254.754 218.599 254.857C218.156 254.96 217.696 254.956 217.255 254.845C216.815 254.734 216.408 254.518 216.067 254.217C215.727 253.916 215.464 253.538 215.3 253.115C215.763 251.169 216.218 249.204 216.681 247.247L216.891 246.045L217.23 244.173L223.016 247.068Z" fill="#F8F8F8"/>
<path d="M223.016 247.068L222.783 247.593L216.899 246.037L217.238 244.165L223.016 247.068Z" fill="#E6DCE2"/>
<path d="M228.634 234.535C227.856 236.298 227.047 238.072 226.261 239.827C225.961 240.488 225.669 241.154 225.374 241.815C223.428 240.905 220.681 239.558 218.261 238.372L218.339 237.944L219.253 232.831L219.51 232.71L228.634 234.535Z" fill="#F5938C"/>
<path d="M262.382 144.819C260.26 153.532 258.143 162.248 256.031 170.967C254.371 177.826 252.707 184.683 251.039 191.539L249.65 197.243C249.65 197.286 249.65 197.321 249.623 197.364C249.191 199.123 248.763 200.889 248.339 202.648C242.012 215.045 235.686 227.442 229.362 239.839C224.851 238.469 220.344 237.102 215.841 235.737C219.872 222.907 223.902 210.076 227.93 197.243C227.93 197.185 227.93 197.13 227.95 197.072C228.155 194.719 228.361 192.364 228.568 190.006C228.926 185.889 229.288 181.775 229.654 177.663C230.671 166.169 231.684 154.676 232.693 143.185C232.775 142.177 232.864 141.165 232.954 140.158L262.382 144.819Z" fill="#3D3936"/>
<path d="M256.012 170.967L236.701 141.438L232.662 143.193C231.645 154.682 230.632 166.174 229.623 177.671L249.604 197.387L256.012 170.967Z" fill="#22201F"/>
<path d="M270.708 233.85C270.599 234.426 270.494 234.994 270.377 235.566C270.331 235.823 270.284 236.076 270.233 236.344C269.79 238.71 269.342 241.084 268.891 243.449C268.739 244.228 268.591 245.006 268.447 245.784C268.043 247.885 267.642 249.988 267.245 252.091C266.809 254.374 266.373 256.662 265.938 258.955C266.56 260.722 265.498 262.352 264.346 262.539C263.362 262.695 262.097 261.842 261.731 260.379L261.292 252.866L260.825 244.796L260.747 243.434L260.436 238.177L260.226 234.516L259.961 229.967L270.708 233.85Z" fill="#F3AF9F"/>
<path d="M267.179 252.418C266.767 254.601 266.354 256.776 265.938 258.959C266.56 260.722 265.498 262.352 264.346 262.543C263.366 262.698 262.094 261.85 261.732 260.379L261.37 254.197L261.296 252.881L267.245 252.103C267.226 252.2 267.206 252.313 267.179 252.418Z" fill="#F8F8F8"/>
<path d="M281.312 266.469H256.876L261.432 256.57H261.693C261.884 258.481 262.86 259.878 264.008 260.072C264.121 260.072 264.942 260.228 265.44 259.722C266.148 258.994 265.561 257.605 266.296 257.022C266.512 256.866 266.774 256.79 267.039 256.804C268.187 257.438 269.285 257.971 270.3 258.434L270.927 258.714C271.386 258.916 271.825 259.103 272.246 259.278C272.378 259.329 272.502 259.383 272.635 259.438L274.039 260.018L274.716 260.313L275.164 260.516C278.666 262.158 281.958 263.8 282.168 264.22C282.553 265.119 281.312 266.469 281.312 266.469Z" fill="#F8D11D"/>
<path d="M256.875 264.671L282.556 265.119C282.689 265.228 282.796 265.366 282.87 265.522C282.943 265.677 282.981 265.847 282.981 266.02C282.981 266.192 282.943 266.362 282.87 266.518C282.796 266.673 282.689 266.811 282.556 266.92H256.875C256.715 266.737 256.594 266.522 256.52 266.29C256.446 266.058 256.422 265.813 256.447 265.57C256.492 265.233 256.642 264.919 256.875 264.671ZM270.941 258.714C270.638 259.247 270.377 259.8 270.043 260.309C269.71 260.825 269.349 261.321 268.961 261.796C268.884 261.883 268.776 261.937 268.66 261.946C268.544 261.955 268.429 261.92 268.339 261.847C268.249 261.773 268.19 261.668 268.176 261.553C268.161 261.438 268.191 261.321 268.261 261.228C268.262 261.22 268.262 261.212 268.261 261.204C268.658 260.779 269.029 260.331 269.373 259.862C269.72 259.399 269.996 258.901 270.307 258.415L270.941 258.714ZM272.626 259.438C272.506 259.85 272.389 260.271 272.237 260.675C272.018 261.247 271.768 261.805 271.486 262.348C271.432 262.455 271.338 262.536 271.224 262.573C271.11 262.611 270.986 262.601 270.879 262.547C270.772 262.493 270.691 262.398 270.654 262.284C270.617 262.171 270.627 262.047 270.681 261.94C270.681 261.916 270.708 261.893 270.724 261.874C271.07 261.405 271.39 260.916 271.681 260.411C271.892 260.043 272.084 259.665 272.257 259.278C272.377 259.329 272.498 259.383 272.626 259.438Z" fill="#F8F8F8"/>
<path d="M267.245 252.092C267.245 252.201 267.206 252.313 267.179 252.418L261.37 254.197L261.296 252.881L267.245 252.092Z" fill="#E6DCE2"/>
<path d="M274.708 260.313C274.657 260.446 274.603 260.574 274.545 260.702C274.3 261.264 274.026 261.812 273.724 262.344C273.698 262.402 273.661 262.454 273.614 262.497C273.567 262.539 273.511 262.571 273.451 262.591C273.391 262.611 273.327 262.617 273.264 262.611C273.202 262.604 273.141 262.585 273.086 262.553C273.031 262.522 272.983 262.479 272.946 262.428C272.909 262.377 272.883 262.318 272.869 262.256C272.856 262.194 272.856 262.13 272.869 262.069C272.882 262.007 272.908 261.948 272.945 261.897L272.965 261.87C273.289 261.387 273.586 260.887 273.856 260.372C273.918 260.255 273.977 260.134 274.035 260.014L274.708 260.313Z" fill="#F8F8F8"/>
<path d="M270.377 235.566C270.331 235.823 270.284 236.076 270.233 236.344C269.79 238.71 269.342 241.084 268.891 243.449C268.739 244.228 268.591 245.006 268.447 245.784C266.3 245.465 263.424 245.103 260.825 244.792L260.747 243.43L260.436 238.177L260.226 234.516L270.377 235.566Z" fill="#F5938C"/>
<path d="M277.125 190.92C275.125 208.632 273.125 226.352 271.125 244.08H256.121C255.218 228.49 254.322 212.902 253.432 197.317C253.381 196.453 253.327 195.59 253.28 194.726C252.891 193.827 252.502 192.924 252.113 192.025C246.105 178.337 240.103 164.652 234.105 150.971C232.399 147.087 231.577 142.873 231.701 138.632C231.797 135.142 232.612 131.709 234.093 128.547C236.105 124.309 239.218 121.154 242.813 119.858C248.93 117.667 256.677 120.819 262.008 127.551C263.113 132.176 264.217 136.804 265.319 141.434C265.451 141.99 265.584 142.555 265.708 143.115C269.519 159.063 273.324 174.998 277.125 190.92Z" fill="#3D3936"/>
<path d="M264.44 243.165H264.004C264.004 242.667 264.595 193.36 264.004 190.399C263.412 187.438 245.883 137.481 245.716 136.994L246.128 136.85C246.852 138.909 263.844 187.329 264.443 190.313C265.043 193.298 264.463 241.13 264.44 243.165Z" fill="#F8D11D"/>
<path d="M265.72 143.127L231.7 138.632C231.797 135.142 232.612 131.709 234.093 128.547L265.319 141.434C265.451 142.002 265.583 142.566 265.72 143.127Z" fill="#22201F"/>
<path d="M281.308 67.5274C281.191 67.7958 281.07 68.0604 280.954 68.3289C280.121 70.2239 279.284 72.1266 278.448 74.0215C277.784 75.5364 277.117 77.0513 276.448 78.5663C274.179 79.0916 271.799 78.8366 269.693 77.8425C268.151 77.086 266.826 75.9491 265.845 74.539L270.234 66.7803L272.888 62.0916L280.965 67.3095L281.308 67.5274Z" fill="#F8928C"/>
<path d="M280.953 68.3289C280.953 67.9398 280.977 67.5818 280.953 67.3095L272.887 62.0916L270.226 66.7803L278.447 74.041L280.953 68.3289Z" fill="#E6817A"/>
<path d="M280.689 97.0565C279.957 101.555 279.132 102.963 276.883 109.702C276.362 111.259 275.774 113.095 275.097 115.313C273.794 119.593 272.463 123.94 271.093 128.391C270.518 130.269 269.934 132.169 269.343 134.092L266.891 142.041L225.771 130.461C231.607 117.321 237 106.45 241.187 98.3367C249.813 81.6052 253.767 75.1305 258.195 72.897C259.108 72.4363 260.092 72.1299 261.105 71.9904C262.323 71.8238 263.557 71.8081 264.778 71.9437C269.498 72.4417 274.895 74.8814 277.813 79.0604C278.629 80.2528 279.283 81.5482 279.759 82.9126C281.759 88.2161 281.327 93.146 280.689 97.0565Z" fill="#EDEBEB"/>
<path d="M262.502 72.5973L267.728 69.1382L279.669 75.4962L279.191 79.7608L262.502 72.5973Z" fill="#F8F8F8"/>
<path d="M276.883 109.702C276.362 111.259 275.774 113.095 275.097 115.313C273.794 119.593 272.463 123.94 271.093 128.391C264.907 116.736 258.715 105.081 252.518 93.4261L276.883 109.702Z" fill="#DBD2D8"/>
<path d="M323.335 82.6245C323.113 82.788 322.868 82.9669 322.604 83.1771C322.339 83.3872 321.985 83.6518 321.639 83.928C320.79 84.6168 319.802 85.4845 318.693 86.5117C318.572 86.6284 318.495 86.7062 318.452 86.7413C310.86 93.5467 303.53 98.8269 303.53 98.8269C299.025 102.049 294.281 104.922 289.339 107.422C288.784 107.704 288.181 107.88 287.561 107.94C286.499 108.053 285.358 108.138 284.133 108.185C279.051 108.385 273.967 107.849 269.039 106.593C267.623 106.235 266.316 105.815 265.121 105.426C264.328 102.362 264.149 99.1704 264.594 96.0364C265.04 92.9024 266.101 89.8875 267.716 87.1654L276.471 91.7296L284.327 95.8308C284.79 95.6751 285.261 95.5117 285.736 95.3444C290.94 93.5315 296.036 91.4244 301 89.0331C306.534 86.3646 311.893 83.3495 317.047 80.0059C318.238 79.7494 319.478 79.8631 320.602 80.3319C321.726 80.8007 322.68 81.602 323.335 82.6284V82.6245Z" fill="#F3AF9F"/>
<path d="M277.817 79.0681L258.198 72.9086C259.11 72.4445 260.094 72.138 261.109 72.002C262.325 71.8335 263.558 71.8178 264.778 71.9553L277.817 79.0681Z" fill="#DBD2D8"/>
<path d="M277.977 46.8308C277.518 47.1591 277.004 47.4029 276.46 47.5506C274.514 48.1187 271.938 47.4806 268.724 44.4689C265.51 41.4573 264.927 36.4611 268.312 34.6752C269.335 34.1304 270.716 33.8969 272.502 34.0759C280.226 34.9203 277.977 46.8308 277.977 46.8308Z" fill="#3D3936"/>
<path d="M276.46 47.5507C274.514 48.1187 271.938 47.4806 268.724 44.4689C265.51 41.4573 264.927 36.4612 268.312 34.6752C266.518 44.2549 275.316 45.4456 275.316 45.4456L276.46 47.5507Z" fill="#22201F"/>
<path d="M288.934 69.9203C288.538 70.921 288.074 71.8934 287.545 72.8309C287.262 73.3469 286.81 73.7496 286.265 73.9709C285.65 74.1966 284.891 74.1888 281.817 72.574C277.856 70.4923 275.88 69.4612 274.992 67.6363C274.374 66.36 274.405 65.1071 274.483 62.5779C274.483 62.1382 274.51 61.6674 274.541 61.1655C274.603 58.6987 275.254 56.2825 276.44 54.1188C277.175 52.827 278.039 51.3133 279.743 50.2705C284.132 47.5779 289.23 50.4028 289.436 50.5235C289.977 51.298 290.417 52.1388 290.743 53.0254C291.243 54.4416 291.485 55.9362 291.455 57.4379C291.502 59.3445 291.234 60.8464 290.911 62.8581C290.806 63.4807 290.689 64.1227 290.522 64.827C290.167 66.5742 289.635 68.2808 288.934 69.9203Z" fill="#FABCB1"/>
<path d="M291.467 58.2433C291.287 59.3768 291.307 60.5329 291.525 61.6596C291.942 63.7491 292.841 64.5468 292.436 65.4378C291.903 66.6052 289.463 67.1538 288.662 66.3445C288.016 65.6908 288.082 63.8036 291.467 58.2433Z" fill="#FABCB1"/>
<path d="M289.44 50.5351C289.44 50.5351 285.705 57.7374 282.701 60.2627C281.429 61.3406 279.771 62.8075 277.911 63.6869C276.66 64.3543 275.229 64.6064 273.826 64.4067C271.491 64.0176 270.086 62.2277 269.713 61.7725C267.277 58.8153 267.884 55.1032 268.016 54.2588C268.476 51.6948 269.78 49.3581 271.72 47.6207C273.079 46.4031 274.709 45.5291 276.475 45.0721C281.335 43.8425 286.611 46.0254 289.44 50.5351ZM289.359 58.6596L286.082 58.076C286.039 58.0684 285.997 58.0524 285.96 58.0287C285.923 58.0051 285.89 57.9743 285.865 57.9381C285.84 57.9019 285.822 57.8611 285.812 57.818C285.803 57.7749 285.802 57.7303 285.81 57.6869C285.826 57.5995 285.876 57.5219 285.949 57.471C286.022 57.42 286.111 57.3997 286.199 57.4145L289.475 58.002C289.519 58.009 289.561 58.0247 289.598 58.0483C289.635 58.0719 289.668 58.1028 289.693 58.1392C289.718 58.1755 289.735 58.2166 289.744 58.2599C289.753 58.3032 289.753 58.3479 289.744 58.3911C289.737 58.4344 289.721 58.4758 289.698 58.5128C289.675 58.5499 289.644 58.5819 289.608 58.607C289.572 58.632 289.532 58.6496 289.489 58.6586C289.446 58.6677 289.402 58.668 289.359 58.6596Z" fill="#3D3936"/>
<path d="M288.113 61.4455C288.026 61.2384 287.896 61.0518 287.733 60.8976C287.569 60.7435 287.375 60.6253 287.163 60.5506C286.735 60.4533 286.241 60.6556 285.696 61.1459L285.479 60.9047C286.105 60.3366 286.696 60.1265 287.237 60.2315C287.499 60.3179 287.739 60.4601 287.94 60.6482C288.142 60.8363 288.3 61.0658 288.405 61.321L288.113 61.4455Z" fill="#3E3A35"/>
<path d="M288.545 69.6012C287.957 69.6012 287.074 69.3599 286.21 68.2004L286.56 67.9397C287.809 69.5973 289.008 69.107 289.058 69.0837L289.233 69.4728C289.015 69.5612 288.78 69.6049 288.545 69.6012Z" fill="#F8928C"/>
<path d="M277.911 63.7063C276.66 64.3737 275.229 64.6258 273.826 64.4262C271.491 64.0371 270.086 62.2472 269.713 61.7919C267.277 58.8347 267.884 55.1227 268.016 54.2783C268.472 51.7073 269.776 49.3632 271.72 47.6207C270.398 50.6052 269.53 55.7452 275.308 60.8736C276.298 61.6976 277.174 62.6503 277.911 63.7063Z" fill="#22201F"/>
<path d="M287.785 63.2054L283.989 62.5285C283.836 62.5014 283.691 62.6028 283.664 62.7552L283.607 63.0731C283.58 63.2254 283.681 63.3709 283.834 63.3981L287.63 64.075C287.782 64.1021 287.928 64.0007 287.955 63.8483L288.011 63.5304C288.039 63.3781 287.937 63.2326 287.785 63.2054Z" fill="#F6AFA7"/>
<path d="M287.545 72.8308C287.262 73.3468 286.81 73.7495 286.265 73.9708C285.65 74.1965 284.891 74.1887 281.817 72.574C277.856 70.4922 275.88 69.4611 274.992 67.6362C274.374 66.3599 274.405 65.107 274.483 62.5778C274.483 62.1382 274.51 61.6673 274.541 61.1654L275.708 59.8191C275.708 59.8191 273.354 63.8969 287.545 72.8308Z" fill="#F8A399"/>
<path d="M278.066 57.788C278.066 57.788 275.907 55.7802 274.105 56.3288C273.667 56.4766 273.273 56.7337 272.961 57.0759C271.918 58.2199 271.961 60.1693 272.825 61.4767C273.374 62.2941 274.222 62.8629 275.187 63.0604C275.854 63.2151 276.555 63.1411 277.175 62.8503C278.381 62.1576 278.883 60.0526 278.066 57.788Z" fill="#FABCB1"/>
<path d="M275.3 61.9786C274.939 61.9515 274.588 61.8454 274.273 61.6679C273.958 61.4904 273.685 61.2458 273.475 60.9514C273.251 60.6106 273.106 60.2243 273.05 59.8205C272.994 59.4167 273.029 59.0055 273.152 58.6168C273.204 58.3957 273.304 58.1889 273.445 58.0113C273.586 57.8336 273.765 57.6896 273.969 57.5895C275 57.0954 276.51 57.7374 276.576 57.7646L276.405 58.1537C276.405 58.1537 275.008 57.5623 274.16 57.9709C274.012 58.0438 273.882 58.1492 273.78 58.2792C273.678 58.4092 273.607 58.5605 273.572 58.7218C273.46 59.0508 273.424 59.4011 273.469 59.7459C273.514 60.0907 273.637 60.4206 273.829 60.7102C274.004 60.9519 274.229 61.1527 274.489 61.2985C274.749 61.4444 275.038 61.5317 275.335 61.5545L275.3 61.9786Z" fill="#F8A399"/>
<path d="M277.125 63.0721C277.066 63.2609 276.952 63.4279 276.798 63.5519C276.644 63.676 276.456 63.7515 276.259 63.769C276.062 63.7865 275.864 63.7452 275.691 63.6502C275.517 63.5552 275.376 63.4109 275.284 63.2355C275.193 63.0601 275.155 62.8615 275.177 62.6648C275.198 62.4681 275.277 62.2822 275.404 62.1306C275.532 61.979 275.701 61.8684 275.891 61.813C276.081 61.7576 276.283 61.7597 276.471 61.8192C276.724 61.8997 276.934 62.0765 277.056 62.3111C277.178 62.5458 277.203 62.8192 277.125 63.0721Z" fill="#F8D11D"/>
<path d="M284.001 58.9592C280.044 65.6958 274.638 71.4681 268.176 75.858C273.827 70.7159 277.507 63.7643 278.584 56.2004L284.001 58.9592Z" fill="#3D3936"/>
<path d="M238.758 133.277L255.014 98.4308L255.409 98.615L239.153 133.461L238.758 133.277Z" fill="#DBD2D8"/>
<path d="M233.316 201.453L227.931 197.08C228.136 194.727 228.342 192.372 228.549 190.014L233.316 201.453ZM259.047 199.228L253.433 197.317C253.382 196.453 253.328 195.59 253.281 194.726C252.892 193.827 252.503 192.924 252.114 192.025L259.047 199.228Z" fill="#22201F"/>
<path d="M329.736 65.3171L329.032 68.9903L328.51 71.7257L298.141 64.4455L298.316 63.535L298.689 61.5934L329.736 65.3171Z" fill="#C5ACA9"/>
<path d="M381.136 70.7062L379.743 77.9903L378.412 84.9514L328.51 71.7257L329.031 68.9903L329.735 65.3171L381.136 70.7062Z" fill="#C5ACA9"/>
<path d="M379.744 77.9903L378.413 84.9514L328.51 71.7257L298.141 64.4455L298.316 63.535L329.032 68.9903L379.744 77.9903Z" fill="#BA9081"/>
<path d="M329.339 75.5974C328.939 75.5164 328.588 75.2819 328.359 74.9443C328.131 74.6067 328.044 74.1929 328.117 73.7919L330.261 62.5701C330.342 62.1714 330.576 61.8203 330.913 61.5919C331.25 61.3635 331.662 61.2761 332.063 61.3483C332.462 61.4285 332.814 61.662 333.043 61.9989C333.273 62.3357 333.361 62.7489 333.288 63.1499L331.144 74.3717C331.064 74.7719 330.83 75.1247 330.492 75.3539C330.155 75.5832 329.741 75.6706 329.339 75.5974ZM378.113 87.4806C378.301 87.5166 378.495 87.5148 378.682 87.4754C378.87 87.4361 379.048 87.3599 379.205 87.2513C379.363 87.1427 379.498 87.0039 379.602 86.8429C379.705 86.6819 379.776 86.5019 379.81 86.3133L383.214 68.5001C383.25 68.312 383.248 68.1187 383.208 67.9315C383.169 67.7442 383.092 67.5666 382.984 67.4089C382.875 67.2513 382.737 67.1166 382.576 67.0127C382.415 66.9088 382.235 66.8377 382.047 66.8036C381.859 66.7676 381.666 66.7694 381.478 66.8088C381.291 66.8481 381.113 66.9243 380.955 67.0329C380.797 67.1415 380.663 67.2803 380.559 67.4413C380.455 67.6023 380.384 67.7823 380.351 67.9709L376.946 85.7841C376.911 85.9722 376.913 86.1655 376.952 86.3527C376.992 86.54 377.068 86.7176 377.177 86.8753C377.285 87.0329 377.424 87.1676 377.585 87.2715C377.745 87.3754 377.925 87.4465 378.113 87.4806Z" fill="#3D3936"/>
<path d="M289.42 59.8403L298.68 61.6102L298.135 64.4613L288.875 62.6915L289.42 59.8403Z" fill="#3D3936"/>
<path d="M337.727 71.2199L334.727 73.0214L328.735 79.6362C327.885 80.6072 326.869 81.42 325.735 82.037C324.637 82.693 323.408 83.102 322.136 83.2354C321.451 83.2938 320.996 83.2354 317.934 82.6362C316.766 82.4066 315.747 82.2004 314.934 82.037L319.723 75.4222L324.525 66.4222C325.28 66.2043 326.084 66.0033 326.937 65.8191C328.21 65.5467 329.416 65.3522 330.537 65.2199C331.253 65.1732 331.731 65.5273 331.739 65.8191C331.739 66.0448 331.478 66.2821 331.136 66.4222L326.338 67.6207C326.327 67.6512 326.314 67.681 326.299 67.7101C325.739 69.037 325.171 70.3755 324.599 71.7024C324.599 71.7452 324.568 71.7802 324.552 71.823L325.33 70.9319L327.665 68.2627L334.132 65.8191C334.521 65.6985 334.685 65.7452 334.743 65.8191C334.895 66.0175 334.498 66.5973 334.144 67.0214C333.478 67.2705 332.766 67.5662 332.031 67.9203C331.101 68.3648 330.199 68.8664 329.33 69.4222L329.299 69.4767L327.537 73.0059L328.513 72.1654L331.731 69.4105L336.525 68.2043C336.595 68.2238 336.595 68.5934 336.525 68.8035C336.47 68.9392 336.388 69.0625 336.284 69.1661C336.181 69.2697 336.058 69.3515 335.922 69.4066C335.626 69.4961 335.323 69.5934 335.011 69.7063C334.293 69.9623 333.591 70.2625 332.91 70.6051L332.864 70.6673L330.529 73.6051L331.743 73.0059L334.128 71.8113C336.245 70.657 337.449 70.2562 337.739 70.609C337.836 70.7374 337.832 70.928 337.727 71.2199Z" fill="#F3AF9F"/>
<path d="M326.284 67.7102C325.724 69.0371 325.156 70.3756 324.584 71.7024L323.335 73.0215L326.284 67.7102ZM327.525 73.0215L328.502 72.181C327.778 73.1421 326.339 73.6207 326.339 73.6207L329.308 69.4923L327.525 73.0215ZM330.525 73.6207L331.739 73.0215L329.339 74.2238L332.88 70.683L330.525 73.6207ZM322.603 83.1771C322.311 83.3989 321.985 83.6518 321.638 83.9281L318.837 81.1227L322.603 83.1771ZM276.471 91.7335L269.039 106.593C273.967 107.849 279.051 108.385 284.132 108.185L285.736 95.3444L276.471 91.7335Z" fill="#F5938C"/>
<path d="M285.766 94.8346L283.871 99.5039L276.731 117.056C270.393 113.226 264.54 108.644 259.299 103.411C257.743 101.854 256.288 100.298 254.949 98.7413C252.933 96.4281 251.838 93.4536 251.874 90.3851C251.91 87.3166 253.074 84.3685 255.144 82.1031C255.202 82.0331 255.257 81.9786 255.307 81.9241C257.539 79.4549 260.622 77.9205 263.938 77.6284L268.832 81.4883C274.482 85.9397 280.127 90.3885 285.766 94.8346Z" fill="#EDEBEB"/>
<path d="M285.767 94.8348L283.872 99.504L268.837 81.5001C274.484 85.9437 280.127 90.3886 285.767 94.8348Z" fill="#DBD2D8"/>
<path d="M307.934 73.6168C307.025 70.9982 306.237 68.3391 305.572 65.6479C305.183 64.0448 304.619 61.5506 304.993 61.4145C305.156 61.3561 305.471 61.753 305.716 62.0643C306.03 62.4766 306.291 62.9262 306.495 63.4028C306.846 64.0198 307.33 64.5513 307.911 64.9592C309 65.8969 311.732 68.251 311.716 70.718C311.716 72.4261 310.374 74.3327 309.156 74.3016C308.915 74.283 308.681 74.2122 308.47 74.0939C308.259 73.9756 308.076 73.8128 307.934 73.6168Z" fill="#F3AF9F"/>
<path d="M313.062 61.4184C313.04 61.4692 313.014 61.5186 312.985 61.5663C311.841 63.9372 310.697 66.312 309.553 68.6908C309.501 68.8091 309.407 68.9037 309.288 68.9556C309.17 69.0076 309.037 69.013 308.915 68.9709C308.846 68.9515 308.781 68.9182 308.726 68.8732C308.67 68.8282 308.624 68.7723 308.591 68.709C308.557 68.6457 308.537 68.5763 308.531 68.505C308.525 68.4336 308.534 68.3618 308.557 68.2939C309.439 65.5183 310.318 62.7465 311.195 59.9787C311.615 59.1382 312.222 58.6986 312.646 58.8114C312.76 58.8609 312.863 58.9335 312.948 59.0245C313.033 59.1156 313.099 59.2232 313.14 59.3406C313.58 60.2083 313.175 61.1655 313.062 61.4184Z" fill="#F3AF9F"/>
<path d="M315.759 60.8969C315.619 61.325 315.467 61.753 315.327 62.181C314.53 64.5701 313.722 66.967 312.903 69.3717C312.87 69.4866 312.794 69.5848 312.692 69.6463C312.589 69.7077 312.467 69.7278 312.35 69.7024C312.284 69.6941 312.22 69.6722 312.163 69.6382C312.106 69.6042 312.057 69.5587 312.018 69.5046C311.979 69.4505 311.952 69.389 311.938 69.324C311.924 69.2589 311.924 69.1917 311.938 69.1265C312.456 66.0811 312.975 63.0331 313.494 59.9825C313.86 59.0215 314.513 58.4534 315.05 58.5156C315.191 58.5487 315.324 58.6095 315.441 58.6943C315.557 58.7792 315.656 58.8864 315.731 59.0098C316.284 59.7841 315.801 60.8113 315.759 60.8969Z" fill="#F3AF9F"/>
<path d="M317.701 61.7491L316.922 64.2744C316.404 65.9786 315.874 67.6881 315.335 69.4028C315.31 69.4925 315.254 69.5706 315.177 69.6227C315.1 69.6748 315.007 69.6975 314.915 69.6868C314.856 69.688 314.798 69.676 314.745 69.6518C314.692 69.6276 314.645 69.5917 314.608 69.5469C314.57 69.502 314.544 69.4494 314.529 69.3928C314.515 69.3362 314.514 69.2771 314.525 69.2199L315.662 60.5895C315.965 59.7024 316.506 59.1849 316.942 59.2432C317.061 59.277 317.173 59.3344 317.27 59.4119C317.366 59.4894 317.447 59.5855 317.506 59.6946C318.051 60.4806 317.782 61.4845 317.701 61.7491ZM320.136 61.2004C320.144 61.3888 320.119 61.577 320.062 61.7568C319.346 63.9332 318.633 66.1045 317.922 68.2705C317.833 68.4105 317.323 69.2277 317.039 69.1382L317.016 69.1148C316.806 69.0059 316.794 68.3561 316.95 67.4767L317.946 61.0176C318.183 60.3249 318.685 59.8853 319.113 59.8969C319.34 59.92 319.551 60.0268 319.704 60.1965C319.845 60.3226 319.956 60.4777 320.031 60.651C320.105 60.8244 320.141 61.0118 320.136 61.2004Z" fill="#F3AF9F"/>
<path d="M313.355 76.4495C313.289 76.5195 313.207 76.5857 313.133 76.6518L312.829 77.1616L312.541 76.897L310.631 75.1149L312.355 75.9592L313.355 76.4495ZM312.966 61.5896C311.822 63.9605 310.678 66.3354 309.534 68.7141C309.482 68.8325 309.388 68.927 309.269 68.979C309.151 69.0309 309.018 69.0363 308.896 68.9942L312.966 61.5896ZM315.327 62.181C314.531 64.5701 313.723 66.967 312.903 69.3717C312.87 69.4867 312.795 69.5849 312.692 69.6463C312.59 69.7077 312.468 69.7278 312.351 69.7024L315.327 62.181ZM316.919 63.6752C316.4 65.3795 315.871 67.0876 315.331 68.7997C315.308 68.8902 315.252 68.9691 315.175 69.022C315.098 69.0749 315.004 69.0982 314.911 69.0876L316.919 63.6752ZM320.137 61.2005C320.144 61.3888 320.119 61.577 320.063 61.7569C319.347 63.9333 318.634 66.1045 317.923 68.2705C317.833 68.4106 317.324 69.2277 317.039 69.1382L317.016 69.1149L320.129 61.1771L320.137 61.2005Z" fill="#F5938C"/>
<path d="M116.035 231.881C116.14 232.438 116.245 232.99 116.354 233.543L116.494 234.282C116.922 236.57 117.358 238.87 117.794 241.158C117.942 241.936 118.086 242.675 118.226 243.434L119.393 249.539C119.817 251.753 120.237 253.963 120.662 256.185C120.058 257.893 121.086 259.473 122.199 259.652C123.152 259.804 124.378 258.979 124.732 257.558L125.148 250.305L125.603 242.492L125.677 241.173L125.973 236.084L126.175 232.543L126.432 228.138L116.035 231.881Z" fill="#F3AF9F"/>
<path d="M119.451 249.854C119.848 251.963 120.247 254.072 120.649 256.181C120.05 257.889 121.077 259.469 122.206 259.648C123.159 259.804 124.389 258.979 124.739 257.558L125.089 251.562L125.163 250.29L119.389 249.527C119.408 249.64 119.428 249.749 119.451 249.854Z" fill="#F8D11D"/>
<path d="M105.774 263.449H129.424L125.027 253.87H124.774C124.592 255.714 123.646 257.068 122.537 257.251C122.294 257.306 122.041 257.305 121.799 257.247C121.556 257.19 121.329 257.078 121.136 256.92C120.448 256.22 121.02 254.874 120.304 254.305C120.097 254.154 119.843 254.081 119.588 254.099C118.475 254.71 117.413 255.232 116.428 255.656L115.825 255.924L114.549 256.473C114.42 256.519 114.3 256.574 114.179 256.624L112.821 257.189C112.592 257.286 112.374 257.379 112.167 257.477C111.961 257.574 111.872 257.605 111.732 257.671C108.35 259.259 105.156 260.85 104.969 261.255C104.572 262.146 105.774 263.449 105.774 263.449Z" fill="#3D3936"/>
<path d="M129.424 261.71L104.56 262.146C104.431 262.252 104.326 262.384 104.254 262.535C104.182 262.686 104.144 262.851 104.144 263.018C104.147 263.184 104.186 263.347 104.258 263.496C104.33 263.646 104.433 263.779 104.56 263.885H129.424C129.579 263.709 129.696 263.501 129.767 263.277C129.838 263.053 129.862 262.816 129.836 262.582C129.793 262.255 129.649 261.951 129.424 261.71Z" fill="#BA9081"/>
<path d="M115.825 255.944V255.967C116.116 256.481 116.369 257.014 116.696 257.523C117.017 258.022 117.365 258.503 117.739 258.963C117.815 259.044 117.919 259.093 118.03 259.1C118.14 259.107 118.25 259.073 118.336 259.003C118.422 258.933 118.478 258.833 118.494 258.723C118.51 258.613 118.483 258.502 118.42 258.411C118.036 257.998 117.677 257.564 117.342 257.111C117.008 256.664 116.743 256.181 116.436 255.71L115.825 255.944ZM114.179 256.644C114.295 257.033 114.408 257.449 114.568 257.842C114.782 258.395 115.024 258.935 115.295 259.461C115.315 259.521 115.348 259.576 115.391 259.622C115.433 259.669 115.486 259.705 115.544 259.73C115.602 259.754 115.665 259.765 115.728 259.763C115.791 259.761 115.853 259.745 115.91 259.717C115.966 259.689 116.016 259.649 116.056 259.599C116.095 259.55 116.124 259.493 116.139 259.432C116.155 259.371 116.157 259.307 116.146 259.245C116.134 259.183 116.11 259.124 116.074 259.072C116.074 259.072 116.046 259.029 116.035 259.014C115.698 258.558 115.387 258.084 115.105 257.593C114.895 257.239 114.716 256.87 114.548 256.5C114.42 256.531 114.299 256.593 114.179 256.644Z" fill="#F8F8F8"/>
<path d="M119.389 249.527C119.408 249.629 119.428 249.737 119.451 249.843L125.073 251.551L125.147 250.278L119.389 249.527Z" fill="#F9A71F"/>
<path d="M112.187 257.496C112.233 257.621 112.284 257.745 112.342 257.885C112.572 258.429 112.832 258.959 113.12 259.473C113.178 259.574 113.272 259.648 113.384 259.679C113.495 259.71 113.614 259.696 113.716 259.64C113.766 259.612 113.809 259.574 113.845 259.529C113.88 259.483 113.906 259.431 113.92 259.376C113.935 259.321 113.939 259.263 113.931 259.206C113.923 259.149 113.904 259.094 113.875 259.045C113.877 259.036 113.877 259.027 113.875 259.018C113.561 258.55 113.273 258.065 113.011 257.566C112.953 257.453 112.895 257.337 112.84 257.22C112.576 257.309 112.373 257.399 112.187 257.496Z" fill="#F8F8F8"/>
<path d="M116.354 233.543L116.494 234.282C116.922 236.57 117.357 238.87 117.793 241.158C117.941 241.936 118.085 242.675 118.225 243.434C120.303 243.126 123.085 242.776 125.618 242.477L125.692 241.158L125.988 236.068L126.19 232.527L116.354 233.543Z" fill="#F5938C"/>
<path d="M172.63 225.566C165.124 230.492 150.965 225.481 136.023 213.621C134.565 212.464 133.103 211.242 131.638 209.955C131.14 209.523 130.638 209.076 130.14 208.624C129.958 210.181 129.774 211.73 129.587 213.27L128.918 218.788C128.205 224.822 127.49 230.857 126.774 236.893L126.233 241.457L117 240.776C115.793 229.986 114.315 216.313 112.719 200.375C111.494 188.111 110.953 181.905 114.54 179.414C117.719 177.204 122.027 178.57 137.155 186.418C142.326 189.099 149.517 192.792 158.439 197.282L158.673 197.403C162.771 199.478 167.225 201.698 172.035 204.064C172.7 204.398 173.342 204.776 173.957 205.196C176.735 207.142 178.762 209.971 179.179 213.309C179.848 218.543 175.63 223.597 172.63 225.566Z" fill="#495575"/>
<path d="M172.63 225.566C165.124 230.492 150.964 225.481 136.023 213.621L158.459 197.278L158.692 197.399L173.976 205.181C176.754 207.126 178.782 209.955 179.198 213.294C179.848 218.543 175.63 223.597 172.63 225.566ZM131.641 209.955C131.143 209.523 130.641 209.076 130.143 208.625C129.962 210.181 129.778 211.73 129.591 213.27L120.357 197.523L131.641 209.955Z" fill="#434F71"/>
<path d="M88.4512 129.547L86.6263 135.632L85.8481 135.679C83.7664 135.78 78.0271 135.889 75.0738 134.414C71.4318 132.59 74.4668 122.255 74.4668 122.255C74.9415 122.488 76.4123 122.983 78.0271 123.5C79.066 123.831 80.1633 124.165 81.101 124.453C82.4551 124.87 83.4746 125.169 83.4746 125.169L87.1438 128.395L88.3734 129.473L88.4512 129.539V129.547Z" fill="#F3AF9F"/>
<path d="M84.6421 130.737C84.6421 130.737 79.6226 128.73 78.1168 125.718C77.572 124.632 77.6849 123.94 78.0351 123.5C79.074 123.831 80.1713 124.165 81.109 124.453L84.6421 130.737Z" fill="#F4948B"/>
<path d="M141.257 168.052L131.175 162.119L122.879 157.239C110.379 149.885 97.8753 142.532 85.3694 135.181C85.1476 135.045 84.9181 134.912 84.6963 134.792L86.5951 130.228L87.0698 129.088L87.7624 129.317L87.848 129.344L126.852 142.348L130.401 143.516L138.404 146.185C139.356 153.471 140.307 160.761 141.257 168.052Z" fill="#F3AF9F"/>
<path d="M100.308 99.3794C101.022 96.5128 100.905 93.5018 99.9692 90.6996C99.0335 87.8973 97.3181 85.42 95.0244 83.558C92.7306 81.696 89.9535 80.5266 87.0188 80.1869C84.084 79.8472 81.1132 80.3513 78.4548 81.64C75.7963 82.9288 73.5604 84.9488 72.0092 87.4631C70.458 89.9775 69.6559 92.882 69.6968 95.8361C69.7377 98.7902 70.6201 101.671 72.2403 104.142C73.8606 106.612 76.1516 108.569 78.8447 109.784C78.9459 109.831 79.051 109.87 79.156 109.912L70.9848 136.235C70.9398 136.381 70.9035 136.529 70.8759 136.679C70.7683 137.68 71.0414 138.685 71.6409 139.494C72.2403 140.302 73.1222 140.856 74.1112 141.044C75.1001 141.232 76.1237 141.042 76.9784 140.51C77.8331 139.978 78.4563 139.144 78.7241 138.173L83.8603 111.142V111.091C87.5477 111.419 91.2311 110.42 94.2466 108.272C97.2622 106.125 99.4117 102.971 100.308 99.3794ZM84.1015 108.161C82.6918 108.042 81.3174 107.656 80.051 107.025V107.084C79.9459 107.037 79.8447 106.994 79.7436 106.944C76.9191 105.569 74.7107 103.188 73.552 100.269C72.3932 97.349 72.368 94.1017 73.4811 91.1644C74.5943 88.2271 76.7654 85.8122 79.5681 84.3938C82.3708 82.9755 85.6025 82.6564 88.6285 83.499C91.6545 84.3417 94.2561 86.2852 95.9223 88.948C97.5886 91.6108 98.199 94.8003 97.6338 97.8902C97.0686 100.98 95.3686 103.747 92.8676 105.647C90.3666 107.548 87.2455 108.445 84.1171 108.161H84.1015Z" fill="#3D3936"/>
<path d="M87.1943 129.364C86.3733 127.702 85.6379 126.379 85.1126 125.473C83.4628 122.617 82.9842 122.267 82.42 120.625C81.8169 118.878 81.7119 117.391 81.3422 117.395C81.206 117.395 81.0192 117.586 80.8013 118.473C79.8364 122.364 81.3422 126.551 81.3422 126.551C82.2941 128.907 83.806 130.996 85.7469 132.636C85.922 132.796 86.2644 133.041 87.1943 129.364Z" fill="#F3AF9F"/>
<path d="M82.0505 129.08L74.712 125.119L74.175 124.827L75.1984 125.605L81.8132 130.71C81.9256 130.795 82.0021 130.919 82.0277 131.058C82.0533 131.196 82.0261 131.339 81.9515 131.459C81.8768 131.579 81.7601 131.666 81.6243 131.704C81.4886 131.741 81.3436 131.727 81.2178 131.663L73.9299 128.045L73.5914 127.874L74.926 128.994L79.6575 132.971C79.7502 133.048 79.8112 133.157 79.8288 133.276C79.8464 133.395 79.8193 133.517 79.7529 133.618C79.6864 133.718 79.5852 133.791 79.4685 133.822C79.3518 133.852 79.228 133.839 79.1206 133.784L73.0233 130.706L72.1867 130.286C72.3112 130.391 72.4318 130.496 72.5525 130.589C73.6137 131.491 74.7531 132.295 75.9571 132.994C76.2762 133.177 77.0972 133.624 77.035 134.076C76.9988 134.204 76.9304 134.32 76.8364 134.414C76.7424 134.508 76.6259 134.577 76.498 134.613C76.321 134.662 76.1341 134.662 75.9571 134.613C75.1517 134.387 69.4085 130.469 69.1673 130.305C69.0468 130.035 69.0135 129.734 69.0721 129.444C69.1307 129.154 69.2782 128.889 69.4941 128.687C69.7025 128.534 69.9556 128.455 70.214 128.461C70.0231 128.189 69.9051 127.872 69.8713 127.542C69.8375 127.211 69.889 126.877 70.0209 126.572C70.1528 126.267 70.3607 126.001 70.6247 125.799C70.8887 125.597 71.2001 125.466 71.5291 125.418C71.2863 125.216 71.1166 124.94 71.0463 124.632C70.976 124.324 71.0089 124.001 71.14 123.714C71.2473 123.523 71.396 123.359 71.5751 123.233C71.7542 123.107 71.9592 123.023 72.175 122.986C71.9741 122.677 71.9005 122.302 71.9693 121.939C72.0382 121.577 72.2443 121.255 72.5447 121.041C72.7912 120.891 73.0778 120.822 73.3654 120.841C73.653 120.861 73.9276 120.968 74.1517 121.15C77.0259 123.407 79.9066 125.661 82.7937 127.912C82.8704 127.961 82.9366 128.025 82.9888 128.099C83.0409 128.173 83.0779 128.257 83.0976 128.346C83.1173 128.435 83.1193 128.527 83.1036 128.616C83.0878 128.706 83.0546 128.791 83.0058 128.868C82.957 128.944 82.8936 129.011 82.8191 129.063C82.7447 129.115 82.6608 129.152 82.5721 129.172C82.4834 129.191 82.3917 129.193 82.3022 129.178C82.2127 129.162 82.1272 129.129 82.0505 129.08Z" fill="#F3AF9F"/>
<path d="M131.175 162.119L122.879 157.239L126.852 142.337L130.4 143.504C134.163 150.06 132.105 158.955 131.175 162.119ZM88.4744 129.504V129.539C87.9875 130.359 87.5509 131.207 87.167 132.08V128.395L88.3966 129.473L88.4744 129.504Z" fill="#F4948B"/>
<path d="M226.645 214.286L226.556 214.481C226.526 214.548 226.481 214.608 226.426 214.657C226.37 214.706 226.305 214.742 226.234 214.763C226.163 214.785 226.088 214.791 226.015 214.781C225.942 214.771 225.872 214.746 225.809 214.706L224.743 214.025C223.651 213.322 222.553 212.622 221.451 211.924L219.33 210.574L219.241 210.516C219.389 210.765 219.529 211.014 219.673 211.263L219.7 211.313L224.132 218.963C224.195 219.071 224.217 219.198 224.195 219.322C224.173 219.445 224.108 219.556 224.011 219.636C223.914 219.71 223.813 219.788 223.723 219.866C223.617 219.952 223.481 219.993 223.345 219.98C223.209 219.966 223.084 219.9 222.996 219.796C222.093 218.745 221.194 217.696 220.299 216.648L218.704 214.796C218.155 214.154 217.614 213.516 217.07 212.885C217.027 212.831 216.976 212.78 216.933 212.726C217.891 217.216 218.845 221.704 219.797 226.189C219.813 226.264 219.807 226.343 219.781 226.416C219.755 226.488 219.71 226.553 219.649 226.601L219.26 226.912C219.209 226.954 219.148 226.983 219.083 226.997C219.018 227.01 218.95 227.008 218.886 226.99C218.822 226.972 218.763 226.939 218.715 226.894C218.666 226.848 218.629 226.792 218.607 226.73L216.272 220.504L216.249 220.453L214.428 215.597L214.377 215.484V216.263C214.439 219.998 214.503 223.736 214.568 227.477C214.567 227.603 214.518 227.725 214.43 227.817C214.343 227.909 214.224 227.964 214.097 227.971H213.681C213.56 227.977 213.442 227.937 213.35 227.86C213.258 227.783 213.198 227.674 213.182 227.554C212.765 224.745 212.348 221.934 211.933 219.123C211.809 218.313 211.692 217.512 211.572 216.702C211.315 214.998 211.066 213.298 210.813 211.593V211.512C210.813 211.422 210.789 211.337 210.774 211.247C210.537 209.625 210.291 207.994 210.05 206.368C210.048 206.351 210.048 206.334 210.05 206.317L210.525 205.27L210.634 205.033V205.006L212.49 200.909C212.661 200.909 212.821 200.889 212.957 200.877L215.852 200.683C215.895 200.757 215.933 200.823 215.976 200.889L216.179 201.212C216.253 201.325 216.323 201.438 216.393 201.554C217.848 203.889 219.304 206.224 220.762 208.558L226.529 213.656C226.617 213.732 226.676 213.836 226.698 213.95C226.719 214.065 226.7 214.183 226.645 214.286Z" fill="#F5AE9F"/>
<path d="M211.938 219.15C211.813 218.34 211.697 217.539 211.576 216.73C211.319 215.025 211.07 213.325 210.817 211.621V211.535C210.817 211.446 210.794 211.36 210.778 211.27L211.148 209.881L211.938 219.15ZM216.261 220.504L216.234 220.453L214.416 215.597V215.593L214.459 214.632L216.261 220.504ZM220.284 216.644L218.689 214.792C218.14 214.15 217.599 213.512 217.055 212.881L216.833 211.78L220.284 216.644ZM224.736 214.021C223.643 213.318 222.546 212.618 221.444 211.92L219.323 210.57L218.743 209.403L224.736 214.021Z" fill="#F4948B"/>
<path d="M213.327 209.138C212.718 209.922 212.02 210.634 211.249 211.259L210.817 211.617C208.587 213.43 205.86 215.091 205.323 215.29C204.545 215.586 203.7 214.554 203.7 214.554C203.7 214.554 205.257 213.963 208.264 208.803C208.759 207.947 209.229 207.189 209.665 206.519C209.961 206.072 210.237 205.663 210.502 205.294C210.545 205.228 210.595 205.165 210.642 205.103C210.689 205.041 210.681 205.049 210.696 205.021C212.319 202.776 213.323 201.963 213.323 201.963C213.656 202.909 213.891 203.887 214.023 204.881C214.019 204.918 214.019 204.954 214.023 204.99C214.206 206.403 214.132 208.01 213.327 209.138Z" fill="#F5AE9F"/>
<path d="M217.311 204.652L214.416 204.862H214.023L210.654 205.103V205.08C210.642 205.065 210.632 205.049 210.623 205.033V205.006L200.226 187.994L194.996 179.434L188.156 175.154L179.759 169.955L184.988 154.267L191.082 158.64L200.198 165.181C202.416 166.769 204.634 168.36 206.852 169.955L216.381 201.578L217.311 204.652Z" fill="#F3AF9F"/>
<path d="M214.416 204.862L214.027 204.994L210.027 206.391L209.638 206.519C209.933 206.072 210.21 205.663 210.474 205.294L210.583 205.056V205.029H210.704L214.031 204.889H214.338L214.416 204.862ZM200.198 165.181V188.018L194.968 179.457L188.128 175.177L191.081 158.636L200.198 165.181Z" fill="#F4948B"/>
<path d="M153.14 161.399C152.27 165.761 150.658 169.94 148.374 173.757L125.082 165.197L126.343 155.644L128.409 140.006C135.127 141.191 141.849 142.378 148.572 143.566L152.654 144.286C154.081 149.884 154.247 155.729 153.14 161.399Z" fill="#EDEBEB"/>
<path d="M153.14 161.399C152.27 165.761 150.658 169.94 148.374 173.757L125.082 165.197L126.343 155.644L145.522 161.395C146.539 155.449 147.555 149.506 148.572 143.566L152.654 144.286C154.081 149.884 154.247 155.729 153.14 161.399Z" fill="#DBD2D8"/>
<path d="M194.148 250.749L188.237 250.722L185.98 260.317L178.934 263.041C178.553 263.368 178.318 263.833 178.28 264.333C178.255 264.727 178.358 265.118 178.572 265.449L191.132 265.504C194.211 261.683 197.29 257.864 200.369 254.049C199.332 253.442 198.241 252.835 197.097 252.228C196.093 251.704 195.11 251.211 194.148 250.749Z" fill="#3D3936"/>
<path d="M199.572 254.267L190.397 264.772L178.911 264.726C178.77 264.724 178.63 264.751 178.499 264.804C178.369 264.856 178.25 264.935 178.149 265.034C178.049 265.133 177.97 265.251 177.915 265.381C177.861 265.511 177.833 265.651 177.833 265.792V265.87C177.832 266.01 177.859 266.15 177.912 266.28C177.965 266.41 178.043 266.529 178.143 266.629C178.242 266.729 178.36 266.808 178.489 266.862C178.619 266.916 178.759 266.944 178.899 266.944L191.125 266.994L201.183 255.71C201.3 255.578 201.383 255.418 201.423 255.246C201.464 255.074 201.462 254.894 201.416 254.723C201.371 254.553 201.284 254.395 201.163 254.266C201.042 254.137 200.892 254.04 200.724 253.983C200.525 253.912 200.31 253.901 200.105 253.951C199.901 254.002 199.715 254.111 199.572 254.267Z" fill="#BA9081"/>
<path d="M187.016 256.01H187.039C187.7 256.049 188.354 256.134 189.016 256.126C189.679 256.13 190.341 256.095 191 256.021C191.127 256.006 191.244 255.941 191.324 255.84C191.404 255.74 191.441 255.612 191.428 255.484C191.412 255.356 191.348 255.239 191.247 255.158C191.147 255.077 191.02 255.038 190.891 255.049C190.886 255.051 190.881 255.053 190.875 255.053C190.87 255.053 190.865 255.051 190.86 255.049C190.242 255.16 189.619 255.234 188.992 255.27C188.37 255.313 187.755 255.27 187.128 255.27L187.016 256.01ZM186.673 257.975C187.121 258.111 187.568 258.247 188.031 258.34C188.674 258.475 189.323 258.575 189.977 258.64C190.101 258.644 190.221 258.601 190.315 258.519C190.408 258.438 190.467 258.324 190.48 258.201C190.493 258.077 190.458 257.954 190.384 257.855C190.309 257.756 190.2 257.689 190.078 257.667H190.008C189.377 257.704 188.744 257.704 188.113 257.667C187.658 257.648 187.202 257.586 186.751 257.527C186.724 257.698 186.7 257.831 186.673 257.975ZM186.249 260.375C186.397 260.41 186.549 260.438 186.7 260.461C187.352 260.57 188.009 260.643 188.669 260.679C188.735 260.687 188.802 260.682 188.866 260.663C188.93 260.645 188.99 260.613 189.041 260.571C189.092 260.528 189.134 260.476 189.164 260.416C189.194 260.357 189.212 260.292 189.216 260.226C189.22 260.159 189.21 260.093 189.188 260.03C189.165 259.967 189.129 259.91 189.084 259.862C189.038 259.814 188.983 259.775 188.921 259.749C188.86 259.723 188.794 259.71 188.728 259.71H188.693C188.064 259.722 187.435 259.698 186.809 259.64C186.665 259.64 186.521 259.609 186.377 259.589C186.335 259.862 186.288 260.123 186.249 260.375Z" fill="#F8F8F8"/>
<path d="M192.303 250.539C192.435 251.01 192.452 251.505 192.354 251.984C192.255 252.463 192.044 252.911 191.737 253.292C191.43 253.672 191.037 253.974 190.59 254.172C190.143 254.37 189.655 254.459 189.167 254.43L187.673 253.609C185.965 252.664 184.261 251.73 182.556 250.792L182.276 250.636C182.093 250.535 181.91 250.438 181.728 250.329L180.587 249.706C179.152 248.928 177.72 248.123 176.276 247.337C175.595 246.948 174.903 246.558 174.218 246.2L168.728 243.177L167.366 242.43C166.587 241.986 165.795 241.549 164.988 241.119L167.805 233.243C170.331 233.924 172.864 234.613 175.377 235.29L175.65 235.543L175.708 235.601L179.813 239.411L180.159 239.73L182.883 242.274L184.829 244.068L186.335 245.469L187.3 246.36L191.988 250.251L192.303 250.539Z" fill="#F3AF9F"/>
<path d="M181.72 250.333L182.264 250.636L182.552 250.792C184.76 252.006 186.965 253.221 189.167 254.438C189.653 254.462 190.138 254.37 190.581 254.17C191.025 253.97 191.414 253.668 191.718 253.288C192.022 252.908 192.231 252.461 192.329 251.985C192.427 251.508 192.41 251.016 192.28 250.547C190.607 249.162 188.942 247.772 187.268 246.383L186.307 245.484L184.821 244.08C183.788 246.155 182.755 248.239 181.72 250.333Z" fill="#F8D11D"/>
<path d="M181.72 250.333L182.264 250.636L186.331 245.473L184.821 244.08C183.788 246.155 182.755 248.239 181.72 250.333Z" fill="#F9A71F"/>
<path d="M168.72 243.181L174.21 246.204C174.899 246.593 175.584 246.963 176.268 247.341C177.35 245.286 178.848 242.341 180.159 239.741L179.817 239.422L175.7 235.605L175.401 235.671L168.72 243.181Z" fill="#F5938C"/>
<path d="M193.972 207.481C192.934 208.06 181.91 214.002 169.42 210.983C167.066 210.419 164.792 209.565 162.649 208.438C152.902 203.341 148.988 194.504 147.914 191.804C147.941 189.053 147.965 186.294 147.992 183.543C148.129 170.134 148.259 156.727 148.381 143.321C151.202 143.879 154.066 144.197 156.941 144.27C162.552 144.403 165.556 143.449 171.198 144.27C171.906 144.376 172.564 144.484 173.167 144.597C174.303 144.819 175.249 145.041 175.953 145.22C176.027 145.488 176.105 145.749 176.183 145.998C177.14 149.318 178.101 152.641 179.066 155.967C179.684 158.107 180.307 160.247 180.926 162.379C183.146 170.079 185.373 177.779 187.607 185.481C189.163 190.837 190.719 196.191 192.276 201.543C192.839 203.527 193.404 205.507 193.972 207.481Z" fill="#EDEBEB"/>
<path d="M169.665 145.605C169.37 145.792 168.973 146.025 168.498 146.27C165.872 146.967 161.965 147.344 157.214 145.788C156.995 144.813 156.802 143.832 156.634 142.846C156.568 142.457 156.521 142.146 156.479 141.846C156.346 140.959 156.109 139.512 155.79 136.66V136.574C155.79 136.481 155.77 136.391 155.759 136.298C155.879 136.274 156.004 136.239 156.128 136.212C156.685 136.084 157.237 135.944 157.786 135.823L165.833 133.901C166.156 134.874 166.483 135.846 166.809 136.807C167.055 137.551 167.261 138.161 167.44 138.687C167.879 140.002 168.128 140.772 168.401 141.593C168.463 141.776 168.525 141.959 168.588 142.154C168.813 142.94 169.198 144.134 169.665 145.605Z" fill="#F8928C"/>
<path d="M155.767 136.66C156.086 139.527 156.323 140.94 156.455 141.846C156.549 142.473 156.669 143.239 156.844 144.134L167.401 138.687C167.222 138.161 167.012 137.551 166.767 136.811C166.44 135.839 166.117 134.866 165.798 133.901C163.108 134.539 160.425 135.18 157.751 135.823C157.199 135.955 156.642 136.091 156.09 136.212L155.767 136.66Z" fill="#E6817A"/>
<path d="M169.28 131.796C167.946 133.624 165.984 134.895 163.77 135.364C163.661 135.387 163.556 135.41 163.447 135.426C162.368 135.624 161.262 135.624 160.183 135.426C159.529 135.314 158.892 135.119 158.288 134.846L157.899 134.659C157.723 134.566 157.548 134.461 157.377 134.352C156.358 133.507 155.423 132.565 154.587 131.539C153.809 130.372 153.342 126.348 154.237 120.819C154.539 118.955 154.959 117.112 155.494 115.302C155.494 115.302 155.494 115.302 155.494 115.278C156.99 114.616 158.613 114.29 160.249 114.325C160.249 114.325 163.474 114.407 165.98 116.103C166.355 116.363 166.716 116.642 167.062 116.94C167.503 117.323 167.916 117.736 168.299 118.177C168.432 118.329 168.572 118.496 168.708 118.667C169.845 120.089 170.624 121.762 170.98 123.547C171.087 124.079 171.151 124.619 171.171 125.161C171.218 125.71 171.307 128.986 169.28 131.796Z" fill="#FABCB1"/>
<path d="M165.296 124.309C165.111 125.14 165.05 125.994 165.113 126.842C165.148 127.283 165.216 127.72 165.315 128.15C164.716 128.053 164.268 128.15 164.268 128.648C164.268 128.819 164.268 129.037 164.249 129.259C164.179 131.335 163.91 133.401 163.447 135.426C163.364 135.745 163.251 136.055 163.109 136.352C162.478 137.617 156.408 139.263 154.245 139.819C152.206 140.115 151.027 140.115 150.264 139.43C149.961 139.154 149.622 138.73 149.354 137.002C149.115 135.302 148.968 133.59 148.914 131.874V131.722C148.731 127.613 148.65 125.535 148.914 124.329C149.385 122.287 150.237 120.351 151.424 118.625C152.433 117.147 153.855 116.001 155.514 115.329C155.56 115.305 155.615 115.286 155.665 115.267C157.419 114.689 159.312 114.689 161.066 115.267C162.238 115.606 163.283 116.283 164.074 117.212C165.486 118.912 165.868 121.492 165.498 123.391C165.447 123.652 165.37 123.963 165.296 124.309Z" fill="#FABCB1"/>
<path d="M151.042 127.372C151.401 127.372 151.692 127.081 151.692 126.722C151.692 126.363 151.401 126.072 151.042 126.072C150.683 126.072 150.393 126.363 150.393 126.722C150.393 127.081 150.683 127.372 151.042 127.372Z" fill="#3E3A35"/>
<path d="M148.984 124.8L151.941 125.422C152.072 125.448 152.208 125.421 152.32 125.349C152.431 125.276 152.511 125.163 152.54 125.033C152.566 124.902 152.54 124.767 152.467 124.655C152.395 124.543 152.281 124.464 152.151 124.434L149.19 123.811C149.126 123.798 149.059 123.797 148.994 123.809C148.929 123.821 148.867 123.846 148.812 123.882C148.756 123.918 148.709 123.965 148.672 124.02C148.634 124.074 148.608 124.136 148.595 124.2C148.567 124.331 148.593 124.468 148.666 124.58C148.739 124.693 148.853 124.772 148.984 124.8Z" fill="#74584D"/>
<path d="M150.252 128.648H153.614C153.75 128.648 153.859 128.538 153.859 128.403V128.123C153.859 127.987 153.75 127.877 153.614 127.877H150.252C150.117 127.877 150.007 127.987 150.007 128.123V128.403C150.007 128.538 150.117 128.648 150.252 128.648Z" fill="#F6AFA7"/>
<path d="M148.852 125.181C148.692 125.624 148.439 126.302 148.074 127.107C147.085 129.313 146.256 130.333 146.669 130.92C146.766 131.06 147.058 131.158 147.688 131.344C148.797 131.687 149.354 131.858 149.614 131.733C150.097 131.5 150.249 130.142 148.852 125.181Z" fill="#FABCB1"/>
<path d="M148.91 132.477V132.679C149.015 135.842 149.167 137.948 149.346 139.376C149.405 139.934 149.495 140.489 149.614 141.037C149.693 141.588 149.915 142.108 150.256 142.547C150.405 142.727 150.588 142.876 150.793 142.986C151.548 143.414 152.622 143.348 154.233 143.045C156.4 142.321 162.47 140.177 163.101 138.523C163.428 137.493 163.65 136.432 163.762 135.356C163.891 134.356 164 133.27 164.077 132.243C164.12 131.698 164.155 131.173 164.183 130.687L164.646 130.582L164.432 128.741C163.812 128.7 163.191 128.81 162.623 129.063C162.055 129.316 161.558 129.704 161.175 130.193L154.599 131.414L148.91 132.477Z" fill="#74584D"/>
<path d="M149.622 141.037C149.701 141.588 149.922 142.108 150.264 142.547C150.413 142.727 150.595 142.876 150.801 142.986C151.556 143.414 152.63 143.348 154.241 143.045C156.408 142.321 162.478 140.177 163.108 138.523C163.436 137.493 163.658 136.432 163.77 135.356C166.005 134.86 167.972 133.542 169.28 131.663C171.307 128.761 171.225 125.376 171.194 124.823C171.09 122.383 170.23 120.036 168.731 118.107C166.959 121.983 164.833 125.687 162.381 129.173C161.024 131.102 159.53 132.93 157.91 134.644C155.53 137.229 152.727 139.391 149.622 141.037Z" fill="#644D43"/>
<path d="M150.452 134.839H149.082V134.403H150.452C151.522 134.403 152.533 133.796 153.296 132.698L153.654 132.948C152.806 134.165 151.67 134.839 150.452 134.839Z" fill="#F8928C"/>
<path d="M167.412 129.068L167.747 128.543C167.654 128.729 167.542 128.906 167.412 129.068Z" fill="#74584D"/>
<path opacity="0.45" d="M171.004 123.562C170.647 121.777 169.868 120.104 168.731 118.683C168.595 118.512 168.455 118.344 168.323 118.193C167.94 117.752 167.526 117.338 167.085 116.955C166.74 116.658 166.379 116.379 166.004 116.119C163.498 114.422 160.272 114.34 160.272 114.34C158.637 114.304 157.014 114.626 155.517 115.286C155.517 115.286 155.517 115.286 155.517 115.309C153.859 115.981 152.437 117.128 151.428 118.605C152.255 119.484 153.21 120.233 154.26 120.827C155.823 121.706 157.512 122.338 159.268 122.698C159.253 122.786 159.245 122.874 159.245 122.963V131.021C159.242 131.268 159.299 131.511 159.412 131.73L161.949 130.251C162.338 128.591 162.727 126.932 163.116 125.274C163.392 124.973 163.728 124.731 164.101 124.565C164.475 124.399 164.879 124.312 165.288 124.309C166.762 124.368 167.84 125.769 168.011 127.088C168.069 127.589 167.973 128.097 167.735 128.543L171.004 123.562Z" fill="#74584D"/>
<path d="M161.051 124.586C161.051 124.586 162.728 122.64 164.342 122.932C164.738 123.014 165.105 123.198 165.409 123.465C166.428 124.356 166.576 126.053 165.957 127.27C165.563 128.033 164.883 128.609 164.066 128.874C163.502 129.069 162.888 129.069 162.323 128.874C161.214 128.403 160.568 126.628 161.051 124.586Z" fill="#FABCB1"/>
<path d="M163.868 127.983L163.786 127.555C164.038 127.507 164.276 127.404 164.484 127.254C164.692 127.104 164.864 126.911 164.989 126.687C165.125 126.421 165.199 126.127 165.204 125.828C165.208 125.529 165.144 125.233 165.016 124.963C164.971 124.831 164.897 124.711 164.799 124.611C164.702 124.511 164.583 124.435 164.452 124.387C163.673 124.119 162.557 124.757 162.545 124.776L162.327 124.387C162.382 124.356 163.642 123.648 164.592 123.979C164.782 124.046 164.955 124.156 165.099 124.298C165.242 124.441 165.352 124.613 165.421 124.804C165.569 125.135 165.642 125.495 165.633 125.858C165.625 126.221 165.535 126.577 165.37 126.901C165.214 127.18 164.998 127.421 164.739 127.608C164.479 127.795 164.182 127.923 163.868 127.983Z" fill="#F8A399"/>
<path d="M172.156 144.924C171.021 145.636 169.783 146.168 168.487 146.504C165.86 147.235 161.954 147.628 157.203 146.002C156.308 145.69 155.432 145.33 154.576 144.924L156.467 142.912H156.615L168.366 141.589L169.779 141.43L172.156 144.924Z" fill="#EDEBEB"/>
<path d="M192.261 201.574L174.055 173.757C175.728 167.84 177.4 161.92 179.07 155.998C179.689 158.138 180.312 160.278 180.93 162.41C183.151 170.11 185.378 177.81 187.611 185.512C189.16 190.871 190.71 196.225 192.261 201.574Z" fill="#DBD2D8"/>
<path d="M175.957 145.247L198.77 160.574L197.346 186.601L174.023 173.519C172.851 167.449 172.702 161.226 173.58 155.107C174.066 151.754 174.862 148.453 175.957 145.247Z" fill="#EDEBEB"/>
<path d="M176.186 146.025L160.622 146.87L173.167 144.609C174.303 144.831 175.249 145.053 175.953 145.232C176.031 145.504 176.109 145.765 176.186 146.025ZM169.42 211.006C167.066 210.443 164.792 209.588 162.649 208.461C152.902 203.364 148.988 194.527 147.914 191.827C147.941 189.076 147.965 186.317 147.992 183.566L169.42 211.006Z" fill="#DBD2D8"/>
<path d="M194.494 204.652C194.494 206.045 194.444 210.169 192.117 214.158C191.708 214.863 191.241 215.534 190.72 216.162C189.164 218.014 187.288 219.352 184.989 220.831C180.506 223.657 175.809 226.129 170.942 228.224C169.549 228.826 168.079 229.426 166.533 230.025L169.168 231.469C169.331 231.555 169.494 231.648 169.654 231.737C170.261 232.064 170.872 232.403 171.479 232.734L175.537 234.955L183.066 239.076L182.059 240.757L180.794 242.877L177.101 249.053L175.829 251.181C159.771 247.27 128.806 238.543 129.564 227.897C129.736 225.535 130.969 223.593 155.743 207.387C166.024 200.663 174.518 195.286 180.646 192.819C184.81 191.15 187.895 190.815 189.728 192.313C190.942 193.305 192.634 195.936 193.58 198.757C194.193 200.662 194.501 202.651 194.494 204.652Z" fill="#586483"/>
<path d="M74.9186 129.002L72.5918 128.228L73.0937 127.224L73.9225 128.053L73.584 127.881L74.9186 129.002ZM75.1832 125.613L73.5957 125.216L73.8836 124.574L74.6968 125.115L74.1599 124.823L75.1832 125.613ZM73.0198 130.718L72.1832 130.298C72.3077 130.403 72.4284 130.508 72.549 130.601L71.0859 130.235L71.5879 129.734L73.0937 130.737L73.0198 130.718Z" fill="#F4948B"/>
<path d="M171.479 232.714L155.525 233.173L170.942 228.204C169.549 228.806 168.079 229.407 166.533 230.006L169.167 231.449L171.479 232.714Z" fill="#434F71"/>
<path d="M183.066 239.056L182.058 240.737L165.977 232.695L169.654 231.718C170.261 232.045 170.872 232.383 171.479 232.714L175.537 234.936L183.066 239.056Z" fill="#434F71"/>
<path d="M215.821 197.523L207.327 201.803L209.23 205.13L216.833 201.329L215.821 197.523Z" fill="#3D3936"/>
<path d="M214.934 201.8C214.934 202.27 214.794 202.729 214.533 203.12C214.272 203.511 213.9 203.816 213.466 203.996C213.032 204.176 212.554 204.223 212.092 204.131C211.631 204.04 211.208 203.813 210.875 203.481C210.543 203.148 210.316 202.725 210.224 202.263C210.133 201.802 210.18 201.324 210.36 200.89C210.54 200.455 210.844 200.084 211.235 199.823C211.626 199.562 212.086 199.422 212.556 199.422C213.187 199.422 213.791 199.673 214.237 200.118C214.683 200.564 214.934 201.169 214.934 201.8Z" fill="#F8F8F8"/>
<path d="M155.534 59.0547C155.469 58.8437 155.379 58.6549 155.265 58.4883C155.153 58.319 155.017 58.1745 154.858 58.0547C154.702 57.9349 154.522 57.8451 154.319 57.7852C154.116 57.7227 153.895 57.6914 153.655 57.6914C153.226 57.6914 152.843 57.7995 152.507 58.0156C152.171 58.2318 151.907 58.5495 151.714 58.9687C151.524 59.3854 151.429 59.8932 151.429 60.4922C151.429 61.0964 151.524 61.6081 151.714 62.0273C151.904 62.4466 152.168 62.7656 152.507 62.9844C152.845 63.2005 153.239 63.3086 153.687 63.3086C154.093 63.3086 154.444 63.2305 154.741 63.0742C155.041 62.918 155.271 62.6966 155.433 62.4102C155.594 62.1211 155.675 61.7826 155.675 61.3945L156.003 61.4453H153.831V60.3125H157.077V61.2734C157.077 61.9583 156.931 62.5508 156.64 63.0508C156.348 63.5508 155.947 63.9362 155.437 64.207C154.926 64.4753 154.34 64.6094 153.679 64.6094C152.942 64.6094 152.295 64.444 151.737 64.1133C151.183 63.7799 150.749 63.3073 150.437 62.6953C150.127 62.0807 149.972 61.3516 149.972 60.5078C149.972 59.862 150.063 59.2852 150.245 58.7773C150.43 58.2695 150.688 57.8385 151.019 57.4844C151.349 57.1276 151.737 56.8568 152.183 56.6719C152.628 56.4844 153.112 56.3906 153.636 56.3906C154.078 56.3906 154.491 56.4557 154.874 56.5859C155.257 56.7135 155.597 56.8958 155.894 57.1328C156.193 57.3698 156.439 57.651 156.632 57.9766C156.825 58.3021 156.951 58.6615 157.011 59.0547H155.534ZM161.033 64.6172C160.447 64.6172 159.939 64.4883 159.51 64.2305C159.08 63.9727 158.747 63.612 158.51 63.1484C158.275 62.6849 158.158 62.1432 158.158 61.5234C158.158 60.9036 158.275 60.3607 158.51 59.8945C158.747 59.4284 159.08 59.0664 159.51 58.8086C159.939 58.5508 160.447 58.4219 161.033 58.4219C161.619 58.4219 162.127 58.5508 162.557 58.8086C162.986 59.0664 163.318 59.4284 163.553 59.8945C163.79 60.3607 163.908 60.9036 163.908 61.5234C163.908 62.1432 163.79 62.6849 163.553 63.1484C163.318 63.612 162.986 63.9727 162.557 64.2305C162.127 64.4883 161.619 64.6172 161.033 64.6172ZM161.041 63.4844C161.359 63.4844 161.624 63.3971 161.838 63.2227C162.051 63.0456 162.21 62.8086 162.314 62.5117C162.421 62.2148 162.475 61.8841 162.475 61.5195C162.475 61.1523 162.421 60.8203 162.314 60.5234C162.21 60.224 162.051 59.9857 161.838 59.8086C161.624 59.6315 161.359 59.543 161.041 59.543C160.715 59.543 160.445 59.6315 160.229 59.8086C160.015 59.9857 159.855 60.224 159.748 60.5234C159.644 60.8203 159.592 61.1523 159.592 61.5195C159.592 61.8841 159.644 62.2148 159.748 62.5117C159.855 62.8086 160.015 63.0456 160.229 63.2227C160.445 63.3971 160.715 63.4844 161.041 63.4844ZM167.726 64.6172C167.14 64.6172 166.632 64.4883 166.202 64.2305C165.772 63.9727 165.439 63.612 165.202 63.1484C164.968 62.6849 164.851 62.1432 164.851 61.5234C164.851 60.9036 164.968 60.3607 165.202 59.8945C165.439 59.4284 165.772 59.0664 166.202 58.8086C166.632 58.5508 167.14 58.4219 167.726 58.4219C168.312 58.4219 168.819 58.5508 169.249 58.8086C169.679 59.0664 170.011 59.4284 170.245 59.8945C170.482 60.3607 170.601 60.9036 170.601 61.5234C170.601 62.1432 170.482 62.6849 170.245 63.1484C170.011 63.612 169.679 63.9727 169.249 64.2305C168.819 64.4883 168.312 64.6172 167.726 64.6172ZM167.733 63.4844C168.051 63.4844 168.317 63.3971 168.53 63.2227C168.744 63.0456 168.903 62.8086 169.007 62.5117C169.114 62.2148 169.167 61.8841 169.167 61.5195C169.167 61.1523 169.114 60.8203 169.007 60.5234C168.903 60.224 168.744 59.9857 168.53 59.8086C168.317 59.6315 168.051 59.543 167.733 59.543C167.408 59.543 167.137 59.6315 166.921 59.8086C166.707 59.9857 166.547 60.224 166.44 60.5234C166.336 60.8203 166.284 61.1523 166.284 61.5195C166.284 61.8841 166.336 62.2148 166.44 62.5117C166.547 62.8086 166.707 63.0456 166.921 63.2227C167.137 63.3971 167.408 63.4844 167.733 63.4844ZM174.41 66.875C173.902 66.875 173.466 66.806 173.102 66.668C172.737 66.5326 172.444 66.3503 172.223 66.1211C172.001 65.8919 171.848 65.638 171.762 65.3594L173.035 65.0508C173.092 65.168 173.176 65.2839 173.285 65.3984C173.395 65.5156 173.542 65.612 173.727 65.6875C173.914 65.7656 174.15 65.8047 174.434 65.8047C174.835 65.8047 175.167 65.707 175.43 65.5117C175.693 65.319 175.824 65.0013 175.824 64.5586V63.4219H175.754C175.681 63.5677 175.574 63.7174 175.434 63.8711C175.296 64.0247 175.112 64.1536 174.883 64.2578C174.656 64.362 174.371 64.4141 174.027 64.4141C173.566 64.4141 173.148 64.306 172.773 64.0898C172.401 63.8711 172.104 63.5456 171.883 63.1133C171.664 62.6784 171.555 62.1341 171.555 61.4805C171.555 60.8216 171.664 60.2656 171.883 59.8125C172.104 59.3568 172.402 59.0117 172.777 58.7773C173.152 58.5404 173.57 58.4219 174.031 58.4219C174.383 58.4219 174.672 58.4818 174.898 58.6016C175.128 58.7187 175.31 58.8607 175.445 59.0273C175.581 59.1914 175.684 59.3464 175.754 59.4922H175.832V58.5H177.227V64.5977C177.227 65.1107 177.104 65.5352 176.859 65.8711C176.615 66.207 176.28 66.4583 175.855 66.625C175.431 66.7917 174.949 66.875 174.41 66.875ZM174.422 63.3047C174.721 63.3047 174.977 63.2318 175.187 63.0859C175.398 62.9401 175.559 62.7305 175.668 62.457C175.777 62.1836 175.832 61.8555 175.832 61.4727C175.832 61.0951 175.777 60.7643 175.668 60.4805C175.561 60.1966 175.402 59.9766 175.191 59.8203C174.983 59.6615 174.727 59.582 174.422 59.582C174.107 59.582 173.844 59.6641 173.633 59.8281C173.422 59.9922 173.263 60.2174 173.156 60.5039C173.049 60.7878 172.996 61.1107 172.996 61.4727C172.996 61.8398 173.049 62.1615 173.156 62.4375C173.266 62.7109 173.426 62.9245 173.637 63.0781C173.85 63.2292 174.112 63.3047 174.422 63.3047ZM180.09 56.5V64.5H178.676V56.5H180.09ZM184.2 64.6172C183.599 64.6172 183.079 64.4922 182.642 64.2422C182.207 63.9896 181.872 63.6328 181.638 63.1719C181.403 62.7083 181.286 62.1628 181.286 61.5352C181.286 60.918 181.403 60.3763 181.638 59.9102C181.875 59.4414 182.205 59.0768 182.63 58.8164C183.054 58.5534 183.553 58.4219 184.126 58.4219C184.496 58.4219 184.845 58.4818 185.173 58.6016C185.504 58.7187 185.795 58.901 186.048 59.1484C186.303 59.3958 186.504 59.7109 186.649 60.0937C186.795 60.474 186.868 60.9271 186.868 61.4531V61.8867H181.95V60.9336H185.513C185.51 60.6628 185.451 60.4219 185.337 60.2109C185.222 59.9974 185.062 59.8294 184.856 59.707C184.653 59.5846 184.416 59.5234 184.146 59.5234C183.856 59.5234 183.603 59.5937 183.384 59.7344C183.165 59.8724 182.994 60.0547 182.872 60.2812C182.752 60.5052 182.691 60.7513 182.688 61.0195V61.8516C182.688 62.2005 182.752 62.5 182.88 62.75C183.007 62.9974 183.186 63.1875 183.415 63.3203C183.644 63.4505 183.912 63.5156 184.22 63.5156C184.425 63.5156 184.612 63.487 184.778 63.4297C184.945 63.3698 185.09 63.2826 185.212 63.168C185.334 63.0534 185.427 62.9115 185.489 62.7422L186.81 62.8906C186.726 63.2396 186.567 63.5443 186.333 63.8047C186.101 64.0625 185.804 64.263 185.442 64.4062C185.08 64.5469 184.666 64.6172 184.2 64.6172ZM197.703 59.1992H196.242C196.201 58.9596 196.124 58.7474 196.012 58.5625C195.9 58.375 195.76 58.2161 195.594 58.0859C195.427 57.9557 195.237 57.8581 195.023 57.793C194.813 57.7253 194.585 57.6914 194.34 57.6914C193.905 57.6914 193.52 57.8008 193.184 58.0195C192.848 58.2357 192.585 58.5534 192.395 58.9727C192.204 59.3893 192.109 59.8984 192.109 60.5C192.109 61.112 192.204 61.6276 192.395 62.0469C192.587 62.4635 192.85 62.7786 193.184 62.9922C193.52 63.2031 193.904 63.3086 194.336 63.3086C194.576 63.3086 194.799 63.2773 195.008 63.2148C195.219 63.1497 195.408 63.0547 195.574 62.9297C195.743 62.8047 195.885 62.651 196 62.4687C196.117 62.2865 196.198 62.0781 196.242 61.8437L197.703 61.8516C197.648 62.2318 197.53 62.5885 197.348 62.9219C197.168 63.2552 196.932 63.5495 196.641 63.8047C196.349 64.0573 196.008 64.2552 195.617 64.3984C195.227 64.5391 194.793 64.6094 194.316 64.6094C193.613 64.6094 192.986 64.4466 192.434 64.1211C191.882 63.7956 191.447 63.3255 191.129 62.7109C190.811 62.0964 190.652 61.3594 190.652 60.5C190.652 59.638 190.813 58.901 191.133 58.2891C191.453 57.6745 191.889 57.2044 192.441 56.8789C192.993 56.5534 193.618 56.3906 194.316 56.3906C194.762 56.3906 195.176 56.4531 195.559 56.5781C195.941 56.7031 196.283 56.8867 196.582 57.1289C196.882 57.3685 197.128 57.6628 197.32 58.0117C197.516 58.3581 197.643 58.7539 197.703 59.1992ZM201.585 64.6172C200.999 64.6172 200.491 64.4883 200.062 64.2305C199.632 63.9727 199.299 63.612 199.062 63.1484C198.827 62.6849 198.71 62.1432 198.71 61.5234C198.71 60.9036 198.827 60.3607 199.062 59.8945C199.299 59.4284 199.632 59.0664 200.062 58.8086C200.491 58.5508 200.999 58.4219 201.585 58.4219C202.171 58.4219 202.679 58.5508 203.108 58.8086C203.538 59.0664 203.87 59.4284 204.104 59.8945C204.341 60.3607 204.46 60.9036 204.46 61.5234C204.46 62.1432 204.341 62.6849 204.104 63.1484C203.87 63.612 203.538 63.9727 203.108 64.2305C202.679 64.4883 202.171 64.6172 201.585 64.6172ZM201.593 63.4844C201.91 63.4844 202.176 63.3971 202.39 63.2227C202.603 63.0456 202.762 62.8086 202.866 62.5117C202.973 62.2148 203.026 61.8841 203.026 61.5195C203.026 61.1523 202.973 60.8203 202.866 60.5234C202.762 60.224 202.603 59.9857 202.39 59.8086C202.176 59.6315 201.91 59.543 201.593 59.543C201.267 59.543 200.996 59.6315 200.78 59.8086C200.567 59.9857 200.407 60.224 200.3 60.5234C200.196 60.8203 200.144 61.1523 200.144 61.5195C200.144 61.8841 200.196 62.2148 200.3 62.5117C200.407 62.8086 200.567 63.0456 200.78 63.2227C200.996 63.3971 201.267 63.4844 201.593 63.4844ZM207.074 60.9844V64.5H205.66V58.5H207.012V59.5195H207.082C207.22 59.1836 207.44 58.9167 207.742 58.7187C208.047 58.5208 208.423 58.4219 208.871 58.4219C209.285 58.4219 209.646 58.5104 209.953 58.6875C210.263 58.8646 210.503 59.1211 210.672 59.457C210.844 59.793 210.928 60.2005 210.926 60.6797V64.5H209.512V60.8984C209.512 60.4974 209.408 60.1836 209.199 59.957C208.993 59.7305 208.708 59.6172 208.344 59.6172C208.096 59.6172 207.876 59.6719 207.684 59.7812C207.493 59.888 207.344 60.043 207.234 60.2461C207.128 60.4492 207.074 60.6953 207.074 60.9844ZM215.359 58.5V59.5937H211.91V58.5H215.359ZM212.762 57.0625H214.176V62.6953C214.176 62.8854 214.204 63.0313 214.262 63.1328C214.322 63.2318 214.4 63.2995 214.496 63.3359C214.592 63.3724 214.699 63.3906 214.816 63.3906C214.905 63.3906 214.986 63.3841 215.059 63.3711C215.134 63.3581 215.191 63.3464 215.23 63.3359L215.469 64.4414C215.393 64.4674 215.285 64.4961 215.145 64.5273C215.007 64.5586 214.837 64.5768 214.637 64.582C214.283 64.5924 213.964 64.5391 213.68 64.4219C213.396 64.3021 213.171 64.1172 213.004 63.8672C212.84 63.6172 212.759 63.3047 212.762 62.9297V57.0625ZM218.269 64.6211C217.888 64.6211 217.546 64.5534 217.241 64.418C216.939 64.2799 216.7 64.0768 216.522 63.8086C216.348 63.5404 216.261 63.2096 216.261 62.8164C216.261 62.4779 216.323 62.1979 216.448 61.9766C216.573 61.7552 216.744 61.5781 216.96 61.4453C217.176 61.3125 217.42 61.2122 217.69 61.1445C217.964 61.0742 218.246 61.0234 218.538 60.9922C218.89 60.9557 219.175 60.9232 219.394 60.8945C219.612 60.8633 219.771 60.8164 219.87 60.7539C219.972 60.6888 220.022 60.5885 220.022 60.4531V60.4297C220.022 60.1354 219.935 59.9076 219.761 59.7461C219.586 59.5846 219.335 59.5039 219.007 59.5039C218.66 59.5039 218.386 59.5794 218.183 59.7305C217.982 59.8815 217.847 60.0599 217.776 60.2656L216.456 60.0781C216.56 59.7135 216.732 59.4089 216.972 59.1641C217.211 58.9167 217.504 58.7318 217.851 58.6094C218.197 58.4844 218.58 58.4219 218.999 58.4219C219.288 58.4219 219.576 58.4557 219.862 58.5234C220.149 58.5911 220.41 58.7031 220.647 58.8594C220.884 59.013 221.075 59.2227 221.218 59.4883C221.364 59.7539 221.437 60.0859 221.437 60.4844V64.5H220.077V63.6758H220.03C219.944 63.8424 219.823 63.9987 219.667 64.1445C219.513 64.2878 219.319 64.4036 219.085 64.4922C218.853 64.5781 218.581 64.6211 218.269 64.6211ZM218.636 63.582C218.92 63.582 219.166 63.526 219.374 63.4141C219.582 63.2995 219.743 63.1484 219.854 62.9609C219.969 62.7734 220.026 62.569 220.026 62.3477V61.6406C219.982 61.6771 219.907 61.7109 219.8 61.7422C219.696 61.7734 219.578 61.8008 219.448 61.8242C219.318 61.8477 219.189 61.8685 219.062 61.8867C218.934 61.9049 218.823 61.9206 218.729 61.9336C218.519 61.9622 218.33 62.0091 218.163 62.0742C217.996 62.1393 217.865 62.2305 217.769 62.3477C217.672 62.4622 217.624 62.6107 217.624 62.793C217.624 63.0534 217.719 63.25 217.909 63.3828C218.099 63.5156 218.341 63.582 218.636 63.582ZM225.476 64.6172C224.877 64.6172 224.362 64.4857 223.933 64.2227C223.506 63.9596 223.176 63.5964 222.944 63.1328C222.715 62.6667 222.601 62.1302 222.601 61.5234C222.601 60.9141 222.718 60.3763 222.952 59.9102C223.187 59.4414 223.517 59.0768 223.944 58.8164C224.374 58.5534 224.882 58.4219 225.468 58.4219C225.955 58.4219 226.386 58.5117 226.761 58.6914C227.138 58.8685 227.439 59.1198 227.663 59.4453C227.887 59.7682 228.015 60.1458 228.046 60.5781H226.694C226.64 60.2891 226.509 60.0482 226.304 59.8555C226.101 59.6602 225.828 59.5625 225.487 59.5625C225.198 59.5625 224.944 59.6406 224.726 59.7969C224.507 59.9505 224.336 60.1719 224.214 60.4609C224.094 60.75 224.034 61.0964 224.034 61.5C224.034 61.9089 224.094 62.2604 224.214 62.5547C224.334 62.8464 224.502 63.0716 224.718 63.2305C224.937 63.3867 225.193 63.4648 225.487 63.4648C225.696 63.4648 225.882 63.4258 226.046 63.3477C226.213 63.2669 226.352 63.151 226.464 63C226.576 62.849 226.653 62.6654 226.694 62.4492H228.046C228.012 62.8737 227.887 63.25 227.671 63.5781C227.455 63.9036 227.16 64.1589 226.788 64.3437C226.416 64.526 225.978 64.6172 225.476 64.6172ZM232.203 58.5V59.5937H228.754V58.5H232.203ZM229.605 57.0625H231.02V62.6953C231.02 62.8854 231.048 63.0313 231.105 63.1328C231.165 63.2318 231.243 63.2995 231.34 63.3359C231.436 63.3724 231.543 63.3906 231.66 63.3906C231.749 63.3906 231.829 63.3841 231.902 63.3711C231.978 63.3581 232.035 63.3464 232.074 63.3359L232.313 64.4414C232.237 64.4674 232.129 64.4961 231.988 64.5273C231.85 64.5586 231.681 64.5768 231.48 64.582C231.126 64.5924 230.807 64.5391 230.523 64.4219C230.24 64.3021 230.014 64.1172 229.848 63.8672C229.684 63.6172 229.603 63.3047 229.605 62.9297V57.0625ZM238.042 60.0859L236.753 60.2266C236.716 60.0964 236.653 59.974 236.562 59.8594C236.473 59.7448 236.353 59.6523 236.202 59.582C236.051 59.5117 235.866 59.4766 235.647 59.4766C235.353 59.4766 235.106 59.5404 234.905 59.668C234.707 59.7956 234.61 59.9609 234.612 60.1641C234.61 60.3385 234.674 60.4805 234.804 60.5898C234.937 60.6992 235.155 60.7891 235.46 60.8594L236.483 61.0781C237.051 61.2005 237.473 61.3945 237.749 61.6602C238.028 61.9258 238.168 62.2734 238.171 62.7031C238.168 63.0807 238.058 63.4141 237.839 63.7031C237.623 63.9896 237.322 64.2135 236.937 64.375C236.551 64.5365 236.108 64.6172 235.608 64.6172C234.874 64.6172 234.283 64.4635 233.835 64.1562C233.387 63.8464 233.12 63.4154 233.034 62.8633L234.413 62.7305C234.476 63.0013 234.608 63.2057 234.812 63.3437C235.015 63.4818 235.279 63.5508 235.604 63.5508C235.94 63.5508 236.21 63.4818 236.413 63.3437C236.619 63.2057 236.722 63.0352 236.722 62.832C236.722 62.6602 236.655 62.5182 236.522 62.4062C236.392 62.2943 236.189 62.2083 235.913 62.1484L234.89 61.9336C234.314 61.8138 233.888 61.612 233.612 61.3281C233.336 61.0417 233.2 60.6797 233.202 60.2422C233.2 59.8724 233.3 59.5521 233.503 59.2812C233.709 59.0078 233.994 58.7969 234.358 58.6484C234.726 58.4974 235.149 58.4219 235.628 58.4219C236.331 58.4219 236.884 58.5716 237.288 58.8711C237.694 59.1706 237.946 59.5755 238.042 60.0859Z" fill="white"/>
<path d="M162.204 93.5C162.204 94.362 162.042 95.1003 161.719 95.7148C161.399 96.3268 160.961 96.7956 160.407 97.1211C159.855 97.4466 159.228 97.6094 158.528 97.6094C157.827 97.6094 157.2 97.4466 156.645 97.1211C156.093 96.793 155.655 96.3229 155.333 95.7109C155.012 95.0964 154.852 94.3594 154.852 93.5C154.852 92.638 155.012 91.901 155.333 91.2891C155.655 90.6745 156.093 90.2044 156.645 89.8789C157.2 89.5534 157.827 89.3906 158.528 89.3906C159.228 89.3906 159.855 89.5534 160.407 89.8789C160.961 90.2044 161.399 90.6745 161.719 91.2891C162.042 91.901 162.204 92.638 162.204 93.5ZM160.747 93.5C160.747 92.8932 160.652 92.3815 160.461 91.9648C160.274 91.5456 160.014 91.2292 159.68 91.0156C159.347 90.7995 158.963 90.6914 158.528 90.6914C158.093 90.6914 157.709 90.7995 157.375 91.0156C157.042 91.2292 156.78 91.5456 156.59 91.9648C156.403 92.3815 156.309 92.8932 156.309 93.5C156.309 94.1068 156.403 94.6198 156.59 95.0391C156.78 95.4557 157.042 95.7721 157.375 95.9883C157.709 96.2018 158.093 96.3086 158.528 96.3086C158.963 96.3086 159.347 96.2018 159.68 95.9883C160.014 95.7721 160.274 95.4557 160.461 95.0391C160.652 94.6198 160.747 94.1068 160.747 93.5ZM170.148 89.5V97.5H168.859L165.089 92.0508H165.023V97.5H163.574V89.5H164.871L168.636 94.9531H168.707V89.5H170.148ZM171.727 97.5V89.5H176.93V90.7148H173.176V92.8867H176.661V94.1016H173.176V96.2852H176.961V97.5H171.727ZM178.409 97.5V89.5H179.858V96.2852H183.381V97.5H178.409ZM186.088 89.5V97.5H184.639V89.5H186.088ZM194.232 89.5V97.5H192.943L189.173 92.0508H189.107V97.5H187.658V89.5H188.955L192.72 94.9531H192.791V89.5H194.232ZM195.811 97.5V89.5H201.014V90.7148H197.26V92.8867H200.745V94.1016H197.26V96.2852H201.045V97.5H195.811ZM212.069 92.1992H210.608C210.566 91.9596 210.489 91.7474 210.377 91.5625C210.265 91.375 210.126 91.2161 209.959 91.0859C209.793 90.9557 209.603 90.8581 209.389 90.793C209.178 90.7253 208.95 90.6914 208.706 90.6914C208.271 90.6914 207.885 90.8008 207.549 91.0195C207.213 91.2357 206.95 91.5534 206.76 91.9727C206.57 92.3893 206.475 92.8984 206.475 93.5C206.475 94.112 206.57 94.6276 206.76 95.0469C206.953 95.4635 207.216 95.7786 207.549 95.9922C207.885 96.2031 208.269 96.3086 208.702 96.3086C208.941 96.3086 209.165 96.2773 209.374 96.2148C209.584 96.1497 209.773 96.0547 209.94 95.9297C210.109 95.8047 210.251 95.651 210.366 95.4687C210.483 95.2865 210.564 95.0781 210.608 94.8437L212.069 94.8516C212.014 95.2318 211.896 95.5885 211.713 95.9219C211.534 96.2552 211.298 96.5495 211.006 96.8047C210.715 97.0573 210.374 97.2552 209.983 97.3984C209.592 97.5391 209.159 97.6094 208.682 97.6094C207.979 97.6094 207.351 97.4466 206.799 97.1211C206.247 96.7956 205.812 96.3255 205.495 95.7109C205.177 95.0964 205.018 94.3594 205.018 93.5C205.018 92.638 205.178 91.901 205.499 91.2891C205.819 90.6745 206.255 90.2044 206.807 89.8789C207.359 89.5534 207.984 89.3906 208.682 89.3906C209.127 89.3906 209.542 89.4531 209.924 89.5781C210.307 89.7031 210.648 89.8867 210.948 90.1289C211.247 90.3685 211.493 90.6628 211.686 91.0117C211.881 91.3581 212.009 91.7539 212.069 92.1992ZM213.396 97.5V89.5H216.396C217.011 89.5 217.526 89.6068 217.943 89.8203C218.362 90.0339 218.679 90.3333 218.892 90.7187C219.108 91.1016 219.216 91.5482 219.216 92.0586C219.216 92.5716 219.107 93.0169 218.888 93.3945C218.672 93.7695 218.353 94.0599 217.931 94.2656C217.509 94.4687 216.991 94.5703 216.376 94.5703H214.24V93.3672H216.181C216.541 93.3672 216.835 93.3177 217.064 93.2187C217.293 93.1172 217.462 92.9701 217.572 92.7773C217.684 92.582 217.74 92.3424 217.74 92.0586C217.74 91.7747 217.684 91.5326 217.572 91.332C217.46 91.1289 217.289 90.9753 217.06 90.8711C216.831 90.7643 216.535 90.7109 216.173 90.7109H214.845V97.5H213.396ZM217.529 93.875L219.509 97.5H217.892L215.947 93.875H217.529ZM220.55 89.5H222.324L224.699 95.2969H224.792L227.167 89.5H228.941V97.5H227.55V92.0039H227.476L225.265 97.4766H224.226L222.015 91.9922H221.941V97.5H220.55V89.5Z" fill="white"/>
</svg>
