<svg width="146" height="58" viewBox="0 0 146 58" fill="none" xmlns="http://www.w3.org/2000/svg">
<rect x="0.5" width="145" height="58" rx="7" fill="#F1F3F8"/>
<ellipse cx="30" cy="27" rx="13.5" ry="14" fill="#D8DEE8"/>
<rect x="61.5" y="11" width="62" height="7" rx="3" fill="#D8DEE8"/>
<rect x="61.5" y="11" width="62" height="7" rx="3" fill="#D8DEE8"/>
<rect x="61.5" y="11" width="62" height="7" rx="3" fill="#D8DEE8"/>
<rect x="61.5" y="23" width="49" height="6" rx="3" fill="#D8DEE8"/>
<rect x="61.5" y="23" width="49" height="6" rx="3" fill="#D8DEE8"/>
<rect x="61.5" y="23" width="49" height="6" rx="3" fill="#D8DEE8"/>
<rect x="61.5" y="37" width="23" height="9" rx="3" fill="#D8DEE8"/>
<rect x="61.5" y="37" width="23" height="9" rx="3" fill="#D8DEE8"/>
<rect x="61.5" y="37" width="23" height="9" rx="3" fill="#D8DEE8"/>
<rect x="88.5" y="37" width="24" height="9" rx="3" fill="#D8DEE8"/>
<rect x="88.5" y="37" width="24" height="9" rx="3" fill="#D8DEE8"/>
<rect x="88.5" y="37" width="24" height="9" rx="3" fill="#D8DEE8"/>
</svg>
