<svg width="61" height="72" viewBox="0 0 61 72" fill="none" xmlns="http://www.w3.org/2000/svg">
<path d="M19.5023 13.9223C18.3294 16.7217 18.0816 19.8997 16.4618 22.4694C14.0047 26.3686 9.09664 27.8757 5.51043 30.7868C1.94549 33.683 -0.318891 38.2501 0.0366006 42.8073C0.392093 47.3645 3.58151 51.7044 7.99887 53.0054C9.52974 53.4573 11.1908 53.5702 12.5689 54.3709C15.6419 56.1561 16.1063 60.5444 18.8577 62.7864C21.3186 64.7913 24.9361 64.543 27.9803 63.6194C31.0245 62.6958 33.9498 61.1962 37.1279 61.0062C39.0231 60.8933 40.9295 61.2545 42.8171 61.0596C45.2229 60.8113 47.4334 59.6767 49.5489 58.5123C53.2277 56.4863 57.1844 53.7775 57.7965 49.6486C58.4975 44.8916 54.3768 40.5777 54.4419 35.7698C54.4719 33.5352 55.4183 31.3839 55.5059 29.1456C55.6311 26.0583 53.9637 22.9634 51.3126 21.3422C49.1433 20.0139 46.4997 19.6712 44.2328 18.5155C41.1598 16.9488 39.0456 14.0464 36.4382 11.802C31.7205 7.74136 22.2361 7.39253 19.5023 13.9223Z" fill="#CBE4FB"/>
<path d="M39.5086 28.1488C39.9042 27.5889 40.7366 27.4958 41.3862 27.7279C42.0359 27.9601 42.5566 28.4393 43.0961 28.8651C43.6356 29.2909 44.2565 29.6856 44.9462 29.6968C45.2216 29.6968 45.5007 29.6422 45.7723 29.6894C46.0222 29.7416 46.2461 29.8782 46.4059 30.0758C46.5657 30.2734 46.6514 30.5198 46.6485 30.7731C44.6679 30.6605 42.6833 30.9131 40.7954 31.5179C39.8654 31.8159 38.7927 32.1846 37.9703 31.6557C37.6636 31.4571 37.427 31.1468 37.084 31.0214C36.3768 30.7632 35.582 31.3938 34.8647 31.1567C34.5555 31.0524 34.3252 30.8017 34.0523 30.6217C33.1498 30.027 31.8969 30.279 30.943 29.7688C30.8621 29.7344 30.7893 29.6835 30.7296 29.6193C30.6698 29.5551 30.6244 29.4792 30.5963 29.3964C30.5462 29.1605 30.7565 28.9346 30.9906 28.8663C31.2247 28.798 31.4738 28.8378 31.7166 28.8551C32.34 28.8964 32.9632 28.773 33.5229 28.4976C33.7582 28.3809 34.0023 28.2332 34.2626 28.2704C34.7796 28.3437 35.1601 29.1047 35.6245 28.8713C35.2853 29.0413 35.4117 27.9092 35.4718 27.7999C35.6671 27.4511 36.303 27.2053 36.6697 27.1122C37.7087 26.8453 38.9191 27.2438 39.5086 28.1488Z" fill="#C2DCF3"/>
<path d="M39.5086 28.1488C39.9042 27.5889 40.7366 27.4958 41.3862 27.7279C42.0359 27.9601 42.5566 28.4393 43.0961 28.8651C43.6356 29.2909 44.2565 29.6856 44.9462 29.6968C45.2216 29.6968 45.5007 29.6422 45.7723 29.6894C46.0222 29.7416 46.2461 29.8782 46.4059 30.0758C46.5657 30.2734 46.6514 30.5198 46.6485 30.7731C44.6679 30.6605 42.6833 30.9131 40.7954 31.5179C39.8654 31.8159 38.7927 32.1846 37.9703 31.6557C37.6636 31.4571 37.427 31.1468 37.084 31.0214C36.3768 30.7632 35.582 31.3938 34.8647 31.1567C34.5555 31.0524 34.3252 30.8017 34.0523 30.6217C33.1498 30.027 31.8969 30.279 30.943 29.7688C30.8621 29.7344 30.7893 29.6835 30.7296 29.6193C30.6698 29.5551 30.6244 29.4792 30.5963 29.3964C30.5462 29.1605 30.7565 28.9346 30.9906 28.8663C31.2247 28.798 31.4738 28.8378 31.7166 28.8551C32.34 28.8964 32.9632 28.773 33.5229 28.4976C33.7582 28.3809 34.0023 28.2332 34.2626 28.2704C34.7796 28.3437 35.1601 29.1047 35.6245 28.8713C35.2853 29.0413 35.4117 27.9092 35.4718 27.7999C35.6671 27.4511 36.303 27.2053 36.6697 27.1122C37.7087 26.8453 38.9191 27.2438 39.5086 28.1488Z" fill="url(#paint0_linear_8_28)"/>
<path d="M32.2975 0L18.8877 14.1681H25.07V28.1078H38.6838V14.0539H44.5495L32.2975 0Z" fill="#CBE4FB"/>
<path d="M2.74658 27.0936L11.0218 18.086L19.5699 26.9173H14.3201V38.2898H7.03251V27.0936H2.74658Z" fill="#CBE4FB"/>
<path d="M44.1689 22.5141L52.4442 13.5065L60.9922 22.3378H55.7425V33.7103H48.4549V22.5141H44.1689Z" fill="#CBE4FB"/>
<path d="M30.3222 39.4146C30.3222 39.4146 30.3322 50.5263 29.834 51.5666C29.4422 52.3847 26.015 53.5889 24.5692 54.0668C24.1774 54.1972 23.9296 54.2729 23.9296 54.2729L24.2075 48.9696C24.0937 49.6875 23.9153 50.3938 23.6743 51.08C23.3375 51.9875 22.8306 52.7944 22.1196 52.5697C20.6263 52.0992 20.2057 51.8248 20.2057 51.8248L19.5698 49.5903C19.5698 49.5903 21.9606 48.5202 22.0057 47.2205C22.0508 45.9207 22.8156 42.0302 24.8922 41.1711L25.3203 40.9936L26.9688 40.3121C26.9688 40.3121 28.3457 36.1 28.0478 32.5645C27.7499 29.029 28.0478 28.4989 28.0478 28.4989H30.1457C30.1457 28.4989 30.2859 32.1201 30.3222 33.1306C30.3585 34.1411 30.3222 39.4146 30.3222 39.4146Z" fill="#3F3D56"/>
<path d="M28.7713 37.4792C28.5398 38.3991 28.1743 39.2792 27.81 40.1556C27.6223 40.5281 27.5096 41.3424 27.1266 41.5833C26.7185 41.8402 25.9662 41.294 25.5819 41.1227C25.4956 41.083 25.4067 41.042 25.3203 40.9986L26.9688 40.317C26.9688 40.317 28.3458 36.1049 28.0478 32.5694C27.7499 29.0339 28.0478 28.5038 28.0478 28.5038H28.2606C28.2946 28.5203 28.3262 28.5412 28.3545 28.5659C28.5611 28.741 28.5911 29.0414 28.6049 29.3108C28.6524 30.0854 28.6987 30.87 28.5473 31.6309C28.4539 31.9867 28.3799 32.3473 28.3257 32.711C28.2932 33.0772 28.3583 33.4719 28.6036 33.7475C28.7188 33.8717 28.8715 33.9759 28.9541 34.1274C29.018 34.2616 29.0501 34.4085 29.048 34.5569C29.1032 35.5392 29.01 36.5242 28.7713 37.4792Z" fill="#25233A"/>
<path d="M25.2165 52.9471C25.1132 53.1121 25.0293 53.2883 24.9661 53.4722C24.9491 53.5575 24.9227 53.6408 24.8873 53.7204C24.85 53.7838 24.8031 53.8412 24.7483 53.8905L24.5681 54.0718C24.1763 54.2021 23.9284 54.2778 23.9284 54.2778L24.2063 48.9746C24.0926 49.6924 23.9141 50.3987 23.6731 51.0849C23.767 50.1613 24.0837 48.8219 24.0962 48.2794C24.1175 47.5012 24.2537 46.7304 24.5005 45.9915C24.702 46.1317 24.7684 46.3924 24.8059 46.632C24.9536 47.5631 24.9036 48.5289 25.1814 49.4301C25.3629 50.0198 25.6821 50.5784 25.7234 51.1954C25.7647 51.8124 25.5169 52.407 25.2165 52.9471Z" fill="#25233A"/>
<path d="M25.0286 49.9876L24.0109 50.9571C23.9583 51.0073 23.8906 51.0391 23.8182 51.0477L17.6934 51.7926C17.615 51.8027 17.5355 51.785 17.469 51.7425C17.4026 51.7 17.3535 51.6355 17.3304 51.5604L15.9247 47.0231C15.9105 46.9762 15.9068 46.9267 15.9139 46.8781C15.921 46.8296 15.9387 46.7832 15.9657 46.7422C15.9928 46.7011 16.0286 46.6665 16.0706 46.6406C16.1126 46.6147 16.1598 46.5982 16.2089 46.5924L21.8917 45.9506C21.9697 45.9416 22.0483 45.9601 22.114 46.0028C22.1796 46.0454 22.2281 46.1095 22.251 46.1839L23.1785 49.177C23.2211 49.3172 23.2561 49.4128 23.2561 49.4128H24.7983C24.8652 49.4134 24.9304 49.4337 24.9856 49.4712C25.0408 49.5088 25.0835 49.5617 25.1083 49.6234C25.133 49.6851 25.1386 49.7527 25.1244 49.8175C25.1102 49.8824 25.0769 49.9416 25.0286 49.9876Z" fill="#EAEAEA"/>
<path d="M27.9727 27.5269C27.9649 27.4869 27.9669 27.4456 27.9784 27.4066C27.9899 27.3675 28.0107 27.3317 28.039 27.3022C28.0715 27.2821 28.1096 27.2727 28.1479 27.2753C28.1861 27.278 28.2225 27.2926 28.2518 27.3171C28.3109 27.3659 28.358 27.4275 28.3895 27.4971L28.5535 27.7913C28.5917 27.8732 28.6477 27.9457 28.7175 28.0036C28.8366 28.0681 28.9737 28.0925 29.108 28.0731L29.7764 28.0445C29.8051 28.0413 29.8342 28.0461 29.8603 28.0582C29.8781 28.0732 29.8916 28.0925 29.8995 28.1143C29.9074 28.1361 29.9094 28.1595 29.9054 28.1823C29.9029 28.2902 29.8764 28.3962 29.8278 28.4927L29.0767 28.52C28.8702 28.5274 28.5472 28.6019 28.3507 28.5399C28.0528 28.4418 27.9865 27.7901 27.9727 27.5269Z" fill="url(#paint1_linear_8_28)"/>
<path d="M30.0757 63.9136C30.0056 64.332 29.3247 66.2648 29.3247 66.2648L28.8115 65.9346L28.1393 65.5026C28.1393 65.5026 29.3622 59.9535 29.2533 59.3862C29.1444 58.8189 28.2933 57.3528 28.2933 57.3528L27.71 70.7066L26.2079 71.2813C26.2079 71.2813 23.7895 56.8736 23.926 54.2741L29.8304 51.5679C29.8304 51.5679 31.5828 56.6837 31.7931 57.765C32.0034 58.8462 30.1471 63.4953 30.0757 63.9136Z" fill="#B5B6B7"/>
<path d="M27.8713 66.9873L30.5 68.6335C30.5 68.6335 30.8092 68.1294 30.321 67.4938C29.8328 66.8582 29.3196 66.2648 29.3196 66.2648L28.1317 65.5026L27.8713 66.9873Z" fill="#3F3D56"/>
<path d="M30.5938 58.6364L28.8115 65.9346L28.1393 65.5026C28.1393 65.5026 29.3622 59.9535 29.2533 59.3862C29.1444 58.8189 28.2933 57.3528 28.2933 57.3528C28.2933 57.3528 28.9866 56.1337 29.2332 56.3944C29.4798 56.6551 30.5938 58.6364 30.5938 58.6364Z" fill="url(#paint2_linear_8_28)"/>
<path d="M24.9422 53.8086L26.5219 71.1622L26.2115 71.2863C26.2115 71.2863 23.7969 56.8128 23.9296 54.2791L24.9422 53.8086Z" fill="url(#paint3_linear_8_28)"/>
<path d="M24.796 49.4078L23.6106 50.4928L23.1785 49.177C23.2211 49.3172 23.2561 49.4128 23.2561 49.4128L24.796 49.4078Z" fill="url(#paint4_linear_8_28)"/>
<path d="M15.9248 47.0281L21.5714 46.4161C21.667 46.4057 21.7634 46.4278 21.8448 46.4787C21.9262 46.5297 21.9878 46.6065 22.0195 46.6966L23.5729 51.0775L17.6897 51.7975L15.9248 47.0281Z" fill="url(#paint5_linear_8_28)"/>
<path d="M26.7772 39.2172C26.632 39.5375 26.9688 40.317 26.9688 40.317C26.9688 40.317 27.333 41.0085 27.2103 41.7062C27.2103 41.7397 27.1966 41.7745 27.1891 41.808C27.0063 42.5392 24.6656 41.7658 24.7369 40.7441C24.8083 39.7224 23.6692 37.118 23.6692 37.118C24.3376 34.192 26.5282 35.1193 26.7234 35.2757C26.9187 35.4321 27.6472 37.7449 27.4482 38.27C27.3916 38.4222 27.31 38.5639 27.2066 38.6896C27.0439 38.8932 26.8724 39.0074 26.7772 39.2172Z" fill="url(#paint6_linear_8_28)"/>
<path d="M26.7236 35.2782C26.7236 35.2782 27.0515 34.4688 26.7236 34.1808C26.3956 33.8927 25.8474 33.8158 25.2277 33.7897C24.6081 33.7636 24.4141 33.6581 23.9297 34.1808C23.4453 34.7034 23.2825 35.5215 22.9821 35.6618C22.6817 35.802 22.4189 36.2738 22.5766 36.7393C22.7343 37.2048 23.1298 37.9459 23.2087 37.9708C23.2876 37.9956 23.8283 38.5704 23.8546 38.9105C23.8809 39.2507 24.5781 39.4145 24.5781 39.4145L24.5393 38.0738C24.5393 38.0738 24.4604 38.4264 24.1312 38.1259C23.802 37.8255 24.2889 37.473 24.3277 37.4866C24.3666 37.5003 23.9522 36.7989 24.0837 36.4563C24.2151 36.1136 24.9699 34.2627 26.7236 35.2782Z" fill="#3F3D56"/>
<path d="M27.2105 41.7111C27.1896 41.7633 27.1581 41.8107 27.1178 41.8502C27.0553 41.9023 26.9797 41.9367 26.8991 41.9498C26.8185 41.9629 26.7358 41.9542 26.6597 41.9246C26.509 41.8621 26.3767 41.7626 26.2754 41.6354C26.046 41.372 25.88 41.0604 25.79 40.724C25.7 40.3876 25.6884 40.0353 25.7559 39.6938C25.7772 39.5694 25.8232 39.4504 25.8911 39.3438C26.0564 39.1054 26.3655 39.0198 26.6359 38.9093C26.9063 38.7988 27.1041 38.6188 27.2067 38.6945C27.044 38.8956 26.8725 39.0098 26.7774 39.2196C26.6322 39.5399 26.9689 40.3195 26.9689 40.3195C26.9689 40.3195 27.3331 41.0085 27.2105 41.7111Z" fill="url(#paint7_linear_8_28)"/>
<path d="M39.5362 35.6903C39.2859 36.8076 39.9668 38.049 41.0458 38.44C41.9533 38.769 42.9572 38.5294 43.9248 38.5306C45.6171 38.5306 47.2256 39.2904 48.9142 39.3996C50.0322 39.4705 51.1499 39.2569 52.1612 38.7789C52.7458 38.5021 53.3078 38.1346 53.9499 38.054C54.4882 37.9857 55.0502 38.1272 55.5709 37.9733C56.4559 37.7126 56.8978 36.5965 56.5786 35.7387C56.2594 34.8809 55.3469 34.331 54.4268 34.2491C53.5331 34.1746 52.6093 34.4775 51.7506 34.2217C50.7906 33.9362 50.1321 33.0151 49.1783 32.7072C47.7814 32.2578 46.3682 33.2485 45.2379 34.1795C45.117 33.8435 44.8974 33.551 44.6074 33.3399C44.3173 33.1288 43.9701 33.0088 43.6106 32.9952C42.8721 32.9803 42.1423 33.5886 41.4714 33.8642C40.5777 34.2441 39.7741 34.6513 39.5362 35.6903Z" fill="#C2DCF3"/>
<path d="M39.5362 35.6903C39.2859 36.8076 39.9668 38.049 41.0458 38.44C41.9533 38.769 42.9572 38.5294 43.9248 38.5306C45.6171 38.5306 47.2256 39.2904 48.9142 39.3996C50.0322 39.4705 51.1499 39.2569 52.1612 38.7789C52.7458 38.5021 53.3078 38.1346 53.9499 38.054C54.4882 37.9857 55.0502 38.1272 55.5709 37.9733C56.4559 37.7126 56.8978 36.5965 56.5786 35.7387C56.2594 34.8809 55.3469 34.331 54.4268 34.2491C53.5331 34.1746 52.6093 34.4775 51.7506 34.2217C50.7906 33.9362 50.1321 33.0151 49.1783 32.7072C47.7814 32.2578 46.3682 33.2485 45.2379 34.1795C45.117 33.8435 44.8974 33.551 44.6074 33.3399C44.3173 33.1288 43.9701 33.0088 43.6106 32.9952C42.8721 32.9803 42.1423 33.5886 41.4714 33.8642C40.5777 34.2441 39.7741 34.6513 39.5362 35.6903Z" fill="url(#paint8_linear_8_28)"/>
<path d="M19.7514 51.7851C19.8787 51.8107 20.0094 51.8154 20.1382 51.7988L20.8354 51.7503C20.9254 51.7471 21.0145 51.7325 21.1008 51.7069C21.1773 51.679 21.2459 51.633 21.3004 51.5728C21.3549 51.5127 21.3938 51.4402 21.4137 51.3618C21.4206 51.3387 21.4206 51.3141 21.4137 51.291C21.3899 51.2203 21.2885 51.2252 21.2222 51.2674C21.1558 51.3096 21.1108 51.3754 21.0369 51.3916C20.9972 51.395 20.9571 51.3904 20.9193 51.3779L20.525 51.2786C20.5028 51.2712 20.4794 51.2687 20.4561 51.2712C20.3698 51.2848 20.3622 51.404 20.376 51.4896C20.3494 51.4546 20.3153 51.4258 20.2761 51.4054C20.2369 51.385 20.1937 51.3735 20.1495 51.3717C20.1051 51.372 20.0626 51.3897 20.0312 51.4208C19.9998 51.4519 19.982 51.494 19.9817 51.5381L19.8265 51.4139C19.8052 51.3978 19.7764 51.3804 19.7527 51.3941C19.7413 51.4032 19.7333 51.4159 19.7301 51.4301L19.6775 51.5629C19.6913 51.5281 19.4798 51.4387 19.466 51.5629C19.4585 51.6696 19.6801 51.7665 19.7514 51.7851Z" fill="url(#paint9_linear_8_28)"/>
<defs>
<linearGradient id="paint0_linear_8_28" x1="33.9805" y1="-6.1904" x2="-12.5657" y2="40.0339" gradientUnits="userSpaceOnUse">
<stop stop-color="white" stop-opacity="0"/>
<stop offset="0.06" stop-color="white" stop-opacity="0.13"/>
<stop offset="0.16" stop-color="white" stop-opacity="0.33"/>
<stop offset="0.26" stop-color="white" stop-opacity="0.51"/>
<stop offset="0.37" stop-color="white" stop-opacity="0.66"/>
<stop offset="0.48" stop-color="white" stop-opacity="0.79"/>
<stop offset="0.59" stop-color="white" stop-opacity="0.88"/>
<stop offset="0.71" stop-color="white" stop-opacity="0.95"/>
<stop offset="0.84" stop-color="white" stop-opacity="0.99"/>
<stop offset="1" stop-color="white"/>
</linearGradient>
<linearGradient id="paint1_linear_8_28" x1="0.107533" y1="35.5479" x2="60.9285" y2="35.5479" gradientUnits="userSpaceOnUse">
<stop stop-color="#ECC4D7"/>
<stop offset="0.42" stop-color="#EFD4D1"/>
<stop offset="1" stop-color="#F2EAC9"/>
</linearGradient>
<linearGradient id="paint2_linear_8_28" x1="133.399" y1="20.2503" x2="-80.9347" y2="350.464" gradientUnits="userSpaceOnUse">
<stop stop-opacity="0.07"/>
<stop offset="0.08" stop-opacity="0.25"/>
<stop offset="1"/>
</linearGradient>
<linearGradient id="paint3_linear_8_28" x1="21935.9" y1="36189.2" x2="33827.4" y2="34718.9" gradientUnits="userSpaceOnUse">
<stop stop-opacity="0.07"/>
<stop offset="0.08" stop-opacity="0.25"/>
<stop offset="1"/>
</linearGradient>
<linearGradient id="paint4_linear_8_28" x1="23072.1" y1="28029.8" x2="19825.5" y2="30427.5" gradientUnits="userSpaceOnUse">
<stop stop-opacity="0.07"/>
<stop offset="0.08" stop-opacity="0.25"/>
<stop offset="1"/>
</linearGradient>
<linearGradient id="paint5_linear_8_28" x1="34.1097" y1="61.8188" x2="74.6105" y2="172.977" gradientUnits="userSpaceOnUse">
<stop stop-opacity="0.07"/>
<stop offset="0.52" stop-opacity="0.83"/>
<stop offset="0.56" stop-opacity="0.87"/>
<stop offset="1"/>
</linearGradient>
<linearGradient id="paint6_linear_8_28" x1="22623.2" y1="22140.8" x2="24481.1" y2="22140.8" gradientUnits="userSpaceOnUse">
<stop stop-color="#ECC4D7"/>
<stop offset="0.42" stop-color="#EFD4D1"/>
<stop offset="1" stop-color="#F2EAC9"/>
</linearGradient>
<linearGradient id="paint7_linear_8_28" x1="23557" y1="22056.7" x2="26979.9" y2="26589.5" gradientUnits="userSpaceOnUse">
<stop stop-color="#ECC4D7"/>
<stop offset="0.42" stop-color="#EFD4D1"/>
<stop offset="1" stop-color="#F2EAC9"/>
</linearGradient>
<linearGradient id="paint8_linear_8_28" x1="33.1501" y1="-3.25833" x2="-12.3672" y2="79.4435" gradientUnits="userSpaceOnUse">
<stop offset="0.02" stop-color="white" stop-opacity="0"/>
<stop offset="0.06" stop-color="white" stop-opacity="0.13"/>
<stop offset="0.13" stop-color="white" stop-opacity="0.33"/>
<stop offset="0.2" stop-color="white" stop-opacity="0.51"/>
<stop offset="0.27" stop-color="white" stop-opacity="0.66"/>
<stop offset="0.35" stop-color="white" stop-opacity="0.79"/>
<stop offset="0.43" stop-color="white" stop-opacity="0.88"/>
<stop offset="0.51" stop-color="white" stop-opacity="0.95"/>
<stop offset="0.6" stop-color="white" stop-opacity="0.99"/>
<stop offset="0.71" stop-color="white"/>
</linearGradient>
<linearGradient id="paint9_linear_8_28" x1="20576.3" y1="29586" x2="21527.2" y2="29586" gradientUnits="userSpaceOnUse">
<stop stop-color="#ECC4D7"/>
<stop offset="0.42" stop-color="#EFD4D1"/>
<stop offset="1" stop-color="#F2EAC9"/>
</linearGradient>
</defs>
</svg>
