<svg width="81" height="64" viewBox="0 0 81 64" fill="none" xmlns="http://www.w3.org/2000/svg">
<path d="M64.9922 28V36H80.9922V28H64.9922ZM56.9922 54.44C60.8322 57.28 65.8322 61.04 69.7922 64C71.3922 61.88 72.9922 59.72 74.5922 57.6C70.6322 54.64 65.6322 50.88 61.7922 48C60.1922 50.16 58.5922 52.32 56.9922 54.44ZM74.5922 6.4C72.9922 4.28 71.3922 2.12 69.7922 0C65.8322 2.96 60.8322 6.72 56.9922 9.6C58.5922 11.72 60.1922 13.88 61.7922 16C65.6322 13.12 70.6322 9.4 74.5922 6.4ZM8.99219 20C4.59219 20 0.992188 23.6 0.992188 28V36C0.992188 40.4 4.59219 44 8.99219 44H12.9922V60H20.9922V44H24.9922L44.9922 56V8L24.9922 20H8.99219ZM54.9922 32C54.9922 26.68 52.6722 21.88 48.9922 18.6V45.36C52.6722 42.12 54.9922 37.32 54.9922 32Z" fill="#D1D5DB"/>
</svg>
