<svg width="22" height="22" viewBox="0 0 22 22" fill="none" xmlns="http://www.w3.org/2000/svg">
<circle cx="11" cy="11" r="11" fill="#FEF3C7"/>
<path d="M8.0918 7.07626H11.3566V9.47256V9.62256H11.5066H13.9029V14.9244H8.0918V9.47256V7.07626ZM12.1219 5.80168L12.078 5.75775H12.0159H7.9418C7.62161 5.75775 7.34377 5.8735 7.1164 6.10087C6.88904 6.32824 6.77328 6.60607 6.77328 6.92626V15.0744C6.77328 15.3946 6.88904 15.6724 7.1164 15.8998C7.34377 16.1272 7.62161 16.2429 7.9418 16.2429H14.0529C14.3731 16.2429 14.6509 16.1272 14.8783 15.8998C15.1057 15.6724 15.2214 15.3946 15.2214 15.0744V8.9633V8.90117L15.1775 8.85723L12.1219 5.80168Z" fill="#F59E0B" stroke="#F59E0B" stroke-width="0.3"/>
</svg>
