<svg width="146" height="58" viewBox="0 0 146 58" fill="none" xmlns="http://www.w3.org/2000/svg">
<path d="M0.5 7C0.5 3.13401 3.63401 0 7.5 0H138.5C142.366 0 145.5 3.13401 145.5 7V51C145.5 54.866 142.366 58 138.5 58H7.5C3.63401 58 0.5 54.866 0.5 51V7Z" fill="#F1F3F8"/>
<rect x="11.5" y="11" width="62" height="7" rx="3" fill="#D8DEE8"/>
<rect x="11.5" y="11" width="62" height="7" rx="3" fill="#D8DEE8"/>
<rect x="11.5" y="11" width="62" height="7" rx="3" fill="#D8DEE8"/>
<rect x="11" y="44" width="19" height="7" rx="3" fill="#D8DEE8"/>
<rect x="11" y="44" width="19" height="7" rx="3" fill="#D8DEE8"/>
<rect x="11" y="44" width="19" height="7" rx="3" fill="#D8DEE8"/>
<rect x="12" y="23" width="100" height="16" rx="3" fill="#D8DEE8"/>
<rect x="12" y="23" width="100" height="16" rx="3" fill="#D8DEE8"/>
<rect x="12" y="23" width="100" height="16" rx="3" fill="#D8DEE8"/>
</svg>
