<svg width="163" height="24" viewBox="0 0 163 24" fill="none" xmlns="http://www.w3.org/2000/svg">
<path d="M17.5568 12.2727C17.5568 14.1761 17.196 15.7955 16.4744 17.1307C15.7585 18.4659 14.7813 19.4858 13.5426 20.1903C12.3097 20.8892 10.9233 21.2386 9.38352 21.2386C7.83239 21.2386 6.44034 20.8864 5.20739 20.1818C3.97443 19.4773 3 18.4574 2.28409 17.1222C1.56818 15.7869 1.21023 14.1705 1.21023 12.2727C1.21023 10.3693 1.56818 8.75 2.28409 7.41477C3 6.07955 3.97443 5.0625 5.20739 4.36364C6.44034 3.65909 7.83239 3.30682 9.38352 3.30682C10.9233 3.30682 12.3097 3.65909 13.5426 4.36364C14.7813 5.0625 15.7585 6.07955 16.4744 7.41477C17.196 8.75 17.5568 10.3693 17.5568 12.2727ZM13.8153 12.2727C13.8153 11.0398 13.6307 10 13.2614 9.15341C12.8977 8.30682 12.3835 7.66477 11.7188 7.22727C11.054 6.78977 10.2756 6.57102 9.38352 6.57102C8.49148 6.57102 7.71307 6.78977 7.0483 7.22727C6.38352 7.66477 5.86648 8.30682 5.49716 9.15341C5.13352 10 4.9517 11.0398 4.9517 12.2727C4.9517 13.5057 5.13352 14.5455 5.49716 15.392C5.86648 16.2386 6.38352 16.8807 7.0483 17.3182C7.71307 17.7557 8.49148 17.9744 9.38352 17.9744C10.2756 17.9744 11.054 17.7557 11.7188 17.3182C12.3835 16.8807 12.8977 16.2386 13.2614 15.392C13.6307 14.5455 13.8153 13.5057 13.8153 12.2727ZM34.8899 3.54545V21H31.7024L24.1087 10.0142H23.9808V21H20.2905V3.54545H23.5291L31.0632 14.5227H31.2166V3.54545H34.8899ZM37.9389 21V3.54545H49.7003V6.58807H41.6293V10.7472H49.0952V13.7898H41.6293V17.9574H49.7344V21H37.9389Z" fill="#6292F2"/>
<path d="M52.6342 21V3.54545H56.3246V17.9574H63.8075V21H52.6342ZM69.9418 3.54545V21H66.2514V3.54545H69.9418ZM87.5774 3.54545V21H84.3899L76.7962 10.0142H76.6683V21H72.978V3.54545H76.2166L83.7507 14.5227H83.9041V3.54545H87.5774ZM90.6264 21V3.54545H102.388V6.58807H94.3168V10.7472H101.783V13.7898H94.3168V17.9574H102.422V21H90.6264Z" fill="#163369"/>
<rect x="112" width="51" height="24" rx="5" fill="#EFF6FF"/>
<path d="M122.861 16V7.27273H126.202C126.832 7.27273 127.357 7.37216 127.774 7.57102C128.195 7.76705 128.509 8.03551 128.716 8.37642C128.926 8.71733 129.031 9.10369 129.031 9.53551C129.031 9.89062 128.963 10.1946 128.827 10.4474C128.69 10.6974 128.507 10.9006 128.277 11.0568C128.047 11.2131 127.79 11.3253 127.506 11.3935V11.4787C127.815 11.4957 128.112 11.5909 128.396 11.7642C128.683 11.9347 128.918 12.1761 129.099 12.4886C129.281 12.8011 129.372 13.179 129.372 13.6222C129.372 14.0739 129.263 14.4801 129.044 14.8409C128.825 15.1989 128.496 15.4815 128.055 15.6889C127.615 15.8963 127.061 16 126.393 16H122.861ZM124.442 14.679H126.142C126.716 14.679 127.129 14.5696 127.382 14.3509C127.638 14.1293 127.766 13.8452 127.766 13.4986C127.766 13.2401 127.702 13.0071 127.574 12.7997C127.446 12.5895 127.264 12.4247 127.028 12.3054C126.793 12.1832 126.511 12.1222 126.185 12.1222H124.442V14.679ZM124.442 10.9844H126.006C126.278 10.9844 126.524 10.9347 126.743 10.8352C126.962 10.733 127.134 10.5895 127.259 10.4048C127.386 10.2173 127.45 9.99574 127.45 9.74006C127.45 9.40199 127.331 9.12358 127.092 8.90483C126.857 8.68608 126.506 8.5767 126.04 8.5767H124.442V10.9844ZM130.748 16V7.27273H136.424V8.59801H132.328V10.9673H136.13V12.2926H132.328V14.6747H136.458V16H130.748ZM137.653 8.59801V7.27273H144.616V8.59801H141.919V16H140.35V8.59801H137.653ZM146.025 16H144.337L147.409 7.27273H149.361L152.438 16H150.75L148.419 9.0625H148.351L146.025 16ZM146.08 12.5781H150.682V13.848H146.08V12.5781Z" fill="#3B82F6"/>
</svg>
