<svg width="158" height="24" viewBox="0 0 158 24" fill="none" xmlns="http://www.w3.org/2000/svg">
<g clip-path="url(#clip0_3939_106641)">
<path d="M17.5568 12.2727C17.5568 14.1761 17.196 15.7955 16.4744 17.1307C15.7585 18.4659 14.7813 19.4858 13.5426 20.1903C12.3097 20.8892 10.9233 21.2386 9.38352 21.2386C7.83239 21.2386 6.44034 20.8864 5.20739 20.1818C3.97443 19.4773 3 18.4574 2.28409 17.1222C1.56818 15.7869 1.21023 14.1705 1.21023 12.2727C1.21023 10.3693 1.56818 8.75 2.28409 7.41477C3 6.07955 3.97443 5.0625 5.20739 4.36364C6.44034 3.65909 7.83239 3.30682 9.38352 3.30682C10.9233 3.30682 12.3097 3.65909 13.5426 4.36364C14.7813 5.0625 15.7585 6.07955 16.4744 7.41477C17.196 8.75 17.5568 10.3693 17.5568 12.2727ZM13.8153 12.2727C13.8153 11.0398 13.6307 10 13.2614 9.15341C12.8977 8.30682 12.3835 7.66477 11.7188 7.22727C11.054 6.78977 10.2756 6.57102 9.38352 6.57102C8.49148 6.57102 7.71307 6.78977 7.0483 7.22727C6.38352 7.66477 5.86648 8.30682 5.49716 9.15341C5.13352 10 4.9517 11.0398 4.9517 12.2727C4.9517 13.5057 5.13352 14.5455 5.49716 15.392C5.86648 16.2386 6.38352 16.8807 7.0483 17.3182C7.71307 17.7557 8.49148 17.9744 9.38352 17.9744C10.2756 17.9744 11.054 17.7557 11.7188 17.3182C12.3835 16.8807 12.8977 16.2386 13.2614 15.392C13.6307 14.5455 13.8153 13.5057 13.8153 12.2727ZM34.8899 3.54545V21H31.7024L24.1087 10.0142H23.9808V21H20.2905V3.54545H23.5291L31.0632 14.5227H31.2166V3.54545H34.8899ZM37.9389 21V3.54545H49.7003V6.58807H41.6293V10.7472H49.0952V13.7898H41.6293V17.9574H49.7344V21H37.9389ZM52.6342 21V3.54545H56.3246V17.9574H63.8075V21H52.6342ZM69.9418 3.54545V21H66.2514V3.54545H69.9418ZM87.5774 3.54545V21H84.3899L76.7962 10.0142H76.6683V21H72.978V3.54545H76.2166L83.7507 14.5227H83.9041V3.54545H87.5774ZM90.6264 21V3.54545H102.388V6.58807H94.3168V10.7472H101.783V13.7898H94.3168V17.9574H102.422V21H90.6264Z" fill="white"/>
<rect x="112" y="0.5" width="46" height="23" rx="5" fill="#EFF6FF"/>
<path d="M122.717 15.5V8.22727H125.501C126.027 8.22727 126.464 8.31013 126.812 8.47585C127.162 8.6392 127.424 8.86293 127.597 9.14702C127.772 9.43111 127.859 9.75308 127.859 10.1129C127.859 10.4089 127.803 10.6622 127.689 10.8729C127.575 11.0812 127.423 11.2505 127.231 11.3807C127.039 11.5109 126.825 11.6044 126.588 11.6612V11.7322C126.846 11.7464 127.094 11.8258 127.33 11.9702C127.569 12.1122 127.765 12.3134 127.916 12.5739C128.068 12.8343 128.143 13.1491 128.143 13.5185C128.143 13.8949 128.052 14.2334 127.87 14.5341C127.688 14.8324 127.413 15.0679 127.046 15.2408C126.679 15.4136 126.218 15.5 125.661 15.5H122.717ZM124.035 14.3991H125.452C125.93 14.3991 126.274 14.308 126.485 14.1257C126.698 13.9411 126.805 13.7043 126.805 13.4155C126.805 13.2 126.751 13.0059 126.645 12.8331C126.538 12.6579 126.387 12.5206 126.19 12.4212C125.994 12.3194 125.759 12.2685 125.487 12.2685H124.035V14.3991ZM124.035 11.3203H125.338C125.565 11.3203 125.77 11.2789 125.952 11.196C126.135 11.1108 126.278 10.9912 126.382 10.8374C126.489 10.6811 126.542 10.4964 126.542 10.2834C126.542 10.0017 126.442 9.76965 126.244 9.58736C126.047 9.40507 125.755 9.31392 125.366 9.31392H124.035V11.3203ZM129.29 15.5V8.22727H134.02V9.33168H130.607V11.3061H133.775V12.4105H130.607V14.3956H134.048V15.5H129.29ZM135.044 9.33168V8.22727H140.847V9.33168H138.599V15.5H137.292V9.33168H135.044ZM142.02 15.5H140.614L143.175 8.22727H144.801L147.365 15.5H145.959L144.016 9.71875H143.959L142.02 15.5ZM142.067 12.6484H145.902V13.7067H142.067V12.6484Z" fill="#3B82F6"/>
</g>
<defs>
<clipPath id="clip0_3939_106641">
<rect width="158" height="24" fill="white"/>
</clipPath>
</defs>
</svg>
