<svg width="87" height="20" viewBox="0 0 87 20" fill="none" xmlns="http://www.w3.org/2000/svg">
<path d="M14.6307 9.72727C14.6307 11.3134 14.33 12.6629 13.7287 13.7756C13.1321 14.8883 12.3177 15.7382 11.2855 16.3253C10.258 16.9077 9.10275 17.1989 7.8196 17.1989C6.52699 17.1989 5.36695 16.9053 4.33949 16.3182C3.31203 15.7311 2.5 14.8812 1.90341 13.7685C1.30682 12.6558 1.00852 11.3087 1.00852 9.72727C1.00852 8.1411 1.30682 6.79167 1.90341 5.67898C2.5 4.56629 3.31203 3.71875 4.33949 3.13636C5.36695 2.54924 6.52699 2.25568 7.8196 2.25568C9.10275 2.25568 10.258 2.54924 11.2855 3.13636C12.3177 3.71875 13.1321 4.56629 13.7287 5.67898C14.33 6.79167 14.6307 8.1411 14.6307 9.72727ZM11.5128 9.72727C11.5128 8.69981 11.3589 7.83333 11.0511 7.12784C10.7481 6.42235 10.3196 5.88731 9.76562 5.52273C9.21165 5.15814 8.56297 4.97585 7.8196 4.97585C7.07623 4.97585 6.42756 5.15814 5.87358 5.52273C5.3196 5.88731 4.88873 6.42235 4.58097 7.12784C4.27794 7.83333 4.12642 8.69981 4.12642 9.72727C4.12642 10.7547 4.27794 11.6212 4.58097 12.3267C4.88873 13.0322 5.3196 13.5672 5.87358 13.9318C6.42756 14.2964 7.07623 14.4787 7.8196 14.4787C8.56297 14.4787 9.21165 14.2964 9.76562 13.9318C10.3196 13.5672 10.7481 13.0322 11.0511 12.3267C11.3589 11.6212 11.5128 10.7547 11.5128 9.72727ZM29.0749 2.45455V17H26.4187L20.0906 7.84517H19.984V17H16.9087V2.45455H19.6076L25.886 11.6023H26.0138V2.45455H29.0749ZM31.6158 17V2.45455H41.4169V4.99006H34.6911V8.45597H40.9126V10.9915H34.6911V14.4645H41.4453V17H31.6158Z" fill="#6292F2"/>
<path d="M43.8619 17V2.45455H46.9371V14.4645H53.1729V17H43.8619ZM58.2848 2.45455V17H55.2095V2.45455H58.2848ZM72.9812 2.45455V17H70.3249L63.9968 7.84517H63.8903V17H60.815V2.45455H63.5138L69.7923 11.6023H69.9201V2.45455H72.9812ZM75.522 17V2.45455H85.3232V4.99006H78.5973V8.45597H84.8189V10.9915H78.5973V14.4645H85.3516V17H75.522Z" fill="#163369"/>
</svg>
