<svg width="215" height="36" viewBox="0 0 215 36" fill="none" xmlns="http://www.w3.org/2000/svg">
<g clipPath="url(#clip0_3939_106653)">
<path d="M26.3352 17.9091C26.3352 20.7642 25.794 23.1932 24.7116 25.196C23.6378 27.1989 22.1719 28.7287 20.3139 29.7855C18.4645 30.8338 16.3849 31.358 14.0753 31.358C11.7486 31.358 9.66051 30.8295 7.81108 29.7727C5.96165 28.7159 4.5 27.1861 3.42614 25.1832C2.35227 23.1804 1.81534 20.7557 1.81534 17.9091C1.81534 15.054 2.35227 12.625 3.42614 10.6222C4.5 8.61932 5.96165 7.09375 7.81108 6.04545C9.66051 4.98864 11.7486 4.46023 14.0753 4.46023C16.3849 4.46023 18.4645 4.98864 20.3139 6.04545C22.1719 7.09375 23.6378 8.61932 24.7116 10.6222C25.794 12.625 26.3352 15.054 26.3352 17.9091ZM20.723 17.9091C20.723 16.0597 20.446 14.5 19.892 13.2301C19.3466 11.9602 18.5753 10.9972 17.5781 10.3409C16.581 9.68466 15.4134 9.35653 14.0753 9.35653C12.7372 9.35653 11.5696 9.68466 10.5724 10.3409C9.57528 10.9972 8.79972 11.9602 8.24574 13.2301C7.70028 14.5 7.42756 16.0597 7.42756 17.9091C7.42756 19.7585 7.70028 21.3182 8.24574 22.5881C8.79972 23.858 9.57528 24.821 10.5724 25.4773C11.5696 26.1335 12.7372 26.4616 14.0753 26.4616C15.4134 26.4616 16.581 26.1335 17.5781 25.4773C18.5753 24.821 19.3466 23.858 19.892 22.5881C20.446 21.3182 20.723 19.7585 20.723 17.9091ZM52.3349 4.81818V31H47.5536L36.163 14.5213H35.9712V31H30.4357V4.81818H35.2937L46.5948 21.2841H46.8249V4.81818H52.3349ZM56.9084 31V4.81818H74.5504V9.3821H62.4439V15.6207H73.6428V20.1847H62.4439V26.4361H74.6016V31H56.9084Z" fill="#6292F2"/>
<path d="M78.9513 31V4.81818H84.4869V26.4361H95.7113V31H78.9513ZM104.913 4.81818V31H99.3771V4.81818H104.913ZM131.366 4.81818V31H126.585L115.194 14.5213H115.002V31H109.467V4.81818H114.325L125.626 21.2841H125.856V4.81818H131.366ZM135.94 31V4.81818H153.582V9.3821H141.475V15.6207H152.674V20.1847H141.475V26.4361H153.633V31H135.94Z" fill="#163369"/>
<rect x="164" y="6" width="51" height="24" rx="5" fill="#EFF6FF"/>
<path d="M174.861 22V13.2727H178.202C178.832 13.2727 179.357 13.3722 179.774 13.571C180.195 13.767 180.509 14.0355 180.716 14.3764C180.926 14.7173 181.031 15.1037 181.031 15.5355C181.031 15.8906 180.963 16.1946 180.827 16.4474C180.69 16.6974 180.507 16.9006 180.277 17.0568C180.047 17.2131 179.79 17.3253 179.506 17.3935V17.4787C179.815 17.4957 180.112 17.5909 180.396 17.7642C180.683 17.9347 180.918 18.1761 181.099 18.4886C181.281 18.8011 181.372 19.179 181.372 19.6222C181.372 20.0739 181.263 20.4801 181.044 20.8409C180.825 21.1989 180.496 21.4815 180.055 21.6889C179.615 21.8963 179.061 22 178.393 22H174.861ZM176.442 20.679H178.142C178.716 20.679 179.129 20.5696 179.382 20.3509C179.638 20.1293 179.766 19.8452 179.766 19.4986C179.766 19.2401 179.702 19.0071 179.574 18.7997C179.446 18.5895 179.264 18.4247 179.028 18.3054C178.793 18.1832 178.511 18.1222 178.185 18.1222H176.442V20.679ZM176.442 16.9844H178.006C178.278 16.9844 178.524 16.9347 178.743 16.8352C178.962 16.733 179.134 16.5895 179.259 16.4048C179.386 16.2173 179.45 15.9957 179.45 15.7401C179.45 15.402 179.331 15.1236 179.092 14.9048C178.857 14.6861 178.506 14.5767 178.04 14.5767H176.442V16.9844ZM182.748 22V13.2727H188.424V14.598H184.328V16.9673H188.13V18.2926H184.328V20.6747H188.458V22H182.748ZM189.653 14.598V13.2727H196.616V14.598H193.919V22H192.35V14.598H189.653ZM198.025 22H196.337L199.409 13.2727H201.361L204.438 22H202.75L200.419 15.0625H200.351L198.025 22ZM198.08 18.5781H202.682V19.848H198.08V18.5781Z" fill="#3B82F6"/>
</g>
<defs>
<clipPath id="clip0_3939_106653">
<rect width="215" height="36" fill="white"/>
</clipPath>
</defs>
</svg>
