<svg width="120" height="26" viewBox="0 0 120 26" fill="none" xmlns="http://www.w3.org/2000/svg">
<path d="M61.7147 6.85352H56.9671L54.5241 10.5806L52.0812 6.85352H47.3336L52.2478 13.5451L46.8619 20.8575H51.609L54.4964 16.5096L57.3837 20.8575H62.1313L56.7732 13.5728L61.7147 6.85352Z" fill="#F8F9FC"/>
<path d="M71.8575 0C71.7894 0 71.7275 0.00319738 71.6751 0.00319738C71.5578 0.00639475 71.4341 0.0127895 71.4131 0.015454C71.0983 0.0330567 70.7852 0.0751002 70.4767 0.141217C70.4552 0.147612 70.4337 0.15081 70.4149 0.157204C70.2077 0.210494 70.0039 0.270178 69.8034 0.336257C69.1796 0.550414 68.6079 0.897412 68.1265 1.35409C67.6201 1.84905 67.2239 2.44873 66.9647 3.11265C66.9459 3.15634 66.9275 3.20057 66.9123 3.24427C66.8971 3.28797 66.8783 3.3354 66.8599 3.38282C66.829 3.47395 66.8012 3.56827 66.7703 3.66206V3.66846C66.7457 3.76598 66.7211 3.8635 66.6964 3.96368V3.96688C66.675 4.0676 66.653 4.17151 66.6346 4.27489C66.5605 4.72335 66.5244 5.17744 66.5267 5.63218V6.82906H64.7193V10.3073H66.5267V20.8522H70.3635V10.3051H74.0615V6.85198H70.3515V6.82693L70.3635 5.21226C70.3808 5.0202 70.4288 4.83228 70.5055 4.65591C70.6962 4.19166 71.0559 3.8203 71.5095 3.61943C71.6872 3.54212 71.876 3.49443 72.0687 3.47821C72.1149 3.47184 72.1614 3.46863 72.2081 3.46862H74.0615V0.00319738C73.2231 0.00319738 72.4895 0 71.8774 0H71.8575Z" fill="#F8F9FC"/>
<path d="M116.088 0.373047V7.78936C115.577 7.30449 114.964 6.94643 114.295 6.74329C113.618 6.53617 112.844 6.43261 111.973 6.43261C111.034 6.42309 110.104 6.62072 109.248 7.01187C108.431 7.38531 107.698 7.92401 107.093 8.5951C106.481 9.28007 106 10.0753 105.675 10.9398C104.989 12.7895 104.989 14.83 105.675 16.6797C106 17.5444 106.481 18.3397 107.093 19.0244C107.698 19.6957 108.431 20.2344 109.248 20.6076C110.856 21.3277 112.677 21.3784 114.322 20.7489C115.072 20.4568 115.661 20.0838 116.087 19.6298V20.8453H119.924V0.373047H116.088ZM115.017 16.7671C114.322 17.3987 113.474 17.7144 112.474 17.714C111.989 17.7179 111.509 17.6118 111.069 17.4033C110.641 17.2014 110.254 16.9184 109.929 16.5694C109.6 16.2126 109.34 15.7949 109.164 15.3389C108.795 14.3613 108.795 13.279 109.164 12.3014C109.507 11.3815 110.191 10.6352 111.069 10.2231C111.509 10.0148 111.989 9.90845 112.474 9.91189C112.949 9.90836 113.423 9.98027 113.877 10.125C114.306 10.2623 114.699 10.4939 115.03 10.8034C115.363 11.1139 115.623 11.5191 115.808 12.019C115.994 12.5188 116.087 13.1361 116.086 13.8708C116.068 15.1696 115.712 16.1354 115.017 16.7671Z" fill="#F8F9FC"/>
<path d="M101.863 6.67947C101.723 6.67947 101.58 6.68853 101.555 6.69492C101.185 6.71549 100.817 6.76412 100.455 6.8404C100.43 6.84946 100.405 6.85266 100.383 6.85905C100.141 6.92247 99.9024 6.99174 99.6661 7.07221C98.9343 7.32187 98.2641 7.72901 97.701 8.2659C97.5952 8.36559 97.4946 8.47089 97.3997 8.58137V6.85319H93.5592V20.8625H97.3997L97.3934 15.8421C97.3934 15.719 97.3966 15.5991 97.3997 15.4824C97.4142 15.1458 97.4492 14.8105 97.5045 14.4784C97.5228 14.3718 97.5448 14.2695 97.5663 14.1688V14.1656C97.5915 14.0643 97.6187 13.9668 97.6407 13.8688V13.8624C97.6722 13.7675 97.7 13.6732 97.7309 13.5815C97.7466 13.5341 97.7649 13.4899 97.7833 13.4425C97.8016 13.395 97.8173 13.354 97.8357 13.3098C97.8483 13.2847 97.8572 13.2565 97.8697 13.2309C98.1284 12.5954 98.5138 12.0213 99.0016 11.5448C99.4236 11.1443 99.9153 10.8273 100.452 10.6101C100.464 10.6069 100.473 10.601 100.482 10.5979L100.687 10.5216C100.889 10.4556 101.094 10.3957 101.302 10.3421C101.321 10.3357 101.342 10.3325 101.364 10.3261C101.675 10.2596 101.991 10.2174 102.308 10.1998C102.329 10.1966 102.454 10.1902 102.57 10.187C102.622 10.187 102.684 10.1838 102.753 10.1838H103.594V6.67627H102.074C101.996 6.67627 101.921 6.67947 101.863 6.67947Z" fill="#F8F9FC"/>
<path d="M43.6167 8.52635C42.9554 7.84589 42.1713 7.30146 41.3074 6.92287C40.4126 6.53565 39.4501 6.33606 38.4777 6.33606C37.5052 6.33606 36.5428 6.53565 35.648 6.92287C34.7829 7.30111 33.9977 7.84555 33.3355 8.52635C32.6732 9.21263 32.1432 10.0189 31.7729 10.9036C31.3917 11.8238 31.1954 12.8123 31.1954 13.8108C31.1954 14.8093 31.3917 15.7978 31.7729 16.718C32.1428 17.6031 32.6729 18.4096 33.3355 19.0958C33.9976 19.777 34.7828 20.3218 35.648 20.7004C36.5428 21.0876 37.5052 21.2872 38.4777 21.2872C39.4501 21.2872 40.4126 21.0876 41.3074 20.7004C42.1715 20.3217 42.9558 19.7771 43.6172 19.0963C44.2801 18.4102 44.8105 17.6037 45.1809 16.7186C45.5617 15.7982 45.7578 14.8098 45.7578 13.8114C45.7578 12.8129 45.5617 11.8245 45.1809 10.9041C44.81 10.0192 44.2795 9.21269 43.6167 8.52635ZM41.6029 15.5446C41.4377 15.9904 41.1885 16.3992 40.8693 16.7479C40.5655 17.0775 40.2022 17.3447 39.7992 17.535C39.3887 17.7276 38.9413 17.8255 38.4892 17.8217C38.0335 17.8243 37.5826 17.7265 37.1676 17.535C36.759 17.3474 36.3906 17.08 36.0834 16.7479C35.7642 16.3992 35.515 15.9904 35.3498 15.5446C35.1662 15.0455 35.0755 14.516 35.0826 13.9832C35.0782 13.4367 35.1687 12.8937 35.3498 12.3792C35.5166 11.904 35.765 11.4626 36.0834 11.0757C36.3846 10.7109 36.7529 10.4093 37.1676 10.1879C37.5754 9.96996 38.0295 9.85689 38.4902 9.8586C38.9471 9.85594 39.3974 9.96932 39.8003 10.1885C40.2091 10.4128 40.5722 10.714 40.8703 11.0763C41.1888 11.4632 41.4372 11.9045 41.6039 12.3797C41.7852 12.8942 41.8759 13.4372 41.8717 13.9837C41.8782 14.5165 41.787 15.0458 41.6029 15.5446Z" fill="#F8F9FC"/>
<path d="M88.3211 8.52628C87.6597 7.84557 86.8754 7.30095 86.0112 6.92226C85.1164 6.53504 84.1539 6.33545 83.1815 6.33545C82.209 6.33545 81.2466 6.53504 80.3518 6.92226C79.487 7.30052 78.7024 7.84518 78.0409 8.52628C77.3781 9.21235 76.8478 10.0187 76.4772 10.9035C76.0964 11.8239 75.9003 12.8123 75.9003 13.8107C75.9003 14.8092 76.0964 15.7976 76.4772 16.718C76.8473 17.6033 77.3777 18.4101 78.0409 19.0963C78.7019 19.7772 79.486 20.3219 80.3502 20.7003C81.245 21.0875 82.2075 21.2871 83.1799 21.2871C84.1524 21.2871 85.1148 21.0875 86.0096 20.7003C86.8738 20.3216 87.6581 19.777 88.3195 19.0963C88.9826 18.4102 89.5132 17.6036 89.8837 16.7185C90.2648 15.7983 90.4612 14.8098 90.4612 13.8113C90.4612 12.8127 90.2648 11.8243 89.8837 10.9041C89.5133 10.0192 88.9833 9.21272 88.3211 8.52628ZM86.3073 15.5445C86.1421 15.9904 85.8929 16.3991 85.5736 16.7478C85.2698 17.0774 84.9066 17.3446 84.5036 17.5349C84.093 17.7275 83.6457 17.8254 83.1935 17.8216C82.7371 17.8245 82.2855 17.7267 81.8699 17.5349C81.4611 17.3476 81.0926 17.0802 80.7857 16.7478C80.4664 16.3991 80.2172 15.9904 80.0521 15.5445C79.8684 15.0455 79.7778 14.516 79.7848 13.9831C79.7805 13.4366 79.8709 12.8937 80.0521 12.3791C80.2189 11.9039 80.4673 11.4626 80.7857 11.0757C81.0866 10.7106 81.4549 10.409 81.8699 10.1878C82.278 9.96959 82.7324 9.85633 83.1935 9.85799C83.6504 9.85533 84.1007 9.96871 84.5036 10.1878C84.9124 10.4121 85.2755 10.7134 85.5736 11.0757C85.8921 11.4626 86.1405 11.9039 86.3073 12.3791C86.4884 12.8937 86.5788 13.4366 86.5745 13.9831C86.5815 14.516 86.4909 15.0455 86.3073 15.5445Z" fill="#F8F9FC"/>
<path d="M5.85851 2.13159C2.34707 4.31647 0 8.302 0 12.854C0 17.3415 2.28052 21.2738 5.70865 23.4815L13.5762 12.8572L5.85851 2.13159Z" fill="#F8F9FC"/>
<path d="M20.0207 3.41678C18.7093 2.22796 17.1561 1.34827 15.4717 0.840511C13.7874 0.332756 12.0137 0.209471 10.2771 0.47946L16.1115 9.52271L20.0207 3.41678Z" fill="#F8F9FC"/>
<path d="M10.0471 25.1871C11.843 25.5044 13.6867 25.3983 15.436 24.8769C17.1853 24.3556 18.7936 23.4329 20.137 22.18L16.0801 16.187L10.0471 25.1871Z" fill="#F8F9FC"/>
<path d="M22.765 6.99329L18.6174 12.8898L22.8436 18.5577C23.7284 16.7604 24.1824 14.7758 24.1685 12.766C24.1545 10.7561 23.6731 8.77817 22.7634 6.99382L22.765 6.99329Z" fill="#F8F9FC"/>
</svg>
