<svg width="119" height="119" viewBox="0 0 119 119" fill="none" xmlns="http://www.w3.org/2000/svg">
<path d="M98.0392 14.168C123.034 35.4172 126.041 72.9388 104.756 97.9749C83.4718 123.011 45.9552 126.081 20.9608 104.832C-4.03356 83.5827 -7.04093 46.0611 14.2437 21.0249C35.5283 -4.01117 73.0448 -7.08111 98.0392 14.168Z" fill="#EFF7FA"/>
<path fill-rule="evenodd" clip-rule="evenodd" d="M61.3285 5.04946C52.6007 5.17688 43.3581 10.8778 30.9733 21.8077C18.6816 32.6554 10.5178 44.3438 8.07144 56.2731C5.63709 68.144 8.83098 80.4162 19.5967 92.5745C30.4125 104.789 43.2243 112.102 56.3122 113.712C69.3806 115.32 82.8402 111.257 95.0237 100.505C107.135 89.8172 111.122 76.5062 109.419 62.8042C107.711 49.0558 100.263 34.8738 89.4134 22.6206C78.5038 10.2999 69.9921 4.92297 61.3285 5.04946ZM90.1632 21.959C68.282 -2.75253 55.0631 -0.785749 30.3104 21.059C5.55767 42.9037 -3.03425 68.5247 18.8469 93.2362C40.7281 117.948 70.9339 123.099 95.6867 101.254C120.439 79.4092 112.044 46.6704 90.1632 21.959Z" fill="black"/>
<path d="M42.4998 84.1488V59.1905L61.4998 43.7163L80.4998 59.1905V84.1488H42.4998Z" stroke="black"/>
<path d="M85.9998 57.693L83.9998 60.1889L61.4998 41.7197L38.9998 60.1889L36.4998 56.6947L61.4998 36.728L85.9998 57.693Z" stroke="black"/>
<rect x="62.4998" y="63.1846" width="5" height="4.99" stroke="black"/>
<rect x="70.4998" y="63.1846" width="5" height="4.99" stroke="black"/>
<rect x="62.4998" y="71.1714" width="5" height="4.99" stroke="black"/>
<rect x="45.4998" y="62.1863" width="11" height="21.9617" stroke="black"/>
<rect x="70.4998" y="71.1714" width="5" height="4.99" stroke="black"/>
<mask id="path-10-inside-1_383_34793" fill="white">
<ellipse cx="53.9998" cy="71.6697" rx="1" ry="0.998334"/>
</mask>
<path d="M53.9998 71.6697C53.9998 71.6708 53.9997 71.6708 53.9998 71.6701C53.9999 71.6695 54.0002 71.6688 54.0004 71.6682C54.0008 71.6672 54.001 71.6673 54.0003 71.668C53.9997 71.6686 53.9994 71.6686 54 71.6684C54.0004 71.6682 54.0008 71.6681 54.0011 71.668C54.0015 71.6679 54.0012 71.6681 53.9998 71.6681V73.6681C55.1028 73.6681 55.9998 72.7749 55.9998 71.6697H53.9998ZM53.9998 71.6681C53.9983 71.6681 53.998 71.6679 53.9984 71.668C53.9987 71.6681 53.9991 71.6682 53.9995 71.6684C54.0001 71.6686 53.9998 71.6686 53.9992 71.668C53.9985 71.6673 53.9987 71.6672 53.9991 71.6682C53.9994 71.6688 53.9996 71.6695 53.9997 71.6701C53.9998 71.6708 53.9998 71.6708 53.9998 71.6697H51.9998C51.9998 72.7749 52.8968 73.6681 53.9998 73.6681V71.6681ZM53.9998 71.6697C53.9998 71.6686 53.9998 71.6686 53.9997 71.6693C53.9996 71.67 53.9994 71.6706 53.9991 71.6712C53.9987 71.6723 53.9985 71.6721 53.9992 71.6715C53.9998 71.6708 54.0001 71.6708 53.9995 71.6711C53.9991 71.6712 53.9987 71.6714 53.9984 71.6714C53.998 71.6715 53.9983 71.6714 53.9998 71.6714V69.6714C52.8968 69.6714 51.9998 70.5645 51.9998 71.6697H53.9998ZM53.9998 71.6714C54.0012 71.6714 54.0015 71.6715 54.0011 71.6714C54.0008 71.6714 54.0004 71.6712 54 71.6711C53.9994 71.6708 53.9997 71.6708 54.0003 71.6715C54.001 71.6721 54.0008 71.6723 54.0004 71.6712C54.0002 71.6706 53.9999 71.67 53.9998 71.6693C53.9997 71.6686 53.9998 71.6686 53.9998 71.6697H55.9998C55.9998 70.5645 55.1028 69.6714 53.9998 69.6714V71.6714Z" fill="black" mask="url(#path-10-inside-1_383_34793)"/>
</svg>
