<svg width="68" height="68" viewBox="0 0 68 68" fill="none" xmlns="http://www.w3.org/2000/svg">
<path fill-rule="evenodd" clip-rule="evenodd" d="M60.3826 41.3178C60.0228 40.2185 59.4065 39.207 58.5424 38.3003C57.6399 37.3483 56.4542 36.6088 54.9809 36.079C53.5146 35.5505 51.6248 35.2785 49.293 35.2785L46.1295 35.2785C46.5092 31.3926 47.8961 28.0819 50.2888 25.3449C52.6816 22.6135 56.0023 20.2151 60.2438 18.1553L57.6739 14.1674C52.0852 16.546 47.3082 20.0239 43.3415 24.6224C39.3706 29.2209 37.3972 33.7797 37.3972 38.3003C37.3972 43.1566 38.5404 46.9646 40.851 49.7158C43.1616 52.4655 46.4681 53.8312 50.7762 53.8312C53.5019 53.8312 55.8776 52.9245 57.8921 51.1041C59.9094 49.2837 60.9167 47.1545 60.9167 44.7249C60.9167 43.5575 60.7368 42.4171 60.3826 41.3178ZM31.4854 41.3178C31.1284 40.2185 30.5079 39.207 29.648 38.3003C28.7428 37.3483 27.5556 36.6088 26.0893 36.079C24.6174 35.5505 22.7276 35.2785 20.3972 35.2785L17.238 35.2785C17.6149 31.3926 19.0003 28.0819 21.3945 25.3449C23.7901 22.6135 27.1051 20.2151 31.3494 18.1553L28.7754 14.1674C23.1895 16.546 18.411 20.0239 14.4429 24.6224C10.4749 29.2209 8.50002 33.7797 8.50002 38.3003C8.50002 43.1566 9.6461 46.9646 11.9553 49.7158C14.263 52.4655 17.5695 53.8312 21.8776 53.8312C24.6089 53.8312 26.9804 52.9245 28.9949 51.1041C31.0123 49.2837 32.0195 47.1545 32.0195 44.7249C32.0195 43.5575 31.8439 42.4171 31.4854 41.3178Z" fill="#5C99BB"/>
</svg>
