<svg width="18" height="12" viewBox="0 0 18 12" fill="none" xmlns="http://www.w3.org/2000/svg">
<path d="M0.666748 11.8333V6.52084C0.666748 6.17362 0.736192 5.84723 0.875081 5.54167C1.01397 5.23612 1.2223 4.98612 1.50008 4.79167V2.37501C1.50008 1.75001 1.71189 1.2257 2.1355 0.802088C2.55911 0.378477 3.08341 0.166672 3.70841 0.166672H7.45841C7.76397 0.166672 8.04869 0.236116 8.31258 0.375005C8.57647 0.513894 8.80564 0.701394 9.00008 0.937505C9.19453 0.701394 9.42022 0.513894 9.67716 0.375005C9.93411 0.236116 10.2154 0.166672 10.5209 0.166672H14.2709C14.8959 0.166672 15.4237 0.378477 15.8542 0.802088C16.2848 1.2257 16.5001 1.75001 16.5001 2.37501V4.79167C16.7779 4.98612 16.9862 5.23612 17.1251 5.54167C17.264 5.84723 17.3334 6.17362 17.3334 6.52084V11.8333H16.0834V10.1667H1.91675V11.8333H0.666748ZM9.62508 4.43751H15.2501V2.37501C15.2501 2.09723 15.1563 1.86806 14.9688 1.68751C14.7813 1.50695 14.5487 1.41667 14.2709 1.41667H10.4584C10.2223 1.41667 10.0244 1.51389 9.86467 1.70834C9.70494 1.90278 9.62508 2.12501 9.62508 2.37501V4.43751ZM2.75008 4.43751H8.37508V2.37501C8.37508 2.12501 8.29522 1.90278 8.1355 1.70834C7.97578 1.51389 7.77786 1.41667 7.54175 1.41667H3.70841C3.44453 1.41667 3.21883 1.51042 3.03133 1.69792C2.84383 1.88542 2.75008 2.11112 2.75008 2.37501V4.43751ZM1.91675 8.91667H16.0834V6.52084C16.0834 6.28473 16.0036 6.08681 15.8438 5.92709C15.6841 5.76737 15.4862 5.68751 15.2501 5.68751H2.75008C2.51397 5.68751 2.31605 5.76737 2.15633 5.92709C1.99661 6.08681 1.91675 6.28473 1.91675 6.52084V8.91667ZM16.0834 8.91667H1.91675H16.0834Z" fill="#6B7280"/>
</svg>
