<svg width="20" height="20" viewBox="0 0 20 20" fill="none" xmlns="http://www.w3.org/2000/svg">
<path d="M17.0834 18.3334V5.62504C17.0834 5.09726 16.9029 4.65282 16.5417 4.29171C16.1806 3.9306 15.7362 3.75004 15.2084 3.75004H14.1667V5.04171C14.1667 5.15282 14.132 5.2431 14.0626 5.31254C13.9931 5.38199 13.9029 5.41671 13.7917 5.41671H9.12508C8.98619 5.41671 8.8855 5.34032 8.823 5.18754C8.7605 5.03476 8.75703 4.90282 8.81258 4.79171L10.3959 1.37504C10.4654 1.20837 10.5799 1.07643 10.7397 0.979207C10.8994 0.881985 11.0834 0.833374 11.2917 0.833374H13.2084C13.4862 0.833374 13.7154 0.937541 13.8959 1.14587C14.0765 1.35421 14.1667 1.59726 14.1667 1.87504V2.50004H15.2084C16.0834 2.50004 16.823 2.80212 17.4272 3.40629C18.0313 4.01046 18.3334 4.75004 18.3334 5.62504V18.3334H17.0834ZM10.4792 4.16671H12.9167V2.08337H11.4167L10.4792 4.16671ZM3.95841 18.3334C3.30564 18.3334 2.7605 18.1146 2.323 17.6771C1.8855 17.2396 1.66675 16.6945 1.66675 16.0417V13.9584C1.66675 13.5556 1.81953 13.1702 2.12508 12.8021C2.43064 12.4341 2.83341 12.2084 3.33341 12.125V10C3.33341 9.65282 3.45494 9.35768 3.698 9.11462C3.94105 8.87157 4.23619 8.75004 4.58341 8.75004H11.6667C12.014 8.75004 12.3091 8.87157 12.5522 9.11462C12.7952 9.35768 12.9167 9.65282 12.9167 10V12.125C13.4167 12.2084 13.8195 12.4237 14.1251 12.7709C14.4306 13.1181 14.5834 13.5139 14.5834 13.9584V16.0417C14.5834 16.6945 14.3647 17.2396 13.9272 17.6771C13.4897 18.1146 12.9445 18.3334 12.2917 18.3334H3.95841ZM4.58341 10V12.3959C4.83341 12.6042 5.0348 12.8403 5.18758 13.1042C5.34036 13.3681 5.41675 13.6528 5.41675 13.9584V14.5834H10.8334V13.9584C10.8334 13.6528 10.9098 13.3681 11.0626 13.1042C11.2154 12.8403 11.4167 12.6042 11.6667 12.3959V10H4.58341ZM3.95841 17.0834H12.2917C12.6112 17.0834 12.8647 16.9757 13.0522 16.7605C13.2397 16.5452 13.3334 16.3056 13.3334 16.0417V13.9584C13.3334 13.7639 13.2779 13.6112 13.1667 13.5C13.0556 13.3889 12.9029 13.3334 12.7084 13.3334C12.5279 13.3334 12.3786 13.3889 12.2605 13.5C12.1424 13.6112 12.0834 13.7639 12.0834 13.9584V15.8334H4.16675V13.9584C4.16675 13.7639 4.11119 13.6112 4.00008 13.5C3.88897 13.3889 3.73619 13.3334 3.54175 13.3334C3.36119 13.3334 3.21189 13.3889 3.09383 13.5C2.97578 13.6112 2.91675 13.7639 2.91675 13.9584V16.0417C2.91675 16.3056 3.01397 16.5452 3.20841 16.7605C3.40286 16.9757 3.65286 17.0834 3.95841 17.0834Z" fill="black"/>
</svg>
