<svg width="73" height="20" viewBox="0 0 73 20" fill="none" xmlns="http://www.w3.org/2000/svg">
<g clip-path="url(#clip0_11276_8022)">
<path d="M8.39643 3.46225L8.36714 3.43296H8.32572H3.53309C3.06703 3.43296 2.66557 3.60007 2.33411 3.93153C2.00266 4.26298 1.83555 4.66444 1.83555 5.1305V14.7158C1.83555 15.1818 2.00266 15.5833 2.33411 15.9147C2.66557 16.2462 3.06703 16.4133 3.53309 16.4133H16.3134C16.7795 16.4133 17.1809 16.2462 17.5124 15.9147C17.8439 15.5833 18.011 15.1818 18.011 14.7158V6.72804C18.011 6.26199 17.8439 5.86052 17.5124 5.52907C17.1809 5.19761 16.7795 5.0305 16.3134 5.0305H9.96468L8.39643 3.46225ZM9.19356 6.79875L9.22285 6.82804H9.26427H16.2134V14.6158H3.63309V5.2305H7.62531L9.19356 6.79875Z" fill="#0284C7" stroke="#0284C7" stroke-width="0.2"/>
</g>
<path d="M68.2401 15.9629C67.5545 15.9629 66.9409 15.7867 66.3992 15.4345C65.8576 15.0822 65.4295 14.5708 65.1151 13.9004C64.8008 13.2299 64.6436 12.4155 64.6436 11.4572C64.6436 10.4875 64.8026 9.66931 65.1208 9.00264C65.4428 8.33219 65.8765 7.82651 66.422 7.4856C66.9674 7.1409 67.5754 6.96855 68.2458 6.96855C68.7572 6.96855 69.1776 7.05567 69.5072 7.22991C69.8367 7.40037 70.0981 7.60681 70.2913 7.84923C70.4845 8.08787 70.6341 8.31325 70.7401 8.52537H70.8254V4.1731H72.8879V15.8095H70.8651V14.4345H70.7401C70.6341 14.6466 70.4807 14.872 70.2799 15.1106C70.0792 15.3454 69.814 15.5462 69.4845 15.7129C69.1549 15.8795 68.7401 15.9629 68.2401 15.9629ZM68.814 14.2754C69.2496 14.2754 69.6208 14.1579 69.9276 13.9231C70.2345 13.6845 70.4674 13.353 70.6265 12.9288C70.7856 12.5045 70.8651 12.0102 70.8651 11.4458C70.8651 10.8814 70.7856 10.3909 70.6265 9.97423C70.4712 9.55757 70.2401 9.2337 69.9333 9.00264C69.6303 8.77158 69.2572 8.65605 68.814 8.65605C68.3557 8.65605 67.9731 8.77537 67.6663 9.014C67.3595 9.25264 67.1284 9.58219 66.9731 10.0026C66.8178 10.4231 66.7401 10.9042 66.7401 11.4458C66.7401 11.9913 66.8178 12.478 66.9731 12.906C67.1322 13.3303 67.3651 13.6655 67.672 13.9117C67.9826 14.1542 68.3633 14.2754 68.814 14.2754Z" fill="#075985"/>
<path d="M59.3802 15.9801C58.5052 15.9801 57.7496 15.7983 57.1132 15.4347C56.4806 15.0672 55.9939 14.5483 55.653 13.8778C55.3121 13.2036 55.1416 12.41 55.1416 11.4972C55.1416 10.5994 55.3121 9.81155 55.653 9.13352C55.9977 8.4517 56.4787 7.9214 57.0961 7.54261C57.7136 7.16004 58.439 6.96875 59.2723 6.96875C59.8102 6.96875 60.3177 7.05587 60.795 7.23011C61.2761 7.40057 61.7003 7.66572 62.0677 8.02557C62.439 8.38542 62.7306 8.84375 62.9427 9.40057C63.1549 9.9536 63.2609 10.6127 63.2609 11.3778V12.0085H56.1075V10.6222H61.2893C61.2855 10.2282 61.2003 9.87784 61.0336 9.57102C60.867 9.26042 60.634 9.0161 60.3348 8.83807C60.0393 8.66004 59.6946 8.57102 59.3007 8.57102C58.8802 8.57102 58.5109 8.6733 58.1927 8.87784C57.8746 9.0786 57.6264 9.34375 57.4484 9.6733C57.2742 9.99905 57.1852 10.357 57.1814 10.7472V11.9574C57.1814 12.465 57.2742 12.9006 57.4598 13.2642C57.6454 13.6241 57.9049 13.9006 58.2382 14.0937C58.5715 14.2831 58.9617 14.3778 59.4086 14.3778C59.7079 14.3778 59.9787 14.3362 60.2211 14.2528C60.4636 14.1657 60.6738 14.0388 60.8518 13.8722C61.0299 13.7055 61.1643 13.4991 61.2552 13.2528L63.1757 13.4687C63.0545 13.9763 62.8234 14.4195 62.4825 14.7983C62.1454 15.1733 61.7136 15.465 61.1871 15.6733C60.6605 15.8778 60.0583 15.9801 59.3802 15.9801Z" fill="#075985"/>
<path d="M54.391 7.08228L51.283 15.8095H49.0103L45.9023 7.08228H48.0955L50.1012 13.5652H50.1921L52.2035 7.08228H54.391Z" fill="#075985"/>
<path d="M40.231 15.9858C39.678 15.9858 39.1799 15.8873 38.7367 15.6903C38.2973 15.4896 37.9488 15.1941 37.6912 14.804C37.4374 14.4138 37.3105 13.9328 37.3105 13.3608C37.3105 12.8684 37.4015 12.4612 37.5833 12.1392C37.7651 11.8172 38.0132 11.5597 38.3276 11.3665C38.642 11.1733 38.9962 11.0275 39.3901 10.929C39.7878 10.8267 40.1988 10.7528 40.623 10.7074C41.1344 10.6544 41.5492 10.607 41.8674 10.5653C42.1855 10.5199 42.4166 10.4517 42.5605 10.3608C42.7083 10.2661 42.7821 10.1203 42.7821 9.9233V9.8892C42.7821 9.46117 42.6552 9.12973 42.4015 8.89489C42.1477 8.66004 41.7821 8.54261 41.3049 8.54261C40.8011 8.54261 40.4015 8.65246 40.106 8.87216C39.8143 9.09186 39.6174 9.35133 39.5151 9.65057L37.5946 9.37784C37.7462 8.84754 37.9962 8.40436 38.3446 8.0483C38.6931 7.68845 39.1193 7.41951 39.623 7.24148C40.1268 7.05966 40.6837 6.96875 41.2935 6.96875C41.714 6.96875 42.1325 7.01799 42.5492 7.11648C42.9659 7.21496 43.3465 7.37784 43.6912 7.60511C44.0359 7.8286 44.3124 8.13352 44.5208 8.51989C44.7329 8.90625 44.839 9.3892 44.839 9.96875V15.8097H42.8617V14.6108H42.7935C42.6685 14.8532 42.4924 15.0805 42.2651 15.2926C42.0416 15.5009 41.7594 15.6695 41.4185 15.7983C41.0814 15.9233 40.6855 15.9858 40.231 15.9858ZM40.7651 14.4744C41.178 14.4744 41.5359 14.393 41.839 14.2301C42.142 14.0634 42.3749 13.8438 42.5378 13.571C42.7045 13.2983 42.7878 13.0009 42.7878 12.679V11.6506C42.7234 11.7036 42.6136 11.7528 42.4583 11.7983C42.3068 11.8437 42.1363 11.8835 41.9469 11.9176C41.7575 11.9517 41.57 11.982 41.3844 12.0085C41.1988 12.035 41.0378 12.0578 40.9015 12.0767C40.5946 12.1184 40.32 12.1866 40.0776 12.2812C39.8352 12.3759 39.6439 12.5085 39.5037 12.679C39.3636 12.8456 39.2935 13.0616 39.2935 13.3267C39.2935 13.7055 39.4318 13.9915 39.7083 14.1847C39.9848 14.3778 40.3371 14.4744 40.7651 14.4744Z" fill="#075985"/>
<path d="M33.7443 7.37212C33.6913 6.8759 33.4678 6.48954 33.0739 6.21302C32.6837 5.93651 32.1761 5.79825 31.5511 5.79825C31.1117 5.79825 30.7348 5.86454 30.4205 5.99712C30.1061 6.12969 29.8655 6.30961 29.6989 6.53689C29.5322 6.76416 29.447 7.02363 29.4432 7.3153C29.4432 7.55772 29.4981 7.76795 29.608 7.94598C29.7216 8.12401 29.875 8.27552 30.0682 8.40052C30.2614 8.52174 30.4754 8.62401 30.7102 8.70734C30.9451 8.79068 31.1818 8.86075 31.4205 8.91757L32.5114 9.1903C32.9508 9.29257 33.3731 9.43083 33.7784 9.60507C34.1875 9.77931 34.553 9.99901 34.875 10.2642C35.2008 10.5293 35.4583 10.8494 35.6477 11.2244C35.8371 11.5994 35.9318 12.0388 35.9318 12.5426C35.9318 13.2244 35.7576 13.8248 35.4091 14.3437C35.0606 14.8589 34.5568 15.2623 33.8977 15.5539C33.2424 15.8418 32.4489 15.9858 31.517 15.9858C30.6117 15.9858 29.8258 15.8456 29.1591 15.5653C28.4962 15.285 27.9773 14.8759 27.6023 14.338C27.2311 13.8001 27.0303 13.1448 27 12.3721H29.0739C29.1042 12.7774 29.2292 13.1145 29.4489 13.3835C29.6686 13.6524 29.9545 13.8532 30.3068 13.9858C30.6629 14.1183 31.0606 14.1846 31.5 14.1846C31.9583 14.1846 32.3598 14.1164 32.7045 13.9801C33.053 13.8399 33.3258 13.6467 33.5227 13.4005C33.7197 13.1505 33.8201 12.8589 33.8239 12.5255C33.8201 12.2225 33.7311 11.9725 33.5568 11.7755C33.3826 11.5748 33.1383 11.4081 32.8239 11.2755C32.5133 11.1392 32.1496 11.0179 31.733 10.9119L30.4091 10.571C29.4508 10.3248 28.6932 9.95166 28.1364 9.45166C27.5833 8.94787 27.3068 8.27931 27.3068 7.44598C27.3068 6.76037 27.4924 6.15999 27.8636 5.64484C28.2386 5.12969 28.7481 4.73007 29.392 4.44598C30.036 4.1581 30.7652 4.01416 31.5795 4.01416C32.4053 4.01416 33.1288 4.1581 33.75 4.44598C34.375 4.73007 34.8655 5.1259 35.2216 5.63348C35.5777 6.13727 35.7614 6.71681 35.7727 7.37212H33.7443Z" fill="#075985"/>
<defs>
<clipPath id="clip0_11276_8022">
<rect width="20" height="20" fill="white"/>
</clipPath>
</defs>
</svg>
