<svg width="62" height="21" viewBox="0 0 62 21" fill="none" xmlns="http://www.w3.org/2000/svg">
<path d="M10.0122 10.9885L10.0652 11.0217L10.1182 10.9885L16.6752 6.8904V14.9975H3.45523V6.8904L10.0122 10.9885ZM3.70391 5.13248H16.4266L10.0652 9.1083L3.70391 5.13248ZM2.09979 16.3529C2.4469 16.7 2.86719 16.875 3.35523 16.875H16.7752C17.2633 16.875 17.6836 16.7 18.0307 16.3529C18.3778 16.0058 18.5527 15.5855 18.5527 15.0975V5.03248C18.5527 4.54444 18.3778 4.12415 18.0307 3.77704C17.6836 3.42992 17.2633 3.25498 16.7752 3.25498H3.35523C2.86719 3.25498 2.4469 3.42992 2.09979 3.77704C1.75267 4.12415 1.57773 4.54444 1.57773 5.03248V15.0975C1.57773 15.5855 1.75267 16.0058 2.09979 16.3529Z" fill="#0D9488" stroke="#0D9488" stroke-width="0.2"/>
<path d="M61.4428 7.14731V8.73821H56.4258V7.14731H61.4428ZM57.6644 5.0564H59.7212V13.2496C59.7212 13.5261 59.7629 13.7382 59.8462 13.8859C59.9334 14.0299 60.047 14.1284 60.1871 14.1814C60.3273 14.2344 60.4826 14.2609 60.6531 14.2609C60.7818 14.2609 60.8993 14.2515 61.0053 14.2325C61.1152 14.2136 61.1985 14.1965 61.2553 14.1814L61.6019 15.7894C61.4921 15.8272 61.3349 15.8689 61.1303 15.9144C60.9296 15.9598 60.6834 15.9863 60.3917 15.9939C59.8765 16.009 59.4125 15.9314 58.9996 15.7609C58.5868 15.5867 58.2591 15.3178 58.0167 14.9541C57.7781 14.5905 57.6606 14.1359 57.6644 13.5905V5.0564Z" fill="#115E59"/>
<path d="M49.3908 10.761V15.8746H47.334V7.14733H49.2999V8.63028H49.4022C49.6029 8.14165 49.923 7.75339 50.3624 7.46551C50.8056 7.17763 51.3529 7.03369 52.0044 7.03369C52.6067 7.03369 53.1313 7.16248 53.5783 7.42005C54.0291 7.67763 54.3775 8.05074 54.6238 8.53937C54.8738 9.02801 54.9969 9.62081 54.9931 10.3178V15.8746H52.9363V10.636C52.9363 10.0526 52.7847 9.59619 52.4817 9.26665C52.1825 8.9371 51.7677 8.77233 51.2374 8.77233C50.8775 8.77233 50.5575 8.85187 50.2772 9.01096C50.0007 9.16627 49.7828 9.39165 49.6238 9.6871C49.4685 9.98255 49.3908 10.3405 49.3908 10.761Z" fill="#115E59"/>
<path d="M41.7132 16.0451C40.8382 16.0451 40.0826 15.8632 39.4462 15.4996C38.8136 15.1322 38.3269 14.6132 37.986 13.9428C37.6451 13.2685 37.4746 12.475 37.4746 11.5621C37.4746 10.6644 37.6451 9.87649 37.986 9.19846C38.3307 8.51665 38.8117 7.98634 39.4292 7.60755C40.0466 7.22498 40.772 7.03369 41.6053 7.03369C42.1432 7.03369 42.6507 7.12081 43.128 7.29505C43.6091 7.46551 44.0333 7.73066 44.4007 8.09051C44.772 8.45036 45.0636 8.90869 45.2757 9.46551C45.4879 10.0185 45.5939 10.6776 45.5939 11.4428V12.0735H38.4405V10.6871H43.6223C43.6185 10.2932 43.5333 9.94278 43.3667 9.63596C43.2 9.32536 42.967 9.08104 42.6678 8.90301C42.3723 8.72498 42.0276 8.63596 41.6337 8.63596C41.2132 8.63596 40.8439 8.73824 40.5257 8.94278C40.2076 9.14354 39.9595 9.40869 39.7814 9.73824C39.6072 10.064 39.5182 10.4219 39.5144 10.8121V12.0223C39.5144 12.5299 39.6072 12.9655 39.7928 13.3291C39.9784 13.689 40.2379 13.9655 40.5712 14.1587C40.9045 14.3481 41.2947 14.4428 41.7417 14.4428C42.0409 14.4428 42.3117 14.4011 42.5542 14.3178C42.7966 14.2307 43.0068 14.1038 43.1848 13.9371C43.3629 13.7704 43.4973 13.564 43.5882 13.3178L45.5087 13.5337C45.3875 14.0413 45.1564 14.4844 44.8155 14.8632C44.4784 15.2382 44.0466 15.5299 43.5201 15.7382C42.9935 15.9428 42.3913 16.0451 41.7132 16.0451Z" fill="#115E59"/>
<path d="M33.8742 7.43706C33.8212 6.94084 33.5977 6.55448 33.2037 6.27797C32.8136 6.00145 32.306 5.86319 31.681 5.86319C31.2416 5.86319 30.8647 5.92948 30.5503 6.06206C30.2359 6.19463 29.9954 6.37456 29.8287 6.60183C29.6621 6.8291 29.5769 7.08857 29.5731 7.38024C29.5731 7.62266 29.628 7.83289 29.7378 8.01092C29.8515 8.18895 30.0049 8.34047 30.1981 8.46547C30.3912 8.58668 30.6053 8.68895 30.8401 8.77228C31.075 8.85562 31.3117 8.92569 31.5503 8.98251L32.6412 9.25524C33.0806 9.35751 33.503 9.49577 33.9083 9.67001C34.3174 9.84425 34.6829 10.064 35.0049 10.3291C35.3306 10.5943 35.5882 10.9143 35.7776 11.2893C35.967 11.6643 36.0617 12.1037 36.0617 12.6075C36.0617 13.2893 35.8875 13.8897 35.539 14.4086C35.1905 14.9238 34.6867 15.3272 34.0276 15.6189C33.3723 15.9068 32.5787 16.0507 31.6469 16.0507C30.7416 16.0507 29.9556 15.9105 29.289 15.6302C28.6261 15.3499 28.1072 14.9408 27.7322 14.403C27.3609 13.8651 27.1602 13.2098 27.1299 12.4371H29.2037C29.234 12.8424 29.359 13.1795 29.5787 13.4484C29.7984 13.7174 30.0844 13.9181 30.4367 14.0507C30.7928 14.1833 31.1905 14.2496 31.6299 14.2496C32.0882 14.2496 32.4897 14.1814 32.8344 14.045C33.1829 13.9049 33.4556 13.7117 33.6526 13.4655C33.8496 13.2155 33.95 12.9238 33.9537 12.5905C33.95 12.2874 33.8609 12.0374 33.6867 11.8405C33.5125 11.6397 33.2681 11.473 32.9537 11.3405C32.6431 11.2041 32.2795 11.0829 31.8628 10.9768L30.539 10.6359C29.5806 10.3897 28.8231 10.0166 28.2662 9.5166C27.7132 9.01281 27.4367 8.34425 27.4367 7.51092C27.4367 6.82531 27.6223 6.22493 27.9935 5.70978C28.3685 5.19463 28.878 4.79501 29.5219 4.51092C30.1659 4.22304 30.895 4.0791 31.7094 4.0791C32.5352 4.0791 33.2587 4.22304 33.8799 4.51092C34.5049 4.79501 34.9954 5.19084 35.3515 5.69842C35.7075 6.20221 35.8912 6.78175 35.9026 7.43706H33.8742Z" fill="#115E59"/>
</svg>
