<svg width="25" height="24" viewBox="0 0 25 24" fill="none" xmlns="http://www.w3.org/2000/svg">
<circle cx="12.2131" cy="12" r="12" fill="white" fill-opacity="0.9"/>
<g clip-path="url(#clip0_1_6)">
<path d="M14.7131 13.7C14.3965 13.7 14.1131 13.825 13.8965 14.0208L10.9256 12.2917C10.9465 12.1958 10.9631 12.1 10.9631 12C10.9631 11.9 10.9465 11.8042 10.9256 11.7083L13.8631 9.99583C14.0881 10.2042 14.384 10.3333 14.7131 10.3333C15.4048 10.3333 15.9631 9.775 15.9631 9.08333C15.9631 8.39167 15.4048 7.83333 14.7131 7.83333C14.0215 7.83333 13.4631 8.39167 13.4631 9.08333C13.4631 9.18333 13.4798 9.27917 13.5006 9.375L10.5631 11.0875C10.3381 10.8792 10.0423 10.75 9.71313 10.75C9.02147 10.75 8.46313 11.3083 8.46313 12C8.46313 12.6917 9.02147 13.25 9.71313 13.25C10.0423 13.25 10.3381 13.1208 10.5631 12.9125L13.5298 14.6458C13.509 14.7333 13.4965 14.825 13.4965 14.9167C13.4965 15.5875 14.0423 16.1333 14.7131 16.1333C15.384 16.1333 15.9298 15.5875 15.9298 14.9167C15.9298 14.2458 15.384 13.7 14.7131 13.7ZM14.7131 8.66667C14.9423 8.66667 15.1298 8.85417 15.1298 9.08333C15.1298 9.3125 14.9423 9.5 14.7131 9.5C14.484 9.5 14.2965 9.3125 14.2965 9.08333C14.2965 8.85417 14.484 8.66667 14.7131 8.66667ZM9.71313 12.4167C9.48397 12.4167 9.29647 12.2292 9.29647 12C9.29647 11.7708 9.48397 11.5833 9.71313 11.5833C9.9423 11.5833 10.1298 11.7708 10.1298 12C10.1298 12.2292 9.9423 12.4167 9.71313 12.4167ZM14.7131 15.3417C14.484 15.3417 14.2965 15.1542 14.2965 14.925C14.2965 14.6958 14.484 14.5083 14.7131 14.5083C14.9423 14.5083 15.1298 14.6958 15.1298 14.925C15.1298 15.1542 14.9423 15.3417 14.7131 15.3417Z" fill="black"/>
</g>
<defs>
<clipPath id="clip0_1_6">
<rect width="10" height="10" fill="white" transform="translate(7.21313 7)"/>
</clipPath>
</defs>
</svg>
