<svg width="38" height="38" viewBox="0 0 38 38" fill="none" xmlns="http://www.w3.org/2000/svg">
<rect x="2" y="2" width="34" height="34" rx="17" fill="#F3F4F6"/>
<rect x="2" y="2" width="34" height="34" rx="17" stroke="#F9FAFB" stroke-width="4"/>
<path d="M12.52 25.16C12.102 25.16 11.7442 25.0112 11.4465 24.7135C11.1488 24.4158 11 24.058 11 23.64V14.52C11 14.102 11.1488 13.7442 11.4465 13.4465C11.7442 13.1488 12.102 13 12.52 13H24.68C25.098 13 25.4558 13.1488 25.7535 13.4465C26.0512 13.7442 26.2 14.102 26.2 14.52V23.64C26.2 24.058 26.0512 24.4158 25.7535 24.7135C25.4558 25.0112 25.098 25.16 24.68 25.16H12.52ZM18.6 19.84L12.52 16.04V23.64H24.68V16.04L18.6 19.84ZM18.6 18.32L24.68 14.52H12.52L18.6 18.32ZM12.52 16.04V14.52V23.64V16.04Z" fill="#0891B2"/>
</svg>
