<svg xmlns="http://www.w3.org/2000/svg" width="50" height="50" viewBox="0 0 50 50" fill="none">
    <circle cx="25" cy="25" r="25" fill="#EEF2FF"/>
    <path d="M25 25.8112L17.05 20.8424V18.9603L24.9735 23.9125L25 23.9291L25.0265 23.9125L33.0265 18.9125L33.1743 18.8201H33H17H16.8257L16.95 18.8978V20.7799V20.8701V30.8701V30.9201H17H33H33.05V30.8701V20.8701V20.7799L32.9735 20.8277L25 25.8112ZM17 32.8201C16.4634 32.8201 16.0052 32.6296 15.6229 32.2473C15.2405 31.8649 15.05 31.4068 15.05 30.8701V18.8701C15.05 18.3335 15.2405 17.8753 15.6229 17.493C16.0052 17.1106 16.4634 16.9201 17 16.9201H33C33.5366 16.9201 33.9948 17.1106 34.3771 17.493C34.7595 17.8753 34.95 18.3335 34.95 18.8701V30.8701C34.95 31.4068 34.7595 31.8649 34.3771 32.2473C33.9948 32.6296 33.5366 32.8201 33 32.8201H17Z" fill="#4F46E5" stroke="#EEF2FF" stroke-width="0.1"/>
</svg>