<svg width="60" height="60" viewBox="0 0 60 60" fill="none" xmlns="http://www.w3.org/2000/svg">
<rect x="2" y="2" width="56" height="56" rx="28" fill="#F9FAFB"/>
<rect x="2" y="2" width="56" height="56" rx="28" stroke="#F3F4F6" stroke-width="4"/>
<path d="M28.75 29C27.375 29 26.1979 28.5104 25.2188 27.5312C24.2396 26.5521 23.75 25.375 23.75 24C23.75 22.625 24.2396 21.4479 25.2188 20.4688C26.1979 19.4896 27.375 19 28.75 19C30.125 19 31.3021 19.4896 32.2812 20.4688C33.2604 21.4479 33.75 22.625 33.75 24C33.75 25.375 33.2604 26.5521 32.2812 27.5312C31.3021 28.5104 30.125 29 28.75 29ZM28.75 26.5C29.4375 26.5 30.026 26.2552 30.5156 25.7656C31.0052 25.276 31.25 24.6875 31.25 24C31.25 23.3125 31.0052 22.724 30.5156 22.2344C30.026 21.7448 29.4375 21.5 28.75 21.5C28.0625 21.5 27.474 21.7448 26.9844 22.2344C26.4948 22.724 26.25 23.3125 26.25 24C26.25 24.6875 26.4948 25.276 26.9844 25.7656C27.474 26.2552 28.0625 26.5 28.75 26.5ZM42.625 43.375L38.625 39.375C38.1875 39.625 37.7188 39.8333 37.2188 40C36.7188 40.1667 36.1875 40.25 35.625 40.25C34.0625 40.25 32.7344 39.7031 31.6406 38.6094C30.5469 37.5156 30 36.1875 30 34.625C30 33.0625 30.5469 31.7344 31.6406 30.6406C32.7344 29.5469 34.0625 29 35.625 29C37.1875 29 38.5156 29.5469 39.6094 30.6406C40.7031 31.7344 41.25 33.0625 41.25 34.625C41.25 35.1875 41.1667 35.7188 41 36.2188C40.8333 36.7188 40.625 37.1875 40.375 37.625L44.375 41.625L42.625 43.375ZM35.625 37.75C36.5 37.75 37.2396 37.4479 37.8438 36.8438C38.4479 36.2396 38.75 35.5 38.75 34.625C38.75 33.75 38.4479 33.0104 37.8438 32.4062C37.2396 31.8021 36.5 31.5 35.625 31.5C34.75 31.5 34.0104 31.8021 33.4062 32.4062C32.8021 33.0104 32.5 33.75 32.5 34.625C32.5 35.5 32.8021 36.2396 33.4062 36.8438C34.0104 37.4479 34.75 37.75 35.625 37.75ZM18.75 39V35.5312C18.75 34.8229 18.9271 34.1667 19.2812 33.5625C19.6354 32.9583 20.125 32.5 20.75 32.1875C21.8125 31.6458 23.0104 31.1875 24.3438 30.8125C25.6771 30.4375 27.1562 30.25 28.7812 30.25C28.5312 30.625 28.3177 31.026 28.1406 31.4531C27.9635 31.8802 27.8229 32.3229 27.7188 32.7812C26.4688 32.8854 25.3542 33.099 24.375 33.4219C23.3958 33.7448 22.5729 34.0833 21.9062 34.4375C21.6979 34.5417 21.5365 34.6927 21.4219 34.8906C21.3073 35.0885 21.25 35.3021 21.25 35.5312V36.5H27.7188C27.8229 36.9583 27.9635 37.3958 28.1406 37.8125C28.3177 38.2292 28.5312 38.625 28.7812 39H18.75Z" fill="#4B5563"/>
</svg>
