<svg width="30" height="30" viewBox="0 0 30 30" fill="none" xmlns="http://www.w3.org/2000/svg">
<path d="M13.75 15C12.375 15 11.1979 14.5104 10.2188 13.5312C9.23958 12.5521 8.75 11.375 8.75 10C8.75 8.625 9.23958 7.44792 10.2188 6.46875C11.1979 5.48958 12.375 5 13.75 5C15.125 5 16.3021 5.48958 17.2812 6.46875C18.2604 7.44792 18.75 8.625 18.75 10C18.75 11.375 18.2604 12.5521 17.2812 13.5312C16.3021 14.5104 15.125 15 13.75 15ZM13.75 12.5C14.4375 12.5 15.026 12.2552 15.5156 11.7656C16.0052 11.276 16.25 10.6875 16.25 10C16.25 9.3125 16.0052 8.72396 15.5156 8.23438C15.026 7.74479 14.4375 7.5 13.75 7.5C13.0625 7.5 12.474 7.74479 11.9844 8.23438C11.4948 8.72396 11.25 9.3125 11.25 10C11.25 10.6875 11.4948 11.276 11.9844 11.7656C12.474 12.2552 13.0625 12.5 13.75 12.5ZM27.625 29.375L23.625 25.375C23.1875 25.625 22.7188 25.8333 22.2188 26C21.7188 26.1667 21.1875 26.25 20.625 26.25C19.0625 26.25 17.7344 25.7031 16.6406 24.6094C15.5469 23.5156 15 22.1875 15 20.625C15 19.0625 15.5469 17.7344 16.6406 16.6406C17.7344 15.5469 19.0625 15 20.625 15C22.1875 15 23.5156 15.5469 24.6094 16.6406C25.7031 17.7344 26.25 19.0625 26.25 20.625C26.25 21.1875 26.1667 21.7188 26 22.2188C25.8333 22.7188 25.625 23.1875 25.375 23.625L29.375 27.625L27.625 29.375ZM20.625 23.75C21.5 23.75 22.2396 23.4479 22.8438 22.8438C23.4479 22.2396 23.75 21.5 23.75 20.625C23.75 19.75 23.4479 19.0104 22.8438 18.4062C22.2396 17.8021 21.5 17.5 20.625 17.5C19.75 17.5 19.0104 17.8021 18.4062 18.4062C17.8021 19.0104 17.5 19.75 17.5 20.625C17.5 21.5 17.8021 22.2396 18.4062 22.8438C19.0104 23.4479 19.75 23.75 20.625 23.75ZM3.75 25V21.5312C3.75 20.8229 3.92708 20.1667 4.28125 19.5625C4.63542 18.9583 5.125 18.5 5.75 18.1875C6.8125 17.6458 8.01042 17.1875 9.34375 16.8125C10.6771 16.4375 12.1562 16.25 13.7812 16.25C13.5312 16.625 13.3177 17.026 13.1406 17.4531C12.9635 17.8802 12.8229 18.3229 12.7188 18.7812C11.4688 18.8854 10.3542 19.099 9.375 19.4219C8.39583 19.7448 7.57292 20.0833 6.90625 20.4375C6.69792 20.5417 6.53646 20.6927 6.42188 20.8906C6.30729 21.0885 6.25 21.3021 6.25 21.5312V22.5H12.7188C12.8229 22.9583 12.9635 23.3958 13.1406 23.8125C13.3177 24.2292 13.5312 24.625 13.7812 25H3.75Z" fill="#4B5563"/>
</svg>
