<svg width="20" height="20" viewBox="0 0 20 20" fill="none" xmlns="http://www.w3.org/2000/svg">
<g clipPath="url(#clip0_124_18548)">
<path d="M14.7166 14.7167L13.8333 15.6L13.2416 15.0083L14.1249 14.125L12.5083 12.5083L11.6249 13.3917L11.0333 12.8L11.9166 11.9167L10.2999 10.3L9.41659 11.1833L8.82492 10.5917L9.70825 9.70833L8.08325 8.08333L7.19992 8.96666L6.60825 8.37499L7.49158 7.49166L5.87492 5.87499L4.99159 6.75833L4.39992 6.16666L5.28325 5.28333L3.33325 3.33333V15C3.33325 15.9167 4.08325 16.6667 4.99992 16.6667H16.6666L14.7166 14.7167ZM5.83325 14.1667V9.36666L10.6333 14.1667H5.83325Z" fill="#6B7280"/>
</g>
<defs>
<clipPath id="clip0_124_18548">
<rect width="20" height="20" fill="white"/>
</clipPath>
</defs>
</svg>
