<svg width="501" height="376" viewBox="0 0 501 376" fill="none" xmlns="http://www.w3.org/2000/svg">
<path d="M139.1 68.1492L65.6877 189.129C64.3246 190.98 63.5896 193.219 63.5908 195.519L94.8408 309.902H407.028L435.153 205.361C435.153 203.22 434.516 201.129 433.322 199.353L361.125 68.5308C360.141 67.0637 358.81 65.8617 357.253 65.0304C355.694 64.1991 353.956 63.7644 352.191 63.7644H147.769C146.082 63.765 144.418 64.1622 142.913 64.9238C141.407 65.6853 140.101 66.79 139.1 68.1492Z" fill="#F4F4F4"/>
<path d="M420.312 310.372H80.9375C80.8293 310.35 80.7318 310.291 80.6618 310.206C80.5918 310.12 80.5537 310.013 80.5537 309.902C80.5537 309.792 80.5918 309.685 80.6618 309.599C80.7318 309.514 80.8293 309.455 80.9375 309.433H420.312C420.422 309.455 420.519 309.514 420.587 309.599C420.659 309.685 420.697 309.792 420.697 309.902C420.697 310.013 420.659 310.12 420.587 310.206C420.519 310.291 420.422 310.35 420.312 310.372Z" fill="#B2B6BB"/>
<path d="M139.856 111.172C138.239 115.049 137.25 119.159 136.925 123.348H136.769L126.231 123.125H126.097V122.813C126.134 122.537 126.169 122.262 126.203 121.984C126.368 120.548 126.638 119.127 127.009 117.73C127.619 115.438 128.475 113.218 129.562 111.109C129.583 111.058 129.62 111.015 129.669 110.987C129.717 110.96 129.773 110.95 129.828 110.959C133.109 111.032 136.391 111.101 139.675 111.166L139.856 111.172Z" fill="#DADDDF"/>
<path d="M138.956 138.494H138.784L129.009 138.291C128.957 138.296 128.905 138.282 128.862 138.253C128.819 138.224 128.787 138.181 128.772 138.131C127.673 135.716 126.896 133.167 126.459 130.55C126.243 129.286 126.106 128.009 126.05 126.728C126.044 126.685 126.036 126.642 126.025 126.6V126.287H126.187L136.666 126.506C136.859 126.506 136.85 126.506 136.859 126.706C136.906 127.579 136.947 128.451 137.012 129.321C137.122 130.702 137.315 132.076 137.591 133.434C137.917 135.096 138.357 136.735 138.906 138.338C138.937 138.381 138.937 138.431 138.956 138.494Z" fill="#DADDDF"/>
<path d="M180.728 142.526C180.694 142.585 180.669 142.629 180.641 142.673C179.77 143.945 178.801 145.147 177.744 146.269C176.471 147.65 175.06 148.899 173.535 149.994C170.587 152.133 167.271 153.711 163.753 154.648C162.385 155.007 160.995 155.271 159.591 155.439L159.181 155.502H158.941L158.716 155.348L158.981 155.167C162.059 153.164 164.767 150.643 166.988 147.717C168.242 146.065 169.351 144.307 170.303 142.463C170.321 142.413 170.356 142.371 170.402 142.344C170.447 142.316 170.501 142.305 170.553 142.313L180.553 142.526H180.728Z" fill="#DADDDF"/>
<path d="M171.156 124.058L157.185 123.767L157.441 111.548C157.495 111.544 157.549 111.544 157.603 111.548L168.35 111.77C168.398 111.764 168.446 111.776 168.485 111.803C168.525 111.83 168.553 111.87 168.566 111.917C169.521 114.236 170.217 116.653 170.641 119.126C170.863 120.412 171.015 121.71 171.097 123.013C171.125 123.357 171.125 123.698 171.156 124.058Z" fill="#DADDDF"/>
<path d="M171.006 127.32C170.987 127.607 170.978 127.895 170.947 128.18C170.872 128.858 170.809 129.54 170.7 130.216C170.55 131.154 170.387 132.092 170.181 133.006C169.722 135.042 169.073 137.032 168.244 138.948C168.23 139.004 168.196 139.054 168.148 139.086C168.1 139.118 168.042 139.132 167.984 139.123C164.318 139.042 160.651 138.964 156.984 138.888H156.784L157.034 127.048L171.006 127.32Z" fill="#DADDDF"/>
<path d="M154.288 111.553L154.031 123.792L140.388 123.504C140.413 123.191 140.428 122.878 140.469 122.591C140.55 121.909 140.622 121.221 140.744 120.545C140.931 119.51 141.131 118.478 141.369 117.455C141.87 115.397 142.572 113.393 143.466 111.472C143.482 111.424 143.515 111.383 143.558 111.357C143.602 111.331 143.653 111.32 143.703 111.328L154.106 111.55L154.288 111.553Z" fill="#DADDDF"/>
<path d="M153.978 127.122C153.895 130.961 153.813 134.796 153.734 138.628V138.804H153.55C149.975 138.729 146.402 138.654 142.831 138.582C142.778 138.587 142.725 138.573 142.681 138.543C142.638 138.512 142.607 138.467 142.594 138.416C141.806 136.413 141.226 134.333 140.866 132.211C140.684 131.119 140.553 130.021 140.437 128.917C140.359 128.201 140.356 127.472 140.322 126.75C140.322 126.731 140.322 126.712 140.322 126.675C140.375 126.672 140.428 126.672 140.481 126.675L153.803 126.95C153.937 126.947 153.981 126.978 153.978 127.122Z" fill="#DADDDF"/>
<path d="M185.975 124.458L174.525 124.217C174.38 119.992 173.565 115.817 172.112 111.847H172.29L182.784 112.063C182.837 112.058 182.89 112.071 182.935 112.099C182.979 112.127 183.013 112.17 183.031 112.22C184.197 114.67 185.028 117.266 185.5 119.938C185.749 121.363 185.904 122.803 185.965 124.248C185.981 124.314 185.975 124.379 185.975 124.458Z" fill="#DADDDF"/>
<path d="M185.919 127.538C185.9 127.817 185.887 128.079 185.862 128.339C185.555 131.776 184.645 135.132 183.175 138.253C183.012 138.607 182.834 138.954 182.669 139.304C182.656 139.338 182.632 139.367 182.601 139.386C182.57 139.406 182.533 139.414 182.497 139.41C178.99 139.333 175.483 139.258 171.975 139.185H171.862C171.997 138.822 172.131 138.469 172.259 138.112C172.915 136.305 173.429 134.449 173.794 132.561C174.066 131.191 174.259 129.806 174.372 128.414C174.4 128.101 174.428 127.757 174.447 127.432C174.447 127.341 174.478 127.301 174.572 127.31C174.606 127.313 174.641 127.313 174.675 127.31L185.919 127.538Z" fill="#DADDDF"/>
<path d="M181.125 108.917C181.125 108.917 181.109 108.945 181.1 108.961H180.956L170.941 108.754C170.891 108.759 170.84 108.747 170.797 108.721C170.754 108.694 170.721 108.654 170.703 108.607C169.427 105.916 167.808 103.402 165.884 101.129C164.75 99.8153 163.494 98.6111 162.134 97.5325C161.462 96.9914 160.766 96.4847 160.078 95.9687L159.962 95.878L160.103 95.7873C160.087 95.7216 160.069 95.6559 160.044 95.5684C164.31 96.147 168.401 97.6388 172.039 99.9422C175.676 102.246 178.776 105.307 181.125 108.917Z" fill="#DADDDF"/>
<path d="M151.438 155.205C151.343 155.229 151.245 155.243 151.147 155.246C150.049 155.077 148.963 154.842 147.894 154.542C143.598 153.35 139.628 151.197 136.284 148.246C135.016 147.139 133.848 145.922 132.794 144.609C132.012 143.611 131.292 142.567 130.638 141.481L130.594 141.384H130.759C133.87 141.451 136.978 141.514 140.084 141.575C140.135 141.572 140.184 141.586 140.226 141.614C140.268 141.643 140.299 141.684 140.316 141.731C141.244 143.718 142.352 145.616 143.625 147.402C144.803 149.022 146.116 150.539 147.55 151.937C148.729 153.1 150 154.167 151.35 155.127C151.381 155.15 151.411 155.176 151.438 155.205Z" fill="#DADDDF"/>
<path d="M152.556 95.703C152.125 96.0157 151.619 96.3504 151.122 96.7132C149.468 97.9451 147.927 99.3215 146.516 100.826C144.606 102.828 142.964 105.071 141.631 107.497C141.55 107.65 141.472 107.81 141.381 107.957C141.364 107.98 141.342 108 141.317 108.015C141.292 108.031 141.263 108.041 141.234 108.044C141.066 108.044 140.894 108.044 140.725 108.044L131.609 107.853C136.838 100.785 143.75 96.6131 152.456 95.4778L152.394 95.5935L152.556 95.703Z" fill="#DADDDF"/>
<path d="M166.606 142.238C165.274 144.469 163.682 146.535 161.862 148.389C160.254 150.057 158.453 151.527 156.497 152.768L156.722 142.044L166.606 142.238Z" fill="#DADDDF"/>
<path d="M153.65 141.969L153.428 152.487C149.542 149.694 146.368 146.023 144.166 141.772L153.65 141.969Z" fill="#DADDDF"/>
<path d="M167 108.573L157.509 108.376L157.719 98.3679C159.639 99.6765 161.396 101.211 162.95 102.94C164.49 104.673 165.847 106.561 167 108.573Z" fill="#DADDDF"/>
<path d="M154.562 98.6025L154.356 108.392L145.244 108.213C147.554 104.323 150.746 101.03 154.562 98.6025Z" fill="#DADDDF"/>
<path d="M388.15 208.226C393.844 201.439 392.734 192.479 389.122 187.897L381.994 188.522C385.038 190.752 386.406 196.77 384.091 199.747C381.775 202.725 376.375 204.126 373.466 201.708C371.181 199.832 369.537 194.493 366.591 194.799C366.203 188.472 360.225 183.021 353.894 183.227C353.125 181.615 352.003 180.198 350.612 179.081C349.219 177.965 347.594 177.178 345.853 176.779C344.116 176.381 342.309 176.382 340.569 176.781C338.831 177.181 337.203 177.969 335.812 179.087L335.5 202.978C335.5 202.978 339.722 209.818 347.938 208.942C350.1 208.711 351.944 208.22 353.391 206.984C353.597 207.247 353.85 207.467 354.138 207.635C355.266 208.285 356.719 208.141 357.888 207.553C358.034 207.475 358.181 207.391 358.322 207.303C360.669 210.944 365.509 214.265 369.416 215.157C375.106 216.445 384.403 212.695 388.15 208.226Z" fill="white"/>
<g opacity="0.2">
<path opacity="0.2" d="M365.994 197.142C365.987 197.106 365.987 197.071 365.994 197.035L366.053 196.723C366.081 196.591 366.112 196.426 366.137 196.225C366.162 196.025 366.203 195.803 366.216 195.544C366.337 194.086 366.172 192.619 365.731 191.225C365.431 190.262 365 189.346 364.447 188.504C363.822 187.533 363.034 186.677 362.119 185.973C360.009 184.342 357.387 183.521 354.725 183.662C354.341 183.662 353.966 183.734 353.612 183.781H353.544L353.522 183.718C352.691 181.324 351.053 179.291 348.894 177.967C348.412 177.676 347.912 177.421 347.394 177.204C346.903 177.008 346.4 176.843 345.887 176.71C344.972 176.457 344.025 176.32 343.075 176.303C341.703 176.266 340.341 176.536 339.084 177.094C338.887 177.176 338.694 177.27 338.506 177.376C338.366 177.444 338.228 177.52 338.097 177.604L337.847 177.751C337.819 177.77 337.791 177.786 337.759 177.798C337.759 177.798 337.784 177.776 337.837 177.739L338.078 177.576C338.209 177.487 338.344 177.406 338.484 177.332C338.672 177.224 338.862 177.126 339.059 177.038C340.316 176.452 341.691 176.162 343.078 176.19C344.037 176.201 344.991 176.332 345.916 176.581C346.434 176.714 346.944 176.878 347.441 177.072C347.966 177.29 348.475 177.547 348.962 177.842C351.159 179.177 352.825 181.236 353.672 183.665L353.581 183.612C355.094 183.37 356.644 183.443 358.128 183.827C359.612 184.212 361 184.898 362.206 185.845C363.131 186.564 363.925 187.435 364.556 188.422C365.109 189.277 365.541 190.206 365.834 191.181C366.269 192.59 366.419 194.072 366.272 195.541C366.253 195.8 366.209 196.028 366.178 196.225C366.153 196.392 366.122 196.557 366.078 196.72L366.003 197.032C366.003 197.069 366 197.106 365.994 197.142Z" fill="black"/>
</g>
<g opacity="0.2">
<path opacity="0.2" d="M369.975 197.908C369.944 197.908 369.903 197.636 369.719 197.236C369.609 197.003 369.475 196.784 369.316 196.582C369.122 196.335 368.897 196.114 368.647 195.922C368.394 195.736 368.122 195.58 367.831 195.459C367.594 195.363 367.344 195.295 367.091 195.256C366.656 195.187 366.378 195.221 366.375 195.19C366.438 195.164 366.503 195.149 366.569 195.146C366.747 195.125 366.928 195.125 367.106 195.146C367.372 195.171 367.634 195.231 367.884 195.325C368.191 195.443 368.481 195.603 368.747 195.8C369.006 196.001 369.237 196.236 369.437 196.497C369.597 196.714 369.725 196.949 369.825 197.198C369.894 197.365 369.941 197.539 369.966 197.717C369.981 197.836 369.987 197.905 369.975 197.908Z" fill="black"/>
</g>
<g opacity="0.2">
<path opacity="0.2" d="M368.828 206.055C368.828 206.055 368.766 205.868 368.613 205.545C368.394 205.091 368.084 204.685 367.706 204.351C367.144 203.842 366.431 203.528 365.678 203.456C364.738 203.37 363.797 203.647 363.053 204.232L362.953 204.313L362.925 204.188C362.834 203.771 362.694 203.365 362.506 202.981C362.034 201.987 361.291 201.148 360.359 200.56C359.594 200.089 358.728 199.804 357.834 199.728C357.231 199.677 356.625 199.714 356.031 199.841C355.609 199.938 355.384 200.022 355.381 200.007C355.431 199.974 355.484 199.95 355.541 199.935C355.697 199.873 355.853 199.822 356.016 199.781C356.759 199.59 357.531 199.549 358.291 199.661C359.05 199.772 359.781 200.034 360.438 200.432C361.4 201.027 362.169 201.887 362.653 202.909C362.844 203.308 362.988 203.727 363.081 204.16L362.953 204.113C363.728 203.505 364.709 203.222 365.691 203.322C366.469 203.4 367.203 203.729 367.778 204.26C368.159 204.61 368.463 205.036 368.666 205.511C368.722 205.637 368.766 205.768 368.8 205.902C368.819 205.95 368.828 206.003 368.828 206.055Z" fill="black"/>
</g>
<g opacity="0.2">
<path opacity="0.2" d="M391.365 202.506C391.353 202.589 391.331 202.671 391.303 202.75C391.253 202.909 391.187 203.144 391.081 203.441C390.772 204.275 390.387 205.079 389.931 205.843C389.247 206.976 388.431 208.025 387.503 208.97C386.959 209.525 386.381 210.047 385.775 210.534C385.128 211.064 384.453 211.555 383.75 212.007C381.284 213.611 378.565 214.782 375.706 215.469C374.844 215.677 373.962 215.808 373.075 215.86C372.762 215.86 372.515 215.86 372.35 215.86C372.265 215.86 372.181 215.853 372.097 215.838C372.181 215.831 372.265 215.831 372.35 215.838C372.515 215.838 372.759 215.838 373.069 215.807C373.95 215.73 374.825 215.583 375.681 215.366C378.512 214.652 381.209 213.475 383.659 211.882C384.356 211.431 385.031 210.942 385.675 210.418C386.278 209.93 386.853 209.408 387.397 208.855C388.322 207.926 389.137 206.895 389.831 205.783C390.294 205.03 390.69 204.239 391.022 203.419C391.137 203.125 391.209 202.893 391.272 202.74C391.297 202.66 391.328 202.582 391.365 202.506Z" fill="black"/>
</g>
<g opacity="0.2">
<path opacity="0.2" d="M384.934 196.723C384.95 196.862 384.95 197.003 384.934 197.142C384.9 197.52 384.831 197.895 384.734 198.261C384.406 199.485 383.744 200.593 382.822 201.463C381.903 202.333 380.759 202.929 379.519 203.187C379.147 203.269 378.769 203.316 378.391 203.325C378.253 203.335 378.113 203.329 377.975 203.306C378.484 203.258 378.991 203.182 379.494 203.078C380.7 202.795 381.809 202.198 382.713 201.346C383.613 200.495 384.272 199.42 384.622 198.23C384.756 197.735 384.863 197.231 384.934 196.723Z" fill="black"/>
</g>
<path d="M345.562 119.757H177.116C176.375 119.757 175.775 120.358 175.775 121.099V243.911C175.775 244.652 176.375 245.253 177.116 245.253H345.562C346.303 245.253 346.903 244.652 346.903 243.911V121.099C346.903 120.358 346.303 119.757 345.562 119.757Z" fill="#4D61FC"/>
<path opacity="0.6" d="M345.562 119.757H177.116C176.375 119.757 175.775 120.358 175.775 121.099V243.911C175.775 244.652 176.375 245.253 177.116 245.253H345.562C346.303 245.253 346.903 244.652 346.903 243.911V121.099C346.903 120.358 346.303 119.757 345.562 119.757Z" fill="white"/>
<path opacity="0.4" d="M176.834 119.535H345.719C346.075 119.535 346.416 119.676 346.666 119.928C346.919 120.179 347.059 120.521 347.059 120.877V130.162H175.5V120.877C175.5 120.522 175.64 120.182 175.89 119.93C176.141 119.679 176.48 119.536 176.834 119.535Z" fill="#4D61FC"/>
<path d="M343.769 119.726H175.322C174.581 119.726 173.981 120.326 173.981 121.067V243.88C173.981 244.621 174.581 245.222 175.322 245.222H343.769C344.51 245.222 345.11 244.621 345.11 243.88V121.067C345.11 120.326 344.51 119.726 343.769 119.726Z" fill="#4D61FC"/>
<path opacity="0.8" d="M343.903 130.807H175.435C174.694 130.807 174.094 131.357 174.094 132.035V244.493C174.094 245.171 174.694 245.721 175.435 245.721H343.903C344.643 245.721 345.243 245.171 345.243 244.493V132.035C345.243 131.357 344.643 130.807 343.903 130.807Z" fill="white"/>
<path d="M343.66 245.437H175.435C174.1 245.437 173.763 245.125 173.763 243.811V121.136C173.763 119.826 174.1 119.51 175.435 119.51H343.66C344.994 119.51 345.331 119.823 345.331 121.136V243.811C345.331 245.118 344.994 245.437 343.66 245.437ZM175.435 119.941C174.341 119.941 174.203 120.063 174.203 121.136V243.811C174.203 244.881 174.341 245.006 175.435 245.006H343.66C344.75 245.006 344.891 244.881 344.891 243.811V121.136C344.891 120.063 344.75 119.941 343.66 119.941H175.435Z" fill="#4D61FC"/>
<path opacity="0.6" d="M343.66 245.437H175.435C174.1 245.437 173.763 245.125 173.763 243.811V121.136C173.763 119.826 174.1 119.51 175.435 119.51H343.66C344.994 119.51 345.331 119.823 345.331 121.136V243.811C345.331 245.118 344.994 245.437 343.66 245.437ZM175.435 119.941C174.341 119.941 174.203 120.063 174.203 121.136V243.811C174.203 244.881 174.341 245.006 175.435 245.006H343.66C344.75 245.006 344.891 244.881 344.891 243.811V121.136C344.891 120.063 344.75 119.941 343.66 119.941H175.435Z" fill="white"/>
<path d="M175.09 119.535H343.975C344.331 119.535 344.672 119.676 344.922 119.928C345.175 120.179 345.315 120.521 345.315 120.877V130.162H173.753V120.877C173.753 120.521 173.894 120.18 174.145 119.929C174.395 119.678 174.735 119.536 175.09 119.535Z" fill="#0EA5E9"/>
<path d="M179.697 126.541C180.534 126.541 181.212 125.862 181.212 125.024C181.212 124.186 180.534 123.507 179.697 123.507C178.86 123.507 178.181 124.186 178.181 125.024C178.181 125.862 178.86 126.541 179.697 126.541Z" fill="white"/>
<path d="M184.516 126.541C185.353 126.541 186.031 125.862 186.031 125.024C186.031 124.186 185.353 123.507 184.516 123.507C183.678 123.507 183 124.186 183 125.024C183 125.862 183.678 126.541 184.516 126.541Z" fill="white"/>
<path d="M189.331 126.541C190.168 126.541 190.847 125.862 190.847 125.024C190.847 124.186 190.168 123.507 189.331 123.507C188.494 123.507 187.815 124.186 187.815 125.024C187.815 125.862 188.494 126.541 189.331 126.541Z" fill="white"/>
<path d="M315.041 170.905H204.053C201.728 170.905 199.844 172.791 199.844 175.118V175.562C199.844 177.888 201.728 179.775 204.053 179.775H315.041C317.366 179.775 319.25 177.888 319.25 175.562V175.118C319.25 172.791 317.366 170.905 315.041 170.905Z" fill="white"/>
<path d="M315.041 170.905H305.812V179.771H315.041C316.156 179.771 317.228 179.328 318.016 178.538C318.806 177.748 319.25 176.676 319.25 175.559V175.118C319.25 174 318.806 172.929 318.016 172.139C317.228 171.349 316.156 170.905 315.041 170.905Z" fill="#0E9AE9"/>
<path d="M309.25 177.679C309.231 177.657 309.216 177.632 309.206 177.604C309.197 177.576 309.193 177.547 309.195 177.518C309.197 177.489 309.205 177.46 309.218 177.434C309.231 177.408 309.25 177.385 309.272 177.366L311.025 175.774C311.045 175.756 311.068 175.741 311.093 175.732C311.119 175.723 311.146 175.719 311.173 175.721C311.2 175.723 311.226 175.73 311.25 175.743C311.274 175.755 311.295 175.772 311.312 175.793L311.534 176.059C311.554 176.081 311.569 176.106 311.579 176.133C311.588 176.161 311.592 176.19 311.591 176.219C311.589 176.248 311.581 176.277 311.568 176.303C311.556 176.329 311.537 176.353 311.516 176.372L309.75 177.957C309.73 177.975 309.706 177.989 309.681 177.998C309.655 178.006 309.628 178.01 309.601 178.008C309.575 178.006 309.548 177.998 309.525 177.986C309.501 177.973 309.48 177.956 309.462 177.935L309.25 177.679Z" fill="white"/>
<path d="M313.106 172.659C313.319 172.661 313.531 172.697 313.731 172.766C314.165 172.917 314.531 173.217 314.765 173.613C315 174.009 315.087 174.474 315.015 174.928C314.94 175.383 314.706 175.795 314.359 176.095C314.009 176.394 313.565 176.561 313.106 176.566C312.894 176.564 312.682 176.528 312.481 176.459C312.044 176.311 311.673 176.012 311.435 175.615C311.197 175.218 311.108 174.75 311.183 174.294C311.258 173.838 311.492 173.423 311.845 173.123C312.197 172.824 312.644 172.659 313.106 172.659ZM313.106 173.188C312.771 173.19 312.447 173.31 312.191 173.528C311.936 173.746 311.765 174.046 311.709 174.377C311.654 174.709 311.717 175.049 311.887 175.338C312.057 175.627 312.324 175.847 312.64 175.959C312.791 176.009 312.948 176.036 313.106 176.037C313.403 176.037 313.69 175.945 313.934 175.773C314.175 175.601 314.356 175.358 314.453 175.077C314.515 174.9 314.54 174.713 314.528 174.526C314.519 174.34 314.469 174.157 314.387 173.989C314.306 173.82 314.19 173.67 314.053 173.546C313.912 173.422 313.75 173.327 313.572 173.266C313.422 173.214 313.265 173.187 313.106 173.188Z" fill="white"/>
<path d="M206.094 176.04C206.517 176.04 206.859 175.697 206.859 175.274C206.859 174.851 206.517 174.508 206.094 174.508C205.671 174.508 205.328 174.851 205.328 175.274C205.328 175.697 205.671 176.04 206.094 176.04Z" fill="#B2B6BB"/>
<path d="M208.647 176.04C209.07 176.04 209.413 175.697 209.413 175.274C209.413 174.851 209.07 174.508 208.647 174.508C208.224 174.508 207.881 174.851 207.881 175.274C207.881 175.697 208.224 176.04 208.647 176.04Z" fill="#B2B6BB"/>
<path d="M211.197 176.04C211.62 176.04 211.962 175.697 211.962 175.274C211.962 174.851 211.62 174.508 211.197 174.508C210.774 174.508 210.431 174.851 210.431 175.274C210.431 175.697 210.774 176.04 211.197 176.04Z" fill="#B2B6BB"/>
<path d="M213.75 176.04C214.173 176.04 214.516 175.697 214.516 175.274C214.516 174.851 214.173 174.508 213.75 174.508C213.327 174.508 212.984 174.851 212.984 175.274C212.984 175.697 213.327 176.04 213.75 176.04Z" fill="#B2B6BB"/>
<path d="M216.3 176.04C216.723 176.04 217.065 175.697 217.065 175.274C217.065 174.851 216.723 174.508 216.3 174.508C215.877 174.508 215.534 174.851 215.534 175.274C215.534 175.697 215.877 176.04 216.3 176.04Z" fill="#B2B6BB"/>
<path d="M218.853 176.04C219.276 176.04 219.619 175.697 219.619 175.274C219.619 174.851 219.276 174.508 218.853 174.508C218.43 174.508 218.087 174.851 218.087 175.274C218.087 175.697 218.43 176.04 218.853 176.04Z" fill="#B2B6BB"/>
<path d="M228.25 150.823H225.419C223.748 150.823 222.394 152.178 222.394 153.85V161.294C222.394 162.966 223.748 164.321 225.419 164.321H228.25C229.92 164.321 231.275 162.966 231.275 161.294V153.85C231.275 152.178 229.92 150.823 228.25 150.823Z" fill="white"/>
<path d="M241.447 155.43H238.616C236.945 155.43 235.591 156.785 235.591 158.457V161.291C235.591 162.963 236.945 164.318 238.616 164.318H241.447C243.118 164.318 244.472 162.963 244.472 161.291V158.457C244.472 156.785 243.118 155.43 241.447 155.43Z" fill="white"/>
<path d="M254.644 155.43H251.813C250.142 155.43 248.788 156.785 248.788 158.457V161.291C248.788 162.963 250.142 164.318 251.813 164.318H254.644C256.314 164.318 257.669 162.963 257.669 161.291V158.457C257.669 156.785 256.314 155.43 254.644 155.43Z" fill="white"/>
<path d="M267.841 150.823H265.009C263.339 150.823 261.984 152.178 261.984 153.85V161.294C261.984 162.966 263.339 164.321 265.009 164.321H267.841C269.511 164.321 270.866 162.966 270.866 161.294V153.85C270.866 152.178 269.511 150.823 267.841 150.823Z" fill="white"/>
<path d="M278.209 150.823H278.206C276.536 150.823 275.181 152.178 275.181 153.85V161.294C275.181 162.966 276.536 164.321 278.206 164.321H278.209C279.88 164.321 281.234 162.966 281.234 161.294V153.85C281.234 152.178 279.88 150.823 278.209 150.823Z" fill="white"/>
<path d="M289.762 155.43H288.575C286.904 155.43 285.55 156.785 285.55 158.457V161.291C285.55 162.963 286.904 164.318 288.575 164.318H289.762C291.433 164.318 292.787 162.963 292.787 161.291V158.457C292.787 156.785 291.433 155.43 289.762 155.43Z" fill="white"/>
<path d="M300.537 191.381H218.553C218.002 191.381 217.556 191.827 217.556 192.379V208.16C217.556 208.711 218.002 209.158 218.553 209.158H300.537C301.088 209.158 301.534 208.711 301.534 208.16V192.379C301.534 191.827 301.088 191.381 300.537 191.381Z" fill="white"/>
<path d="M295.909 194.73H244.85V195.725H295.909V194.73Z" fill="#DADDDF"/>
<path d="M295.909 198.093H244.85V199.087H295.909V198.093Z" fill="#DADDDF"/>
<path d="M295.909 201.455H244.85V202.449H295.909V201.455Z" fill="#DADDDF"/>
<path d="M277.784 204.817H244.85V205.811H277.784V204.817Z" fill="#DADDDF"/>
<path d="M240.05 192.607H218.959V207.932H240.05V192.607Z" fill="#F4F4F4"/>
<path d="M218.959 203.622L225.181 200.073L229.522 202.518L236.35 197.811L240.05 200.798V207.932H218.997L218.959 203.622Z" fill="#DADDDF"/>
<path d="M228 195.728C228 196.089 227.893 196.442 227.693 196.741C227.493 197.041 227.208 197.275 226.875 197.413C226.542 197.551 226.175 197.587 225.822 197.516C225.468 197.446 225.144 197.272 224.889 197.016C224.634 196.761 224.461 196.436 224.391 196.082C224.321 195.728 224.358 195.361 224.496 195.028C224.634 194.695 224.868 194.411 225.168 194.211C225.468 194.011 225.821 193.904 226.181 193.905C226.664 193.906 227.127 194.098 227.468 194.44C227.809 194.782 228 195.245 228 195.728Z" fill="#DADDDF"/>
<path d="M300.537 213.586H218.553C218.002 213.586 217.556 214.033 217.556 214.584V230.366C217.556 230.917 218.002 231.363 218.553 231.363H300.537C301.088 231.363 301.534 230.917 301.534 230.366V214.584C301.534 214.033 301.088 213.586 300.537 213.586Z" fill="white"/>
<path d="M295.909 216.936H244.85V217.931H295.909V216.936Z" fill="#DADDDF"/>
<path d="M295.909 220.298H244.85V221.293H295.909V220.298Z" fill="#DADDDF"/>
<path d="M295.909 223.66H244.85V224.655H295.909V223.66Z" fill="#DADDDF"/>
<path d="M277.784 227.022H244.85V228.017H277.784V227.022Z" fill="#DADDDF"/>
<path d="M240.05 214.812H218.959V230.137H240.05V214.812Z" fill="#F4F4F4"/>
<path d="M233.308 223.371C233.811 221.264 232.512 219.149 230.407 218.646C228.302 218.143 226.188 219.443 225.685 221.549C225.183 223.656 226.482 225.772 228.587 226.275C230.692 226.778 232.806 225.478 233.308 223.371Z" fill="#DADDDF"/>
<path d="M230.822 222.475L229.8 223.066L228.775 223.657V222.475V221.293L229.8 221.884L230.822 222.475Z" fill="#F4F4F4"/>
<path d="M253.781 285.139L227.141 291.437C227.044 291.46 226.943 291.443 226.858 291.391C226.774 291.339 226.714 291.256 226.691 291.159L218.566 256.725C218.554 256.677 218.552 256.628 218.56 256.58C218.567 256.532 218.584 256.485 218.61 256.444C218.635 256.402 218.669 256.366 218.709 256.338C218.748 256.309 218.793 256.289 218.841 256.278L238.8 251.558L247.428 256.593L254.059 284.688C254.082 284.785 254.065 284.886 254.013 284.971C253.961 285.055 253.878 285.115 253.781 285.139Z" fill="#DADDDF"/>
<path opacity="0.2" d="M238.8 251.558L247.428 256.593L240.744 258.173C240.647 258.195 240.545 258.179 240.461 258.127C240.377 258.074 240.316 257.991 240.294 257.895L238.8 251.558Z" fill="black"/>
<path opacity="0.1" d="M225.62 287.02L253.207 280.498L254.225 284.811C254.243 284.888 254.23 284.968 254.189 285.036C254.147 285.102 254.081 285.15 254.005 285.168L226.995 291.554C226.957 291.562 226.917 291.564 226.879 291.558C226.841 291.551 226.804 291.538 226.77 291.517C226.737 291.497 226.708 291.47 226.686 291.438C226.663 291.406 226.647 291.371 226.637 291.333L225.62 287.02Z" fill="black"/>
<path d="M236.981 275.787L235.603 275.74L235.244 263.94L236.622 263.987L236.981 275.787Z" fill="white"/>
<path d="M233.281 274.442L227.631 272.053L231.516 267.061L232.603 267.909L229.822 271.484L233.819 273.169L233.281 274.442Z" fill="white"/>
<path d="M240.69 272.691L239.64 271.793L242.459 268.493L238.378 266.545L238.972 265.301L244.675 268.024L240.69 272.691Z" fill="white"/>
<path opacity="0.2" d="M343.5 262.479L343.656 260.159C343.659 260.119 343.653 260.079 343.631 260.045C343.609 260.011 343.578 259.985 343.541 259.971L337.25 257.994C337.203 257.983 337.153 257.99 337.113 258.015C337.072 258.039 337.041 258.079 337.028 258.126L336.325 260.371L329.019 283.631C329.009 283.653 329.006 283.677 329.006 283.701C329.006 283.725 329.013 283.749 329.022 283.77C329.034 283.792 329.047 283.812 329.066 283.828C329.081 283.844 329.103 283.857 329.125 283.866L361.125 293.936C361.172 293.948 361.222 293.94 361.263 293.914C361.306 293.889 361.334 293.849 361.347 293.802L368.594 270.726C368.609 270.681 368.609 270.631 368.588 270.586C368.569 270.542 368.531 270.507 368.488 270.489L343.613 262.67C343.575 262.656 343.544 262.63 343.522 262.595C343.503 262.56 343.494 262.519 343.5 262.479Z" fill="black"/>
<path d="M343.5 262.479L343.656 260.159C343.659 260.119 343.653 260.079 343.631 260.045C343.609 260.011 343.578 259.985 343.541 259.971L337.25 257.994C337.203 257.983 337.153 257.99 337.113 258.015C337.072 258.039 337.041 258.079 337.028 258.126L336.325 260.371L329.019 283.631C329.009 283.653 329.006 283.677 329.006 283.701C329.006 283.725 329.013 283.749 329.022 283.77C329.034 283.792 329.047 283.812 329.066 283.828C329.081 283.844 329.103 283.857 329.125 283.866L361.125 293.936C361.172 293.948 361.222 293.94 361.263 293.914C361.306 293.889 361.334 293.849 361.347 293.802L368.594 270.726C368.609 270.681 368.609 270.631 368.588 270.586C368.569 270.542 368.531 270.507 368.488 270.489L343.613 262.67C343.575 262.656 343.544 262.63 343.522 262.595C343.503 262.56 343.494 262.519 343.5 262.479Z" fill="#D0A73E"/>
<path d="M332.659 273.526L352.919 287.672L371.062 261.644L356.022 251.142L347.347 252.459L332.659 273.526Z" fill="#DADDDF"/>
<path opacity="0.2" d="M356.022 251.142L347.347 252.459L352.562 256.102L356.022 251.142Z" fill="black"/>
<g opacity="0.2">
<path opacity="0.2" d="M366.062 264.622L354.797 256.758L354.331 257.427L365.594 265.292L366.062 264.622Z" fill="black"/>
<path opacity="0.2" d="M364.884 266.314L353.622 258.449L353.156 259.119L364.419 266.983L364.884 266.314Z" fill="black"/>
<path opacity="0.2" d="M363.716 267.999L352.45 260.135L351.984 260.804L363.247 268.668L363.716 267.999Z" fill="black"/>
<path opacity="0.2" d="M362.534 269.687L346.031 258.165L345.565 258.834L362.069 270.356L362.534 269.687Z" fill="black"/>
<path opacity="0.2" d="M361.356 271.372L344.853 259.851L344.388 260.52L360.891 272.042L361.356 271.372Z" fill="black"/>
<path opacity="0.2" d="M360.185 273.056L343.681 261.534L343.216 262.203L359.719 273.726L360.185 273.056Z" fill="black"/>
<path opacity="0.2" d="M359.003 274.747L342.503 263.226L342.034 263.895L358.537 275.417L359.003 274.747Z" fill="black"/>
<path opacity="0.2" d="M357.834 276.433L341.331 264.911L340.862 265.581L357.365 277.103L357.834 276.433Z" fill="black"/>
<path opacity="0.2" d="M356.656 278.117L340.153 266.594L339.688 267.264L356.191 278.786L356.656 278.117Z" fill="black"/>
<path opacity="0.2" d="M355.478 279.808L338.975 268.286L338.506 268.955L355.009 280.477L355.478 279.808Z" fill="black"/>
<path opacity="0.2" d="M354.303 281.494L337.8 269.971L337.334 270.641L353.838 282.163L354.303 281.494Z" fill="black"/>
<path opacity="0.2" d="M353.125 283.18L336.622 271.658L336.156 272.327L352.659 283.849L353.125 283.18Z" fill="black"/>
</g>
<path d="M329.031 283.837L361.031 293.905C361.056 293.911 361.081 293.912 361.106 293.907C361.134 293.903 361.156 293.893 361.178 293.878C361.2 293.864 361.219 293.845 361.231 293.823C361.247 293.802 361.256 293.777 361.259 293.752L365.709 271.931C365.722 271.888 365.716 271.842 365.694 271.802C365.675 271.763 365.641 271.733 365.597 271.718L340.187 263.718C340.153 263.706 340.125 263.684 340.103 263.655C340.084 263.626 340.072 263.591 340.072 263.555L339.969 261.329C339.969 261.293 339.956 261.258 339.937 261.229C339.915 261.2 339.887 261.178 339.853 261.166L334.081 259.352C334.056 259.346 334.031 259.345 334.003 259.35C333.978 259.355 333.956 259.364 333.934 259.379C333.912 259.393 333.894 259.412 333.881 259.434C333.865 259.455 333.856 259.48 333.853 259.505L328.934 283.622C328.922 283.663 328.925 283.708 328.944 283.747C328.962 283.787 328.994 283.819 329.031 283.837Z" fill="#4D61FC"/>
<path d="M329.031 283.837L361.031 293.905C361.056 293.911 361.081 293.912 361.106 293.907C361.134 293.903 361.156 293.893 361.178 293.878C361.2 293.864 361.219 293.845 361.231 293.823C361.247 293.802 361.256 293.777 361.259 293.752L365.709 271.931C365.722 271.888 365.716 271.842 365.694 271.802C365.675 271.763 365.641 271.733 365.597 271.718L340.187 263.718C340.153 263.706 340.125 263.684 340.103 263.655C340.084 263.626 340.072 263.591 340.072 263.555L339.969 261.329C339.969 261.293 339.956 261.258 339.937 261.229C339.915 261.2 339.887 261.178 339.853 261.166L334.081 259.352C334.056 259.346 334.031 259.345 334.003 259.35C333.978 259.355 333.956 259.364 333.934 259.379C333.912 259.393 333.894 259.412 333.881 259.434C333.865 259.455 333.856 259.48 333.853 259.505L328.934 283.622C328.922 283.663 328.925 283.708 328.944 283.747C328.962 283.787 328.994 283.819 329.031 283.837Z" fill="#FCCB4D"/>
<path d="M198.663 156.984L184.325 145.8L188 141.906C188 141.906 206.16 150.854 210.147 156.984L206.069 160.052L198.663 156.984Z" fill="#FC9D9D"/>
<path d="M145.672 204.989L151.709 221.815L156.163 220.567L153.75 203.563L145.672 204.989Z" fill="#FC9D9D"/>
<path d="M173.15 160.756L181.985 160.7C181.985 160.7 187.297 159.348 189.522 159.07L198.663 156.975C198.663 156.975 206.988 158.635 210.141 156.975C210.141 156.975 211.956 161.434 207.203 163.799L188 173.407L188.835 178.974C188.835 178.974 191.194 197.035 191.822 210.54L160.756 212.917L159.088 192.901L154.641 182.326L153.25 195.403L154.363 203.472L145.028 205.12L142.925 196.4C142.767 195.74 142.715 195.057 142.772 194.38L144.625 172.015C144.625 172.015 144.625 166.448 148.519 164.509L162.041 160.268L173.15 160.756Z" fill="#8B9FBD"/>
<path d="M175.862 146.757C176.707 146.654 177.477 146.219 178.001 145.548C178.526 144.877 178.762 144.025 178.659 143.179C178.556 142.333 178.121 141.563 177.451 141.039C176.78 140.513 175.929 140.277 175.084 140.38C174.987 140.38 174.725 140.345 174.772 140.439C175.7 143.16 175.153 146.813 175.862 146.757Z" fill="black"/>
<path d="M162.041 160.265C162.041 160.427 168.156 164.359 170.897 163.808C172.287 163.53 173.181 160.925 173.15 160.765L172.4 156.452V154.216C172.528 153.7 173.144 153.212 173.144 152.53C173.337 149.387 173.694 146.535 173.694 146.535C173.694 146.535 163.428 139.654 162.781 147.67L162.522 148.837L162.041 160.265Z" fill="#FC9D9D"/>
<path opacity="0.15" d="M165.978 155.752C166.722 156.502 167.656 157.134 169.484 157.247C170.884 158.076 171.759 158.072 172.565 157.975L172.328 156.205C171.453 157.144 167.775 157.387 166.219 155.502C166.181 155.442 166.05 155.452 165.99 155.502C165.968 155.539 165.955 155.581 165.953 155.625C165.951 155.669 165.96 155.712 165.978 155.752Z" fill="black"/>
<path d="M174.497 136.721C174.497 136.721 179.672 155.258 171.059 156.868C163.603 158.257 162.166 146.569 162.166 146.569L162.134 138.963L167.806 136.361L174.497 136.721Z" fill="#FC9D9D"/>
<path d="M172.375 141.415C171.403 140.258 169.875 139.473 168.331 139.629C166.591 139.805 165.285 141.309 165.61 143.332L165.678 143.78C165.71 143.983 165.661 144.192 165.541 144.359C165.421 144.527 165.241 144.641 165.038 144.677C164.847 144.696 164.662 144.753 164.494 144.844C164.325 144.935 164.176 145.058 164.055 145.207C163.934 145.356 163.844 145.527 163.79 145.711C163.735 145.895 163.717 146.088 163.738 146.279L163.878 147.602C163.884 147.678 163.858 147.754 163.808 147.813C163.758 147.871 163.686 147.908 163.61 147.914C163.61 147.914 163.228 148.008 163.138 147.692L162.825 146.285L163.531 138.153L170.038 135.87L173.006 138L172.375 141.415Z" fill="black"/>
<path opacity="0.15" d="M162.278 148.227C162.278 148.227 162.747 149.775 163.113 149.062L162.556 150.454L162.278 148.227Z" fill="black"/>
<path d="M172.397 151.686L168.878 151.157C168.892 151.554 169.042 151.935 169.303 152.234C169.564 152.533 169.921 152.733 170.312 152.799C171.99 153.087 172.397 151.686 172.397 151.686Z" fill="white"/>
<path d="M168.853 146.056C168.712 146.068 168.579 146.121 168.468 146.209C168.358 146.297 168.276 146.415 168.233 146.55C168.19 146.684 168.188 146.828 168.227 146.964C168.266 147.099 168.344 147.22 168.452 147.311C168.559 147.403 168.691 147.46 168.831 147.476C168.972 147.491 169.113 147.465 169.239 147.401C169.364 147.336 169.467 147.235 169.535 147.112C169.603 146.988 169.634 146.847 169.622 146.707C169.606 146.519 169.516 146.344 169.372 146.222C169.228 146.101 169.041 146.041 168.853 146.056Z" fill="black"/>
<path d="M169.236 146.672C169.306 146.666 169.359 146.604 169.353 146.534C169.347 146.463 169.285 146.411 169.215 146.416C169.144 146.422 169.092 146.484 169.098 146.554C169.103 146.625 169.165 146.678 169.236 146.672Z" fill="white"/>
<path d="M160.672 292.188L168.966 292.163L167.669 304.048H160.65L160.672 292.188Z" fill="#FC9D9D"/>
<path opacity="0.15" d="M160.672 304.12L160.697 295.7L168.606 295.675L168.484 296.685L163.438 297.455C163.207 297.486 162.994 297.597 162.836 297.768C162.678 297.939 162.584 298.16 162.572 298.393L162.403 302.049L160.672 304.12Z" fill="black"/>
<path d="M160.5 301.402L160.475 302.099C160.468 302.69 160.362 303.275 160.163 303.832L159.297 306.262C159.059 306.95 158.938 307.673 158.938 308.401V308.523C158.942 308.642 158.969 308.758 159.018 308.866C159.068 308.974 159.138 309.071 159.226 309.151C159.313 309.231 159.415 309.293 159.527 309.334C159.638 309.374 159.757 309.392 159.875 309.386H168.503C168.741 309.394 168.973 309.308 169.148 309.146C169.323 308.985 169.428 308.761 169.441 308.523V308.21C169.44 307.581 169.343 306.956 169.153 306.356L168.406 303.879C168.242 303.374 168.161 302.846 168.166 302.315V301.402C168.161 300.827 167.938 300.275 167.541 299.86L167.422 299.716C166.629 298.909 165.55 298.448 164.419 298.435C163.289 298.421 162.199 298.856 161.388 299.644L161.172 299.86C160.771 300.276 160.532 300.824 160.5 301.402Z" fill="#21252B"/>
<path opacity="0.6" d="M158.938 307.848H169.416C169.436 307.967 169.445 308.089 169.441 308.21V308.523C169.437 308.642 169.409 308.758 169.36 308.866C169.31 308.974 169.24 309.071 169.152 309.151C169.065 309.232 168.963 309.294 168.852 309.334C168.74 309.375 168.622 309.392 168.503 309.386H159.875C159.637 309.394 159.405 309.308 159.23 309.147C159.055 308.985 158.95 308.761 158.938 308.523V307.848Z" fill="black"/>
<path d="M166.203 301.786C166.224 301.734 166.226 301.676 166.209 301.623C166.191 301.569 166.154 301.524 166.106 301.496C165.549 301.222 164.936 301.079 164.316 301.079C163.695 301.079 163.082 301.222 162.525 301.496C162.473 301.521 162.434 301.566 162.416 301.62C162.397 301.674 162.401 301.733 162.426 301.785C162.452 301.836 162.496 301.876 162.551 301.894C162.605 301.913 162.664 301.909 162.716 301.883C163.211 301.647 163.754 301.525 164.303 301.525C164.852 301.525 165.395 301.647 165.891 301.883C165.918 301.901 165.951 301.908 165.984 301.905C166.028 301.906 166.071 301.895 166.109 301.874C166.147 301.853 166.18 301.823 166.203 301.786Z" fill="white"/>
<path d="M166.203 302.894C166.224 302.841 166.227 302.784 166.209 302.73C166.191 302.677 166.154 302.632 166.106 302.603C165.549 302.329 164.936 302.187 164.316 302.187C163.695 302.187 163.082 302.329 162.525 302.603C162.499 302.615 162.476 302.633 162.457 302.654C162.438 302.675 162.424 302.7 162.415 302.728C162.406 302.755 162.402 302.784 162.404 302.812C162.407 302.84 162.415 302.868 162.428 302.894C162.44 302.919 162.457 302.942 162.478 302.961C162.499 302.98 162.524 302.995 162.551 303.003C162.579 303.012 162.607 303.015 162.635 303.013C162.664 303.01 162.691 303.001 162.716 302.987C163.212 302.751 163.754 302.629 164.303 302.629C164.852 302.629 165.395 302.751 165.891 302.987C165.913 303.013 165.963 303.013 165.984 303.013C166.028 303.013 166.071 303.002 166.109 302.982C166.147 302.961 166.18 302.931 166.203 302.894Z" fill="white"/>
<path d="M166.203 303.976C166.224 303.923 166.226 303.866 166.209 303.812C166.191 303.759 166.154 303.714 166.106 303.685C165.549 303.411 164.936 303.269 164.316 303.269C163.695 303.269 163.082 303.411 162.525 303.685C162.473 303.71 162.434 303.755 162.416 303.809C162.397 303.863 162.401 303.923 162.426 303.974C162.452 304.025 162.496 304.065 162.551 304.083C162.605 304.102 162.664 304.098 162.716 304.073C163.211 303.837 163.754 303.714 164.303 303.714C164.852 303.714 165.395 303.837 165.891 304.073C165.918 304.09 165.951 304.098 165.984 304.095C166.028 304.095 166.071 304.084 166.109 304.064C166.147 304.043 166.18 304.012 166.203 303.976Z" fill="white"/>
<path d="M185.916 292.738L194.059 292.717L194.266 297.408C194.291 298.012 194.455 298.603 194.743 299.135C195.031 299.668 195.436 300.127 195.928 300.479L201.9 304.748L186.931 304.379L185.916 292.738Z" fill="#FC9D9D"/>
<path opacity="0.15" d="M191.266 302.49L193.413 303.344L186.885 304.06L186.169 296.119H194.15L194.197 297.058L189.422 297.752C189.174 297.788 188.95 297.919 188.795 298.116C188.64 298.313 188.567 298.562 188.591 298.812V298.906C188.662 299.692 188.95 300.444 189.422 301.076C189.895 301.709 190.533 302.198 191.266 302.49Z" fill="black"/>
<path d="M186.769 301.083L189.953 302.074C190.181 302.145 190.423 302.157 190.657 302.109C190.891 302.06 191.109 301.954 191.29 301.799L193.79 299.65C194.065 299.414 194.412 299.279 194.774 299.271C195.136 299.262 195.49 299.38 195.775 299.603L201.45 304.013L205.925 305.493C206.568 305.708 207.128 306.12 207.525 306.67C207.922 307.221 208.138 307.882 208.14 308.561C208.14 308.751 208.064 308.932 207.93 309.066C207.796 309.2 207.614 309.276 207.425 309.277H187.6C187.375 309.278 187.153 309.234 186.946 309.149C186.739 309.063 186.55 308.937 186.391 308.779C186.233 308.62 186.107 308.431 186.022 308.224C185.936 308.016 185.893 307.794 185.894 307.569V301.727C185.895 301.622 185.921 301.518 185.969 301.425C186.017 301.331 186.086 301.25 186.171 301.187C186.256 301.125 186.354 301.083 186.458 301.065C186.561 301.046 186.668 301.053 186.769 301.083Z" fill="#21252B"/>
<path opacity="0.6" d="M185.916 307.844H208.059C208.126 308.077 208.157 308.319 208.153 308.561C208.152 308.75 208.076 308.932 207.942 309.066C207.809 309.2 207.627 309.276 207.437 309.277H187.6C187.195 309.276 186.804 309.132 186.495 308.87C186.187 308.607 185.981 308.244 185.916 307.844Z" fill="black"/>
<path d="M195.812 301.89L197.009 300.598C197.043 300.564 197.062 300.519 197.062 300.471C197.062 300.424 197.043 300.378 197.009 300.345C196.976 300.311 196.93 300.292 196.883 300.292C196.836 300.292 196.79 300.311 196.756 300.345L195.556 301.636C195.523 301.67 195.505 301.716 195.505 301.763C195.505 301.81 195.523 301.856 195.556 301.89C195.588 301.919 195.629 301.935 195.672 301.936C195.722 301.932 195.77 301.916 195.812 301.89Z" fill="white"/>
<path d="M196.75 302.628L197.95 301.336C197.984 301.303 198.002 301.257 198.002 301.209C198.002 301.162 197.984 301.117 197.95 301.083C197.917 301.049 197.871 301.031 197.823 301.031C197.776 301.031 197.731 301.049 197.697 301.083L196.497 302.374C196.464 302.409 196.445 302.454 196.445 302.501C196.445 302.549 196.464 302.594 196.497 302.628C196.528 302.658 196.569 302.675 196.612 302.675C196.662 302.67 196.708 302.654 196.75 302.628Z" fill="white"/>
<path d="M197.703 303.372L198.903 302.077C198.936 302.043 198.955 301.998 198.955 301.951C198.955 301.903 198.936 301.858 198.903 301.824C198.869 301.791 198.823 301.772 198.775 301.772C198.727 301.772 198.681 301.791 198.647 301.824L197.45 303.115C197.417 303.15 197.398 303.196 197.398 303.244C197.398 303.292 197.417 303.338 197.45 303.372C197.482 303.4 197.523 303.416 197.565 303.416C197.615 303.419 197.664 303.403 197.703 303.372Z" fill="white"/>
<path d="M174.447 147.226C174.84 147.226 175.159 146.907 175.159 146.513C175.159 146.119 174.84 145.8 174.447 145.8C174.053 145.8 173.734 146.119 173.734 146.513C173.734 146.907 174.053 147.226 174.447 147.226Z" fill="black"/>
<path d="M174.735 146.383C174.805 146.377 174.858 146.315 174.852 146.245C174.846 146.174 174.784 146.121 174.714 146.127C174.643 146.133 174.591 146.195 174.597 146.265C174.603 146.336 174.664 146.389 174.735 146.383Z" fill="white"/>
<path opacity="0.2" d="M172.247 150.629L171.344 150.732C171.291 150.73 171.24 150.712 171.197 150.681C171.154 150.65 171.121 150.607 171.103 150.557C171.107 150.505 171.125 150.454 171.156 150.412C171.187 150.369 171.229 150.336 171.278 150.316L172.181 150.21C172.286 150.194 172.381 150.138 172.446 150.054C172.512 149.971 172.543 149.866 172.534 149.76C172.481 149.534 172.272 149.356 172.081 149.406C172.029 149.402 171.978 149.384 171.936 149.353C171.893 149.322 171.86 149.28 171.841 149.231C171.8 149.137 171.922 149.028 172.016 148.987C172.232 148.963 172.45 149.023 172.624 149.154C172.798 149.286 172.916 149.479 172.953 149.694C172.971 149.802 172.966 149.912 172.94 150.019C172.913 150.125 172.866 150.225 172.8 150.313C172.734 150.4 172.651 150.473 172.556 150.528C172.461 150.582 172.356 150.616 172.247 150.629Z" fill="black"/>
<path d="M160.065 141.475C160.159 139.417 161.1 137.812 162.844 137.281C163.582 137.071 164.36 137.041 165.112 137.193C165.18 137.21 165.251 137.212 165.319 137.2C165.388 137.188 165.454 137.163 165.512 137.125C165.571 137.087 165.621 137.037 165.66 136.979C165.698 136.921 165.725 136.855 165.737 136.786C165.851 136.101 166.188 135.474 166.698 135.002C167.207 134.53 167.859 134.241 168.55 134.181C169.035 134.137 169.523 134.21 169.973 134.394C170.424 134.579 170.823 134.87 171.137 135.241C171.182 135.297 171.238 135.342 171.301 135.375C171.365 135.407 171.435 135.425 171.506 135.428C171.577 135.432 171.648 135.42 171.715 135.393C171.781 135.367 171.841 135.327 171.891 135.276C171.891 135.276 173.822 133.462 176.669 134.919C177.629 135.444 178.36 136.307 178.722 137.34C179.083 138.374 179.049 139.505 178.625 140.515C177.703 142.769 174.916 143.642 173.037 142.141C172.245 141.471 171.738 140.523 171.622 139.492C171.479 138.782 171.486 138.05 171.641 137.343L170.737 137.418C169.669 137.44 167.975 137.381 166.409 137.731C166.447 137.759 166.478 137.756 166.512 137.787L163.781 138.954C163.781 138.954 163.512 146.46 163.056 146.426C161.066 146.172 159.956 143.336 160.065 141.475Z" fill="black"/>
<path d="M162.775 145.644C162.722 145.457 162.628 145.286 162.501 145.14C162.374 144.994 162.217 144.877 162.041 144.799C161.864 144.72 161.673 144.681 161.479 144.684C161.286 144.687 161.096 144.733 160.922 144.818C159.284 145.443 159.85 148.809 162.141 149.403C163.55 149.578 163.288 148.755 163.1 147.633L162.775 145.644Z" fill="#FC9D9D"/>
<path opacity="0.2" d="M160.812 145.772C160.924 145.685 161.054 145.624 161.193 145.596C161.332 145.568 161.476 145.572 161.612 145.609C161.74 145.65 161.858 145.715 161.96 145.802C162.061 145.888 162.145 145.994 162.206 146.113C162.374 146.415 162.447 146.76 162.416 147.104L162.441 147.395C162.445 147.421 162.444 147.447 162.436 147.472C162.429 147.498 162.416 147.521 162.398 147.54C162.38 147.558 162.358 147.573 162.333 147.582C162.309 147.591 162.282 147.593 162.256 147.59C162.231 147.587 162.206 147.577 162.184 147.562C162.162 147.547 162.145 147.528 162.132 147.505C162.12 147.482 162.113 147.456 162.112 147.43C162.111 147.404 162.117 147.378 162.128 147.354L162.103 147.064C162.103 146.779 162.048 146.496 161.941 146.232C161.853 146.074 161.717 145.95 161.553 145.875C161.375 145.85 161.194 145.888 161.041 145.981C161.002 145.999 160.959 146.004 160.917 145.996C160.876 145.987 160.838 145.966 160.809 145.935C160.722 145.941 160.747 145.841 160.812 145.772Z" fill="black"/>
<g opacity="0.4">
<path opacity="0.4" d="M154.644 177.019C154.61 177.019 154.578 177.006 154.553 176.984C154.527 176.961 154.511 176.931 154.506 176.897C154.32 175.39 153.834 173.936 153.077 172.619C152.32 171.302 151.308 170.151 150.1 169.232C150.085 169.222 150.072 169.209 150.062 169.194C150.052 169.179 150.044 169.161 150.041 169.143C150.037 169.126 150.037 169.107 150.041 169.089C150.044 169.072 150.051 169.054 150.061 169.039C150.071 169.024 150.084 169.011 150.099 169.001C150.114 168.991 150.131 168.984 150.149 168.98C150.167 168.976 150.185 168.976 150.203 168.98C150.221 168.983 150.238 168.99 150.253 169C151.495 169.941 152.535 171.122 153.313 172.473C154.091 173.823 154.59 175.316 154.781 176.863C154.783 176.881 154.782 176.899 154.777 176.917C154.772 176.934 154.764 176.951 154.753 176.965C154.741 176.979 154.727 176.991 154.711 177C154.695 177.009 154.678 177.014 154.659 177.016L154.644 177.019Z" fill="black"/>
</g>
<path opacity="0.3" d="M160.75 212.917L164.641 212.62L162.766 194.192C162.634 192.903 162.285 191.644 161.735 190.471L155.344 176.885L154.231 174.383L154.481 175.258C155.05 177.245 155.163 179.333 154.813 181.369L154.65 182.308L159.097 192.882L160.75 212.917Z" fill="black"/>
<path opacity="0.3" d="M188 173.407L207.209 163.808C211.962 161.444 210.147 156.984 210.147 156.984C209.737 157.19 209.302 157.341 208.853 157.434C209.412 161.219 202.806 163.805 202.806 163.805L186.869 169.785L188 173.407Z" fill="black"/>
<path d="M191.188 210.587L195.222 296.107H185.188L177.797 227.373C177.77 227.143 177.659 226.932 177.487 226.779C177.313 226.626 177.09 226.542 176.859 226.544C176.628 226.547 176.407 226.635 176.236 226.791C176.066 226.948 175.96 227.161 175.938 227.391L170.106 296.107H159.562L161.328 212.873L191.188 210.587Z" fill="#FC8C4D"/>
<path opacity="0.2" d="M164.641 212.62L162.2 296.107H159.556L161.322 212.873L164.641 212.62Z" fill="black"/>
<g opacity="0.4">
<path opacity="0.4" d="M188 173.548C187.97 173.547 187.941 173.537 187.917 173.519C187.893 173.501 187.875 173.476 187.866 173.447C187.866 173.397 186.334 168.299 185.791 167.211C185.78 167.195 185.773 167.176 185.77 167.156C185.767 167.137 185.768 167.117 185.773 167.098C185.778 167.078 185.787 167.061 185.8 167.045C185.813 167.03 185.828 167.018 185.846 167.009C185.864 167 185.883 166.995 185.903 166.994C185.922 166.993 185.942 166.997 185.96 167.004C185.979 167.011 185.995 167.022 186.009 167.036C186.023 167.05 186.034 167.068 186.041 167.086C186.594 168.196 188.072 173.157 188.134 173.369C188.144 173.405 188.14 173.442 188.122 173.474C188.105 173.506 188.075 173.53 188.041 173.541L188 173.548Z" fill="black"/>
</g>
<g opacity="0.4">
<path opacity="0.4" d="M173.735 200.429C173.704 200.429 173.674 200.419 173.65 200.4C173.625 200.382 173.608 200.355 173.6 200.326C173.592 200.291 173.597 200.253 173.615 200.222C173.633 200.19 173.662 200.167 173.697 200.157C173.756 200.141 179.5 198.546 182.194 193.589C182.212 193.557 182.243 193.533 182.278 193.523C182.314 193.512 182.352 193.516 182.385 193.533C182.416 193.552 182.44 193.582 182.45 193.617C182.46 193.652 182.457 193.69 182.441 193.723C179.685 198.793 173.828 200.416 173.769 200.432L173.735 200.429Z" fill="black"/>
</g>
<g opacity="0.4">
<path opacity="0.4" d="M150.188 195.528C150.16 195.528 150.133 195.521 150.111 195.506C150.088 195.491 150.07 195.469 150.059 195.444C150.046 195.409 150.046 195.371 150.06 195.336C150.074 195.302 150.101 195.274 150.134 195.259C151.144 194.831 153.197 195.234 153.284 195.259C153.302 195.263 153.319 195.27 153.334 195.28C153.349 195.291 153.362 195.304 153.372 195.319C153.382 195.334 153.389 195.351 153.393 195.369C153.396 195.387 153.396 195.405 153.392 195.423C153.388 195.441 153.381 195.458 153.371 195.473C153.361 195.488 153.348 195.501 153.333 195.511C153.317 195.522 153.3 195.528 153.282 195.532C153.264 195.535 153.246 195.535 153.228 195.531C153.209 195.531 151.175 195.128 150.244 195.531C150.225 195.535 150.206 195.534 150.188 195.528Z" fill="black"/>
</g>
<path opacity="0.1" d="M171.175 142.663C171.175 142.663 170.275 145.031 175.863 144.264L175.738 143.276L173.672 142.106L171.175 142.663Z" fill="black"/>
<path opacity="0.2" d="M176.875 226.55C177.106 226.549 177.329 226.632 177.502 226.785C177.675 226.938 177.786 227.149 177.812 227.379L185.187 296.107H188.312L180.728 228.311C180.35 225.574 176.875 226.55 176.875 226.55Z" fill="black"/>
<path d="M185.731 222.265C182.903 221.275 179.845 221.147 176.944 221.897C174.043 222.647 171.429 224.24 169.432 226.477C167.436 228.713 166.148 231.492 165.729 234.461C165.311 237.431 165.782 240.457 167.082 243.159C168.383 245.861 170.455 248.115 173.036 249.639C175.617 251.162 178.591 251.885 181.583 251.716C184.574 251.548 187.449 250.495 189.843 248.692C192.236 246.888 194.042 244.415 195.031 241.584C195.688 239.705 195.969 237.714 195.857 235.726C195.745 233.738 195.243 231.791 194.379 229.997C193.516 228.203 192.308 226.597 190.824 225.27C189.34 223.944 187.609 222.922 185.731 222.265ZM176.509 248.659C174.122 247.823 172.036 246.298 170.514 244.276C168.993 242.254 168.105 239.826 167.962 237.299C167.82 234.771 168.429 232.259 169.714 230.078C170.998 227.898 172.9 226.147 175.178 225.049C177.457 223.95 180.01 223.552 182.514 223.905C185.019 224.258 187.362 225.347 189.248 227.033C191.134 228.719 192.479 230.928 193.111 233.378C193.743 235.83 193.635 238.413 192.8 240.802C191.681 244.006 189.335 246.634 186.28 248.107C183.225 249.58 179.711 249.779 176.509 248.659Z" fill="#21252B"/>
<path d="M147.627 222.215L167.746 229.284L166.645 232.421L146.526 225.352C146.389 225.304 146.262 225.229 146.153 225.131C146.044 225.034 145.956 224.916 145.893 224.784C145.83 224.653 145.793 224.51 145.785 224.364C145.777 224.218 145.797 224.072 145.846 223.934L146.21 222.896C146.258 222.759 146.333 222.632 146.431 222.523C146.528 222.414 146.646 222.325 146.777 222.262C146.909 222.199 147.052 222.162 147.197 222.154C147.343 222.146 147.489 222.167 147.627 222.215Z" fill="#21252B"/>
<path opacity="0.3" d="M180.728 250.073C188.175 250.073 194.212 244.03 194.212 236.577C194.212 229.124 188.175 223.082 180.728 223.082C173.281 223.082 167.244 229.124 167.244 236.577C167.244 244.03 173.281 250.073 180.728 250.073Z" fill="black"/>
<path opacity="0.3" d="M167.94 236.577L186.125 225.03C186.125 225.03 190.64 227.244 192.587 231.698L170.012 243.461C170.012 243.461 167.765 240.067 167.94 236.577Z" fill="white"/>
<path opacity="0.3" d="M171.731 245.609L193.522 234.679C193.522 234.679 193.681 237.828 192.991 240.049L175.066 248.112C174.997 248.174 172.703 246.714 171.731 245.609Z" fill="white"/>
<path d="M183.685 140.174L182.375 139.801L178.969 138.769L175.972 139.276C175.9 139.303 175.841 139.355 175.805 139.424C175.769 139.491 175.76 139.571 175.778 139.645C175.866 139.98 176.091 140.471 176.741 140.245L174.519 140.411C174.438 140.419 174.361 140.452 174.3 140.505C174.238 140.559 174.195 140.63 174.175 140.708L174.122 140.912C174.044 141.224 174.844 141.537 175.178 141.537H175.353L173.381 141.618C173.336 141.633 173.293 141.658 173.257 141.69C173.221 141.722 173.192 141.761 173.172 141.805C173.152 141.848 173.141 141.896 173.14 141.944C173.139 141.992 173.147 142.04 173.166 142.084C173.269 142.338 173.406 142.638 173.503 142.672C173.6 142.707 172.11 142.86 171.538 142.91C171.509 142.912 171.481 142.921 171.456 142.936C171.431 142.951 171.41 142.971 171.395 142.995C171.379 143.019 171.369 143.047 171.366 143.076C171.362 143.104 171.366 143.133 171.375 143.16C171.497 143.508 171.941 144.114 173.541 144.099C175.775 144.074 176.619 143.695 176.619 143.695L178.4 144.171L178.313 145.243L175.891 145.206L176 146.566C176.356 146.735 179.125 147.042 179.125 147.042C179.125 147.042 182.875 147.098 183.878 146.61C184.881 146.122 185.625 145.725 185.625 145.725L188.403 142.106L183.685 140.174Z" fill="#FC9D9D"/>
<path opacity="0.15" d="M178.688 143.792C178.688 143.792 180.628 142.663 181.459 141.271" stroke="black" stroke-width="0.67" stroke-miterlimit="10" stroke-linecap="round"/>
<path opacity="0.15" d="M176.041 145.306L179.447 145.368C179.447 145.368 180.941 143.726 182.522 144.099" stroke="black" stroke-width="0.67" stroke-miterlimit="10" stroke-linecap="round"/>
<path opacity="0.15" d="M173.694 142.851C173.694 142.851 176.028 142.804 176.938 142.178C176.938 142.178 177.431 142.804 178.688 142.76" stroke="black" stroke-width="0.67" stroke-miterlimit="10" stroke-linecap="round"/>
<path opacity="0.15" d="M175.344 141.55C176.142 141.48 176.932 141.341 177.706 141.134C178.244 141.589 178.913 141.86 179.616 141.906" stroke="black" stroke-width="0.67" stroke-miterlimit="10" stroke-linecap="round"/>
<path opacity="0.15" d="M176.472 140.352C177.189 140.38 177.904 140.264 178.575 140.011L180.075 140.705" stroke="black" stroke-width="0.67" stroke-miterlimit="10" stroke-linecap="round"/>
<path d="M156.06 220.442L158.11 223.945L159.391 226.96L157.456 226.478C157.456 226.478 156.628 230.438 156.303 230.544C155.978 230.65 155.053 230.325 155.144 229.565C155.008 229.698 154.843 229.8 154.662 229.86C154.481 229.92 154.289 229.938 154.1 229.912C153.519 229.79 153.378 229.415 153.444 228.692C153.444 228.692 153.169 229.24 152.363 228.899C151.872 228.692 151.994 227.961 151.994 227.961C151.994 227.961 151.113 228.036 150.991 227.579C150.864 226.831 150.848 226.067 150.944 225.315L151.469 222.781L151.669 221.146L156.06 220.442Z" fill="#FC9D9D"/>
<path opacity="0.15" d="M151.994 227.958C152.145 227.448 152.243 226.924 152.284 226.394" stroke="black" stroke-width="0.66" stroke-miterlimit="10" stroke-linecap="round"/>
<path opacity="0.15" d="M153.416 228.655C153.605 228.061 153.728 227.447 153.781 226.825" stroke="black" stroke-width="0.66" stroke-miterlimit="10" stroke-linecap="round"/>
<path opacity="0.15" d="M155.144 229.562C155.353 228.814 155.499 228.049 155.578 227.276" stroke="black" stroke-width="0.66" stroke-miterlimit="10" stroke-linecap="round"/>
<path opacity="0.2" d="M170.106 296.107L170.237 294.581H159.591L159.556 296.107H170.106Z" fill="black"/>
<path opacity="0.2" d="M185.031 294.581H195.15L195.222 296.107H185.197L185.031 294.581Z" fill="black"/>
<path opacity="0.15" d="M147.39 204.686L152.284 221.412L151.347 225.502V227.886C151.347 227.886 150.972 228.011 150.934 227.073L150.9 225.756L151.006 225.062L151.631 221.602L145.675 204.989L147.39 204.686Z" fill="black"/>
<path opacity="0.3" d="M144.625 172.015L142.766 194.361C142.709 195.039 142.76 195.721 142.919 196.382L145.019 205.101L147.391 204.682L144.891 195.525L146.713 169.648C146.713 169.648 146.8 166.301 148.981 164.359L148.522 164.502C144.625 166.451 144.625 172.015 144.625 172.015Z" fill="black"/>
<path d="M176.459 144.827H173.415H172.994H170.337H166.872C166.605 144.827 166.35 144.932 166.16 145.119C165.971 145.307 165.864 145.562 165.862 145.828V146.604C165.862 147.331 166.151 148.028 166.664 148.541C167.178 149.055 167.874 149.344 168.6 149.344C169.326 149.344 170.022 149.055 170.535 148.541C171.049 148.028 171.337 147.331 171.337 146.604V145.825C171.344 145.714 171.329 145.604 171.292 145.499C171.256 145.394 171.199 145.298 171.125 145.215H172.197C172.122 145.3 172.065 145.399 172.029 145.507C171.993 145.614 171.979 145.728 171.987 145.841V146.619C171.987 147.346 172.276 148.043 172.789 148.557C173.303 149.071 173.999 149.359 174.725 149.359C175.451 149.359 176.147 149.071 176.66 148.557C177.174 148.043 177.462 147.346 177.462 146.619V145.841C177.45 145.577 177.341 145.328 177.156 145.141C176.97 144.954 176.722 144.842 176.459 144.827ZM170.981 145.856V146.635C170.959 147.24 170.704 147.812 170.269 148.232C169.834 148.651 169.253 148.886 168.648 148.886C168.044 148.886 167.463 148.651 167.028 148.232C166.593 147.812 166.338 147.24 166.315 146.635V145.856C166.322 145.699 166.387 145.55 166.498 145.439C166.609 145.327 166.758 145.262 166.915 145.256H170.381C170.534 145.274 170.676 145.344 170.785 145.453C170.894 145.561 170.963 145.704 170.981 145.856ZM177.062 146.657C177.04 147.262 176.785 147.834 176.35 148.254C175.914 148.673 175.334 148.908 174.729 148.908C174.125 148.908 173.545 148.673 173.11 148.254C172.674 147.834 172.419 147.262 172.397 146.657V145.878C172.398 145.72 172.462 145.569 172.573 145.457C172.685 145.344 172.835 145.28 172.994 145.278H173.415H176.459C176.617 145.279 176.769 145.343 176.881 145.454C176.993 145.566 177.057 145.717 177.059 145.875L177.062 146.657Z" fill="black"/>
<path d="M116.963 273.917C115.185 248.393 113.213 246.707 113.138 246.648L113.26 246.416C113.347 246.457 115.403 247.717 117.225 273.898L116.963 273.917Z" fill="#3F4249"/>
<path d="M118.8 273.914H118.537C119.706 255.267 118.434 245.1 118.422 244.999L118.684 244.965C118.684 245.065 119.972 255.255 118.8 273.929" fill="#3F4249"/>
<path d="M120.403 274.47C118.984 262.842 122.591 253.985 122.634 253.897L122.878 253.998C122.841 254.085 119.256 262.883 120.666 274.439L120.403 274.47Z" fill="#3F4249"/>
<path d="M121.884 275.89C121.292 271.739 121.324 267.522 121.978 263.38L122.237 263.43C121.587 267.541 121.555 271.726 122.144 275.847L121.884 275.89Z" fill="#3F4249"/>
<path d="M122.688 254.107L123.834 254.01C124.647 253.944 125.436 253.703 126.147 253.303C126.493 253.097 126.854 252.915 127.225 252.759C128.641 252.19 130.222 252.293 131.747 252.215C134.241 252.087 136.685 251.462 138.934 250.376C139.065 250.314 139.174 250.215 139.247 250.091C139.481 249.663 139.044 249.278 138.669 249.047C136.738 247.855 134.772 246.651 132.581 246.06C130.391 245.469 127.909 245.569 126.041 246.854C123.853 248.365 123.047 251.467 122.678 254.107" fill="#31A62F"/>
<path opacity="0.3" d="M139.275 249.95C139.208 249.925 139.143 249.895 139.081 249.86L138.537 249.575C138.065 249.325 137.387 248.95 136.531 248.549C135.533 248.058 134.494 247.658 133.425 247.351C132.117 246.981 130.749 246.875 129.4 247.039C128.049 247.186 126.773 247.73 125.731 248.602C124.919 249.358 124.269 250.271 123.822 251.286C123.419 252.146 123.172 252.878 122.99 253.378C122.906 253.619 122.837 253.81 122.787 253.957C122.764 254.025 122.737 254.092 122.706 254.157C122.715 254.086 122.732 254.015 122.756 253.947C122.803 253.797 122.859 253.603 122.934 253.359C123.155 252.638 123.419 251.931 123.725 251.242C124.166 250.204 124.817 249.269 125.637 248.496C126.697 247.592 128.003 247.027 129.387 246.873C130.757 246.71 132.145 246.827 133.469 247.217C134.547 247.53 135.593 247.943 136.594 248.452C137.447 248.878 138.119 249.259 138.581 249.522L139.109 249.835C139.174 249.867 139.235 249.907 139.29 249.953" fill="black"/>
<path opacity="0.3" d="M136.522 251.43C136.5 251.464 135 250.492 133.175 249.262C131.35 248.033 129.89 247.004 129.912 246.97C129.934 246.935 131.434 247.908 133.259 249.137C135.084 250.366 136.547 251.395 136.522 251.43Z" fill="black"/>
<path opacity="0.3" d="M134.925 246.888C134.208 247.09 133.459 247.152 132.719 247.07C133.082 247.007 133.45 246.97 133.819 246.96C134.185 246.909 134.555 246.885 134.925 246.888Z" fill="black"/>
<path opacity="0.3" d="M128.363 246.035C128.24 246.315 128.075 246.575 127.872 246.804C127.697 247.067 127.487 247.305 127.247 247.511C127.368 247.23 127.534 246.97 127.738 246.741C127.911 246.477 128.121 246.239 128.363 246.035Z" fill="black"/>
<path opacity="0.3" d="M129.706 252.312C129.453 252.207 129.211 252.076 128.985 251.921C128.553 251.658 127.966 251.273 127.341 250.82C126.716 250.366 126.166 249.935 125.778 249.619C125.554 249.462 125.345 249.284 125.153 249.087C125.397 249.212 125.627 249.362 125.841 249.534L127.438 250.695C128.063 251.148 128.631 251.545 129.05 251.83C129.284 251.971 129.506 252.132 129.713 252.312" fill="black"/>
<path d="M125.791 290.54H114.447L112.334 274.961H127.9L125.791 290.54Z" fill="#61656D"/>
<path d="M129.219 277.338H111.015L110.753 273.907H129.484L129.219 277.338Z" fill="#61656D"/>
<path opacity="0.2" d="M112.656 277.338H127.578L125.791 290.54L123.997 290.418L124.997 278.395L112.772 278.189L112.656 277.338Z" fill="black"/>
<path opacity="0.2" d="M125.322 273.932L124.794 277.338H129.219L129.485 273.907L125.322 273.932Z" fill="black"/>
<g opacity="0.2">
<g opacity="0.2">
<path opacity="0.2" d="M126.847 281.26H113.35V281.523H126.847V281.26Z" fill="white"/>
</g>
</g>
<g opacity="0.2">
<g opacity="0.2">
<path opacity="0.2" d="M126.847 282.317H113.35V282.58H126.847V282.317Z" fill="white"/>
</g>
</g>
<path d="M113.447 246.526C112.353 245.697 111.2 245.534 109.831 245.587C108.46 245.678 107.116 246.025 105.872 246.61C103.731 247.548 101.719 248.931 100.441 250.889C99.1627 252.847 98.7158 255.436 99.6752 257.569C99.7483 257.794 99.9033 257.983 100.11 258.098C100.347 258.166 100.601 258.146 100.825 258.041C103.26 257.247 105.713 256.443 107.95 255.198C110.188 253.954 112.225 252.224 113.428 249.96C113.737 249.426 113.933 248.834 114.003 248.221C114.036 247.914 114.004 247.605 113.908 247.312C113.812 247.019 113.655 246.75 113.447 246.523" fill="#31A62F"/>
<path opacity="0.3" d="M113.469 246.269C113.413 246.301 113.353 246.325 113.291 246.341L112.781 246.516L112.413 246.642C112.278 246.688 112.137 246.748 111.981 246.807C111.669 246.932 111.316 247.058 110.938 247.242L110.341 247.514C110.134 247.608 109.928 247.727 109.716 247.827C109.275 248.043 108.828 248.321 108.353 248.599C107.339 249.239 106.375 249.956 105.469 250.742C104.57 251.539 103.734 252.405 102.969 253.331C102.628 253.766 102.297 254.176 102.031 254.582C101.894 254.786 101.75 254.973 101.631 255.167L101.284 255.727C101.056 256.077 100.887 256.415 100.722 256.706C100.644 256.853 100.566 256.987 100.5 257.113C100.434 257.238 100.384 257.357 100.331 257.463L100.094 257.948C100.068 258.006 100.037 258.061 100 258.113C100.017 258.052 100.039 257.992 100.066 257.935C100.119 257.807 100.191 257.641 100.278 257.438C100.328 257.328 100.378 257.21 100.437 257.081C100.497 256.953 100.572 256.815 100.647 256.665C100.803 256.371 100.959 256.04 101.191 255.671L101.531 255.105C101.65 254.908 101.791 254.717 101.928 254.51C102.197 254.095 102.528 253.682 102.866 253.238C104.379 251.35 106.208 249.739 108.272 248.477C108.753 248.199 109.209 247.924 109.65 247.711C109.872 247.602 110.081 247.486 110.291 247.398L110.897 247.133C111.278 246.954 111.641 246.839 111.95 246.72C112.109 246.663 112.262 246.607 112.391 246.563L112.762 246.451L113.284 246.304C113.344 246.283 113.406 246.268 113.469 246.26" fill="black"/>
<path opacity="0.3" d="M104.937 250.892C104.068 251.226 103.181 251.513 102.281 251.749C101.395 252.036 100.494 252.273 99.5811 252.459C100.451 252.127 101.337 251.84 102.237 251.602C103.124 251.316 104.025 251.079 104.937 250.892Z" fill="black"/>
<path opacity="0.3" d="M104.828 256.772C104.781 256.498 104.761 256.22 104.769 255.943C104.769 255.43 104.753 254.723 104.769 253.941C104.784 253.159 104.831 252.452 104.875 251.943C104.885 251.666 104.919 251.391 104.978 251.12C105.003 251.396 105.003 251.673 104.978 251.949C104.962 252.512 104.941 253.2 104.919 253.947C104.897 254.695 104.881 255.383 104.869 255.943C104.876 256.22 104.859 256.497 104.819 256.772" fill="black"/>
<path opacity="0.3" d="M109.85 254.198C109.806 254.198 109.672 252.762 109.538 250.986C109.403 249.209 109.35 247.767 109.391 247.764C109.431 247.761 109.566 249.2 109.703 250.976C109.841 252.753 109.891 254.194 109.85 254.198Z" fill="black"/>
<path opacity="0.3" d="M103.6 247.623C103.882 247.589 104.167 247.581 104.45 247.598C104.975 247.598 105.7 247.617 106.5 247.645C107.3 247.674 108.025 247.702 108.547 247.733C108.832 247.734 109.117 247.762 109.397 247.817C109.115 247.849 108.83 247.858 108.547 247.842C108.022 247.842 107.297 247.824 106.494 247.796C105.691 247.767 104.969 247.736 104.447 247.705C104.163 247.704 103.879 247.677 103.6 247.623Z" fill="black"/>
<path d="M111.253 240.974C110.78 241.825 110.31 242.676 109.844 243.526C109.812 243.586 109.769 243.652 109.7 243.658C109.631 243.664 109.572 243.595 109.531 243.533L105.812 237.816L106.669 237.328L111.253 240.974Z" fill="#088906"/>
<path d="M118.8 245.572L106.106 238.066C105.975 237.987 105.834 237.9 105.794 237.753C105.753 237.606 105.884 237.384 106.019 237.243C106.891 236.336 107.949 235.629 109.12 235.169C110.291 234.708 111.547 234.506 112.803 234.575C114.059 234.667 115.274 235.064 116.343 235.731C117.412 236.398 118.302 237.315 118.937 238.403C120.162 240.593 120.203 243.492 118.797 245.572" fill="#31A62F"/>
<path opacity="0.3" d="M107.934 235.683C107.988 235.668 108.044 235.66 108.1 235.661C108.212 235.661 108.372 235.636 108.581 235.639C109.172 235.629 109.762 235.675 110.344 235.776C112.281 236.102 114.083 236.976 115.539 238.296C116.995 239.614 118.043 241.323 118.559 243.22C118.718 243.788 118.822 244.371 118.872 244.959C118.894 245.168 118.872 245.222 118.891 245.331C118.881 245.429 118.847 245.523 118.794 245.606C118.831 245.4 118.837 245.189 118.812 244.981C118.738 244.4 118.618 243.826 118.453 243.264C117.818 241.121 116.52 239.235 114.745 237.878C112.97 236.521 110.811 235.763 108.578 235.714C108.162 235.714 107.931 235.714 107.931 235.714" fill="black"/>
<path opacity="0.3" d="M117.081 240.399C116.88 240.521 116.665 240.619 116.441 240.69C116.038 240.849 115.472 241.053 114.838 241.253C114.203 241.453 113.628 241.616 113.206 241.719C112.981 241.789 112.748 241.833 112.513 241.85C112.725 241.749 112.947 241.67 113.175 241.616L114.794 241.109L116.406 240.59C116.624 240.502 116.85 240.438 117.081 240.399Z" fill="black"/>
<path opacity="0.3" d="M115.084 235.023C115.197 235.486 115.247 235.963 115.234 236.439C115.27 236.915 115.244 237.394 115.156 237.863C115.093 237.393 115.068 236.919 115.081 236.446C115.043 235.972 115.043 235.496 115.081 235.023" fill="black"/>
<path opacity="0.3" d="M105.994 237.934C106.291 237.801 106.599 237.697 106.916 237.622C107.494 237.443 108.297 237.218 109.194 236.996C110.091 236.774 110.906 236.615 111.5 236.508C111.819 236.439 112.143 236.394 112.469 236.377C112.162 236.479 111.849 236.558 111.531 236.615C110.944 236.746 110.131 236.927 109.237 237.143C108.344 237.359 107.537 237.565 106.956 237.719C106.644 237.813 106.325 237.887 106.003 237.941" fill="black"/>
<path d="M124.103 259.771C123.01 259.48 121.71 260.547 121.481 261.647C121.253 262.748 121.672 263.89 122.16 264.913C123.199 267.206 124.743 269.235 126.678 270.846C128.629 272.451 131.065 273.348 133.591 273.391C133.128 271.246 133.713 269.013 133.456 266.824C133.231 264.899 132.36 263.109 130.985 261.745C129.61 260.381 127.812 259.525 125.888 259.317C125.191 259.242 124.381 259.133 124.103 259.777" fill="#31A62F"/>
<path opacity="0.3" d="M133.591 273.382C133.535 273.366 133.483 273.342 133.434 273.31C133.29 273.23 133.154 273.138 133.025 273.035C132.568 272.636 132.201 272.144 131.947 271.593C131.772 271.252 131.578 270.886 131.388 270.48L130.813 269.179C130.6 268.7 130.359 268.236 130.091 267.787C129.794 267.311 129.46 266.858 129.094 266.433C128.347 265.554 127.531 264.794 126.847 264.065C126.217 263.431 125.644 262.742 125.134 262.007C124.792 261.51 124.511 260.974 124.297 260.409C124.24 260.255 124.191 260.099 124.15 259.94C124.133 259.885 124.122 259.828 124.116 259.771C124.131 259.771 124.194 259.993 124.353 260.397C124.586 260.947 124.877 261.471 125.222 261.96C125.743 262.678 126.32 263.354 126.947 263.981C127.647 264.7 128.456 265.46 129.209 266.348C129.582 266.778 129.918 267.237 130.216 267.721C130.487 268.176 130.729 268.647 130.941 269.132C131.141 269.591 131.334 270.026 131.516 270.439C131.697 270.852 131.888 271.215 132.056 271.556C132.295 272.102 132.642 272.594 133.075 273.004C133.388 273.279 133.613 273.382 133.603 273.395" fill="black"/>
<path opacity="0.3" d="M127.938 271.599C127.944 271.35 127.978 271.103 128.038 270.861C128.125 270.411 128.266 269.791 128.453 269.119C128.641 268.447 128.847 267.843 129.009 267.415C129.081 267.177 129.18 266.949 129.306 266.736C129.265 266.98 129.199 267.219 129.109 267.449C128.975 267.887 128.797 268.49 128.6 269.16C128.403 269.829 128.256 270.442 128.144 270.886C128.097 271.13 128.028 271.368 127.938 271.599Z" fill="black"/>
<path opacity="0.3" d="M133.385 266.326C133.122 266.291 132.864 266.231 132.613 266.148C132.144 266.026 131.491 265.857 130.769 265.694C130.047 265.532 129.385 265.404 128.894 265.313C128.632 265.279 128.374 265.223 128.122 265.144C128.387 265.136 128.652 265.157 128.913 265.207C129.394 265.269 130.063 265.382 130.788 265.544C131.513 265.707 132.163 265.895 132.628 266.045C132.885 266.112 133.133 266.206 133.369 266.326" fill="black"/>
<path opacity="0.3" d="M123.881 267.859C123.894 267.571 123.934 267.285 124 267.005C124.097 266.483 124.25 265.754 124.453 264.981C124.656 264.209 124.875 263.496 125.047 262.992C125.126 262.716 125.23 262.448 125.359 262.192C125.313 262.474 125.243 262.753 125.15 263.024C125.006 263.533 124.806 264.237 124.6 265.019C124.394 265.801 124.228 266.511 124.106 267.027C124.055 267.31 123.98 267.589 123.881 267.859Z" fill="black"/>
<path opacity="0.3" d="M130.875 261.732C130.875 261.772 129.506 261.663 127.828 261.485C126.812 261.403 125.8 261.27 124.797 261.084C124.797 261.044 126.166 261.153 127.844 261.331C128.86 261.412 129.872 261.546 130.875 261.732Z" fill="black"/>
<path d="M118.716 248.953C118.622 247.958 117.616 247.204 116.616 247.195C116.116 247.217 115.627 247.353 115.187 247.592C114.747 247.831 114.367 248.167 114.075 248.574C113.499 249.396 113.083 250.319 112.85 251.295C112.178 253.641 111.81 256.109 112.097 258.532C112.385 260.956 113.369 263.343 115.106 265.056C115.388 265.335 115.756 265.613 116.144 265.529C116.353 265.467 116.542 265.35 116.691 265.191C118.392 263.632 119.741 261.726 120.646 259.602C121.552 257.479 121.993 255.186 121.941 252.878C121.913 251.955 121.794 251.001 121.281 250.229C120.769 249.456 119.585 248.643 118.716 248.953Z" fill="#31A62F"/>
<path opacity="0.3" d="M115.65 265.391C115.64 265.334 115.634 265.277 115.631 265.219C115.631 265.091 115.631 264.931 115.609 264.731C115.591 264.306 115.588 263.69 115.609 262.93C115.631 262.17 115.675 261.269 115.766 260.265C115.856 259.261 116.009 258.17 116.213 257.025C116.416 255.88 116.675 254.804 116.934 253.832C117.194 252.859 117.472 251.996 117.728 251.28C117.984 250.563 118.2 249.985 118.369 249.594L118.563 249.14C118.583 249.087 118.608 249.036 118.638 248.987C118.629 249.044 118.613 249.1 118.591 249.153C118.547 249.272 118.491 249.425 118.425 249.613C118.272 250.01 118.069 250.591 117.828 251.311C117.588 252.03 117.328 252.9 117.072 253.869C116.816 254.839 116.572 255.915 116.363 257.053C116.153 258.191 116.013 259.283 115.906 260.281C115.8 261.278 115.744 262.176 115.716 262.936C115.688 263.696 115.675 264.306 115.675 264.731C115.675 264.928 115.675 265.091 115.675 265.219C115.682 265.276 115.682 265.334 115.675 265.391" fill="black"/>
<path opacity="0.3" d="M116.322 257.084C116.173 257.286 116.003 257.471 115.816 257.638C115.485 257.951 115.019 258.407 114.488 258.873C113.956 259.339 113.456 259.746 113.091 260.031C112.898 260.195 112.689 260.339 112.466 260.459C112.633 260.271 112.817 260.1 113.016 259.946L114.381 258.761L115.735 257.56C115.912 257.382 116.107 257.223 116.316 257.084" fill="black"/>
<path opacity="0.3" d="M120.338 260.309C120.139 260.074 119.96 259.824 119.8 259.561L118.55 257.732L117.272 255.915C117.08 255.673 116.908 255.417 116.756 255.148C116.977 255.364 117.178 255.6 117.356 255.852C117.709 256.299 118.181 256.928 118.675 257.644C119.169 258.36 119.613 259.017 119.897 259.521C120.07 259.774 120.22 260.043 120.344 260.325" fill="black"/>
<path opacity="0.3" d="M118.234 250.122C118.256 250.157 116.922 251.061 115.253 252.13C113.584 253.2 112.212 254.048 112.187 254.007C112.162 253.966 113.5 253.069 115.172 251.999C116.844 250.929 118.212 250.082 118.234 250.122Z" fill="black"/>
<path opacity="0.3" d="M121.997 254.188C120.616 252.981 119.304 251.697 118.065 250.344C118.773 250.932 119.446 251.559 120.084 252.221C120.759 252.842 121.398 253.502 121.997 254.198" fill="black"/>
<path d="M128.594 282.217V290.402H120.416V282.217H119.625V290.402H111.447V282.217H110.656V309.94H111.447V292.779H119.625V309.94H120.416V292.779H128.594V309.94H129.388V292.779V290.402V282.217H128.594Z" fill="#3F4249"/>
<path d="M386.091 175.768L382.516 177.082L378.938 178.386L378.788 181.97C378.631 185.795 380.278 189.163 383.556 191.559C385.325 192.854 387.194 193.802 388.488 193.326C389.781 192.851 390.588 190.918 391.097 188.785C392.034 184.825 391.116 181.198 388.519 178.386L386.084 175.756L386.091 175.768Z" fill="#F09867"/>
<path opacity="0.2" d="M385.412 176.006L382.516 177.069L379.622 178.136L379.503 181.038C379.375 184.134 380.709 186.855 383.362 188.801C384.797 189.852 386.309 190.618 387.356 190.233C388.403 189.848 389.056 188.281 389.469 186.555C390.231 183.349 389.469 180.413 387.381 178.136L385.412 176.006Z" fill="white"/>
<path opacity="0.2" d="M384.731 176.256L382.515 177.069L380.303 177.886L380.212 180.103C380.115 182.474 381.15 184.557 383.165 186.045C384.259 186.849 385.419 187.434 386.219 187.14C387.019 186.846 387.519 185.648 387.834 184.325C388.419 181.873 387.834 179.634 386.237 177.886L384.731 176.256Z" fill="white"/>
<path d="M384.05 176.506L382.515 177.069L380.984 177.635L380.922 179.171C380.884 179.974 381.05 180.774 381.409 181.494C381.765 182.214 382.303 182.83 382.965 183.284C383.725 183.84 384.528 184.247 385.081 184.044C385.634 183.84 385.981 183.009 386.2 182.095C386.409 181.321 386.415 180.505 386.222 179.726C386.028 178.948 385.64 178.232 385.094 177.645L384.05 176.516V176.506Z" fill="white"/>
<path d="M385.209 162.664L393.425 167.571C393.491 167.609 393.541 167.669 393.569 167.74L395.275 172.387C395.281 172.404 395.285 172.422 395.281 172.44C395.281 172.457 395.275 172.474 395.263 172.489C395.253 172.504 395.241 172.516 395.225 172.523C395.206 172.532 395.191 172.535 395.172 172.534L388.922 172.456L385.209 162.664Z" fill="#4DB2FC"/>
<path opacity="0.2" d="M386.272 163.299L389.672 172.55L388.938 172.456L385.209 162.664L386.272 163.299Z" fill="black"/>
<path d="M371.64 167.658L368.559 176.728C368.531 176.8 368.531 176.879 368.559 176.95L370.265 181.598C370.272 181.615 370.281 181.63 370.294 181.641C370.309 181.653 370.325 181.662 370.34 181.666C370.359 181.67 370.378 181.67 370.394 181.666C370.412 181.662 370.428 181.654 370.44 181.642L375.128 177.538L371.64 167.658Z" fill="#4DB2FC"/>
<path opacity="0.2" d="M371.181 168.853L374.584 178.108L375.084 177.557L371.581 167.68L371.181 168.853Z" fill="black"/>
<path d="M369.216 140.943C368.103 141.362 367.144 145.009 367.059 150.548C367.006 153.807 367.469 157.055 368.437 160.168L376.25 180.879L381.703 178.817L384.862 177.623L390.316 175.559L383.222 156.768C382.531 154.93 381.666 153.162 380.637 151.489C379.612 149.809 378.453 148.214 377.175 146.719C373.566 142.563 370.322 140.521 369.209 140.943" fill="#B2B6BB"/>
<path d="M369.216 140.943C368.344 141.237 367.584 143.526 367.244 147.095L374.672 144.133C372.062 141.628 370.337 140.564 369.216 140.943Z" fill="#4DB2FC"/>
<g opacity="0.3">
<path opacity="0.3" d="M389.156 172.727L375.166 177.879L375.244 178.093L389.234 172.942L389.156 172.727Z" fill="black"/>
</g>
<g opacity="0.3">
<path opacity="0.3" d="M389.316 173.158L375.328 178.31L375.406 178.524L389.394 173.373L389.316 173.158Z" fill="black"/>
</g>
<g opacity="0.3">
<path opacity="0.3" d="M389.472 173.588L375.484 178.739L375.562 178.954L389.553 173.802L389.472 173.588Z" fill="black"/>
</g>
<g opacity="0.3">
<path opacity="0.3" d="M389.631 174.017L375.641 179.169L375.719 179.383L389.709 174.232L389.631 174.017Z" fill="black"/>
</g>
<g opacity="0.3">
<path opacity="0.3" d="M389.788 174.443L375.797 179.594L375.875 179.808L389.866 174.657L389.788 174.443Z" fill="black"/>
</g>
<g opacity="0.3">
<path opacity="0.3" d="M389.944 174.872L375.953 180.023L376.034 180.238L390.022 175.086L389.944 174.872Z" fill="black"/>
</g>
<g opacity="0.3">
<path opacity="0.3" d="M390.103 175.301L376.112 180.452L376.194 180.666L390.181 175.515L390.103 175.301Z" fill="black"/>
</g>
<path opacity="0.3" d="M380.241 167.552L382.947 174.905" stroke="black" stroke-width="0.73" stroke-miterlimit="10"/>
<path opacity="0.3" d="M377.853 157.087L381.528 167.077" stroke="black" stroke-width="0.73" stroke-miterlimit="10"/>
<path d="M377.231 158.897C379.219 157.399 379.612 154.573 378.115 152.585C376.619 150.598 373.797 150.201 371.809 151.699C369.825 153.197 369.428 156.024 370.925 158.011C372.422 159.999 375.247 160.395 377.231 158.897Z" fill="white"/>
<path d="M376.209 159.874C375.106 160.282 373.894 160.275 372.797 159.853C371.697 159.432 370.791 158.625 370.244 157.584C369.697 156.542 369.547 155.337 369.822 154.193C370.097 153.049 370.778 152.044 371.738 151.366C372.697 150.688 373.872 150.382 375.041 150.506C376.213 150.631 377.294 151.177 378.091 152.042C378.888 152.907 379.344 154.033 379.372 155.209C379.4 156.386 379 157.532 378.247 158.435C377.706 159.085 377.003 159.581 376.209 159.874ZM373.084 151.43C372.484 151.649 371.941 152.004 371.5 152.467C371.056 152.93 370.728 153.489 370.538 154.1C370.347 154.711 370.3 155.358 370.397 155.99C370.497 156.623 370.741 157.224 371.109 157.747C371.478 158.27 371.963 158.7 372.525 159.005C373.088 159.311 373.713 159.482 374.353 159.506C374.991 159.531 375.628 159.407 376.213 159.146C376.797 158.884 377.313 158.491 377.719 157.997C378.247 157.366 378.575 156.591 378.666 155.772C378.753 154.953 378.597 154.126 378.216 153.396C377.834 152.666 377.244 152.066 376.522 151.671C375.8 151.277 374.975 151.106 374.156 151.179C373.791 151.212 373.431 151.292 373.084 151.417V151.43Z" fill="#4D61FC"/>
<path opacity="0.3" d="M378.091 161.725C378.281 161.725 378.435 161.572 378.435 161.381C378.435 161.192 378.281 161.037 378.091 161.037C377.9 161.037 377.747 161.192 377.747 161.381C377.747 161.572 377.9 161.725 378.091 161.725Z" stroke="black" stroke-width="0.73" stroke-miterlimit="10"/>
<path opacity="0.3" d="M379.275 164.944C379.466 164.944 379.619 164.79 379.619 164.6C379.619 164.41 379.466 164.256 379.275 164.256C379.084 164.256 378.931 164.41 378.931 164.6C378.931 164.79 379.084 164.944 379.275 164.944Z" stroke="black" stroke-width="0.73" stroke-miterlimit="10"/>
<path opacity="0.3" d="M382.372 169.404C382.563 169.404 382.716 169.25 382.716 169.06C382.716 168.87 382.563 168.716 382.372 168.716C382.181 168.716 382.028 168.87 382.028 169.06C382.028 169.25 382.181 169.404 382.372 169.404Z" stroke="black" stroke-width="0.73" stroke-miterlimit="10"/>
<path opacity="0.3" d="M383.556 172.619C383.747 172.619 383.9 172.465 383.9 172.275C383.9 172.085 383.747 171.931 383.556 171.931C383.366 171.931 383.212 172.085 383.212 172.275C383.212 172.465 383.366 172.619 383.556 172.619Z" stroke="black" stroke-width="0.73" stroke-miterlimit="10"/>
<path opacity="0.3" d="M372.631 170.354L386.2 165.356" stroke="black" stroke-width="0.73" stroke-miterlimit="10"/>
<path d="M336.619 107.819L334.097 130.935L337.85 127.595L341.05 131.044L340.209 108.348L336.619 107.819Z" fill="#DADDDF"/>
<path d="M345.016 105.752L357.966 125.055L353.094 123.838L351.859 128.383L342.078 107.888L345.016 105.752Z" fill="#DADDDF"/>
<path d="M339.497 113.02C345.765 113.02 350.85 107.933 350.85 101.658C350.85 95.3824 345.765 90.2954 339.497 90.2954C333.228 90.2954 328.144 95.3824 328.144 101.658C328.144 107.933 333.228 113.02 339.497 113.02Z" fill="#FCE04D"/>
<path opacity="0.2" d="M347.062 108.811C346.869 109.199 346.706 109.602 346.572 110.015C346.362 110.64 346.162 111.213 345.828 111.447C345.494 111.682 344.89 111.653 344.287 111.644H343.862L344.722 113.446C345.469 113.496 346.215 113.313 346.856 112.923C347.665 112.357 347.987 111.431 348.265 110.612L347.062 108.811Z" fill="black"/>
<path opacity="0.2" d="M340.369 112.639L340.116 112.795C339.6 113.108 339.069 113.442 338.694 113.421C338.319 113.399 337.816 112.995 337.319 112.573C336.969 112.257 336.594 111.974 336.191 111.729L335.969 113.78L336.159 113.943C336.822 114.503 337.572 115.138 338.563 115.209C338.834 115.229 339.109 115.204 339.375 115.138C339.75 115.036 340.109 114.886 340.444 114.69L340.369 112.639Z" fill="black"/>
<path d="M339.375 114.412C339.109 114.479 338.834 114.503 338.562 114.484C337.572 114.412 336.822 113.777 336.159 113.217C335.844 112.915 335.487 112.659 335.1 112.457C334.675 112.327 334.234 112.257 333.791 112.251C332.931 112.188 331.959 112.116 331.209 111.481C330.459 110.847 330.231 109.918 330.025 109.079C329.941 108.637 329.797 108.208 329.594 107.807C329.334 107.466 329.031 107.164 328.687 106.909C328.019 106.346 327.262 105.711 327.022 104.72C326.781 103.728 327.156 102.824 327.487 102.017C327.672 101.631 327.8 101.22 327.872 100.798C327.866 100.348 327.797 99.902 327.666 99.4716C327.462 98.6366 327.231 97.6921 327.6 96.7913C327.969 95.8906 328.8 95.3683 329.531 94.9148C329.922 94.7021 330.278 94.4357 330.594 94.1235C330.844 93.7648 331.041 93.372 331.181 92.957C331.494 92.1532 331.878 91.2431 332.722 90.7176C333.566 90.1922 334.494 90.2829 335.341 90.3423C335.797 90.4017 336.259 90.3955 336.712 90.3236C337.147 90.1731 337.559 89.9626 337.937 89.698C338.659 89.2508 339.478 88.7441 340.437 88.813C341.397 88.8818 342.178 89.5198 342.837 90.0827C343.131 90.4158 343.5 90.6763 343.909 90.844C344.322 91.0116 344.765 91.082 345.209 91.0491C346.065 91.1117 347.04 91.1836 347.79 91.8154C348.54 92.4472 348.766 93.3792 348.972 94.2174C349.056 94.6599 349.203 95.0884 349.406 95.4903C349.662 95.8315 349.969 96.1336 350.312 96.3879C350.978 96.9508 351.734 97.5889 351.978 98.5772C352.222 99.5655 351.844 100.476 351.512 101.282C351.325 101.667 351.197 102.077 351.125 102.499C351.131 102.95 351.203 103.397 351.334 103.828C351.537 104.66 351.766 105.605 351.4 106.505C351.034 107.406 350.2 107.929 349.469 108.382C349.062 108.558 348.7 108.826 348.412 109.165C348.125 109.504 347.922 109.905 347.816 110.337C347.503 111.141 347.122 112.051 346.278 112.576C345.434 113.101 344.503 113.011 343.656 112.951C343.203 112.855 342.734 112.862 342.284 112.973C341.837 113.084 341.419 113.296 341.062 113.593C340.544 113.951 339.975 114.227 339.375 114.412ZM333.906 92.1563C333.822 92.1766 333.741 92.2095 333.666 92.2533C333.319 92.4691 333.087 93.0383 332.844 93.6419C332.641 94.2333 332.344 94.7884 331.965 95.287C331.534 95.7495 331.031 96.1411 330.478 96.4473C329.928 96.7882 329.409 97.1103 329.259 97.4794C329.109 97.8484 329.259 98.4583 329.406 99.0432C329.591 99.6512 329.675 100.285 329.659 100.92C329.581 101.532 329.409 102.128 329.147 102.687C328.897 103.297 328.659 103.869 328.762 104.282C328.865 104.695 329.337 105.092 329.841 105.514C330.334 105.888 330.766 106.336 331.119 106.843C331.425 107.402 331.644 108.004 331.766 108.629C331.912 109.223 332.078 109.839 332.366 110.093C332.653 110.346 333.278 110.406 333.928 110.443C334.559 110.422 335.187 110.535 335.775 110.774C336.359 111.012 336.887 111.372 337.325 111.829C337.822 112.248 338.291 112.648 338.7 112.676C339.109 112.704 339.606 112.363 340.122 112.051C340.653 111.681 341.241 111.399 341.859 111.216C342.494 111.092 343.144 111.068 343.787 111.147C344.391 111.191 345.016 111.234 345.35 111.034C345.684 110.834 345.928 110.249 346.175 109.649C346.378 109.056 346.675 108.5 347.053 108C347.484 107.537 347.987 107.146 348.541 106.84C349.091 106.499 349.606 106.177 349.759 105.808C349.912 105.439 349.759 104.829 349.609 104.244C349.428 103.636 349.344 103.003 349.356 102.368C349.434 101.754 349.606 101.157 349.872 100.598C350.122 99.9908 350.356 99.4153 350.256 99.0025C350.156 98.5897 349.678 98.1925 349.178 97.7702C348.684 97.3974 348.253 96.9489 347.9 96.441C347.594 95.8834 347.375 95.2807 347.253 94.6552C347.103 94.061 346.94 93.4449 346.653 93.1915C346.365 92.9382 345.74 92.8788 345.09 92.8444C344.459 92.8303 343.831 92.7161 343.234 92.5066C342.666 92.2407 342.147 91.8861 341.691 91.4557C341.194 91.0366 340.728 90.6394 340.319 90.6082C339.909 90.5769 339.412 90.9209 338.897 91.2337C338.362 91.6005 337.775 91.8823 337.156 92.0687C336.522 92.192 335.872 92.2142 335.231 92.1344C334.791 92.0797 334.344 92.0872 333.906 92.1563Z" fill="#DBC23E"/>
<path d="M339.497 111.45C344.9 111.45 349.281 107.066 349.281 101.658C349.281 96.2497 344.9 91.8655 339.497 91.8655C334.094 91.8655 329.712 96.2497 329.712 101.658C329.712 107.066 334.094 111.45 339.497 111.45Z" stroke="white" stroke-width="1.91" stroke-miterlimit="10"/>
<path d="M338.266 96.6475L340.703 99.5436L344.472 99.1776L342.469 102.393L343.981 105.864L340.309 104.954L337.478 107.469L337.206 103.691L333.944 101.77L337.45 100.344L338.266 96.6475Z" fill="#F4F4F4"/>
<path d="M123.447 199.581L102.653 206.287C102.616 206.299 102.577 206.304 102.539 206.301C102.5 206.298 102.462 206.287 102.427 206.269C102.393 206.251 102.362 206.227 102.337 206.197C102.312 206.168 102.293 206.133 102.281 206.096L93.6252 179.208C93.6046 179.133 93.6134 179.053 93.649 178.983C93.6849 178.914 93.7455 178.86 93.819 178.833L109.394 173.81L116.581 177.266L123.625 199.206C123.651 199.279 123.647 199.36 123.614 199.431C123.58 199.501 123.52 199.555 123.447 199.581Z" fill="#DADDDF"/>
<path d="M113.874 177.948L97.8423 183.184L98.0845 183.927L114.116 178.691L113.874 177.948Z" fill="white"/>
<path d="M114.664 180.545L98.6177 185.772L98.8592 186.516L114.906 181.289L114.664 180.545Z" fill="white"/>
<path d="M115.434 182.926L99.3877 188.153L99.6296 188.897L115.676 183.669L115.434 182.926Z" fill="white"/>
<path d="M116.209 185.302L100.163 190.53L100.405 191.273L116.451 186.046L116.209 185.302Z" fill="white"/>
<path d="M116.982 187.682L100.936 192.91L101.178 193.653L117.224 188.426L116.982 187.682Z" fill="white"/>
<path d="M117.759 190.062L101.712 195.289L101.954 196.033L118.001 190.805L117.759 190.062Z" fill="white"/>
<path d="M118.531 192.439L102.484 197.667L102.726 198.41L118.772 193.183L118.531 192.439Z" fill="white"/>
<path d="M119.292 194.584L103.261 199.82L103.503 200.563L119.535 195.327L119.292 194.584Z" fill="white"/>
<path d="M109.394 173.823L116.581 177.279L111.365 178.961C111.29 178.982 111.21 178.973 111.14 178.937C111.071 178.902 111.017 178.841 110.99 178.767L109.394 173.823Z" fill="#DADDDF"/>
<path opacity="0.2" d="M109.394 173.823L116.581 177.279L111.365 178.961C111.29 178.982 111.21 178.973 111.14 178.937C111.071 178.902 111.017 178.841 110.99 178.767L109.394 173.823Z" fill="black"/>
</svg>
