<svg width="20" height="18" viewBox="0 0 20 18" fill="none" xmlns="http://www.w3.org/2000/svg">
<path d="M6.29002 17.251C13.837 17.251 17.965 10.998 17.965 5.576C17.965 5.398 17.965 5.221 17.953 5.046C18.7562 4.46453 19.4494 3.74462 20 2.92C19.2511 3.25201 18.4566 3.46976 17.643 3.566C18.4997 3.05306 19.1408 2.24635 19.447 1.296C18.6417 1.77389 17.7607 2.11073 16.842 2.292C16.2234 1.63377 15.405 1.19784 14.5136 1.05171C13.6222 0.905578 12.7075 1.0574 11.9111 1.48367C11.1147 1.90994 10.4811 2.58688 10.1083 3.40966C9.73552 4.23245 9.64438 5.15519 9.84902 6.035C8.2176 5.95324 6.62162 5.52933 5.16466 4.79077C3.7077 4.05221 2.42234 3.01553 1.39202 1.748C0.867333 2.65121 0.706604 3.72042 0.942551 4.73797C1.1785 5.75551 1.79338 6.64488 2.66202 7.225C2.00928 7.20607 1.37066 7.03047 0.800015 6.713V6.765C0.800405 7.7123 1.12841 8.63031 1.72841 9.36336C2.32842 10.0964 3.16348 10.5994 4.09202 10.787C3.48783 10.9517 2.85391 10.9757 2.23902 10.857C2.50118 11.6725 3.01169 12.3856 3.69914 12.8966C4.38659 13.4076 5.21659 13.691 6.07302 13.707C5.22213 14.3756 4.2478 14.8698 3.20574 15.1615C2.16368 15.4532 1.07434 15.5367 1.52588e-05 15.407C1.87662 16.6113 4.0602 17.2501 6.29002 17.247" fill="#1DA1F2"/>
</svg>
