<svg width="24" height="24" viewBox="0 0 24 24" fill="none" xmlns="http://www.w3.org/2000/svg">
<g clip-path="url(#clip0_1_7)">
<path d="M12 15.1755C11.8874 15.1756 11.7759 15.1535 11.6719 15.1105C11.5678 15.0674 11.4733 15.0043 11.3937 14.9247C11.3141 14.8451 11.251 14.7506 11.2079 14.6465C11.1649 14.5425 11.1428 14.431 11.1429 14.3184V1.49966C11.1429 1.27233 11.2332 1.05431 11.3939 0.893566C11.5547 0.73282 11.7727 0.642514 12 0.642514C12.2273 0.642514 12.4453 0.73282 12.6061 0.893566C12.7668 1.05431 12.8571 1.27233 12.8571 1.49966V14.3184C12.8571 14.5457 12.7668 14.7637 12.6061 14.9245C12.4453 15.0852 12.2273 15.1755 12 15.1755V15.1755Z" fill="#9CA3AF"/>
<path d="M12 15.5609C11.7119 15.5614 11.4266 15.5049 11.1604 15.3948C10.8942 15.2846 10.6524 15.123 10.4489 14.9191L5.81966 10.2898C5.65898 10.1292 5.56871 9.91123 5.56871 9.684C5.56871 9.45677 5.65898 9.23885 5.81966 9.07817C5.98033 8.9175 6.19826 8.82723 6.42548 8.82723C6.65271 8.82723 6.87064 8.9175 7.03131 9.07817L11.6606 13.7074C11.7051 13.752 11.7581 13.7874 11.8163 13.8115C11.8745 13.8356 11.937 13.848 12 13.848C12.063 13.848 12.1255 13.8356 12.1837 13.8115C12.2419 13.7874 12.2949 13.752 12.3394 13.7074L16.9687 9.07817C17.1303 8.92199 17.3468 8.83553 17.5715 8.83742C17.7963 8.83931 18.0113 8.9294 18.1702 9.08827C18.3292 9.24715 18.4194 9.46211 18.4214 9.68685C18.4235 9.91159 18.3371 10.1281 18.181 10.2898L13.5511 14.9191C13.3475 15.1229 13.1057 15.2845 12.8395 15.3947C12.5734 15.5048 12.2881 15.5613 12 15.5609V15.5609Z" fill="#9CA3AF"/>
<path d="M21.5561 23.3575H2.44389C1.84142 23.3568 1.26383 23.1171 0.837818 22.6911C0.411807 22.2651 0.172155 21.6875 0.171429 21.085V15.0933C0.171429 14.8659 0.261735 14.6479 0.42248 14.4872C0.583226 14.3264 0.801243 14.2361 1.02857 14.2361C1.2559 14.2361 1.47392 14.3264 1.63466 14.4872C1.79541 14.6479 1.88571 14.8659 1.88571 15.0933V21.085C1.8859 21.233 1.94476 21.3749 2.0494 21.4795C2.15404 21.5842 2.29591 21.643 2.44389 21.6432H21.5561C21.7041 21.643 21.846 21.5842 21.9506 21.4795C22.0552 21.3749 22.1141 21.233 22.1143 21.085V15.0933C22.1143 14.8659 22.2046 14.6479 22.3653 14.4872C22.5261 14.3264 22.7441 14.2361 22.9714 14.2361C23.1988 14.2361 23.4168 14.3264 23.5775 14.4872C23.7383 14.6479 23.8286 14.8659 23.8286 15.0933V21.085C23.8278 21.6875 23.5882 22.2651 23.1622 22.6911C22.7362 23.1171 22.1586 23.3568 21.5561 23.3575V23.3575Z" fill="#9CA3AF"/>
</g>
<defs>
<clipPath id="clip0_1_7">
<rect width="24" height="24" fill="white"/>
</clipPath>
</defs>
</svg>
