<svg xmlns="http://www.w3.org/2000/svg" width="50" height="51" viewBox="0 0 50 51" fill="none">
    <ellipse cx="25" cy="25.2809" rx="25" ry="25.2809" fill="#ECFDF5"/>
    <path d="M30.1418 26.8979C30.1001 26.8777 28.5379 26.0997 28.2603 25.9987C28.147 25.9576 28.0255 25.9174 27.8964 25.9174C27.6855 25.9174 27.5083 26.0237 27.3702 26.2325C27.2142 26.4671 26.7418 27.0255 26.5958 27.1923C26.5768 27.2143 26.5507 27.2406 26.5351 27.2406C26.5212 27.2406 26.2794 27.1399 26.2062 27.1078C24.5304 26.3717 23.2584 24.6015 23.084 24.3029C23.0591 24.26 23.058 24.2405 23.0578 24.2405C23.0639 24.2178 23.1203 24.1607 23.1494 24.1312C23.2344 24.0461 23.3266 23.9339 23.4158 23.8253C23.4581 23.7739 23.5004 23.7224 23.5419 23.6738C23.6713 23.5216 23.7289 23.4034 23.7957 23.2665L23.8307 23.1953C23.9938 22.8677 23.8545 22.5912 23.8095 22.5019C23.7725 22.4272 23.1129 20.8173 23.0428 20.6482C22.8741 20.2401 22.6513 20.05 22.3416 20.05C22.3129 20.05 22.3416 20.05 22.2211 20.0552C22.0744 20.0614 21.2753 20.1678 20.922 20.393C20.5474 20.6319 19.9136 21.3933 19.9136 22.7323C19.9136 23.9374 20.6698 25.0752 20.9945 25.508C21.0026 25.5189 21.0174 25.5411 21.0389 25.5729C22.2824 27.4093 23.8326 28.7702 25.404 29.405C26.9169 30.0161 27.6333 30.0868 28.0406 30.0868H28.0406C28.2118 30.0868 28.3488 30.0732 28.4696 30.0612L28.5463 30.0538C29.0689 30.0069 30.2175 29.4051 30.4787 28.6709C30.6845 28.0927 30.7388 27.4609 30.6019 27.2316C30.5081 27.0757 30.3464 26.9973 30.1418 26.8979Z" fill="#059669"/>
    <path d="M25.1904 14.447C19.3868 14.447 14.6653 19.1857 14.6653 25.0103C14.6653 26.8942 15.1639 28.7383 16.1083 30.3523L14.3006 35.7446C14.2669 35.8452 14.292 35.9563 14.3655 36.032C14.4186 36.0868 14.4906 36.1164 14.5642 36.1164C14.5923 36.1164 14.6207 36.1121 14.6484 36.1032L20.2087 34.3164C21.7303 35.1385 23.45 35.5725 25.1904 35.5725C30.9934 35.5725 35.7145 30.8343 35.7145 25.0103C35.7145 19.1857 30.9934 14.447 25.1904 14.447ZM25.1904 33.3721C23.5527 33.3721 21.9665 32.8939 20.603 31.9891C20.5571 31.9587 20.5039 31.9431 20.4503 31.9431C20.422 31.9431 20.3936 31.9474 20.366 31.9563L17.5807 32.8516L18.4798 30.1691C18.5089 30.0822 18.4944 29.9865 18.4408 29.9125C17.4025 28.4778 16.8536 26.7827 16.8536 25.0103C16.8536 20.3991 20.5935 16.6474 25.1903 16.6474C29.7866 16.6474 33.526 20.3991 33.526 25.0103C33.5261 29.6211 29.7867 33.3721 25.1904 33.3721Z" fill="#059669"/>
</svg>