<svg width="38" height="38" viewBox="0 0 38 38" fill="none" xmlns="http://www.w3.org/2000/svg">
<rect x="2" y="2" width="34" height="34" rx="17" fill="#F3F4F6"/>
<rect x="2" y="2" width="34" height="34" rx="17" stroke="#F9FAFB" stroke-width="4"/>
<g clip-path="url(#clip0_11243_8242)">
<path d="M22.8392 20.1938C22.8081 20.1789 21.6416 19.6045 21.4344 19.5299C21.3497 19.4995 21.2591 19.4698 21.1627 19.4698C21.0052 19.4698 20.8728 19.5483 20.7698 19.7025C20.6533 19.8757 20.3005 20.288 20.1916 20.4112C20.1773 20.4274 20.1579 20.4469 20.1463 20.4469C20.1358 20.4469 19.9553 20.3725 19.9006 20.3488C18.6494 19.8052 17.6996 18.4982 17.5694 18.2778C17.5508 18.2461 17.55 18.2317 17.5498 18.2317C17.5544 18.2149 17.5965 18.1727 17.6182 18.151C17.6817 18.0881 17.7506 18.0052 17.8172 17.9251C17.8487 17.8871 17.8803 17.8491 17.9113 17.8132C18.0079 17.7008 18.0509 17.6136 18.1008 17.5125L18.1269 17.4599C18.2487 17.218 18.1447 17.0139 18.1111 16.9479C18.0835 16.8928 17.591 15.7041 17.5386 15.5792C17.4127 15.2779 17.2463 15.1376 17.0151 15.1376C16.9936 15.1376 17.0151 15.1376 16.9251 15.1414C16.8156 15.146 16.2189 15.2245 15.9551 15.3908C15.6754 15.5672 15.2021 16.1294 15.2021 17.118C15.2021 18.0078 15.7668 18.848 16.0093 19.1675C16.0153 19.1756 16.0264 19.1919 16.0424 19.2154C16.9709 20.5714 18.1283 21.5763 19.3017 22.045C20.4313 22.4962 20.9662 22.5484 21.2703 22.5484H21.2704C21.3981 22.5484 21.5004 22.5383 21.5907 22.5295L21.6479 22.524C22.0381 22.4894 22.8957 22.045 23.0908 21.503C23.2444 21.076 23.285 20.6095 23.1827 20.4402C23.1127 20.3251 22.992 20.2672 22.8392 20.1938Z" fill="#047857"/>
<path d="M19.142 11C14.8087 11 11.2833 14.4989 11.2833 18.7996C11.2833 20.1906 11.6556 21.5523 12.3608 22.7439L11.011 26.7255C10.9859 26.7997 11.0046 26.8818 11.0595 26.9377C11.0991 26.9782 11.1529 27 11.2078 27C11.2288 27 11.25 26.9968 11.2707 26.9902L15.4224 25.671C16.5585 26.278 17.8425 26.5984 19.1421 26.5984C23.4749 26.5984 27 23.0999 27 18.7996C27 14.4989 23.4749 11 19.142 11ZM19.142 24.9737C17.9192 24.9737 16.7348 24.6206 15.7168 23.9526C15.6825 23.9301 15.6428 23.9185 15.6028 23.9185C15.5817 23.9185 15.5605 23.9218 15.5398 23.9283L13.4601 24.5894L14.1315 22.6087C14.1532 22.5446 14.1423 22.4739 14.1023 22.4192C13.3271 21.3599 12.9172 20.1083 12.9172 18.7996C12.9172 15.3948 15.7097 12.6247 19.142 12.6247C22.5739 12.6247 25.366 15.3948 25.366 18.7996C25.366 22.2041 22.574 24.9737 19.142 24.9737Z" fill="#047857"/>
</g>
<defs>
<clipPath id="clip0_11243_8242">
<rect width="16" height="16" fill="white" transform="translate(11 11)"/>
</clipPath>
</defs>
</svg>
