<svg width="401" height="400" viewBox="0 0 401 400" fill="none" xmlns="http://www.w3.org/2000/svg">
<path d="M352.305 217.605C352.054 219.309 351.843 220.368 351.791 220.62C351.209 223.359 350.473 226.064 349.587 228.72C347.979 233.54 345.919 238.198 343.435 242.631C342.283 244.69 341.046 246.711 339.724 248.694C338.78 250.113 337.792 251.51 336.761 252.887C332.754 258.217 328.275 263.177 323.38 267.705C322.409 268.609 321.422 269.5 320.417 270.379C317.805 272.668 315.078 274.876 312.235 277.001C311.544 277.524 310.845 278.04 310.139 278.55C309.661 278.894 309.176 279.238 308.691 279.583C308.317 279.846 307.939 280.109 307.561 280.372C307.128 280.672 306.691 280.972 306.254 281.261C303.135 283.379 299.915 285.403 296.594 287.331C296.483 287.398 296.368 287.461 296.257 287.524C295.561 287.931 294.865 288.327 294.161 288.716C292.635 289.58 291.092 290.417 289.531 291.227C289.409 291.29 289.287 291.357 289.161 291.42C286.25 292.942 283.285 294.39 280.265 295.764C279.457 296.135 278.646 296.501 277.831 296.857C275.883 297.716 273.917 298.547 271.931 299.35C270.946 299.75 269.961 300.138 268.968 300.52C264.993 302.057 260.97 303.474 256.898 304.772C255.957 305.072 255.014 305.364 254.068 305.65C250.65 306.69 247.214 307.643 243.761 308.509C239.917 309.476 236.067 310.331 232.213 311.076C222.233 313.031 212.116 314.212 201.954 314.609C193.866 314.886 185.769 314.678 177.705 313.987C174.365 313.705 170.991 313.345 167.583 312.905C161.061 312.064 154.457 310.924 147.891 309.468C147.246 309.327 146.605 309.179 145.961 309.031C145.383 308.898 144.809 308.761 144.231 308.62C144.028 308.576 143.824 308.524 143.62 308.476C142.95 308.313 142.283 308.146 141.613 307.976C138.409 307.161 135.226 306.269 132.065 305.301C131.55 305.146 131.035 304.987 130.524 304.827V304.824C130.224 304.731 129.928 304.638 129.631 304.542C129.491 304.498 129.354 304.453 129.217 304.409C128.965 304.324 128.709 304.242 128.454 304.157C128.124 304.05 127.798 303.938 127.468 303.827C123.013 302.342 118.628 300.69 114.372 298.872C114.102 298.757 113.835 298.642 113.565 298.524C112.309 297.983 111.066 297.426 109.835 296.853C106.213 295.168 102.703 293.357 99.3055 291.42C99.3017 291.42 99.2979 291.419 99.2946 291.417C99.2914 291.415 99.2887 291.412 99.287 291.409C99.1796 291.35 99.0722 291.29 98.9647 291.227C96.6796 289.916 94.4586 288.543 92.3018 287.109C91.9018 286.846 91.5018 286.579 91.1055 286.309C90.3351 285.783 89.5759 285.25 88.8277 284.709C88.2944 284.324 87.7648 283.935 87.2388 283.542C86.6536 283.105 86.0759 282.664 85.5018 282.213C84.724 281.613 83.9598 280.999 83.2092 280.372C80.6557 278.26 78.2211 276.008 75.9166 273.627C74.8944 272.572 73.9067 271.494 72.9536 270.394C67.0685 263.613 62.4722 255.987 59.5685 247.468C59.4277 247.05 59.287 246.627 59.1536 246.205C58.7833 245.035 58.4388 243.846 58.1314 242.631L58.1092 242.553C57.4783 240.082 56.9764 237.58 56.6055 235.057C56.2944 232.976 56.0685 230.857 55.9277 228.72C55.6336 224.36 55.6856 219.983 56.0833 215.631C57.5425 199.627 63.7166 183.998 75.2536 174.342C84.9351 166.235 97.787 162.838 109.835 161.701C109.913 161.69 109.994 161.687 110.076 161.679C125.694 160.238 139.909 162.579 144.017 163.331C158.313 165.957 171.268 171.616 192.768 169.198C194.494 169.001 200.417 168.29 211.213 165.324C211.446 165.261 211.683 165.194 211.924 165.127C212.965 164.838 213.98 164.547 214.968 164.253C245.605 155.227 252.724 145.298 270.835 140.694C272.091 140.372 273.394 140.083 274.731 139.82C276.724 139.435 278.798 139.113 280.935 138.872C298.58 136.883 320.365 140.227 335.12 153.887C349.576 167.268 353.065 186.624 353.335 201.057C353.442 206.592 353.097 212.126 352.305 217.605Z" fill="#E6EDFA"/>
<path d="M307.564 280.37C285.894 295.367 258.955 305.903 232.218 311.076C222.236 313.029 212.119 314.209 201.956 314.608C193.868 314.883 185.77 314.676 177.707 313.987C166.22 313.029 154.825 311.185 143.622 308.473C138.771 307.292 133.956 305.939 129.221 304.407C128.967 304.324 128.711 304.243 128.457 304.157C123.659 302.582 118.946 300.822 114.375 298.871C114.105 298.756 113.837 298.641 113.569 298.524C112.314 297.982 111.069 297.425 109.837 296.851C100.039 292.296 90.985 286.825 83.2109 280.37L307.564 280.37Z" fill="#D8DFF3"/>
<path d="M352.31 217.604C352.058 219.307 351.845 220.367 351.791 220.617C341.771 267.877 286.572 300.56 232.217 311.076C232.217 310.891 232.21 310.701 232.193 310.514C232.073 309.246 231.482 308.076 231.198 306.834C230.077 301.966 233.841 297.244 238.11 294.648C242.378 292.053 247.362 290.674 251.304 287.607C249.261 286.047 250.876 282.792 252.719 281.001C257.114 276.742 262.367 273.469 268.127 271.4C267.201 264.167 275.137 257.355 282.143 259.363C282.189 257.591 282.863 255.893 284.046 254.573C285.229 253.253 286.843 252.397 288.599 252.158C290.355 251.919 292.139 252.313 293.632 253.269C295.124 254.225 296.228 255.681 296.745 257.376C297.044 254.84 297.756 252.369 298.852 250.063C299.81 248.046 302.811 248.201 303.515 250.318C303.519 250.333 303.523 250.348 303.529 250.362C305.853 245.685 313.158 244.6 316.742 248.399C315.492 243.744 321.099 238.887 325.528 240.787C323.405 237.668 322.83 233.311 324.834 230.112C326.838 226.913 331.709 225.642 334.624 228.038C332.552 224.506 335.161 219.236 339.227 218.742C341.301 218.49 343.362 219.29 345.451 219.343C346.533 219.367 347.598 219.081 348.522 218.518C349.647 217.8 350.98 217.478 352.31 217.604ZM280.842 157.432C280.842 166.603 267.81 174.06 251.62 174.228C251.431 174.233 251.245 174.233 251.056 174.233C249.9 174.233 248.76 174.193 247.64 174.121C244.707 176.968 240.883 178.717 236.812 179.075C232.741 179.432 228.671 178.376 225.287 176.084C225.2 176.027 225.117 175.967 225.031 175.908C225.051 176.029 225.068 176.152 225.083 176.275V176.277C225.128 176.65 225.151 177.026 225.151 177.402C225.151 181.718 222.266 185.653 217.523 188.627C217.081 188.907 216.62 189.174 216.146 189.434C212.497 191.44 207.94 192.923 202.856 193.663V193.665C202.318 193.742 201.78 193.811 201.24 193.871C200.794 193.923 200.345 193.966 199.897 194.006H199.895C195.762 194.362 191.602 194.229 187.5 193.609C187.5 193.607 187.5 193.607 187.498 193.607C187.381 193.589 187.266 193.57 187.149 193.551C182.077 192.732 177.556 191.174 173.981 189.095C170.324 186.97 167.656 184.299 166.396 181.321C165.91 181.339 165.424 181.353 164.931 181.353C164.497 181.353 164.064 181.345 163.635 181.329C161.859 181.269 160.091 181.074 158.345 180.744C157.998 180.678 157.655 180.607 157.316 180.529H157.313C154.35 179.901 151.516 178.769 148.936 177.182C148.326 177.701 147.688 178.186 147.025 178.636C146.117 179.252 145.172 179.812 144.196 180.313C143.863 180.486 143.521 180.654 143.172 180.815C142.741 181.019 142.299 181.214 141.848 181.4H141.844C141.084 181.72 140.301 182.013 139.487 182.287C134.884 183.787 130.069 184.536 125.228 184.506H125.057C121.01 184.482 117.137 182.856 114.286 179.985C111.434 177.113 109.837 173.228 109.842 169.181V161.7C109.921 161.69 110.003 161.684 110.082 161.678C125.702 160.237 139.917 162.577 144.024 163.331C158.32 165.954 171.275 171.613 192.776 169.194C194.503 169 200.423 168.287 211.22 165.321C211.454 165.258 211.69 165.192 211.931 165.125C212.97 164.835 213.986 164.544 214.977 164.251C245.611 155.226 252.732 145.296 270.84 140.691C272.099 140.371 273.398 140.08 274.737 139.818C274.853 142.094 274.49 144.37 273.671 146.497C277.739 149.17 280.34 152.568 280.779 156.305C280.823 156.679 280.844 157.055 280.842 157.432Z" fill="#CAD4EF"/>
<path d="M235.128 164.252C235.128 164.252 235.122 164.272 235.112 164.311C235.024 164.608 234.612 166.008 233.843 168.266C233.302 169.856 232.584 171.871 231.675 174.229C231.183 175.509 230.633 176.885 230.026 178.356C226.087 187.907 221.381 197.122 215.952 205.912C215.734 206.265 215.511 206.62 215.285 206.975C213.363 210.023 211.285 213.103 209.047 216.17C209.047 216.172 209.047 216.173 209.046 216.175C209.045 216.176 209.044 216.177 209.043 216.178C208.9 216.374 208.755 216.571 208.61 216.766C208.44 216.998 208.267 217.232 208.092 217.464C207.874 217.757 207.654 218.05 207.433 218.343C207.433 218.343 207.433 218.343 207.429 218.347C202.711 224.625 197.454 230.478 191.716 235.84C178.896 247.746 167.689 261.277 158.378 276.09C158.378 276.09 158.378 276.09 158.378 276.093C158.155 276.447 157.937 276.8 157.72 277.149C155.315 281.059 153.209 284.815 151.402 288.333V288.337C151.28 288.569 151.163 288.8 151.048 289.028C146.96 297.102 144.486 303.903 143.623 308.472C138.772 307.291 133.957 305.939 129.222 304.407C128.968 304.323 128.712 304.242 128.458 304.157C123.66 302.581 118.948 300.821 114.376 298.871C114.106 298.756 113.838 298.64 113.57 298.523C112.315 297.982 111.07 297.424 109.838 296.851V264.709C119.823 250.347 134.496 234.074 155.986 218.116C157.331 217.119 158.337 215.732 158.867 214.144C159.398 212.556 159.428 210.843 158.952 209.237C158.948 209.221 158.942 209.203 158.939 209.187C158.319 207.102 157.553 204.653 156.702 202.243C156.223 200.885 155.635 199.569 154.945 198.305C154.944 198.304 154.944 198.302 154.945 198.301C154.845 198.113 154.74 197.926 154.633 197.741C154.525 197.557 154.421 197.371 154.309 197.19C154.309 197.19 154.309 197.19 154.309 197.186C152.733 194.58 150.734 192.254 148.394 190.305C145.853 188.186 142.636 185.379 139.501 182.3L139.487 182.287C138.279 181.101 137.082 179.879 135.941 178.636C134.709 177.314 133.541 175.937 132.437 174.504C132.041 173.993 131.653 173.473 131.275 172.947C129.556 170.514 128.308 168.161 127.864 166.07C130.644 166.378 133.448 165.737 135.818 164.252L139.612 168.933L142.686 172.727L144.328 174.75C144.51 174.984 144.76 175.155 145.044 175.241C145.328 175.327 145.631 175.322 145.913 175.228C146.163 175.14 146.383 174.982 146.547 174.773C146.711 174.564 146.812 174.312 146.839 174.048L147.135 171.066L147.24 170.006L147.407 168.343C148.124 168.917 148.926 169.376 149.784 169.704C151.421 170.359 153.171 170.686 154.935 170.667C155.127 170.667 155.324 170.663 155.524 170.656C155.54 170.656 155.556 170.656 155.572 170.656H155.576C156.73 170.604 157.876 170.438 158.998 170.161C159.624 172.336 160.367 174.475 161.225 176.569C161.883 178.224 162.69 179.817 163.636 181.327C164.155 182.18 164.815 182.938 165.588 183.569C166.628 184.349 168.116 186.246 169.709 188.557L169.709 188.558L169.709 188.56C169.904 188.841 170.099 189.129 170.295 189.423C171.192 190.756 172.11 192.191 172.985 193.608C174.402 195.891 175.716 198.124 176.686 199.8C176.85 200.084 177.069 200.333 177.329 200.533C177.589 200.733 177.886 200.879 178.203 200.964C178.52 201.048 178.851 201.07 179.176 201.027C179.501 200.984 179.815 200.877 180.099 200.713C180.295 200.599 180.475 200.459 180.634 200.297C181.192 199.725 181.837 199.064 182.551 198.328C182.552 198.326 182.553 198.324 182.555 198.322L183.081 197.778H183.083C184.258 196.565 185.595 195.176 187.038 193.664L187.145 193.551C189.849 190.716 192.909 187.46 195.935 184.146C196.59 183.43 197.242 182.712 197.892 181.991C203.114 176.199 207.966 170.473 210.368 166.743C210.368 166.743 210.37 166.743 210.37 166.738C210.525 166.5 210.667 166.268 210.803 166.046C210.956 165.794 211.092 165.552 211.216 165.322C211.45 165.258 211.686 165.193 211.926 165.126C212.966 164.836 213.981 164.545 214.972 164.252L235.128 164.252Z" fill="#D8DFF3"/>
<path d="M197.485 220.364C193.605 221.389 189.593 222.447 185.74 223.808C176.009 227.243 169.138 232.213 165.317 238.58C163.024 242.399 161.84 246.674 160.902 250.724C158.895 259.381 157.778 268.221 157.568 277.105C157.568 277.123 157.574 277.141 157.585 277.156C157.595 277.171 157.611 277.182 157.628 277.187C157.646 277.192 157.665 277.191 157.682 277.185C157.699 277.179 157.714 277.167 157.724 277.151C157.94 276.8 158.158 276.448 158.379 276.094L158.392 276.053C158.661 267.583 159.761 259.159 161.674 250.903C162.598 246.916 163.761 242.713 165.996 238.988C169.719 232.783 176.451 227.928 186.003 224.557C189.826 223.208 193.822 222.153 197.687 221.132C200.89 220.286 204.175 219.417 207.395 218.374L207.437 218.344C207.659 218.052 207.879 217.758 208.097 217.465C208.108 217.451 208.114 217.433 208.114 217.416C208.114 217.398 208.108 217.381 208.098 217.366C208.087 217.352 208.072 217.341 208.055 217.336C208.039 217.331 208.02 217.331 208.004 217.337C204.534 218.5 200.961 219.447 197.485 220.364Z" fill="#CAD4EF"/>
<path d="M151.402 288.333V288.337C151.4 288.344 151.398 288.351 151.394 288.357C151.283 288.573 151.172 288.791 151.061 289.008C151.057 289.015 151.052 289.022 151.047 289.028C151.042 289.032 151.038 289.036 151.032 289.04C151.014 289.051 150.991 289.055 150.969 289.049C150.948 289.044 150.929 289.031 150.918 289.012C150.433 288.242 149.919 287.49 149.376 286.756C148.4 285.434 147.05 283.774 145.272 282.648C144.034 281.891 142.647 281.408 141.207 281.231C139.766 281.055 138.304 281.189 136.919 281.625C136.426 281.785 135.977 282.059 135.611 282.427C135.245 282.794 134.971 283.242 134.812 283.736C132.667 290.266 130.452 297.254 129.219 304.407C128.965 304.324 128.709 304.243 128.455 304.157C129.798 296.417 132.275 288.893 134.571 281.924L134.648 281.789L134.753 281.704C136.44 280.784 138.34 280.325 140.262 280.374C142.183 280.423 144.058 280.977 145.696 281.982C147.583 283.176 148.992 284.91 150.014 286.287C150.492 286.934 150.95 287.596 151.389 288.271C151.401 288.29 151.405 288.312 151.402 288.333Z" fill="#647CBE"/>
<path d="M226.705 166.655C225.587 170.579 224.233 174.431 222.649 178.191H222.647C221.143 181.766 219.433 185.25 217.524 188.626C216.16 191.046 214.696 193.407 213.13 195.71C212.894 196.055 212.657 196.401 212.42 196.747C210.72 199.219 208.961 201.777 208.12 204.646C207.652 206.292 207.468 208.006 207.575 209.714C207.575 209.724 207.578 209.734 207.583 209.743C207.587 209.754 207.593 209.763 207.601 209.771C207.609 209.778 207.619 209.784 207.629 209.788C207.639 209.793 207.65 209.794 207.661 209.794C207.673 209.794 207.684 209.792 207.694 209.787C210.466 208.559 213.183 207.228 215.847 205.795C215.859 205.788 215.874 205.784 215.888 205.784C215.903 205.784 215.917 205.788 215.93 205.795C215.939 205.8 215.948 205.808 215.954 205.817C215.961 205.826 215.965 205.836 215.968 205.847C215.97 205.858 215.97 205.869 215.968 205.88C215.966 205.89 215.962 205.901 215.956 205.91C215.738 206.263 215.515 206.618 215.289 206.973C215.279 206.984 215.269 206.994 215.258 207.003C212.783 208.307 210.266 209.521 207.708 210.644C207.691 210.652 207.678 210.664 207.669 210.68C207.66 210.695 207.656 210.714 207.658 210.731C207.879 212.575 208.349 214.38 209.055 216.097C209.06 216.108 209.062 216.121 209.061 216.133C209.06 216.146 209.057 216.158 209.051 216.169C209.051 216.17 209.051 216.171 209.05 216.173C209.049 216.174 209.048 216.175 209.047 216.176C208.904 216.373 208.759 216.569 208.614 216.764C208.606 216.776 208.594 216.786 208.581 216.791C208.56 216.8 208.537 216.8 208.516 216.792C208.496 216.784 208.479 216.768 208.47 216.748C207.695 214.947 207.169 213.05 206.908 211.107C206.908 211.1 206.906 211.092 206.902 211.086C206.898 211.076 206.892 211.067 206.884 211.059C206.876 211.051 206.867 211.045 206.857 211.041C206.847 211.037 206.837 211.035 206.826 211.035C206.815 211.035 206.805 211.038 206.795 211.042C198.601 214.568 190.034 217.155 181.258 218.754C180.833 218.829 180.409 218.907 179.982 218.981C176.204 219.647 172.297 220.336 169.115 222.411C164.491 225.427 162.194 230.761 159.971 235.92C159.074 238.003 158.146 240.158 157.073 242.148C153.618 248.557 148.316 253.738 143.187 258.748C139.094 262.748 134.861 266.886 131.591 271.622C129.284 274.967 127.413 278.681 125.603 282.269C123.674 286.094 121.682 290.051 119.144 293.599C117.758 295.53 116.159 297.298 114.376 298.871C114.106 298.756 113.838 298.641 113.57 298.524C115.42 296.93 117.073 295.122 118.496 293.138C120.998 289.638 122.978 285.71 124.891 281.912C126.713 278.298 128.598 274.562 130.937 271.171C134.249 266.371 138.511 262.206 142.63 258.18C147.716 253.212 152.974 248.073 156.371 241.771C157.427 239.813 158.347 237.673 159.238 235.606C161.508 230.338 163.855 224.891 168.677 221.746C171.997 219.581 175.985 218.879 179.84 218.198C180.267 218.124 180.691 218.049 181.112 217.972C189.928 216.366 198.532 213.757 206.754 210.194C206.77 210.188 206.783 210.176 206.792 210.161C206.801 210.147 206.805 210.13 206.804 210.113C206.644 208.198 206.832 206.27 207.359 204.423C208.236 201.432 210.03 198.821 211.764 196.299C212.002 195.953 212.238 195.607 212.473 195.262C213.764 193.359 214.989 191.416 216.146 189.432C217.673 186.815 219.078 184.134 220.36 181.388C220.737 180.581 221.103 179.768 221.457 178.951C223.226 174.883 224.723 170.702 225.938 166.435C225.941 166.425 225.946 166.415 225.953 166.406C225.96 166.398 225.969 166.39 225.978 166.385C225.988 166.38 225.999 166.377 226.009 166.376C226.02 166.375 226.031 166.376 226.042 166.38L226.645 166.55C226.656 166.553 226.666 166.558 226.675 166.565C226.684 166.572 226.691 166.58 226.697 166.59C226.702 166.6 226.706 166.61 226.708 166.622C226.709 166.633 226.708 166.644 226.705 166.655Z" fill="#CAD4EF"/>
<path d="M185.163 198.799C186.304 198.903 187.509 198.984 188.739 198.984C191.055 199.042 193.359 198.639 195.517 197.799C198.374 196.603 200.724 194.38 202.796 192.418L208.044 187.452C209.338 186.227 210.805 184.839 211.556 183.032C212.266 181.326 212.259 179.415 212.257 177.73C212.248 174.027 212.234 169.852 210.953 166.064C210.949 166.053 210.944 166.044 210.937 166.035C210.929 166.027 210.921 166.02 210.911 166.015C210.901 166.01 210.89 166.007 210.879 166.007C210.868 166.006 210.857 166.007 210.847 166.011C210.828 166.017 210.812 166.03 210.802 166.048C210.669 166.27 210.525 166.501 210.37 166.74C210.364 166.751 210.36 166.762 210.358 166.774C210.356 166.786 210.357 166.798 210.361 166.809C211.443 170.325 211.454 174.086 211.463 177.735C211.467 179.345 211.471 181.17 210.823 182.73C210.136 184.381 208.734 185.708 207.497 186.878L202.25 191.844C200.127 193.852 197.933 195.929 195.21 197.07C192.012 198.409 188.373 198.297 185.235 198.011C184.565 197.95 183.862 197.875 183.155 197.757C183.142 197.755 183.128 197.756 183.115 197.761C183.102 197.765 183.091 197.772 183.081 197.782L182.554 198.325C182.539 198.341 182.531 198.363 182.531 198.385C182.532 198.407 182.541 198.428 182.557 198.444C182.569 198.455 182.584 198.462 182.6 198.465C183.472 198.63 184.342 198.724 185.163 198.799ZM109.836 276.738C109.836 276.752 109.84 276.766 109.847 276.779C109.853 276.791 109.863 276.802 109.875 276.809C109.887 276.817 109.901 276.821 109.915 276.822C109.93 276.823 109.944 276.82 109.957 276.814C114.147 274.806 117.694 271.669 120.199 267.756C121.045 266.412 121.767 264.978 122.466 263.588C123.24 261.966 124.116 260.395 125.089 258.884C128 254.58 132.536 251.421 136.538 248.634L146.199 241.908C148.965 239.982 152.407 237.586 154.024 234.056C156.004 229.735 154.761 224.858 152.307 221.019C152.294 221 152.275 220.987 152.253 220.983C152.231 220.978 152.208 220.982 152.19 220.994C152.176 221.003 152.165 221.016 152.159 221.031L151.72 221.364C151.707 221.368 151.696 221.374 151.686 221.383C151.676 221.391 151.668 221.402 151.664 221.414C151.659 221.427 151.657 221.44 151.658 221.453C151.659 221.466 151.664 221.478 151.671 221.489C153.981 225.119 155.15 229.693 153.303 233.724C151.775 237.057 148.432 239.384 145.747 241.254L136.086 247.98C132.026 250.807 127.426 254.01 124.433 258.437C123.44 259.976 122.546 261.576 121.758 263.229C121.067 264.599 120.354 266.02 119.528 267.331C117.159 271.035 113.824 274.021 109.883 275.968C109.869 275.975 109.857 275.986 109.849 275.999C109.841 276.012 109.837 276.027 109.837 276.042L109.836 276.738ZM160.085 184.262C162.867 186.981 166.566 188.318 170.198 189.55C170.215 189.555 170.233 189.555 170.249 189.55C170.266 189.545 170.281 189.535 170.291 189.521C170.302 189.507 170.308 189.49 170.308 189.472C170.309 189.455 170.304 189.437 170.294 189.423C170.096 189.13 169.901 188.843 169.707 188.561L169.666 188.53C166.274 187.362 163.11 186.11 160.639 183.695C157.235 180.369 156.022 175.728 155.653 170.732C155.652 170.71 155.642 170.69 155.626 170.676C155.61 170.662 155.589 170.654 155.567 170.655C155.354 170.664 155.146 170.668 154.941 170.668C154.93 170.668 154.919 170.67 154.909 170.675C154.899 170.679 154.89 170.685 154.882 170.693C154.875 170.7 154.869 170.71 154.864 170.72C154.86 170.73 154.858 170.741 154.858 170.751V170.757C155.234 175.93 156.497 180.756 160.085 184.262ZM139.56 182.324C141.791 182.188 144.02 182.087 146.249 182.021L146.288 182.029C149.48 183.579 151.854 185.855 153.031 188.53C154.04 190.821 154.197 193.437 154.265 195.709C154.279 196.189 154.289 196.67 154.296 197.152L154.307 197.189C154.528 197.554 154.739 197.924 154.942 198.3C154.951 198.316 154.965 198.329 154.982 198.336C154.999 198.344 155.018 198.345 155.036 198.341C155.054 198.336 155.07 198.326 155.081 198.311C155.092 198.297 155.099 198.279 155.099 198.26C155.097 197.4 155.084 196.542 155.059 195.684C154.989 193.337 154.826 190.63 153.759 188.208C152.699 185.8 150.743 183.704 148.133 182.127C148.118 182.118 148.106 182.104 148.099 182.087C148.092 182.07 148.091 182.052 148.095 182.035C148.1 182.017 148.11 182.002 148.124 181.99C148.138 181.979 148.155 181.973 148.173 181.972C148.714 181.962 149.256 181.953 149.796 181.946C151.089 181.93 152.237 181.96 153.194 182.477C154.192 183.016 154.874 184.048 155.486 185.058C158.432 189.92 160.725 195.148 162.304 200.609C162.902 202.676 163.358 205.024 162.205 206.761C161.486 207.844 160.231 208.505 159.124 209.089L158.936 209.188C158.94 209.204 158.946 209.221 158.95 209.237C158.975 209.319 158.998 209.401 159.019 209.484L159.588 209.741C160.704 209.153 162.059 208.417 162.866 207.201C164.2 205.194 163.718 202.631 163.068 200.389C161.469 194.861 159.148 189.569 156.166 184.648C155.497 183.545 154.746 182.414 153.573 181.78C152.449 181.173 151.192 181.137 149.789 181.153C148.681 181.167 147.571 181.189 146.46 181.22L146.423 181.212C146.117 181.068 145.808 180.928 145.489 180.797C142.474 179.562 139.255 179.018 136.088 178.578L136.014 178.718C136.239 178.962 136.466 179.205 136.694 179.447L136.743 179.473C139.259 179.786 141.739 180.343 144.148 181.136C144.166 181.143 144.181 181.156 144.19 181.172C144.2 181.189 144.204 181.208 144.201 181.227C144.198 181.246 144.188 181.264 144.174 181.277C144.16 181.29 144.142 181.297 144.123 181.298C142.4 181.365 140.676 181.454 138.953 181.564C138.942 181.565 138.931 181.568 138.921 181.573C138.911 181.578 138.902 181.585 138.895 181.593C138.888 181.601 138.882 181.611 138.879 181.622C138.875 181.632 138.874 181.643 138.874 181.654C138.876 181.675 138.885 181.694 138.899 181.708C139.098 181.905 139.298 182.103 139.498 182.3C139.506 182.308 139.516 182.314 139.526 182.318C139.537 182.322 139.548 182.324 139.56 182.324Z" fill="#CAD4EF"/>
<path d="M285.177 147.511C285.177 150.736 283.566 153.747 280.774 156.305C275.532 161.109 266.125 164.311 255.39 164.311H255.373C254.547 164.311 253.727 164.29 252.918 164.252C252.601 164.238 252.288 164.22 251.974 164.2C249.003 167.084 245.119 168.84 240.992 169.166C236.865 169.492 232.754 168.367 229.367 165.986C229.445 166.481 229.484 166.98 229.486 167.48C229.486 170.625 227.953 173.568 225.286 176.084C225.218 176.147 225.153 176.211 225.084 176.274H225.081V176.276C224.317 176.972 223.503 177.612 222.647 178.191H222.645C222.262 178.453 221.867 178.707 221.46 178.953C219.331 180.213 217.068 181.232 214.713 181.99C213.717 182.32 212.686 182.616 211.618 182.879C211.3 182.959 210.979 183.034 210.655 183.105C207.058 183.894 203.385 184.287 199.702 184.278C198.429 184.278 197.175 184.233 195.94 184.145C187.011 183.51 179.314 180.647 174.654 176.573L174.651 176.571V176.569C172.972 175.163 171.633 173.395 170.733 171.399C170.247 171.416 169.763 171.43 169.27 171.43C165.919 171.445 162.584 170.965 159.373 170.006C157.227 169.365 155.176 168.441 153.274 167.259C152.563 167.862 151.816 168.421 151.037 168.932C150.635 169.198 150.216 169.456 149.786 169.704C148.927 170.203 148.042 170.657 147.137 171.065C145.692 171.717 144.205 172.272 142.686 172.726C142.436 172.8 142.184 172.873 141.93 172.946C138.829 173.795 135.647 174.317 132.437 174.504C131.481 174.561 130.523 174.588 129.562 174.583C127.378 174.585 125.195 174.439 123.03 174.147C119.831 173.703 116.855 172.258 114.529 170.018C112.202 167.777 110.645 164.858 110.081 161.678C125.701 160.237 139.916 162.577 144.023 163.331C158.32 165.954 171.274 171.613 192.775 169.194C194.502 169 200.423 168.287 211.22 165.321C211.454 165.257 211.69 165.192 211.93 165.124C212.97 164.835 213.985 164.544 214.976 164.251C245.61 155.225 252.731 145.296 270.839 140.691C272.098 140.371 273.398 140.08 274.736 139.818C276.73 139.431 278.806 139.111 280.943 138.871C283.63 141.396 285.177 144.35 285.177 147.511ZM177.706 313.987C129.391 309.95 72.8407 289.246 59.1555 246.202C58.7765 245.008 58.428 243.791 58.11 242.553C55.9208 233.758 55.2364 224.655 56.0859 215.631C57.1471 215.668 58.1726 216.024 59.0285 216.653C59.9595 217.302 61.0855 217.611 62.2174 217.528C64.4159 217.363 66.6163 216.269 68.787 216.486C73.0351 216.907 75.5277 223.33 73.1822 227.816C76.3607 224.703 81.4166 226.054 83.3729 229.931C85.3292 233.809 84.5177 239.249 82.1366 243.226C86.8829 240.654 92.544 246.42 91.0103 252.263C94.9548 247.374 102.582 248.374 104.803 254.077C104.808 254.06 104.814 254.04 104.818 254.022C105.66 251.357 108.818 251.024 109.731 253.482C110.789 256.37 111.418 259.397 111.598 262.467C112.833 258.25 116.775 255.177 120.406 255.6C124.037 256.023 126.92 259.891 126.851 264.243C134.309 261.417 142.326 269.505 141.012 278.531C147.094 280.92 152.497 284.766 156.747 289.73C158.598 291.867 160.142 295.833 157.921 297.869C161.917 301.492 167.092 302.967 171.454 305.99C174.309 307.951 176.492 310.743 177.706 313.987Z" fill="#CAD4EF"/>
<path d="M152.744 150.935C140.282 148.251 127.084 143.091 120.949 131.917C118.746 127.904 117.635 123 119.255 118.718C121.429 112.968 127.839 109.931 133.921 109.046C141.535 107.959 149.297 109.32 156.086 112.931C165.323 117.876 172.729 126.951 183.103 128.413C191.038 129.53 198.742 125.861 206.386 123.453C214.029 121.045 223.379 120.234 229.126 125.82C230.5 127.156 230.729 128.931 230.862 129.656C231.983 135.767 225.93 141.375 223.741 143.403C220.753 146.171 213.815 151.4 192.098 153.152C180.412 154.093 168.496 154.327 152.744 150.935Z" fill="#E6EDFA"/>
<path d="M104.968 198.581H32.0496C30.8093 196.43 30.3003 193.934 30.599 191.469C30.8977 189.004 31.9879 186.702 33.7061 184.909C35.4244 183.116 37.6778 181.929 40.1281 181.526C42.5784 181.122 45.0934 181.525 47.2955 182.673C47.4987 180.113 48.2582 177.628 49.5208 175.391C50.7835 173.155 52.519 171.221 54.6061 169.725C56.6932 168.228 59.0818 167.205 61.6051 166.727C64.1283 166.249 66.7256 166.327 69.2155 166.956C71.7054 167.585 74.0281 168.75 76.0213 170.37C78.0146 171.989 79.6305 174.024 80.7562 176.332C81.882 178.641 82.4904 181.167 82.5392 183.734C82.5879 186.302 82.0758 188.85 81.0385 191.199C89.0059 193.726 96.82 196.819 104.968 198.581ZM273.46 126.857H312.701C313.368 125.7 313.642 124.357 313.481 123.03C313.32 121.704 312.733 120.465 311.809 119.5C310.884 118.536 309.672 117.897 308.353 117.68C307.035 117.462 305.681 117.679 304.496 118.296C304.387 116.919 303.978 115.582 303.298 114.379C302.619 113.175 301.685 112.135 300.562 111.33C299.438 110.525 298.153 109.975 296.796 109.717C295.438 109.46 294.04 109.502 292.701 109.841C291.361 110.179 290.111 110.806 289.039 111.677C287.966 112.549 287.096 113.644 286.491 114.886C285.885 116.128 285.557 117.487 285.531 118.868C285.504 120.25 285.78 121.621 286.338 122.885C282.05 124.245 277.846 125.909 273.46 126.857ZM268.901 188.956H368.391C370.083 186.021 370.777 182.616 370.369 179.253C369.961 175.89 368.474 172.75 366.13 170.304C363.785 167.858 360.711 166.238 357.368 165.688C354.025 165.138 350.594 165.687 347.59 167.253C347.313 163.759 346.277 160.368 344.555 157.317C342.832 154.265 340.464 151.626 337.617 149.584C334.769 147.541 331.51 146.145 328.067 145.493C324.624 144.84 321.08 144.947 317.682 145.806C314.284 146.664 311.115 148.254 308.395 150.464C305.676 152.673 303.471 155.45 301.935 158.6C300.399 161.75 299.57 165.197 299.504 168.701C299.438 172.205 300.137 175.68 301.553 178.886C290.681 182.333 280.018 186.552 268.901 188.956Z" fill="#D8DFF3"/>
<path d="M349.587 228.72C347.979 233.54 345.919 238.198 343.435 242.631H58.1314L58.1092 242.553C57.4783 240.082 56.9764 237.58 56.6055 235.057C56.2944 232.976 56.0685 230.857 55.9277 228.72H349.587Z" fill="#589FAD"/>
<path d="M309.212 276.905C308.646 276.039 308.061 275.2 307.457 274.39C306.853 273.58 306.105 272.59 305.212 271.42L283.69 242.631L273.294 228.72L273.09 228.45C270.991 225.624 269.264 223.573 267.909 222.298C266.914 221.342 265.652 220.711 264.29 220.49C263.874 220.423 263.453 220.389 263.031 220.39C257.572 220.39 254.54 223.167 253.935 228.72C253.852 229.455 253.813 230.195 253.816 230.935V277.846H251.212C248.101 277.846 245.606 278.271 243.727 279.12C241.848 279.969 240.909 281.827 240.909 284.694C240.909 287.04 241.677 288.747 243.212 289.816C244.748 290.885 247.051 291.42 250.12 291.42H253.816V302.694C253.809 303.685 253.893 304.674 254.068 305.65C255.012 305.364 255.956 305.072 256.898 304.772C260.964 303.476 264.988 302.058 268.968 300.52V291.42H289.161C289.287 291.357 289.409 291.29 289.531 291.227C291.09 290.413 292.633 289.576 294.161 288.716C294.864 288.327 295.561 287.931 296.257 287.524C296.368 287.461 296.483 287.398 296.594 287.331C299.909 285.401 303.129 283.378 306.253 281.261C306.69 280.972 307.127 280.672 307.561 280.372C307.938 280.109 308.316 279.846 308.69 279.583C309.175 279.239 309.661 278.894 310.138 278.55C309.869 277.98 309.559 277.431 309.212 276.905ZM268.968 277.846V242.63L271.931 246.633L295.031 277.844L268.968 277.846ZM152.675 279.12C150.794 278.272 148.299 277.847 145.19 277.846H142.583V230.935C142.586 230.195 142.547 229.455 142.464 228.72C141.927 223.776 139.464 221.032 135.075 220.49C134.51 220.422 133.941 220.389 133.372 220.39C131.557 220.358 129.802 221.043 128.49 222.298C127.138 223.572 125.411 225.622 123.309 228.45L123.105 228.72L112.709 242.631L91.1865 271.42C90.2976 272.594 89.5507 273.584 88.9458 274.39C88.3384 275.201 87.752 276.04 87.1865 276.905C86.6684 277.682 86.2421 278.516 85.9162 279.39C85.6392 280.137 85.495 280.927 85.4902 281.724C85.4902 281.887 85.4939 282.05 85.5013 282.213C86.0754 282.664 86.6532 283.105 87.2384 283.542C87.7643 283.935 88.2939 284.324 88.8273 284.709C89.5754 285.25 90.3347 285.783 91.1051 286.309C91.5013 286.579 91.9013 286.846 92.3013 287.109C94.4569 288.546 96.6779 289.919 98.9643 291.227C99.0717 291.29 99.1791 291.35 99.2865 291.409C99.2883 291.412 99.2909 291.415 99.2942 291.417C99.2975 291.419 99.3012 291.42 99.3051 291.42H127.431V302.694C127.431 303.083 127.442 303.461 127.468 303.827C127.798 303.939 128.124 304.05 128.453 304.157C128.709 304.242 128.964 304.324 129.216 304.409C129.353 304.453 129.49 304.498 129.631 304.542C129.927 304.639 130.224 304.731 130.524 304.824V304.827C131.035 304.987 131.55 305.146 132.064 305.301C135.22 306.268 138.403 307.16 141.612 307.976C142.261 306.59 142.584 304.83 142.583 302.694V291.42H146.279C149.349 291.42 151.653 290.885 153.19 289.816C154.727 288.747 155.495 287.04 155.494 284.694C155.494 281.827 154.554 279.969 152.675 279.12ZM101.372 277.846L127.431 242.631V277.846H101.372Z" fill="#589FAD"/>
<path d="M312.176 276.905C311.609 276.038 311.024 275.2 310.42 274.39C309.816 273.58 309.068 272.59 308.176 271.42L286.654 242.631L276.257 228.72L276.053 228.45C273.955 225.624 272.228 223.573 270.872 222.298C269.562 221.043 267.808 220.357 265.994 220.39C265.425 220.389 264.856 220.422 264.291 220.49C259.902 221.031 257.437 223.774 256.898 228.72C256.816 229.455 256.776 230.195 256.779 230.935V277.846H254.176C251.065 277.846 248.57 278.271 246.691 279.12C244.812 279.969 243.872 281.827 243.872 284.694C243.872 287.04 244.64 288.747 246.176 289.816C247.712 290.885 250.014 291.42 253.083 291.42H256.779V302.694C256.778 303.388 256.817 304.082 256.898 304.772C260.965 303.475 264.988 302.058 268.968 300.52C269.961 300.138 270.946 299.75 271.931 299.35V291.42H289.161C289.287 291.357 289.409 291.29 289.531 291.227C291.091 290.413 292.634 289.575 294.161 288.716C294.865 288.327 295.561 287.931 296.257 287.524C296.368 287.461 296.483 287.398 296.594 287.331C299.909 285.401 303.129 283.378 306.253 281.261C306.691 280.972 307.128 280.672 307.561 280.372C307.939 280.109 308.316 279.846 308.691 279.583C309.176 279.238 309.661 278.894 310.139 278.55C310.842 278.038 311.541 277.522 312.235 277.001C312.216 276.968 312.198 276.938 312.176 276.905ZM271.931 277.846V242.63L297.994 277.844L271.931 277.846ZM155.639 279.12C153.757 278.272 151.262 277.847 148.153 277.846H145.546V230.935C145.55 230.195 145.51 229.455 145.428 228.72C144.824 223.168 141.793 220.392 136.335 220.39C135.913 220.389 135.492 220.423 135.076 220.49C133.713 220.711 132.45 221.342 131.453 222.298C130.102 223.572 128.374 225.622 126.272 228.45L126.068 228.72L115.672 242.631L94.1498 271.42C93.2609 272.594 92.514 273.584 91.9091 274.39C91.3017 275.201 90.7152 276.04 90.1498 276.905C89.6317 277.682 89.2054 278.516 88.8794 279.39C88.6024 280.137 88.4583 280.927 88.4535 281.724C88.4453 282.731 88.5711 283.735 88.8276 284.709C89.5757 285.25 90.335 285.783 91.1054 286.309C91.5017 286.579 91.9016 286.846 92.3016 287.109C94.4572 288.546 96.6782 289.919 98.9646 291.227C99.072 291.29 99.1794 291.35 99.2868 291.409C99.5091 291.416 99.7387 291.42 99.9683 291.42H130.394V302.694C130.392 303.406 130.435 304.117 130.524 304.824V304.827C131.035 304.987 131.55 305.146 132.065 305.301C135.22 306.268 138.403 307.159 141.613 307.975C142.283 308.146 142.95 308.313 143.62 308.475C143.824 308.524 144.028 308.575 144.231 308.62C145.109 307.153 145.547 305.178 145.546 302.694V291.42H149.242C152.313 291.42 154.616 290.885 156.153 289.816C157.691 288.747 158.458 287.04 158.457 284.694C158.457 281.827 157.518 279.969 155.639 279.12ZM130.394 277.846H104.335L127.431 246.635L130.394 242.631V277.846Z" fill="#77BBCB"/>
<path d="M72.9536 225.598V270.394C67.0684 263.613 62.4721 255.987 59.5684 247.468C59.4277 247.05 59.287 246.627 59.1536 246.205C58.7832 245.035 58.4388 243.846 58.1314 242.631L58.1092 242.553C57.4783 240.082 56.9764 237.58 56.6055 235.057V225.598C56.6054 224.524 56.8168 223.461 57.2276 222.47C57.6384 221.478 58.2405 220.577 58.9995 219.818C59.7585 219.059 60.6597 218.457 61.6514 218.046C62.6431 217.635 63.7061 217.424 64.7795 217.424C65.2766 217.422 65.7727 217.468 66.261 217.561C68.141 217.905 69.8406 218.898 71.0636 220.367C72.2866 221.835 72.9555 223.687 72.9536 225.598ZM336.761 225.598V252.887C332.754 258.217 328.275 263.177 323.38 267.705C322.409 268.609 321.422 269.5 320.417 270.379V225.598C320.417 224.524 320.628 223.461 321.039 222.47C321.449 221.478 322.052 220.577 322.811 219.818C323.57 219.059 324.471 218.457 325.463 218.046C326.454 217.635 327.517 217.424 328.591 217.424C329.088 217.422 329.584 217.468 330.072 217.561C331.951 217.906 333.65 218.899 334.872 220.368C336.094 221.837 336.763 223.687 336.761 225.598Z" fill="#589FAD"/>
<path d="M75.9165 225.598V273.627C74.8943 272.572 73.9066 271.494 72.9536 270.394C67.0684 263.613 62.4721 255.987 59.5684 247.468V225.598C59.568 223.687 60.2374 221.837 61.4602 220.368C62.6829 218.9 64.3817 217.906 66.261 217.561C66.7493 217.468 67.2454 217.422 67.7424 217.424C68.8161 217.423 69.8793 217.634 70.8713 218.045C71.8634 218.455 72.7647 219.057 73.5239 219.816C74.2831 220.576 74.8851 221.477 75.2957 222.469C75.7062 223.461 75.9172 224.524 75.9165 225.598ZM339.724 225.598V248.694C338.78 250.113 337.792 251.51 336.761 252.887C332.754 258.217 328.275 263.177 323.379 267.705V225.598C323.379 223.687 324.049 221.837 325.271 220.368C326.494 218.9 328.193 217.906 330.072 217.561C330.56 217.468 331.057 217.422 331.554 217.424C332.627 217.424 333.69 217.635 334.681 218.046C335.673 218.456 336.574 219.059 337.333 219.818C338.091 220.577 338.693 221.478 339.103 222.47C339.514 223.462 339.725 224.525 339.724 225.598Z" fill="#77BBCB"/>
<path d="M240.537 197.918L235.445 283.67H176.704L174.467 265.815L168.389 271.893C166.691 273.618 164.66 274.98 162.419 275.896C153.36 279.541 142.934 274.433 139.649 265.674C138.33 262.088 138.248 258.164 139.415 254.526L149.412 221.574C151.397 215.031 155.413 209.29 160.879 205.181C166.344 201.072 172.975 198.808 179.812 198.718L240.537 197.918Z" fill="#687ED4"/>
<path d="M200.267 165.931L198.484 165.621C196.864 165.339 195.198 165.712 193.853 166.658C192.507 167.605 191.593 169.046 191.311 170.667C191.279 170.852 191.255 171.039 191.24 171.227C191.128 172.599 191.566 173.96 192.458 175.009C193.349 176.059 194.621 176.711 195.993 176.823L199.406 177.1L197.816 196.656C197.714 197.904 197.859 199.16 198.243 200.352C198.627 201.544 199.242 202.648 200.053 203.603C200.863 204.557 201.854 205.342 202.969 205.914C204.083 206.485 205.299 206.831 206.547 206.933C207.905 207.044 209.272 206.861 210.554 206.399C211.837 205.937 213.005 205.205 213.981 204.253C214.956 203.3 215.716 202.15 216.21 200.879C216.703 199.609 216.918 198.247 216.84 196.886L216.581 192.344C216.581 192.344 229.322 192.99 223.182 163.531L205.555 157.564L200.267 165.931Z" fill="#FFC1C2"/>
<path d="M193.024 152.556C193.024 152.556 190.656 139.624 178.751 151.053C166.847 162.481 177.561 191.053 168.514 195.577C168.514 195.577 189.766 191.253 186.995 166.867L193.024 152.556Z" fill="#32477B"/>
<path d="M194.174 161.253C196.508 157.21 197.078 153.17 195.447 152.229C193.816 151.287 190.602 153.801 188.269 157.843C185.935 161.885 185.365 165.925 186.996 166.867C188.627 167.808 191.84 165.295 194.174 161.253Z" fill="#FEBCCC"/>
<path d="M223.779 166.63V166.633C223.662 166.779 223.512 166.893 223.341 166.968C223.17 167.043 222.984 167.076 222.798 167.063C219.227 166.804 217.835 163.589 217.835 163.589C212.293 169.759 205.11 170.82 201.916 170.97C201.508 170.991 201.107 170.856 200.795 170.592C200.483 170.328 200.284 169.955 200.237 169.55C200.171 168.902 200.019 168.267 199.784 167.661C199.502 166.943 198.975 166.35 198.296 165.986C197.617 165.622 196.83 165.511 196.077 165.674C194.878 165.94 193.784 166.557 192.936 167.446C192.088 168.335 191.523 169.456 191.313 170.667C191.279 170.852 191.253 171.041 191.238 171.226C191.227 171.367 191.22 171.507 191.22 171.648C191.22 172.953 191.711 174.209 192.596 175.168C193.481 176.127 194.694 176.717 195.994 176.822L197.635 176.956L195.495 179.952C193.714 179.111 191.686 175.926 190.061 172.599C186.666 165.645 191.116 155.621 198.573 151.654C205.727 147.847 213.272 150.88 214.527 151.408C224.027 151.619 226.005 164.116 223.779 166.63Z" fill="#32477B"/>
<path d="M238.572 189.146C238.572 189.146 236.23 174.071 230.169 173.454C224.109 172.837 223.275 180.265 223.275 180.265L224.501 190.242L238.572 189.146Z" fill="#FFC1C2"/>
<path d="M236.559 173.365C236.554 174.304 236.864 175.217 237.438 175.959C238.013 176.701 238.819 177.23 239.728 177.461L271.13 185.525C272.16 185.788 273.219 185.922 274.282 185.924H274.384C276.159 185.905 277.91 185.509 279.521 184.764C281.133 184.018 282.567 182.939 283.731 181.598C284.894 180.257 285.76 178.684 286.271 176.984C286.782 175.284 286.926 173.494 286.694 171.734C286.462 169.974 285.86 168.283 284.926 166.773C283.993 165.263 282.749 163.968 281.279 162.973C279.808 161.979 278.143 161.308 276.393 161.005C274.644 160.702 272.85 160.773 271.13 161.214L239.728 169.278C238.823 169.513 238.02 170.042 237.447 170.781C236.873 171.521 236.561 172.429 236.559 173.365Z" fill="#77BBCB"/>
<path d="M237.234 175.673C237.814 176.558 238.703 177.196 239.727 177.462L271.13 185.525C272.159 185.789 273.218 185.922 274.281 185.924H274.383L281.047 174.607L237.245 175.654L237.234 175.673Z" fill="#589FAD"/>
<path d="M274.156 185.929C281.046 185.929 286.631 180.344 286.631 173.454C286.631 166.564 281.046 160.979 274.156 160.979C267.267 160.979 261.682 166.564 261.682 173.454C261.682 180.344 267.267 185.929 274.156 185.929Z" fill="#9BCFDC"/>
<path d="M274.157 183.695C279.813 183.695 284.397 179.11 284.397 173.454C284.397 167.798 279.813 163.213 274.157 163.213C268.501 163.213 263.916 167.798 263.916 173.454C263.916 179.11 268.501 183.695 274.157 183.695Z" fill="#32477B"/>
<path d="M280.944 177.837C281.071 177.837 281.195 177.802 281.304 177.737C281.412 177.671 281.501 177.576 281.559 177.464C282.556 175.561 282.796 173.351 282.232 171.279C281.667 169.206 280.34 167.424 278.516 166.289C278.36 166.193 278.173 166.163 277.994 166.205C277.816 166.247 277.662 166.358 277.565 166.514C277.468 166.669 277.437 166.856 277.477 167.035C277.518 167.213 277.627 167.369 277.782 167.467C279.309 168.417 280.42 169.909 280.892 171.644C281.365 173.379 281.163 175.228 280.328 176.821C280.273 176.927 280.246 177.045 280.25 177.165C280.254 177.284 280.288 177.4 280.35 177.502C280.412 177.604 280.499 177.689 280.603 177.747C280.707 177.806 280.824 177.837 280.944 177.837ZM276.377 181.61C276.394 181.61 276.414 181.61 276.429 181.61C277.129 181.548 277.807 181.339 278.419 180.996C279.031 180.653 279.563 180.183 279.981 179.619C280.084 179.467 280.123 179.28 280.089 179.099C280.055 178.918 279.95 178.758 279.797 178.654C279.645 178.551 279.458 178.512 279.277 178.546C279.096 178.58 278.936 178.685 278.832 178.837C278.534 179.231 278.157 179.557 277.725 179.796C277.293 180.035 276.816 180.181 276.325 180.225C276.146 180.239 275.98 180.322 275.861 180.456C275.742 180.59 275.679 180.764 275.686 180.943C275.693 181.122 275.768 181.291 275.897 181.416C276.025 181.541 276.197 181.611 276.376 181.612L276.377 181.61Z" fill="white"/>
<path d="M205.045 173.365C205.041 174.304 205.35 175.217 205.925 175.959C206.499 176.701 207.305 177.23 208.215 177.461L239.616 185.525C240.645 185.788 241.704 185.922 242.767 185.924H242.869C244.644 185.905 246.395 185.509 248.007 184.764C249.618 184.018 251.053 182.939 252.216 181.598C253.379 180.257 254.245 178.684 254.756 176.984C255.267 175.284 255.411 173.494 255.179 171.734C254.948 169.974 254.345 168.283 253.411 166.773C252.478 165.263 251.235 163.968 249.764 162.973C248.293 161.979 246.628 161.308 244.878 161.005C243.129 160.702 241.335 160.773 239.616 161.214L208.215 169.278C207.309 169.513 206.507 170.042 205.933 170.781C205.36 171.521 205.047 172.429 205.045 173.365Z" fill="#77BBCB"/>
<path d="M205.723 175.673C206.302 176.558 207.191 177.196 208.216 177.462L239.617 185.525C240.646 185.789 241.705 185.922 242.768 185.924H242.87L249.534 174.607L205.732 175.654L205.723 175.673Z" fill="#589FAD"/>
<path d="M242.645 185.929C249.534 185.929 255.12 180.344 255.12 173.454C255.12 166.564 249.534 160.979 242.645 160.979C235.755 160.979 230.17 166.564 230.17 173.454C230.17 180.344 235.755 185.929 242.645 185.929Z" fill="#9BCFDC"/>
<path d="M242.643 183.695C248.299 183.695 252.884 179.11 252.884 173.454C252.884 167.798 248.299 163.213 242.643 163.213C236.987 163.213 232.402 167.798 232.402 173.454C232.402 179.11 236.987 183.695 242.643 183.695Z" fill="#32477B"/>
<path d="M249.433 177.837C249.56 177.837 249.685 177.802 249.793 177.737C249.902 177.671 249.99 177.576 250.049 177.464C251.045 175.561 251.285 173.351 250.721 171.279C250.157 169.206 248.83 167.424 247.006 166.289C246.929 166.239 246.842 166.206 246.752 166.19C246.661 166.175 246.569 166.177 246.479 166.197C246.39 166.218 246.305 166.255 246.231 166.309C246.156 166.362 246.092 166.429 246.044 166.507C245.995 166.585 245.963 166.672 245.948 166.762C245.933 166.853 245.936 166.945 245.957 167.034C245.979 167.124 246.017 167.208 246.071 167.282C246.125 167.356 246.193 167.419 246.271 167.467C247.798 168.417 248.909 169.909 249.381 171.644C249.854 173.379 249.653 175.228 248.818 176.821C248.763 176.927 248.736 177.045 248.74 177.164C248.743 177.284 248.778 177.4 248.84 177.502C248.901 177.604 248.988 177.689 249.092 177.747C249.196 177.806 249.314 177.837 249.433 177.837ZM244.865 181.61C244.883 181.61 244.902 181.61 244.918 181.61C245.617 181.548 246.295 181.339 246.907 180.996C247.519 180.653 248.052 180.183 248.469 179.619C248.52 179.544 248.556 179.459 248.575 179.37C248.593 179.281 248.594 179.188 248.577 179.099C248.56 179.009 248.526 178.924 248.476 178.848C248.426 178.771 248.361 178.706 248.286 178.654C248.21 178.603 248.126 178.567 248.036 178.548C247.947 178.53 247.855 178.529 247.765 178.546C247.676 178.563 247.59 178.597 247.514 178.647C247.438 178.697 247.372 178.762 247.321 178.837C247.022 179.231 246.645 179.557 246.213 179.796C245.782 180.035 245.305 180.181 244.813 180.225C244.634 180.239 244.468 180.322 244.349 180.456C244.23 180.59 244.168 180.764 244.174 180.943C244.181 181.122 244.256 181.291 244.385 181.416C244.513 181.541 244.685 181.611 244.864 181.612L244.865 181.61Z" fill="white"/>
<path d="M211.217 178.534L206.268 189.376L190.605 188.993C190.605 188.993 200.702 164.082 216.846 167.064C216.846 167.064 208.917 170.897 211.217 178.534Z" fill="#FFC1C2"/>
<path d="M211.217 178.534L206.268 189.376L190.605 188.993L200.81 187.543C202.32 187.329 203.752 186.742 204.978 185.836C206.204 184.93 207.185 183.732 207.832 182.352C208.8 180.242 209.401 177.983 209.61 175.671C210.329 168.443 216.845 167.064 216.845 167.064C216.845 167.064 208.917 170.897 211.217 178.534Z" fill="#EE9C9E"/>
<path d="M207.136 191.107L205.517 194.807L200.204 206.967L180.289 206.467L186.244 193.896L187.652 190.926C187.924 190.35 188.357 189.866 188.898 189.53C189.44 189.195 190.066 189.024 190.703 189.037L206.029 189.37C206.233 189.375 206.432 189.43 206.61 189.53C206.787 189.63 206.937 189.772 207.046 189.944C207.156 190.115 207.221 190.311 207.237 190.514C207.252 190.717 207.218 190.921 207.136 191.107Z" fill="#687ED4"/>
<path d="M193.158 172.259C193.134 172.166 192.596 169.981 193.854 168.601C194.689 167.686 196.073 167.376 197.965 167.678L197.813 168.632C196.264 168.384 195.174 168.592 194.57 169.249C193.661 170.24 194.089 172.004 194.094 172.022L193.158 172.259ZM216.581 192.344C216.581 192.344 210.074 192.79 207.247 191.585C209.727 194.432 213.12 196.327 216.845 196.946L216.581 192.344ZM217.593 185.618L217.835 184.783C215.694 184.163 213.49 183.784 211.265 183.654L211.215 184.522C213.375 184.648 215.514 185.016 217.593 185.618ZM198 177.24L197.268 176.673C203.334 168.833 210.132 165.351 216.929 166.609L216.761 167.519C208.63 166.017 202.072 171.976 198 177.24Z" fill="#EE9C9E"/>
<path d="M196.113 216.312L180.264 265.022C179.739 266.639 179.598 268.355 179.854 270.036C180.219 272.435 181.374 274.645 183.137 276.313C184.9 277.982 187.17 279.015 189.586 279.248L235.444 283.671H176.7L174.465 265.815L196.113 216.312Z" fill="#4863C9"/>
<path d="M183.566 198.463L156.881 254.803L157.718 255.2L184.403 198.859L183.566 198.463Z" fill="#4863C9"/>
<path d="M200.758 204.541L174.041 265.629L174.89 266.001L201.606 204.913L200.758 204.541Z" fill="#4863C9"/>
<path d="M258.006 268.256C257.331 270.781 255.81 272.999 253.697 274.538C251.584 276.077 249.007 276.844 246.396 276.712C243.785 276.58 241.298 275.556 239.352 273.811C237.405 272.066 236.115 269.707 235.699 267.126L224.151 195.748L223.517 191.83C223.487 191.641 223.496 191.447 223.545 191.262C223.594 191.077 223.68 190.904 223.799 190.754C223.919 190.604 224.068 190.481 224.237 190.392C224.407 190.303 224.593 190.25 224.784 190.237L242.214 189.078C242.569 189.054 242.921 189.161 243.204 189.377C243.487 189.594 243.681 189.906 243.751 190.256L244.691 195.011L258.177 263.085C258.519 264.799 258.46 266.568 258.006 268.256Z" fill="#687ED4"/>
<path d="M207.135 191.107L205.516 194.807L186.242 193.896L187.65 190.926C187.922 190.35 188.355 189.866 188.896 189.53C189.438 189.195 190.065 189.024 190.701 189.037L206.028 189.37C206.231 189.375 206.431 189.429 206.608 189.529C206.786 189.629 206.936 189.771 207.045 189.943C207.155 190.115 207.221 190.311 207.236 190.514C207.252 190.717 207.217 190.921 207.135 191.107ZM244.691 195.011L224.15 195.748L223.517 191.83C223.486 191.641 223.496 191.447 223.544 191.262C223.593 191.077 223.68 190.904 223.799 190.754C223.918 190.604 224.067 190.481 224.237 190.392C224.406 190.303 224.592 190.25 224.784 190.237L242.213 189.078C242.569 189.054 242.921 189.161 243.203 189.377C243.486 189.594 243.681 189.906 243.75 190.256L244.691 195.011ZM162.417 275.896C153.358 279.541 142.932 274.433 139.646 265.674C141.789 264.643 144.13 264.092 146.507 264.061C148.884 264.029 151.24 264.517 153.408 265.491C155.577 266.464 157.507 267.9 159.063 269.697C160.619 271.495 161.764 273.61 162.417 275.896ZM258.006 268.256C257.508 270.121 256.546 271.829 255.209 273.221C253.872 274.614 252.203 275.644 250.36 276.216C248.517 276.789 246.558 276.884 244.668 276.494C242.777 276.104 241.016 275.241 239.55 273.985C241.616 271.19 244.52 269.128 247.839 268.097C251.159 267.067 254.72 267.122 258.006 268.256Z" fill="white"/>
<path d="M224.955 197.737L224.041 197.886L235.499 268.241L236.413 268.092L224.955 197.737Z" fill="#4863C9"/>
<path d="M226.436 182.14L225.366 185.678C225.203 186.202 225.121 186.747 225.121 187.296C225.121 187.586 225.232 187.865 225.433 188.075C225.633 188.285 225.907 188.409 226.197 188.423L238.572 189.146L224.501 190.242L223.41 181.363L226.436 182.14Z" fill="#EE9C9E"/>
<path d="M243.764 308.507C239.919 309.474 236.07 310.33 232.216 311.074C222.235 313.029 212.119 314.211 201.956 314.607C193.868 314.885 185.771 314.677 177.708 313.985C174.367 313.704 170.993 313.343 167.586 312.904C167.693 293.17 176.701 283.67 176.701 283.67H235.445C238.16 289.704 241.275 299.741 243.764 308.507Z" fill="#32477B"/>
<path d="M176.699 283.67L238.571 291.749L235.444 283.67H176.699Z" fill="#1F315F"/>
<path d="M192.5 242.35C193.304 225.58 200.278 217.111 210.574 217.604C220.871 218.098 227 227.242 226.198 243.965C225.394 260.735 218.402 269.61 208.106 269.117C197.81 268.624 191.696 259.121 192.5 242.35ZM217.617 243.554C218.29 229.514 215.04 224.887 210.235 224.656C205.43 224.424 201.754 228.721 201.08 242.762C200.407 256.802 203.638 261.836 208.443 262.065C213.247 262.295 216.945 257.594 217.616 243.555L217.617 243.554Z" fill="white"/>
</svg>
