<svg width="24" height="24" viewBox="0 0 24 24" fill="none" xmlns="http://www.w3.org/2000/svg">
<path d="M20.1609 9H3.83905C3.00936 9 2.96718 9.43125 3.01405 9.96094L3.62343 18.5391C3.66561 19.0641 3.78749 19.5 4.61249 19.5H19.4344C20.2781 19.5 20.3766 19.0688 20.4234 18.5391L20.9906 9.85312C21.0328 9.32812 20.9906 9 20.1609 9Z" fill="#9CA3AF"/>
<path d="M19.9781 6.71721C19.9547 6.13596 19.7672 6.00002 19.2703 6.00002C19.2703 6.00002 13.5797 6.00002 12.5578 6.00002C11.5359 6.00002 11.4141 6.01408 10.6406 5.18439C9.99843 4.49064 10.2516 4.50002 8.92499 4.50002C7.86561 4.50002 5.3953 4.50002 5.3953 4.50002C4.57968 4.50002 4.28905 4.4297 4.21405 5.27814C4.14374 6.06096 3.97968 7.95939 3.95624 8.25002H20.0531L19.9781 6.71721Z" fill="#8D94A2"/>
</svg>
