<svg width="24" height="25" viewBox="0 0 24 25" fill="none" xmlns="http://www.w3.org/2000/svg">
<path d="M10.6264 6.50061H3.37235C3.00361 6.50061 2.98486 6.69227 3.00569 6.92769L3.27652 10.7401C3.29527 10.9735 3.34943 11.1672 3.71609 11.1672H10.3035C10.6785 11.1672 10.7222 10.9755 10.7431 10.7401L10.9951 6.87977C11.0139 6.64644 10.9951 6.50061 10.6264 6.50061Z" fill="#9CA3AF"/>
<path d="M10.546 5.48603C10.5356 5.2277 10.4522 5.16729 10.2314 5.16729C10.2314 5.16729 7.70228 5.16729 7.24812 5.16729C6.79396 5.16729 6.73979 5.17354 6.39605 4.80479C6.11064 4.49647 6.22313 4.50063 5.63356 4.50063C5.16273 4.50063 4.06484 4.50063 4.06484 4.50063C3.70234 4.50063 3.57318 4.46938 3.53984 4.84646C3.50859 5.19437 3.43568 6.03811 3.42526 6.16727H10.5793L10.546 5.48603Z" fill="#8D94A1"/>
<path d="M10.6264 16.5006H3.37235C3.00361 16.5006 2.98486 16.6923 3.00569 16.9277L3.27652 20.7401C3.29527 20.9735 3.34943 21.1672 3.71609 21.1672H10.3035C10.6785 21.1672 10.7222 20.9755 10.7431 20.7401L10.9951 16.8798C11.0139 16.6464 10.9951 16.5006 10.6264 16.5006Z" fill="#9CA3AF"/>
<path d="M10.546 15.486C10.5356 15.2277 10.4522 15.1673 10.2314 15.1673C10.2314 15.1673 7.70228 15.1673 7.24812 15.1673C6.79396 15.1673 6.73979 15.1735 6.39605 14.8048C6.11064 14.4965 6.22313 14.5006 5.63356 14.5006C5.16273 14.5006 4.06484 14.5006 4.06484 14.5006C3.70234 14.5006 3.57318 14.4694 3.53984 14.8465C3.50859 15.1944 3.43568 16.0381 3.42526 16.1673H10.5793L10.546 15.486Z" fill="#8D94A1"/>
<path d="M20.6264 16.5006H13.3723C13.0036 16.5006 12.9849 16.6923 13.0057 16.9277L13.2765 20.7401C13.2953 20.9735 13.3494 21.1672 13.7161 21.1672H20.3035C20.6785 21.1672 20.7222 20.9755 20.7431 20.7401L20.9951 16.8798C21.0139 16.6464 20.9951 16.5006 20.6264 16.5006Z" fill="#9CA3AF"/>
<path d="M20.546 15.486C20.5356 15.2277 20.4523 15.1673 20.2314 15.1673C20.2314 15.1673 17.7023 15.1673 17.2481 15.1673C16.794 15.1673 16.7398 15.1735 16.3961 14.8048C16.1107 14.4965 16.2232 14.5006 15.6336 14.5006C15.1628 14.5006 14.0649 14.5006 14.0649 14.5006C13.7024 14.5006 13.5732 14.4694 13.5399 14.8465C13.5086 15.1944 13.4357 16.0381 13.4253 16.1673H20.5793L20.546 15.486Z" fill="#8D94A1"/>
<path d="M20.6264 6.50061H13.3723C13.0036 6.50061 12.9849 6.69227 13.0057 6.92769L13.2765 10.7401C13.2953 10.9735 13.3494 11.1672 13.7161 11.1672H20.3035C20.6785 11.1672 20.7222 10.9755 20.7431 10.7401L20.9951 6.87977C21.0139 6.64644 20.9951 6.50061 20.6264 6.50061Z" fill="#9CA3AF"/>
<path d="M20.546 5.48603C20.5356 5.2277 20.4523 5.16729 20.2314 5.16729C20.2314 5.16729 17.7023 5.16729 17.2481 5.16729C16.794 5.16729 16.7398 5.17354 16.3961 4.80479C16.1107 4.49647 16.2232 4.50063 15.6336 4.50063C15.1628 4.50063 14.0649 4.50063 14.0649 4.50063C13.7024 4.50063 13.5732 4.46938 13.5399 4.84646C13.5086 5.19437 13.4357 6.03811 13.4253 6.16727H20.5793L20.546 5.48603Z" fill="#8D94A1"/>
</svg>
