<svg width="401" height="400" viewBox="0 0 401 400" fill="none" xmlns="http://www.w3.org/2000/svg">
<path d="M352.306 217.604C352.055 219.307 351.844 220.367 351.792 220.618C346.784 244.222 330.506 264.193 308.692 279.581C308.318 279.844 307.94 280.107 307.562 280.37C307.129 280.67 306.692 280.97 306.255 281.259C303.136 283.378 299.916 285.401 296.595 287.33C296.484 287.396 296.369 287.459 296.258 287.522C295.562 287.93 294.866 288.326 294.162 288.715C292.636 289.579 291.093 290.416 289.532 291.226C286.503 292.819 283.414 294.331 280.266 295.763C279.458 296.133 278.647 296.5 277.832 296.856C266.824 301.693 255.427 305.591 243.762 308.507C239.918 309.474 236.068 310.33 232.214 311.074C222.234 313.029 212.117 314.211 201.955 314.607C193.867 314.885 185.77 314.677 177.706 313.985C174.366 313.704 170.992 313.343 167.584 312.904C161.062 312.063 154.458 310.922 147.892 309.467C147.247 309.326 146.606 309.178 145.962 309.03C145.181 308.848 144.403 308.663 143.621 308.474C139.74 307.53 135.888 306.472 132.066 305.3C131.251 305.056 130.44 304.8 129.632 304.541C129.492 304.496 129.355 304.452 129.218 304.407C128.966 304.322 128.71 304.241 128.455 304.156C123.658 302.581 118.944 300.822 114.373 298.87C114.103 298.756 113.836 298.641 113.566 298.522C112.31 297.981 111.067 297.425 109.836 296.852C106.092 295.111 102.468 293.236 98.9657 291.226C96.6806 289.915 94.4596 288.542 92.3028 287.107C91.9028 286.844 91.5028 286.578 91.1065 286.307C89.7917 285.407 88.5028 284.489 87.2398 283.541C85.862 282.515 84.5188 281.458 83.2102 280.37C72.0065 271.078 63.4583 259.744 59.1546 246.204C58.7769 245.007 58.425 243.793 58.1102 242.552C55.919 233.757 55.234 224.654 56.0843 215.63C57.5435 199.626 63.7176 183.996 75.2546 174.341C84.9361 166.233 97.788 162.837 109.836 161.7C109.914 161.689 109.995 161.685 110.077 161.678C125.695 160.237 139.91 162.578 144.018 163.33C158.314 165.956 171.269 171.615 192.769 169.196C194.495 169 200.418 168.289 211.214 165.322C211.447 165.259 211.684 165.193 211.925 165.126C212.966 164.837 213.981 164.546 214.969 164.252C245.606 155.226 252.725 145.296 270.836 140.693C272.092 140.37 273.395 140.081 274.732 139.819C276.725 139.433 278.799 139.111 280.936 138.87C298.581 136.881 320.366 140.226 335.121 153.885C349.577 167.267 353.066 186.622 353.336 201.056C353.443 206.59 353.098 212.125 352.306 217.604Z" fill="#E6EDFA"/>
<path d="M307.564 280.37C285.894 295.367 258.955 305.903 232.218 311.076C222.236 313.029 212.119 314.209 201.956 314.608C193.868 314.884 185.77 314.676 177.707 313.987C166.22 313.029 154.825 311.185 143.622 308.473C138.771 307.292 133.956 305.939 129.221 304.408C128.967 304.324 128.711 304.243 128.457 304.158C123.659 302.582 118.946 300.822 114.375 298.872C114.105 298.756 113.837 298.641 113.569 298.524C112.314 297.982 111.069 297.425 109.837 296.852C100.039 292.296 90.985 286.825 83.2109 280.37L307.564 280.37Z" fill="#D8DFF3"/>
<path d="M352.31 217.604C352.058 219.308 351.845 220.368 351.791 220.618C341.771 267.877 286.572 300.56 232.217 311.076C232.217 310.891 232.21 310.701 232.193 310.515C232.073 309.246 231.482 308.076 231.198 306.834C230.077 301.966 233.841 297.244 238.11 294.649C242.378 292.054 247.362 290.674 251.304 287.607C249.261 286.047 250.876 282.792 252.719 281.001C257.114 276.742 262.367 273.469 268.127 271.4C267.201 264.167 275.137 257.355 282.143 259.363C282.189 257.591 282.863 255.893 284.046 254.573C285.229 253.253 286.843 252.397 288.599 252.158C290.355 251.919 292.139 252.313 293.632 253.269C295.124 254.225 296.228 255.681 296.745 257.377C297.044 254.84 297.756 252.369 298.852 250.063C299.81 248.047 302.811 248.201 303.515 250.319C303.519 250.333 303.523 250.348 303.529 250.362C305.853 245.685 313.158 244.6 316.742 248.399C315.492 243.744 321.099 238.887 325.528 240.788C323.405 237.668 322.83 233.311 324.834 230.112C326.838 226.914 331.709 225.642 334.624 228.038C332.552 224.506 335.161 219.236 339.227 218.742C341.301 218.49 343.362 219.29 345.451 219.344C346.533 219.368 347.598 219.081 348.522 218.519C349.647 217.801 350.98 217.479 352.31 217.604ZM280.842 157.432C280.842 166.604 267.81 174.06 251.62 174.229C251.431 174.233 251.245 174.233 251.056 174.233C249.9 174.233 248.76 174.193 247.64 174.122C244.707 176.968 240.883 178.718 236.812 179.075C232.741 179.433 228.671 178.377 225.287 176.085C225.2 176.027 225.117 175.968 225.031 175.908C225.051 176.029 225.068 176.152 225.083 176.275V176.277C225.128 176.651 225.151 177.026 225.151 177.402C225.151 181.718 222.266 185.653 217.523 188.627C217.081 188.907 216.62 189.175 216.146 189.435C212.497 191.441 207.94 192.923 202.856 193.663V193.665C202.318 193.742 201.78 193.811 201.24 193.871C200.794 193.923 200.345 193.966 199.897 194.006H199.895C195.762 194.362 191.602 194.229 187.5 193.609C187.5 193.607 187.5 193.607 187.498 193.607C187.381 193.589 187.266 193.57 187.149 193.552C182.077 192.732 177.556 191.175 173.981 189.095C170.324 186.97 167.656 184.299 166.396 181.321C165.91 181.339 165.424 181.353 164.931 181.353C164.497 181.353 164.064 181.345 163.635 181.329C161.859 181.27 160.091 181.074 158.345 180.744C157.998 180.678 157.655 180.607 157.316 180.529H157.313C154.35 179.902 151.516 178.769 148.936 177.182C148.326 177.701 147.688 178.186 147.025 178.637C146.117 179.253 145.172 179.813 144.196 180.313C143.863 180.486 143.521 180.654 143.172 180.815C142.741 181.019 142.299 181.214 141.848 181.401H141.844C141.084 181.72 140.301 182.014 139.487 182.288C134.884 183.787 130.069 184.536 125.228 184.506H125.057C121.01 184.482 117.137 182.857 114.286 179.985C111.434 177.113 109.837 173.229 109.842 169.182V161.7C109.921 161.69 110.003 161.684 110.082 161.678C125.702 160.238 139.917 162.577 144.024 163.331C158.32 165.954 171.275 171.613 192.776 169.195C194.503 169 200.423 168.288 211.22 165.321C211.454 165.258 211.69 165.192 211.931 165.125C212.97 164.835 213.986 164.544 214.977 164.252C245.611 155.226 252.732 145.297 270.84 140.691C272.099 140.372 273.398 140.081 274.737 139.818C274.853 142.095 274.49 144.37 273.671 146.497C277.739 149.17 280.34 152.569 280.779 156.305C280.823 156.679 280.844 157.056 280.842 157.432Z" fill="#CAD4EF"/>
<path d="M235.128 164.252C235.128 164.252 235.122 164.272 235.112 164.312C235.024 164.608 234.612 166.008 233.843 168.266C233.302 169.856 232.584 171.872 231.675 174.229C231.183 175.509 230.633 176.885 230.026 178.356C226.087 187.907 221.381 197.122 215.952 205.912C215.734 206.265 215.511 206.62 215.285 206.975C213.363 210.023 211.285 213.103 209.047 216.17C209.047 216.172 209.047 216.173 209.046 216.175C209.045 216.176 209.044 216.177 209.043 216.178C208.9 216.375 208.755 216.571 208.61 216.766C208.44 216.998 208.267 217.232 208.092 217.464C207.874 217.758 207.654 218.05 207.433 218.343C207.433 218.343 207.433 218.343 207.429 218.347C202.711 224.625 197.454 230.478 191.716 235.84C178.896 247.746 167.689 261.277 158.378 276.09C158.378 276.09 158.378 276.09 158.378 276.093C158.155 276.447 157.937 276.8 157.72 277.149C155.315 281.059 153.209 284.815 151.402 288.333V288.337C151.28 288.569 151.163 288.8 151.048 289.028C146.96 297.102 144.486 303.903 143.623 308.472C138.772 307.292 133.957 305.939 129.222 304.407C128.968 304.323 128.712 304.242 128.458 304.157C123.66 302.581 118.948 300.821 114.376 298.871C114.106 298.756 113.838 298.64 113.57 298.523C112.315 297.982 111.07 297.424 109.838 296.851V264.709C119.823 250.347 134.496 234.075 155.986 218.116C157.331 217.119 158.337 215.732 158.867 214.144C159.398 212.556 159.428 210.843 158.952 209.237C158.948 209.221 158.942 209.203 158.939 209.188C158.319 207.102 157.553 204.653 156.702 202.243C156.223 200.885 155.635 199.569 154.945 198.305C154.944 198.304 154.944 198.303 154.945 198.301C154.845 198.113 154.74 197.926 154.633 197.742C154.525 197.557 154.421 197.371 154.309 197.19C154.309 197.19 154.309 197.19 154.309 197.186C152.733 194.58 150.734 192.255 148.394 190.305C145.853 188.186 142.636 185.379 139.501 182.3L139.487 182.287C138.279 181.102 137.082 179.879 135.941 178.636C134.709 177.314 133.541 175.937 132.437 174.505C132.041 173.993 131.653 173.473 131.275 172.947C129.556 170.514 128.308 168.161 127.864 166.07C130.644 166.378 133.448 165.737 135.818 164.252L139.612 168.933L142.686 172.727L144.328 174.75C144.51 174.984 144.76 175.155 145.044 175.241C145.328 175.327 145.631 175.322 145.913 175.229C146.163 175.14 146.383 174.982 146.547 174.773C146.711 174.564 146.812 174.313 146.839 174.048L147.135 171.066L147.24 170.006L147.407 168.343C148.124 168.917 148.926 169.376 149.784 169.705C151.421 170.359 153.171 170.687 154.935 170.668C155.127 170.668 155.324 170.664 155.524 170.656C155.54 170.656 155.556 170.656 155.572 170.656H155.576C156.73 170.604 157.876 170.438 158.998 170.162C159.624 172.336 160.367 174.475 161.225 176.569C161.883 178.224 162.69 179.817 163.636 181.327C164.155 182.18 164.815 182.938 165.588 183.569C166.628 184.349 168.116 186.246 169.709 188.558L169.709 188.559L169.709 188.56C169.904 188.841 170.099 189.129 170.295 189.423C171.192 190.756 172.11 192.191 172.985 193.608C174.402 195.892 175.716 198.124 176.686 199.8C176.85 200.085 177.069 200.333 177.329 200.533C177.589 200.733 177.886 200.879 178.203 200.964C178.52 201.049 178.851 201.07 179.176 201.027C179.501 200.984 179.815 200.878 180.099 200.713C180.295 200.599 180.475 200.459 180.634 200.297C181.192 199.725 181.837 199.065 182.551 198.328C182.552 198.326 182.553 198.324 182.555 198.322L183.081 197.778H183.083C184.258 196.565 185.595 195.176 187.038 193.665L187.145 193.551C189.849 190.716 192.909 187.46 195.935 184.146C196.59 183.43 197.242 182.712 197.892 181.991C203.114 176.199 207.966 170.473 210.368 166.743C210.368 166.743 210.37 166.743 210.37 166.739C210.525 166.5 210.667 166.269 210.803 166.046C210.956 165.794 211.092 165.552 211.216 165.322C211.45 165.259 211.686 165.193 211.926 165.126C212.966 164.836 213.981 164.545 214.972 164.252L235.128 164.252Z" fill="#D8DFF3"/>
<path d="M197.485 220.364C193.605 221.389 189.593 222.447 185.74 223.808C176.009 227.242 169.138 232.212 165.317 238.579C163.024 242.399 161.84 246.673 160.902 250.724C158.895 259.381 157.778 268.22 157.568 277.105C157.568 277.123 157.574 277.141 157.585 277.156C157.595 277.17 157.611 277.181 157.628 277.187C157.646 277.192 157.665 277.191 157.682 277.185C157.699 277.178 157.714 277.166 157.724 277.151C157.94 276.8 158.158 276.448 158.379 276.094L158.392 276.053C158.661 267.582 159.761 259.159 161.674 250.903C162.598 246.916 163.761 242.713 165.996 238.988C169.719 232.783 176.451 227.928 186.003 224.557C189.826 223.208 193.822 222.152 197.687 221.132C200.89 220.286 204.175 219.416 207.395 218.373L207.437 218.344C207.659 218.051 207.879 217.758 208.097 217.465C208.108 217.45 208.114 217.433 208.114 217.415C208.114 217.398 208.108 217.38 208.098 217.366C208.087 217.352 208.072 217.341 208.055 217.336C208.039 217.33 208.02 217.331 208.004 217.337C204.534 218.5 200.961 219.446 197.485 220.364Z" fill="#CAD4EF"/>
<path d="M151.402 288.333V288.337C151.4 288.344 151.398 288.35 151.394 288.357C151.283 288.573 151.172 288.791 151.061 289.007C151.057 289.014 151.052 289.021 151.047 289.027C151.042 289.032 151.038 289.036 151.032 289.039C151.014 289.051 150.991 289.054 150.969 289.049C150.948 289.044 150.929 289.03 150.918 289.011C150.433 288.242 149.919 287.49 149.376 286.756C148.4 285.434 147.05 283.773 145.272 282.648C144.034 281.891 142.647 281.408 141.207 281.231C139.766 281.055 138.304 281.189 136.919 281.624C136.426 281.784 135.977 282.059 135.611 282.426C135.245 282.793 134.971 283.242 134.812 283.735C132.667 290.265 130.452 297.254 129.219 304.407C128.965 304.324 128.709 304.242 128.455 304.157C129.798 296.416 132.275 288.892 134.571 281.924L134.648 281.789L134.753 281.704C136.44 280.784 138.34 280.325 140.262 280.374C142.183 280.422 144.058 280.977 145.696 281.981C147.583 283.176 148.992 284.91 150.014 286.287C150.492 286.934 150.95 287.595 151.389 288.271C151.401 288.289 151.405 288.311 151.402 288.333Z" fill="#647CBE"/>
<path d="M226.705 166.655C225.587 170.579 224.233 174.432 222.649 178.191H222.647C221.143 181.766 219.433 185.25 217.524 188.626C216.16 191.046 214.696 193.407 213.13 195.71C212.894 196.056 212.657 196.401 212.42 196.747C210.72 199.219 208.961 201.777 208.12 204.646C207.652 206.292 207.468 208.006 207.575 209.714C207.575 209.724 207.578 209.734 207.583 209.744C207.587 209.754 207.593 209.763 207.601 209.771C207.609 209.779 207.619 209.785 207.629 209.789C207.639 209.793 207.65 209.795 207.661 209.795C207.673 209.794 207.684 209.792 207.694 209.787C210.466 208.559 213.183 207.228 215.847 205.795C215.859 205.788 215.874 205.785 215.888 205.785C215.903 205.785 215.917 205.788 215.93 205.795C215.939 205.801 215.948 205.808 215.954 205.817C215.961 205.826 215.965 205.836 215.968 205.847C215.97 205.858 215.97 205.869 215.968 205.88C215.966 205.891 215.962 205.901 215.956 205.91C215.738 206.264 215.515 206.618 215.289 206.974C215.279 206.984 215.269 206.994 215.258 207.004C212.783 208.307 210.266 209.521 207.708 210.645C207.691 210.652 207.678 210.665 207.669 210.68C207.66 210.696 207.656 210.714 207.658 210.732C207.879 212.575 208.349 214.38 209.055 216.097C209.06 216.109 209.062 216.121 209.061 216.134C209.06 216.146 209.057 216.158 209.051 216.169C209.051 216.17 209.051 216.172 209.05 216.173C209.049 216.175 209.048 216.176 209.047 216.177C208.904 216.373 208.759 216.57 208.614 216.764C208.606 216.776 208.594 216.786 208.581 216.792C208.56 216.8 208.537 216.8 208.516 216.792C208.496 216.784 208.479 216.768 208.47 216.748C207.695 214.948 207.169 213.05 206.908 211.108C206.908 211.1 206.906 211.092 206.902 211.086C206.898 211.076 206.892 211.067 206.884 211.059C206.876 211.052 206.867 211.046 206.857 211.042C206.847 211.038 206.837 211.036 206.826 211.036C206.815 211.036 206.805 211.038 206.795 211.042C198.601 214.568 190.034 217.155 181.258 218.755C180.833 218.829 180.409 218.907 179.982 218.981C176.204 219.648 172.297 220.336 169.115 222.411C164.491 225.428 162.194 230.761 159.971 235.92C159.074 238.004 158.146 240.158 157.073 242.148C153.618 248.558 148.316 253.738 143.187 258.748C139.094 262.748 134.861 266.886 131.591 271.622C129.284 274.967 127.413 278.682 125.603 282.269C123.674 286.095 121.682 290.051 119.144 293.599C117.758 295.53 116.159 297.299 114.376 298.871C114.106 298.756 113.838 298.641 113.57 298.524C115.42 296.93 117.073 295.123 118.496 293.139C120.998 289.639 122.978 285.71 124.891 281.912C126.713 278.299 128.598 274.563 130.937 271.171C134.249 266.371 138.511 262.207 142.63 258.181C147.716 253.212 152.974 248.073 156.371 241.771C157.427 239.813 158.347 237.674 159.238 235.606C161.508 230.338 163.855 224.891 168.677 221.747C171.997 219.582 175.985 218.879 179.84 218.199C180.267 218.125 180.691 218.049 181.112 217.973C189.928 216.367 198.532 213.757 206.754 210.195C206.77 210.188 206.783 210.176 206.792 210.162C206.801 210.147 206.805 210.13 206.804 210.113C206.644 208.199 206.832 206.271 207.359 204.423C208.236 201.433 210.03 198.821 211.764 196.299C212.002 195.954 212.238 195.608 212.473 195.262C213.764 193.359 214.989 191.416 216.146 189.433C217.673 186.815 219.078 184.134 220.36 181.388C220.737 180.581 221.103 179.769 221.457 178.952C223.226 174.883 224.723 170.702 225.938 166.436C225.941 166.425 225.946 166.415 225.953 166.407C225.96 166.398 225.969 166.391 225.978 166.386C225.988 166.38 225.999 166.377 226.009 166.376C226.02 166.375 226.031 166.377 226.042 166.38L226.645 166.551C226.656 166.554 226.666 166.558 226.675 166.565C226.684 166.572 226.691 166.581 226.697 166.59C226.702 166.6 226.706 166.611 226.708 166.622C226.709 166.633 226.708 166.644 226.705 166.655Z" fill="#CAD4EF"/>
<path d="M185.163 198.8C186.304 198.903 187.509 198.985 188.739 198.985C191.055 199.043 193.359 198.64 195.517 197.8C198.374 196.603 200.724 194.38 202.796 192.418L208.044 187.453C209.338 186.227 210.805 184.839 211.556 183.032C212.266 181.326 212.259 179.415 212.257 177.731C212.248 174.027 212.234 169.852 210.953 166.064C210.949 166.054 210.944 166.044 210.937 166.036C210.929 166.027 210.921 166.021 210.911 166.016C210.901 166.011 210.89 166.008 210.879 166.007C210.868 166.006 210.857 166.008 210.847 166.011C210.828 166.017 210.812 166.031 210.802 166.048C210.669 166.27 210.525 166.501 210.37 166.741C210.364 166.751 210.36 166.762 210.358 166.774C210.356 166.786 210.357 166.798 210.361 166.81C211.443 170.325 211.454 174.087 211.463 177.736C211.467 179.346 211.471 181.17 210.823 182.73C210.136 184.381 208.734 185.708 207.497 186.879L202.25 191.844C200.127 193.853 197.933 195.93 195.21 197.07C192.012 198.409 188.373 198.297 185.235 198.011C184.565 197.95 183.862 197.875 183.155 197.758C183.142 197.756 183.128 197.757 183.115 197.761C183.102 197.765 183.091 197.772 183.081 197.782L182.554 198.326C182.539 198.342 182.531 198.363 182.531 198.385C182.532 198.408 182.541 198.429 182.557 198.444C182.569 198.455 182.584 198.463 182.6 198.466C183.472 198.63 184.342 198.725 185.163 198.8ZM109.836 276.739C109.836 276.753 109.84 276.767 109.847 276.779C109.853 276.792 109.863 276.802 109.875 276.81C109.887 276.817 109.901 276.822 109.915 276.823C109.93 276.823 109.944 276.821 109.957 276.814C114.147 274.807 117.694 271.67 120.199 267.756C121.045 266.413 121.767 264.979 122.466 263.588C123.24 261.966 124.116 260.395 125.089 258.884C128 254.58 132.536 251.422 136.538 248.634L146.199 241.908C148.965 239.982 152.407 237.586 154.024 234.056C156.004 229.735 154.761 224.859 152.307 221.019C152.294 221.001 152.275 220.988 152.253 220.983C152.231 220.978 152.208 220.982 152.19 220.994C152.176 221.003 152.165 221.016 152.159 221.032L151.72 221.365C151.707 221.368 151.696 221.374 151.686 221.383C151.676 221.392 151.668 221.403 151.664 221.415C151.659 221.427 151.657 221.44 151.658 221.453C151.659 221.466 151.664 221.479 151.671 221.49C153.981 225.119 155.15 229.693 153.303 233.724C151.775 237.057 148.432 239.384 145.747 241.254L136.086 247.981C132.026 250.807 127.426 254.01 124.433 258.438C123.44 259.976 122.546 261.577 121.758 263.229C121.067 264.6 120.354 266.02 119.528 267.332C117.159 271.035 113.824 274.021 109.883 275.969C109.869 275.975 109.857 275.986 109.849 275.999C109.841 276.012 109.837 276.027 109.837 276.043L109.836 276.739ZM160.085 184.263C162.867 186.981 166.566 188.319 170.198 189.55C170.215 189.556 170.233 189.556 170.249 189.551C170.266 189.545 170.281 189.535 170.291 189.521C170.302 189.507 170.308 189.49 170.308 189.473C170.309 189.455 170.304 189.438 170.294 189.423C170.096 189.131 169.901 188.843 169.707 188.561L169.666 188.53C166.274 187.363 163.11 186.111 160.639 183.695C157.235 180.369 156.022 175.729 155.653 170.732C155.652 170.711 155.642 170.691 155.626 170.676C155.61 170.662 155.589 170.655 155.567 170.656C155.354 170.664 155.146 170.668 154.941 170.669C154.93 170.669 154.919 170.671 154.909 170.675C154.899 170.679 154.89 170.685 154.882 170.693C154.875 170.701 154.869 170.71 154.864 170.72C154.86 170.73 154.858 170.741 154.858 170.752V170.758C155.234 175.93 156.497 180.756 160.085 184.263ZM139.56 182.324C141.791 182.189 144.02 182.088 146.249 182.021L146.288 182.029C149.48 183.579 151.854 185.855 153.031 188.53C154.04 190.821 154.197 193.437 154.265 195.71C154.279 196.19 154.289 196.671 154.296 197.152L154.307 197.189C154.528 197.554 154.739 197.924 154.942 198.3C154.951 198.317 154.965 198.329 154.982 198.337C154.999 198.344 155.018 198.346 155.036 198.341C155.054 198.337 155.07 198.326 155.081 198.312C155.092 198.297 155.099 198.279 155.099 198.261C155.097 197.401 155.084 196.542 155.059 195.684C154.989 193.337 154.826 190.63 153.759 188.208C152.699 185.801 150.743 183.704 148.133 182.127C148.118 182.118 148.106 182.104 148.099 182.087C148.092 182.071 148.091 182.052 148.095 182.035C148.1 182.017 148.11 182.002 148.124 181.991C148.138 181.979 148.155 181.973 148.173 181.973C148.714 181.962 149.256 181.953 149.796 181.946C151.089 181.93 152.237 181.96 153.194 182.477C154.192 183.017 154.874 184.048 155.486 185.059C158.432 189.92 160.725 195.148 162.304 200.609C162.902 202.676 163.358 205.024 162.205 206.762C161.486 207.844 160.231 208.506 159.124 209.089L158.936 209.188C158.94 209.204 158.946 209.221 158.95 209.237C158.975 209.319 158.998 209.402 159.019 209.485L159.588 209.742C160.704 209.153 162.059 208.417 162.866 207.201C164.2 205.194 163.718 202.631 163.068 200.389C161.469 194.862 159.148 189.569 156.166 184.649C155.497 183.545 154.746 182.414 153.573 181.781C152.449 181.173 151.192 181.137 149.789 181.154C148.681 181.167 147.571 181.189 146.46 181.22L146.423 181.212C146.117 181.069 145.808 180.929 145.489 180.798C142.474 179.562 139.255 179.018 136.088 178.578L136.014 178.718C136.239 178.962 136.466 179.205 136.694 179.448L136.743 179.473C139.259 179.786 141.739 180.343 144.148 181.137C144.166 181.143 144.181 181.156 144.19 181.173C144.2 181.189 144.204 181.209 144.201 181.228C144.198 181.247 144.188 181.264 144.174 181.277C144.16 181.29 144.142 181.298 144.123 181.299C142.4 181.365 140.676 181.454 138.953 181.564C138.942 181.565 138.931 181.568 138.921 181.573C138.911 181.578 138.902 181.585 138.895 181.593C138.888 181.602 138.882 181.612 138.879 181.622C138.875 181.633 138.874 181.644 138.874 181.655C138.876 181.675 138.885 181.694 138.899 181.708C139.098 181.906 139.298 182.103 139.498 182.301C139.506 182.309 139.516 182.315 139.526 182.319C139.537 182.323 139.548 182.325 139.56 182.324Z" fill="#CAD4EF"/>
<path d="M285.177 147.511C285.177 150.736 283.566 153.747 280.774 156.305C275.532 161.109 266.125 164.311 255.39 164.311H255.373C254.547 164.311 253.727 164.29 252.918 164.252C252.601 164.238 252.288 164.22 251.974 164.2C249.003 167.084 245.119 168.84 240.992 169.166C236.865 169.492 232.754 168.367 229.367 165.986C229.445 166.481 229.484 166.98 229.486 167.48C229.486 170.625 227.953 173.568 225.286 176.084C225.218 176.147 225.153 176.211 225.084 176.274H225.081V176.276C224.317 176.972 223.503 177.612 222.647 178.191H222.645C222.262 178.453 221.867 178.707 221.46 178.953C219.331 180.213 217.068 181.232 214.713 181.99C213.717 182.32 212.686 182.616 211.618 182.879C211.3 182.959 210.979 183.034 210.655 183.105C207.058 183.894 203.385 184.287 199.702 184.278C198.429 184.278 197.175 184.233 195.94 184.145C187.011 183.51 179.314 180.647 174.654 176.573L174.651 176.571V176.569C172.972 175.163 171.633 173.395 170.733 171.399C170.247 171.416 169.763 171.43 169.27 171.43C165.919 171.445 162.584 170.965 159.373 170.006C157.227 169.365 155.176 168.441 153.274 167.259C152.563 167.862 151.816 168.421 151.037 168.932C150.635 169.198 150.216 169.456 149.786 169.704C148.927 170.203 148.042 170.657 147.137 171.065C145.692 171.717 144.205 172.272 142.686 172.726C142.436 172.8 142.184 172.873 141.93 172.946C138.829 173.795 135.647 174.317 132.437 174.504C131.481 174.561 130.523 174.588 129.562 174.583C127.378 174.585 125.195 174.439 123.03 174.147C119.831 173.703 116.855 172.258 114.529 170.018C112.202 167.777 110.645 164.858 110.081 161.678C125.701 160.237 139.916 162.577 144.023 163.331C158.32 165.954 171.274 171.613 192.775 169.194C194.502 169 200.423 168.287 211.22 165.321C211.454 165.257 211.69 165.192 211.93 165.124C212.97 164.835 213.985 164.544 214.976 164.251C245.61 155.225 252.731 145.296 270.839 140.691C272.098 140.371 273.398 140.08 274.736 139.818C276.73 139.431 278.806 139.111 280.943 138.871C283.63 141.396 285.177 144.35 285.177 147.511ZM177.706 313.987C129.391 309.95 72.8407 289.246 59.1555 246.202C58.7765 245.008 58.428 243.791 58.11 242.553C55.9208 233.758 55.2364 224.655 56.0859 215.631C57.1471 215.668 58.1726 216.024 59.0285 216.653C59.9595 217.302 61.0855 217.611 62.2174 217.528C64.4159 217.363 66.6163 216.269 68.787 216.486C73.0351 216.907 75.5277 223.33 73.1822 227.816C76.3607 224.703 81.4166 226.054 83.3729 229.931C85.3292 233.809 84.5177 239.249 82.1366 243.226C86.8829 240.654 92.544 246.42 91.0103 252.263C94.9548 247.374 102.582 248.374 104.803 254.077C104.808 254.06 104.814 254.04 104.818 254.022C105.66 251.357 108.818 251.024 109.731 253.482C110.789 256.37 111.418 259.397 111.598 262.467C112.833 258.25 116.775 255.177 120.406 255.6C124.037 256.023 126.92 259.891 126.851 264.243C134.309 261.417 142.326 269.505 141.012 278.531C147.094 280.92 152.497 284.766 156.747 289.73C158.598 291.867 160.142 295.833 157.921 297.869C161.917 301.492 167.092 302.967 171.454 305.99C174.309 307.951 176.492 310.743 177.706 313.987Z" fill="#CAD4EF"/>
<path d="M152.744 150.935C140.282 148.251 127.084 143.091 120.949 131.916C118.746 127.903 117.635 123 119.255 118.718C121.429 112.968 127.839 109.931 133.921 109.046C141.535 107.959 149.297 109.319 156.086 112.931C165.323 117.875 172.729 126.95 183.103 128.413C191.038 129.53 198.742 125.861 206.386 123.453C214.029 121.044 223.379 120.233 229.126 125.82C230.5 127.155 230.729 128.931 230.862 129.656C231.983 135.767 225.93 141.374 223.741 143.403C220.753 146.17 213.815 151.4 192.098 153.151C180.412 154.093 168.496 154.327 152.744 150.935Z" fill="#E6EDFA"/>
<path d="M104.968 198.582H32.0496C30.8093 196.43 30.3003 193.935 30.599 191.469C30.8977 189.004 31.9879 186.702 33.7061 184.909C35.4244 183.116 37.6778 181.929 40.1281 181.526C42.5784 181.123 45.0934 181.525 47.2955 182.673C47.4987 180.113 48.2582 177.628 49.5208 175.392C50.7835 173.155 52.519 171.221 54.6061 169.725C56.6932 168.228 59.0818 167.205 61.6051 166.727C64.1283 166.249 66.7256 166.327 69.2155 166.957C71.7054 167.586 74.0281 168.751 76.0213 170.37C78.0146 171.989 79.6305 174.024 80.7562 176.333C81.882 178.641 82.4904 181.167 82.5392 183.735C82.5879 186.302 82.0758 188.85 81.0385 191.199C89.0059 193.727 96.82 196.819 104.968 198.582ZM273.46 126.858H312.701C313.368 125.7 313.642 124.357 313.481 123.031C313.32 121.704 312.733 120.465 311.809 119.501C310.884 118.536 309.672 117.897 308.353 117.68C307.035 117.463 305.681 117.679 304.496 118.297C304.387 116.919 303.978 115.582 303.298 114.379C302.619 113.176 301.685 112.135 300.562 111.33C299.438 110.525 298.153 109.975 296.796 109.718C295.438 109.461 294.04 109.503 292.701 109.841C291.361 110.18 290.111 110.807 289.039 111.678C287.966 112.549 287.096 113.644 286.491 114.886C285.885 116.128 285.557 117.487 285.531 118.869C285.504 120.25 285.78 121.621 286.338 122.885C282.05 124.245 277.846 125.909 273.46 126.858ZM268.901 188.957H368.391C370.083 186.022 370.777 182.617 370.369 179.254C369.961 175.89 368.474 172.75 366.13 170.304C363.785 167.858 360.711 166.239 357.368 165.688C354.025 165.138 350.594 165.687 347.59 167.253C347.313 163.76 346.277 160.369 344.555 157.317C342.832 154.265 340.464 151.626 337.617 149.584C334.769 147.542 331.51 146.146 328.067 145.493C324.624 144.841 321.08 144.947 317.682 145.806C314.284 146.665 311.115 148.254 308.395 150.464C305.676 152.674 303.471 155.451 301.935 158.6C300.399 161.75 299.57 165.197 299.504 168.701C299.438 172.205 300.137 175.681 301.553 178.886C290.681 182.334 280.018 186.552 268.901 188.957Z" fill="#D8DFF3"/>
<path d="M255.78 196.051L268.425 200.362C270.181 200.96 271.801 201.901 273.192 203.129C274.583 204.357 275.716 205.848 276.527 207.517C277.338 209.186 277.81 210.999 277.916 212.851C278.023 214.703 277.761 216.558 277.146 218.308L259.146 269.577C227.166 243.276 213.749 215.821 221.595 203.625C227.582 194.319 245.335 194.846 255.78 196.051Z" fill="#77BBCB"/>
<path d="M255.445 210.292V305.229C247.815 307.602 240.06 309.553 232.215 311.074C222.235 313.029 212.118 314.21 201.956 314.607C193.868 314.884 185.771 314.677 177.708 313.985C166.221 313.026 154.826 311.184 143.623 308.474C138.771 307.292 133.956 305.937 129.219 304.407C128.967 304.322 128.711 304.24 128.456 304.155C123.66 302.581 118.945 300.822 114.374 298.87C114.104 298.755 113.837 298.64 113.567 298.522C112.311 297.981 111.068 297.424 109.837 296.852C109.448 296.67 109.06 296.489 108.674 296.3C107.426 295.711 106.192 295.103 104.971 294.478V190.766C104.971 188.431 105.899 186.191 107.551 184.539C109.202 182.887 111.442 181.959 113.778 181.959H154.163C155.458 181.959 156.737 182.244 157.91 182.795C159.082 183.345 160.118 184.147 160.945 185.144L171.852 198.296C172.679 199.293 173.715 200.095 174.887 200.646C176.06 201.196 177.339 201.481 178.634 201.481H246.637C247.794 201.481 248.94 201.709 250.009 202.151C251.078 202.594 252.049 203.243 252.867 204.062C253.685 204.88 254.334 205.851 254.776 206.92C255.218 207.99 255.445 209.135 255.445 210.292Z" fill="#4863C9"/>
<path d="M244.754 161.271L262.38 167.239C268.52 196.697 255.78 196.051 255.78 196.051L255.669 200.593C255.746 201.954 255.531 203.316 255.038 204.587C254.545 205.858 253.785 207.008 252.809 207.96C251.834 208.912 250.665 209.644 249.383 210.106C248.101 210.569 246.734 210.751 245.376 210.64C244.127 210.539 242.912 210.193 241.797 209.621C240.683 209.05 239.692 208.264 238.881 207.31C238.07 206.356 237.456 205.251 237.072 204.059C236.688 202.867 236.543 201.611 236.644 200.363L238.605 180.807L235.193 180.53C233.82 180.418 232.549 179.766 231.657 178.717C230.766 177.667 230.327 176.307 230.439 174.934C230.454 174.747 230.478 174.56 230.51 174.374C230.65 173.572 230.946 172.805 231.382 172.117C231.818 171.429 232.385 170.833 233.052 170.365C233.718 169.896 234.469 169.563 235.264 169.385C236.059 169.207 236.881 169.187 237.683 169.327L239.466 169.636L244.754 161.271Z" fill="#FFC1C2"/>
<path d="M268.064 160.958C267.825 158.932 266.083 157.194 263.743 156.376C263.926 155.789 265.849 149.265 262 145.081C259.871 142.766 257.041 142.325 255.625 142.104C246.746 140.718 238.977 148.203 237.426 149.696C235.369 151.678 235.913 151.783 230.929 157.43C229.787 158.651 228.833 160.035 228.098 161.536C227.429 163.021 226.958 164.587 226.699 166.195C226.129 169.983 229.712 178.787 237.74 187.985L238.344 180.554L235.047 180.286H235.042C233.881 180.204 232.785 179.715 231.948 178.906C231.11 178.097 230.585 177.019 230.463 175.86C230.42 175.353 230.443 174.843 230.531 174.342C230.666 173.567 230.952 172.827 231.373 172.163C231.794 171.499 232.342 170.924 232.985 170.472C233.628 170.02 234.354 169.699 235.121 169.527C235.888 169.355 236.682 169.336 237.457 169.472C237.944 169.556 238.387 169.805 238.714 170.176C239.04 170.547 239.23 171.019 239.251 171.513L239.376 174.388C239.381 174.517 239.431 174.639 239.517 174.735C239.602 174.831 239.718 174.895 239.844 174.915C239.967 174.931 240.092 174.908 240.201 174.848C240.309 174.788 240.396 174.695 240.447 174.582L243.734 167.885C243.752 167.848 243.771 167.815 243.791 167.78C243.898 167.595 244.04 167.434 244.21 167.304C244.38 167.175 244.574 167.08 244.78 167.025C244.986 166.971 245.201 166.957 245.413 166.986C245.625 167.015 245.828 167.085 246.013 167.192C248.748 168.782 256.568 170.372 261.566 168.765C263.42 168.138 265.053 166.988 266.268 165.453C267.056 164.465 268.294 162.907 268.064 160.958Z" fill="#32477B"/>
<path d="M275.756 177.071C275.751 178.01 276.061 178.923 276.635 179.665C277.21 180.408 278.016 180.936 278.926 181.168L310.327 189.231C311.357 189.494 312.415 189.628 313.478 189.629H313.58C315.355 189.61 317.107 189.215 318.718 188.47C320.33 187.724 321.765 186.645 322.928 185.304C324.092 183.963 324.958 182.39 325.469 180.69C325.98 178.989 326.124 177.2 325.893 175.439C325.661 173.679 325.058 171.988 324.125 170.477C323.191 168.967 321.947 167.672 320.476 166.678C319.005 165.684 317.34 165.013 315.59 164.71C313.841 164.407 312.047 164.478 310.327 164.92L278.926 172.983C278.02 173.218 277.218 173.747 276.644 174.487C276.071 175.226 275.758 176.134 275.756 177.07V177.071Z" fill="#77BBCB"/>
<path d="M276.434 179.379C277.013 180.265 277.902 180.902 278.927 181.168L310.328 189.231C311.358 189.494 312.416 189.628 313.479 189.629H313.581L320.245 178.312L276.443 179.36L276.434 179.379Z" fill="#589FAD"/>
<path d="M313.356 189.635C320.245 189.635 325.83 184.05 325.83 177.16C325.83 170.271 320.245 164.686 313.356 164.686C306.466 164.686 300.881 170.271 300.881 177.16C300.881 184.05 306.466 189.635 313.356 189.635Z" fill="#9BCFDC"/>
<path d="M313.356 187.401C319.012 187.401 323.597 182.816 323.597 177.161C323.597 171.505 319.012 166.92 313.356 166.92C307.7 166.92 303.115 171.505 303.115 177.161C303.115 182.816 307.7 187.401 313.356 187.401Z" fill="#32477B"/>
<path d="M320.145 181.543C320.272 181.544 320.397 181.509 320.506 181.443C320.614 181.377 320.703 181.283 320.761 181.17C321.758 179.267 321.998 177.058 321.434 174.985C320.869 172.913 319.542 171.13 317.718 169.995C317.641 169.945 317.555 169.911 317.464 169.895C317.373 169.878 317.28 169.88 317.19 169.9C317.1 169.921 317.015 169.958 316.94 170.012C316.865 170.065 316.801 170.132 316.752 170.211C316.704 170.289 316.671 170.376 316.656 170.467C316.641 170.558 316.645 170.651 316.666 170.74C316.688 170.83 316.727 170.914 316.781 170.989C316.836 171.063 316.904 171.126 316.983 171.173C318.51 172.123 319.621 173.615 320.094 175.35C320.566 177.085 320.365 178.935 319.53 180.528C319.475 180.633 319.448 180.752 319.452 180.871C319.456 180.99 319.49 181.106 319.552 181.209C319.614 181.311 319.701 181.395 319.805 181.454C319.909 181.512 320.026 181.543 320.145 181.543ZM315.577 185.316C315.595 185.316 315.614 185.316 315.63 185.316C316.329 185.255 317.007 185.045 317.619 184.702C318.231 184.359 318.764 183.89 319.181 183.326C319.233 183.25 319.269 183.166 319.287 183.076C319.306 182.987 319.307 182.895 319.29 182.805C319.273 182.716 319.238 182.63 319.188 182.554C319.138 182.478 319.074 182.412 318.998 182.361C318.923 182.309 318.838 182.273 318.749 182.255C318.659 182.236 318.567 182.235 318.478 182.252C318.388 182.269 318.303 182.304 318.227 182.354C318.15 182.404 318.085 182.468 318.033 182.544C317.735 182.937 317.358 183.264 316.926 183.503C316.494 183.742 316.017 183.888 315.526 183.932C315.347 183.946 315.181 184.029 315.062 184.162C314.943 184.296 314.881 184.471 314.887 184.649C314.894 184.828 314.969 184.998 315.098 185.122C315.226 185.247 315.398 185.317 315.577 185.318L315.577 185.316Z" fill="white"/>
<path d="M244.244 177.071C244.24 178.01 244.549 178.923 245.124 179.665C245.698 180.408 246.504 180.936 247.414 181.168L278.815 189.231C279.845 189.494 280.904 189.628 281.966 189.629H282.068C283.844 189.61 285.595 189.215 287.207 188.47C288.818 187.724 290.253 186.645 291.417 185.304C292.58 183.963 293.446 182.39 293.957 180.69C294.468 178.989 294.613 177.2 294.381 175.439C294.149 173.679 293.547 171.988 292.613 170.477C291.679 168.967 290.436 167.672 288.965 166.678C287.493 165.684 285.828 165.013 284.079 164.71C282.329 164.407 280.535 164.478 278.815 164.92L247.414 172.983C246.509 173.218 245.706 173.747 245.133 174.487C244.559 175.226 244.247 176.134 244.244 177.07V177.071Z" fill="#77BBCB"/>
<path d="M244.922 179.379C245.502 180.265 246.391 180.902 247.415 181.168L278.816 189.231C279.846 189.494 280.905 189.628 281.967 189.629H282.069L288.733 178.312L244.931 179.36L244.922 179.379Z" fill="#589FAD"/>
<path d="M281.844 189.635C288.734 189.635 294.319 184.05 294.319 177.16C294.319 170.271 288.734 164.686 281.844 164.686C274.954 164.686 269.369 170.271 269.369 177.16C269.369 184.05 274.954 189.635 281.844 189.635Z" fill="#9BCFDC"/>
<path d="M281.844 187.401C287.5 187.401 292.085 182.816 292.085 177.161C292.085 171.505 287.5 166.92 281.844 166.92C276.188 166.92 271.604 171.505 271.604 177.161C271.604 182.816 276.188 187.401 281.844 187.401Z" fill="#32477B"/>
<path d="M288.632 181.543C288.759 181.544 288.883 181.509 288.992 181.443C289.101 181.377 289.189 181.283 289.248 181.17C290.244 179.267 290.484 177.058 289.92 174.985C289.355 172.913 288.028 171.13 286.205 169.995C286.127 169.945 286.041 169.911 285.95 169.895C285.859 169.878 285.766 169.88 285.677 169.9C285.587 169.921 285.502 169.958 285.426 170.012C285.351 170.065 285.287 170.132 285.239 170.211C285.19 170.289 285.157 170.376 285.142 170.467C285.128 170.558 285.131 170.651 285.153 170.74C285.174 170.83 285.213 170.914 285.268 170.989C285.322 171.063 285.391 171.126 285.47 171.173C286.997 172.123 288.108 173.615 288.58 175.35C289.053 177.085 288.851 178.935 288.017 180.528C287.961 180.633 287.934 180.752 287.938 180.871C287.942 180.99 287.977 181.106 288.038 181.209C288.1 181.311 288.187 181.395 288.291 181.454C288.395 181.512 288.512 181.543 288.632 181.543ZM284.064 185.316C284.081 185.316 284.101 185.316 284.117 185.316C284.816 185.255 285.494 185.045 286.106 184.702C286.718 184.359 287.25 183.89 287.668 183.326C287.771 183.173 287.81 182.986 287.776 182.805C287.742 182.624 287.637 182.464 287.485 182.361C287.332 182.257 287.145 182.218 286.964 182.252C286.783 182.287 286.623 182.392 286.52 182.544C286.221 182.937 285.844 183.264 285.412 183.503C284.981 183.742 284.504 183.888 284.012 183.932C283.834 183.946 283.668 184.029 283.549 184.162C283.43 184.296 283.367 184.471 283.374 184.649C283.38 184.828 283.456 184.998 283.584 185.122C283.713 185.247 283.884 185.317 284.063 185.318L284.064 185.316Z" fill="white"/>
<path d="M250.414 182.241L245.465 193.083L229.803 192.7C229.803 192.7 239.899 167.789 256.043 170.77C256.043 170.77 248.114 174.604 250.414 182.241Z" fill="#FFC1C2"/>
<path d="M250.414 182.241L245.465 193.083L229.803 192.7L240.008 191.25C241.517 191.036 242.949 190.449 244.175 189.542C245.401 188.636 246.382 187.439 247.03 186.059C247.997 183.949 248.599 181.69 248.808 179.378C249.526 172.149 256.043 170.771 256.043 170.771C256.043 170.771 248.114 174.604 250.414 182.241ZM233.292 175.728C233.288 175.711 232.86 173.946 233.768 172.955C234.372 172.298 235.462 172.09 237.011 172.338L237.164 171.384C235.272 171.082 233.888 171.392 233.053 172.307C231.793 173.687 232.333 175.873 232.356 175.965L233.292 175.728ZM255.672 200.652C251.948 200.033 248.925 198.138 246.445 195.292C249.272 196.497 255.778 196.051 255.778 196.051L255.672 200.652ZM256.791 189.325L257.033 188.489C254.892 187.869 252.689 187.491 250.464 187.361L250.413 188.229C252.573 188.355 254.713 188.723 256.791 189.325Z" fill="#ED9C9C"/>
<path d="M237.199 180.947L236.467 180.38C242.533 172.539 249.332 169.058 256.129 170.316L255.96 171.226C247.83 169.724 241.272 175.683 237.199 180.947Z" fill="#ED9C9C"/>
<path d="M259.148 210.292V304.04C257.918 304.448 256.684 304.844 255.444 305.229C247.814 307.602 240.059 309.553 232.215 311.074C222.234 313.029 212.118 314.21 201.955 314.607C193.867 314.884 185.77 314.677 177.707 313.985C166.221 313.026 154.825 311.184 143.622 308.474C138.77 307.292 133.955 305.937 129.218 304.407C128.966 304.322 128.711 304.24 128.455 304.155C123.659 302.581 118.944 300.822 114.374 298.87C114.103 298.755 113.837 298.64 113.566 298.522C112.311 297.981 111.068 297.424 109.837 296.852C109.448 296.67 109.059 296.489 108.674 296.3V190.766C108.674 188.431 109.602 186.191 111.254 184.539C112.906 182.887 115.145 181.959 117.481 181.959H157.866C159.161 181.959 160.441 182.244 161.613 182.795C162.785 183.345 163.821 184.147 164.648 185.144L175.555 198.296C176.382 199.293 177.418 200.095 178.591 200.646C179.763 201.196 181.042 201.481 182.337 201.481H250.34C252.676 201.483 254.916 202.412 256.567 204.064C258.219 205.716 259.147 207.956 259.148 210.292Z" fill="#687ED4"/>
<path d="M239.864 214.339H194.625C192.259 214.339 190.34 216.258 190.34 218.624V222.672C190.34 225.039 192.259 226.958 194.625 226.958H239.864C242.231 226.958 244.149 225.039 244.149 222.672V218.624C244.149 216.258 242.231 214.339 239.864 214.339Z" fill="#4863C9"/>
<path d="M173.077 288.981H127.838C125.471 288.981 123.553 290.9 123.553 293.267V297.315C123.553 299.682 125.471 301.6 127.838 301.6H173.077C175.444 301.6 177.362 299.682 177.362 297.315V293.267C177.362 290.9 175.444 288.981 173.077 288.981Z" fill="#4863C9"/>
<path d="M115.498 196.244H163.355" stroke="white" stroke-width="10" stroke-linecap="round" stroke-linejoin="round"/>
<path d="M183.91 201.482L231.589 186.31L247.251 193.421L234.008 201.482H183.91Z" fill="#77BBCB"/>
<path d="M255.354 227.029C255.354 227.029 230.175 234.913 255.379 234.542C255.379 234.542 229.605 238.833 255.399 240.373C255.399 240.373 230.487 244.32 255.419 246.256C255.419 246.256 230.849 250.552 255.437 251.643L256.549 251.619C257.664 251.596 258.749 251.246 259.667 250.612C260.585 249.978 261.297 249.088 261.715 248.053C263.979 242.511 264.11 236.325 262.08 230.692C261.661 229.541 260.881 228.556 259.856 227.885C258.832 227.214 257.617 226.892 256.395 226.968L255.354 227.029Z" fill="#FFC1C2"/>
<path d="M247.251 193.421L183.91 201.482H234.008L247.251 193.421Z" fill="#589FAD"/>
<path d="M244.267 233.094L255.38 234.542C255.38 234.542 245.093 236.432 244.267 233.094ZM243.945 238.078L255.4 240.374C255.4 240.374 244.448 242.829 243.945 238.078ZM244.341 243.801L255.42 246.256C255.42 246.256 243.686 247.683 244.341 243.801ZM244.506 249.762L258.885 251.063C258.885 251.063 245.452 255.065 244.506 249.762Z" fill="#ED9C9C"/>
</svg>
