<svg xmlns="http://www.w3.org/2000/svg" width="64" height="65" viewBox="0 0 64 65" fill="none">
<path fill-rule="evenodd" clip-rule="evenodd" d="M51.791 25.1172H14.791C13.9954 25.1172 13.2323 25.4333 12.6697 25.9959C12.1071 26.5585 11.791 27.3215 11.791 28.1172V34.1172H51.791V25.1172Z" fill="#A4BBDB"/>
<path fill-rule="evenodd" clip-rule="evenodd" d="M11.791 28.8032H51.791V30.6662H11.791V28.8032Z" fill="#8DA3BE"/>
<path fill-rule="evenodd" clip-rule="evenodd" d="M51.791 24.1958C51.791 23.4002 51.4749 22.6371 50.9123 22.0745C50.3497 21.5119 49.5866 21.1958 48.791 21.1958H36.153C35.5254 21.1959 34.9137 21.3927 34.4039 21.7587C33.894 22.1246 33.5118 22.6412 33.311 23.2358L32 27.1168H51.791V24.1958Z" fill="#A4BBDB"/>
<path fill-rule="evenodd" clip-rule="evenodd" d="M54.2787 34.7342C54.3675 34.1636 54.3317 33.5806 54.1738 33.0252C54.016 32.4697 53.7398 31.955 53.3642 31.5164C52.9887 31.0778 52.5227 30.7256 51.9982 30.4841C51.4737 30.2426 50.9032 30.1174 50.3257 30.1172H13.6737C13.0962 30.1171 12.5255 30.242 12.0008 30.4834C11.4762 30.7248 11.01 31.077 10.6344 31.5157C10.2588 31.9544 9.98262 32.4693 9.8249 33.0248C9.66718 33.5804 9.63164 34.1636 9.72072 34.7342L13.4707 58.7342C13.6181 59.6768 14.0974 60.5357 14.8222 61.156C15.5471 61.7763 16.4697 62.1172 17.4237 62.1172H46.5757C47.5298 62.1172 48.4524 61.7763 49.1772 61.156C49.902 60.5357 50.3814 59.6768 50.5287 58.7342L54.2787 34.7342Z" fill="#CADCF0"/>
<path fill-rule="evenodd" clip-rule="evenodd" d="M9.72072 34.7342L10.2337 38.0142C10.0527 36.8592 10.4497 35.6832 11.2097 34.7952C11.5853 34.3564 12.0513 34.0042 12.5759 33.7627C13.1005 33.5212 13.6712 33.3962 14.2487 33.3962H49.7507C50.3282 33.3962 50.8989 33.5212 51.4235 33.7627C51.9481 34.0042 52.4142 34.3564 52.7897 34.7952C53.5497 35.6832 53.9467 36.8592 53.7657 38.0142L54.2787 34.7342C54.3675 34.1636 54.3317 33.5806 54.1738 33.0252C54.016 32.4697 53.7398 31.955 53.3642 31.5164C52.9887 31.0778 52.5227 30.7256 51.9982 30.4841C51.4737 30.2426 50.9032 30.1174 50.3257 30.1172H13.6737C13.0962 30.1171 12.5255 30.242 12.0008 30.4834C11.4762 30.7248 11.01 31.077 10.6344 31.5157C10.2588 31.9544 9.98262 32.4693 9.8249 33.0248C9.66718 33.5804 9.63164 34.1636 9.72072 34.7342Z" fill="#E9F3FC"/>
<path fill-rule="evenodd" clip-rule="evenodd" d="M29.7148 53.9638C29.7148 53.4333 29.5041 52.9246 29.1291 52.5496C28.754 52.1745 28.2453 51.9638 27.7148 51.9638H19.7148C19.1844 51.9638 18.6757 52.1745 18.3006 52.5496C17.9256 52.9246 17.7148 53.4333 17.7148 53.9638V55.9638C17.7148 56.4942 17.9256 57.0029 18.3006 57.378C18.6757 57.7531 19.1844 57.9638 19.7148 57.9638H27.7148C28.2453 57.9638 28.754 57.7531 29.1291 57.378C29.5041 57.0029 29.7148 56.4942 29.7148 55.9638V53.9638ZM23.5568 26.3258C23.5135 26.0499 23.4921 25.771 23.4928 25.4918C23.4939 25.2266 23.3896 24.9718 23.2028 24.7835C23.016 24.5952 22.7621 24.4888 22.4968 24.4878C22.2316 24.4867 21.9769 24.5911 21.7886 24.7778C21.6003 24.9646 21.4939 25.2186 21.4928 25.4838C21.4911 25.8699 21.5209 26.2555 21.5818 26.6368C21.5992 26.7691 21.6429 26.8967 21.7103 27.0119C21.7778 27.1271 21.8676 27.2276 21.9745 27.3076C22.0814 27.3875 22.2032 27.4452 22.3328 27.4774C22.4623 27.5095 22.597 27.5153 22.7289 27.4946C22.8608 27.4738 22.9871 27.4268 23.1006 27.3565C23.214 27.2861 23.3122 27.1937 23.3894 27.0848C23.4665 26.9758 23.5211 26.8526 23.5499 26.7222C23.5786 26.5919 23.581 26.4571 23.5568 26.3258ZM24.6068 22.4928C24.8028 22.2628 25.0228 22.0468 25.2668 21.8448C25.4712 21.6757 25.6 21.4324 25.625 21.1683C25.6499 20.9043 25.5689 20.6411 25.3998 20.4368C25.2308 20.2324 24.9874 20.1036 24.7234 20.0787C24.4593 20.0537 24.1962 20.1347 23.9918 20.3038C23.664 20.5744 23.3602 20.8728 23.0838 21.1958C22.9119 21.3977 22.8271 21.6598 22.8483 21.9242C22.8695 22.1886 22.9949 22.4338 23.1968 22.6058C23.3988 22.7778 23.6608 22.8625 23.9252 22.8413C24.1897 22.8201 24.4349 22.6947 24.6068 22.4928ZM28.3758 20.4018C28.7798 20.3108 29.2058 20.2428 29.6528 20.1978C29.915 20.1693 30.1553 20.0384 30.3214 19.8335C30.4875 19.6287 30.566 19.3665 30.5398 19.1041C30.5135 18.8417 30.3847 18.6003 30.1813 18.4324C29.9779 18.2646 29.7165 18.1838 29.4538 18.2078C28.9238 18.2608 28.4178 18.3428 27.9378 18.4508C27.8074 18.4772 27.6836 18.5294 27.5736 18.6043C27.4636 18.6792 27.3696 18.7753 27.2972 18.887C27.2249 18.9987 27.1755 19.1237 27.152 19.2547C27.1286 19.3857 27.1315 19.5201 27.1607 19.6499C27.1898 19.7798 27.2446 19.9025 27.3218 20.0109C27.399 20.1193 27.4971 20.2112 27.6102 20.2813C27.7234 20.3513 27.8494 20.398 27.9809 20.4187C28.1124 20.4394 28.2466 20.4336 28.3758 20.4018ZM33.4948 20.1938C34.1048 20.2098 34.6838 20.2048 35.2358 20.1818C35.498 20.1667 35.7437 20.0492 35.9199 19.8545C36.0961 19.6599 36.1887 19.4038 36.1776 19.1414C36.1666 18.8791 36.0529 18.6316 35.8609 18.4525C35.669 18.2733 35.4143 18.1768 35.1518 18.1838C34.6428 18.2048 34.1078 18.2088 33.5458 18.1948C33.2839 18.193 33.0317 18.2941 32.8434 18.4763C32.6552 18.6585 32.546 18.9074 32.5394 19.1693C32.5327 19.4311 32.629 19.6852 32.8077 19.8768C32.9864 20.0684 33.2331 20.1822 33.4948 20.1938ZM39.3678 19.5548C40.0128 19.3678 40.5948 19.1448 41.1168 18.8948C41.3446 18.7732 41.5165 18.5684 41.5968 18.3231C41.6771 18.0778 41.6596 17.811 41.5478 17.5783C41.4361 17.3456 41.2387 17.1651 40.9971 17.0745C40.7554 16.9838 40.4881 16.99 40.2508 17.0918C39.8208 17.2978 39.3418 17.4798 38.8098 17.6348C38.5609 17.7136 38.3526 17.8866 38.2296 18.1169C38.1065 18.3472 38.0784 18.6165 38.1513 18.8673C38.2242 19.118 38.3922 19.3303 38.6195 19.4588C38.8469 19.5872 39.1154 19.6217 39.3678 19.5548ZM44.1218 16.4388C44.5769 15.7923 44.9035 15.0645 45.0838 14.2948C45.1304 14.0419 45.0778 13.7808 44.937 13.5656C44.7962 13.3504 44.578 13.1976 44.3276 13.139C44.0773 13.0804 43.8139 13.1203 43.5922 13.2506C43.3705 13.3809 43.2075 13.5915 43.1368 13.8388C43.0198 14.3368 42.8078 14.8288 42.4838 15.2908C42.3447 15.5083 42.2949 15.7711 42.3449 16.0244C42.395 16.2777 42.541 16.5019 42.7524 16.6501C42.9639 16.7983 43.2244 16.8591 43.4796 16.8197C43.7348 16.7803 43.9649 16.6438 44.1218 16.4388ZM44.7148 10.2828C44.2718 9.24978 43.5778 8.37978 42.7538 7.81178C42.5355 7.6633 42.2673 7.60719 42.0078 7.65569C41.7483 7.70419 41.5184 7.85336 41.3685 8.07066C41.2185 8.28796 41.1605 8.55576 41.2073 8.81562C41.254 9.07548 41.4016 9.30632 41.6178 9.45778C42.1528 9.82678 42.5898 10.4018 42.8768 11.0718C42.9815 11.3155 43.1786 11.5077 43.425 11.6061C43.6713 11.7044 43.9466 11.7009 44.1903 11.5963C44.4341 11.4917 44.6263 11.2945 44.7246 11.0482C44.823 10.8018 44.8195 10.5265 44.7148 10.2828Z" fill="#347BFA"/>
<path fill-rule="evenodd" clip-rule="evenodd" d="M31.8906 7.3308C32.9726 1.2038 42.3496 1.5998 36.8906 7.3308H31.8906ZM31.8906 8.8828C32.9726 15.0088 42.3496 14.6138 36.8906 8.8828H31.8906Z" fill="#CADCF0"/>
<path fill-rule="evenodd" clip-rule="evenodd" d="M31.801 9.11719H38.497C38.7622 9.11719 39.0166 9.01183 39.2041 8.82429C39.3916 8.63676 39.497 8.3824 39.497 8.11719C39.497 7.85197 39.3916 7.59762 39.2041 7.41008C39.0166 7.22254 38.7622 7.11719 38.497 7.11719H31.801C31.5435 7.12871 31.3004 7.23909 31.1223 7.42537C30.9441 7.61165 30.8447 7.85945 30.8447 8.11719C30.8447 8.37492 30.9441 8.62273 31.1223 8.80901C31.3004 8.99528 31.5435 9.10567 31.801 9.11719Z" fill="#347BFA"/>
</svg>