<svg width="16" height="17" viewBox="0 0 16 17" fill="none" xmlns="http://www.w3.org/2000/svg">
<g clip-path="url(#clip0_632_52109)">
<path d="M12.3334 7.83331C12.4467 7.83331 12.56 7.83998 12.6667 7.85331V5.07998C12.6667 4.39331 12.1067 3.83331 11.42 3.83331H2.58004C1.89337 3.83331 1.33337 4.39331 1.33337 5.07998V11.92C1.33337 12.6066 1.89337 13.1666 2.58004 13.1666H9.06671C8.81337 12.6666 8.66671 12.1 8.66671 11.5C8.66671 9.47331 10.3067 7.83331 12.3334 7.83331ZM6.93337 9.16665L2.66671 6.62665V5.16665H2.82004L6.94004 7.61998L11.16 5.16665H11.3334V6.60665L6.93337 9.16665Z" fill="#0EA5E9"/>
<path d="M12.6667 9.16663L11.7267 10.1066L12.78 11.1666H10V12.5H12.78L11.7267 13.56L12.6667 14.5L15.3333 11.8333L12.6667 9.16663Z" fill="#0EA5E9"/>
</g>
<defs>
<clipPath id="clip0_632_52109">
<rect width="16" height="16" fill="white" transform="translate(0 0.5)"/>
</clipPath>
</defs>
</svg>
