<svg xmlns="http://www.w3.org/2000/svg" width="18" height="18" viewBox="0 0 18 18" fill="none">
<path fill-rule="evenodd" clip-rule="evenodd" d="M8.99516 17.335C13.5984 17.335 17.3302 13.6033 17.3302 8.99998C17.3302 4.39668 13.5984 0.664978 8.99516 0.664978C4.39186 0.664978 0.660156 4.39668 0.660156 8.99998C0.660156 13.6033 4.39186 17.335 8.99516 17.335ZM9.15734 4.66498C10.4012 4.66498 11.5213 5.17123 12.3375 5.98685L13.6602 4.66498V8.60248H9.72019L11.5326 6.79123C10.9247 6.1781 10.0917 5.78998 9.15734 5.78998C7.2943 5.78998 5.78023 7.3031 5.78023 9.16498C5.78023 11.0269 7.2943 12.54 9.15734 12.54C10.6264 12.54 11.8759 11.6006 12.3375 10.29H13.5082C13.0072 12.2306 11.2568 13.665 9.15734 13.665C6.66954 13.665 4.66016 11.6512 4.66016 9.16498C4.66016 6.67873 6.66954 4.66498 9.15734 4.66498Z" fill="#0EA5E9"/>
</svg>