<svg
xmlns="http://www.w3.org/2000/svg"
width="20"
height="21"
viewBox="0 0 20 21"
fill="none"
className="mb-3 w-[25px] h-[25px]">
<path
d="M11.6673 3.83335H5.00065C4.55862 3.83335 4.1347 4.00895 3.82214 4.32151C3.50958 4.63407 3.33398 5.05799 3.33398 5.50002V13.8334M3.33398 13.8334V15.5C3.33398 15.942 3.50958 16.366 3.82214 16.6785C4.1347 16.9911 4.55862 17.1667 5.00065 17.1667H15.0007C15.4427 17.1667 15.8666 16.9911 16.1792 16.6785C16.4917 16.366 16.6673 15.942 16.6673 15.5V12.1667M3.33398 13.8334L7.15565 10.0117C7.4682 9.69923 7.89204 9.52371 8.33398 9.52371C8.77592 9.52371 9.19977 9.69923 9.51232 10.0117L11.6673 12.1667M16.6673 8.83335V12.1667M16.6673 12.1667L15.3457 10.845C15.0331 10.5326 14.6093 10.357 14.1673 10.357C13.7254 10.357 13.3015 10.5326 12.989 10.845L11.6673 12.1667M11.6673 12.1667L13.334 13.8334M15.0007 3.83335H18.334M16.6673 2.16669V5.50002M11.6673 7.16669H11.6757"
stroke="#9CA3AF"
stroke-width="1.5"
stroke-linecap="round"
stroke-linejoin="round"
/>
</svg>