<svg width="25" height="24" viewBox="0 0 25 24" fill="none" xmlns="http://www.w3.org/2000/svg">
<g clip-path="url(#clip0_804_14621)">
<path d="M12.3329 16C13.3429 16 14.2429 15.61 14.9529 15H9.71289C10.4229 15.61 11.3229 16 12.3329 16Z" fill="#111827"/>
<path d="M8.89258 14H15.7826C16.0426 13.55 16.2226 13.04 16.2926 12.5H8.39258C8.45258 13.04 8.62258 13.55 8.89258 14Z" fill="#323232"/>
<path d="M12.3329 8C11.3229 8 10.4229 8.39 9.71289 9H14.9529C14.2429 8.39 13.3429 8 12.3329 8Z" fill="#323232"/>
<path d="M8.89281 10C8.63281 10.45 8.45281 10.96 8.38281 11.5H16.2828C16.2128 10.96 16.0428 10.45 15.7728 10H8.89281Z" fill="#323232"/>
<path d="M19.333 3H5.33301C4.23301 3 3.33301 3.9 3.33301 5V19C3.33301 20.1 4.23301 21 5.33301 21H19.333C20.433 21 21.333 20.1 21.333 19V5C21.333 3.9 20.433 3 19.333 3ZM12.333 18C9.02301 18 6.33301 15.31 6.33301 12C6.33301 8.69 9.02301 6 12.333 6C15.643 6 18.333 8.69 18.333 12C18.333 15.31 15.643 18 12.333 18Z" fill="#323232"/>
</g>
<defs>
<clipPath id="clip0_804_14621">
<rect width="24" height="24" fill="white" transform="translate(0.333008)"/>
</clipPath>
</defs>
</svg>
