<svg width="25" height="24" viewBox="0 0 25 24" fill="none" xmlns="http://www.w3.org/2000/svg">
<g clip-path="url(#clip0_804_14632)">
<path d="M12.333 20H2.33301V18H8.08301C7.35301 15.19 5.14301 12.99 2.33301 12.26C2.97301 12.1 3.64301 12 4.33301 12C8.75301 12 12.333 15.58 12.333 20ZM22.333 12.26C21.693 12.1 21.023 12 20.333 12C17.403 12 14.853 13.58 13.453 15.93C13.743 16.59 13.983 17.28 14.123 18C14.253 18.65 14.323 19.32 14.323 20H16.323H22.323V18H16.573C17.313 15.19 19.523 12.99 22.333 12.26ZM15.973 11.02C16.753 8.93 18.203 7.18 20.063 6.02C15.773 6.16 12.333 9.67 12.333 14C12.333 14.01 12.333 14.02 12.333 14.02C13.283 12.75 14.533 11.72 15.973 11.02ZM11.753 8.85C10.913 6.66 9.21301 4.89 7.03301 4C8.47301 5.86 9.33301 8.18 9.33301 10.71C9.33301 10.92 9.30301 11.12 9.29301 11.32C9.72301 11.56 10.123 11.84 10.513 12.14C10.723 10.96 11.163 9.85 11.753 8.85Z" fill="#111827"/>
</g>
<defs>
<clipPath id="clip0_804_14632">
<rect width="24" height="24" fill="white" transform="translate(0.333008)"/>
</clipPath>
</defs>
</svg>
