<svg width="18" height="20" viewBox="0 0 18 20" fill="none" xmlns="http://www.w3.org/2000/svg">
<path d="M5.25 9.5V8H6.75V9.5H5.25ZM11.25 9.5V8H12.75V9.5H11.25ZM0 20V12H1V8C1 6.9 1.20833 5.8625 1.625 4.8875C2.04167 3.9125 2.6125 3.0625 3.3375 2.3375C4.0625 1.6125 4.9125 1.04167 5.8875 0.625C6.8625 0.208333 7.9 0 9 0C10.1 0 11.1375 0.208333 12.1125 0.625C13.0875 1.04167 13.9375 1.6125 14.6625 2.3375C15.3875 3.0625 15.9583 3.9125 16.375 4.8875C16.7917 5.8625 17 6.9 17 8V12H18V20H0ZM1.5 18.5H4.125V13.5H1.5V18.5ZM5.625 18.5H8.25V13.5H5.625V18.5ZM2.5 12H8.25V1.55C6.6 1.75 5.22917 2.45833 4.1375 3.675C3.04583 4.89167 2.5 6.33333 2.5 8V12ZM9.75 12H15.5V8C15.5 6.33333 14.9542 4.89167 13.8625 3.675C12.7708 2.45833 11.4 1.75 9.75 1.55V12ZM9.75 18.5H12.375V13.5H9.75V18.5ZM13.875 18.5H16.5V13.5H13.875V18.5Z" fill="black"/>
</svg>
