<svg xmlns="http://www.w3.org/2000/svg" width="21" height="20" viewBox="0 0 21 20" fill="none">
    <path fill-rule="evenodd" clip-rule="evenodd" d="M18.6833 18.5186V19.2593H2.68335V18.5186H18.6833ZM1.68335 18.1482V19.6297C1.68335 19.8342 1.90721 20.0001 2.18335 20.0001H19.1833C19.4595 20.0001 19.6833 19.8342 19.6833 19.6297V18.1482C19.6833 17.9437 19.4595 17.7778 19.1833 17.7778H2.18335C1.90721 17.7778 1.68335 17.9437 1.68335 18.1482Z" fill="black"/>
    <path fill-rule="evenodd" clip-rule="evenodd" d="M19.6688 15.1825L18.6982 18.0584C18.6312 18.2568 18.7941 18.4579 19.062 18.5075C19.3299 18.5571 19.6014 18.4365 19.6684 18.238L20.6684 15.2751C20.6883 15.2161 20.6883 15.1544 20.6684 15.0954L19.6684 12.1324C19.6014 11.934 19.3299 11.8133 19.062 11.863C18.7941 11.9126 18.6312 12.1136 18.6982 12.3121L19.6688 15.1825ZM1.69496 15.1962C2.01942 14.2349 2.66836 12.3121 2.66836 12.3121C2.73533 12.1136 2.57245 11.9126 2.30456 11.863C2.03666 11.8133 1.76519 11.934 1.69822 12.1324L0.698217 15.0954C0.678312 15.1544 0.678312 15.2161 0.698217 15.2751L1.69822 18.238C1.76519 18.4365 2.03666 18.5571 2.30456 18.5075C2.57245 18.4579 2.73533 18.2568 2.66836 18.0584C2.66836 18.0584 1.68609 15.2225 1.69496 15.1962Z" fill="black"/>
    <path fill-rule="evenodd" clip-rule="evenodd" d="M20.1833 11.8519H1.18329C0.907146 11.8519 0.683289 12.0177 0.683289 12.2222C0.683289 12.4268 0.907146 12.5926 1.18329 12.5926H20.1833C20.4594 12.5926 20.6833 12.4268 20.6833 12.2222C20.6833 12.0177 20.4594 11.8519 20.1833 11.8519ZM2.68329 0.740741H18.6833V10.7407C18.6833 10.9453 18.9071 11.1111 19.1833 11.1111C19.4594 11.1111 19.6833 10.9453 19.6833 10.7407V0.37037C19.6833 0.16582 19.4594 0 19.1833 0H2.18329C1.90715 0 1.68329 0.16582 1.68329 0.37037V10.7407C1.68329 10.9453 1.90715 11.1111 2.18329 11.1111C2.45943 11.1111 2.68329 10.9453 2.68329 10.7407V0.740741Z" fill="black"/>
    <path d="M8.68335 9.25928H7.68335C7.40721 9.25928 7.18335 9.4251 7.18335 9.62965C7.18335 9.8342 7.40721 10 7.68335 10H8.68335C8.95949 10 9.18335 9.8342 9.18335 9.62965C9.18335 9.4251 8.95949 9.25928 8.68335 9.25928Z" fill="black"/>
    <path d="M13.6832 9.25928H12.6832C12.4071 9.25928 12.1832 9.4251 12.1832 9.62965C12.1832 9.8342 12.4071 10 12.6832 10H13.6832C13.9594 10 14.1832 9.8342 14.1832 9.62965C14.1832 9.4251 13.9594 9.25928 13.6832 9.25928Z" fill="black"/>
    <path fill-rule="evenodd" clip-rule="evenodd" d="M10.1833 0.37037V10.7407C10.1833 10.9453 10.4071 11.1111 10.6833 11.1111C10.9594 11.1111 11.1833 10.9453 11.1833 10.7407V0.37037C11.1833 0.16582 10.9594 0 10.6833 0C10.4071 0 10.1833 0.16582 10.1833 0.37037Z" fill="black"/>
    <path fill-rule="evenodd" clip-rule="evenodd" d="M2.18335 4.81484H19.1833C19.4595 4.81484 19.6833 4.64902 19.6833 4.44447C19.6833 4.23992 19.4595 4.0741 19.1833 4.0741H2.18335C1.90721 4.0741 1.68335 4.23992 1.68335 4.44447C1.68335 4.64902 1.90721 4.81484 2.18335 4.81484ZM4.68659 15.1891C4.85089 14.2154 5.17949 12.2682 5.17949 12.2682C5.21374 12.0652 5.01938 11.8801 4.74537 11.8547C4.47136 11.8294 4.22146 11.9733 4.18721 12.1763L3.68721 15.1393C3.68206 15.1698 3.68206 15.2006 3.68721 15.2311L4.18721 18.1941C4.22146 18.3971 4.47136 18.5411 4.74537 18.5157C5.01938 18.4903 5.21374 18.3052 5.17949 18.1022C5.17949 18.1022 4.68422 15.2031 4.68659 15.1891ZM7.68643 15.19C7.85078 14.2161 8.17949 12.2682 8.17949 12.2682C8.21374 12.0652 8.01938 11.8801 7.74537 11.8547C7.47136 11.8294 7.22146 11.9733 7.18721 12.1763L6.68721 15.1393C6.68206 15.1698 6.68206 15.2006 6.68721 15.2311L7.18721 18.1941C7.22146 18.3971 7.47136 18.5411 7.74537 18.5157C8.01938 18.4903 8.21374 18.3052 8.17949 18.1022C8.17949 18.1022 7.68412 15.2037 7.68643 15.19ZM11.1833 18.1482V12.2222C11.1833 12.0177 10.9595 11.8519 10.6833 11.8519C10.4072 11.8519 10.1833 12.0177 10.1833 12.2222V18.1482C10.1833 18.3527 10.4072 18.5185 10.6833 18.5185C10.9595 18.5185 11.1833 18.3527 11.1833 18.1482ZM14.6795 15.2311C14.6846 15.2006 14.6846 15.1698 14.6795 15.1393L14.1795 12.1763C14.1452 11.9733 13.8953 11.8294 13.6213 11.8547C13.3473 11.8801 13.153 12.0652 13.1872 12.2682C13.1872 12.2682 13.682 15.1702 13.6794 15.1857C13.5153 16.1579 13.1872 18.1022 13.1872 18.1022C13.153 18.3052 13.3473 18.4903 13.6213 18.5157C13.8953 18.5411 14.1452 18.3971 14.1795 18.1941L14.6795 15.2311ZM17.6795 15.2311C17.6846 15.2006 17.6846 15.1698 17.6795 15.1393L17.1795 12.1763C17.1452 11.9733 16.8953 11.8294 16.6213 11.8547C16.3473 11.8801 16.153 12.0652 16.1872 12.2682C16.1872 12.2682 16.6822 15.1692 16.6796 15.1842C16.5155 16.1569 16.1872 18.1022 16.1872 18.1022C16.153 18.3052 16.3473 18.4903 16.6213 18.5157C16.8953 18.5411 17.1452 18.3971 17.1795 18.1941L17.6795 15.2311Z" fill="black"/>
</svg>