<svg width="20" height="20" viewBox="0 0 20 20" fill="none" xmlns="http://www.w3.org/2000/svg">
<path d="M4.825 7.025C4.325 7.025 3.89583 6.84583 3.5375 6.4875C3.17917 6.12917 3 5.7 3 5.2C3 4.7 3.17917 4.27083 3.5375 3.9125C3.89583 3.55417 4.325 3.375 4.825 3.375C5.325 3.375 5.75417 3.55417 6.1125 3.9125C6.47083 4.27083 6.65 4.7 6.65 5.2C6.65 5.7 6.47083 6.12917 6.1125 6.4875C5.75417 6.84583 5.325 7.025 4.825 7.025ZM2.65 20C2.35 20 2.08333 19.9042 1.85 19.7125C1.61667 19.5208 1.5 19.2833 1.5 19C1.08333 19 0.729167 18.8542 0.4375 18.5625C0.145833 18.2708 0 17.9167 0 17.5V11H3V10.3C3 9.71667 3.20833 9.21667 3.625 8.8C4.04167 8.38333 4.54167 8.175 5.125 8.175C5.44167 8.175 5.74167 8.23333 6.025 8.35C6.30833 8.46667 6.55833 8.64167 6.775 8.875L8.075 10.35C8.19167 10.4833 8.3125 10.6042 8.4375 10.7125C8.5625 10.8208 8.69167 10.9167 8.825 11H16V2.65C16 2.33333 15.8958 2.0625 15.6875 1.8375C15.4792 1.6125 15.2167 1.5 14.9 1.5C14.7333 1.5 14.575 1.51667 14.425 1.55C14.275 1.58333 14.1417 1.65833 14.025 1.775L12.725 3.075C12.8083 3.35833 12.8208 3.64583 12.7625 3.9375C12.7042 4.22917 12.6 4.50833 12.45 4.775L9.9 2.35C10.1667 2.16667 10.4583 2.05 10.775 2C11.0917 1.95 11.4 1.98333 11.7 2.1L13 0.825C13.25 0.575 13.5375 0.375 13.8625 0.225C14.1875 0.0749999 14.5333 0 14.9 0C15.6333 0 16.25 0.258333 16.75 0.775C17.25 1.29167 17.5 1.91667 17.5 2.65V11H20V17.5C20 17.9167 19.8542 18.2708 19.5625 18.5625C19.2708 18.8542 18.9167 19 18.5 19C18.5 19.2833 18.3833 19.5208 18.15 19.7125C17.9167 19.9042 17.6417 20 17.325 20H2.65ZM1.5 17.5H18.5V12.5H1.5V17.5ZM18.5 17.5H1.5H18.5Z" fill="black"/>
</svg>
