<svg width="20" height="14" viewBox="0 0 20 14" fill="none" xmlns="http://www.w3.org/2000/svg">
<path d="M0 14V7.625C0 7.20833 0.0833333 6.81667 0.25 6.45C0.416667 6.08333 0.666667 5.78333 1 5.55V2.65C1 1.9 1.25417 1.27083 1.7625 0.7625C2.27083 0.254166 2.9 0 3.65 0H8.15C8.51667 0 8.85833 0.0833333 9.175 0.25C9.49167 0.416667 9.76667 0.641667 10 0.925C10.2333 0.641667 10.5042 0.416667 10.8125 0.25C11.1208 0.0833333 11.4583 0 11.825 0H16.325C17.075 0 17.7083 0.254166 18.225 0.7625C18.7417 1.27083 19 1.9 19 2.65V5.55C19.3333 5.78333 19.5833 6.08333 19.75 6.45C19.9167 6.81667 20 7.20833 20 7.625V14H18.5V12H1.5V14H0ZM10.75 5.125H17.5V2.65C17.5 2.31667 17.3875 2.04167 17.1625 1.825C16.9375 1.60833 16.6583 1.5 16.325 1.5H11.75C11.4667 1.5 11.2292 1.61667 11.0375 1.85C10.8458 2.08333 10.75 2.35 10.75 2.65V5.125ZM2.5 5.125H9.25V2.65C9.25 2.35 9.15417 2.08333 8.9625 1.85C8.77083 1.61667 8.53333 1.5 8.25 1.5H3.65C3.33333 1.5 3.0625 1.6125 2.8375 1.8375C2.6125 2.0625 2.5 2.33333 2.5 2.65V5.125ZM1.5 10.5H18.5V7.625C18.5 7.34167 18.4042 7.10417 18.2125 6.9125C18.0208 6.72083 17.7833 6.625 17.5 6.625H2.5C2.21667 6.625 1.97917 6.72083 1.7875 6.9125C1.59583 7.10417 1.5 7.34167 1.5 7.625V10.5ZM18.5 10.5H1.5H18.5Z" fill="black"/>
</svg>
