<svg xmlns="http://www.w3.org/2000/svg" width="25" height="24" viewBox="0 0 25 24" fill="none">
    <path d="M18.9296 19.2743C16.5517 19.2743 14.6171 17.34 14.6171 14.9625C14.6171 12.5847 16.5517 10.65 18.9296 10.65C21.3071 10.65 23.2413 12.5847 23.2413 14.9625C23.2413 17.34 21.3071 19.2743 18.9296 19.2743ZM18.9296 11.4C16.9653 11.4 15.3671 12.9983 15.3671 14.9625C15.3671 16.9264 16.9653 18.5243 18.9296 18.5243C20.8934 18.5243 22.4913 16.9264 22.4913 14.9625C22.4913 12.9983 20.8934 11.4 18.9296 11.4ZM6.4042 19.2743C4.02632 19.2743 2.09207 17.34 2.09207 14.9625C2.09207 12.5847 4.02632 10.65 6.4042 10.65C8.78207 10.65 10.7163 12.5847 10.7163 14.9625C10.7163 17.34 8.78207 19.2743 6.4042 19.2743ZM6.4042 11.4C4.44032 11.4 2.84207 12.9983 2.84207 14.9625C2.84207 16.9264 4.44032 18.5243 6.4042 18.5243C8.36807 18.5243 9.96632 16.9264 9.96632 14.9625C9.96632 12.9983 8.36807 11.4 6.4042 11.4Z" fill="black"/>
    <path d="M12.6667 15.4593H6.29168C6.1653 15.4593 6.04718 15.3956 5.9778 15.2898C5.90843 15.1841 5.89718 15.0502 5.9478 14.9343L8.9478 8.06057C9.00743 7.92407 9.1428 7.83557 9.29168 7.83557L17.167 7.8442C17.3047 7.8442 17.4314 7.91995 17.4967 8.04107C17.5623 8.1622 17.5559 8.30957 17.4802 8.42432L12.9802 15.2894C12.9108 15.3956 12.7931 15.4593 12.6667 15.4593ZM6.8643 14.7093H12.4642L16.4729 8.59345L9.53693 8.58557L6.8643 14.7093Z" fill="black"/>
    <path d="M12.5733 15.471C12.432 15.471 12.297 15.3911 12.2332 15.2546L7.9207 6.01872C7.83333 5.83122 7.91395 5.60772 8.10183 5.52034C8.2897 5.43334 8.51283 5.51359 8.6002 5.70147L12.9127 14.9373C13.0001 15.1248 12.9195 15.3483 12.7316 15.4357C12.6802 15.4597 12.6266 15.471 12.5733 15.471ZM19.1351 15.5726C18.9693 15.5726 18.8175 15.4616 18.7728 15.2936L16.1748 5.47534H13.9792C13.7718 5.47534 13.6042 5.30772 13.6042 5.10034C13.6042 4.89297 13.7718 4.72534 13.9792 4.72534H16.4636C16.6338 4.72534 16.7827 4.84009 16.8262 5.00434L19.4981 15.1016C19.5513 15.3018 19.4317 15.507 19.2315 15.5602C19.1992 15.5688 19.167 15.5726 19.1351 15.5726Z" fill="black"/>
    <path d="M10.1823 6.14136H6.90106C6.69369 6.14136 6.52606 5.97373 6.52606 5.76636C6.52606 5.55898 6.69369 5.39136 6.90106 5.39136H10.1823C10.3897 5.39136 10.5573 5.55898 10.5573 5.76636C10.5573 5.97373 10.3897 6.14136 10.1823 6.14136ZM20.9167 10.125H18.6671C18.4901 10.125 18.3374 10.0016 18.3003 9.82873L17.5499 6.32848C17.5263 6.21748 17.5537 6.10198 17.6249 6.01386C17.6958 5.92611 17.8034 5.87473 17.9163 5.87473H21.2913C21.3978 5.87473 21.4991 5.91973 21.5703 5.99923C21.6412 6.07836 21.6753 6.18373 21.6641 6.28948L21.2891 9.78973C21.2688 9.98023 21.1083 10.125 20.9167 10.125ZM18.9704 9.37498H20.5799L20.8743 6.62473H18.3809L18.9704 9.37498Z" fill="black"/>
    <path d="M18.1492 7.71372C18.1469 7.71372 18.1447 7.71372 18.1424 7.71372L17.0437 7.6946C16.8367 7.69085 16.6717 7.52022 16.6754 7.31285C16.6792 7.10585 16.8457 6.9326 17.0572 6.9446L18.1559 6.96372C18.3629 6.96747 18.5279 7.1381 18.5242 7.34547C18.5204 7.55022 18.3536 7.71372 18.1492 7.71372ZM19.7617 10.125C19.5543 10.125 19.3867 9.95735 19.3867 9.74997V6.25122C19.3867 6.04385 19.5543 5.87622 19.7617 5.87622C19.9691 5.87622 20.1367 6.04385 20.1367 6.25122V9.74997C20.1367 9.95735 19.9691 10.125 19.7617 10.125Z" fill="black"/>
    <path d="M21.0254 9.09372H18.4454C18.2381 9.09372 18.0704 8.9261 18.0704 8.71872C18.0704 8.51135 18.2381 8.34372 18.4454 8.34372H21.0254C21.2328 8.34372 21.4004 8.51135 21.4004 8.71872C21.4004 8.9261 21.2328 9.09372 21.0254 9.09372ZM21.1492 7.93872H18.1979C17.9906 7.93872 17.8229 7.7711 17.8229 7.56372C17.8229 7.35635 17.9906 7.18872 18.1979 7.18872H21.1492C21.3566 7.18872 21.5242 7.35635 21.5242 7.56372C21.5242 7.7711 21.3566 7.93872 21.1492 7.93872Z" fill="black"/>
</svg>