<svg xmlns="http://www.w3.org/2000/svg" width="24" height="24" viewBox="0 0 24 24" fill="none">
    <path d="M6.14478 15.0341L5.01978 18.0266H5.96384L6.10971 17.5326H7.15971L7.30971 18.0266H8.27796L7.15296 15.0341H6.14478ZM6.3109 16.8857L6.63753 15.8098L6.9679 16.8857H6.3109ZM9.56084 9.35156C9.69809 9.33021 9.83414 9.30179 9.96846 9.26644C10.0888 9.24312 10.2037 9.19732 10.3071 9.13144C10.4218 9.0487 10.5125 8.93685 10.5696 8.80744C10.6286 8.67318 10.6503 8.52549 10.6324 8.37994C10.6203 8.20915 10.5489 8.04796 10.4305 7.92431C10.2921 7.79938 10.116 7.7241 9.93003 7.71037C10.0488 7.66024 10.1522 7.57973 10.23 7.47693C10.3259 7.34005 10.3672 7.17225 10.3457 7.0065C10.3369 6.90693 10.3067 6.81045 10.2571 6.72365C10.2075 6.63686 10.1397 6.5618 10.0585 6.50362C9.85717 6.37068 9.61261 6.31989 9.37503 6.36169L7.65396 6.54712L7.97459 9.52237L9.56084 9.35156ZM9.58071 8.17406C9.61478 8.19624 9.64327 8.22598 9.66395 8.26098C9.68464 8.29597 9.69696 8.33527 9.69996 8.37581C9.70633 8.41823 9.70308 8.46153 9.69046 8.50252C9.67783 8.54351 9.65616 8.58114 9.62703 8.61262C9.53539 8.68886 9.42034 8.73129 9.30115 8.73281L8.8324 8.78325L8.76753 8.18044L9.2344 8.13019C9.35168 8.10608 9.47364 8.12144 9.58127 8.17387L9.58071 8.17406ZM9.0514 7.0065C9.1535 6.98539 9.25975 7.00002 9.35234 7.04794C9.38342 7.07026 9.4091 7.09926 9.42749 7.13281C9.44589 7.16636 9.45654 7.20361 9.45865 7.24181C9.46553 7.28125 9.4636 7.32172 9.453 7.36033C9.4424 7.39894 9.42339 7.43472 9.39734 7.46512C9.31542 7.5332 9.21247 7.57083 9.10596 7.57162L8.70621 7.61475L8.64546 7.05037L9.0514 7.0065Z" fill="black"/>
    <path d="M21.7688 17.4514L18.6992 9.81906C18.6666 9.73839 18.6034 9.67392 18.5234 9.6398C18.4433 9.60567 18.353 9.60466 18.2723 9.637L14.0282 11.3438L13.1636 3.32125C13.1543 3.23473 13.1109 3.15547 13.0431 3.10087C12.9754 3.04628 12.8887 3.02081 12.8021 3.03006L4.62283 3.91131C4.57993 3.91589 4.53835 3.92888 4.50047 3.94954C4.4626 3.9702 4.42916 3.99813 4.40208 4.03172C4.375 4.06531 4.35481 4.10391 4.34266 4.14531C4.33051 4.18671 4.32664 4.2301 4.33127 4.273L5.17352 12.0891H2.53558C2.44856 12.0891 2.3651 12.1237 2.30356 12.1852C2.24203 12.2468 2.20746 12.3302 2.20746 12.4172V20.6438C2.20746 20.7308 2.24203 20.8143 2.30356 20.8758C2.3651 20.9374 2.44856 20.9719 2.53558 20.9719H10.7625C10.8495 20.9719 10.933 20.9374 10.9945 20.8758C11.0561 20.8143 11.0906 20.7308 11.0906 20.6438V14.7068L13.5281 20.7662C13.5607 20.847 13.6239 20.9114 13.704 20.9456C13.784 20.9797 13.8743 20.9807 13.9551 20.9483L21.5869 17.8786C21.6676 17.846 21.7322 17.7828 21.7663 17.7027C21.8004 17.6226 21.8013 17.5322 21.7688 17.4514ZM12.5462 3.71781L13.3573 11.2446L5.83127 12.0563L5.01958 4.52894L12.5462 3.71781ZM2.86371 20.3157V12.7454H10.434V20.3157H2.86371ZM10.9667 12.1624L12.3692 12.0113L11.0903 12.5251V12.4167C11.0901 12.3678 11.0789 12.3195 11.0575 12.2755C11.0361 12.2315 11.0051 12.1928 10.9667 12.1624ZM14.014 20.2171L11.1891 13.1933L18.2126 10.3688L21.0375 17.392L14.014 20.2171Z" fill="black"/>
    <path d="M16.8129 15.3037C16.8476 15.4612 16.8403 15.6249 16.7917 15.7787C16.7226 15.9163 16.6028 16.0219 16.4575 16.0732C16.3123 16.1245 16.1528 16.1176 16.0125 16.0539C15.8232 15.9086 15.6852 15.7066 15.6187 15.4774C15.5286 15.2933 15.4931 15.0872 15.5164 14.8835C15.5467 14.7478 15.6246 14.6274 15.7358 14.544C15.8471 14.4605 15.9845 14.4196 16.1233 14.4285C16.2076 14.4362 16.2888 14.4638 16.3603 14.5091C16.4207 14.5512 16.474 14.6026 16.5184 14.6614L17.208 14.1881C17.0294 13.9582 16.7809 13.7926 16.5 13.7162C16.1915 13.6612 15.8736 13.703 15.5899 13.8358C15.3961 13.8999 15.2175 14.0028 15.0648 14.1382C14.9122 14.2736 14.7887 14.4386 14.7019 14.6233C14.6307 14.8182 14.5993 15.0253 14.6095 15.2325C14.6198 15.4397 14.6714 15.6427 14.7613 15.8297C14.8684 16.1312 15.0589 16.3962 15.3107 16.5937C15.5067 16.7461 15.7433 16.8374 15.9909 16.8562C16.2639 16.8577 16.5341 16.8011 16.7835 16.6901C16.9965 16.6127 17.191 16.4917 17.3546 16.335C17.4857 16.2 17.5805 16.0339 17.6301 15.8524C17.6827 15.6484 17.6916 15.4356 17.6563 15.228L16.8129 15.3037Z" fill="black"/>
</svg>