<svg xmlns="http://www.w3.org/2000/svg" width="25" height="24" viewBox="0 0 25 24" fill="none">
    <path fill-rule="evenodd" clip-rule="evenodd" d="M17.8734 11.7832H16.1628C15.8934 11.7832 15.9285 12.0762 15.9285 12.2519H18.6702C18.6702 11.7129 18.6116 11.7715 17.8734 11.7832ZM20.2402 22H4.70414C4.54011 22 4.41123 21.8594 4.41123 21.6954V14.4312H3.63794C3.47391 14.4312 3.33331 14.2906 3.33331 14.1265V12.5565C3.33331 12.2636 3.60279 12.2519 3.8254 12.2519C3.73167 11.9824 3.77854 10.9982 3.77854 10.6702C3.77854 8.77211 5.44228 8.53779 6.71937 8.08084V7.34271C6.22728 7.00293 5.85235 6.4874 5.70004 5.87815C5.52429 5.72583 5.43056 5.50322 5.43056 5.26889C5.43056 4.9174 5.62974 4.80023 5.62974 4.68307V4.50732C5.62974 3.12478 6.75452 2 8.13706 2C9.51961 2 10.6561 3.12478 10.6561 4.50732L10.6444 4.74165C10.785 4.88225 10.8553 5.06971 10.8553 5.26889C10.8553 5.50322 10.7498 5.72583 10.5741 5.87815C10.4218 6.4874 10.0468 7.00293 9.55476 7.34271V8.08084C10.8084 8.52607 12.5073 8.7604 12.5073 10.6702C12.5073 10.9982 12.5542 11.9824 12.4604 12.2519H15.3193V12.0176C15.3193 11.5606 15.6942 11.174 16.1628 11.174H16.4206V10.6936H14.3585C13.843 10.6936 13.4212 10.2718 13.4212 9.7563V6.63972C13.4212 6.12419 13.843 5.7024 14.3585 5.7024H20.2402C20.7557 5.7024 21.1775 6.12419 21.1775 6.63972V9.7563C21.1775 10.2718 20.7557 10.6936 20.2402 10.6936H18.1781V11.174H18.4358C18.9045 11.174 19.2794 11.5606 19.2794 12.0176V12.2519H21.3064C21.4821 12.2519 21.611 12.3925 21.611 12.5565V14.1265C21.611 14.2906 21.4821 14.4312 21.3064 14.4312H20.5448V21.6954C20.5448 21.8594 20.4042 22 20.2402 22ZM5.00877 21.3907H19.9355V14.4312H5.00877V21.3907ZM4.61041 12.2519H5.25481V11.0217C5.25481 10.635 5.86407 10.635 5.86407 11.0217V12.2519H7.11773L7.58639 10.553L7.29348 10.0492L6.39131 8.8307C4.15347 9.53368 4.37608 9.99063 4.37608 11.9707C4.37608 12.123 4.48153 12.2519 4.61041 12.2519ZM7.7387 12.2519H8.60572L8.21908 10.8108H8.13706L7.7387 12.2519ZM9.23841 12.2519H10.4101V11.0217C10.4101 10.635 11.0193 10.635 11.0193 11.0217V12.2519C12.0738 12.2519 11.898 12.4628 11.898 10.6702C11.898 9.48682 10.9607 9.17047 9.95312 8.84241L9.06266 10.0492L8.76975 10.553L9.23841 12.2519ZM3.94257 13.8219H21.0135V12.8612H3.94257V13.8219ZM7.24661 8.50264C7.17631 8.57294 7.08258 8.59637 7.00057 8.63152L7.52781 9.34622L7.77385 8.98301L7.24661 8.50264ZM9.34386 8.64323L9.07438 8.53779L8.57057 8.98301L8.81662 9.35794L9.34386 8.64323ZM7.1646 6.9092C7.809 7.24897 8.47684 7.27241 9.10953 6.9092C9.56647 6.63972 9.89453 6.19449 10.0117 5.64382C10.0468 5.46807 10.246 5.44464 10.246 5.26889C10.246 5.17516 10.1757 5.1283 10.1171 5.06971C9.19155 5.28061 8.05505 5.04628 7.43408 4.31986C7.0943 4.62449 6.68422 4.83538 6.22728 4.92912C6.20385 5.06971 6.0281 5.1283 6.0281 5.26889C6.0281 5.44464 6.239 5.46807 6.27415 5.64382C6.37959 6.18278 6.71937 6.63972 7.1646 6.9092ZM7.32863 7.64733V7.7645L8.17221 8.52607L8.9455 7.8348V7.64733C8.44169 7.82308 7.84415 7.82308 7.32863 7.64733ZM8.26594 10.2015L8.45341 9.88518L8.17221 9.4751L7.90273 9.88518L8.07848 10.2015H8.26594ZM6.25071 4.30814C7.10601 4.05038 7.15288 3.49971 7.49266 3.53486C7.59811 3.54657 7.68012 3.60516 7.7387 3.69889C8.12535 4.42531 9.23841 4.68307 10.0468 4.46046C10.0117 3.42941 9.16811 2.60926 8.13706 2.60926C7.1646 2.60926 6.34444 3.34739 6.25071 4.30814ZM18.1781 10.0844H20.2402C20.4276 10.0844 20.5682 9.93204 20.5682 9.7563V6.63972C20.5682 6.45226 20.4276 6.29994 20.2402 6.29994H14.3585C14.1828 6.29994 14.0304 6.45226 14.0304 6.63972V9.7563C14.0304 9.93204 14.1828 10.0844 14.3585 10.0844H16.4206V9.45167C16.4206 9.11189 16.7018 8.8307 17.0416 8.8307H17.5571C17.8969 8.8307 18.1781 9.11189 18.1781 9.45167V10.0844ZM17.0299 11.174H17.5688V9.45167C17.5688 9.42824 17.0299 9.42824 17.0299 9.45167V11.174Z" fill="black"/>
</svg>