<svg xmlns="http://www.w3.org/2000/svg" width="25" height="24" viewBox="0 0 25 24" fill="none">
    <path d="M19.0667 14.2333L15.6667 13.1V12.0667C16.1 11.5333 16.4 10.9333 16.5667 10.2667L17.6 9.5C17.8667 9.3 18 9 18 8.7V8.36667C18 7.8 17.5667 7.36667 17 7.36667H16.6667V5.4L17.1 3.83333C17.2667 3.3 16.9334 2.73333 16.4 2.6C16.3667 2.6 16.3334 2.56667 16.2667 2.56667L12.6667 2L9.03335 2.56667C8.50002 2.66667 8.10002 3.16667 8.20002 3.7C8.20002 3.73333 8.20002 3.76667 8.23335 3.83333L8.66669 5.4V7.33333H8.33335C7.76669 7.33333 7.33335 7.76667 7.33335 8.33333V8.66667C7.33335 8.96667 7.46669 9.26667 7.73335 9.46667L8.76669 10.2333C8.93335 10.9 9.23335 11.5333 9.66669 12.0333V13.0667L6.26669 14.2C5.30002 14.5333 4.66669 15.4 4.66669 16.4V22H20.6667V16.4333C20.6667 15.4333 20.0334 14.5333 19.0667 14.2333ZM10.3334 12.7C10.3667 12.7333 10.4 12.7667 10.4667 12.8L10.7334 13C11.2 13.3333 11.7667 13.5667 12.3667 13.6333V15.1667L10.3667 14.1667V12.7H10.3334ZM13 13.6C13.6 13.5333 14.1334 13.3333 14.6334 12.9667L14.9 12.7667C14.9334 12.7333 14.9667 12.7 15.0334 12.6667V14.1L13.0334 15.1L13 13.6ZM16 5.66667V6.33333H9.33335V5.66667H16ZM15.6667 7C14.2 8.66667 11.6334 8.8 10 7.3C9.90002 7.2 9.80002 7.1 9.70002 7H15.6667ZM17 8C17.2 8 17.3334 8.13333 17.3334 8.33333V8.66667C17.3334 8.76667 17.3 8.86667 17.2 8.93333L16.6667 9.33333V9.3V8H17ZM8.90002 3.36667C8.96669 3.3 9.03335 3.23333 9.13335 3.23333L12.6667 2.66667L16.2 3.2C16.3667 3.23333 16.5 3.4 16.4667 3.56667V3.6L16.0667 5H9.26669L8.86669 3.63333C8.83335 3.53333 8.83335 3.43333 8.90002 3.36667ZM8.13335 8.93333C8.03335 8.86667 8.00002 8.76667 8.00002 8.66667V8.33333C8.00002 8.13333 8.13335 8 8.33335 8H8.66669V9.3V9.33333L8.13335 8.93333ZM9.33335 7.6C11.1334 9.43333 14.1 9.46667 15.9334 7.66667C15.9667 7.63333 15.9667 7.63333 16 7.6V9.3C16 10.4667 15.4334 11.5667 14.5 12.2667L14.2334 12.4667C13.3 13.1333 12.0334 13.1333 11.1 12.4667L10.8334 12.2667C9.90002 11.5667 9.33335 10.4667 9.33335 9.3V7.6ZM5.33335 16.4333C5.33335 15.7 5.80002 15.0667 6.46669 14.8667L9.66669 13.8V14.5333L12 15.7L11.3334 16.1333V21.3333H8.66669V18.3333H8.00002V21.3333H5.33335V16.4333ZM20 21.3333H17.3334V18.3333H16.6667V21.3333H12V16.5L12.8334 15.9333L15.6667 14.5333V13.8L18.8667 14.8667C19.5334 15.1 20 15.7333 20 16.4333V21.3333Z" fill="black"/>
</svg>