<svg xmlns="http://www.w3.org/2000/svg" width="19" height="18" viewBox="0 0 19 18" fill="none">
    <path d="M18.2754 18H15.1449C15.0412 18 14.9416 17.9588 14.8683 17.8854C14.7949 17.812 14.7536 17.7125 14.7536 17.6087V17.2174H4.57973V17.6087C4.57973 17.7125 4.5385 17.812 4.46512 17.8854C4.39174 17.9588 4.29221 18 4.18843 18H1.05799C0.954211 18 0.854681 17.9588 0.781297 17.8854C0.707914 17.812 0.666687 17.7125 0.666687 17.6087V0.391304C0.666687 0.287524 0.707914 0.187994 0.781297 0.11461C0.854681 0.0412266 0.954211 0 1.05799 0H18.2754C18.3792 0 18.4787 0.0412266 18.5521 0.11461C18.6255 0.187994 18.6667 0.287524 18.6667 0.391304V17.6087C18.6667 17.7125 18.6255 17.812 18.5521 17.8854C18.4787 17.9588 18.3792 18 18.2754 18ZM15.5363 17.2174H17.8841V0.782609H1.4493V17.2174H3.79712V16.8261C3.79712 16.7223 3.83835 16.6228 3.91173 16.5494C3.98512 16.476 4.08465 16.4348 4.18843 16.4348H15.1449C15.2487 16.4348 15.3483 16.476 15.4216 16.5494C15.495 16.6228 15.5363 16.7223 15.5363 16.8261V17.2174Z" fill="black"/>
    <path d="M15.1449 17.2174H4.18839C4.08461 17.2174 3.98508 17.1762 3.9117 17.1028C3.83832 17.0294 3.79709 16.9299 3.79709 16.8261V4.30439C3.79709 4.20061 3.83832 4.10108 3.9117 4.0277C3.98508 3.95431 4.08461 3.91309 4.18839 3.91309H15.1449C15.2487 3.91309 15.3482 3.95431 15.4216 4.0277C15.495 4.10108 15.5362 4.20061 15.5362 4.30439V16.8261C15.5362 16.9299 15.495 17.0294 15.4216 17.1028C15.3482 17.1762 15.2487 17.2174 15.1449 17.2174ZM4.5797 16.4348H14.7536V4.69569H4.5797V16.4348Z" fill="black"/>
    <path d="M9.66663 17.2174C9.56285 17.2174 9.46332 17.1762 9.38994 17.1028C9.31656 17.0294 9.27533 16.9299 9.27533 16.8261V4.30439C9.27533 4.20061 9.31656 4.10108 9.38994 4.0277C9.46332 3.95431 9.56285 3.91309 9.66663 3.91309C9.77041 3.91309 9.86994 3.95431 9.94333 4.0277C10.0167 4.10108 10.0579 4.20061 10.0579 4.30439V16.8261C10.0579 16.9299 10.0167 17.0294 9.94333 17.1028C9.86994 17.1762 9.77041 17.2174 9.66663 17.2174Z" fill="black"/>
    <path d="M16.7102 8.60878C16.9263 8.60878 17.1015 8.43359 17.1015 8.21748C17.1015 8.00136 16.9263 7.82617 16.7102 7.82617C16.494 7.82617 16.3188 8.00136 16.3188 8.21748C16.3188 8.43359 16.494 8.60878 16.7102 8.60878Z" fill="black"/>
    <path d="M16.7102 10.174C16.9263 10.174 17.1015 9.99877 17.1015 9.78266C17.1015 9.56655 16.9263 9.39136 16.7102 9.39136C16.494 9.39136 16.3188 9.56655 16.3188 9.78266C16.3188 9.99877 16.494 10.174 16.7102 10.174Z" fill="black"/>
    <path d="M8.10135 3.13042C7.99753 3.13043 7.89793 3.08935 7.8243 3.01616L7.31874 2.50981L6.81317 3.01616C6.73937 3.08743 6.64053 3.12688 6.53793 3.12598C6.43533 3.12509 6.33719 3.08394 6.26463 3.01139C6.19208 2.93884 6.15093 2.84069 6.15004 2.7381C6.14915 2.6355 6.18859 2.53665 6.25987 2.46285L7.04248 1.68024C7.11586 1.60688 7.21537 1.56567 7.31913 1.56567C7.42289 1.56567 7.5224 1.60688 7.59578 1.68024L8.37839 2.46285C8.43299 2.51762 8.47013 2.58734 8.48513 2.6632C8.50014 2.73907 8.49232 2.81768 8.46268 2.8891C8.43304 2.96053 8.3829 3.02157 8.31859 3.06452C8.25428 3.10747 8.17868 3.1304 8.10135 3.13042ZM12.0144 3.13042C11.9106 3.13043 11.811 3.08935 11.7373 3.01616L10.9547 2.23355C10.8835 2.15975 10.844 2.0609 10.8449 1.9583C10.8458 1.8557 10.887 1.75756 10.9595 1.68501C11.0321 1.61246 11.1302 1.57131 11.2328 1.57041C11.3354 1.56952 11.4342 1.60896 11.508 1.68024L12.0144 2.18581L12.52 1.68024C12.5938 1.60896 12.6926 1.56952 12.7952 1.57041C12.8978 1.57131 12.9959 1.61246 13.0685 1.68501C13.141 1.75756 13.1822 1.8557 13.1831 1.9583C13.184 2.0609 13.1445 2.15975 13.0733 2.23355L12.2907 3.01616C12.2544 3.05245 12.2113 3.08122 12.1639 3.10083C12.1165 3.12044 12.0657 3.13049 12.0144 3.13042Z" fill="black"/>
</svg>