<svg xmlns="http://www.w3.org/2000/svg" width="24" height="24" viewBox="0 0 24 24" fill="none">
    <path d="M20.0962 5.8125H16.2019V3.28125C16.2019 3.20666 16.1746 3.13512 16.1259 3.08238C16.0772 3.02963 16.0112 3 15.9423 3H8.67308C8.60422 3 8.53819 3.02963 8.4895 3.08238C8.44081 3.13512 8.41346 3.20666 8.41346 3.28125V5.8125H4.51923C4.38152 5.8125 4.24945 5.87176 4.15208 5.97725C4.0547 6.08274 4 6.22582 4 6.375V7.5C4 7.57459 4.02735 7.64613 4.07604 7.69887C4.12473 7.75162 4.19076 7.78125 4.25962 7.78125V8.34375C4.25963 8.41834 4.28699 8.48986 4.33568 8.54259L5.11453 9.38634C5.16321 9.43909 5.22923 9.46873 5.29808 9.46875V14.5312H5.03846C4.96961 14.5312 4.90357 14.5609 4.85489 14.6136C4.8062 14.6664 4.77885 14.7379 4.77885 14.8125V17.3438C4.57228 17.3438 4.37418 17.4326 4.22812 17.5909C4.08206 17.7491 4 17.9637 4 18.1875V20.4375C4 20.5867 4.0547 20.7298 4.15208 20.8352C4.24945 20.9407 4.38152 21 4.51923 21H20.0962C20.2339 21 20.3659 20.9407 20.4633 20.8352C20.5607 20.7298 20.6154 20.5867 20.6154 20.4375V18.1875C20.6154 17.9637 20.5333 17.7491 20.3873 17.5909C20.2412 17.4326 20.0431 17.3438 19.8365 17.3438V14.8125C19.8365 14.7379 19.8092 14.6664 19.7605 14.6136C19.7118 14.5609 19.6458 14.5312 19.5769 14.5312H19.3173V9.46875C19.3862 9.46873 19.4522 9.43909 19.5009 9.38634L20.2797 8.54259C20.3284 8.48986 20.3558 8.41834 20.3558 8.34375V7.78125C20.4246 7.78125 20.4907 7.75162 20.5393 7.69887C20.588 7.64613 20.6154 7.57459 20.6154 7.5V6.375C20.6154 6.22582 20.5607 6.08274 20.4633 5.97725C20.3659 5.87176 20.2339 5.8125 20.0962 5.8125ZM13.6058 5.8125V4.96875H14.6442V5.8125H13.6058ZM11.5288 5.8125V4.96875H13.0865V5.8125H11.5288ZM9.97115 5.8125V4.96875H11.0096V5.8125H9.97115ZM12.5673 4.40625V3.5625H13.8654V4.40625H12.5673ZM12.0481 4.40625H10.75V3.5625H12.0481V4.40625ZM15.1635 4.96875H15.6827V5.8125H15.1635V4.96875ZM15.6827 4.40625H14.3846V3.5625H15.6827V4.40625ZM10.2308 3.5625V4.40625H8.93269V3.5625H10.2308ZM8.93269 4.96875H9.45192V5.8125H8.93269V4.96875ZM7.63462 9.46875V10.3125H5.81731V9.46875H7.63462ZM16.4615 9.46875V17.3438H15.1635V15.9375C15.1635 15.8629 15.1361 15.7914 15.0874 15.7386C15.0387 15.6859 14.9727 15.6562 14.9038 15.6562H14.0453C14.1392 15.5807 14.2254 15.4944 14.3023 15.3989C14.4312 15.2354 14.5276 15.045 14.5857 14.8394C14.6438 14.6338 14.6622 14.4175 14.6398 14.2039C14.6305 14.1419 14.6023 14.0851 14.5597 14.0425C14.5172 13.9998 14.4626 13.9739 14.4049 13.9688C14.3472 13.9647 14.29 13.9813 14.2419 14.0159C14.1938 14.0505 14.1575 14.1012 14.1385 14.1603C14.1016 14.2793 14.0559 14.3411 14.0347 14.3327C14.0151 14.3258 13.9972 14.3143 13.9823 14.299C13.9673 14.2838 13.9557 14.2651 13.9482 14.2444C13.9578 14.2338 13.9691 14.2254 13.9817 14.2196C14.6131 13.8776 14.2932 12.524 14.1375 11.9949C14.1289 11.9528 14.1157 11.912 14.098 11.8734C14.0688 11.8096 14.0183 11.7602 13.9567 11.7352C13.8951 11.7102 13.8271 11.7114 13.7663 11.7386C13.7056 11.7658 13.6566 11.817 13.6293 11.8818C13.602 11.9466 13.5984 12.0202 13.6193 12.0878C13.6234 12.1018 13.6278 12.1159 13.632 12.1297C13.6411 12.2869 13.3776 12.6823 13.1603 12.8831C13.2048 12.7152 13.26 12.5509 13.3254 12.3912C13.6421 11.5911 13.6805 10.9346 13.4404 10.4399C13.3551 10.2702 13.238 10.1216 13.0966 10.0038C12.9552 9.88592 12.7926 9.8014 12.6192 9.75562C12.5652 9.74161 12.5085 9.74673 12.4574 9.77021C12.4063 9.7937 12.3634 9.83433 12.3352 9.88612C12.3082 9.93673 12.2976 9.99563 12.3051 10.0535C12.3125 10.1114 12.3375 10.1649 12.3762 10.2056C12.3762 10.2056 12.3687 10.3204 12.127 10.5774C12.1021 10.6031 12.0821 10.634 12.0683 10.6681C12.0545 10.7022 12.0471 10.739 12.0465 10.7763C12.0459 10.8135 12.0522 10.8506 12.0649 10.8852C12.0777 10.9198 12.0966 10.9513 12.1207 10.978C12.1448 11.0046 12.1735 11.0257 12.2052 11.0402C12.2369 11.0547 12.271 11.0622 12.3054 11.0623C12.3398 11.0624 12.3739 11.0551 12.4056 11.0408C12.4374 11.0265 12.4662 11.0055 12.4905 10.9791C12.63 10.8405 12.7456 10.6761 12.8319 10.4936C12.8928 10.5531 12.9436 10.6239 12.9817 10.7026C13.1431 11.035 13.0972 11.5427 12.849 12.1704C12.5548 12.9141 12.5312 13.2954 12.7683 13.4856C12.8965 13.5882 13.1257 13.6417 13.4923 13.3087C13.6083 13.2019 13.7145 13.0833 13.8093 12.9543C13.8612 13.3537 13.8464 13.6653 13.7504 13.717C13.6394 13.7692 13.5483 13.8611 13.4924 13.9773C13.4365 14.0935 13.4192 14.227 13.4433 14.3555C13.4718 14.4975 13.541 14.6261 13.641 14.723C13.741 14.8199 13.8667 14.88 14.0001 14.8949C13.9708 14.9474 13.9375 14.9971 13.9004 15.0434C13.5798 15.4445 12.9396 15.6562 12.0481 15.6562C11.8887 15.6562 10.4904 15.6 10.4904 13.9688V13.3146C10.6584 13.5238 10.8834 13.6697 11.1329 13.7314C11.1915 13.7363 11.2503 13.7276 11.3055 13.7059C11.3607 13.6841 11.4109 13.6497 11.4528 13.6051C11.6657 13.3745 11.5434 13.0665 11.445 12.8176C11.2817 12.4081 11.141 12.0543 11.6729 11.6701C11.7013 11.6496 11.7257 11.6232 11.7446 11.5925C11.7636 11.5619 11.7768 11.5274 11.7835 11.4912C11.7901 11.455 11.7902 11.4177 11.7835 11.3814C11.7769 11.3452 11.7638 11.3107 11.7448 11.28C11.7259 11.2493 11.7016 11.2229 11.6733 11.2023C11.6449 11.1818 11.6131 11.1675 11.5797 11.1603C11.5463 11.153 11.5118 11.153 11.4784 11.1602C11.4449 11.1673 11.4131 11.1816 11.3848 11.2021C10.5119 11.8324 10.7892 12.5901 10.9572 13.0128C10.7873 12.8447 10.6309 12.6613 10.4899 12.4643C10.4871 12.3898 10.4572 12.3194 10.4066 12.2687C10.356 12.2181 10.2889 12.1913 10.22 12.1942C10.1511 12.1971 10.0862 12.2296 10.0394 12.2844C9.99266 12.3393 9.96792 12.412 9.97063 12.4866V13.9688C9.95542 14.2847 10.0058 14.6003 10.1182 14.8924C10.2305 15.1844 10.4019 15.4455 10.6197 15.6562H9.71154C9.64268 15.6562 9.57665 15.6859 9.52796 15.7386C9.47928 15.7914 9.45192 15.8629 9.45192 15.9375V17.3438H8.15385V9.46875H16.4615ZM16.9808 12.2812H18.7981V13.125H16.9808V12.2812ZM18.7981 11.7188H16.9808V10.875H18.7981V11.7188ZM9.97115 17.3438V16.2188H14.6442V17.3438H9.97115ZM7.63462 11.7188H5.81731V10.875H7.63462V11.7188ZM5.81731 12.2812H7.63462V13.125H5.81731V12.2812ZM5.81731 13.6875H7.63462V14.5312H5.81731V13.6875ZM5.29808 15.0938H7.63462V17.3438H5.29808V15.0938ZM4.51923 20.4375V19.5938H20.0962V20.4375H4.51923ZM20.0962 18.1875V19.0312H4.51923V18.1875C4.51923 18.1129 4.54658 18.0414 4.59527 17.9886C4.64396 17.9359 4.70999 17.9062 4.77885 17.9062H19.8365C19.9054 17.9062 19.9714 17.9359 20.0201 17.9886C20.0688 18.0414 20.0962 18.1129 20.0962 18.1875ZM16.9808 17.3438V15.0938H19.3173V17.3438H16.9808ZM16.9808 14.5312V13.6875H18.7981V14.5312H16.9808ZM18.7981 10.3125H16.9808V9.46875H18.7981V10.3125ZM19.8365 8.22731L19.2098 8.90625H5.40556L4.77885 8.22731V7.78125H5.03846C5.10732 7.78125 5.17335 7.75162 5.22204 7.69887C5.27072 7.64613 5.29808 7.57459 5.29808 7.5C5.29808 7.42541 5.27072 7.35387 5.22204 7.30113C5.17335 7.24838 5.10732 7.21875 5.03846 7.21875H4.51923V6.375H20.0962V7.21875H6.07692C6.00807 7.21875 5.94204 7.24838 5.89335 7.30113C5.84466 7.35387 5.81731 7.42541 5.81731 7.5C5.81731 7.57459 5.84466 7.64613 5.89335 7.69887C5.94204 7.75162 6.00807 7.78125 6.07692 7.78125H19.8365V8.22731Z" fill="black"/>
</svg>