<svg xmlns="http://www.w3.org/2000/svg" width="24" height="24" viewBox="0 0 24 24" fill="none">
    <path d="M7.1999 3.99974V2.39966H4.7999C3.47486 2.39966 2.3999 3.47462 2.3999 4.79966V19.2001C2.3999 20.5252 3.47486 21.6001 4.7999 21.6001H21.5999V3.99974H7.1999ZM3.99998 4.79966C3.99998 4.35878 4.35926 3.99974 4.7999 3.99974H5.59982V16.8001H4.7999C4.5179 16.8001 4.2515 16.858 3.99998 16.947V4.79966ZM19.9998 20.0001H4.7999C4.35926 20.0001 3.99998 19.6408 3.99998 19.2001C3.99998 18.7578 4.35926 18.4002 4.7999 18.4002H7.1999V13.5997H10.3998V18.4002H13.6V16.8001H11.9999V13.5997H13.6V11.9997H7.1999V8.79974H10.3998V10.3998H11.9999V8.79974H16.7999V11.9997H15.1998V13.5997H16.7999V16.8001H15.1998V18.4002H18.4V7.19966H7.1999V5.59982H19.9998V20.0001Z" fill="#0EA5E9"/>
</svg>