<svg xmlns="http://www.w3.org/2000/svg" width="24" height="24" viewBox="0 0 24 24" fill="none">
    <path d="M21.1143 8.16711H18.3627C18.7326 7.76091 18.9603 7.22301 18.9603 6.63171C18.9603 5.37156 17.9351 4.34616 16.6748 4.34616C15.4146 4.34616 14.3894 5.37141 14.3894 6.63171C14.3894 7.22301 14.6171 7.76091 14.987 8.16711H9.36137C9.46277 7.96971 9.51797 7.74876 9.51797 7.52151C9.51797 7.06251 9.28682 6.64161 8.89982 6.39546L8.68067 6.25611C8.23232 5.97081 7.92182 5.51751 7.80647 5.00661H9.81422C9.93392 5.00661 10.0464 4.94946 10.1171 4.85286C10.1877 4.75626 10.2078 4.63161 10.1715 4.51776L9.09602 1.14711C9.04637 0.991558 8.90192 0.886108 8.73872 0.886108H7.02722C7.02257 0.886108 7.01762 0.886108 7.01282 0.886108H5.30132C5.13812 0.886108 4.99367 0.991708 4.94402 1.14711L3.86867 4.51776C3.83237 4.63176 3.85262 4.75626 3.92312 4.85286C3.99377 4.94961 4.10627 5.00661 4.22597 5.00661H6.21992C6.10472 5.51766 5.79422 5.97096 5.34557 6.25626L5.12672 6.39561C4.73957 6.64191 4.50842 7.06281 4.50842 7.52166C4.50842 7.74891 4.56362 7.97001 4.66502 8.16726H2.88572C2.59577 8.16726 2.36072 8.40231 2.36072 8.69226V20.7641C2.36072 21.0541 2.59577 21.2891 2.88572 21.2891H4.32647V22.5895C4.32647 22.8794 4.56152 23.1145 4.85147 23.1145H19.1484C19.4384 23.1145 19.6734 22.8794 19.6734 22.5895V21.2891H21.1142C21.4041 21.2891 21.6392 21.0541 21.6392 20.7641V8.69211C21.6393 8.40216 21.4041 8.16711 21.1143 8.16711ZM15.1392 6.63171C15.1392 5.78496 15.828 5.09616 16.6746 5.09616C17.5212 5.09616 18.2102 5.78496 18.2102 6.63171C18.2102 7.47846 17.5212 8.16711 16.6746 8.16711C15.828 8.16711 15.1392 7.47831 15.1392 6.63171ZM5.57537 1.63596H7.01297C7.01762 1.63596 7.02257 1.63596 7.02737 1.63596H8.46497L9.30107 4.25661H4.73927L5.57537 1.63596ZM5.53472 8.06031C5.36177 7.93596 5.25842 7.73451 5.25842 7.52151C5.25842 7.32051 5.35967 7.13616 5.52947 7.02816L5.74832 6.88881C6.41282 6.46626 6.86117 5.77626 6.98582 5.00646H7.04057C7.16522 5.77611 7.61357 6.46611 8.27807 6.88881L8.49722 7.02816C8.66672 7.13601 8.76797 7.32036 8.76797 7.52136C8.76797 7.73436 8.66477 7.93581 8.49182 8.06016C8.39462 8.13006 8.27972 8.16696 8.15987 8.16696H7.01342H7.01282H5.86652C5.74682 8.16711 5.63192 8.13006 5.53472 8.06031ZM20.5893 9.21711V12.9892H3.41072V9.21711H20.5893ZM3.41072 14.0392H11.475V20.2388H4.85162H3.41087L3.41072 14.0392ZM18.6234 22.0642H5.37662V21.2888H18.6236L18.6234 22.0642ZM19.1484 20.239H12.525V14.0392H20.5893V20.2388L19.1484 20.239Z" fill="black"/>
    <path d="M17.1521 6.2566H17.0496V5.7688C17.0496 5.56165 16.8818 5.3938 16.6746 5.3938C16.4675 5.3938 16.2996 5.56165 16.2996 5.7688V6.6316C16.2996 6.83875 16.4675 7.0066 16.6746 7.0066H17.1521C17.3592 7.0066 17.5271 6.83875 17.5271 6.6316C17.5271 6.42445 17.3592 6.2566 17.1521 6.2566ZM10.725 10.8515H13.275C13.4822 10.8515 13.65 10.6837 13.65 10.4765C13.65 10.2694 13.4822 10.1015 13.275 10.1015H10.725C10.5179 10.1015 10.35 10.2694 10.35 10.4765C10.35 10.6837 10.5179 10.8515 10.725 10.8515ZM10.0518 18.1763C10.259 18.1763 10.4268 18.0085 10.4268 17.8013V16.4767C10.4268 16.2695 10.259 16.1017 10.0518 16.1017C9.84467 16.1017 9.67682 16.2695 9.67682 16.4767V17.8013C9.67682 18.0083 9.84467 18.1763 10.0518 18.1763ZM13.9482 16.1015C13.7411 16.1015 13.5732 16.2694 13.5732 16.4765V17.8012C13.5732 18.0083 13.7411 18.1762 13.9482 18.1762C14.1554 18.1762 14.3232 18.0083 14.3232 17.8012V16.4765C14.3232 16.2695 14.1554 16.1015 13.9482 16.1015Z" fill="black"/>
</svg>