<svg xmlns="http://www.w3.org/2000/svg" width="22" height="20" viewBox="0 0 22 20" fill="none">
    <path d="M20.8768 20H0.6594C0.479162 20 0.333313 19.8539 0.333313 19.6739C0.333313 19.4938 0.479162 19.3478 0.6594 19.3478H20.8768C21.057 19.3478 21.2029 19.4938 21.2029 19.6739C21.2029 19.8539 21.057 20 20.8768 20Z" fill="#1D1D1D"/>
    <path d="M2.40684 20C2.22198 20 2.07239 19.861 2.07239 19.6895V7.2671C2.07239 7.0956 2.22198 6.95654 2.40684 6.95654C2.5917 6.95654 2.74128 7.0956 2.74128 7.2671V19.6895C2.74128 19.861 2.5917 20 2.40684 20ZM19.1292 20C18.9444 20 18.7948 19.861 18.7948 19.6895V7.2671C18.7948 7.0956 18.9444 6.95654 19.1292 6.95654C19.3141 6.95654 19.4637 7.0956 19.4637 7.2671V19.6895C19.4637 19.861 19.3141 20 19.1292 20Z" fill="#1D1D1D"/>
    <path d="M20.0144 7.49995H1.52166C1.34543 7.49995 1.20282 7.36003 1.20282 7.18745V5.93745C1.20282 5.82942 1.2598 5.72901 1.35352 5.67194L10.5999 0.0469221C10.7027 -0.0156407 10.8334 -0.0156407 10.9362 0.0469221L20.1826 5.67194C20.2763 5.72901 20.3333 5.82942 20.3333 5.93745V7.18745C20.3333 7.36003 20.1906 7.49995 20.0144 7.49995ZM1.8405 6.87495H19.6956V6.11124L10.768 0.680165L1.8405 6.11124V6.87495ZM16.826 20C16.6498 20 16.5072 19.8601 16.5072 19.6875V10.3125H5.02891V19.6875C5.02891 19.8601 4.8863 20 4.71007 20C4.53383 20 4.39123 19.8601 4.39123 19.6875V9.99996C4.39123 9.82738 4.53383 9.68746 4.71007 9.68746H16.826C17.0022 9.68746 17.1448 9.82738 17.1448 9.99996V19.6875C17.1448 19.8601 17.0022 20 16.826 20Z" fill="#1D1D1D"/>
    <path d="M11.0943 5.21739H10.116C9.93576 5.21739 9.78991 5.07138 9.78991 4.8913C9.78991 4.71122 9.93576 4.56521 10.116 4.56521H11.0943C11.2742 4.56521 11.4203 4.41889 11.4203 4.23913C11.4203 4.05936 11.2742 3.91304 11.0943 3.91304H10.116C9.93576 3.91304 9.78991 3.76703 9.78991 3.58695C9.78991 3.40687 9.93576 3.26086 10.116 3.26086H11.0943C11.6337 3.26086 12.0725 3.69968 12.0725 4.23913C12.0725 4.77857 11.6337 5.21739 11.0943 5.21739ZM8.81165 5.21739C8.72694 5.21739 8.64192 5.1814 8.58014 5.12281C8.52123 5.06087 8.48556 4.97601 8.48556 4.8913C8.48556 4.80643 8.52123 4.72173 8.58014 4.65979C8.70401 4.5391 8.92247 4.5391 9.04316 4.65979C9.10175 4.72173 9.13774 4.80643 9.13774 4.8913C9.13774 4.97601 9.10175 5.06087 9.04316 5.12281C8.98106 5.1814 8.89954 5.21739 8.81165 5.21739ZM13.0508 5.21739C12.9626 5.21739 12.881 5.1814 12.8193 5.11947C12.7604 5.06087 12.7247 4.97935 12.7247 4.8913C12.7247 4.80643 12.7604 4.72173 12.8193 4.65979C12.94 4.5391 13.1584 4.5391 13.2823 4.65979C13.3409 4.72173 13.3769 4.80643 13.3769 4.8913C13.3769 4.97935 13.3409 5.06087 13.2791 5.12281C13.2202 5.1814 13.1355 5.21739 13.0508 5.21739ZM14.3551 5.21739C14.2704 5.21739 14.1854 5.18474 14.1236 5.12281C14.0615 5.06087 14.029 4.97601 14.029 4.8913C14.029 4.80643 14.0647 4.72173 14.1236 4.65979C14.2475 4.5391 14.4659 4.5391 14.5866 4.65979C14.6452 4.72173 14.6812 4.80325 14.6812 4.8913C14.6812 4.97601 14.6452 5.06087 14.5866 5.12281C14.5245 5.1814 14.4398 5.21739 14.3551 5.21739ZM7.5073 5.21739C7.42259 5.21739 7.33757 5.1814 7.27579 5.12281C7.21688 5.06087 7.18121 4.97935 7.18121 4.8913C7.18121 4.80643 7.21688 4.72173 7.27579 4.65979C7.39967 4.5391 7.61494 4.5391 7.73881 4.65979C7.7974 4.72173 7.83339 4.80643 7.83339 4.8913C7.83339 4.97601 7.7974 5.06087 7.73881 5.12281C7.67671 5.1814 7.59201 5.21739 7.5073 5.21739Z" fill="#1D1D1D"/>
    <path d="M10.7681 18.1521C10.6834 18.1521 10.5984 18.1162 10.5366 18.0576C10.4777 17.9956 10.442 17.9108 10.442 17.8261C10.442 17.7412 10.4777 17.6565 10.5366 17.5945C10.6573 17.4739 10.8789 17.4739 10.9996 17.5945C11.0582 17.6565 11.0942 17.738 11.0942 17.8261C11.0942 17.9141 11.0582 17.9956 10.9996 18.0576C10.9375 18.1162 10.856 18.1521 10.7681 18.1521Z" fill="#1D1D1D"/>
</svg>