<svg xmlns="http://www.w3.org/2000/svg" width="22" height="22" viewBox="0 0 22 22" fill="none">
    <path d="M9.36234 21H11.971M10.6667 21V14.9461M10.6667 13.207V7.95652M10.6667 7.95652C8.82582 7.95652 7.33364 8.93043 7.33364 10.1304C7.33364 8.93043 5.8406 7.95652 3.99973 7.95652C2.15886 7.95652 0.666687 8.93043 0.666687 10.1304C0.666687 4.60783 5.88408 1.86957 10.6667 1.86957M10.6667 7.95652C12.5076 7.95652 13.9997 8.93043 13.9997 10.1304C13.9997 8.93043 15.4928 7.95652 17.3336 7.95652C19.1745 7.95652 20.6667 8.93043 20.6667 10.1304C20.6667 4.60783 15.4493 1.86957 10.6667 1.86957M18.9276 21V10.5652M18.9276 16.6522H14.5797V21M2.40582 21V10.5652M2.40582 16.6522H6.75364V21M10.6667 1.86957V1M15.4493 14.913H5.88408C5.65346 14.913 5.43228 14.8214 5.2692 14.6584C5.10613 14.4953 5.01451 14.2741 5.01451 14.0435C5.01451 13.8129 5.10613 13.5917 5.2692 13.4286C5.43228 13.2655 5.65346 13.1739 5.88408 13.1739H15.4493C15.6799 13.1739 15.9011 13.2655 16.0642 13.4286C16.2272 13.5917 16.3189 13.8129 16.3189 14.0435C16.3189 14.2741 16.2272 14.4953 16.0642 14.6584C15.9011 14.8214 15.6799 14.913 15.4493 14.913Z" stroke="#303C42" stroke-miterlimit="10" stroke-linecap="round" stroke-linejoin="round"/>
</svg>