<svg xmlns="http://www.w3.org/2000/svg" width="17" height="16" viewBox="0 0 17 16" fill="none">
    <path d="M16.6314 15.4703H15.3861V6.83654H15.8719C15.9419 6.83654 16.009 6.80873 16.0585 6.75922C16.108 6.70971 16.1358 6.64257 16.1358 6.57255V5.26844C16.1358 5.19843 16.108 5.13128 16.0585 5.08177C16.009 5.03227 15.9419 5.00445 15.8719 5.00445H13.6834V4.4279H13.8378C13.9078 4.4279 13.975 4.40009 14.0245 4.35058C14.074 4.30107 14.1018 4.23392 14.1018 4.16391V2.32496C14.1018 2.25494 14.074 2.1878 14.0245 2.13829C13.975 2.08878 13.9078 2.06097 13.8378 2.06097H10.0316C10.0742 2.03923 10.11 2.00623 10.1352 1.96554C10.1603 1.92486 10.1738 1.87806 10.1742 1.83024V1.31124H10.351V1.62538C10.351 1.6954 10.3788 1.76255 10.4284 1.81205C10.4779 1.86156 10.545 1.88937 10.615 1.88937C10.685 1.88937 10.7522 1.86156 10.8017 1.81205C10.8512 1.76255 10.879 1.6954 10.879 1.62538V1.31124H11.0041C11.0742 1.31124 11.1413 1.28342 11.1908 1.23392C11.2403 1.18441 11.2681 1.11726 11.2681 1.04725C11.2681 0.977233 11.2403 0.910086 11.1908 0.860578C11.1413 0.811071 11.0742 0.783258 11.0041 0.783258H10.8793V0.46911C10.8793 0.399095 10.8515 0.331948 10.802 0.282441C10.7525 0.232933 10.6853 0.20512 10.6153 0.20512C10.5453 0.20512 10.4781 0.232933 10.4286 0.282441C10.3791 0.331948 10.3513 0.399095 10.3513 0.46911V0.783258H10.1742V0.26399C10.1742 0.193975 10.1464 0.126828 10.0968 0.0773208C10.0473 0.0278131 9.98019 0 9.91017 0C9.84016 0 9.77301 0.0278131 9.72351 0.0773208C9.674 0.126828 9.64618 0.193975 9.64618 0.26399V0.783258H7.37534V0.26399C7.37534 0.193975 7.34753 0.126828 7.29802 0.0773208C7.24852 0.0278131 7.18137 0 7.11135 0C7.04134 0 6.97419 0.0278131 6.92469 0.0773208C6.87518 0.126828 6.84737 0.193975 6.84737 0.26399V0.783258H6.67049V0.46911C6.67049 0.399095 6.64268 0.331948 6.59317 0.282441C6.54366 0.232933 6.47652 0.20512 6.4065 0.20512C6.33649 0.20512 6.26934 0.232933 6.21983 0.282441C6.17033 0.331948 6.14251 0.399095 6.14251 0.46911V0.783258H5.91284C5.84283 0.783258 5.77568 0.811071 5.72617 0.860578C5.67667 0.910086 5.64885 0.977233 5.64885 1.04725C5.64885 1.11726 5.67667 1.18441 5.72617 1.23392C5.77568 1.28342 5.84283 1.31124 5.91284 1.31124H6.14251V1.62538C6.14251 1.6954 6.17033 1.76255 6.21983 1.81205C6.26934 1.86156 6.33649 1.88937 6.4065 1.88937C6.47652 1.88937 6.54366 1.86156 6.59317 1.81205C6.64268 1.76255 6.67049 1.6954 6.67049 1.62538V1.31124H6.84737V1.83024C6.84774 1.87806 6.86124 1.92486 6.88637 1.96554C6.91151 2.00623 6.94732 2.03923 6.98992 2.06097H3.08023C3.01022 2.06097 2.94307 2.08878 2.89356 2.13829C2.84406 2.1878 2.81624 2.25494 2.81624 2.32496V4.16391C2.81624 4.23392 2.84406 4.30107 2.89356 4.35058C2.94307 4.40009 3.01022 4.4279 3.08023 4.4279H3.23467V5.00445H1.04619C0.976177 5.00445 0.90903 5.03227 0.859522 5.08177C0.810015 5.13128 0.782201 5.19843 0.782201 5.26844V6.57255C0.782201 6.64257 0.810015 6.70971 0.859522 6.75922C0.90903 6.80873 0.976177 6.83654 1.04619 6.83654H1.53193V15.4703H0.26399C0.193975 15.4703 0.126828 15.4981 0.0773208 15.5476C0.0278131 15.5972 0 15.6643 0 15.7343C0 15.8043 0.0278131 15.8715 0.0773208 15.921C0.126828 15.9705 0.193975 15.9983 0.26399 15.9983C7.15148 16.0002 10.6918 16.0009 16.6314 15.9983C16.7014 15.9983 16.7685 15.9705 16.818 15.921C16.8675 15.8715 16.8953 15.8043 16.8953 15.7343C16.8953 15.6643 16.8675 15.5972 16.818 15.5476C16.7685 15.4981 16.7014 15.4703 16.6314 15.4703ZM7.37534 1.8305V1.31124H9.64618V1.83024C9.64656 1.87806 9.66005 1.92486 9.68519 1.96554C9.71033 2.00623 9.74614 2.03923 9.78874 2.06097H7.23279C7.27539 2.03923 7.3112 2.00623 7.33634 1.96554C7.36147 1.92486 7.37497 1.87832 7.37534 1.8305ZM3.34422 2.58921H13.5738V3.90018H3.34422V2.58921ZM14.8581 15.4706H13.6834V6.83654H14.8581V15.4706ZM8.16177 12.6145H5.7489V11.8753H8.16177V12.6145ZM5.7489 13.1425H8.16177V15.4709H5.7489V13.1425ZM8.68975 11.8756H11.1699V15.4706H8.68975V11.8756ZM11.6126 11.3476H5.30514V10.6715H11.6126V11.3476ZM11.6979 15.4706V11.8753C11.7293 11.8669 12.1406 11.9455 12.1406 11.6113V10.4075C12.1406 10.3375 12.1128 10.2704 12.0633 10.2209C12.0138 10.1714 11.9466 10.1435 11.8766 10.1435H8.45889H5.04115C4.97113 10.1435 4.90399 10.1714 4.85448 10.2209C4.80497 10.2704 4.77716 10.3375 4.77716 10.4075V11.6116C4.77716 11.6816 4.80497 11.7487 4.85448 11.7983C4.90399 11.8478 4.97113 11.8756 5.04115 11.8756H5.22013V15.3444L5.22092 15.3484V15.4706H3.76265V4.42896H13.1554V15.4703L11.6979 15.4706ZM15.6079 5.5327V6.30883H13.6834V5.5327H15.6079ZM1.31018 5.5327H3.23467V6.30883H1.31018V5.5327ZM2.05991 6.83681H3.23467V15.4706H2.05991V6.83681Z" fill="black"/>
</svg>