<svg xmlns="http://www.w3.org/2000/svg" width="18" height="22" viewBox="0 0 18 22" fill="none">
    <path d="M16.1441 19.7567H2.5225C2.09242 19.7567 1.67995 19.5859 1.37584 19.2818C1.07173 18.9777 0.900879 18.5652 0.900879 18.1351V2.56754C0.900879 2.13746 1.07173 1.725 1.37584 1.42088C1.67995 1.11677 2.09242 0.945923 2.5225 0.945923H16.1441C16.5742 0.945923 16.9867 1.11677 17.2908 1.42088C17.5949 1.725 17.7657 2.13746 17.7657 2.56754V18.1351C17.7657 18.5652 17.5949 18.9777 17.2908 19.2818C16.9867 19.5859 16.5742 19.7567 16.1441 19.7567ZM2.5225 1.59457C2.26445 1.59457 2.01697 1.69708 1.8345 1.87955C1.65204 2.06202 1.54953 2.3095 1.54953 2.56754V18.1351C1.54953 18.3932 1.65204 18.6406 1.8345 18.8231C2.01697 19.0056 2.26445 19.1081 2.5225 19.1081H16.1441C16.4022 19.1081 16.6496 19.0056 16.8321 18.8231C17.0146 18.6406 17.1171 18.3932 17.1171 18.1351V2.56754C17.1171 2.3095 17.0146 2.06202 16.8321 1.87955C16.6496 1.69708 16.4022 1.59457 16.1441 1.59457H2.5225Z" fill="black"/>
    <path d="M5.76572 21.0541H3.17113C3.08511 21.0541 3.00262 21.0199 2.94179 20.9591C2.88097 20.8983 2.8468 20.8158 2.8468 20.7298V19.4325C2.8468 19.3465 2.88097 19.264 2.94179 19.2031C3.00262 19.1423 3.08511 19.1082 3.17113 19.1082H5.76572C5.85174 19.1082 5.93423 19.1423 5.99505 19.2031C6.05588 19.264 6.09004 19.3465 6.09004 19.4325V20.7298C6.09004 20.8158 6.05588 20.8983 5.99505 20.9591C5.93423 21.0199 5.85174 21.0541 5.76572 21.0541ZM3.49545 20.4055H5.4414V19.7568H3.49545V20.4055ZM15.4955 21.0541H12.9009C12.8148 21.0541 12.7323 21.0199 12.6715 20.9591C12.6107 20.8983 12.5765 20.8158 12.5765 20.7298V19.4325C12.5765 19.3465 12.6107 19.264 12.6715 19.2031C12.7323 19.1423 12.8148 19.1082 12.9009 19.1082H15.4955C15.5815 19.1082 15.664 19.1423 15.7248 19.2031C15.7856 19.264 15.8198 19.3465 15.8198 19.4325V20.7298C15.8198 20.8158 15.7856 20.8983 15.7248 20.9591C15.664 21.0199 15.5815 21.0541 15.4955 21.0541ZM13.2252 20.4055H15.1711V19.7568H13.2252V20.4055Z" fill="black"/>
    <path d="M17.4414 5.48645H1.22522V6.1351H17.4414V5.48645Z" fill="black"/>
    <path d="M6.09005 1.37085H5.44141V5.81085H6.09005V1.37085Z" fill="black"/>
    <path d="M4.14414 4.51352H2.84685C2.76083 4.51352 2.67834 4.47935 2.61751 4.41852C2.55669 4.3577 2.52252 4.27521 2.52252 4.18919V2.89189C2.52252 2.80588 2.55669 2.72339 2.61751 2.66256C2.67834 2.60174 2.76083 2.56757 2.84685 2.56757H4.14414C4.23016 2.56757 4.31265 2.60174 4.37348 2.66256C4.4343 2.72339 4.46847 2.80588 4.46847 2.89189V4.18919C4.46847 4.27521 4.4343 4.3577 4.37348 4.41852C4.31265 4.47935 4.23016 4.51352 4.14414 4.51352ZM3.17117 3.86487H3.81982V3.21622H3.17117V3.86487ZM8.36036 4.78271C8.10378 4.78271 7.85296 4.70662 7.63962 4.56407C7.42628 4.42152 7.26 4.21891 7.16181 3.98186C7.06362 3.74481 7.03793 3.48397 7.08799 3.23232C7.13805 2.98067 7.2616 2.74951 7.44303 2.56808C7.62446 2.38665 7.85562 2.26309 8.10727 2.21304C8.35892 2.16298 8.61976 2.18867 8.85681 2.28686C9.09386 2.38505 9.29647 2.55133 9.43902 2.76467C9.58157 2.97801 9.65766 3.22883 9.65766 3.48541C9.65766 3.82947 9.52098 4.15945 9.27769 4.40274C9.0344 4.64603 8.70442 4.78271 8.36036 4.78271ZM8.36036 2.83676C8.23207 2.83676 8.10666 2.8748 7.99999 2.94608C7.89332 3.01735 7.81018 3.11866 7.76109 3.23718C7.71199 3.35571 7.69915 3.48613 7.72417 3.61195C7.7492 3.73778 7.81098 3.85336 7.9017 3.94407C7.99241 4.03479 8.10799 4.09657 8.23381 4.12159C8.35964 4.14662 8.49006 4.13378 8.60859 4.08468C8.72711 4.03559 8.82842 3.95245 8.89969 3.84578C8.97097 3.73911 9.00901 3.6137 9.00901 3.48541C9.00901 3.31338 8.94067 3.14839 8.81902 3.02674C8.69738 2.9051 8.53239 2.83676 8.36036 2.83676ZM16.1441 4.56541H10.955C10.8689 4.56541 10.7864 4.53124 10.7256 4.47042C10.6648 4.40959 10.6306 4.3271 10.6306 4.24108V2.94379C10.6306 2.85777 10.6648 2.77528 10.7256 2.71445C10.7864 2.65363 10.8689 2.61946 10.955 2.61946H16.1441C16.2302 2.61946 16.3127 2.65363 16.3735 2.71445C16.4343 2.77528 16.4685 2.85777 16.4685 2.94379V4.24108C16.4685 4.3271 16.4343 4.40959 16.3735 4.47042C16.3127 4.53124 16.2302 4.56541 16.1441 4.56541ZM11.2793 3.91676H15.8198V3.26811H11.2793V3.91676ZM9.33333 17.8108C8.30701 17.8108 7.30373 17.5065 6.45037 16.9363C5.59702 16.3661 4.9319 15.5556 4.53915 14.6074C4.14639 13.6592 4.04363 12.6159 4.24385 11.6093C4.44408 10.6027 4.9383 9.67803 5.66402 8.95231C6.38974 8.22659 7.31437 7.73237 8.32097 7.53214C9.32758 7.33192 10.3709 7.43468 11.3191 7.82744C12.2674 8.2202 13.0778 8.88531 13.648 9.73867C14.2182 10.592 14.5225 11.5953 14.5225 12.6216C14.5225 13.9979 13.9758 15.3178 13.0026 16.2909C12.0295 17.2641 10.7096 17.8108 9.33333 17.8108ZM9.33333 8.08108C8.4353 8.08108 7.55743 8.34738 6.81074 8.8463C6.06406 9.34522 5.48208 10.0544 5.13842 10.884C4.79476 11.7137 4.70484 12.6267 4.88004 13.5074C5.05523 14.3882 5.48768 15.1973 6.12269 15.8323C6.75769 16.4673 7.56674 16.8997 8.44752 17.0749C9.3283 17.2501 10.2412 17.1602 11.0709 16.8165C11.9006 16.4729 12.6097 15.8909 13.1087 15.1442C13.6076 14.3975 13.8739 13.5197 13.8739 12.6216C13.8739 11.4174 13.3955 10.2625 12.544 9.41098C11.6925 8.55946 10.5376 8.08108 9.33333 8.08108Z" fill="black"/>
    <path d="M9.3333 16.5135C8.56356 16.5135 7.8111 16.2853 7.17108 15.8576C6.53106 15.43 6.03223 14.8221 5.73766 14.111C5.44309 13.3998 5.36602 12.6173 5.51619 11.8624C5.66636 11.1074 6.03703 10.4139 6.58132 9.86965C7.12561 9.32536 7.81908 8.95469 8.57403 8.80452C9.32898 8.65435 10.1115 8.73142 10.8227 9.02599C11.5338 9.32056 12.1416 9.81939 12.5693 10.4594C12.9969 11.0994 13.2252 11.8519 13.2252 12.6216C13.2252 13.6538 12.8152 14.6437 12.0853 15.3736C11.3554 16.1035 10.3655 16.5135 9.3333 16.5135ZM9.3333 9.37839C8.69185 9.37839 8.0648 9.5686 7.53145 9.92497C6.9981 10.2813 6.58241 10.7879 6.33693 11.3805C6.09146 11.9731 6.02723 12.6252 6.15237 13.2544C6.27752 13.8835 6.5864 14.4614 7.03998 14.9149C7.49356 15.3685 8.07145 15.6774 8.70057 15.8026C9.3297 15.9277 9.98181 15.8635 10.5744 15.618C11.1671 15.3725 11.6736 14.9568 12.03 14.4235C12.3863 13.8901 12.5765 13.2631 12.5765 12.6216C12.5765 11.7615 12.2348 10.9365 11.6266 10.3283C11.0184 9.72009 10.1935 9.37839 9.3333 9.37839Z" fill="black"/>
</svg>