<svg xmlns="http://www.w3.org/2000/svg" width="25" height="24" viewBox="0 0 25 24" fill="none">
    <path d="M19.464 9.32805V7.73283C19.4598 6.74205 19.0635 5.79322 18.3618 5.09375C17.6601 4.39428 16.71 4.00105 15.7192 4H9.69726C8.70509 4.00105 7.7538 4.39538 7.05186 5.09658C6.34992 5.79777 5.95458 6.74864 5.95247 7.7408V9.33603C5.50758 9.40046 5.10022 9.62133 4.80348 9.959C4.50674 10.2967 4.34005 10.729 4.33331 11.1785V18.357C4.33331 18.4628 4.37533 18.5642 4.45012 18.639C4.52491 18.7138 4.62635 18.7558 4.73212 18.7558H5.95247V20.3511C5.95247 20.4568 5.99448 20.5583 6.06927 20.633C6.14406 20.7078 6.2455 20.7499 6.35127 20.7499H7.92257C8.01643 20.7516 8.10789 20.7201 8.18084 20.661C8.25379 20.6019 8.30355 20.519 8.32137 20.4268L8.63643 18.7558H16.7801L17.0951 20.4428C17.1162 20.532 17.1673 20.6112 17.2399 20.6672C17.3126 20.7231 17.4023 20.7523 17.4939 20.7499H19.0532C19.159 20.7499 19.2605 20.7078 19.3352 20.633C19.41 20.5583 19.4521 20.4568 19.4521 20.3511V18.7558H20.6844C20.7901 18.7558 20.8916 18.7138 20.9664 18.639C21.0412 18.5642 21.0832 18.4628 21.0832 18.357V11.1785C21.0783 10.7277 20.9125 10.2934 20.6156 9.95405C20.3187 9.61473 19.9102 9.39271 19.464 9.32805ZM9.69726 4.79761H15.7192C16.5002 4.79761 17.2492 5.10757 17.8018 5.65941C18.3544 6.21125 18.6653 6.95985 18.6664 7.7408V9.38388C18.275 9.49547 17.9301 9.7304 17.6829 10.0537C17.4357 10.3771 17.2995 10.7716 17.2945 11.1785V12.2433C17.0675 12.1127 16.8107 12.0427 16.5487 12.0399H8.87173C8.60981 12.0427 8.353 12.1127 8.12596 12.2433V11.1785C8.12438 10.7688 7.98974 10.3707 7.74231 10.0442C7.49488 9.71762 7.14806 9.48029 6.75407 9.36793V7.72485C6.75933 6.94736 7.07161 6.20345 7.62288 5.65516C8.17415 5.10688 8.91975 4.79865 9.69726 4.79761ZM8.10203 14.2174V13.6192C8.10309 13.421 8.18254 13.2314 8.32303 13.0916C8.46353 12.9519 8.65363 12.8734 8.85179 12.8734H16.5487C16.7476 12.8734 16.9383 12.9524 17.0789 13.093C17.2195 13.2336 17.2985 13.4243 17.2985 13.6232V14.2214C17.2985 14.4196 17.2201 14.6097 17.0803 14.7502C16.9406 14.8906 16.7509 14.9701 16.5527 14.9712H8.87173C8.77157 14.9712 8.67241 14.9512 8.58013 14.9122C8.48784 14.8733 8.40428 14.8163 8.33439 14.7446C8.2645 14.6728 8.2097 14.5878 8.17322 14.4945C8.13673 14.4012 8.11931 14.3016 8.12197 14.2015L8.10203 14.2174ZM7.58358 19.9522H6.75008V18.7558H7.82287L7.58358 19.9522ZM18.6664 19.9522H17.8329L17.5936 18.7558H18.6664V19.9522ZM20.2856 17.9582H5.13093V11.1785C5.13093 10.8876 5.24647 10.6087 5.45215 10.403C5.65782 10.1973 5.93677 10.0818 6.22764 10.0818C6.51851 10.0818 6.79746 10.1973 7.00314 10.403C7.20881 10.6087 7.32436 10.8876 7.32436 11.1785V15.35C7.32436 15.4558 7.36638 15.5572 7.44117 15.632C7.51596 15.7068 7.6174 15.7488 7.72317 15.7488H17.6933C17.7991 15.7488 17.9005 15.7068 17.9753 15.632C18.0501 15.5572 18.0921 15.4558 18.0921 15.35V11.1785C18.0921 10.8876 18.2077 10.6087 18.4133 10.403C18.619 10.1973 18.898 10.0818 19.1888 10.0818C19.4797 10.0818 19.7587 10.1973 19.9643 10.403C20.17 10.6087 20.2856 10.8876 20.2856 11.1785V17.9582Z" fill="black"/>
</svg>