<svg xmlns="http://www.w3.org/2000/svg" width="25" height="24" viewBox="0 0 25 24" fill="none">
    <path d="M21.8683 4.55518H3.4651C2.3563 4.55518 1.4491 5.45758 1.4491 6.57118V17.4336C1.4491 18.5424 2.3515 19.4496 3.4651 19.4496H21.8683C22.9771 19.4496 23.8843 18.5472 23.8843 17.4336V6.57118C23.8843 5.45758 22.9819 4.55518 21.8683 4.55518ZM18.7627 18.672H3.4651C2.7787 18.672 2.2219 18.1152 2.2219 17.4288V6.57118C2.2219 5.88478 2.7787 5.32798 3.4651 5.32798H18.7627V18.672ZM23.1115 17.4288C23.1115 18.1152 22.5547 18.672 21.8683 18.672H19.5355V5.32798H21.8683C22.5547 5.32798 23.1115 5.88478 23.1115 6.57118V17.4288Z" fill="black"/>
    <path d="M3.28268 15.8065C3.28268 16.3345 3.70988 16.7617 4.23788 16.7617H16.5259C17.0539 16.7617 17.4811 16.3345 17.4811 15.8065V8.19366C17.4811 7.66566 17.0539 7.23846 16.5259 7.23846H4.23788C3.70988 7.23846 3.28268 7.66566 3.28268 8.19366V15.8065ZM4.05068 8.19366C4.05068 8.09286 4.13228 8.01126 4.23308 8.01126H16.5211C16.6219 8.01126 16.7035 8.09286 16.7035 8.19366V15.8065C16.7035 15.9073 16.6219 15.9889 16.5211 15.9889H4.23308C4.13228 15.9889 4.05068 15.9073 4.05068 15.8065V8.19366ZM21.9211 6.32166H20.7979C20.3611 6.32166 20.0059 6.67686 20.0059 7.11366V14.0353C20.0059 14.4721 20.3611 14.8273 20.7979 14.8273H21.9211C22.3579 14.8273 22.7131 14.4721 22.7131 14.0353V7.11366C22.7131 6.67686 22.3579 6.32166 21.9211 6.32166ZM21.9403 14.0305C21.9403 14.0401 21.9307 14.0497 21.9211 14.0497H20.7979C20.7883 14.0497 20.7787 14.0401 20.7787 14.0305V7.11366C20.7787 7.10406 20.7883 7.09446 20.7979 7.09446H21.9211C21.9307 7.09446 21.9403 7.10406 21.9403 7.11366V14.0305Z" fill="black"/>
    <path d="M5.23628 10.5648C5.80268 9.9984 6.37388 9.4272 6.94028 8.8608C7.29068 8.5104 6.74828 7.96319 6.39308 8.31359C5.82668 8.87999 5.25548 9.45119 4.68908 10.0176C4.33868 10.3728 4.88588 10.92 5.23628 10.5648ZM4.96748 13.7328C6.58988 12.1104 8.21228 10.488 9.83468 8.86559C10.1851 8.51519 9.64268 7.96799 9.28748 8.31839C7.66508 9.94079 6.04268 11.5632 4.42028 13.1856C4.06988 13.536 4.61708 14.0832 4.96748 13.7328Z" fill="black"/>
</svg>