<svg xmlns="http://www.w3.org/2000/svg" width="18" height="18" viewBox="0 0 18 18" fill="none">
    <path d="M1.60199 5.21289V17.2499" stroke="black" stroke-miterlimit="10" stroke-linecap="round" stroke-linejoin="round"/>
    <path d="M1.60199 16.0464H16.6483" stroke="black" stroke-miterlimit="10" stroke-linecap="round" stroke-linejoin="round"/>
    <path d="M1.60199 13.6387H16.6483" stroke="black" stroke-miterlimit="10" stroke-linecap="round" stroke-linejoin="round"/>
    <path d="M1.60199 7.62036H16.6483" stroke="black" stroke-miterlimit="10" stroke-linecap="round" stroke-linejoin="round"/>
    <path d="M7.62042 7.62036V13.6389" stroke="black" stroke-miterlimit="10" stroke-linecap="round" stroke-linejoin="round"/>
    <path d="M4.61127 7.62036V13.6389" stroke="black" stroke-miterlimit="10" stroke-linecap="round" stroke-linejoin="round"/>
    <path d="M10.6296 7.62036V13.6389" stroke="black" stroke-miterlimit="10" stroke-linecap="round" stroke-linejoin="round"/>
    <path d="M13.6387 7.62036V13.6389" stroke="black" stroke-miterlimit="10" stroke-linecap="round" stroke-linejoin="round"/>
    <path d="M7.62042 3.40761C9.22556 2.60534 10.8301 2.60534 12.4352 3.40761" stroke="black" stroke-miterlimit="10" stroke-linecap="round" stroke-linejoin="round"/>
    <path d="M7.62041 5.81503C7.9528 5.81503 8.22226 5.54557 8.22226 5.21318C8.22226 4.88079 7.9528 4.61133 7.62041 4.61133C7.28801 4.61133 7.01855 4.88079 7.01855 5.21318C7.01855 5.54557 7.28801 5.81503 7.62041 5.81503Z" fill="black"/>
    <path d="M10.0277 5.81503C10.3601 5.81503 10.6295 5.54557 10.6295 5.21318C10.6295 4.88079 10.3601 4.61133 10.0277 4.61133C9.6953 4.61133 9.42584 4.88079 9.42584 5.21318C9.42584 5.54557 9.6953 5.81503 10.0277 5.81503Z" fill="black"/>
    <path d="M12.4353 5.81503C12.7677 5.81503 13.0371 5.54557 13.0371 5.21318C13.0371 4.88079 12.7677 4.61133 12.4353 4.61133C12.1029 4.61133 11.8334 4.88079 11.8334 5.21318C11.8334 5.54557 12.1029 5.81503 12.4353 5.81503Z" fill="black"/>
    <path d="M16.648 5.21289V17.2499" stroke="black" stroke-miterlimit="10" stroke-linecap="round" stroke-linejoin="round"/>
    <path d="M10.0278 2.80556V1H14.2408C15.5703 1 16.6482 2.07792 16.6482 3.40741" stroke="black" stroke-miterlimit="10" stroke-linecap="round" stroke-linejoin="round"/>
    <path d="M1 5.21289H2.2037" stroke="black" stroke-miterlimit="10" stroke-linecap="round" stroke-linejoin="round"/>
    <path d="M16.0464 5.21289H17.2501" stroke="black" stroke-miterlimit="10" stroke-linecap="round" stroke-linejoin="round"/>
</svg>