<svg width="25" height="24" viewBox="0 0 25 24" fill="none" xmlns="http://www.w3.org/2000/svg">
<g clip-path="url(#clip0_804_14624)">
<path d="M5.16699 12C6.5477 12 7.66699 10.8807 7.66699 9.5C7.66699 8.11929 6.5477 7 5.16699 7C3.78628 7 2.66699 8.11929 2.66699 9.5C2.66699 10.8807 3.78628 12 5.16699 12Z" fill="#111827"/>
<path d="M9.66699 8C11.0477 8 12.167 6.88071 12.167 5.5C12.167 4.11929 11.0477 3 9.66699 3C8.28628 3 7.16699 4.11929 7.16699 5.5C7.16699 6.88071 8.28628 8 9.66699 8Z" fill="#323232"/>
<path d="M15.667 8C17.0477 8 18.167 6.88071 18.167 5.5C18.167 4.11929 17.0477 3 15.667 3C14.2863 3 13.167 4.11929 13.167 5.5C13.167 6.88071 14.2863 8 15.667 8Z" fill="#323232"/>
<path d="M20.167 12C21.5477 12 22.667 10.8807 22.667 9.5C22.667 8.11929 21.5477 7 20.167 7C18.7863 7 17.667 8.11929 17.667 9.5C17.667 10.8807 18.7863 12 20.167 12Z" fill="#323232"/>
<path d="M18.0066 14.86C17.1366 13.84 16.4066 12.97 15.5266 11.95C15.0666 11.41 14.4766 10.87 13.7766 10.63C13.6666 10.59 13.5566 10.56 13.4466 10.54C13.1966 10.5 12.9266 10.5 12.6666 10.5C12.4066 10.5 12.1366 10.5 11.8766 10.55C11.7666 10.57 11.6566 10.6 11.5466 10.64C10.8466 10.88 10.2666 11.42 9.79665 11.96C8.92665 12.98 8.19665 13.85 7.31665 14.87C6.00665 16.18 4.39665 17.63 4.69665 19.66C4.98665 20.68 5.71665 21.69 7.02665 21.98C7.75665 22.13 10.0866 21.54 12.5666 21.54H12.7466C15.2266 21.54 17.5566 22.12 18.2866 21.98C19.5966 21.69 20.3266 20.67 20.6166 19.66C20.9266 17.62 19.3166 16.17 18.0066 14.86Z" fill="#323232"/>
</g>
<defs>
<clipPath id="clip0_804_14624">
<rect width="24" height="24" fill="white" transform="translate(0.666992)"/>
</clipPath>
</defs>
</svg>
