<svg xmlns="http://www.w3.org/2000/svg" width="25" height="24" viewBox="0 0 25 24" fill="none">
    <path d="M16.8333 10C17.9373 9.9986 18.8319 9.104 18.8333 8C18.8333 6.89545 17.9379 6 16.8333 6C15.7288 6 14.8333 6.89545 14.8333 8C14.8333 9.10455 15.7288 10 16.8333 10ZM16.8333 7C17.3854 7.00037 17.833 7.44788 17.8333 8C17.8333 8.55231 17.3856 9 16.8333 9C16.281 9 15.8333 8.55231 15.8333 8C15.8333 7.44769 16.281 7 16.8333 7ZM21.1908 17.4971C20.8737 17.5905 20.5693 17.7227 20.2845 17.8906C19.4801 18.356 18.4866 18.3489 17.6888 17.8721C16.4334 17.1653 14.9 17.1657 13.6448 17.873C12.8318 18.3376 11.8336 18.3372 11.0209 17.8721C9.76557 17.1667 8.23346 17.1663 6.97785 17.8711C6.18055 18.3492 5.18653 18.3567 4.38215 17.8906C4.09736 17.7227 3.79297 17.5905 3.4759 17.4971C3.21106 17.4183 2.93256 17.5692 2.85383 17.834C2.77509 18.0988 2.92591 18.3773 3.19074 18.4561C3.42872 18.5253 3.65705 18.624 3.87043 18.75C4.40491 19.0687 5.01569 19.2368 5.638 19.2363C6.28132 19.2328 6.91266 19.0623 7.4701 18.7412C8.41761 18.2095 9.57331 18.2084 10.5219 18.7383C11.6428 19.3841 13.0226 19.3845 14.1439 18.7393C15.0924 18.2079 16.2492 18.209 17.1967 18.7422C18.306 19.3985 19.6841 19.4015 20.7963 18.75C21.0096 18.624 21.238 18.5253 21.476 18.4561C21.7408 18.3773 21.8916 18.0988 21.8129 17.834C21.7341 17.5692 21.4556 17.4183 21.1908 17.4971ZM3.19074 13.456C3.42872 13.5252 3.65705 13.624 3.87043 13.75C4.40491 14.0687 5.01569 14.2368 5.638 14.2363C6.28132 14.2328 6.91266 14.0623 7.4701 13.7412C8.41748 13.209 9.57343 13.2079 10.5219 13.7383C11.6428 14.3841 13.0226 14.3845 14.1439 13.7393C15.0924 13.2079 16.2492 13.2091 17.1967 13.7422C18.3062 14.398 19.6839 14.401 20.7963 13.7501C21.0096 13.624 21.238 13.5253 21.476 13.4561C21.7408 13.3773 21.8916 13.0988 21.8129 12.834C21.7341 12.5692 21.4556 12.4183 21.1908 12.497C20.8737 12.5905 20.5693 12.7227 20.2845 12.8906C19.4802 13.3564 18.4865 13.3494 17.6888 12.872C16.4334 12.1653 14.9 12.1656 13.6448 12.873C13.0808 13.1953 12.4294 13.2786 11.8109 13.1534L14.3256 10.6387C14.5152 10.4495 14.5217 10.1443 14.3402 9.94727L11.2797 6.60742C11.1436 6.4577 10.9304 6.40558 10.7406 6.47559L7.16053 7.77637L7.15821 7.77722C6.89905 7.87225 6.76593 8.15936 6.86097 8.41858C6.956 8.67773 7.24311 8.81085 7.50232 8.71582L10.7689 7.5293L13.2796 10.2705L10.7892 12.7609C9.57984 12.1774 8.15815 12.2086 6.97785 12.871C6.18073 13.3497 5.18641 13.3571 4.38215 12.8906C4.09736 12.7227 3.79297 12.5905 3.4759 12.497C3.21149 12.4218 2.93537 12.5714 2.85383 12.8339C2.77558 13.0987 2.92621 13.3769 3.19074 13.456Z" fill="black"/>
</svg>