<svg width="20" height="21" viewBox="0 0 20 21" fill="none" xmlns="http://www.w3.org/2000/svg">
<path d="M18.5 21V5.75C18.5 5.11667 18.2833 4.58333 17.85 4.15C17.4167 3.71667 16.8833 3.5 16.25 3.5H15V5.05C15 5.18333 14.9583 5.29167 14.875 5.375C14.7917 5.45833 14.6833 5.5 14.55 5.5H8.95C8.78333 5.5 8.6625 5.40833 8.5875 5.225C8.5125 5.04167 8.50833 4.88333 8.575 4.75L10.475 0.65C10.5583 0.45 10.6958 0.291667 10.8875 0.175C11.0792 0.0583333 11.3 0 11.55 0H13.85C14.1833 0 14.4583 0.125 14.675 0.375C14.8917 0.625 15 0.916667 15 1.25V2H16.25C17.3 2 18.1875 2.3625 18.9125 3.0875C19.6375 3.8125 20 4.7 20 5.75V21H18.5ZM10.575 4H13.5V1.5H11.7L10.575 4ZM2.75 21C1.96667 21 1.3125 20.7375 0.7875 20.2125C0.2625 19.6875 0 19.0333 0 18.25V15.75C0 15.2667 0.183333 14.8042 0.55 14.3625C0.916667 13.9208 1.4 13.65 2 13.55V11C2 10.5833 2.14583 10.2292 2.4375 9.9375C2.72917 9.64583 3.08333 9.5 3.5 9.5H12C12.4167 9.5 12.7708 9.64583 13.0625 9.9375C13.3542 10.2292 13.5 10.5833 13.5 11V13.55C14.1 13.65 14.5833 13.9083 14.95 14.325C15.3167 14.7417 15.5 15.2167 15.5 15.75V18.25C15.5 19.0333 15.2375 19.6875 14.7125 20.2125C14.1875 20.7375 13.5333 21 12.75 21H2.75ZM3.5 11V13.875C3.8 14.125 4.04167 14.4083 4.225 14.725C4.40833 15.0417 4.5 15.3833 4.5 15.75V16.5H11V15.75C11 15.3833 11.0917 15.0417 11.275 14.725C11.4583 14.4083 11.7 14.125 12 13.875V11H3.5ZM2.75 19.5H12.75C13.1333 19.5 13.4375 19.3708 13.6625 19.1125C13.8875 18.8542 14 18.5667 14 18.25V15.75C14 15.5167 13.9333 15.3333 13.8 15.2C13.6667 15.0667 13.4833 15 13.25 15C13.0333 15 12.8542 15.0667 12.7125 15.2C12.5708 15.3333 12.5 15.5167 12.5 15.75V18H3V15.75C3 15.5167 2.93333 15.3333 2.8 15.2C2.66667 15.0667 2.48333 15 2.25 15C2.03333 15 1.85417 15.0667 1.7125 15.2C1.57083 15.3333 1.5 15.5167 1.5 15.75V18.25C1.5 18.5667 1.61667 18.8542 1.85 19.1125C2.08333 19.3708 2.38333 19.5 2.75 19.5Z" fill="black"/>
</svg>
