<svg width="25" height="24" viewBox="0 0 25 24" fill="none" xmlns="http://www.w3.org/2000/svg">
<path d="M12.667 21C11.2003 21 9.79616 20.725 8.45449 20.175C7.11283 19.625 5.92533 18.825 4.89199 17.775L5.96699 16.7C6.86699 17.6 7.89199 18.2917 9.04199 18.775C10.192 19.2583 11.4003 19.5 12.667 19.5C13.9337 19.5 15.1462 19.2625 16.3045 18.7875C17.4628 18.3125 18.492 17.625 19.392 16.725L20.442 17.775C19.392 18.8083 18.2003 19.6042 16.867 20.1625C15.5337 20.7208 14.1337 21 12.667 21ZM12.667 17C11.7337 17 10.8378 16.825 9.97949 16.475C9.12116 16.125 8.36699 15.6083 7.71699 14.925L8.76699 13.9C9.28366 14.4333 9.87949 14.8333 10.5545 15.1C11.2295 15.3667 11.9337 15.5 12.667 15.5C13.4003 15.5 14.1045 15.3667 14.7795 15.1C15.4545 14.8333 16.0503 14.4333 16.567 13.9L17.617 14.95C16.967 15.6167 16.2128 16.125 15.3545 16.475C14.4962 16.825 13.6003 17 12.667 17ZM5.16699 6H20.167V4.5H5.16699V6ZM8.64199 9H16.692L17.142 7.5H8.19199L8.64199 9ZM8.64199 10.5C8.32533 10.5 8.03366 10.4042 7.76699 10.2125C7.50033 10.0208 7.31699 9.76667 7.21699 9.45L6.59199 7.5H5.16699C4.75033 7.5 4.39616 7.35417 4.10449 7.0625C3.81283 6.77083 3.66699 6.41667 3.66699 6V3H21.667V6C21.667 6.41667 21.5212 6.77083 21.2295 7.0625C20.9378 7.35417 20.5837 7.5 20.167 7.5H18.742L17.992 9.525C17.8753 9.80833 17.6878 10.0417 17.4295 10.225C17.1712 10.4083 16.8837 10.5 16.567 10.5H8.64199ZM5.16699 6V4.5V6Z" fill="black"/>
</svg>
