<svg xmlns="http://www.w3.org/2000/svg" width="25" height="24" viewBox="0 0 25 24" fill="none">
    <path d="M4.00748 3.74658V5.6409H4.27796V20.2533H5.90156H10.5019H11.3136H15.102H15.6432H19.4316H21.0552V5.6409H21.3259V3.74658H4.00748ZM20.7847 5.0997H4.54868V4.28802H20.7847V5.0997ZM20.5142 19.7121H19.4318V17.0061V16.4649V13.7589V13.2177V11.0529V9.4293V8.3469H19.7025V6.7233H5.63132V8.3469H5.90204V9.4293V15.653V19.7121H4.81964V5.6409H20.5144L20.5142 19.7121ZM15.6434 19.7121V17.0061H16.9965V17.5473H17.5377V17.0061H18.8908V19.7121H15.6434ZM18.8906 16.4649H17.5375H16.9963H15.6432V13.7589H16.9963V14.3001H17.5375V13.7589H18.8906V16.4649ZM14.0198 11.0529V10.5117H15.1022V11.0529V13.2177H13.7491H13.2079H12.3962V10.5117H13.4786V11.0529H14.0198ZM13.7491 14.3001V13.7589H15.1022V16.4649H13.7491H13.2079H11.8548V13.7589H13.2079V14.3001H13.7491ZM17.5375 13.2177H16.9963H15.6432V11.5941H16.9963V12.1353H17.5375V11.5941H18.8906V13.2177H17.5375ZM19.1611 7.8057H6.17228V7.2645H19.1611V7.8057ZM18.8906 8.3469V8.8881H6.44276V8.3469H18.8906ZM6.44276 19.7121V16.1942H7.79588V17.0061H7.25468V17.5473H7.79588H8.33708H8.87828V18.359H8.33708V18.9002H8.87828H9.41948H9.96068V19.7119L6.44276 19.7121ZM9.41948 18.359V17.0059H8.33708V15.6527H6.443V9.4293H18.8906V11.0529H17.5375H16.9963H15.6432V9.9705H14.0196H13.4784H11.8548V13.2177H11.3136V16.4649V17.0061V19.7121H10.5019V18.3592L9.41948 18.359ZM11.855 17.0061H13.2081V17.5473H13.7493V17.0061H15.1024V19.7121H11.8552L11.855 17.0061Z" fill="black"/>
</svg>