<svg xmlns="http://www.w3.org/2000/svg" width="24" height="24" viewBox="0 0 24 24" fill="none">
    <path d="M11.9999 5.0437C8.09927 5.0437 4.44082 6.8594 1.69788 10.1561C1.43664 10.4697 1.4793 10.9359 1.7935 11.1972C1.9315 11.3122 2.09918 11.3685 2.26591 11.3685C2.47793 11.3685 2.68854 11.2775 2.8345 11.1015C5.29169 8.14917 8.54636 6.52298 11.9999 6.52298C15.454 6.52298 18.7092 8.14912 21.1652 11.1015C21.4264 11.4157 21.8927 11.4584 22.2068 11.1972C22.5204 10.9365 22.5632 10.4697 22.3024 10.1561C19.5601 6.8594 15.9014 5.0437 11.9999 5.0437Z" fill="black"/>
    <path d="M11.9999 8.74438C9.07687 8.74438 6.33735 10.1025 4.28601 12.5676C4.02478 12.8819 4.06743 13.348 4.38168 13.6093C4.69528 13.8705 5.16201 13.8272 5.42273 13.5136C7.18832 11.3923 9.52401 10.2237 12 10.2237C14.4768 10.2237 16.8125 11.3917 18.5772 13.5136C18.7235 13.6895 18.9341 13.7801 19.1461 13.7801C19.3126 13.7801 19.4805 13.7243 19.6185 13.6093C19.9325 13.348 19.9751 12.8819 19.7142 12.5676C17.6636 10.1025 14.9238 8.74438 11.9999 8.74438Z" fill="black"/>
    <path d="M12 12.7288C10.0741 12.7288 8.27205 13.6201 6.92538 15.2389C6.6641 15.553 6.7068 16.0187 7.021 16.2799C7.15928 16.3949 7.32667 16.4512 7.49341 16.4512C7.7057 16.4512 7.91631 16.3602 8.06228 16.1843C9.12297 14.9099 10.5212 14.2075 12 14.2075C13.479 14.2075 14.8775 14.9099 15.9379 16.1843C16.1991 16.4984 16.6651 16.5411 16.9789 16.2805C17.2931 16.0192 17.3358 15.553 17.0748 15.2389C15.7284 13.62 13.9264 12.7288 12 12.7288Z" fill="black"/>
    <path d="M12 16.2861C11.0912 16.2861 10.2682 16.729 9.67224 17.445L12.0002 18.9562L14.3276 17.445C13.7323 16.729 12.909 16.2861 12 16.2861Z" fill="black"/>
</svg>