<svg width="48" height="48" viewBox="0 0 48 48" fill="none" xmlns="http://www.w3.org/2000/svg">
<rect width="48" height="48" rx="6" fill="#FEF2F2"/>
<path d="M19.1 29.075H20.6V22.2H19.1V29.075ZM23.25 29.075H24.75V18.925H23.25V29.075ZM27.4 29.075H28.9V25.375H27.4V29.075ZM16.5 33C16.1 33 15.75 32.85 15.45 32.55C15.15 32.25 15 31.9 15 31.5V16.5C15 16.1 15.15 15.75 15.45 15.45C15.75 15.15 16.1 15 16.5 15H31.5C31.9 15 32.25 15.15 32.55 15.45C32.85 15.75 33 16.1 33 16.5V31.5C33 31.9 32.85 32.25 32.55 32.55C32.25 32.85 31.9 33 31.5 33H16.5Z" fill="#EF4444"/>
</svg>
