<svg width="48" height="48" viewBox="0 0 48 48" fill="none" xmlns="http://www.w3.org/2000/svg">
<rect width="48" height="48" rx="6" fill="#00ABB3"/>
<path d="M31.4999 24.473C31.4999 22.525 30.8819 21.076 29.4339 19.629C29.0429 19.239 28.4109 19.239 28.0199 19.629C27.6289 20.02 27.6289 20.653 28.0199 21.044C29.0989 22.122 29.4999 23.051 29.4999 24.473C29.4999 25.942 28.9279 27.323 27.8889 28.361C26.8849 29.364 25.8109 29.863 24.4609 29.954L25.7069 28.707C26.0979 28.316 26.0979 27.684 25.7069 27.293C25.3159 26.902 24.6839 26.902 24.2929 27.293L20.5859 31L24.2929 34.707C24.4879 34.902 24.7439 35 24.9999 35C25.2559 35 25.5119 34.902 25.7069 34.707C26.0979 34.316 26.0979 33.684 25.7069 33.293L24.3699 31.957C26.2929 31.875 27.9119 31.165 29.3029 29.776C30.7199 28.36 31.4999 26.477 31.4999 24.473Z" fill="white"/>
<path d="M18.5 24.5C18.5 23.031 19.072 21.65 20.111 20.611C21.12 19.602 22.203 19.103 23.568 19.017L22.293 20.292C21.902 20.683 21.902 21.315 22.293 21.706C22.488 21.902 22.744 22 23 22C23.256 22 23.512 21.902 23.707 21.707L27.414 18L23.707 14.293C23.316 13.902 22.684 13.902 22.293 14.293C21.902 14.684 21.902 15.316 22.293 15.707L23.604 17.018C21.69 17.104 20.079 17.814 18.697 19.197C17.28 20.613 16.5 22.496 16.5 24.5C16.5 26.448 17.118 27.897 18.566 29.344C18.761 29.539 19.017 29.636 19.273 29.636C19.529 29.636 19.785 29.538 19.98 29.343C20.371 28.952 20.371 28.319 19.98 27.928C18.901 26.851 18.5 25.922 18.5 24.5Z" fill="white"/>
</svg>
