<svg width="48" height="48" viewBox="0 0 48 48" fill="none" xmlns="http://www.w3.org/2000/svg">
<rect width="48" height="48" rx="6" fill="#47B5FF"/>
<g clip-path="url(#clip0_615_6407)">
<path d="M32.1667 13.5H27.29C26.8 12.1467 25.5167 11.1667 24 11.1667C22.4833 11.1667 21.2 12.1467 20.71 13.5H15.8333C14.55 13.5 13.5 14.55 13.5 15.8333V32.1667C13.5 33.45 14.55 34.5 15.8333 34.5H32.1667C33.45 34.5 34.5 33.45 34.5 32.1667V15.8333C34.5 14.55 33.45 13.5 32.1667 13.5ZM24 13.5C24.6417 13.5 25.1667 14.025 25.1667 14.6667C25.1667 15.3083 24.6417 15.8333 24 15.8333C23.3583 15.8333 22.8333 15.3083 22.8333 14.6667C22.8333 14.025 23.3583 13.5 24 13.5ZM21.6667 29.8333L17 25.1667L18.645 23.5217L21.6667 26.5317L29.355 18.8433L31 20.5L21.6667 29.8333Z" fill="white"/>
</g>
<defs>
<clipPath id="clip0_615_6407">
<rect width="28" height="28" fill="white" transform="translate(10 10)"/>
</clipPath>
</defs>
</svg>
