<svg width="48" height="48" viewBox="0 0 48 48" fill="none" xmlns="http://www.w3.org/2000/svg">
<rect width="48" height="48" rx="6" fill="#FFF7ED"/>
<path d="M23.3 30.95H24.8V25.925L26.85 27.975L27.9 26.925L24 23.125L20.15 26.975L21.2 28.025L23.3 25.925V30.95ZM17.5 34C17.1 34 16.75 33.85 16.45 33.55C16.15 33.25 16 32.9 16 32.5V15.5C16 15.1 16.15 14.75 16.45 14.45C16.75 14.15 17.1 14 17.5 14H26.525L32 19.475V32.5C32 32.9 31.85 33.25 31.55 33.55C31.25 33.85 30.9 34 30.5 34H17.5ZM25.775 20.15H30.5L25.775 15.5V20.15Z" fill="#F97316"/>
</svg>
