<svg width="48" height="48" viewBox="0 0 48 48" fill="none" xmlns="http://www.w3.org/2000/svg">
<rect width="48" height="48" rx="6" fill="#EEF2FF"/>
<path d="M33 24L28.775 29.975C28.5583 30.275 28.3 30.5208 28 30.7125C27.7 30.9042 27.3667 31 27 31H16.5C16.0833 31 15.7292 30.8542 15.4375 30.5625C15.1458 30.2708 15 29.9167 15 29.5V18.5C15 18.0833 15.1458 17.7292 15.4375 17.4375C15.7292 17.1458 16.0833 17 16.5 17H27C27.3667 17 27.7 17.0958 28 17.2875C28.3 17.4792 28.5583 17.725 28.775 18.025L33 24Z" fill="#6366F1"/>
</svg>
