<svg width="48" height="48" viewBox="0 0 48 48" fill="none" xmlns="http://www.w3.org/2000/svg">
<rect width="48" height="48" rx="6" fill="#396EB0"/>
<path d="M28 25H20C19.2044 25 18.4413 24.6839 17.8787 24.1213C17.3161 23.5587 17 22.7956 17 22V18C17 17.2044 17.3161 16.4413 17.8787 15.8787C18.4413 15.3161 19.2044 15 20 15H28C28.7956 15 29.5587 15.3161 30.1213 15.8787C30.6839 16.4413 31 17.2044 31 18V22C31 22.7956 30.6839 23.5587 30.1213 24.1213C29.5587 24.6839 28.7956 25 28 25ZM20 17C19.7348 17 19.4804 17.1054 19.2929 17.2929C19.1054 17.4804 19 17.7348 19 18V22C19 22.2652 19.1054 22.5196 19.2929 22.7071C19.4804 22.8946 19.7348 23 20 23H28C28.2652 23 28.5196 22.8946 28.7071 22.7071C28.8946 22.5196 29 22.2652 29 22V18C29 17.7348 28.8946 17.4804 28.7071 17.2929C28.5196 17.1054 28.2652 17 28 17H20Z" fill="white"/>
<path d="M22.0001 21C21.7353 20.9963 21.4817 20.8928 21.2901 20.71C21.1282 20.5606 21.0202 20.3619 20.9828 20.1448C20.9454 19.9277 20.9807 19.7043 21.0833 19.5094C21.186 19.3144 21.3501 19.1588 21.5502 19.0667C21.7503 18.9746 21.9753 18.9511 22.1901 19C22.2563 19.0093 22.3206 19.0296 22.3801 19.06C22.4415 19.08 22.4991 19.1104 22.5501 19.15L22.7101 19.27C22.8583 19.4086 22.9609 19.5891 23.0041 19.7873C23.0473 19.9856 23.0292 20.1923 22.9522 20.3801C22.8751 20.5678 22.7428 20.7276 22.5727 20.8384C22.4027 20.9491 22.203 21.0055 22.0001 21Z" fill="white"/>
<path d="M26 21C25.8013 21.0012 25.6069 20.9431 25.4413 20.8333C25.2758 20.7235 25.1468 20.5669 25.0706 20.3835C24.9944 20.2 24.9746 19.9981 25.0137 19.8033C25.0527 19.6086 25.1489 19.4299 25.29 19.29C25.3832 19.1968 25.4939 19.1228 25.6157 19.0723C25.7375 19.0219 25.8681 18.9959 26 18.9959C26.1318 18.9959 26.2624 19.0219 26.3842 19.0723C26.506 19.1228 26.6167 19.1968 26.71 19.29C26.8032 19.3832 26.8772 19.4939 26.9276 19.6158C26.9781 19.7376 27.004 19.8681 27.004 20C27.004 20.1319 26.9781 20.2624 26.9276 20.3843C26.8772 20.5061 26.8032 20.6168 26.71 20.71C26.6608 20.7552 26.6072 20.7954 26.55 20.83C26.4989 20.8696 26.4414 20.9 26.38 20.92C26.3204 20.9505 26.2562 20.9707 26.19 20.98L26 21Z" fill="white"/>
<path d="M24 16C23.7348 16 23.4804 15.8946 23.2929 15.7071C23.1054 15.5196 23 15.2652 23 15V14C23 13.7348 23.1054 13.4804 23.2929 13.2929C23.4804 13.1054 23.7348 13 24 13C24.2652 13 24.5196 13.1054 24.7071 13.2929C24.8946 13.4804 25 13.7348 25 14V15C25 15.2652 24.8946 15.5196 24.7071 15.7071C24.5196 15.8946 24.2652 16 24 16Z" fill="white"/>
<path d="M21 34C20.7348 34 20.4804 33.8946 20.2929 33.7071C20.1054 33.5196 20 33.2652 20 33V30C20 29.7348 20.1054 29.4804 20.2929 29.2929C20.4804 29.1054 20.7348 29 21 29C21.2652 29 21.5196 29.1054 21.7071 29.2929C21.8946 29.4804 22 29.7348 22 30V33C22 33.2652 21.8946 33.5196 21.7071 33.7071C21.5196 33.8946 21.2652 34 21 34Z" fill="white"/>
<path d="M27 34C26.7348 34 26.4804 33.8946 26.2929 33.7071C26.1054 33.5196 26 33.2652 26 33V30C26 29.7348 26.1054 29.4804 26.2929 29.2929C26.4804 29.1054 26.7348 29 27 29C27.2652 29 27.5196 29.1054 27.7071 29.2929C27.8946 29.4804 28 29.7348 28 30V33C28 33.2652 27.8946 33.5196 27.7071 33.7071C27.5196 33.8946 27.2652 34 27 34Z" fill="white"/>
<path d="M27 31H21C20.7348 31 20.4804 30.8946 20.2929 30.7071C20.1054 30.5196 20 30.2652 20 30V24C20 23.7348 20.1054 23.4804 20.2929 23.2929C20.4804 23.1054 20.7348 23 21 23H27C27.2652 23 27.5196 23.1054 27.7071 23.2929C27.8946 23.4804 28 23.7348 28 24V30C28 30.2652 27.8946 30.5196 27.7071 30.7071C27.5196 30.8946 27.2652 31 27 31ZM22 29H26V25H22V29Z" fill="white"/>
<path d="M16.9998 29C16.8151 28.9995 16.6342 28.9478 16.4771 28.8507C16.32 28.7536 16.1929 28.6149 16.1098 28.45C15.9912 28.2138 15.9709 27.9403 16.0533 27.6892C16.1358 27.4381 16.3143 27.2299 16.5498 27.11L20.5498 25.11C20.6676 25.0391 20.7988 24.9933 20.9351 24.9754C21.0715 24.9575 21.2101 24.9679 21.3422 25.0059C21.4743 25.044 21.5972 25.1089 21.7031 25.1966C21.809 25.2843 21.8957 25.3929 21.9578 25.5156C22.0198 25.6384 22.0559 25.7726 22.0637 25.9098C22.0716 26.0471 22.051 26.1846 22.0033 26.3135C21.9557 26.4425 21.8819 26.5603 21.7867 26.6595C21.6914 26.7587 21.5767 26.8372 21.4498 26.89L17.4498 28.89C17.3115 28.9641 17.1567 29.0019 16.9998 29Z" fill="white"/>
<path d="M31.0001 29C30.8433 29.0019 30.6885 28.9641 30.5501 28.89L26.5501 26.89C26.4232 26.8372 26.3085 26.7587 26.2133 26.6595C26.118 26.5603 26.0443 26.4425 25.9966 26.3135C25.9489 26.1846 25.9284 26.0471 25.9362 25.9098C25.944 25.7726 25.9801 25.6384 26.0422 25.5156C26.1042 25.3929 26.1909 25.2843 26.2968 25.1966C26.4027 25.1089 26.5256 25.044 26.6577 25.0059C26.7899 24.9679 26.9285 24.9575 27.0648 24.9754C27.2011 24.9933 27.3323 25.0391 27.4501 25.11L31.4502 27.11C31.6857 27.2299 31.8642 27.4381 31.9466 27.6892C32.0291 27.9403 32.0088 28.2138 31.8901 28.45C31.807 28.6149 31.6799 28.7536 31.5228 28.8507C31.3657 28.9478 31.1848 28.9995 31.0001 29Z" fill="white"/>
</svg>
