<svg width="48" height="48" viewBox="0 0 48 48" fill="none" xmlns="http://www.w3.org/2000/svg">
<rect width="48" height="48" rx="6" fill="#ECFDF5"/>
<g clip-path="url(#clip0_609_5917)">
<path d="M30 23V25H34V23H30ZM28 29.61C28.96 30.32 30.21 31.26 31.2 32C31.6 31.47 32 30.93 32.4 30.4C31.41 29.66 30.16 28.72 29.2 28C28.8 28.54 28.4 29.08 28 29.61ZM32.4 17.6C32 17.07 31.6 16.53 31.2 16C30.21 16.74 28.96 17.68 28 18.4C28.4 18.93 28.8 19.47 29.2 20C30.16 19.28 31.41 18.35 32.4 17.6ZM16 21C14.9 21 14 21.9 14 23V25C14 26.1 14.9 27 16 27H17V31H19V27H20L25 30V18L20 21H16ZM27.5 24C27.5 22.67 26.92 21.47 26 20.65V27.34C26.92 26.53 27.5 25.33 27.5 24Z" fill="#10B981"/>
</g>
<defs>
<clipPath id="clip0_609_5917">
<rect width="24" height="24" fill="white" transform="translate(12 12)"/>
</clipPath>
</defs>
</svg>
