<svg width="79" height="22" viewBox="0 0 79 22" fill="none" xmlns="http://www.w3.org/2000/svg">
<g id="Asset 3" clip-path="url(#clip0_609_5851)">
<g id="Layer 2">
<g id="Layer 1">
<g id="Layer 2_2">
<g id="Layer 1-2">
<path id="Vector" d="M4.03017 0H0.900879V17.5231V20.6377H4.03017H10.0935V17.5231H4.03017V0Z" fill="#646C8A"/>
<path id="Vector_2" d="M72.8846 17.5231V0H69.5586V17.5231V20.6377H72.8846H78.9485V17.5231H72.8846Z" fill="#646C8A"/>
<path id="Vector_3" d="M55.0847 0H52.7368V20.6377H55.0847H55.8666H64.2788V17.5231H55.8666V10.9021H64.2788V7.78742H55.8666V3.31049H64.2788V0H55.8666H55.0847Z" fill="#646C8A"/>
<path id="Vector_4" d="M18.1149 0H15.7676V20.6377H18.1149H18.8969H27.3076V17.5231H18.8969V10.9021H27.3076V7.78742H18.8969V3.31049H27.3076V0H18.8969H18.1149Z" fill="#646C8A"/>
<path id="Vector_5" d="M39.6313 13.4343L34.5446 0H30.8286L39.6313 22L49.2159 0H45.6946L39.6313 13.4343Z" fill="#646C8A"/>
</g>
</g>
</g>
</g>
</g>
<defs>
<clipPath id="clip0_609_5851">
<rect width="78.0476" height="22" fill="white" transform="translate(0.900879)"/>
</clipPath>
</defs>
</svg>
