<svg width="85" height="16" viewBox="0 0 85 16" fill="none" xmlns="http://www.w3.org/2000/svg">
<path d="M13.6307 7.72727C13.6307 9.31345 13.33 10.6629 12.7287 11.7756C12.1321 12.8883 11.3177 13.7382 10.2855 14.3253C9.25805 14.9077 8.10275 15.1989 6.8196 15.1989C5.52699 15.1989 4.36695 14.9053 3.33949 14.3182C2.31203 13.7311 1.5 12.8812 0.903409 11.7685C0.306818 10.6558 0.00852273 9.30871 0.00852273 7.72727C0.00852273 6.1411 0.306818 4.79167 0.903409 3.67898C1.5 2.56629 2.31203 1.71875 3.33949 1.13636C4.36695 0.549242 5.52699 0.255681 6.8196 0.255681C8.10275 0.255681 9.25805 0.549242 10.2855 1.13636C11.3177 1.71875 12.1321 2.56629 12.7287 3.67898C13.33 4.79167 13.6307 6.1411 13.6307 7.72727ZM10.5128 7.72727C10.5128 6.69981 10.3589 5.83333 10.0511 5.12784C9.74811 4.42235 9.3196 3.88731 8.76562 3.52273C8.21165 3.15814 7.56297 2.97585 6.8196 2.97585C6.07623 2.97585 5.42756 3.15814 4.87358 3.52273C4.3196 3.88731 3.88873 4.42235 3.58097 5.12784C3.27794 5.83333 3.12642 6.69981 3.12642 7.72727C3.12642 8.75473 3.27794 9.62121 3.58097 10.3267C3.88873 11.0322 4.3196 11.5672 4.87358 11.9318C5.42756 12.2964 6.07623 12.4787 6.8196 12.4787C7.56297 12.4787 8.21165 12.2964 8.76562 11.9318C9.3196 11.5672 9.74811 11.0322 10.0511 10.3267C10.3589 9.62121 10.5128 8.75473 10.5128 7.72727ZM28.0749 0.454545V15H25.4187L19.0906 5.84517H18.984V15H15.9087V0.454545H18.6076L24.886 9.60227H25.0138V0.454545H28.0749ZM30.6158 15V0.454545H40.4169V2.99006H33.6911V6.45597H39.9126V8.99148H33.6911V12.4645H40.4453V15H30.6158Z" fill="#6292F2"/>
<path d="M42.8619 15V0.454545H45.9371V12.4645H52.1729V15H42.8619ZM57.2848 0.454545V15H54.2095V0.454545H57.2848ZM71.9812 0.454545V15H69.3249L62.9968 5.84517H62.8903V15H59.815V0.454545H62.5138L68.7923 9.60227H68.9201V0.454545H71.9812ZM74.522 15V0.454545H84.3232V2.99006H77.5973V6.45597H83.8189V8.99148H77.5973V12.4645H84.3516V15H74.522Z" fill="#163369"/>
</svg>
