<svg width="129" height="30" viewBox="0 0 129 30" fill="none" xmlns="http://www.w3.org/2000/svg">
<g id="Layer 2">
<g id="Layer 1">
<path id="Vector" d="M7.14163 2.41382C4.97528 3.74767 3.18278 5.6144 1.93331 7.83783C0.683838 10.0613 0.0186017 12.568 0.000384496 15.1216C-0.0178327 17.6752 0.61157 20.1913 1.82919 22.4325C3.04681 24.6737 4.81249 26.5661 6.95959 27.9311L16.5517 15.2347L7.14163 2.41382Z" fill="#646C8A"/>
<path id="Vector_2" d="M24.4824 3.69507C22.8984 2.26634 21.0279 1.21012 19.0024 0.600652C16.9769 -0.00881888 14.8456 -0.15675 12.7583 0.167257L19.7769 11.0345L24.4824 3.69507Z" fill="#646C8A"/>
<path id="Vector_3" d="M12.4136 29.7848C14.6208 30.1665 16.8858 30.0393 19.0367 29.413C21.1876 28.7867 23.1679 27.6777 24.8274 26.1702L19.8351 18.9656L12.4136 29.7848Z" fill="#646C8A"/>
<path id="Vector_4" d="M27.9096 7.93115L22.7588 15.1398L28.0095 22.0691C29.1082 19.8743 29.6723 17.4468 29.655 14.9879C29.6376 12.5291 29.0393 10.1099 27.9096 7.93115Z" fill="#646C8A"/>
<path id="Vector_5" d="M57.5389 22.3247L60.5288 17.8981L63.5179 22.3247H68.4346L62.8858 14.9082L68.0028 8.06641H63.0869L60.5576 11.8608L58.0274 8.06641H53.1115L58.1998 14.8795L52.623 22.3247H57.5389Z" fill="#646C8A"/>
<path id="Vector_6" d="M72.9877 22.3195H76.9596V11.5801H80.7887V8.06458H76.9486V8.03839L76.9613 6.39469C76.9795 6.19928 77.0292 6.00808 77.1084 5.82849C77.3056 5.35543 77.678 4.97693 78.1478 4.77213C78.3322 4.69362 78.5279 4.64512 78.7276 4.62846C78.7752 4.62197 78.8232 4.61886 78.8712 4.61917H80.7904V1.09009C79.9208 1.09009 79.1619 1.09009 78.529 1.09009H78.5061C78.436 1.09009 78.3718 1.09009 78.3177 1.09009C78.196 1.09009 78.0684 1.10023 78.0456 1.10276C77.7196 1.12063 77.3956 1.16358 77.0762 1.23122C77.0543 1.23713 77.0315 1.24051 77.0129 1.24727C76.7982 1.30361 76.5869 1.36446 76.3791 1.42981C75.7327 1.64751 75.1403 2.00075 74.6416 2.46589C74.1176 2.96926 73.7076 3.579 73.439 4.25409C73.4196 4.29888 73.401 4.34367 73.3849 4.38846C73.3689 4.43325 73.3494 4.48142 73.3334 4.52959C73.3013 4.6217 73.2725 4.71804 73.2404 4.81438V4.8203C73.215 4.92002 73.1897 5.01889 73.1643 5.12115C73.1415 5.2234 73.1196 5.32904 73.1001 5.43468C73.0233 5.8912 72.9857 6.35346 72.9877 6.81639V8.03501H71.1167V11.5768H72.9877V22.3195Z" fill="#646C8A"/>
<path id="Vector_7" d="M124.306 1.46631V9.01884C123.777 8.52456 123.14 8.15978 122.447 7.95319C121.665 7.73164 120.855 7.62517 120.043 7.63713C119.071 7.62793 118.108 7.82976 117.221 8.22869C116.376 8.60895 115.617 9.1576 114.99 9.84111C114.356 10.5385 113.858 11.3482 113.522 12.2285C112.812 14.112 112.812 16.1896 113.522 18.0731C113.858 18.9543 114.356 19.7649 114.99 20.463C115.617 21.1463 116.376 21.6946 117.221 22.0746C118.887 22.8087 120.773 22.8606 122.476 22.2191C123.253 21.9216 123.862 21.5425 124.304 21.0816V22.3197H128.276V1.46631H124.306ZM123.197 18.1593C122.478 18.801 121.6 19.1218 120.563 19.1218C120.061 19.1256 119.564 19.0176 119.109 18.8058C118.664 18.6017 118.263 18.3149 117.925 17.9607C117.584 17.5974 117.315 17.172 117.134 16.7074C116.939 16.2127 116.841 15.6851 116.845 15.1533C116.844 14.6262 116.941 14.1036 117.134 13.6127C117.489 12.6776 118.197 11.9191 119.105 11.5C119.56 11.2876 120.057 11.1791 120.56 11.1823C121.052 11.1786 121.543 11.2519 122.013 11.3995C122.475 11.5409 122.897 11.7892 123.244 12.1243C123.592 12.4594 123.856 12.8718 124.014 13.3279C124.206 13.835 124.302 14.4635 124.302 15.2133C124.286 16.535 123.917 17.517 123.197 18.1593Z" fill="#646C8A"/>
<path id="Vector_8" d="M104.949 17.2177C104.949 17.0927 104.949 16.9701 104.955 16.8518C104.97 16.5091 105.005 16.1677 105.061 15.8293C105.081 15.7228 105.103 15.6172 105.125 15.5141C105.152 15.4118 105.177 15.3121 105.203 15.2124V15.2056C105.235 15.1093 105.264 15.0129 105.296 14.9191C105.312 14.8709 105.332 14.8262 105.348 14.778C105.364 14.7298 105.383 14.6884 105.402 14.6428C105.415 14.6174 105.425 14.5887 105.437 14.5583C105.705 13.911 106.105 13.3266 106.611 12.8419C107.048 12.4343 107.557 12.1116 108.113 11.8903C108.124 11.8869 108.134 11.8827 108.145 11.8776L108.357 11.8007C108.565 11.7331 108.778 11.672 108.993 11.6174C109.013 11.6114 109.035 11.6081 109.058 11.6013C109.379 11.5336 109.704 11.4907 110.032 11.4729C110.054 11.4729 110.183 11.4636 110.305 11.4602C110.36 11.4602 110.424 11.4602 110.495 11.4602H111.366V7.88208H109.794C109.709 7.88208 109.636 7.88208 109.576 7.88208C109.43 7.88208 109.282 7.89138 109.257 7.89814C108.874 7.91915 108.494 7.96858 108.119 8.04603C108.093 8.05532 108.067 8.0587 108.045 8.06546C107.792 8.12969 107.547 8.20068 107.302 8.28096C106.544 8.53487 105.85 8.94939 105.267 9.4962C105.158 9.59753 105.054 9.70473 104.955 9.81733V8.05955H100.979V22.3331H104.955L104.949 17.2177Z" fill="#646C8A"/>
<path id="Vector_9" d="M49.2626 9.76927C48.5777 9.07622 47.7657 8.5216 46.871 8.13572C45.9441 7.74088 44.9469 7.53735 43.9394 7.53735C42.9319 7.53735 41.9347 7.74088 41.0078 8.13572C40.1131 8.52134 39.3012 9.07568 38.6162 9.76842C37.9301 10.4681 37.3811 11.2902 36.9978 12.1921C36.6035 13.1293 36.4004 14.1357 36.4004 15.1525C36.4004 16.1692 36.6035 17.1757 36.9978 18.1128C37.3814 19.0138 37.9303 19.835 38.6162 20.534C39.3014 21.2258 40.1134 21.7793 41.0078 22.1641C41.9347 22.559 42.9319 22.7625 43.9394 22.7625C44.9469 22.7625 45.9441 22.559 46.871 22.1641C47.7656 21.7785 48.5776 21.2242 49.2626 20.5314C49.9487 19.8317 50.4976 19.0096 50.8809 18.1077C51.2758 17.1707 51.4792 16.1642 51.4792 15.1474C51.4792 14.1306 51.2758 13.1241 50.8809 12.1871C50.497 11.2873 49.9481 10.4672 49.2626 9.76927ZM47.1769 16.9153C47.0054 17.3691 46.7471 17.785 46.4163 18.1398C46.1019 18.4758 45.7258 18.7481 45.3084 18.9418C44.8832 19.1383 44.4197 19.2381 43.9512 19.2342C43.4785 19.2372 43.0108 19.1375 42.5805 18.9418C42.1571 18.7512 41.7757 18.4786 41.4582 18.1398C41.1272 17.7852 40.8689 17.3692 40.6976 16.9153C40.5078 16.4072 40.4141 15.8681 40.4213 15.3257C40.4168 14.7692 40.5103 14.2162 40.6976 13.6922C40.8705 13.2083 41.128 12.759 41.4582 12.3654C41.7696 11.9935 42.1509 11.6863 42.5805 11.4611C43.0029 11.2381 43.4735 11.1221 43.9512 11.1231C44.4247 11.1211 44.8912 11.2373 45.3084 11.4611C45.7336 11.689 46.1113 11.9959 46.4214 12.3654C46.7513 12.7592 47.0088 13.2084 47.182 13.6922C47.37 14.2161 47.4638 14.7691 47.4592 15.3257C47.4649 15.8685 47.3692 16.4076 47.1769 16.9153Z" fill="#646C8A"/>
<path id="Vector_10" d="M90.2456 22.7631C91.2487 22.7682 92.2419 22.5645 93.162 22.1648C94.0567 21.7792 94.8686 21.2248 95.5536 20.5321C96.2401 19.8322 96.7893 19.0098 97.1728 18.1076C97.5671 17.1704 97.7703 16.1639 97.7703 15.1472C97.7703 14.1305 97.5671 13.124 97.1728 12.1869C96.7889 11.2858 96.2397 10.4646 95.5536 9.7657C94.8686 9.07296 94.0567 8.51862 93.162 8.133C92.2352 7.73818 91.2382 7.53467 90.2308 7.53467C89.2235 7.53467 88.2264 7.73818 87.2997 8.133C86.4048 8.51821 85.5927 9.0726 84.9081 9.7657C84.2211 10.4657 83.6721 11.2888 83.2897 12.1919C82.8948 13.1289 82.6914 14.1355 82.6914 15.1523C82.6914 16.1691 82.8948 17.1756 83.2897 18.1126C83.6727 19.014 84.2217 19.8353 84.9081 20.5338C85.5927 21.2269 86.4048 21.7813 87.2997 22.1665C88.2296 22.5677 89.2329 22.7709 90.2456 22.7631ZM86.7166 15.3264C86.712 14.7699 86.8056 14.2169 86.9929 13.6928C87.1661 13.2091 87.4236 12.7599 87.7535 12.366C88.065 11.9939 88.4466 11.6867 88.8766 11.4618C89.299 11.2387 89.7696 11.1226 90.2473 11.1238C90.7191 11.1224 91.1838 11.2386 91.5995 11.4618C92.0228 11.6902 92.3988 11.9971 92.7074 12.366C93.0376 12.7597 93.2951 13.209 93.4679 13.6928C93.6559 14.2167 93.7498 14.7698 93.7451 15.3264C93.7525 15.8689 93.6585 16.408 93.4679 16.916C93.2967 17.3699 93.0383 17.7859 92.7074 18.1405C92.393 18.4765 92.0168 18.7488 91.5995 18.9425C91.1758 19.1383 90.7141 19.2382 90.2473 19.2349C89.7746 19.238 89.3069 19.1382 88.8766 18.9425C88.4529 18.7521 88.0711 18.4795 87.7535 18.1405C87.4228 17.7856 87.1644 17.3697 86.9929 16.916C86.803 16.4075 86.7093 15.8682 86.7166 15.3255V15.3264Z" fill="#646C8A"/>
</g>
</g>
</svg>
