<svg width="71" height="30" viewBox="0 0 71 30" fill="none" xmlns="http://www.w3.org/2000/svg">
<g id="Asset 1" clip-path="url(#clip0_609_5841)">
<g id="Layer 2">
<g id="Layer 1">
<path id="Vector" d="M14.0633 4.74363L7.16939 0L0.275879 4.74363L1.79518 6.81113L7.16939 2.87564L12.5436 6.81113L14.0633 4.74363Z" fill="#646C8A"/>
<path id="Vector_2" d="M35.2173 8.30542V23.4194H39.4089V8.30542" fill="#646C8A"/>
<path id="Vector_3" d="M30.1723 10.6116C29.5116 9.89414 28.7107 9.31836 27.8186 8.91941C26.9077 8.50694 25.9154 8.30041 24.8417 8.29982C23.9642 8.2979 23.094 8.45726 22.2747 8.76989C21.4549 9.0821 20.812 9.4801 20.3459 9.96391V8.66246H16.1543V30H20.3459V22.6237C20.9039 23.1415 21.5745 23.5241 22.3056 23.7418C23.0458 23.9628 23.8911 24.0733 24.8417 24.0733C25.9148 24.0733 26.9071 23.8669 27.8186 23.4542C28.7107 23.0552 29.5116 22.4794 30.1723 21.762C30.8415 21.0296 31.3669 20.179 31.7216 19.2543C32.4708 17.2774 32.4708 15.0967 31.7216 13.1197C31.3672 12.1947 30.8417 11.3439 30.1723 10.6116ZM27.9116 17.8029C27.5375 18.7857 26.7904 19.5831 25.8312 20.0234C25.351 20.2462 24.8268 20.3599 24.2969 20.3562C23.777 20.3603 23.2597 20.2837 22.7635 20.1291C22.2949 19.9826 21.8645 19.7351 21.5029 19.4042C21.138 19.0719 20.8543 18.6386 20.6518 18.1045C20.4494 17.5705 20.3481 16.9108 20.3481 16.1256C20.3687 14.7353 20.7586 13.7028 21.5179 13.0281C22.2772 12.3534 23.2035 12.0161 24.2969 12.0161C24.8268 12.0121 25.3509 12.1255 25.8312 12.348C26.2989 12.5649 26.7207 12.8685 27.0742 13.2425C27.4353 13.6237 27.7196 14.0703 27.9116 14.558C28.3157 15.6023 28.3157 16.7586 27.9116 17.8029Z" fill="#646C8A"/>
<path id="Vector_4" d="M47.167 18.1072C47.167 17.9756 47.1706 17.8472 47.1741 17.7222C47.189 17.3626 47.2264 17.0042 47.286 16.6492C47.3063 16.5378 47.3301 16.4264 47.3539 16.3186V16.3151C47.3808 16.2072 47.4081 16.1024 47.435 15.998V15.991C47.4689 15.8902 47.4998 15.7889 47.5337 15.6906C47.5505 15.6402 47.5708 15.5929 47.588 15.5424C47.6051 15.492 47.625 15.4477 47.6457 15.4008C47.6589 15.3736 47.6695 15.3434 47.6827 15.3162C47.9948 14.5938 48.4075 13.9932 48.9208 13.5144C49.3818 13.0863 49.919 12.7475 50.5049 12.5155C50.5165 12.5116 50.5278 12.5071 50.5389 12.5019L50.7628 12.4208C50.9831 12.3501 51.207 12.286 51.4345 12.2287C51.4548 12.2217 51.4786 12.2186 51.5024 12.2116C51.841 12.1406 52.1846 12.0954 52.5302 12.0766C52.5536 12.0735 52.6893 12.0665 52.8185 12.063C52.8762 12.063 52.9441 12.0599 53.0186 12.0599H53.9376V8.31079H52.279C52.1944 8.31079 52.1128 8.31386 52.0485 8.31386C51.896 8.31737 51.7399 8.32438 51.7126 8.33096C51.309 8.35265 50.9077 8.40453 50.512 8.48619C50.4846 8.49627 50.4578 8.49978 50.4339 8.50636C50.1695 8.57389 49.9081 8.64799 49.6503 8.73262C48.8507 8.99924 48.1184 9.43433 47.5033 10.0082C47.3876 10.1147 47.2777 10.2272 47.1741 10.3454V8.50022H42.978V23.4726H47.1728L47.167 18.1072Z" fill="#646C8A"/>
<path id="Vector_5" d="M70.1779 21.2064C69.4242 22.165 68.4713 22.9047 67.3191 23.4256C66.1957 23.94 64.9737 24.2066 63.7371 24.207C62.6076 24.2144 61.4856 24.024 60.4225 23.6444C59.3856 23.2694 58.4848 22.7328 57.7202 22.0347C56.9496 21.3291 56.3343 20.4722 55.9131 19.5182C55.4723 18.5389 55.252 17.445 55.252 16.2365C55.252 15.028 55.4723 13.934 55.9131 12.9544C56.3345 12.0006 56.9497 11.1439 57.7202 10.4383C58.4842 9.74024 59.385 9.20353 60.4225 8.82818C61.4856 8.44863 62.6076 8.25819 63.7371 8.26559C64.8263 8.26559 65.8161 8.45312 66.7065 8.82818C67.5735 9.18718 68.347 9.73781 68.9685 10.4383C69.5855 11.1364 70.062 11.9751 70.3978 12.9544C70.7337 13.9337 70.9013 15.0278 70.9008 16.2365V17.7055H59.9668C60.1554 18.6018 60.5639 19.3155 61.1921 19.8467C61.8203 20.3778 62.5953 20.6435 63.5171 20.6438C64.292 20.6438 64.9465 20.4719 65.4807 20.1282C66.025 19.7746 66.4991 19.3241 66.8792 18.7995L70.1779 21.2064ZM66.1877 14.5172C66.2086 13.7259 65.9467 13.0487 65.4023 12.4857C64.8578 11.9226 64.1561 11.6413 63.2972 11.6416C62.7735 11.6416 62.3128 11.7249 61.9149 11.8915C61.5395 12.0442 61.1938 12.2611 60.8937 12.5326C60.6143 12.7874 60.3894 13.0957 60.2326 13.4389C60.0764 13.7785 59.9858 14.1443 59.9655 14.5172H66.1877Z" fill="#646C8A"/>
<path id="Vector_6" d="M11.2436 12.8401C11.2436 12.8401 9.946 12.1442 9.43119 11.9631C8.91638 11.782 8.42934 11.6912 7.97006 11.6912C7.6902 11.6925 7.41132 11.7241 7.13835 11.7855C6.85707 11.8475 6.58546 11.9469 6.33087 12.081C6.0861 12.2077 5.87472 12.3899 5.71381 12.6129C5.55572 12.8339 5.47668 13.1023 5.47668 13.418C5.47668 13.9223 5.66679 14.3083 6.04702 14.5761C6.42725 14.8438 6.90592 15.0717 7.48302 15.2597C8.06071 15.4488 8.68233 15.638 9.34789 15.8271C10.0027 16.0117 10.6299 16.282 11.2132 16.6309C11.7935 16.9798 12.2853 17.4569 12.6505 18.0253C13.0304 18.6079 13.2206 19.388 13.2209 20.3655C13.2209 21.2957 13.0466 22.1072 12.6981 22.8C12.365 23.4747 11.8816 24.0648 11.2846 24.5255C10.6679 24.9939 9.96596 25.339 9.21742 25.5419C8.40907 25.7652 7.57353 25.876 6.73461 25.8712C5.64152 25.8712 4.62777 25.7058 3.69335 25.3749C2.75894 25.0439 1.88785 24.5088 1.08008 23.7695L2.8872 20.8316C2.8872 20.8316 4.5762 21.7801 5.15448 22.0563C5.71324 22.3276 6.32665 22.469 6.94838 22.4698C7.25632 22.469 7.56316 22.4333 7.86296 22.3633C8.15459 22.299 8.43482 22.1914 8.69424 22.0441C8.93111 21.9099 9.13427 21.724 9.28838 21.5003C9.44187 21.2693 9.52062 20.9971 9.51405 20.7203C9.51405 20.216 9.31997 19.8181 8.93181 19.5267C8.54364 19.2352 8.0566 18.9867 7.47068 18.7812C6.883 18.5766 6.24948 18.372 5.57012 18.1673C4.90511 17.9697 4.26686 17.692 3.66955 17.3403C3.08662 16.9965 2.58771 16.5282 2.20887 15.9692C1.82012 15.4018 1.62603 14.6537 1.62662 13.725C1.62662 12.8269 1.80484 12.0391 2.16127 11.3615C2.50617 10.6977 2.99265 10.1169 3.58669 9.65968C4.20124 9.19253 4.89816 8.84379 5.64152 8.63141C6.42067 8.40237 7.22901 8.28658 8.04147 8.28763C8.97508 8.28513 9.90389 8.4205 10.7976 8.68929C11.6867 8.95864 12.5058 9.41859 13.1971 10.0368L11.2436 12.8401Z" fill="#646C8A"/>
<path id="Vector_7" d="M37.3263 6.58124C38.6664 6.58124 39.7527 5.50049 39.7527 4.16733C39.7527 2.83416 38.6664 1.75342 37.3263 1.75342C35.9862 1.75342 34.8999 2.83416 34.8999 4.16733C34.8999 5.50049 35.9862 6.58124 37.3263 6.58124Z" fill="#646C8A"/>
</g>
</g>
</g>
<defs>
<clipPath id="clip0_609_5841">
<rect width="70.625" height="30" fill="white" transform="translate(0.275879)"/>
</clipPath>
</defs>
</svg>
