<svg width="31" height="30" viewBox="0 0 31 30" fill="none" xmlns="http://www.w3.org/2000/svg">
    <g clip-path="url(#clip0_2997_6290)">
        <path fill-rule="evenodd" clip-rule="evenodd" d="M15.4199 0C23.7042 0 30.4199 6.71572 30.4199 15C30.4199 23.2843 23.7042 30 15.4199 30C7.13563 30 0.419922 23.2843 0.419922 15C0.419922 6.71571 7.13566 0 15.4199 0Z" fill="#0EA5E9"/>
        <g clip-path="url(#clip1_2997_6290)">
            <path d="M15.1758 13.7741L17.4681 18.0156C17.4754 18.0272 17.482 18.0394 17.4877 18.0519L13.6404 17.1411L15.1758 13.7741ZM10.1153 18.7852L11.3562 18.9753C11.5872 19.0102 11.8234 18.969 12.029 18.8579C12.2346 18.7468 12.3985 18.5718 12.4959 18.3594L13.0167 17.2172L14.7953 13.319C14.6322 13.2067 14.4414 13.1416 14.2437 13.1308C14.0461 13.1199 13.8493 13.1638 13.6749 13.2575L6.44221 17.1664C6.26827 17.2609 6.12375 17.4015 6.02454 17.5728C5.92532 17.7441 5.87525 17.9394 5.87982 18.1373L10.1153 18.7852ZM6.05205 18.705L8.34432 22.9465C8.35008 22.959 8.35663 22.9711 8.36394 22.9828L9.70995 19.2654L6.05205 18.705ZM12.9837 18.5791C12.8378 18.8982 12.5918 19.1611 12.283 19.3279C11.9743 19.4948 11.6196 19.5565 11.2726 19.5038L10.2537 19.3468L8.79185 23.3858C8.94873 23.4677 9.12337 23.5096 9.30031 23.5079C9.47726 23.5062 9.65105 23.4609 9.80632 23.376L17.0327 19.4705C17.1888 19.3872 17.3219 19.2666 17.4203 19.1195C17.5187 18.9724 17.5793 18.8033 17.5968 18.6273L13.4107 17.6406L12.9837 18.5791Z" fill="white"/>
        </g>
        <g clip-path="url(#clip2_2997_6290)">
            <path d="M26.1791 8.99749L19.3045 4.86556C18.6563 4.47598 17.7954 4.7072 17.394 5.37502L14.9149 9.49981C14.5135 10.1676 14.7133 11.0364 15.3614 11.4259L19.5059 13.9169L19.8489 17.5722C19.8685 17.7177 19.9509 17.8474 20.0688 17.9183C20.1081 17.9419 20.1473 17.9655 20.1984 17.9695C20.391 18.005 20.5718 17.9265 20.6781 17.7497L22.0711 15.432L22.2283 15.5264C22.8764 15.916 23.7373 15.6848 24.1387 15.017L26.6179 10.8922C27.0271 10.2558 26.8273 9.38708 26.1791 8.99749ZM18.436 9.9584C18.318 10.0212 18.2119 10.0643 18.0979 10.0761C17.9839 10.0878 17.8621 10.068 17.7324 10.0168C17.6028 9.96563 17.4731 9.91444 17.3552 9.8436C17.2178 9.76097 17.1117 9.67049 17.0057 9.58001C16.8996 9.48954 16.825 9.39123 16.7701 9.30472L17.1006 8.75475C17.1516 8.89235 17.2026 9.02994 17.2968 9.14006C17.3911 9.25017 17.4775 9.32884 17.5953 9.39968C17.6543 9.43509 17.7132 9.47051 17.7839 9.48629C17.8546 9.50206 17.9057 9.50603 17.9372 9.49819C17.9883 9.50216 18.0315 9.47468 18.063 9.46685C18.1062 9.43937 18.118 9.41973 18.1416 9.38044C18.1652 9.34116 18.181 9.27043 18.185 9.21934C18.189 9.16825 18.1733 9.10536 18.1458 9.0621C18.1301 8.99921 18.083 8.94415 18.0477 8.86945C18.0124 8.79475 17.9456 8.72788 17.9103 8.65318C17.7808 8.46837 17.7023 8.28752 17.6749 8.11064C17.6475 7.93376 17.6909 7.77266 17.7971 7.59588C17.8798 7.45839 17.9585 7.37198 18.0764 7.30919C18.1944 7.2464 18.3005 7.20325 18.4145 7.19154C18.5285 7.17984 18.6503 7.19958 18.7918 7.23113C18.9332 7.26268 19.0511 7.33352 19.1689 7.40435C19.2868 7.47518 19.4046 7.54602 19.491 7.62468C19.5774 7.70335 19.6442 7.77022 19.6992 7.85672L19.3922 8.36741C19.3647 8.32416 19.3491 8.26127 19.3019 8.20621C19.2745 8.16295 19.2273 8.1079 19.1999 8.06464C19.1527 8.00958 19.1135 7.98597 19.086 7.94272C19.0467 7.91911 18.9996 7.86405 18.9603 7.84044C18.9014 7.80502 18.8424 7.76961 18.7914 7.76564C18.7206 7.74986 18.6813 7.72625 18.6381 7.75373C18.587 7.74976 18.5555 7.7576 18.5123 7.78507C18.469 7.81255 18.4572 7.83219 18.4336 7.87148C18.41 7.91076 18.406 7.96185 18.4021 8.01294C18.3981 8.06403 18.4256 8.10728 18.4413 8.17018C18.4569 8.23307 18.4844 8.27633 18.5315 8.33138C18.5786 8.38644 18.614 8.46114 18.6611 8.5162C18.7357 8.61451 18.7906 8.70102 18.8338 8.80717C18.8887 8.89367 18.9123 8.98801 18.9358 9.08236C18.9593 9.1767 18.9631 9.25924 18.9356 9.34961C18.908 9.43998 18.8804 9.53035 18.8214 9.62856C18.6444 9.78957 18.5539 9.89561 18.436 9.9584ZM21.3858 12.2126L20.8555 11.8939L21.7527 10.4011C21.8471 10.244 21.9534 10.0672 22.0911 9.88259L22.0714 9.87079C21.9574 10.0161 21.859 10.0907 21.7922 10.1575L20.2269 11.5161L19.7948 11.2564L20.2287 9.24448C20.2326 9.19339 20.2838 9.06374 20.3626 8.84371L20.343 8.8319C20.2209 9.07941 20.0911 9.29547 19.973 9.49189L19.1466 10.8668L18.6752 10.5835L20.1745 8.08897L20.9602 8.56119L20.5658 10.3295C20.5343 10.4709 20.4831 10.6006 20.4319 10.7302L20.4515 10.742C20.5735 10.6282 20.6639 10.5221 20.7623 10.4475L22.1387 9.26952L22.9047 9.72994L21.4054 12.2245L21.3858 12.2126ZM23.5428 13.0278C23.4249 13.0906 23.3187 13.1338 23.2048 13.1455C23.0908 13.1572 22.969 13.1374 22.8393 13.0863C22.7096 13.0351 22.58 12.9839 22.4621 12.913C22.3246 12.8304 22.2186 12.7399 22.1126 12.6495C22.0065 12.559 21.9319 12.4607 21.877 12.3742L22.2075 11.8242C22.2585 11.9618 22.3095 12.0994 22.4037 12.2095C22.498 12.3196 22.5844 12.3983 22.7022 12.4691C22.7611 12.5045 22.8201 12.5399 22.8908 12.5557C22.9615 12.5715 23.0126 12.5755 23.0441 12.5676C23.0952 12.5716 23.1384 12.5441 23.1699 12.5363C23.2131 12.5088 23.2249 12.4892 23.2485 12.4499C23.2721 12.4106 23.2879 12.3399 23.2919 12.2888C23.2958 12.2377 23.2802 12.1748 23.2527 12.1315C23.237 12.0686 23.1899 12.0136 23.1546 11.9389C23.1193 11.8642 23.0525 11.7973 23.0172 11.7226C22.8876 11.5378 22.8092 11.357 22.7818 11.1801C22.7544 11.0032 22.7978 10.8421 22.904 10.6653C22.9867 10.5278 23.0653 10.4414 23.1833 10.3786C23.3012 10.3158 23.4074 10.2727 23.5214 10.261C23.6354 10.2493 23.7572 10.269 23.8986 10.3006C24.0401 10.3321 24.158 10.403 24.2758 10.4738C24.3937 10.5446 24.5115 10.6155 24.5979 10.6941C24.6843 10.7728 24.7511 10.8397 24.806 10.9262L24.4991 11.4369C24.4716 11.3936 24.4559 11.3307 24.4088 11.2756C24.3813 11.2324 24.3342 11.1773 24.3067 11.1341C24.2596 11.079 24.2203 11.0554 24.1929 11.0122C24.1536 10.9885 24.1065 10.9335 24.0672 10.9099C24.0083 10.8745 23.9493 10.839 23.8982 10.8351C23.8275 10.8193 23.7882 10.7957 23.745 10.8232C23.6939 10.8192 23.6624 10.827 23.6192 10.8545C23.5759 10.882 23.5641 10.9016 23.5405 10.9409C23.5169 10.9802 23.5129 11.0313 23.509 11.0824C23.505 11.1335 23.5325 11.1767 23.5481 11.2396C23.5638 11.3025 23.5913 11.3458 23.6384 11.4008C23.6855 11.4559 23.7208 11.5306 23.768 11.5856C23.8426 11.684 23.8975 11.7705 23.9407 11.8766C23.9956 11.9631 24.0191 12.0575 24.0426 12.1518C24.0662 12.2461 24.07 12.3287 24.0424 12.419C24.0149 12.5094 23.9873 12.5998 23.9283 12.698C23.7513 12.859 23.6608 12.965 23.5428 13.0278Z" fill="white"/>
        </g>
    </g>
    <defs>
        <clipPath id="clip0_2997_6290">
            <rect width="30" height="30" fill="white" transform="translate(0.419922)"/>
        </clipPath>
        <clipPath id="clip1_2997_6290">
            <rect width="11.4835" height="11.4835" fill="white" transform="translate(3.95508 15.9951) rotate(-28.3888)"/>
        </clipPath>
        <clipPath id="clip2_2997_6290">
            <rect width="11" height="11" fill="white" transform="translate(18.0869 4) rotate(31.0075)"/>
        </clipPath>
    </defs>
</svg>
