<svg width="33" height="32" viewBox="0 0 33 32" fill="none" xmlns="http://www.w3.org/2000/svg">
    <circle cx="16.9199" cy="16" r="16" fill="#0EA5E9" fill-opacity="0.12"/>
    <path d="M18.7949 20.7273C18.2699 20.7273 17.8262 20.5295 17.4637 20.1341C17.1012 19.7386 16.9199 19.2545 16.9199 18.6818C16.9199 18.1091 17.1012 17.625 17.4637 17.2295C17.8262 16.8341 18.2699 16.6364 18.7949 16.6364C19.3199 16.6364 19.7637 16.8341 20.1262 17.2295C20.4887 17.625 20.6699 18.1091 20.6699 18.6818C20.6699 19.2545 20.4887 19.7386 20.1262 20.1341C19.7637 20.5295 19.3199 20.7273 18.7949 20.7273ZM11.6699 24C11.2574 24 10.9043 23.8398 10.6105 23.5193C10.3168 23.1989 10.1699 22.8136 10.1699 22.3636V10.9091C10.1699 10.4591 10.3168 10.0739 10.6105 9.75341C10.9043 9.43296 11.2574 9.27273 11.6699 9.27273H12.4199V7.63637H13.9199V9.27273H19.9199V7.63637H21.4199V9.27273H22.1699C22.5824 9.27273 22.9355 9.43296 23.2293 9.75341C23.523 10.0739 23.6699 10.4591 23.6699 10.9091V22.3636C23.6699 22.8136 23.523 23.1989 23.2293 23.5193C22.9355 23.8398 22.5824 24 22.1699 24H11.6699ZM11.6699 22.3636H22.1699V14.1818H11.6699V22.3636ZM11.6699 12.5455H22.1699V10.9091H11.6699V12.5455Z" fill="#0EA5E9"/>
</svg>
