<svg xmlns="http://www.w3.org/2000/svg" width="1440" height="231" viewBox="0 0 1440 231" fill="none">
    <rect width="1440" height="230" transform="translate(0.000183105 1)" fill="url(#paint0_linear_1_5736)"/>
    <rect width="1440" height="230" transform="translate(0.000244141)" fill="url(#paint1_linear_1_5736)"/>
    <g clip-path="url(#clip0_1_5736)">
        <path d="M1115.19 165.568C1115.41 165.183 1115.71 164.849 1116.06 164.593L1132.41 153.065C1132.77 152.813 1133.18 152.644 1133.62 152.572L1129.28 165.979L1115.19 165.568ZM1130.95 167.309C1130.89 167.515 1130.75 167.693 1130.58 167.818C1130.4 167.943 1130.19 168.007 1129.97 168L1114.85 167.559C1114.92 167.996 1115.09 168.411 1115.34 168.774L1123.41 180.214C1123.87 180.864 1124.57 181.305 1125.35 181.44C1126.14 181.575 1126.94 181.394 1127.59 180.937L1143.94 169.409C1144.59 168.95 1145.03 168.251 1145.16 167.468C1145.3 166.684 1145.12 165.878 1144.66 165.228L1136.59 153.788C1136.33 153.427 1136 153.129 1135.61 152.914L1130.95 167.309Z" fill="#2190B6"/>
    </g>
    <g clip-path="url(#clip1_1_5736)">
        <path d="M1308.67 77.868C1309.1 77.94 1309.52 78.1083 1309.88 78.3606L1326.23 89.8794C1326.59 90.1355 1326.89 90.4686 1327.1 90.8543L1313.01 91.2731L1308.67 77.868ZM1312.32 93.2945C1312.11 93.3009 1311.9 93.237 1311.72 93.1124C1311.54 92.9878 1311.41 92.8092 1311.34 92.6033L1306.68 78.211C1306.29 78.4258 1305.96 78.7245 1305.7 79.0852L1297.64 90.5301C1297.18 91.1808 1297 91.9864 1297.13 92.7701C1297.27 93.5538 1297.71 94.2516 1298.36 94.7104L1314.71 106.229C1315.36 106.687 1316.17 106.867 1316.95 106.731C1317.73 106.596 1318.43 106.154 1318.89 105.505L1326.95 94.0597C1327.21 93.6964 1327.38 93.2809 1327.45 92.8439L1312.32 93.2945Z" fill="#2190B6"/>
    </g>
    <g clip-path="url(#clip2_1_5736)">
        <path d="M311.253 151.436C311.583 151.144 311.975 150.929 312.399 150.808L331.654 145.399C332.08 145.282 332.526 145.261 332.96 145.338L324.393 156.527L311.253 151.436ZM325.525 158.339C325.394 158.51 325.21 158.635 325.002 158.693C324.793 158.752 324.572 158.741 324.37 158.663L310.262 153.197C310.184 153.633 310.205 154.081 310.323 154.507L314.109 167.986C314.325 168.751 314.836 169.4 315.529 169.789C316.223 170.179 317.043 170.277 317.809 170.063L337.063 164.653C337.829 164.437 338.477 163.927 338.867 163.233C339.256 162.539 339.354 161.72 339.14 160.954L335.354 147.476C335.232 147.05 335.016 146.657 334.722 146.325L325.525 158.339Z" fill="#2190B6"/>
    </g>
    <g clip-path="url(#clip3_1_5736)">
        <path d="M227.231 42.9368C227.585 42.9128 227.939 42.9681 228.269 43.0987L243.186 49.0943C243.514 49.2283 243.808 49.4339 244.047 49.6962L233.104 52.6224L227.231 42.9368ZM232.937 54.3311C232.769 54.3761 232.591 54.3653 232.43 54.3004C232.268 54.2356 232.132 54.1201 232.042 53.9714L225.736 43.5724C225.473 43.8119 225.267 44.1073 225.132 44.4368L220.936 54.8782C220.698 55.4717 220.705 56.1353 220.956 56.7234C221.207 57.3114 221.681 57.776 222.274 58.015L237.19 64.0105C237.783 64.2484 238.447 64.2411 239.035 63.9902C239.623 63.7393 240.088 63.2654 240.327 62.6724L244.524 52.231C244.655 51.9001 244.71 51.5439 244.685 51.1888L232.937 54.3311Z" fill="#157FA4"/>
    </g>
    <g opacity="0.17">
        <path opacity="0.038" d="M32.6181 205.619C15.0391 205.619 0.788414 201.424 0.788414 196.249C0.788414 191.074 15.0391 186.878 32.6181 186.878C50.1972 186.878 64.4478 191.074 64.4478 196.249C64.4478 201.424 50.1972 205.619 32.6181 205.619Z" fill="#4A0101"/>
        <path opacity="0.077" d="M32.6181 205.386C15.4744 205.386 1.57661 201.295 1.57661 196.249C1.57661 191.202 15.4744 187.111 32.6181 187.111C49.7619 187.111 63.6597 191.202 63.6597 196.249C63.6597 201.295 49.7619 205.386 32.6181 205.386Z" fill="#480202"/>
        <path opacity="0.115" d="M32.6182 205.155C15.9097 205.155 2.36478 201.168 2.36478 196.25C2.36478 191.332 15.9097 187.345 32.6182 187.345C49.3266 187.345 62.8715 191.332 62.8715 196.25C62.8715 201.168 49.3266 205.155 32.6182 205.155Z" fill="#460303"/>
        <path opacity="0.154" d="M32.6182 204.931C16.345 204.931 3.15297 201.044 3.15297 196.249C3.15297 191.454 16.345 187.566 32.6182 187.566C48.8914 187.566 62.0834 191.454 62.0834 196.249C62.0834 201.044 48.8914 204.931 32.6182 204.931Z" fill="#440404"/>
        <path opacity="0.192" d="M32.6182 204.698C16.7803 204.698 3.94114 200.915 3.94114 196.249C3.94114 191.582 16.7803 187.799 32.6182 187.799C48.4561 187.799 61.2952 191.582 61.2952 196.249C61.2952 200.915 48.4561 204.698 32.6182 204.698Z" fill="#420505"/>
        <path opacity="0.231" d="M32.6185 204.466C17.2214 204.466 4.73969 200.787 4.73969 196.249C4.73969 191.711 17.2214 188.032 32.6185 188.032C48.0155 188.032 60.4973 191.711 60.4973 196.249C60.4973 200.787 48.0155 204.466 32.6185 204.466Z" fill="#400606"/>
        <path opacity="0.269" d="M32.6185 204.233C17.6568 204.233 5.52789 200.658 5.52789 196.249C5.52789 191.839 17.6568 188.265 32.6185 188.265C47.5802 188.265 59.7091 191.839 59.7091 196.249C59.7091 200.658 47.5802 204.233 32.6185 204.233Z" fill="#3E0606"/>
        <path opacity="0.308" d="M32.6174 204.001C18.091 204.001 6.31496 200.531 6.31496 196.25C6.31496 191.969 18.091 188.498 32.6174 188.498C47.1439 188.498 58.9199 191.969 58.9199 196.25C58.9199 200.531 47.1439 204.001 32.6174 204.001Z" fill="#3C0707"/>
        <path opacity="0.346" d="M32.6185 203.767C18.5274 203.767 7.10425 200.401 7.10425 196.249C7.10425 192.096 18.5274 188.73 32.6185 188.73C46.7097 188.73 58.1328 192.096 58.1328 196.249C58.1328 200.401 46.7097 203.767 32.6185 203.767Z" fill="#3A0808"/>
        <path opacity="0.385" d="M32.6185 203.534C18.9627 203.534 7.89243 200.272 7.89243 196.249C7.89243 192.225 18.9627 188.963 32.6185 188.963C46.2744 188.963 57.3447 192.225 57.3447 196.249C57.3447 200.272 46.2744 203.534 32.6185 203.534Z" fill="#380909"/>
        <path opacity="0.423" d="M32.6186 203.302C19.398 203.302 8.68061 200.144 8.68061 196.249C8.68061 192.353 19.398 189.195 32.6186 189.195C45.8391 189.195 56.5565 192.353 56.5565 196.249C56.5565 200.144 45.8391 203.302 32.6186 203.302Z" fill="#360A0A"/>
        <path opacity="0.462" d="M32.6175 203.069C19.8322 203.069 9.46769 200.015 9.46769 196.249C9.46769 192.482 19.8322 189.428 32.6175 189.428C45.4028 189.428 55.7673 192.482 55.7673 196.249C55.7673 200.015 45.4028 203.069 32.6175 203.069Z" fill="#340B0B"/>
        <path opacity="0.5" d="M32.6175 202.836C20.2676 202.836 10.2559 199.887 10.2559 196.248C10.2559 192.61 20.2676 189.661 32.6175 189.661C44.9675 189.661 54.9792 192.61 54.9792 196.248C54.9792 199.887 44.9675 202.836 32.6175 202.836Z" fill="#330C0C"/>
        <path opacity="0.538" d="M32.6178 202.604C20.7087 202.604 11.0544 199.759 11.0544 196.25C11.0544 192.74 20.7087 189.895 32.6178 189.895C44.5269 189.895 54.1812 192.74 54.1812 196.25C54.1812 199.759 44.5269 202.604 32.6178 202.604Z" fill="#310D0D"/>
        <path opacity="0.577" d="M32.6178 202.371C21.144 202.371 11.8426 199.63 11.8426 196.248C11.8426 192.867 21.144 190.126 32.6178 190.126C44.0916 190.126 53.393 192.867 53.393 196.248C53.393 199.63 44.0916 202.371 32.6178 202.371Z" fill="#2F0E0E"/>
        <path opacity="0.615" d="M32.6189 202.139C21.5804 202.139 12.6319 199.502 12.6319 196.249C12.6319 192.997 21.5804 190.36 32.6189 190.36C43.6575 190.36 52.606 192.997 52.606 196.249C52.606 199.502 43.6575 202.139 32.6189 202.139Z" fill="#2D0F0F"/>
        <path opacity="0.654" d="M32.6178 201.906C22.0146 201.906 13.419 199.374 13.419 196.249C13.419 193.125 22.0146 190.593 32.6178 190.593C43.2211 190.593 51.8167 193.125 51.8167 196.249C51.8167 199.374 43.2211 201.906 32.6178 201.906Z" fill="#2B1010"/>
        <path opacity="0.692" d="M32.6179 201.673C22.4499 201.673 14.2072 199.245 14.2072 196.249C14.2072 193.254 22.4499 190.826 32.6179 190.826C42.7858 190.826 51.0286 193.254 51.0286 196.249C51.0286 199.245 42.7858 201.673 32.6179 201.673Z" fill="#291111"/>
        <path opacity="0.731" d="M32.6179 201.441C22.8852 201.441 14.9953 199.116 14.9953 196.249C14.9953 193.382 22.8852 191.058 32.6179 191.058C42.3505 191.058 50.2404 193.382 50.2404 196.249C50.2404 199.116 42.3505 201.441 32.6179 201.441Z" fill="#271212"/>
        <path opacity="0.769" d="M32.6191 201.208C23.3217 201.208 15.7847 198.988 15.7847 196.249C15.7847 193.511 23.3217 191.291 32.6191 191.291C41.9164 191.291 49.4534 193.511 49.4534 196.249C49.4534 198.988 41.9164 201.208 32.6191 201.208Z" fill="#251212"/>
        <path opacity="0.808" d="M32.6191 200.975C23.757 200.975 16.5729 198.859 16.5729 196.249C16.5729 193.639 23.757 191.524 32.6191 191.524C41.4811 191.524 48.6653 193.639 48.6653 196.249C48.6653 198.859 41.4811 200.975 32.6191 200.975Z" fill="#231313"/>
        <path opacity="0.846" d="M32.6182 200.741C24.197 200.741 17.3703 198.73 17.3703 196.248C17.3703 193.767 24.197 191.755 32.6182 191.755C41.0394 191.755 47.8661 193.767 47.8661 196.248C47.8661 198.73 41.0394 200.741 32.6182 200.741Z" fill="#211414"/>
        <path opacity="0.885" d="M32.6182 200.509C24.6323 200.509 18.1585 198.602 18.1585 196.249C18.1585 193.896 24.6323 191.989 32.6182 191.989C40.6041 191.989 47.078 193.896 47.078 196.249C47.078 198.602 40.6041 200.509 32.6182 200.509Z" fill="#1F1515"/>
        <path opacity="0.923" d="M32.6182 200.277C25.0676 200.277 18.9466 198.474 18.9466 196.249C18.9466 194.025 25.0676 192.222 32.6182 192.222C40.1689 192.222 46.2899 194.025 46.2899 196.249C46.2899 198.474 40.1689 200.277 32.6182 200.277Z" fill="#1D1616"/>
        <path opacity="0.962" d="M32.6183 200.044C25.5029 200.044 19.7348 198.345 19.7348 196.249C19.7348 194.153 25.5029 192.454 32.6183 192.454C39.7336 192.454 45.5017 194.153 45.5017 196.249C45.5017 198.345 39.7336 200.044 32.6183 200.044Z" fill="#1B1717"/>
        <path d="M32.6194 199.811C25.9394 199.811 20.5242 198.216 20.5242 196.249C20.5242 194.282 25.9394 192.687 32.6194 192.687C39.2995 192.687 44.7147 194.282 44.7147 196.249C44.7147 198.216 39.2995 199.811 32.6194 199.811Z" fill="#191818"/>
    </g>
    <path d="M22.7558 192.282C22.584 192.191 22.4223 192.09 22.2506 191.988C22.1697 191.948 22.099 191.897 22.0283 191.847C21.9979 191.826 21.9676 191.806 21.9272 191.786C21.8666 191.746 21.806 191.715 21.7554 191.675C21.5938 191.573 21.422 191.462 21.2603 191.351C21.0885 191.24 20.9268 191.118 20.7652 190.997L20.7551 190.987L20.745 190.976C20.5934 190.865 20.4317 190.744 20.2802 190.632C20.1084 190.501 19.9467 190.369 19.785 190.238C19.7244 190.187 19.6739 190.137 19.6132 190.086C19.5829 190.056 19.5425 190.025 19.5122 189.995C19.4415 189.934 19.3707 189.873 19.3 189.813C19.1383 189.671 18.9767 189.519 18.8049 189.367C18.6836 189.256 18.5725 189.145 18.4512 189.034C18.431 189.013 18.4108 188.993 18.3906 188.973C18.3704 188.953 18.3502 188.932 18.3299 188.912C18.1784 188.76 18.0167 188.609 17.8651 188.447C17.7136 188.295 17.562 188.133 17.4205 187.981C17.3902 187.951 17.37 187.92 17.3397 187.89C17.3195 187.87 17.2993 187.84 17.269 187.819C17.178 187.718 17.0871 187.617 16.9961 187.516C16.8547 187.364 16.7233 187.202 16.5818 187.04C16.4808 186.929 16.3899 186.807 16.2888 186.686C16.2686 186.666 16.2585 186.645 16.2383 186.625C16.2181 186.605 16.1979 186.575 16.1777 186.554C16.0463 186.392 15.9149 186.22 15.7836 186.048C15.6421 185.866 15.5006 185.674 15.3592 185.492C15.339 185.461 15.3188 185.431 15.2985 185.401C15.2682 185.36 15.248 185.33 15.2177 185.289C15.1066 185.138 14.9954 184.986 14.8843 184.824C14.7529 184.632 14.6215 184.429 14.4902 184.237C14.4194 184.136 14.3588 184.035 14.2881 183.933C14.2578 183.893 14.2376 183.853 14.2073 183.812C14.0961 183.64 13.995 183.458 13.894 183.276C13.7323 183.013 13.5808 182.76 13.4292 182.486C13.409 182.446 13.3787 182.405 13.3585 182.365C13.1463 181.98 12.9442 181.586 12.7421 181.201C12.6107 180.938 12.4793 180.675 12.3581 180.402C12.257 180.189 12.1661 179.967 12.0752 179.754C12.0752 179.754 12.0752 179.744 12.0651 179.744V179.734C11.9741 179.511 11.8832 179.289 11.7922 179.076C11.7114 178.864 11.6205 178.641 11.5497 178.429C11.5396 178.388 11.5295 178.358 11.5093 178.317C11.4992 178.277 11.479 178.246 11.4689 178.206C11.4184 178.054 11.3577 177.902 11.3072 177.751C11.2365 177.528 11.1657 177.295 11.095 177.073C11.0748 177.002 11.0546 176.931 11.0344 176.86C11.0243 176.81 11.0041 176.759 10.994 176.698C10.9636 176.587 10.9333 176.476 10.903 176.374C10.8424 176.142 10.7818 175.919 10.7312 175.686C10.711 175.585 10.6908 175.484 10.6706 175.383C10.6605 175.332 10.6504 175.282 10.6403 175.231C10.6201 175.16 10.61 175.079 10.5898 175.008C10.5494 174.786 10.5089 174.573 10.4685 174.351C10.4483 174.189 10.418 174.037 10.3978 173.885C10.3978 173.855 10.3877 173.824 10.3877 173.804C10.3877 173.774 10.3776 173.754 10.3776 173.723C10.3473 173.521 10.327 173.318 10.3068 173.116C10.2866 172.914 10.2765 172.721 10.2664 172.519C10.2664 172.468 10.2664 172.428 10.2563 172.387C10.2462 172.236 10.2462 172.094 10.2361 171.952C10.2361 171.76 10.2361 171.578 10.2361 171.396C10.2361 171.274 10.2462 171.163 10.2462 171.042C10.2462 171.011 10.2462 170.981 10.2462 170.961C10.2462 170.93 10.2462 170.89 10.2462 170.859C10.2563 170.687 10.2664 170.505 10.2866 170.343C10.3068 170.171 10.3271 169.999 10.3473 169.827C10.3473 169.797 10.3574 169.767 10.3574 169.736C10.3574 169.716 10.3675 169.686 10.3675 169.665C10.3877 169.554 10.3978 169.443 10.418 169.331C10.4483 169.159 10.4887 168.987 10.519 168.826C10.5393 168.745 10.5595 168.674 10.5797 168.593C10.5898 168.562 10.5999 168.522 10.61 168.492C10.6201 168.441 10.6302 168.39 10.6504 168.34C10.7009 168.168 10.7514 167.996 10.8121 167.834C10.8525 167.733 10.8929 167.631 10.9333 167.53C10.9434 167.5 10.9637 167.459 10.9738 167.429C10.9839 167.399 10.994 167.358 11.0142 167.328C11.0849 167.156 11.1657 166.984 11.2567 166.812C11.2971 166.741 11.3375 166.67 11.3779 166.599C11.4083 166.549 11.4386 166.488 11.4689 166.437C11.4992 166.387 11.5295 166.326 11.5699 166.265C11.7013 166.063 11.8326 165.871 11.9741 165.699L11.9842 165.689C12.0145 165.648 12.055 165.618 12.0853 165.577C12.2368 165.395 12.3884 165.223 12.5602 165.061C12.5703 165.051 12.5905 165.041 12.6006 165.031C12.8532 164.798 13.1159 164.586 13.3989 164.403L33.3758 151.34C33.0929 151.522 32.8301 151.734 32.5775 151.967C32.3956 152.139 32.2239 152.321 32.0622 152.523C32.0319 152.564 31.9915 152.594 31.9611 152.635C31.7793 152.868 31.6075 153.121 31.4458 153.384C31.4155 153.434 31.3852 153.495 31.3549 153.546C31.2134 153.809 31.0719 154.082 30.9507 154.365C30.9406 154.396 30.9204 154.436 30.9103 154.466C30.789 154.77 30.6779 155.084 30.5869 155.428C30.5768 155.458 30.5667 155.499 30.5566 155.529C30.4657 155.873 30.3949 156.227 30.3343 156.602C30.3343 156.622 30.3242 156.652 30.3242 156.672C30.2636 157.067 30.2332 157.472 30.213 157.897C30.213 157.927 30.213 157.957 30.213 157.978C30.1928 158.413 30.1928 158.858 30.2232 159.313C30.2434 159.779 30.2939 160.255 30.3545 160.73C30.3545 160.761 30.3646 160.791 30.3646 160.811C30.4252 161.256 30.5061 161.712 30.597 162.157C30.6071 162.208 30.6172 162.258 30.6273 162.309C30.7183 162.744 30.8294 163.189 30.9507 163.624C30.9608 163.675 30.981 163.725 30.9911 163.776C31.1225 164.221 31.2639 164.677 31.4256 165.122C31.4357 165.162 31.4458 165.193 31.466 165.233C31.6378 165.709 31.8197 166.195 32.0218 166.66C32.0218 166.66 32.0218 166.67 32.0319 166.67C32.2441 167.156 32.4664 167.642 32.6988 168.117C32.911 168.552 33.1434 168.987 33.3859 169.412C33.5375 169.676 33.6991 169.939 33.8507 170.202C33.9821 170.414 34.1134 170.637 34.2448 170.849C34.3054 170.951 34.3762 171.052 34.4469 171.153C34.6793 171.507 34.9218 171.861 35.1643 172.205C35.1946 172.246 35.2149 172.276 35.2452 172.317C35.5483 172.732 35.8616 173.136 36.1849 173.531C36.2051 173.551 36.2253 173.571 36.2354 173.592C36.5487 173.976 36.8821 174.351 37.2156 174.725C37.2358 174.745 37.256 174.776 37.2762 174.796C37.6198 175.17 37.9734 175.535 38.3271 175.879C38.3473 175.899 38.3675 175.919 38.3877 175.939C38.7313 176.273 39.0849 176.587 39.4487 176.901C39.479 176.931 39.5194 176.961 39.5498 176.992C39.9236 177.305 40.2975 177.599 40.6815 177.882C40.6916 177.882 40.6916 177.892 40.7017 177.892C41.0857 178.176 41.4797 178.439 41.8839 178.692C41.9142 178.712 41.9547 178.732 41.985 178.752C42.3892 178.995 42.7832 179.228 43.1975 179.441C43.6017 179.643 44.0059 179.825 44.4 179.987C44.4404 179.997 44.4707 180.017 44.5111 180.027C44.8749 180.169 45.2286 180.291 45.5822 180.392C45.6328 180.402 45.6732 180.422 45.7237 180.432C46.0673 180.523 46.4007 180.604 46.7241 180.655C46.7847 180.665 46.8453 180.675 46.906 180.685C47.2192 180.736 47.5223 180.766 47.8154 180.776C47.8457 180.776 47.8861 180.786 47.9164 180.786C48.26 180.797 48.5934 180.786 48.9168 180.756C48.9572 180.756 48.9976 180.746 49.0481 180.736C49.3109 180.705 49.5635 180.665 49.806 180.604C49.8969 180.584 49.9879 180.554 50.0687 180.533C50.2708 180.473 50.4729 180.412 50.6649 180.331C50.7457 180.301 50.8266 180.27 50.9074 180.23C51.16 180.119 51.4126 179.987 51.6552 179.835L31.6883 192.909C31.4559 193.061 31.2033 193.193 30.9406 193.304C30.8597 193.334 30.7789 193.365 30.7082 193.405C30.5162 193.486 30.3141 193.547 30.112 193.607C30.021 193.628 29.9402 193.658 29.8493 193.678C29.6068 193.739 29.3541 193.779 29.0914 193.81C29.051 193.81 29.0106 193.82 28.9601 193.83C28.95 193.83 28.9399 193.83 28.9297 193.83C28.6266 193.86 28.3134 193.871 27.99 193.86C27.9799 193.86 27.9698 193.86 27.9597 193.86C27.9294 193.86 27.889 193.85 27.8587 193.85C27.6566 193.84 27.4545 193.83 27.2524 193.81C27.1513 193.8 27.0503 193.779 26.9492 193.759C26.8886 193.749 26.828 193.739 26.7673 193.729C26.7168 193.719 26.6562 193.719 26.6057 193.709C26.4036 193.668 26.1914 193.628 25.9893 193.567C25.9186 193.547 25.8377 193.526 25.767 193.506C25.7165 193.496 25.6761 193.476 25.6255 193.466C25.5548 193.446 25.4841 193.425 25.4133 193.405C25.2314 193.344 25.0496 193.284 24.8677 193.223C24.7666 193.182 24.6656 193.142 24.5645 193.101C24.5241 193.091 24.4938 193.071 24.4635 193.061C24.4231 193.041 24.3826 193.031 24.3321 193.01C24.1603 192.94 23.9886 192.869 23.8168 192.788C23.645 192.707 23.4732 192.626 23.2913 192.535C23.2812 192.525 23.2711 192.525 23.261 192.515C23.0791 192.454 22.9175 192.373 22.7558 192.282Z" fill="url(#paint2_linear_1_5736)"/>
    <path d="M30.213 159.334C30.597 166.995 36.4072 176.011 43.1975 179.471C49.9777 182.932 55.1816 179.532 54.7977 171.872C54.4238 164.222 48.6035 155.206 41.8233 151.755C35.0329 148.274 29.8391 151.684 30.213 159.334Z" fill="url(#paint3_linear_1_5736)"/>
    <path d="M44.6426 173.825C44.5213 173.754 44.4001 173.683 44.2788 173.612C44.2283 173.582 44.1677 173.542 44.1172 173.511C44.0969 173.501 44.0666 173.481 44.0464 173.471C44.006 173.44 43.9656 173.42 43.9151 173.39C43.7938 173.309 43.6725 173.238 43.5513 173.147C43.43 173.066 43.3088 172.975 43.1875 172.894C43.1875 172.894 43.1774 172.894 43.1774 172.884L43.1673 172.874C43.0562 172.793 42.945 172.702 42.8339 172.621C42.7126 172.53 42.5913 172.429 42.4701 172.327C42.4297 172.297 42.3893 172.257 42.3387 172.216C42.3185 172.196 42.2882 172.176 42.268 172.155C42.2175 172.115 42.167 172.064 42.1063 172.024C41.9851 171.923 41.8638 171.811 41.7527 171.7C41.6617 171.619 41.5809 171.538 41.5 171.457C41.4798 171.447 41.4697 171.427 41.4495 171.417C41.4293 171.407 41.4192 171.386 41.399 171.376C41.2878 171.265 41.1767 171.154 41.0655 171.042C40.9544 170.931 40.8432 170.82 40.7422 170.698C40.722 170.678 40.7018 170.658 40.6816 170.637C40.6614 170.617 40.6513 170.597 40.631 170.587C40.5603 170.516 40.4997 170.445 40.429 170.364C40.3279 170.253 40.2269 170.131 40.1258 170.02C40.0551 169.939 39.9843 169.848 39.9136 169.767C39.9035 169.747 39.8934 169.737 39.8732 169.717C39.8631 169.696 39.8429 169.686 39.8328 169.666C39.7317 169.545 39.6408 169.423 39.5397 169.302C39.4387 169.17 39.3376 169.028 39.2366 168.897C39.2164 168.877 39.2063 168.856 39.1962 168.836C39.176 168.806 39.1558 168.786 39.1356 168.755C39.0547 168.644 38.9739 168.533 38.893 168.421C38.792 168.28 38.7011 168.138 38.6101 167.986C38.5596 167.915 38.5091 167.845 38.4686 167.764C38.4484 167.733 38.4282 167.703 38.408 167.673C38.3272 167.541 38.2564 167.409 38.1756 167.288C38.0645 167.096 37.9432 166.914 37.832 166.711C37.8118 166.681 37.7916 166.65 37.7815 166.62C37.63 166.337 37.4784 166.053 37.3369 165.77C37.246 165.578 37.1449 165.386 37.0641 165.193C36.9934 165.031 36.9226 164.88 36.8519 164.718V164.708C36.8519 164.708 36.8519 164.708 36.8519 164.697C36.7812 164.536 36.7205 164.374 36.6498 164.212C36.5892 164.05 36.5285 163.898 36.4679 163.736C36.4578 163.706 36.4477 163.686 36.4376 163.655C36.4275 163.625 36.4174 163.605 36.4073 163.574C36.3669 163.463 36.3265 163.352 36.2961 163.24C36.2456 163.078 36.185 162.906 36.1446 162.744C36.1244 162.694 36.1143 162.643 36.1042 162.593C36.094 162.552 36.0839 162.512 36.0738 162.481C36.0536 162.4 36.0233 162.319 36.0031 162.239C35.9627 162.066 35.9122 161.905 35.8819 161.733C35.8616 161.662 35.8515 161.591 35.8313 161.51C35.8212 161.469 35.8111 161.439 35.8111 161.399C35.801 161.348 35.7909 161.287 35.7808 161.237C35.7505 161.075 35.7202 160.923 35.6899 160.761C35.6697 160.65 35.6595 160.528 35.6393 160.417C35.6393 160.397 35.6292 160.377 35.6292 160.356C35.6292 160.336 35.6191 160.316 35.6191 160.296C35.5989 160.144 35.5787 160.002 35.5686 159.85C35.5585 159.709 35.5484 159.557 35.5383 159.415C35.5383 159.385 35.5383 159.344 35.5282 159.314C35.5181 159.203 35.5181 159.102 35.5181 158.99C35.5181 158.849 35.5181 158.717 35.5181 158.585C35.5181 158.494 35.5282 158.413 35.5282 158.332C35.5282 158.312 35.5282 158.292 35.5282 158.272C35.5282 158.252 35.5282 158.221 35.5282 158.201C35.5383 158.069 35.5484 157.948 35.5585 157.816C35.5686 157.685 35.5888 157.563 35.5989 157.442C35.5989 157.422 35.609 157.402 35.609 157.381C35.609 157.361 35.6191 157.341 35.6191 157.331C35.6292 157.25 35.6393 157.169 35.6595 157.088C35.6798 156.966 35.7101 156.835 35.7404 156.724C35.7505 156.663 35.7707 156.612 35.7808 156.552C35.7909 156.531 35.7909 156.501 35.801 156.481C35.8111 156.44 35.8212 156.41 35.8313 156.369C35.8717 156.238 35.9122 156.116 35.9526 155.995C35.9829 155.924 36.0132 155.853 36.0334 155.772C36.0435 155.752 36.0536 155.722 36.0637 155.702C36.0738 155.681 36.0839 155.651 36.094 155.631C36.1446 155.499 36.2052 155.378 36.2658 155.256C36.2961 155.206 36.3265 155.155 36.3568 155.104C36.377 155.064 36.3972 155.024 36.4275 154.983C36.4477 154.943 36.4679 154.902 36.4982 154.862C36.5892 154.72 36.6902 154.578 36.7913 154.447C36.7913 154.447 36.7913 154.447 36.8014 154.437C36.8216 154.406 36.8519 154.386 36.8822 154.356C36.9934 154.224 37.1045 154.093 37.2258 153.981C37.2359 153.971 37.246 153.961 37.2561 153.961C37.438 153.789 37.63 153.637 37.8422 153.506L44.1374 148.77C43.9252 148.901 43.7332 149.053 43.5513 149.225C43.4199 149.347 43.2886 149.488 43.1673 149.63C43.1471 149.66 43.1168 149.681 43.0865 149.711C42.9551 149.883 42.8339 150.065 42.7126 150.257C42.6924 150.298 42.6621 150.338 42.6419 150.379C42.5307 150.571 42.4398 150.763 42.3488 150.976C42.3387 150.996 42.3286 151.026 42.3185 151.047C42.2276 151.269 42.1568 151.502 42.0861 151.745C42.076 151.765 42.076 151.795 42.0659 151.816C42.0053 152.069 41.9447 152.332 41.9042 152.605C41.9042 152.625 41.8941 152.646 41.8941 152.656C41.8537 152.939 41.8234 153.243 41.8133 153.546C41.8133 153.566 41.8133 153.587 41.8133 153.607C41.8032 153.921 41.8032 154.244 41.8133 154.588C41.8335 154.932 41.8638 155.276 41.9042 155.631C41.9042 155.651 41.9143 155.671 41.9143 155.691C41.9548 156.015 42.0154 156.349 42.0861 156.673C42.0962 156.713 42.1063 156.744 42.1063 156.784C42.1771 157.108 42.2579 157.422 42.3488 157.746C42.3589 157.786 42.369 157.827 42.3791 157.857C42.4701 158.181 42.5812 158.515 42.6924 158.838C42.7025 158.869 42.7126 158.889 42.7227 158.919C42.844 159.274 42.9854 159.618 43.1269 159.962V159.972C43.2785 160.326 43.4401 160.68 43.6119 161.024C43.7736 161.338 43.9353 161.652 44.1172 161.965C44.2283 162.158 44.3395 162.35 44.4607 162.542C44.5517 162.704 44.6527 162.866 44.7537 163.018C44.8043 163.089 44.8548 163.169 44.8952 163.24C45.067 163.503 45.2388 163.756 45.4207 164.009C45.4409 164.04 45.4611 164.06 45.4813 164.09C45.7036 164.394 45.9259 164.687 46.1684 164.981C46.1785 165.001 46.1987 165.011 46.2088 165.031C46.4412 165.315 46.6736 165.588 46.9262 165.851C46.9465 165.871 46.9566 165.881 46.9768 165.902C47.2294 166.175 47.482 166.438 47.7447 166.691C47.7649 166.701 47.775 166.721 47.7952 166.731C48.0479 166.974 48.3106 167.207 48.5733 167.43C48.5935 167.45 48.6238 167.47 48.644 167.49C48.9169 167.723 49.1897 167.936 49.4726 168.138L49.4827 168.148C49.7657 168.351 50.0486 168.553 50.3416 168.725C50.3618 168.735 50.3922 168.755 50.4124 168.765C50.7054 168.948 50.9984 169.109 51.2915 169.261C51.5845 169.413 51.8775 169.545 52.1706 169.656C52.2009 169.666 52.2211 169.676 52.2514 169.686C52.5141 169.787 52.7769 169.879 53.0295 169.949C53.0598 169.959 53.1002 169.97 53.1305 169.98C53.3831 170.051 53.6257 170.101 53.8682 170.142C53.9086 170.152 53.9591 170.152 53.9995 170.162C54.2218 170.192 54.4441 170.223 54.6664 170.233C54.6866 170.233 54.717 170.233 54.7372 170.243C54.9898 170.253 55.2323 170.243 55.4647 170.223C55.495 170.223 55.5253 170.212 55.5556 170.212C55.7476 170.192 55.9295 170.162 56.1114 170.111C56.172 170.091 56.2428 170.081 56.3034 170.061C56.455 170.02 56.5964 169.97 56.7379 169.909C56.7985 169.889 56.8591 169.868 56.9097 169.838C57.1017 169.757 57.2835 169.656 57.4553 169.545L51.1601 174.28C50.9883 174.392 50.8064 174.483 50.6145 174.574C50.5538 174.604 50.5033 174.624 50.4427 174.645C50.3012 174.705 50.1597 174.746 50.0082 174.796C49.9475 174.817 49.8768 174.837 49.8162 174.847C49.6343 174.888 49.4524 174.918 49.2604 174.948C49.2301 174.948 49.1998 174.958 49.1695 174.958C49.1594 174.958 49.1594 174.958 49.1493 174.958C48.927 174.979 48.6946 174.989 48.4622 174.979C48.4521 174.979 48.442 174.979 48.442 174.979C48.4217 174.979 48.3914 174.979 48.3712 174.968C48.2298 174.958 48.0782 174.948 47.9266 174.938C47.8559 174.928 47.775 174.918 47.7043 174.908C47.6639 174.898 47.6134 174.898 47.573 174.888C47.5325 174.877 47.4921 174.877 47.4517 174.867C47.3001 174.837 47.1486 174.807 46.997 174.766C46.9465 174.756 46.8858 174.736 46.8353 174.715C46.805 174.705 46.7646 174.695 46.7343 174.685C46.6837 174.675 46.6332 174.655 46.5827 174.645C46.4513 174.604 46.32 174.554 46.1785 174.513C46.1078 174.483 46.0269 174.452 45.9562 174.422C45.9259 174.412 45.9057 174.402 45.8754 174.392C45.845 174.382 45.8147 174.371 45.7844 174.351C45.6632 174.301 45.5318 174.24 45.4105 174.189C45.2893 174.129 45.1579 174.068 45.0266 174.007C45.0165 174.007 45.0165 173.997 45.0064 173.997C44.875 173.946 44.7639 173.886 44.6426 173.825Z" fill="url(#paint4_linear_1_5736)"/>
    <path d="M41.813 154.578C42.0858 160.174 46.3298 166.751 51.2911 169.281C56.2424 171.801 60.0418 169.322 59.7589 163.726C59.486 158.14 55.2421 151.563 50.2908 149.033C45.3294 146.503 41.5401 148.992 41.813 154.578Z" fill="url(#paint5_linear_1_5736)"/>
    <path d="M54.9485 169.503C54.9485 169.503 63.1737 167.783 74.2282 162.663C85.2929 157.542 88.3647 151.238 86.6772 146.229C84.9897 141.22 76.5624 131.485 75.0568 131.172C73.5411 130.858 54.797 139.014 51.2401 142.758C47.6732 146.502 45.7129 149.781 45.7129 149.781C45.7129 149.781 43.8031 165.911 54.9485 169.503Z" fill="url(#paint6_linear_1_5736)"/>
    <path d="M70.8433 122.671C70.8433 122.671 80.958 152.067 84.333 154.466C87.7079 156.864 87.6372 160.274 87.6372 160.274L82.5445 162.652L79.4625 158.837L57.4243 119.443L70.8433 122.671Z" fill="url(#paint7_linear_1_5736)"/>
    <path d="M65.7511 125.049C65.7511 125.049 75.8659 154.445 79.2408 156.843C82.6158 159.242 82.5451 162.652 82.5451 162.652L70.3487 159.697L52.3321 121.811L65.7511 125.049Z" fill="url(#paint8_linear_1_5736)"/>
    <path d="M70.9652 126.497L76.1489 133.327L75.381 137.284L71.905 137.921L67.4791 127.144L70.9652 126.497Z" fill="url(#paint9_linear_1_5736)"/>
    <path d="M67.4788 127.144L72.6726 133.975L71.9046 137.921L67.4788 127.144Z" fill="url(#paint10_linear_1_5736)"/>
    <path d="M76.1489 133.326L72.6729 133.974L71.905 137.921L75.381 137.283L76.1489 133.326Z" fill="url(#paint11_linear_1_5736)"/>
    <path d="M51.7362 125.686L51.807 125.939L65.5897 125.221L111.657 122.822L95.7825 77.7616L58.2537 96.4012L45.1985 102.888C43.7536 103.475 42.541 104.922 41.8337 107.178C40.2169 112.319 41.8337 119.685 45.4713 123.632C47.563 125.909 49.8568 126.536 51.7362 125.686Z" fill="url(#paint12_linear_1_5736)"/>
    <path d="M93.2553 69.3036C87.4148 87.8319 93.2755 114.385 106.351 128.602C119.426 142.82 134.765 139.329 140.606 120.8C146.446 102.272 140.586 75.7192 127.51 61.5017C114.435 47.2842 99.0958 50.7754 93.2553 69.3036Z" fill="url(#paint13_linear_1_5736)"/>
    <path d="M95.3881 68.544C89.5476 87.0723 95.4083 113.625 108.484 127.843C121.559 142.06 136.898 138.569 142.739 120.041C148.579 101.512 142.718 74.9596 129.643 60.7421C116.567 46.5246 101.229 50.0158 95.3881 68.544Z" fill="url(#paint14_linear_1_5736)"/>
    <path d="M110.12 122.652C121.174 134.674 134.138 131.729 139.08 116.054C144.021 100.39 139.059 77.9454 128.005 65.9238C116.95 53.9022 103.986 56.8469 99.0449 72.5114C98.1759 75.2739 97.61 78.249 97.3372 81.3455C96.3267 92.6587 99.1661 105.54 104.825 115.346C106.381 118.048 108.159 120.517 110.12 122.652Z" fill="url(#paint15_linear_1_5736)"/>
    <path d="M104.826 115.356L122.347 108.991L115.688 79.6145L97.3382 81.355C96.3278 92.6683 99.1672 105.54 104.826 115.356Z" fill="url(#paint16_linear_1_5736)"/>
    <path d="M110.757 85.261C108.706 91.7575 110.767 101.067 115.355 106.056C119.942 111.045 125.318 109.82 127.369 103.324C129.421 96.8272 127.359 87.5176 122.772 82.5288C118.194 77.54 112.809 78.7644 110.757 85.261Z" fill="url(#paint17_linear_1_5736)"/>
    <path d="M51.7357 125.687L51.8065 125.94L65.5892 125.222C53.5748 112.998 55.5149 102.302 58.2532 96.4025L45.198 102.889C43.753 103.476 42.5405 104.923 41.8332 107.179C40.2164 112.32 41.8332 119.687 45.4708 123.633C47.5625 125.91 49.8563 126.538 51.7357 125.687Z" fill="url(#paint18_linear_1_5736)"/>
    <path d="M79.3325 128.147C81.6162 127.742 84.2939 130.667 82.4953 133.621L68.763 135.595C68.763 135.595 66.4188 134.815 65.7013 132.225C64.9839 129.634 66.924 129.402 66.924 129.402L79.3325 128.147Z" fill="url(#paint19_linear_1_5736)"/>
    <path d="M70.8031 140.735C70.8031 140.735 68.8731 143.012 71.2376 144.651C73.6021 146.29 74.4408 146.503 74.4408 146.503H86.7685C86.7685 146.503 88.4358 145.096 88.3246 142.313C88.1832 138.61 82.5043 139.156 82.5043 139.156L70.8031 140.735Z" fill="url(#paint20_linear_1_5736)"/>
    <path d="M81.7162 133.712C86.5766 133.003 89.1128 136.909 85.8389 139.601L70.884 141.058C70.884 141.058 69.2673 140.461 68.5397 137.881C67.8223 135.29 70.5506 134.582 70.5506 134.582L81.7162 133.712Z" fill="url(#paint21_linear_1_5736)"/>
    <path d="M75.3104 146.169C75.3104 146.169 84.3339 144.945 87.1228 146.392C89.9117 147.839 90.6796 152.989 86.6883 155.58C82.6969 158.17 85.4757 156.359 85.4757 156.359C85.4757 156.359 84.536 155.287 83.0102 153.435C81.646 151.775 78.2105 152.828 76.8766 152.089C75.5529 151.34 71.6323 146.25 75.3104 146.169Z" fill="url(#paint22_linear_1_5736)"/>
    <path d="M65.5289 130.311L60.6888 137.344C60.6888 137.344 57.3239 141.139 59.7895 143.739C61.7599 145.814 63.2857 143.739 63.2857 143.739L68.429 135.856C68.429 135.856 64.7003 133.013 65.5289 130.311Z" fill="url(#paint23_linear_1_5736)"/>
    <path d="M70.1365 140.947L65.933 148.668C65.933 148.668 63.1441 152.563 66.711 154.921C68.7825 156.287 71.0661 152.098 71.0661 152.098L74.239 146.239C74.239 146.239 73.9056 144.357 72.7637 143.223C71.925 142.384 71.8846 142.029 70.1365 140.947Z" fill="url(#paint24_linear_1_5736)"/>
    <path d="M67.923 135.048L63.5375 143.092C63.5375 143.092 60.8093 146.958 63.2849 149.528C65.0229 151.329 65.4069 150.034 65.4069 150.034L70.823 140.593C70.823 140.593 67.0944 137.749 67.923 135.048Z" fill="url(#paint25_linear_1_5736)"/>
    <path d="M49.5526 166.285C49.5526 166.285 58.1921 161.327 60.2837 155.822C62.3754 150.317 59.7886 138.71 59.7886 138.71L62.7594 135.877L65.9322 138.296C65.9322 138.296 66.3566 142.505 67.6702 143.74C68.9838 144.974 73.1874 143.74 73.1874 143.74L71.1968 134.632C71.1968 134.632 68.1957 129.239 65.811 128.257C63.4263 127.266 56.5046 131.01 54.8474 131.941C53.1902 132.872 50.371 142.697 48.4916 145.075C46.602 147.453 44.7124 150.509 44.7124 150.509C44.7124 150.509 41.4082 159.08 49.5526 166.285Z" fill="url(#paint26_linear_1_5736)"/>
    <path d="M76.8058 152.413C76.8058 152.413 75.957 155.793 73.6228 156.886C72.9155 157.21 70.9046 157.564 70.2681 157.493C68.8433 157.341 67.8935 156.319 68.5402 155.034L73.7946 146.675C73.7946 146.675 75.2396 147.111 76.3208 148.841C76.8058 149.61 77.1695 151.239 76.8058 152.413Z" fill="url(#paint27_linear_1_5736)"/>
    <path d="M70.9456 134.553C70.9456 134.553 69.0661 134.462 67.4897 135.828C65.9134 137.194 65.9235 138.287 65.9235 138.287C65.9235 138.287 65.8629 143.802 68.9549 144.844C72.047 145.886 73.6132 145.664 72.916 142.476C72.2187 139.299 70.9456 134.553 70.9456 134.553Z" fill="url(#paint28_linear_1_5736)"/>
    <path d="M65.1039 128.096C65.1039 128.096 63.275 129.412 62.7597 131.567C62.2443 133.722 62.7597 135.878 62.7597 135.878L66.0538 138.6C66.0538 138.6 66.458 136.252 68.3071 135.524C70.1462 134.795 71.2072 134.623 71.2072 134.623C71.2072 134.623 68.3778 128.895 65.1039 128.096Z" fill="url(#paint29_linear_1_5736)"/>
    <path d="M71.5215 138.408C71.5215 138.408 68.8236 138.873 68.8943 139.986C68.9751 141.099 69.1267 144.408 71.5215 144.479C73.9163 144.55 71.5215 138.408 71.5215 138.408Z" fill="url(#paint30_linear_1_5736)"/>
    <defs>
        <linearGradient id="paint0_linear_1_5736" x1="720" y1="0" x2="720" y2="230" gradientUnits="userSpaceOnUse">
            <stop stop-color="#0E6B8A"/>
            <stop offset="1" stop-color="#218FB4"/>
        </linearGradient>
        <linearGradient id="paint1_linear_1_5736" x1="720" y1="0" x2="720" y2="230" gradientUnits="userSpaceOnUse">
            <stop stop-color="#0E6B8A"/>
            <stop offset="1" stop-color="#218FB4"/>
        </linearGradient>
        <linearGradient id="paint2_linear_1_5736" x1="35.1566" y1="186.083" x2="21.1985" y2="160.474" gradientUnits="userSpaceOnUse">
            <stop stop-color="#7F7F7F"/>
            <stop offset="1" stop-color="#444444"/>
        </linearGradient>
        <linearGradient id="paint3_linear_1_5736" x1="47.9771" y1="154.932" x2="37.001" y2="176.317" gradientUnits="userSpaceOnUse">
            <stop stop-color="#7F7F7F"/>
            <stop offset="1" stop-color="#444444"/>
        </linearGradient>
        <linearGradient id="paint4_linear_1_5736" x1="49.5582" y1="171.607" x2="39.4625" y2="153.106" gradientUnits="userSpaceOnUse">
            <stop stop-color="#FBFBFB"/>
            <stop offset="1" stop-color="#E5E5E5"/>
        </linearGradient>
        <linearGradient id="paint5_linear_1_5736" x1="54.8194" y1="151.35" x2="46.806" y2="166.97" gradientUnits="userSpaceOnUse">
            <stop stop-color="#FBFBFB"/>
            <stop offset="1" stop-color="#E5E5E5"/>
        </linearGradient>
        <linearGradient id="paint6_linear_1_5736" x1="55.291" y1="143.346" x2="76.7294" y2="159.538" gradientUnits="userSpaceOnUse">
            <stop stop-color="#FFD4AE"/>
            <stop offset="1" stop-color="#E5A26A"/>
        </linearGradient>
        <linearGradient id="paint7_linear_1_5736" x1="87.1666" y1="161.559" x2="65.8283" y2="124.706" gradientUnits="userSpaceOnUse">
            <stop stop-color="#3ABAF9"/>
            <stop offset="1" stop-color="#267EBD"/>
        </linearGradient>
        <linearGradient id="paint8_linear_1_5736" x1="57.0885" y1="125.396" x2="80.4894" y2="161.529" gradientUnits="userSpaceOnUse">
            <stop stop-color="#3ABAF9"/>
            <stop offset="1" stop-color="#267EBD"/>
        </linearGradient>
        <linearGradient id="paint9_linear_1_5736" x1="74.9979" y1="137.135" x2="68.2952" y2="126.684" gradientUnits="userSpaceOnUse">
            <stop stop-color="#DD2F2F"/>
            <stop offset="1" stop-color="#FF6757"/>
        </linearGradient>
        <linearGradient id="paint10_linear_1_5736" x1="69.4937" y1="135.742" x2="70.0166" y2="131.109" gradientUnits="userSpaceOnUse">
            <stop stop-color="#DD2F2F"/>
            <stop offset="1" stop-color="#FF6757"/>
        </linearGradient>
        <linearGradient id="paint11_linear_1_5736" x1="73.8502" y1="137.197" x2="74.1082" y2="134.91" gradientUnits="userSpaceOnUse">
            <stop stop-color="#DD2F2F"/>
            <stop offset="1" stop-color="#FF6757"/>
        </linearGradient>
        <linearGradient id="paint12_linear_1_5736" x1="74.2513" y1="94.0248" x2="77.1549" y2="125.222" gradientUnits="userSpaceOnUse">
            <stop stop-color="#FBFBFB"/>
            <stop offset="1" stop-color="#E5E5E5"/>
        </linearGradient>
        <linearGradient id="paint13_linear_1_5736" x1="119.457" y1="122.317" x2="114.745" y2="71.5198" gradientUnits="userSpaceOnUse">
            <stop stop-color="#FBFBFB"/>
            <stop offset="1" stop-color="#E5E5E5"/>
        </linearGradient>
        <linearGradient id="paint14_linear_1_5736" x1="141.512" y1="73.7137" x2="96.5746" y2="114.795" gradientUnits="userSpaceOnUse">
            <stop stop-color="#FBFBFB"/>
            <stop offset="1" stop-color="#E5E5E5"/>
        </linearGradient>
        <linearGradient id="paint15_linear_1_5736" x1="138.044" y1="76.8953" x2="100.051" y2="111.628" gradientUnits="userSpaceOnUse">
            <stop stop-color="#ADADAD"/>
            <stop offset="1" stop-color="#E5E5E5"/>
        </linearGradient>
        <linearGradient id="paint16_linear_1_5736" x1="109.897" y1="86.4973" x2="109.51" y2="116.231" gradientUnits="userSpaceOnUse">
            <stop stop-color="#FBFBFB"/>
            <stop offset="1" stop-color="#E5E5E5"/>
        </linearGradient>
        <linearGradient id="paint17_linear_1_5736" x1="126.946" y1="87.0731" x2="111.184" y2="101.482" gradientUnits="userSpaceOnUse">
            <stop stop-color="#FBFBFB"/>
            <stop offset="1" stop-color="#E5E5E5"/>
        </linearGradient>
        <linearGradient id="paint18_linear_1_5736" x1="53.9861" y1="124.453" x2="51.4575" y2="100.401" gradientUnits="userSpaceOnUse">
            <stop stop-color="#3ABAF9"/>
            <stop offset="1" stop-color="#267EBD"/>
        </linearGradient>
        <linearGradient id="paint19_linear_1_5736" x1="73.4169" y1="129.96" x2="76.8686" y2="135.82" gradientUnits="userSpaceOnUse">
            <stop stop-color="#FFD4AE"/>
            <stop offset="1" stop-color="#E5A26A"/>
        </linearGradient>
        <linearGradient id="paint20_linear_1_5736" x1="78.4363" y1="140.233" x2="80.3889" y2="145.993" gradientUnits="userSpaceOnUse">
            <stop stop-color="#FFD4AE"/>
            <stop offset="1" stop-color="#E5A26A"/>
        </linearGradient>
        <linearGradient id="paint21_linear_1_5736" x1="76.8677" y1="135.46" x2="80.4817" y2="141.595" gradientUnits="userSpaceOnUse">
            <stop stop-color="#FFD4AE"/>
            <stop offset="1" stop-color="#E5A26A"/>
        </linearGradient>
        <linearGradient id="paint22_linear_1_5736" x1="81.2426" y1="146.539" x2="81.9644" y2="151.062" gradientUnits="userSpaceOnUse">
            <stop stop-color="#FFD4AE"/>
            <stop offset="1" stop-color="#E5A26A"/>
        </linearGradient>
        <linearGradient id="paint23_linear_1_5736" x1="62.3949" y1="136.973" x2="66.2458" y2="139.117" gradientUnits="userSpaceOnUse">
            <stop stop-color="#FFD4AE"/>
            <stop offset="1" stop-color="#E5A26A"/>
        </linearGradient>
        <linearGradient id="paint24_linear_1_5736" x1="66.8309" y1="147.224" x2="72.3812" y2="149.737" gradientUnits="userSpaceOnUse">
            <stop stop-color="#FFD4AE"/>
            <stop offset="1" stop-color="#E5A26A"/>
        </linearGradient>
        <linearGradient id="paint25_linear_1_5736" x1="65.3362" y1="142.261" x2="68.5804" y2="144.067" gradientUnits="userSpaceOnUse">
            <stop stop-color="#FFD4AE"/>
            <stop offset="1" stop-color="#E5A26A"/>
        </linearGradient>
        <linearGradient id="paint26_linear_1_5736" x1="44.7293" y1="145.264" x2="62.5589" y2="147.978" gradientUnits="userSpaceOnUse">
            <stop stop-color="#FFD4AE"/>
            <stop offset="1" stop-color="#E5A26A"/>
        </linearGradient>
        <linearGradient id="paint27_linear_1_5736" x1="69.7536" y1="151.317" x2="75.8375" y2="153.465" gradientUnits="userSpaceOnUse">
            <stop stop-color="#FFD4AE"/>
            <stop offset="1" stop-color="#E5A26A"/>
        </linearGradient>
        <linearGradient id="paint28_linear_1_5736" x1="66.6924" y1="141.14" x2="72.0302" y2="139.735" gradientUnits="userSpaceOnUse">
            <stop stop-color="#FFD4AE"/>
            <stop offset="1" stop-color="#E5A26A"/>
        </linearGradient>
        <linearGradient id="paint29_linear_1_5736" x1="62.8561" y1="134.068" x2="70.158" y2="132.146" gradientUnits="userSpaceOnUse">
            <stop stop-color="#FFD4AE"/>
            <stop offset="1" stop-color="#E5A26A"/>
        </linearGradient>
        <linearGradient id="paint30_linear_1_5736" x1="68.6146" y1="140.472" x2="72.7134" y2="141.919" gradientUnits="userSpaceOnUse">
            <stop stop-color="#FFD4AE"/>
            <stop offset="1" stop-color="#FEFEFF"/>
        </linearGradient>
        <clipPath id="clip0_1_5736">
            <rect width="32" height="32" fill="white" transform="translate(1107.7 163.148) rotate(-35.1973)"/>
        </clipPath>
        <clipPath id="clip1_1_5736">
            <rect width="32" height="32" fill="white" transform="translate(1308.43 70) rotate(35.1656)"/>
        </clipPath>
        <clipPath id="clip2_1_5736">
            <rect width="32" height="32" fill="white" transform="translate(305 146.654) rotate(-15.6917)"/>
        </clipPath>
        <clipPath id="clip3_1_5736">
            <rect width="25.7218" height="25.7218" fill="white" transform="translate(225.593 36.8252) rotate(21.8974)"/>
        </clipPath>
    </defs>
</svg>