<svg width="31" height="30" viewBox="0 0 31 30" fill="none" xmlns="http://www.w3.org/2000/svg">
    <g clip-path="url(#clip0_2997_6332)">
        <path fill-rule="evenodd" clip-rule="evenodd" d="M15.9023 0C24.1866 0 30.9023 6.71572 30.9023 15C30.9023 23.2843 24.1866 30 15.9023 30C7.61805 30 0.902344 23.2843 0.902344 15C0.902344 6.71571 7.61808 0 15.9023 0Z" fill="#8B5CF6"/>
        <mask id="mask0_2997_6332" style="mask-type:luminance" maskUnits="userSpaceOnUse" x="0" y="0" width="31" height="30">
            <path d="M15.9023 0C24.1866 0 30.9023 6.71572 30.9023 15C30.9023 23.2843 24.1866 30 15.9023 30C7.61805 30 0.902344 23.2843 0.902344 15C0.902344 6.71571 7.61808 0 15.9023 0Z" fill="white"/>
        </mask>
        <g mask="url(#mask0_2997_6332)">
        </g>
        <g clip-path="url(#clip1_2997_6332)">
            <path d="M15.4027 14.1038C17.1444 14.1038 18.5694 12.6788 18.5694 10.9372C18.5694 9.19551 17.1444 7.77051 15.4027 7.77051C13.661 7.77051 12.236 9.19551 12.236 10.9372C12.236 12.6788 13.661 14.1038 15.4027 14.1038ZM24.6652 12.2038C24.3485 11.8872 23.8735 11.8872 23.5568 12.2038L21.9735 13.7872L21.4985 13.3122C21.1819 12.9955 20.7068 12.9955 20.3902 13.3122C20.0735 13.6288 20.0735 14.1038 20.3902 14.4205L21.4194 15.4497C21.736 15.7663 22.211 15.7663 22.5277 15.4497L24.6652 13.3122C24.9818 12.9955 24.9818 12.5205 24.6652 12.2038ZM15.4027 15.2913C12.4735 15.2913 9.94018 17.4288 9.54435 20.358C9.46518 20.7538 9.78185 21.2288 10.2569 21.2288H10.336H20.4693C20.9444 21.2288 21.261 20.9122 21.261 20.4372V20.358C20.8652 17.4288 18.3319 15.2913 15.4027 15.2913Z" fill="white"/>
        </g>
    </g>
    <defs>
        <clipPath id="clip0_2997_6332">
            <rect width="30" height="30" fill="white" transform="translate(0.902344)"/>
        </clipPath>
        <clipPath id="clip1_2997_6332">
            <rect width="19" height="19" fill="white" transform="translate(5.90234 5)"/>
        </clipPath>
    </defs>
</svg>
