<svg width="33" height="32" viewBox="0 0 33 32" fill="none" xmlns="http://www.w3.org/2000/svg">
    <circle cx="16.4014" cy="16" r="16" fill="#9266F7" fill-opacity="0.08"/>
    <path d="M21.0265 16L18.0682 13.0417L19.2557 11.875L21.0265 13.6458L24.5682 10.1042L25.7349 11.2917L21.0265 16ZM13.9015 16C12.9849 16 12.2001 15.6736 11.5474 15.0208C10.8946 14.3681 10.5682 13.5833 10.5682 12.6667C10.5682 11.75 10.8946 10.9653 11.5474 10.3125C12.2001 9.65972 12.9849 9.33333 13.9015 9.33333C14.8182 9.33333 15.6029 9.65972 16.2557 10.3125C16.9085 10.9653 17.2349 11.75 17.2349 12.6667C17.2349 13.5833 16.9085 14.3681 16.2557 15.0208C15.6029 15.6736 14.8182 16 13.9015 16ZM7.23486 22.6667V20.3333C7.23486 19.8611 7.35639 19.4271 7.59945 19.0312C7.8425 18.6354 8.16542 18.3333 8.5682 18.125C9.42931 17.6944 10.3043 17.3715 11.1932 17.1562C12.0821 16.941 12.9849 16.8333 13.9015 16.8333C14.8182 16.8333 15.721 16.941 16.6099 17.1562C17.4988 17.3715 18.3738 17.6944 19.2349 18.125C19.6376 18.3333 19.9606 18.6354 20.2036 19.0312C20.4467 19.4271 20.5682 19.8611 20.5682 20.3333V22.6667H7.23486ZM8.90153 21H18.9015V20.3333C18.9015 20.1805 18.8633 20.0417 18.787 19.9167C18.7106 19.7917 18.6099 19.6944 18.4849 19.625C17.7349 19.25 16.9779 18.9687 16.214 18.7812C15.4501 18.5937 14.6793 18.5 13.9015 18.5C13.1238 18.5 12.3529 18.5937 11.589 18.7812C10.8251 18.9687 10.0682 19.25 9.3182 19.625C9.1932 19.6944 9.0925 19.7917 9.01611 19.9167C8.93972 20.0417 8.90153 20.1805 8.90153 20.3333V21ZM13.9015 14.3333C14.3599 14.3333 14.7522 14.1701 15.0786 13.8437C15.405 13.5174 15.5682 13.125 15.5682 12.6667C15.5682 12.2083 15.405 11.816 15.0786 11.4896C14.7522 11.1632 14.3599 11 13.9015 11C13.4432 11 13.0508 11.1632 12.7244 11.4896C12.3981 11.816 12.2349 12.2083 12.2349 12.6667C12.2349 13.125 12.3981 13.5174 12.7244 13.8437C13.0508 14.1701 13.4432 14.3333 13.9015 14.3333Z" fill="#8B5CF6"/>
</svg>
