<svg width="33" height="32" viewBox="0 0 33 32" fill="none" xmlns="http://www.w3.org/2000/svg">
    <circle cx="16.7588" cy="16" r="16" fill="#E3A504" fill-opacity="0.12"/>
    <path d="M18.624 10.0098L18.636 9.95H18.575H11C10.5741 9.95 10.2083 10.1022 9.90527 10.4053C9.60222 10.7083 9.45 11.0741 9.45 11.5V20.5C9.45 20.9259 9.60222 21.2917 9.90527 21.5947C10.2083 21.8978 10.5741 22.05 11 22.05H23C23.4259 22.05 23.7917 21.8978 24.0947 21.5947C24.3978 21.2917 24.55 20.9259 24.55 20.5V13.75V13.6488L24.4696 13.7103C24.2603 13.8704 24.0323 14.0059 23.7857 14.1169C23.5391 14.2279 23.2737 14.3143 22.9894 14.3761L22.95 14.3847V14.425V20.45H11.05V13.0902L16.9735 16.7924L17 16.809L17.0265 16.7924L20.9828 14.3174L21.0673 14.2645L20.9744 14.2284C20.7517 14.1418 20.5384 14.0398 20.3343 13.9223C20.1314 13.8054 19.9438 13.6671 19.7715 13.5071L19.7435 13.4811L19.7111 13.5013L17 15.1911L11.1743 11.55H18.575H18.636L18.624 11.4902C18.5747 11.2434 18.55 10.9966 18.55 10.75C18.55 10.5034 18.5747 10.2566 18.624 10.0098ZM20.6209 12.3791C21.0679 12.8261 21.6119 13.05 22.25 13.05C22.8881 13.05 23.4321 12.8261 23.8791 12.3791C24.3261 11.9321 24.55 11.3881 24.55 10.75C24.55 10.1119 24.3261 9.56788 23.8791 9.12089C23.4321 8.67391 22.8881 8.45 22.25 8.45C21.6119 8.45 21.0679 8.67391 20.6209 9.12089C20.1739 9.56788 19.95 10.1119 19.95 10.75C19.95 11.3881 20.1739 11.9321 20.6209 12.3791Z" fill="#F1B61F" stroke="#F1B61F" stroke-width="0.1"/>
</svg>
