<svg width="31" height="30" viewBox="0 0 31 30" fill="none" xmlns="http://www.w3.org/2000/svg">
    <g clip-path="url(#clip0_2997_6305)">
        <path fill-rule="evenodd" clip-rule="evenodd" d="M15.2598 0C23.5441 0 30.2598 6.71572 30.2598 15C30.2598 23.2843 23.544 30 15.2598 30C6.97547 30 0.259766 23.2843 0.259766 15C0.259766 6.71571 6.9755 0 15.2598 0Z" fill="#FBBF24"/>
        <g clip-path="url(#clip1_2997_6305)">
            <path d="M21.5821 12.1213V17.9991C21.5831 18.0159 21.5831 18.0327 21.5821 18.0495L17.9836 14.8426L21.5821 12.1213ZM13.2499 14.5626L14.4705 15.4857C14.6981 15.6571 14.9753 15.7498 15.2602 15.7498C15.5451 15.7498 15.8223 15.6571 16.0499 15.4857L17.2705 14.5626L21.4377 11.4126C21.3279 11.1977 21.161 11.0172 20.9553 10.891C20.7496 10.7648 20.5131 10.6978 20.2717 10.6973H10.2486C10.0073 10.6978 9.7708 10.7648 9.5651 10.891C9.35941 11.0172 9.19248 11.1977 9.08268 11.4126L13.2499 14.5626ZM8.93831 12.1213V17.9991C8.93723 18.0159 8.93723 18.0327 8.93831 18.0495L12.5367 14.8426L8.93831 12.1213ZM16.4458 16.0041C16.1042 16.2618 15.688 16.4012 15.2602 16.4012C14.8323 16.4012 14.4161 16.2618 14.0746 16.0041L13.0727 15.2451L9.16362 18.7298C9.28443 18.9085 9.44743 19.0547 9.63821 19.1554C9.82898 19.2562 10.0416 19.3083 10.2574 19.3073H20.2717C20.4875 19.3083 20.7001 19.2562 20.8909 19.1554C21.0817 19.0547 21.2447 18.9085 21.3655 18.7298L17.4477 15.2451L16.4458 16.0041Z" fill="white"/>
        </g>
    </g>
    <defs>
        <clipPath id="clip0_2997_6305">
            <rect width="30" height="30" fill="white" transform="translate(0.259766)"/>
        </clipPath>
        <clipPath id="clip1_2997_6305">
            <rect width="14" height="14" fill="white" transform="translate(8.25977 8)"/>
        </clipPath>
    </defs>
</svg>
