<svg xmlns="http://www.w3.org/2000/svg" width="16" height="16" viewBox="0 0 16 16" fill="none">
    <g clip-path="url(#clip0_2902_181)">
        <path d="M0.415039 8.00022C0.415039 4.10096 3.3543 0.900965 7.12319 0.462446C7.40763 0.426891 7.70393 0.415039 8.00022 0.415039H8.22541C12.3143 0.533558 15.5854 3.88763 15.5854 8.00022C15.5854 12.1839 12.1839 15.5854 8.00022 15.5854C3.81652 15.5854 0.415039 12.1839 0.415039 8.00022Z" fill="#10B981"/>
        <path d="M10.4173 3.5791L12.6573 9.25614C12.764 9.52873 12.6218 9.83688 12.3492 9.94355C12.1003 10.0384 11.7803 9.93169 11.6736 9.64725L9.43364 3.97021C9.32698 3.69762 9.45735 3.38947 9.72994 3.2828C10.0025 3.16429 10.3107 3.30651 10.4173 3.5791Z" fill="#393E46"/>
        <path d="M9.54064 4.24316L11.5673 9.37502L11.4962 9.41057L9.75398 9.19724C9.06657 9.11427 8.37916 9.20909 7.72731 9.46983L7.62064 9.50539H7.56138C7.54953 9.48168 7.54953 9.45798 7.53768 9.42242L6.56583 6.95724L6.53027 6.88613L6.56583 6.85057L6.6725 6.81502C7.32435 6.55428 7.88139 6.15131 8.33176 5.61798L9.46953 4.27872L9.54064 4.24316Z" fill="white"/>
        <path d="M11.295 8.69915L11.5557 9.37471L11.4846 9.41027L9.7424 9.19693C9.05499 9.11397 8.36758 9.20878 7.71573 9.46953L7.60906 9.50508H7.5498C7.53795 9.48138 7.53795 9.45767 7.5261 9.42212L7.28906 8.82952H7.33647L7.44314 8.79397C8.09499 8.53323 8.7824 8.43841 9.4698 8.52138L11.212 8.73471L11.295 8.69915Z" fill="#EFF2F8"/>
        <path d="M6.56616 6.95696L7.53801 9.42215C7.54986 9.44585 7.54986 9.46955 7.56171 9.50511C7.58542 9.69474 7.4906 9.88437 7.31282 9.95548L5.83134 10.5362C5.61801 10.6192 5.38097 10.5125 5.29801 10.311L4.32616 7.84585C4.24319 7.63252 4.34986 7.39548 4.55134 7.31252L6.03282 6.73178C6.2106 6.66066 6.42394 6.73178 6.51875 6.88585C6.5306 6.90955 6.55431 6.93326 6.56616 6.95696Z" fill="#FE4C40"/>
        <path d="M7.71533 10.062L7.97607 10.5124C8.02348 10.6072 7.99977 10.7257 7.90496 10.7731L7.60866 10.939C7.51385 10.9864 7.39533 10.9627 7.34792 10.8679L7.08718 10.4176C7.03977 10.3227 7.06348 10.2042 7.15829 10.1568L7.45459 9.99089C7.5494 9.93163 7.66792 9.96718 7.71533 10.062Z" fill="#393E46"/>
        <path d="M8.24897 11.5793C8.4623 11.9585 8.33193 12.4326 7.95267 12.6459C7.66822 12.8474 7.12304 12.7763 6.87415 12.3615L5.83119 10.5482L5.81934 10.5245L7.30082 9.95557L7.31267 9.97927L8.24897 11.5793Z" fill="#D4DEE8"/>
        <path d="M4.33825 7.89355L5.27455 10.2639L4.62269 10.5128C4.31455 10.6313 3.94714 10.4773 3.82862 10.1691L3.34269 8.93652C3.22418 8.62837 3.37825 8.26096 3.6864 8.14244L4.33825 7.89355Z" fill="white"/>
        <path d="M4.44436 8.43842C4.46807 8.50953 4.43251 8.59249 4.3614 8.6162L3.79251 8.84138C3.7214 8.86509 3.63844 8.82953 3.61473 8.75842C3.59103 8.68731 3.62659 8.60435 3.6977 8.58064L4.26659 8.35546C4.3377 8.33175 4.42066 8.36731 4.44436 8.43842ZM4.62214 8.88879C4.64585 8.9599 4.61029 9.04287 4.53918 9.06657L3.97029 9.29175C3.89918 9.31546 3.81622 9.2799 3.79251 9.20879C3.76881 9.13768 3.80436 9.05472 3.87548 9.03101L4.44436 8.80583C4.51548 8.78212 4.59844 8.81768 4.62214 8.88879ZM4.79992 9.33916C4.82362 9.41027 4.78807 9.49324 4.71696 9.51694L4.14807 9.74212C4.07696 9.76583 3.99399 9.73027 3.97029 9.65916C3.94659 9.58805 3.98214 9.50509 4.05325 9.48138L4.62214 9.2562C4.69325 9.23249 4.76436 9.26805 4.79992 9.33916ZM4.9777 9.77768C5.0014 9.84879 4.96585 9.93175 4.89473 9.95546L4.32585 10.1925C4.25473 10.2162 4.17177 10.1806 4.14807 10.1095C4.12436 10.0384 4.15992 9.95546 4.23103 9.93175L4.79992 9.70657C4.85918 9.67101 4.94214 9.70657 4.9777 9.77768Z" fill="#D4DEE8"/>
        <path d="M11.1406 5.41608L11.8636 7.25312C12.3732 7.05164 12.6221 6.48275 12.4206 5.97312C12.2191 5.46349 11.6503 5.2146 11.1406 5.41608Z" fill="#BBC7D7"/>
    </g>
    <defs>
        <clipPath id="clip0_2902_181">
            <rect width="16" height="16" fill="white"/>
        </clipPath>
    </defs>
</svg>