<svg width="33" height="32" viewBox="0 0 33 32" fill="none" xmlns="http://www.w3.org/2000/svg">
    <circle cx="16.2412" cy="16" r="16" fill="#08A26F" fill-opacity="0.08"/>
    <path d="M21.7414 16.9167V15.0833H25.408V16.9167H21.7414ZM22.8414 23.3333L19.908 21.1333L21.008 19.6667L23.9414 21.8667L22.8414 23.3333ZM21.008 12.3333L19.908 10.8667L22.8414 8.66667L23.9414 10.1333L21.008 12.3333ZM9.82471 22.4167V18.75H8.90804C8.40387 18.75 7.97228 18.5705 7.61325 18.2115C7.25422 17.8524 7.07471 17.4208 7.07471 16.9167V15.0833C7.07471 14.5792 7.25422 14.1476 7.61325 13.7885C7.97228 13.4295 8.40387 13.25 8.90804 13.25H12.5747L17.158 10.5V21.5L12.5747 18.75H11.658V22.4167H9.82471ZM15.3247 18.2458V13.7542L13.0789 15.0833H8.90804V16.9167H13.0789L15.3247 18.2458ZM18.0747 19.0708V12.9292C18.4872 13.2958 18.8195 13.7427 19.0716 14.2698C19.3237 14.7969 19.4497 15.3736 19.4497 16C19.4497 16.6264 19.3237 17.2031 19.0716 17.7302C18.8195 18.2573 18.4872 18.7042 18.0747 19.0708Z" fill="#11B27D"/>
</svg>
