<svg width="18" height="18" viewBox="0 0 18 18" fill="none" xmlns="http://www.w3.org/2000/svg">
    <circle cx="9" cy="9" r="9" fill="#EAEAEA"/>
    <path d="M8.4375 8.4375C7.74141 8.4375 7.14551 8.18965 6.6498 7.69395C6.1541 7.19824 5.90625 6.60234 5.90625 5.90625C5.90625 5.21016 6.1541 4.61426 6.6498 4.11855C7.14551 3.62285 7.74141 3.375 8.4375 3.375C9.13359 3.375 9.72949 3.62285 10.2252 4.11855C10.7209 4.61426 10.9688 5.21016 10.9688 5.90625C10.9688 6.60234 10.7209 7.19824 10.2252 7.69395C9.72949 8.18965 9.13359 8.4375 8.4375 8.4375ZM3.375 13.5V11.7281C3.375 11.3695 3.46729 11.0399 3.65186 10.7394C3.83643 10.4388 4.08164 10.2094 4.3875 10.0512C5.04141 9.72422 5.70586 9.479 6.38086 9.31553C7.05586 9.15205 7.74141 9.07031 8.4375 9.07031C9.13359 9.07031 9.81914 9.15205 10.4941 9.31553C11.1691 9.479 11.8336 9.72422 12.4875 10.0512C12.7934 10.2094 13.0386 10.4388 13.2231 10.7394C13.4077 11.0399 13.5 11.3695 13.5 11.7281V13.5H3.375ZM4.64062 12.2344H12.2344V11.7281C12.2344 11.6121 12.2054 11.5066 12.1474 11.4117C12.0894 11.3168 12.0129 11.243 11.918 11.1902C11.3484 10.9055 10.7736 10.6919 10.1936 10.5495C9.61348 10.4071 9.02812 10.3359 8.4375 10.3359C7.84688 10.3359 7.26152 10.4071 6.68145 10.5495C6.10137 10.6919 5.52656 10.9055 4.95703 11.1902C4.86211 11.243 4.78564 11.3168 4.72764 11.4117C4.66963 11.5066 4.64062 11.6121 4.64062 11.7281V12.2344ZM8.4375 7.17188C8.78555 7.17188 9.0835 7.04795 9.33135 6.8001C9.5792 6.55225 9.70312 6.2543 9.70312 5.90625C9.70312 5.5582 9.5792 5.26025 9.33135 5.0124C9.0835 4.76455 8.78555 4.64062 8.4375 4.64062C8.08945 4.64062 7.7915 4.76455 7.54365 5.0124C7.2958 5.26025 7.17188 5.5582 7.17188 5.90625C7.17188 6.2543 7.2958 6.55225 7.54365 6.8001C7.7915 7.04795 8.08945 7.17188 8.4375 7.17188Z" fill="#111827"/>
    <circle cx="4.5" cy="4.5" r="4" transform="matrix(-1 0 0 1 16.875 6.75)" fill="#F97316" stroke="#F5F5F5"/>
    <path d="M12.375 13.5C12.0562 13.5 11.7891 13.4461 11.5734 13.3383C11.3578 13.2305 11.25 13.0969 11.25 12.9375C11.25 12.7781 11.3578 12.6445 11.5734 12.5367C11.7891 12.4289 12.0562 12.375 12.375 12.375C12.6938 12.375 12.9609 12.4289 13.1766 12.5367C13.3922 12.6445 13.5 12.7781 13.5 12.9375C13.5 13.0969 13.3922 13.2305 13.1766 13.3383C12.9609 13.4461 12.6938 13.5 12.375 13.5ZM11.25 11.8125V9H13.5V11.8125H11.25Z" fill="white"/>
</svg>
