<svg width="33" height="32" viewBox="0 0 33 32" fill="none" xmlns="http://www.w3.org/2000/svg">
    <circle cx="16.5801" cy="16" r="16" fill="#FDF3F3"/>
    <circle cx="9.5" cy="9.5" r="9" transform="matrix(-1 0 0 1 26.5 6.5)" fill="#EF4444" stroke="#F5F5F5"/>
    <path d="M14.7224 18.8204L14.8285 18.9264L14.9346 18.8204L16.9999 16.755L19.0653 18.8204L19.1714 18.9264L19.2774 18.8204L19.8203 18.2775L19.9263 18.1714L19.8203 18.0654L17.7549 16L19.8203 13.9346L19.9263 13.8286L19.8203 13.7225L19.2774 13.1797L19.1714 13.0736L19.0653 13.1797L16.9999 15.245L14.9346 13.1797L14.8285 13.0736L14.7224 13.1797L14.1796 13.7225L14.0735 13.8286L14.1796 13.9346L16.2449 16L14.1796 18.0654L14.0735 18.1714L14.1796 18.2775L14.7224 18.8204Z" fill="white" stroke="white" stroke-width="0.3"/>
</svg>
