<svg width="33" height="32" viewBox="0 0 33 32" fill="none" xmlns="http://www.w3.org/2000/svg">
    <circle cx="16.0801" cy="16" r="16" fill="#7C7C7C" fill-opacity="0.08"/>
    <path d="M21.5802 14.9167V13.0833H25.2469V14.9167H21.5802ZM22.6802 21.3333L19.7469 19.1333L20.8469 17.6667L23.7802 19.8667L22.6802 21.3333ZM20.8469 10.3333L19.7469 8.86667L22.6802 6.66667L23.7802 8.13334L20.8469 10.3333ZM9.66357 20.4167V16.75H8.74691C8.24274 16.75 7.81114 16.5705 7.45212 16.2115C7.09309 15.8524 6.91357 15.4208 6.91357 14.9167V13.0833C6.91357 12.5792 7.09309 12.1476 7.45212 11.7885C7.81114 11.4295 8.24274 11.25 8.74691 11.25H12.4136L16.9969 8.50001V19.5L12.4136 16.75H11.4969V20.4167H9.66357ZM15.1636 16.2458V11.7542L12.9177 13.0833H8.74691V14.9167H12.9177L15.1636 16.2458ZM17.9136 17.0708V10.9292C18.3261 11.2958 18.6584 11.7427 18.9104 12.2698C19.1625 12.7969 19.2886 13.3736 19.2886 14C19.2886 14.6264 19.1625 15.2031 18.9104 15.7302C18.6584 16.2573 18.3261 16.7042 17.9136 17.0708Z" fill="#EF4444"/>
    <circle cx="6" cy="6" r="5.5" transform="matrix(-1 0 0 1 25 15)" fill="#EF4444" stroke="#F5F5F5"/>
    <g clip-path="url(#clip0_9765_95148)">
        <path d="M17.2939 23.1061L17.4 23.2121L17.5061 23.1061L19 21.6121L20.4939 23.1061L20.6 23.2121L20.7061 23.1061L21.1061 22.7061L21.2121 22.6L21.1061 22.4939L19.6121 21L21.1061 19.5061L21.2121 19.4L21.1061 19.2939L20.7061 18.8939L20.6 18.7879L20.4939 18.8939L19 20.3879L17.5061 18.8939L17.4 18.7879L17.2939 18.8939L16.8939 19.2939L16.7879 19.4L16.8939 19.5061L18.3879 21L16.8939 22.4939L16.7879 22.6L16.8939 22.7061L17.2939 23.1061Z" fill="white" stroke="white" stroke-width="0.3"/>
    </g>
    <defs>
        <clipPath id="clip0_9765_95148">
            <rect width="6" height="6" fill="white" transform="translate(16 18)"/>
        </clipPath>
    </defs>
</svg>
