<svg xmlns="http://www.w3.org/2000/svg" width="16" height="16" viewBox="0 0 16 16" fill="none">
    <g clip-path="url(#clip0_2902_194)">
        <path d="M7.99978 0.415039C11.899 0.415039 15.099 3.3543 15.5376 7.12319C15.5731 7.40763 15.585 7.70393 15.585 8.00022L15.585 8.22541C15.4664 12.3143 12.1124 15.5854 7.99978 15.5854C3.81607 15.5854 0.414591 12.1839 0.414591 8.00022C0.414592 3.81652 3.81607 0.415039 7.99978 0.415039Z" fill="#EF4444"/>
        <path d="M12.4204 10.4178L6.74337 12.6578C6.47078 12.7645 6.16263 12.6223 6.05597 12.3497C5.96115 12.1008 6.06782 11.7808 6.35226 11.6741L12.0293 9.43413C12.3019 9.32747 12.61 9.45784 12.7167 9.73043C12.8352 10.003 12.693 10.3112 12.4204 10.4178Z" fill="#393E46"/>
        <path d="M11.7568 9.54064L6.62498 11.5673L6.58943 11.4962L6.80276 9.75398C6.88572 9.06657 6.79091 8.37916 6.53017 7.72731L6.49461 7.62064L6.49461 7.56138C6.51832 7.54953 6.54202 7.54953 6.57758 7.53768L9.04276 6.56583L9.11387 6.53027L9.14943 6.56583L9.18498 6.6725C9.44572 7.32435 9.84869 7.88139 10.382 8.33176L11.7213 9.46953L11.7568 9.54064Z" fill="white"/>
        <path d="M7.30085 11.295L6.62529 11.5557L6.58973 11.4846L6.80307 9.7424C6.88603 9.05499 6.79122 8.36758 6.53047 7.71573L6.49492 7.60906L6.49492 7.5498C6.51862 7.53795 6.54233 7.53795 6.57788 7.5261L7.17048 7.28906L7.17048 7.33647L7.20603 7.44314C7.46677 8.09499 7.56159 8.7824 7.47862 9.4698L7.26529 11.212L7.30085 11.295Z" fill="#EFF2F8"/>
        <path d="M9.04304 6.56616L6.57785 7.53801C6.55415 7.54986 6.53045 7.54986 6.49489 7.56171C6.30526 7.58542 6.11563 7.4906 6.04452 7.31282L5.46378 5.83134C5.38082 5.61801 5.48748 5.38097 5.68897 5.29801L8.15415 4.32616C8.36748 4.24319 8.60452 4.34986 8.68748 4.55134L9.26822 6.03282C9.33934 6.2106 9.26822 6.42394 9.11415 6.51875C9.09045 6.5306 9.06674 6.55431 9.04304 6.56616Z" fill="#38BDF8"/>
        <path d="M5.938 7.71533L5.48763 7.97607C5.39282 8.02348 5.2743 7.99977 5.22689 7.90496L5.06097 7.60866C5.01356 7.51385 5.03726 7.39533 5.13208 7.34792L5.58245 7.08718C5.67726 7.03977 5.79578 7.06348 5.84319 7.15829L6.00911 7.45459C6.06837 7.5494 6.03282 7.66792 5.938 7.71533Z" fill="#393E46"/>
        <path d="M4.42122 8.24897C4.04196 8.4623 3.56788 8.33193 3.35455 7.95267C3.15307 7.66822 3.22418 7.12304 3.63899 6.87415L5.45233 5.83119L5.47603 5.81934L6.04492 7.30082L6.02122 7.31267L4.42122 8.24897Z" fill="#D4DEE8"/>
        <path d="M8.10645 4.33776L5.73607 5.27406L5.48719 4.62221C5.36867 4.31406 5.52274 3.94665 5.83089 3.82813L7.06348 3.34221C7.37163 3.22369 7.73904 3.37776 7.85756 3.68591L8.10645 4.33776Z" fill="white"/>
        <path d="M7.56109 4.44436C7.48998 4.46807 7.40702 4.43251 7.38331 4.3614L7.15813 3.79251C7.13442 3.7214 7.16998 3.63844 7.24109 3.61473C7.3122 3.59103 7.39516 3.62659 7.41887 3.6977L7.64405 4.26659C7.66776 4.3377 7.6322 4.42066 7.56109 4.44436ZM7.11072 4.62214C7.03961 4.64585 6.95665 4.61029 6.93294 4.53918L6.70776 3.97029C6.68405 3.89918 6.71961 3.81622 6.79072 3.79251C6.86183 3.76881 6.9448 3.80436 6.9685 3.87548L7.19368 4.44436C7.21739 4.51548 7.18183 4.59844 7.11072 4.62214ZM6.66035 4.79992C6.58924 4.82362 6.50628 4.78807 6.48257 4.71696L6.25739 4.14807C6.23368 4.07696 6.26924 3.99399 6.34035 3.97029C6.41146 3.94659 6.49442 3.98214 6.51813 4.05325L6.74331 4.62214C6.76702 4.69325 6.73146 4.76436 6.66035 4.79992ZM6.22183 4.9777C6.15072 5.0014 6.06776 4.96585 6.04405 4.89473L5.80702 4.32585C5.78331 4.25473 5.81887 4.17177 5.88998 4.14807C5.96109 4.12436 6.04405 4.15992 6.06776 4.23103L6.29294 4.79992C6.3285 4.85918 6.29294 4.94214 6.22183 4.9777Z" fill="#D4DEE8"/>
        <path d="M10.5834 11.1406L8.74639 11.8636C8.94787 12.3732 9.51676 12.6221 10.0264 12.4206C10.536 12.2191 10.7849 11.6503 10.5834 11.1406Z" fill="#BBC7D7"/>
    </g>
    <defs>
        <clipPath id="clip0_2902_194">
            <rect width="16" height="16" fill="white" transform="translate(16) rotate(90)"/>
        </clipPath>
    </defs>
</svg>