<svg width="33" height="32" viewBox="0 0 33 32" fill="none" xmlns="http://www.w3.org/2000/svg">
    <circle cx="16.5986" cy="16" r="16" fill="#2DD4BF" fill-opacity="0.12"/>
    <path opacity="0.9" d="M18.932 17.6167H18.8959L18.8845 17.6509C18.7212 18.1408 18.4291 18.5348 18.0072 18.8342C17.5851 19.1338 17.116 19.2833 16.5986 19.2833C16.0812 19.2833 15.6122 19.1338 15.1901 18.8342C14.7682 18.5348 14.476 18.1408 14.3127 17.6509L14.3013 17.6167H14.2653H10.8153V10.2167H22.382V17.6167H18.932ZM9.55286 23.0458C9.88855 23.3815 10.2936 23.55 10.7653 23.55H22.432C22.9037 23.55 23.3087 23.3815 23.6444 23.0458C23.9801 22.7101 24.1486 22.305 24.1486 21.8333V10.1667C24.1486 9.69497 23.9801 9.28992 23.6444 8.95423C23.3087 8.61854 22.9037 8.45 22.432 8.45H10.7653C10.2936 8.45 9.88855 8.61854 9.55286 8.95423C9.21717 9.28992 9.04863 9.69497 9.04863 10.1667V21.8333C9.04863 22.305 9.21717 22.7101 9.55286 23.0458ZM22.382 19.3833V21.7833H10.8153V19.3833H13.2411C13.659 19.9074 14.1561 20.3155 14.7323 20.6071C15.3158 20.9024 15.9381 21.05 16.5986 21.05C17.2592 21.05 17.8815 20.9024 18.465 20.6071C19.0411 20.3156 19.5382 19.9074 19.9561 19.3833H22.382Z" fill="#2CD3BE" stroke="#2CD3BE" stroke-width="0.1"/>
</svg>
