<svg width="31" height="30" viewBox="0 0 31 30" fill="none" xmlns="http://www.w3.org/2000/svg">
    <g clip-path="url(#clip0_2997_6318)">
        <path fill-rule="evenodd" clip-rule="evenodd" d="M15.0986 0C23.3829 0 30.0986 6.71572 30.0986 15C30.0986 23.2843 23.3829 30 15.0986 30C6.81434 30 0.0986328 23.2843 0.0986328 15C0.0986328 6.71571 6.81437 0 15.0986 0Z" fill="#2DD4BF"/>
        <path d="M20.1538 10H10.7165C9.82666 10 9.09863 10.755 9.09863 11.6718V17.3342C9.09863 18.251 9.82666 19.0059 10.7165 19.0059H16.4059L18.9674 22.4843C19.0753 22.6191 19.2371 22.7 19.3988 22.7C19.4528 22.7 19.5067 22.7 19.5606 22.673C19.7763 22.5921 19.9112 22.4034 19.9112 22.1607V18.979H20.1269C21.0167 18.979 21.7447 18.224 21.7447 17.3072V11.6448C21.7717 10.755 21.0436 10 20.1538 10ZM12.9275 15.6624C12.8466 15.7972 12.7657 15.9051 12.6579 15.986C12.55 16.0669 12.4152 16.1208 12.2534 16.1478C12.0916 16.1747 11.9298 16.2017 11.7681 16.2017C11.5793 16.2017 11.4175 16.1747 11.2557 16.1478C11.094 16.1208 10.9591 16.0669 10.8513 16.013V15.258C10.9861 15.3658 11.1209 15.4737 11.2827 15.5276C11.4445 15.5815 11.5793 15.6085 11.7411 15.6085C11.822 15.6085 11.9029 15.6085 11.9838 15.5815C12.0647 15.5546 12.1186 15.5276 12.1456 15.5006C12.1995 15.4737 12.2264 15.4197 12.2534 15.3928C12.2804 15.3389 12.2804 15.3119 12.2804 15.258C12.2804 15.204 12.2534 15.1231 12.2264 15.0692C12.1995 15.0153 12.1456 14.9614 12.0916 14.9344C12.0377 14.8805 11.9568 14.8535 11.8759 14.7996C11.795 14.7456 11.6872 14.7187 11.6063 14.6648C11.3636 14.5569 11.1749 14.4221 11.04 14.2603C10.9052 14.0985 10.8513 13.9098 10.8513 13.6671C10.8513 13.4783 10.8783 13.3435 10.9591 13.2087C11.04 13.0739 11.1209 12.966 11.2288 12.8851C11.3366 12.8042 11.4715 12.7503 11.6332 12.6964C11.795 12.6425 11.9568 12.6425 12.1186 12.6425C12.2804 12.6425 12.4422 12.6425 12.577 12.6694C12.7118 12.6964 12.8197 12.7234 12.9275 12.7773V13.4783C12.8736 13.4514 12.8197 13.3975 12.7388 13.3705C12.6848 13.3435 12.6039 13.3166 12.55 13.2896C12.4691 13.2626 12.4152 13.2626 12.3613 13.2357C12.3073 13.2357 12.2264 13.2087 12.1725 13.2087C12.0916 13.2087 12.0107 13.2087 11.9568 13.2357C11.8759 13.2626 11.822 13.2626 11.795 13.3166C11.7411 13.3435 11.7141 13.3705 11.6872 13.4244C11.6602 13.4783 11.6602 13.5053 11.6602 13.5592C11.6602 13.6132 11.6872 13.6671 11.7141 13.721C11.7411 13.7749 11.795 13.8019 11.849 13.8558C11.9029 13.9098 11.9568 13.9367 12.0377 13.9637C12.1186 13.9907 12.1995 14.0446 12.2804 14.0715C12.4152 14.1255 12.523 14.1794 12.6309 14.2603C12.7388 14.3142 12.8197 14.3951 12.9005 14.476C12.9814 14.5569 13.0354 14.6378 13.0623 14.7456C13.0893 14.8535 13.1163 14.9614 13.1163 15.0962C13.0354 15.3658 13.0084 15.5276 12.9275 15.6624ZM17.2687 16.1478H16.5407V14.0985C16.5407 13.8828 16.5407 13.6401 16.5676 13.3705H16.5407C16.5137 13.5862 16.4598 13.721 16.4328 13.8289L15.6778 16.1478H15.0846L14.3027 13.8558C14.2757 13.8019 14.2487 13.6401 14.1948 13.3705H14.1678C14.1948 13.6941 14.1948 13.9907 14.1948 14.2603V16.1478H13.5477V12.7234H14.6262L15.3003 14.7456C15.3543 14.9074 15.3812 15.0692 15.4082 15.231H15.4352C15.4891 15.0423 15.516 14.8805 15.57 14.7456L16.2441 12.7234H17.2957V16.1478H17.2687ZM19.9381 15.6624C19.8572 15.7972 19.7763 15.9051 19.6685 15.986C19.5606 16.0669 19.4258 16.1208 19.264 16.1478C19.1022 16.1747 18.9405 16.2017 18.7787 16.2017C18.5899 16.2017 18.4281 16.1747 18.2664 16.1478C18.1046 16.1208 17.9698 16.0669 17.8619 16.013V15.258C17.9967 15.3658 18.1315 15.4737 18.2933 15.5276C18.4551 15.5815 18.5899 15.6085 18.7517 15.6085C18.8326 15.6085 18.9135 15.6085 18.9944 15.5815C19.0753 15.5546 19.1292 15.5276 19.1562 15.5006C19.2101 15.4737 19.2371 15.4197 19.264 15.3928C19.291 15.3389 19.291 15.3119 19.291 15.258C19.291 15.204 19.264 15.1231 19.2371 15.0692C19.2101 15.0153 19.1562 14.9614 19.1022 14.9344C19.0483 14.8805 18.9674 14.8535 18.8865 14.7996C18.8056 14.7456 18.6978 14.7187 18.6169 14.6648C18.3742 14.5569 18.1855 14.4221 18.0507 14.2603C17.9158 14.0985 17.8619 13.9098 17.8619 13.6671C17.8619 13.4783 17.8889 13.3435 17.9698 13.2087C18.0507 13.0739 18.1315 12.966 18.2394 12.8851C18.3473 12.8042 18.4821 12.7503 18.6439 12.6964C18.8056 12.6425 18.9674 12.6425 19.1292 12.6425C19.291 12.6425 19.4528 12.6425 19.5876 12.6694C19.7224 12.6964 19.8303 12.7234 19.9381 12.7773V13.4783C19.8842 13.4514 19.8303 13.3975 19.7494 13.3705C19.6954 13.3435 19.6146 13.3166 19.5606 13.2896C19.4797 13.2626 19.4258 13.2626 19.3719 13.2357C19.318 13.2357 19.2371 13.2087 19.1831 13.2087C19.1022 13.2087 19.0214 13.2087 18.9674 13.2357C18.8865 13.2626 18.8326 13.2626 18.8056 13.3166C18.7517 13.3435 18.7247 13.3705 18.6978 13.4244C18.6708 13.4783 18.6708 13.5053 18.6708 13.5592C18.6708 13.6132 18.6978 13.6671 18.7247 13.721C18.7517 13.7749 18.8056 13.8019 18.8596 13.8558C18.9135 13.9098 18.9674 13.9367 19.0483 13.9637C19.1292 13.9907 19.2101 14.0446 19.291 14.0715C19.4258 14.1255 19.5337 14.1794 19.6415 14.2603C19.7494 14.3142 19.8303 14.3951 19.9112 14.476C19.9921 14.5569 20.046 14.6378 20.0729 14.7456C20.0999 14.8535 20.1269 14.9614 20.1269 15.0962C20.046 15.3658 20.019 15.5276 19.9381 15.6624Z" fill="white"/>
    </g>
    <defs>
        <clipPath id="clip0_2997_6318">
            <rect width="30" height="30" fill="white" transform="translate(0.0986328)"/>
        </clipPath>
    </defs>
</svg>
