<svg xmlns="http://www.w3.org/2000/svg" width="20" height="20" viewBox="0 0 20 20" fill="none">
    <path d="M5.7725 6.51683H1.66797H1.51797V6.66683V17.5002V17.6502H1.66797H5.68464H5.83464H5.98464H15.0013C15.3532 17.6502 15.6874 17.5425 16.0012 17.3333C16.3127 17.1256 16.5415 16.8689 16.6798 16.5617L16.6798 16.5617L16.681 16.5589L19.181 10.6839L19.1846 10.6753L19.1872 10.6664C19.2155 10.5674 19.2437 10.4616 19.2718 10.349C19.3021 10.2281 19.318 10.1116 19.318 10.0002V8.3335C19.318 7.84667 19.1336 7.42033 18.774 7.06076C18.4145 6.70119 17.9881 6.51683 17.5013 6.51683H12.319L13.1884 3.0786L13.193 3.0605V3.04183V2.75016C13.193 2.57669 13.1575 2.3991 13.0897 2.21833C13.0218 2.03728 12.9318 1.88522 12.8157 1.7691L11.774 0.72743L11.668 0.621364L11.5619 0.72743L5.7725 6.51683ZM5.68464 15.6835H3.48464V8.4835H5.68464V15.6835ZM10.0013 8.4835H17.3513V9.96937L14.9024 15.6835H7.6513V7.43729L10.8526 4.236L9.85563 8.29774L9.81003 8.4835H10.0013Z" fill="#374151" stroke="white" stroke-width="0.3"/>
</svg>