<svg xmlns="http://www.w3.org/2000/svg" width="20" height="20" viewBox="0 0 20 20" fill="none">
    <path d="M14.2275 13.4833H18.332H18.482V13.3333V2.5V2.35H18.332H14.3154H14.1654H14.0154H4.9987C4.64677 2.35 4.31263 2.45765 3.99883 2.66686C3.68732 2.87453 3.45847 3.13128 3.32024 3.43845L3.32021 3.43843L3.31901 3.44127L0.819008 9.31627L0.815361 9.32484L0.812803 9.33379C0.784512 9.43281 0.756307 9.5386 0.728177 9.65112C0.697936 9.77208 0.682031 9.88857 0.682031 10V11.6667C0.682031 12.1535 0.866395 12.5798 1.22597 12.9394C1.58554 13.299 2.01187 13.4833 2.4987 13.4833H7.68105L6.81161 16.9216L6.80703 16.9397V16.9583V17.25C6.80703 17.4235 6.84254 17.6011 6.91033 17.7818C6.97822 17.9629 7.06817 18.1149 7.1843 18.2311L8.22597 19.2727L8.33203 19.3788L8.4381 19.2727L14.2275 13.4833ZM9.9987 11.5167H2.6487V10.0308L5.09761 4.31667H12.3487V12.5629L9.1474 15.7642L10.1444 11.7024L10.19 11.5167H9.9987ZM14.3154 11.5167V4.31667H16.5154V11.5167H14.3154Z" fill="#374151" stroke="white" stroke-width="0.3"/>
</svg>