<svg width="21" height="21" viewBox="0 0 21 21" fill="none" xmlns="http://www.w3.org/2000/svg">
    <circle cx="7.38008" cy="12.7795" r="7.38008" fill="#6B7280"/>
    <circle cx="7.57311" cy="10.2547" r="1.74791" fill="#F6FBFE"/>
    <path d="M3.88379 15.3429C3.88379 13.9271 5.03155 12.7793 6.44739 12.7793H8.70026C10.1161 12.7793 11.2639 13.9271 11.2639 15.3429C11.2639 16.2868 10.4987 17.052 9.5548 17.052H5.59286C4.64897 17.052 3.88379 16.2868 3.88379 15.3429Z" fill="white"/>
    <path d="M14.3 7.59289L12.9192 6.21212L12.991 6.1534L13.9728 7.00299L14.3197 7.30311L14.6485 6.98339L17.0059 4.69158L17.1067 4.78622L14.3 7.59289ZM12.8519 11.0653C13.5255 11.356 14.2433 11.5 15 11.5C15.7567 11.5 16.4745 11.356 17.1481 11.0653C17.812 10.7788 18.3945 10.3876 18.8911 9.89105C19.3876 9.39454 19.7788 8.81203 20.0653 8.1481C20.356 7.47446 20.5 6.75674 20.5 6C20.5 5.24326 20.356 4.52554 20.0653 3.8519C19.7788 3.18797 19.3876 2.60546 18.8911 2.10895C18.3945 1.61243 17.812 1.22116 17.1481 0.934667C16.4745 0.643989 15.7567 0.5 15 0.5C14.2433 0.5 13.5255 0.643989 12.8519 0.934667C12.188 1.22116 11.6055 1.61243 11.1089 2.10895C10.6124 2.60546 10.2212 3.18797 9.93467 3.8519C9.64399 4.52554 9.5 5.24326 9.5 6C9.5 6.75674 9.64399 7.47446 9.93467 8.1481C10.2212 8.81203 10.6124 9.39454 11.1089 9.89105C11.6055 10.3876 12.188 10.7788 12.8519 11.0653Z" fill="#55B685" stroke="white"/>
</svg>