<svg xmlns="http://www.w3.org/2000/svg" width="32" height="32" viewBox="0 0 32 32" fill="none">
    <rect width="32" height="32" rx="16" fill="#F3F4F6"/>
    <path d="M7.95 22V22.05H8H20H20.05V22V19.9C20.05 19.4659 19.9382 19.0662 19.7145 18.702C19.4911 18.3382 19.1938 18.0599 18.823 17.8681L18.8224 17.8678C18.0442 17.4787 17.2531 17.1867 16.4493 16.992C15.6454 16.7973 14.829 16.7 14 16.7C13.171 16.7 12.3546 16.7973 11.5507 16.992C10.7469 17.1867 9.95584 17.4787 9.17764 17.8678L9.17764 17.8678L9.17703 17.8681C8.80624 18.0599 8.50891 18.3382 8.28552 18.702C8.06185 19.0662 7.95 19.4659 7.95 19.9V22ZM11.8459 15.1541C12.4427 15.7509 13.1616 16.05 14 16.05C14.8384 16.05 15.5573 15.7509 16.1541 15.1541C16.7509 14.5573 17.05 13.8384 17.05 13C17.05 12.1616 16.7509 11.4427 16.1541 10.8459C15.5573 10.2491 14.8384 9.95 14 9.95C13.1616 9.95 12.4427 10.2491 11.8459 10.8459C11.2491 11.4427 10.95 12.1616 10.95 13C10.95 13.8384 11.2491 14.5573 11.8459 15.1541ZM18.45 19.9V20.45H9.55V19.9C9.55 19.7713 9.58205 19.6554 9.64579 19.5511C9.70996 19.4461 9.79402 19.3649 9.89834 19.3067C10.5699 18.971 11.2473 18.7194 11.9307 18.5517C12.6143 18.3839 13.3041 18.3 14 18.3C14.6959 18.3 15.3857 18.3839 16.0693 18.5517C16.7527 18.7194 17.4301 18.971 18.1017 19.3067C18.206 19.3649 18.29 19.4461 18.3542 19.5511C18.418 19.6554 18.45 19.7713 18.45 19.9ZM15.024 14.024C14.7396 14.3085 14.3991 14.45 14 14.45C13.6009 14.45 13.2604 14.3085 12.976 14.024C12.6915 13.7396 12.55 13.3991 12.55 13C12.55 12.6009 12.6915 12.2604 12.976 11.976C13.2604 11.6915 13.6009 11.55 14 11.55C14.3991 11.55 14.7396 11.6915 15.024 11.976C15.3085 12.2604 15.45 12.6009 15.45 13C15.45 13.3991 15.3085 13.7396 15.024 14.024Z" fill="#6B7280" stroke="#6B7280" stroke-width="0.1"/>
    <path d="M18.8581 13.7074L18.7178 13.8487L18.8584 13.9896L21.2556 16.3913L21.3969 16.5329L21.5385 16.3915L26.1414 11.7932L26.2839 11.6508L26.1404 11.5093L25.4796 10.8576L25.3383 10.7182L25.1978 10.8585L21.3972 14.6547L19.7931 13.0507L19.6512 12.9087L19.5098 13.0511L18.8581 13.7074Z" fill="#6B7280" stroke="#6B7280" stroke-width="0.4"/>
</svg>